M48
;Layer_Color=0
;FILE_FORMAT=4:4
METRIC,LZ
;TYPE=PLATED
T1F00S00C0.1000
T2F00S00C0.1500
T3F00S00C0.2000
T4F00S00C0.3000
T5F00S00C0.5000
T6F00S00C0.6500
%
T01
X00126Y0000925
X001267Y0002885
X001648
X00164Y0000925
X001558Y0000925
X0015825Y00053
Y0006
X0019075Y00057
X001905Y000705
X0019901Y00074754
X0020525Y0008125
X0021025
X00217Y00078
X00232Y0007575
Y0008375
Y0009175
X00231Y00096
Y0010375
X00234Y0011
X00232Y0011575
X00237Y0011575
X002375Y0011925
X0024Y0012375
Y0013175
Y0013975
X00232
Y0013175
X00232Y0012375
X0024Y00106749
X0025Y0011075
X0025725Y0010625
X0025725Y0009975
Y0009325
X0025025Y00095656
X00245012Y00095755
X0025025Y00087156
X0023725Y00088
X0024Y0007575
Y0006775
X002445Y0006775
X002435Y0005725
X0024275Y0005375
X00244262Y00049502
X0025225Y0005325
X0025525Y000525
X0025825Y00056
X002665Y0007275
Y0007925
Y0008575
Y0009225
Y0009875
Y0010525
X002715
Y0011175
X002665
X002715Y0012025
X00272Y0012675
X002715Y0013325
Y0013975
X002665
X0027075Y0014625
X0027375Y0015925
X0027525Y001715
X0024575
X0024575Y00169
X0024175Y0016775
X00238375
X0022975Y001675
X0021525Y0016425
X0021525Y0015575
X0020975Y0016775
X0020175
X00201Y0013975
Y0013175
X00201Y0012375
X002Y0011575
X0020201Y00110505
X00193759
X001875Y0011075
X00186759Y00115756
X00191759Y00116006
X00191Y0012275
X00192Y0013175
X001885Y00135
X0018575Y0014375
Y0015175
X0017775
Y0014375
X0016975Y001445
X0016575Y001525
X00161008Y00152007
X00158508Y00147757
X0015275Y0014775
X0015375Y0015175
Y0015975
X0016175
X0016975
X0015375Y0016775
X0014575
X0013775
X0013375
X0012975
Y0015975
X0013775
Y0015175
X0014575
X0014575Y0014775
X0014225Y0014525
X0014225Y00141
X00142Y0013725
X0014575Y0013575
X001555Y0014
X00162Y0013325
X0016175Y0012775
Y0011975
X0015375
Y00127
X0016975Y0012775
X0017025Y0013275
X0016575Y0013575
X0017775Y0012775
X00177259Y00119256
X0017375Y0011975
X0016975
X0017525Y0010075
X00177Y00099
X0017875Y0009725
X001805Y000955
X0018825Y0008775
X0018975Y0010225
X00196259Y00105833
X0019625Y0009825
Y0009575
X0020126Y00102255
X0020525Y001
X0021025Y0009375
X0020525Y000875
X002Y0005175
X00198Y0004125
X002Y0003575
X00192Y0003575
Y0001975
X002
X00202Y0001
X00222
X002205Y00022
X002195Y00027
X0021975Y0003675
X002195Y000415
X00221761Y00044002
X00227Y00044
X0022875Y0005175
X0023425Y0006175
X0023775
X0025725Y0008025
X0024325Y0001625
X0013025Y001065
X0012225
X0013775Y0011975
Y0012775
X0012975
Y0013575
Y0014375
X001315Y00149
X0013775Y0014375
X0012175
Y0013575
Y0015175
Y0015975
X001075Y0016025
Y0016525
Y0017225
X00089Y0017125
X00083Y0016725
X0008325Y0015525
X0008925Y0015925
Y0015125
Y0014725
X00089254Y00143246
X0008925Y00135
X0007825Y0013125
X0007425
X0007025Y00128
X000675Y001245
X0006325Y0012475
X000595Y0012475
X0005825Y0013125
X0005425
X0005025
X0004625
X0006225
X00061Y0010825
X00066
X00073
X00054Y0010825
X00049
X000269Y0012725
Y0013525
X000195Y0012475
X000155Y00128
Y0015375
X0002025Y0016225
X000145Y001705
X0002625Y0017125
X00108Y0014975
X001075Y0014525
Y0014025
X001015Y00074
X0009505Y000695
X001013Y0002885
X000886Y0002885
X0008975Y0000925
X00063
X000548Y0000925
X000505Y0002885
X000632Y0002885
X0006225Y0019125
X0005825
X0005425
X0005025
X0004625
X0004225
X0003825
X0003425
X0002625Y0017925
Y0017525
X0001975Y0017725
X0001725Y0017275
X00015Y0020075
X000145Y00205
X000205Y002125
X000035Y002095
X000205Y002375
X0003217Y0023165
X0004625Y00206
X000775Y00206
X0006967Y002169
X0007025Y00194
X0006625Y001905
X0008325Y0018925
X0008625Y0018325
Y0017925
X0008475Y0017525
X00104171Y0017975
X001075Y0017725
X0011125Y0017525
X001075Y0019075
Y0019575
X00106Y002055
X0010875Y0021375
X00106Y002185
Y00225
X0011425Y0022925
X0011875Y0023475
X0011925Y0023925
X0011675Y0021675
X00093Y0021175
X0009275Y00198
X00087Y00272
X0007775Y0026975
X0007467Y0026415
X0006967
X0005967
X0005467
X0004967Y0026415
X0004467
X0003967
X0001425Y00271
X001175Y0026925
X001435Y0026925
X0014925Y0026025
X0013525Y0026025
X001355Y002515
X0012975Y0024775
X0012575Y002375
X0012175Y0023175
X0012075Y0022375
X0012425Y0021925
X0013425
X0014175Y002205
X0015375Y0022075
X0015125Y002135
X0015125Y0020975
X001585Y0020975
X001555Y0020375
X0016375Y0020575
X0016475Y0019975
X0014925Y0019925
X0015175Y0019625
X0015Y00193
X0014575Y0019475
X0014175Y00192
X001335Y0019575
X0013025Y0019575
X0013825Y0020725
X0014525Y00208
X0014625Y0023125
X0013725Y00231
X0012975Y0022375
X00164Y0021975
X0016925Y0021925
Y0022425
X0017175Y0023675
X0016175Y0023675
Y0024775
X0015375Y002485
X001615Y0026925
X001695
X001875
X001955
X002085
X002265
X0022975Y0025175
X0024175Y0024775
X0025485Y0025175
X0027025Y002575
X0027025Y002365
Y002185
Y002105
Y001925
X00264Y0018475
X0027025Y0017575
X0024575Y00174
X0022975Y0017475
X0022975Y00187
X0022975Y001935
Y002
Y002065
X0022975Y00213
X0022625Y0021175
X0022575Y0021575
Y002245
X0022975Y0022275
X0023375Y0022375
X0024175
X00255Y002155
X0022575Y0023175
X0021775
X0020975
X0020175
X0019Y002295
X0018575Y002325
Y0023975
X0018375Y0025175
X0019375Y0024775
Y0025575
X0021775
X002075Y002175
X0020175Y0021575
Y0020775
X0019375
X001925Y0021175
X0018575Y0020775
Y0019975
X0019375
X0020175
X00207
X0020975Y0019175
X0021375Y0019375
X0020975Y0018375
X0021775
X0020975Y0017575
X0020175
X0019375
X001925Y0018775
X00189
X00182Y0018675
X00182Y0019175
X0020975Y0020775
X0015375Y0017575
X001495
X0014575
X0014175
X0013775
X0015875Y002765
T02
X00151007Y00139507
X0009625Y0016775
X0015775Y002285
X002145Y002125
T03
X001765Y0002
X002105Y0000675
X00245Y000245
X002665Y0003
X0025325Y00061
X00259Y00071
X002195Y0006925
X001165Y0011275
X0006875Y00061
X0009525Y00207
X00004Y00197
X00015Y00264
X00025Y0026575
X0004425Y002735
X002735Y00184
T04
X001394Y0004155
X001521Y0004155
X001648Y0004155
X0017625Y000455
Y0003
X00176299Y000125
X0017625Y00063
Y000785
X001521Y0007965
X001267Y0007965
Y0005425
X00114Y0004155
X001013Y0004155
X000759Y0004155
X000632
X000378Y0004155
X000173Y000455
X000173Y000785
X000378Y0007965
X000505Y0007965
Y0006695
X000759Y0007965
X000886Y0007965
X00114Y000861
X000705Y0011775
X0005475Y0015025
X0004
X001065Y00011
X0004325Y002455
Y0025307
T05
X000173Y00063
T06
X00127Y0
X001397
X001524
X001651
X001778
X001905
X002032
X002159
X002286
X002413
X00254
X002667
X002794Y000127
Y000254
Y000381
Y000508
Y000635
Y000762
Y000889
Y001016
Y001143
Y00127
Y001397
Y001524
Y001651
X0
Y001524
Y001397
Y00127
Y001143
Y001016
Y000889
Y000762
Y000635
Y000508
Y000381
Y000254
Y000127
X000127Y0
X000254
X000381
X000508
X000635
X000762
X000889
X001016
X001143
Y002794
X001016
X000889
X000762
X000635
X000508
X000381
X000254
X000127
X0Y002667
Y00254
Y002413
Y002286
Y002159
Y002032
Y001905
Y001778
X00127Y002794
X001397
X001524
X001651
X001778
X001905
X002032
X002159
X002286
X002413
X00254
X002667
X002794Y002667
Y00254
Y002413
Y002286
Y002159
Y002032
Y001905
Y001778
M30
