M48
;Layer_Color=0
;FILE_FORMAT=4:4
METRIC,LZ
;TYPE=PLATED
T1F00S00C0.1000
T3F00S00C0.2000
T4F00S00C0.3000
%
T01
X00184Y0003575
X00192Y0002775
Y0004375
X002Y0005975
Y0006775
X00192Y0007575
Y0008375
Y0009175
X00184Y0010775
Y0006775
Y0005975
X002665Y0006625
Y0004675
Y0004025
Y0012025
Y0012675
X0016525Y0014275
X00158508Y00142757
X0014575Y0014275
X0003025Y00158
X0012425Y0022925
X0014425Y0022425
X0017425
X0017925
X0024875Y001805
T03
X00184Y0002775
Y0004375
Y0005175
X00232Y0006775
X0024Y0008375
Y0009175
X00248Y0007575
Y0005175
Y0004375
Y0003575
Y0011575
Y0012375
Y0013175
Y0013975
X00184Y0013175
T04
X0024175Y0026675
M30
