G04 Layer_Physical_Order=7*
G04 Layer_Color=1754623*
%FSLAX44Y44*%
%MOMM*%
G71*
G01*
G75*
%ADD33C,0.2000*%
%ADD35C,0.1500*%
%ADD36C,0.1000*%
%ADD40C,0.4000*%
G04:AMPARAMS|DCode=42|XSize=0.7mm|YSize=1.6mm|CornerRadius=0.175mm|HoleSize=0mm|Usage=FLASHONLY|Rotation=90.000|XOffset=0mm|YOffset=0mm|HoleType=Round|Shape=RoundedRectangle|*
%AMROUNDEDRECTD42*
21,1,0.7000,1.2500,0,0,90.0*
21,1,0.3500,1.6000,0,0,90.0*
1,1,0.3500,0.6250,0.1750*
1,1,0.3500,0.6250,-0.1750*
1,1,0.3500,-0.6250,-0.1750*
1,1,0.3500,-0.6250,0.1750*
%
%ADD42ROUNDEDRECTD42*%
G04:AMPARAMS|DCode=43|XSize=0.7mm|YSize=1.6mm|CornerRadius=0.175mm|HoleSize=0mm|Usage=FLASHONLY|Rotation=180.000|XOffset=0mm|YOffset=0mm|HoleType=Round|Shape=RoundedRectangle|*
%AMROUNDEDRECTD43*
21,1,0.7000,1.2500,0,0,180.0*
21,1,0.3500,1.6000,0,0,180.0*
1,1,0.3500,-0.1750,0.6250*
1,1,0.3500,0.1750,0.6250*
1,1,0.3500,0.1750,-0.6250*
1,1,0.3500,-0.1750,-0.6250*
%
%ADD43ROUNDEDRECTD43*%
%ADD44C,0.2000*%
%ADD45C,0.4000*%
%ADD46C,0.6000*%
G36*
X279400Y271254D02*
X277650D01*
X276577Y271040D01*
X275667Y270433D01*
X275060Y269523D01*
X274846Y268450D01*
Y264950D01*
X275060Y263877D01*
X275667Y262967D01*
X276577Y262360D01*
X277650Y262146D01*
X279400D01*
Y258554D01*
X277650D01*
X276577Y258340D01*
X275667Y257733D01*
X275060Y256823D01*
X274846Y255750D01*
Y252250D01*
X275060Y251177D01*
X275667Y250267D01*
X276577Y249660D01*
X277650Y249446D01*
X279400D01*
Y245854D01*
X277650D01*
X276577Y245640D01*
X275667Y245033D01*
X275060Y244123D01*
X274846Y243050D01*
Y239550D01*
X275060Y238477D01*
X275667Y237567D01*
X276577Y236960D01*
X277650Y236746D01*
X279400D01*
Y233154D01*
X277650D01*
X276577Y232940D01*
X275667Y232333D01*
X275060Y231423D01*
X274846Y230350D01*
Y226850D01*
X275060Y225777D01*
X275667Y224867D01*
X276577Y224260D01*
X277650Y224046D01*
X279400D01*
Y220454D01*
X277650D01*
X276577Y220240D01*
X275667Y219633D01*
X275060Y218723D01*
X274846Y217650D01*
Y214150D01*
X275060Y213077D01*
X275667Y212167D01*
X276577Y211560D01*
X277650Y211346D01*
X279400D01*
Y207754D01*
X277650D01*
X276577Y207540D01*
X275667Y206933D01*
X275060Y206023D01*
X274846Y204950D01*
Y201450D01*
X275060Y200377D01*
X275667Y199467D01*
X276577Y198860D01*
X277650Y198646D01*
X279400D01*
Y195054D01*
X277650D01*
X276577Y194840D01*
X275667Y194233D01*
X275060Y193323D01*
X274846Y192250D01*
Y188750D01*
X275060Y187677D01*
X275667Y186767D01*
X276577Y186160D01*
X277650Y185946D01*
X279400D01*
Y182354D01*
X277650D01*
X276577Y182140D01*
X275667Y181533D01*
X275060Y180623D01*
X274846Y179550D01*
Y176050D01*
X275060Y174977D01*
X275217Y174742D01*
X274582Y173406D01*
X274470Y173384D01*
X273808Y172942D01*
X273366Y172280D01*
X273211Y171500D01*
X273366Y170720D01*
X273808Y170058D01*
X274470Y169616D01*
X274669Y169576D01*
X275282Y168297D01*
X275283Y168258D01*
X275060Y167923D01*
X274846Y166850D01*
Y163350D01*
X275060Y162277D01*
X275100Y162217D01*
X274916Y161867D01*
X274260Y161188D01*
X273750Y161289D01*
X272970Y161134D01*
X272308Y160692D01*
X271866Y160030D01*
X271711Y159250D01*
X271866Y158470D01*
X272308Y157808D01*
X272970Y157366D01*
X273750Y157211D01*
X274531Y157366D01*
X275192Y157808D01*
X275634Y158470D01*
X275789Y159250D01*
X275673Y159836D01*
X276199Y160409D01*
X276689Y160737D01*
X277650Y160546D01*
X279400D01*
Y156954D01*
X277650D01*
X276577Y156740D01*
X275667Y156133D01*
X275060Y155223D01*
X274846Y154150D01*
Y150650D01*
X275060Y149577D01*
X275667Y148667D01*
X276577Y148060D01*
X277650Y147846D01*
X279400D01*
Y144254D01*
X277650D01*
X276577Y144040D01*
X275667Y143433D01*
X275060Y142523D01*
X274846Y141450D01*
Y137950D01*
X275060Y136877D01*
X275667Y135967D01*
X276577Y135360D01*
X277650Y135146D01*
X279400D01*
Y131554D01*
X277650D01*
X276577Y131340D01*
X275667Y130733D01*
X275060Y129823D01*
X274846Y128750D01*
Y125250D01*
X275060Y124177D01*
X275667Y123267D01*
X276577Y122660D01*
X277650Y122446D01*
X279400D01*
Y118854D01*
X277650D01*
X276577Y118640D01*
X275667Y118033D01*
X275060Y117123D01*
X274846Y116050D01*
Y112550D01*
X275060Y111477D01*
X275667Y110567D01*
X276577Y109960D01*
X277650Y109746D01*
X279400D01*
Y106154D01*
X277650D01*
X276577Y105940D01*
X275667Y105333D01*
X275060Y104423D01*
X274846Y103350D01*
Y99850D01*
X275060Y98777D01*
X275667Y97867D01*
X276577Y97260D01*
X277650Y97046D01*
X279400D01*
Y93454D01*
X277650D01*
X276577Y93240D01*
X275667Y92633D01*
X275060Y91723D01*
X274846Y90650D01*
Y87150D01*
X275060Y86077D01*
X275667Y85167D01*
X276577Y84560D01*
X277650Y84346D01*
X279400D01*
Y80754D01*
X277650D01*
X276577Y80540D01*
X275667Y79933D01*
X275060Y79023D01*
X274846Y77950D01*
Y74450D01*
X275060Y73377D01*
X275667Y72467D01*
X276577Y71860D01*
X277650Y71646D01*
X279400D01*
Y68054D01*
X277650D01*
X276577Y67840D01*
X275667Y67233D01*
X275060Y66323D01*
X274846Y65250D01*
Y61750D01*
X275060Y60677D01*
X275667Y59767D01*
X276577Y59160D01*
X277650Y58946D01*
X279400D01*
Y55354D01*
X277650D01*
X276577Y55140D01*
X275667Y54533D01*
X275060Y53623D01*
X274846Y52550D01*
Y49050D01*
X275060Y47977D01*
X275667Y47067D01*
X276577Y46460D01*
X277650Y46246D01*
X279400D01*
Y42654D01*
X277650D01*
X276577Y42440D01*
X275667Y41833D01*
X275060Y40923D01*
X274846Y39850D01*
Y36350D01*
X275060Y35277D01*
X275667Y34367D01*
X276577Y33760D01*
X277650Y33546D01*
X279400D01*
Y29954D01*
X277650D01*
X276577Y29740D01*
X275667Y29133D01*
X275060Y28223D01*
X274846Y27150D01*
Y23650D01*
X275060Y22577D01*
X275667Y21667D01*
X276577Y21060D01*
X277650Y20846D01*
X279400D01*
Y17254D01*
X277650D01*
X276577Y17040D01*
X275667Y16433D01*
X275060Y15523D01*
X274846Y14450D01*
Y10950D01*
X275060Y9877D01*
X275667Y8967D01*
X276577Y8360D01*
X277650Y8146D01*
X279400D01*
Y0D01*
X271254D01*
Y1750D01*
X271040Y2823D01*
X270433Y3733D01*
X269523Y4340D01*
X268450Y4554D01*
X264950D01*
X263877Y4340D01*
X262967Y3733D01*
X262360Y2823D01*
X262146Y1750D01*
Y0D01*
X258554D01*
Y1750D01*
X258340Y2823D01*
X257733Y3733D01*
X256823Y4340D01*
X255750Y4554D01*
X252250D01*
X251177Y4340D01*
X250267Y3733D01*
X249660Y2823D01*
X249446Y1750D01*
Y0D01*
X245854D01*
Y1750D01*
X245640Y2823D01*
X245033Y3733D01*
X244123Y4340D01*
X243050Y4554D01*
X239550D01*
X238477Y4340D01*
X237567Y3733D01*
X236960Y2823D01*
X236746Y1750D01*
Y0D01*
X233154D01*
Y1750D01*
X232940Y2823D01*
X232333Y3733D01*
X231423Y4340D01*
X230350Y4554D01*
X226850D01*
X225777Y4340D01*
X224867Y3733D01*
X224260Y2823D01*
X224046Y1750D01*
Y0D01*
X220454D01*
Y1750D01*
X220240Y2823D01*
X219633Y3733D01*
X218723Y4340D01*
X217650Y4554D01*
X214150D01*
X213077Y4340D01*
X212167Y3733D01*
X211560Y2823D01*
X211346Y1750D01*
Y0D01*
X207754D01*
Y1750D01*
X207540Y2823D01*
X206933Y3733D01*
X206023Y4340D01*
X204950Y4554D01*
X201450D01*
X200377Y4340D01*
X199467Y3733D01*
X198860Y2823D01*
X198646Y1750D01*
Y0D01*
X195054D01*
Y1750D01*
X194840Y2823D01*
X194233Y3733D01*
X193323Y4340D01*
X192250Y4554D01*
X188750D01*
X187677Y4340D01*
X186767Y3733D01*
X186160Y2823D01*
X185946Y1750D01*
Y0D01*
X182354D01*
Y1750D01*
X182140Y2823D01*
X181533Y3733D01*
X180623Y4340D01*
X179550Y4554D01*
X176050D01*
X174977Y4340D01*
X174067Y3733D01*
X173460Y2823D01*
X173246Y1750D01*
Y0D01*
X169654D01*
Y1750D01*
X169440Y2823D01*
X168833Y3733D01*
X167923Y4340D01*
X166850Y4554D01*
X163350D01*
X162277Y4340D01*
X161367Y3733D01*
X160760Y2823D01*
X160546Y1750D01*
Y0D01*
X156954D01*
Y1750D01*
X156740Y2823D01*
X156133Y3733D01*
X155223Y4340D01*
X154150Y4554D01*
X150650D01*
X149577Y4340D01*
X148667Y3733D01*
X148060Y2823D01*
X147846Y1750D01*
Y0D01*
X144254D01*
Y1750D01*
X144040Y2823D01*
X143433Y3733D01*
X142523Y4340D01*
X141450Y4554D01*
X137950D01*
X136877Y4340D01*
X135967Y3733D01*
X135360Y2823D01*
X135146Y1750D01*
Y0D01*
X131554D01*
Y1750D01*
X131340Y2823D01*
X130733Y3733D01*
X129823Y4340D01*
X128750Y4554D01*
X125250D01*
X124177Y4340D01*
X123267Y3733D01*
X122660Y2823D01*
X122446Y1750D01*
Y0D01*
X118854D01*
Y1750D01*
X118640Y2823D01*
X118033Y3733D01*
X117123Y4340D01*
X116050Y4554D01*
X112550D01*
X111477Y4340D01*
X110567Y3733D01*
X109960Y2823D01*
X109746Y1750D01*
Y0D01*
X106154D01*
Y1750D01*
X105940Y2823D01*
X105333Y3733D01*
X104423Y4340D01*
X103350Y4554D01*
X99850D01*
X98777Y4340D01*
X97867Y3733D01*
X97260Y2823D01*
X97046Y1750D01*
Y0D01*
X93454D01*
Y1750D01*
X93240Y2823D01*
X92633Y3733D01*
X91723Y4340D01*
X90650Y4554D01*
X87150D01*
X86077Y4340D01*
X85167Y3733D01*
X84560Y2823D01*
X84346Y1750D01*
Y0D01*
X80754D01*
Y1750D01*
X80540Y2823D01*
X79933Y3733D01*
X79023Y4340D01*
X77950Y4554D01*
X74450D01*
X73377Y4340D01*
X72467Y3733D01*
X71860Y2823D01*
X71646Y1750D01*
Y0D01*
X68054D01*
Y1750D01*
X67840Y2823D01*
X67233Y3733D01*
X66323Y4340D01*
X65250Y4554D01*
X61750D01*
X60677Y4340D01*
X59767Y3733D01*
X59160Y2823D01*
X58946Y1750D01*
Y0D01*
X55354D01*
Y1750D01*
X55140Y2823D01*
X54533Y3733D01*
X53623Y4340D01*
X52550Y4554D01*
X49050D01*
X47977Y4340D01*
X47067Y3733D01*
X46460Y2823D01*
X46246Y1750D01*
Y0D01*
X42654D01*
Y1750D01*
X42440Y2823D01*
X41833Y3733D01*
X40923Y4340D01*
X39850Y4554D01*
X36350D01*
X35277Y4340D01*
X34367Y3733D01*
X33760Y2823D01*
X33546Y1750D01*
Y0D01*
X29954D01*
Y1750D01*
X29740Y2823D01*
X29133Y3733D01*
X28223Y4340D01*
X27184Y4547D01*
Y12661D01*
X61012Y46488D01*
X61399Y47067D01*
X61534Y47750D01*
Y79011D01*
X116262Y133738D01*
X116649Y134317D01*
X116784Y135000D01*
Y157761D01*
X118475Y159452D01*
X119853Y159034D01*
X119866Y158970D01*
X120308Y158308D01*
X120970Y157866D01*
X121750Y157711D01*
X122106Y157782D01*
X123160Y157150D01*
X123376Y156904D01*
Y154596D01*
X123160Y154350D01*
X122106Y153718D01*
X121750Y153789D01*
X120970Y153634D01*
X120308Y153192D01*
X119866Y152530D01*
X119711Y151750D01*
X119866Y150970D01*
X120308Y150308D01*
X120970Y149866D01*
X121750Y149711D01*
X122106Y149782D01*
X123160Y149150D01*
X123376Y148904D01*
Y146596D01*
X123160Y146350D01*
X122106Y145718D01*
X121750Y145789D01*
X120970Y145634D01*
X120308Y145192D01*
X119866Y144530D01*
X119711Y143750D01*
X119866Y142970D01*
X120308Y142308D01*
X120970Y141866D01*
X121750Y141711D01*
X122106Y141782D01*
X123160Y141150D01*
X123376Y140904D01*
Y138596D01*
X123160Y138350D01*
X122106Y137718D01*
X121750Y137789D01*
X120970Y137634D01*
X120308Y137192D01*
X119866Y136530D01*
X119711Y135750D01*
X119866Y134970D01*
X120308Y134308D01*
X120970Y133866D01*
X121750Y133711D01*
X122106Y133782D01*
X123160Y133150D01*
X123376Y132904D01*
Y115500D01*
X123852Y114352D01*
X128764Y109440D01*
X128808Y107942D01*
X128366Y107280D01*
X128211Y106500D01*
X128366Y105720D01*
X128626Y105330D01*
Y101750D01*
X129102Y100602D01*
X131102Y98602D01*
X132250Y98126D01*
X155077D01*
X155376Y97828D01*
Y88750D01*
X155852Y87602D01*
X171102Y72352D01*
X172250Y71876D01*
X180327D01*
X186126Y66077D01*
Y56250D01*
X186602Y55102D01*
X194102Y47602D01*
X195250Y47126D01*
X196750D01*
X197898Y47602D01*
X198648Y48352D01*
X199124Y49500D01*
X200000Y49710D01*
X200780Y49866D01*
X201442Y50308D01*
X201884Y50969D01*
X202039Y51750D01*
X203162Y52255D01*
X203883Y52320D01*
X205376Y50827D01*
Y36750D01*
X205852Y35602D01*
X207102Y34352D01*
X208250Y33876D01*
X211000D01*
X212148Y34352D01*
X213398Y35602D01*
X213874Y36750D01*
Y39077D01*
X214673Y39876D01*
X217848D01*
X218600Y38718D01*
X218552Y38355D01*
X218308Y38192D01*
X217866Y37530D01*
X217711Y36750D01*
X217866Y35970D01*
X218308Y35308D01*
X218970Y34866D01*
X219750Y34711D01*
X220530Y34866D01*
X221192Y35308D01*
X221634Y35970D01*
X221789Y36750D01*
X221634Y37530D01*
X221192Y38192D01*
X220727Y38503D01*
X220718Y38523D01*
X220630Y39381D01*
X220699Y39895D01*
X220942Y40058D01*
X221384Y40720D01*
X221388Y40742D01*
X221761Y41963D01*
X222541Y42118D01*
X223203Y42560D01*
X223584Y43130D01*
X223645Y43222D01*
X223668Y43285D01*
X223782Y43602D01*
X224981Y43604D01*
X225090Y43293D01*
X225116Y43220D01*
X225161Y43153D01*
X225558Y42558D01*
X226220Y42116D01*
X227000Y41961D01*
X227780Y42116D01*
X228442Y42558D01*
X228884Y43220D01*
X229039Y44000D01*
X228884Y44780D01*
X228442Y45442D01*
X227780Y45884D01*
X227000Y46039D01*
X226220Y45884D01*
X225558Y45442D01*
X225177Y44872D01*
X225116Y44780D01*
X225093Y44717D01*
X224979Y44400D01*
X223779Y44398D01*
X223671Y44709D01*
X223645Y44783D01*
X223600Y44850D01*
X223203Y45444D01*
X222541Y45886D01*
X221761Y46041D01*
X220980Y45886D01*
X220319Y45444D01*
X219877Y44783D01*
X219872Y44760D01*
X219500Y43539D01*
X218720Y43384D01*
X218330Y43124D01*
X214000D01*
X212852Y42648D01*
X211102Y40898D01*
X210626Y39750D01*
Y37422D01*
X210327Y37124D01*
X208923D01*
X208624Y37422D01*
Y51500D01*
X208148Y52648D01*
X204898Y55898D01*
X203750Y56374D01*
X200966D01*
X200672Y56732D01*
X200275Y57644D01*
X200633Y58510D01*
Y73025D01*
X201848Y73600D01*
X202012Y73535D01*
X203000Y73126D01*
X205500D01*
X206648Y73602D01*
X207398Y74352D01*
X207873Y75500D01*
Y77000D01*
X207398Y78148D01*
X207036Y78510D01*
X206840Y79248D01*
X207238Y79956D01*
X207579Y80068D01*
X208649Y80046D01*
X208808Y79808D01*
X209470Y79366D01*
X210250Y79211D01*
X211030Y79366D01*
X211692Y79808D01*
X212134Y80469D01*
X212289Y81250D01*
X212134Y82030D01*
X211692Y82692D01*
X211030Y83134D01*
X210805Y83179D01*
X209998Y84107D01*
X209874Y84509D01*
Y89000D01*
X209398Y90148D01*
X208148Y91398D01*
X207000Y91874D01*
X204000D01*
X202852Y91398D01*
X201797Y90343D01*
X200624Y90829D01*
Y99047D01*
X200893Y99541D01*
X201572Y100278D01*
X202040Y100371D01*
X202273Y100297D01*
X203277Y99670D01*
X203366Y99219D01*
X203808Y98558D01*
X204470Y98116D01*
X205250Y97961D01*
X206030Y98116D01*
X206692Y98558D01*
X207134Y99219D01*
X207289Y100000D01*
X207134Y100780D01*
X206692Y101442D01*
X206030Y101884D01*
X205250Y102039D01*
X204470Y101884D01*
X204237Y101958D01*
X203233Y102585D01*
X203144Y103035D01*
X202762Y103606D01*
X202867Y104071D01*
X203223Y104876D01*
X217327D01*
X226626Y95577D01*
Y91750D01*
X227102Y90602D01*
X229852Y87852D01*
X231000Y87376D01*
X232786D01*
X233934Y87852D01*
X233998Y87916D01*
X235322Y87443D01*
X235366Y87220D01*
X235808Y86558D01*
X236470Y86116D01*
X237250Y85961D01*
X238030Y86116D01*
X238692Y86558D01*
X239134Y87220D01*
X239289Y88000D01*
X239134Y88780D01*
X238916Y89106D01*
X239343Y90216D01*
X239479Y90376D01*
X244827D01*
X248251Y86952D01*
X248366Y86376D01*
X248808Y85714D01*
X249470Y85272D01*
X250250Y85117D01*
X251030Y85272D01*
X251692Y85714D01*
X252134Y86376D01*
X252289Y87156D01*
X252134Y87937D01*
X251692Y88598D01*
X251030Y89040D01*
X250688Y89108D01*
X246788Y93008D01*
X246634Y93609D01*
X246606Y94540D01*
X246896Y94974D01*
X247051Y95755D01*
X246896Y96535D01*
X246454Y97197D01*
X246627Y98609D01*
X248394Y100376D01*
X250077D01*
X255626Y94827D01*
Y94420D01*
X255366Y94030D01*
X255211Y93250D01*
X255366Y92470D01*
X255808Y91808D01*
X256470Y91366D01*
X257250Y91211D01*
X258030Y91366D01*
X258692Y91808D01*
X259134Y92470D01*
X259289Y93250D01*
X259134Y94030D01*
X258874Y94420D01*
Y95500D01*
X258398Y96648D01*
X258319Y96727D01*
X258597Y98245D01*
X258692Y98308D01*
X259134Y98970D01*
X259289Y99750D01*
X259134Y100530D01*
X258692Y101192D01*
X258030Y101634D01*
X257571Y101725D01*
X256082Y103214D01*
X256790Y104302D01*
X257250Y104211D01*
X258030Y104366D01*
X258692Y104808D01*
X259134Y105470D01*
X259289Y106250D01*
X259134Y107030D01*
X258692Y107692D01*
X258030Y108134D01*
X257571Y108225D01*
X256124Y109673D01*
Y115000D01*
X255648Y116148D01*
X254398Y117398D01*
X253250Y117874D01*
X247750D01*
X246602Y117398D01*
X242676Y113472D01*
X241599Y114192D01*
X241624Y114250D01*
Y122579D01*
X241884Y122969D01*
X242039Y123750D01*
X241884Y124530D01*
X241442Y125191D01*
X240780Y125634D01*
X240000Y125789D01*
X239220Y125634D01*
X238558Y125191D01*
X238116Y124530D01*
X237961Y123750D01*
X238116Y122969D01*
X238376Y122579D01*
Y122410D01*
X237500Y121289D01*
X237394Y121268D01*
X236124Y122147D01*
Y125750D01*
X235648Y126898D01*
X234898Y127648D01*
X233750Y128124D01*
X231393D01*
X230509Y128943D01*
X230429Y129077D01*
X230511Y129159D01*
X231683Y129774D01*
X232000Y129710D01*
X232780Y129866D01*
X233442Y130308D01*
X233884Y130969D01*
X234039Y131750D01*
X233884Y132530D01*
X233624Y132920D01*
Y133500D01*
X233594Y133570D01*
X234300Y134626D01*
X238419D01*
X238805Y133356D01*
X238558Y133191D01*
X238116Y132530D01*
X237961Y131750D01*
X238116Y130969D01*
X238558Y130308D01*
X239220Y129866D01*
X240000Y129710D01*
X240780Y129866D01*
X241170Y130126D01*
X252250D01*
X253398Y130602D01*
X254398Y131602D01*
X254874Y132750D01*
Y135250D01*
X254398Y136398D01*
X253398Y137398D01*
X252250Y137874D01*
X242679D01*
X242087Y138689D01*
X241919Y139144D01*
X242039Y139750D01*
X241884Y140530D01*
X241442Y141192D01*
X240780Y141634D01*
X240000Y141789D01*
X239220Y141634D01*
X238558Y141192D01*
X237060Y141236D01*
X234648Y143648D01*
X233500Y144124D01*
X221922D01*
X205148Y160898D01*
X204000Y161374D01*
X196624D01*
Y169000D01*
X196148Y170148D01*
X195398Y170898D01*
X194250Y171374D01*
X192500D01*
X191352Y170898D01*
X190900Y170446D01*
X190125Y170261D01*
X189351Y170446D01*
X188898Y170898D01*
X187750Y171374D01*
X179750D01*
X178602Y170898D01*
X169429Y161725D01*
X168970Y161634D01*
X168308Y161192D01*
X167866Y160530D01*
X167711Y159750D01*
X166686Y158624D01*
X165173D01*
X163725Y160071D01*
X163634Y160530D01*
X163192Y161192D01*
X162530Y161634D01*
X161750Y161789D01*
X160970Y161634D01*
X160308Y161192D01*
X159866Y160530D01*
X159711Y159750D01*
X159866Y158970D01*
X160308Y158308D01*
X160970Y157866D01*
X161429Y157775D01*
X163352Y155852D01*
X164320Y155451D01*
X164526Y154773D01*
X164554Y154106D01*
X164308Y153942D01*
X163962Y153424D01*
X163231Y153276D01*
X162569Y153271D01*
X162450Y153449D01*
X161788Y153891D01*
X161008Y154047D01*
X160228Y153891D01*
X159566Y153449D01*
X159563Y153445D01*
X159487Y153433D01*
X158194Y153683D01*
X157898Y154398D01*
X156898Y155398D01*
X155750Y155874D01*
X149500D01*
X148352Y155398D01*
X147352Y154398D01*
X147108Y153809D01*
X146530Y153634D01*
X145750Y153789D01*
X144970Y153634D01*
X144308Y153192D01*
X143866Y152530D01*
X143711Y151750D01*
X143866Y150970D01*
X144308Y150308D01*
X144308Y149192D01*
X143866Y148530D01*
X143791Y148153D01*
X143385Y147610D01*
X142518Y147236D01*
X142250Y147289D01*
X141470Y147134D01*
X140808Y146692D01*
X140366Y146030D01*
X140319Y145792D01*
X139849Y145542D01*
X139001Y145320D01*
X138530Y145634D01*
X137750Y145789D01*
X136970Y145634D01*
X136308Y145192D01*
X135866Y144530D01*
X135711Y143750D01*
X135866Y142970D01*
X136308Y142308D01*
X136970Y141866D01*
X137750Y141711D01*
X138530Y141866D01*
X139192Y142308D01*
X139310Y142484D01*
X140366Y141780D01*
X140211Y141000D01*
X140366Y140220D01*
X140808Y139558D01*
X140558Y138692D01*
X140116Y138030D01*
X139961Y137250D01*
X140116Y136470D01*
X140558Y135808D01*
X141220Y135366D01*
X142000Y135211D01*
X142780Y135366D01*
X143866Y134970D01*
X144308Y134308D01*
X144970Y133866D01*
X145750Y133711D01*
X146530Y133866D01*
X147192Y134308D01*
X147634Y134970D01*
X147789Y135750D01*
X147634Y136530D01*
X147192Y137192D01*
X146530Y137634D01*
X145750Y137789D01*
X144970Y137634D01*
X143884Y138030D01*
X143442Y138692D01*
X143692Y139558D01*
X144134Y140220D01*
X144289Y141000D01*
X144134Y141780D01*
X143766Y142330D01*
X143692Y142442D01*
Y143808D01*
X143766Y143919D01*
X144134Y144470D01*
X144209Y144847D01*
X144615Y145390D01*
X145482Y145764D01*
X145750Y145711D01*
X146530Y145866D01*
X146772Y146028D01*
X147352Y145852D01*
X150045Y143159D01*
X150041Y142763D01*
X149741Y141667D01*
X149205Y141309D01*
X148652Y140482D01*
X148458Y139507D01*
X148652Y138531D01*
X149205Y137704D01*
X150032Y137152D01*
X151007Y136958D01*
X151983Y137152D01*
X152810Y137704D01*
X152955Y137922D01*
X153546Y138263D01*
X154772Y137741D01*
X154876Y137000D01*
Y133250D01*
X155352Y132102D01*
X158352Y129102D01*
X159500Y128626D01*
X159711Y127750D01*
X159866Y126970D01*
X160308Y126308D01*
X160970Y125866D01*
X161750Y125711D01*
X162530Y125866D01*
X163192Y126308D01*
X163634Y126970D01*
X163789Y127750D01*
X163786Y128598D01*
X164733Y129019D01*
X164934Y129102D01*
X167274Y131443D01*
X168808Y131308D01*
X169282Y130991D01*
X169298Y130228D01*
X169148Y129670D01*
X168970Y129634D01*
X168308Y129192D01*
X167866Y128530D01*
X167711Y127750D01*
X167866Y126970D01*
X168308Y126308D01*
X168970Y125866D01*
X169750Y125711D01*
X170530Y125866D01*
X171192Y126308D01*
X171634Y126970D01*
X171789Y127750D01*
X171634Y128530D01*
X171192Y129192D01*
X170718Y129509D01*
X170702Y130272D01*
X170852Y130830D01*
X171030Y130866D01*
X171692Y131308D01*
X172134Y131970D01*
X172289Y132750D01*
X172134Y133530D01*
X171692Y134192D01*
X171621Y134996D01*
X172672Y136126D01*
X185436D01*
X186461Y135000D01*
X186616Y134220D01*
X187058Y133558D01*
X187720Y133116D01*
X188500Y132961D01*
X189430Y131924D01*
X189431Y131899D01*
X188395Y130874D01*
X179250D01*
X178102Y130398D01*
X177429Y129725D01*
X176970Y129634D01*
X176308Y129192D01*
X175866Y128530D01*
X175711Y127750D01*
X175866Y126970D01*
X176308Y126308D01*
X176264Y124810D01*
X175578Y124124D01*
X164500D01*
X163352Y123648D01*
X161429Y121725D01*
X160970Y121634D01*
X160308Y121192D01*
X159866Y120530D01*
X159711Y119750D01*
X158590Y118874D01*
X156910D01*
X155789Y119750D01*
X155634Y120530D01*
X155192Y121192D01*
X154530Y121634D01*
X153750Y121789D01*
X153144Y121669D01*
X152863Y121687D01*
X151653Y122282D01*
X151398Y122898D01*
X151376Y122920D01*
X150728Y123750D01*
X151376Y124580D01*
X152172Y125376D01*
X152580D01*
X152970Y125116D01*
X153750Y124961D01*
X154530Y125116D01*
X155192Y125558D01*
X155634Y126220D01*
X155789Y127000D01*
X155634Y127780D01*
X155192Y128442D01*
X154530Y128884D01*
X153750Y129039D01*
X152970Y128884D01*
X152580Y128624D01*
X151500D01*
X150352Y128148D01*
X148827Y126624D01*
X145000D01*
X144124Y127209D01*
Y129000D01*
X143648Y130148D01*
X142398Y131398D01*
X141250Y131874D01*
X139000D01*
X137852Y131398D01*
X136602Y130148D01*
X136126Y129000D01*
Y128920D01*
X135866Y128530D01*
X135711Y127750D01*
X134686Y126624D01*
X132814D01*
X131789Y127750D01*
X131634Y128530D01*
X131192Y129192D01*
X130530Y129634D01*
X129750Y129789D01*
X128624Y130814D01*
Y132686D01*
X129750Y133711D01*
X130530Y133866D01*
X131192Y134308D01*
X131634Y134970D01*
X131789Y135750D01*
X131634Y136530D01*
X131192Y137192D01*
X130530Y137634D01*
X129750Y137789D01*
X128624Y138814D01*
Y140686D01*
X129750Y141711D01*
X130530Y141866D01*
X131192Y142308D01*
X131634Y142970D01*
X131789Y143750D01*
X131634Y144530D01*
X131192Y145192D01*
X130530Y145634D01*
X129750Y145789D01*
X128624Y146814D01*
Y156327D01*
X130071Y157775D01*
X130530Y157866D01*
X131192Y158308D01*
X131634Y158970D01*
X131789Y159750D01*
X131634Y160530D01*
X131192Y161192D01*
X130530Y161634D01*
X129750Y161789D01*
X128970Y161634D01*
X128308Y161192D01*
X127894Y160572D01*
X127782Y160548D01*
X126624Y160783D01*
Y162327D01*
X130071Y165775D01*
X130530Y165866D01*
X131192Y166308D01*
X132308D01*
X132970Y165866D01*
X133750Y165711D01*
X134530Y165866D01*
X135192Y166308D01*
X136308D01*
X136970Y165866D01*
X137750Y165711D01*
X138530Y165866D01*
X139192Y166308D01*
X139634Y166970D01*
X139789Y167750D01*
X139634Y168530D01*
X139192Y169192D01*
X138530Y169634D01*
X137750Y169789D01*
X136970Y169634D01*
X136308Y169192D01*
X135192D01*
X134530Y169634D01*
X133750Y169789D01*
X132970Y169634D01*
X132308Y169192D01*
X131192D01*
X130530Y169634D01*
X130466Y169647D01*
X130048Y171025D01*
X136489Y177466D01*
X138964D01*
X139245Y177174D01*
X139799Y176196D01*
X139711Y175750D01*
X139866Y174970D01*
X140308Y174308D01*
X140970Y173866D01*
X141750Y173711D01*
X142530Y173866D01*
X143192Y174308D01*
X144308D01*
X144970Y173866D01*
X145750Y173711D01*
X146530Y173866D01*
X147192Y174308D01*
X148058D01*
X148720Y173866D01*
X149500Y173711D01*
X150280Y173866D01*
X150942Y174308D01*
X152308D01*
X152970Y173866D01*
X153750Y173711D01*
X154530Y173866D01*
X155192Y174308D01*
X155634Y174970D01*
X155789Y175750D01*
X155701Y176196D01*
X156255Y177174D01*
X156536Y177466D01*
X184389D01*
X185072Y177602D01*
X185651Y177988D01*
X193762Y186099D01*
X193868Y186259D01*
X193942Y186308D01*
X194384Y186970D01*
X194539Y187750D01*
X194384Y188530D01*
X193942Y189192D01*
X193280Y189634D01*
X192500Y189789D01*
X191720Y189634D01*
X191058Y189192D01*
X190442D01*
X189780Y189634D01*
X189000Y189789D01*
X188220Y189634D01*
X187558Y189192D01*
X187547Y189175D01*
X186950Y189340D01*
X186374Y189705D01*
Y193750D01*
X185898Y194898D01*
X185163Y195633D01*
X185195Y197206D01*
X185750Y197711D01*
X186530Y197866D01*
X187192Y198308D01*
X187634Y198970D01*
X187789Y199750D01*
X187634Y200530D01*
X187192Y201192D01*
X186530Y201634D01*
X185750Y201789D01*
X184624Y202814D01*
Y229436D01*
X185750Y230461D01*
X186530Y230616D01*
X187192Y231058D01*
X188116Y230280D01*
X187961Y229500D01*
X188116Y228720D01*
X188558Y228058D01*
X189220Y227616D01*
X190000Y227461D01*
X190780Y227616D01*
X191442Y228058D01*
X191884Y228720D01*
X192039Y229500D01*
X191884Y230280D01*
X191442Y230942D01*
X190780Y231384D01*
X190000Y231539D01*
X189220Y231384D01*
X188558Y230942D01*
X187634Y231720D01*
X187789Y232500D01*
X187634Y233280D01*
X187192Y233942D01*
X186530Y234384D01*
X185750Y234539D01*
X184624Y235564D01*
Y249928D01*
X185192Y250308D01*
X185634Y250970D01*
X185789Y251750D01*
X185634Y252530D01*
X185192Y253192D01*
X184530Y253634D01*
X183750Y253789D01*
X182970Y253634D01*
X182308Y253192D01*
X181866Y252530D01*
X181733Y251860D01*
X181376Y251000D01*
Y195500D01*
X181583Y195001D01*
X181251Y193753D01*
X180953Y193456D01*
X180558Y193192D01*
X180116Y192530D01*
X179961Y191750D01*
X180116Y190970D01*
X180558Y190308D01*
X181102Y189944D01*
X181154Y189861D01*
X181220Y189350D01*
Y189150D01*
X181147Y188586D01*
X180558Y188192D01*
X180116Y187530D01*
X179961Y186750D01*
X180116Y185970D01*
X180558Y185308D01*
X180938Y185054D01*
X180644Y183784D01*
X134000D01*
X133317Y183648D01*
X132738Y183262D01*
X110488Y161012D01*
X110101Y160433D01*
X109966Y159750D01*
Y152369D01*
X108813Y151654D01*
X108696Y151651D01*
X108000Y151789D01*
X107220Y151634D01*
X106558Y151192D01*
X106116Y150530D01*
X105961Y149750D01*
X106116Y148970D01*
X106558Y148308D01*
X107220Y147866D01*
X108000Y147711D01*
X108696Y147849D01*
X108813Y147846D01*
X109966Y147131D01*
Y142419D01*
X109581Y142146D01*
X108696Y141856D01*
X108280Y142134D01*
X107500Y142289D01*
X106720Y142134D01*
X106058Y141692D01*
X105616Y141030D01*
X105461Y140250D01*
X105616Y139469D01*
X106058Y138808D01*
X106720Y138366D01*
X107500Y138210D01*
X108280Y138366D01*
X108369Y138425D01*
X109612Y137903D01*
X109671Y136944D01*
X55051Y82324D01*
X54951Y82263D01*
X53531Y82314D01*
X53384Y82534D01*
X52061Y83418D01*
X50500Y83728D01*
X48939Y83418D01*
X47616Y82534D01*
X46732Y81211D01*
X46422Y79650D01*
X46732Y78089D01*
X47616Y76766D01*
X48939Y75882D01*
X50500Y75572D01*
X52061Y75882D01*
X53196Y76640D01*
X53934Y76427D01*
X54466Y76099D01*
Y49989D01*
X11438Y6962D01*
X11051Y6383D01*
X10916Y5700D01*
Y4547D01*
X9877Y4340D01*
X8967Y3733D01*
X0Y12700D01*
Y33546D01*
X1750D01*
X2823Y33760D01*
X3733Y34367D01*
X4340Y35277D01*
X4554Y36350D01*
Y39850D01*
X4340Y40923D01*
X3733Y41833D01*
X2823Y42440D01*
X1750Y42654D01*
X0D01*
Y46246D01*
X1750D01*
X2823Y46460D01*
X3733Y47067D01*
X4340Y47977D01*
X4554Y49050D01*
Y52550D01*
X4340Y53623D01*
X3733Y54533D01*
X2823Y55140D01*
X1750Y55354D01*
X0D01*
Y58946D01*
X1750D01*
X2823Y59160D01*
X3733Y59767D01*
X4340Y60677D01*
X4554Y61750D01*
Y65250D01*
X4340Y66323D01*
X3733Y67233D01*
X2823Y67840D01*
X1750Y68054D01*
X0D01*
Y71646D01*
X1750D01*
X2823Y71860D01*
X3733Y72467D01*
X4340Y73377D01*
X4554Y74450D01*
Y77950D01*
X4340Y79023D01*
X3733Y79933D01*
X2823Y80540D01*
X1750Y80754D01*
X0D01*
Y84346D01*
X1750D01*
X2823Y84560D01*
X3733Y85167D01*
X4340Y86077D01*
X4554Y87150D01*
Y89128D01*
X9913Y94487D01*
X10576Y95479D01*
X10809Y96650D01*
X10809Y96650D01*
Y169340D01*
X12079Y170050D01*
X12616Y169720D01*
X13058Y169058D01*
X13720Y168616D01*
X14500Y168461D01*
X15280Y168616D01*
X15942Y169058D01*
X16365Y169691D01*
X16384Y169720D01*
Y169720D01*
X16539Y170500D01*
X17250Y170711D01*
X18030Y170866D01*
X18692Y171308D01*
X19134Y171970D01*
X19289Y172750D01*
X19134Y173530D01*
X18743Y174116D01*
X18828Y174428D01*
X19327Y175295D01*
X19409Y175279D01*
X19750Y175211D01*
X20530Y175366D01*
X21192Y175808D01*
X21634Y176470D01*
X21789Y177250D01*
X21634Y178030D01*
X21192Y178692D01*
X20530Y179134D01*
X19750Y179289D01*
X18970Y179134D01*
X18308Y178692D01*
X17866Y178030D01*
X17711Y177250D01*
X17866Y176470D01*
X18257Y175884D01*
X18172Y175572D01*
X17673Y174705D01*
X17592Y174721D01*
X17250Y174789D01*
X16470Y174634D01*
X15808Y174192D01*
X15444Y173648D01*
X15206Y173500D01*
X14021Y173276D01*
X13124Y174172D01*
Y198071D01*
X13942Y198664D01*
X14394Y198831D01*
X15000Y198711D01*
X15780Y198866D01*
X16442Y199308D01*
X16884Y199970D01*
X17039Y200750D01*
X16884Y201530D01*
X16442Y202192D01*
X16313Y202278D01*
X15993Y203382D01*
X16117Y203820D01*
X16384Y204220D01*
X16539Y205000D01*
X16384Y205780D01*
X15942Y206442D01*
X15280Y206884D01*
X14500Y207039D01*
X14394Y207018D01*
X13124Y207897D01*
Y267577D01*
X14571Y269025D01*
X15030Y269116D01*
X15692Y269558D01*
X16134Y270220D01*
X16289Y271000D01*
X16134Y271780D01*
X15692Y272442D01*
X15030Y272884D01*
X14250Y273039D01*
X13470Y272884D01*
X12808Y272442D01*
X12366Y271780D01*
X12275Y271321D01*
X10352Y269398D01*
X9876Y268250D01*
Y197109D01*
X8703Y196623D01*
X6163Y199163D01*
X5171Y199826D01*
X5169Y199826D01*
X4340Y200377D01*
X4554Y201450D01*
Y204950D01*
X4340Y206023D01*
X4157Y206297D01*
X4193Y206676D01*
X4549Y207791D01*
X4562Y207804D01*
X4942Y208058D01*
X5384Y208720D01*
X5539Y209500D01*
X5384Y210280D01*
X4942Y210942D01*
X4515Y211227D01*
X4466Y211287D01*
X4164Y212240D01*
X4099Y212715D01*
X4340Y213077D01*
X4554Y214150D01*
Y217650D01*
X4340Y218723D01*
X3733Y219633D01*
X2823Y220240D01*
X1750Y220454D01*
X0D01*
Y224046D01*
X1750D01*
X2823Y224260D01*
X3733Y224867D01*
X4340Y225777D01*
X4554Y226850D01*
Y230350D01*
X4340Y231423D01*
X3733Y232333D01*
X2823Y232940D01*
X1750Y233154D01*
X0D01*
Y236746D01*
X1750D01*
X2823Y236960D01*
X3733Y237567D01*
X4340Y238477D01*
X4554Y239550D01*
Y243050D01*
X4340Y244123D01*
X3733Y245033D01*
X2823Y245640D01*
X1750Y245854D01*
X0D01*
Y249446D01*
X1750D01*
X2823Y249660D01*
X3733Y250267D01*
X4340Y251177D01*
X4554Y252250D01*
Y255750D01*
X4340Y256823D01*
X3733Y257733D01*
X2823Y258340D01*
X1750Y258554D01*
X0D01*
Y262146D01*
X1750D01*
X2823Y262360D01*
X3733Y262967D01*
X4340Y263877D01*
X4554Y264950D01*
Y268450D01*
X4340Y269523D01*
X3733Y270433D01*
X2823Y271040D01*
X1750Y271254D01*
X0D01*
Y279400D01*
X8146D01*
Y277650D01*
X8360Y276577D01*
X8967Y275667D01*
X9877Y275060D01*
X10950Y274846D01*
X14450D01*
X15523Y275060D01*
X16433Y275667D01*
X17040Y276577D01*
X17254Y277650D01*
Y279400D01*
X20846D01*
Y277650D01*
X21060Y276577D01*
X21667Y275667D01*
X22577Y275060D01*
X23650Y274846D01*
X27126D01*
Y269348D01*
X25856Y268638D01*
X25000Y268809D01*
X23830Y268576D01*
X22837Y267913D01*
X22174Y266921D01*
X21941Y265750D01*
X22174Y264580D01*
X22837Y263587D01*
X23830Y262924D01*
X25000Y262691D01*
X25856Y262862D01*
X27126Y262152D01*
Y188922D01*
X27602Y187773D01*
X30524Y184852D01*
X31672Y184376D01*
X63578D01*
X81025Y166930D01*
X81116Y166470D01*
X81558Y165808D01*
X82220Y165366D01*
X83000Y165211D01*
X84126Y164186D01*
Y162751D01*
X84602Y161602D01*
X87275Y158930D01*
X87366Y158470D01*
X87808Y157808D01*
X88470Y157366D01*
X89250Y157211D01*
X90031Y157366D01*
X90692Y157808D01*
X91134Y158470D01*
X91289Y159250D01*
X91134Y160031D01*
X90692Y160692D01*
X90031Y161134D01*
X89571Y161226D01*
X87374Y163423D01*
Y168215D01*
X87265Y168476D01*
X88036Y169195D01*
X88276Y169355D01*
X89000Y169211D01*
X89780Y169366D01*
X90442Y169808D01*
X90884Y170470D01*
X91039Y171250D01*
X90884Y172030D01*
X90442Y172692D01*
X89780Y173134D01*
X89000Y173289D01*
X88220Y173134D01*
X87558Y172692D01*
X87116Y172030D01*
X86961Y171250D01*
X86999Y171058D01*
X85829Y170432D01*
X84244Y172017D01*
X84621Y172906D01*
X84830Y173227D01*
X85530Y173366D01*
X86192Y173808D01*
X86634Y174470D01*
X86789Y175250D01*
X86641Y175994D01*
X86634Y176031D01*
X87024Y177346D01*
X87163Y177455D01*
X87692Y177808D01*
X88134Y178470D01*
X88289Y179250D01*
X88134Y180031D01*
X87692Y180692D01*
Y181808D01*
X88134Y182470D01*
X88289Y183250D01*
X88134Y184031D01*
X87692Y184692D01*
X87030Y185134D01*
X86250Y185289D01*
X85470Y185134D01*
X84808Y184692D01*
X84366Y184031D01*
X84211Y183250D01*
X84366Y182470D01*
X84808Y181808D01*
Y180692D01*
X84366Y180031D01*
X84211Y179250D01*
X84359Y178507D01*
X84366Y178470D01*
X83976Y177155D01*
X83837Y177046D01*
X83308Y176692D01*
X82866Y176031D01*
X82727Y175330D01*
X82406Y175121D01*
X81517Y174744D01*
X67648Y188613D01*
X67692Y189058D01*
X68134Y189720D01*
X68289Y190500D01*
X68134Y191281D01*
X69138Y192030D01*
X69394Y192167D01*
X69470Y192116D01*
X70250Y191961D01*
X71030Y192116D01*
X71692Y192558D01*
X72134Y193220D01*
X72289Y194000D01*
X72134Y194780D01*
X71692Y195442D01*
X71030Y195884D01*
X70250Y196039D01*
X69470Y195884D01*
X69394Y195833D01*
X68124Y196512D01*
Y214001D01*
X68291Y214222D01*
X69394Y214916D01*
X69670Y214861D01*
X70450Y215016D01*
X71112Y215458D01*
X71554Y216120D01*
X71709Y216900D01*
Y262769D01*
X72979Y263081D01*
X73228Y262708D01*
X73890Y262266D01*
X74670Y262111D01*
X75876Y261140D01*
Y207170D01*
X75616Y206780D01*
X75461Y206000D01*
X75616Y205220D01*
X76058Y204558D01*
X76720Y204116D01*
X77500Y203961D01*
X78280Y204116D01*
X78942Y204558D01*
X79384Y205220D01*
X79539Y206000D01*
X79384Y206780D01*
X79124Y207170D01*
Y263827D01*
X82898Y267602D01*
X83374Y268750D01*
Y270748D01*
X83847Y271088D01*
X84074Y271111D01*
X85438Y270737D01*
X85558Y270558D01*
X86220Y270116D01*
X87000Y269961D01*
X87780Y270116D01*
X88442Y270558D01*
X88884Y271220D01*
X89039Y272000D01*
X88884Y272780D01*
X88442Y273442D01*
X88241Y273576D01*
X88626Y274846D01*
X90650D01*
X91723Y275060D01*
X92633Y275667D01*
X93240Y276577D01*
X93454Y277650D01*
Y279400D01*
X97046D01*
Y277650D01*
X97260Y276577D01*
X97867Y275667D01*
X98777Y275060D01*
X99850Y274846D01*
X103350D01*
X104423Y275060D01*
X105333Y275667D01*
X105940Y276577D01*
X106154Y277650D01*
Y279400D01*
X109746D01*
Y277650D01*
X109960Y276577D01*
X110567Y275667D01*
X111477Y275060D01*
X112550Y274846D01*
X116050D01*
X117123Y275060D01*
X118033Y275667D01*
X118640Y276577D01*
X118854Y277650D01*
Y279400D01*
X122446D01*
Y277650D01*
X122660Y276577D01*
X123267Y275667D01*
X124177Y275060D01*
X125250Y274846D01*
X128750D01*
X129823Y275060D01*
X130733Y275667D01*
X131340Y276577D01*
X131554Y277650D01*
Y279400D01*
X135146D01*
Y277650D01*
X135360Y276577D01*
X135967Y275667D01*
X136877Y275060D01*
X137950Y274846D01*
X141450D01*
X142523Y275060D01*
X143433Y275667D01*
X144040Y276577D01*
X144254Y277650D01*
Y279400D01*
X147846D01*
Y277650D01*
X148060Y276577D01*
X148667Y275667D01*
X149577Y275060D01*
X150650Y274846D01*
X154150D01*
X155223Y275060D01*
X156133Y275667D01*
X156740Y276577D01*
X156954Y277650D01*
Y279400D01*
X160546D01*
Y277650D01*
X160760Y276577D01*
X161367Y275667D01*
X162277Y275060D01*
X163350Y274846D01*
X166850D01*
X167923Y275060D01*
X168833Y275667D01*
X169440Y276577D01*
X169654Y277650D01*
Y279400D01*
X173246D01*
Y277650D01*
X173460Y276577D01*
X174067Y275667D01*
X174977Y275060D01*
X176050Y274846D01*
X179550D01*
X180623Y275060D01*
X181533Y275667D01*
X182140Y276577D01*
X182354Y277650D01*
Y279400D01*
X185946D01*
Y277650D01*
X186160Y276577D01*
X186767Y275667D01*
X187677Y275060D01*
X188750Y274846D01*
X192250D01*
X193323Y275060D01*
X194233Y275667D01*
X194840Y276577D01*
X195054Y277650D01*
Y279400D01*
X198646D01*
Y277650D01*
X198860Y276577D01*
X199467Y275667D01*
X200377Y275060D01*
X201450Y274846D01*
X204950D01*
X206023Y275060D01*
X206933Y275667D01*
X207540Y276577D01*
X207754Y277650D01*
Y279400D01*
X211346D01*
Y277650D01*
X211560Y276577D01*
X212167Y275667D01*
X213077Y275060D01*
X214150Y274846D01*
X217650D01*
X218723Y275060D01*
X219633Y275667D01*
X220240Y276577D01*
X220454Y277650D01*
Y279400D01*
X224046D01*
Y277650D01*
X224260Y276577D01*
X224867Y275667D01*
X225777Y275060D01*
X226850Y274846D01*
X230350D01*
X231423Y275060D01*
X232333Y275667D01*
X232940Y276577D01*
X233154Y277650D01*
Y279400D01*
X236746D01*
Y277650D01*
X236960Y276577D01*
X237567Y275667D01*
X238477Y275060D01*
X239550Y274846D01*
X243050D01*
X244123Y275060D01*
X245033Y275667D01*
X245640Y276577D01*
X245854Y277650D01*
Y279400D01*
X249446D01*
Y277650D01*
X249660Y276577D01*
X250267Y275667D01*
X251177Y275060D01*
X252250Y274846D01*
X255750D01*
X256823Y275060D01*
X257733Y275667D01*
X258340Y276577D01*
X258554Y277650D01*
Y279400D01*
X262146D01*
Y277650D01*
X262360Y276577D01*
X262967Y275667D01*
X263877Y275060D01*
X264950Y274846D01*
X268450D01*
X269523Y275060D01*
X270433Y275667D01*
X271040Y276577D01*
X271254Y277650D01*
Y279400D01*
X279400D01*
Y271254D01*
D02*
G37*
G36*
X46246Y277650D02*
X46460Y276577D01*
X47067Y275667D01*
X47977Y275060D01*
X49050Y274846D01*
X52550D01*
X52973Y274930D01*
X60146Y267757D01*
X59874Y266331D01*
X59670Y266189D01*
X58890Y266034D01*
X58228Y265592D01*
X57834Y265003D01*
X57271Y264930D01*
X57069D01*
X56506Y265003D01*
X56112Y265592D01*
X55450Y266034D01*
X54670Y266189D01*
X53890Y266034D01*
X53228Y265592D01*
X52834Y265003D01*
X52271Y264930D01*
X52069D01*
X51505Y265003D01*
X51112Y265592D01*
X50450Y266034D01*
X49670Y266189D01*
X48890Y266034D01*
X48228Y265592D01*
X47834Y265003D01*
X47271Y264930D01*
X47069D01*
X46505Y265003D01*
X46112Y265592D01*
X45450Y266034D01*
X44670Y266189D01*
X43890Y266034D01*
X43228Y265592D01*
X42834Y265003D01*
X42271Y264930D01*
X42069D01*
X41506Y265003D01*
X41112Y265592D01*
X40450Y266034D01*
X39670Y266189D01*
X38890Y266034D01*
X38228Y265592D01*
X37786Y264930D01*
X37631Y264150D01*
X37786Y263370D01*
X38228Y262708D01*
X38890Y262266D01*
X39670Y262111D01*
X40450Y262266D01*
X41112Y262708D01*
X41506Y263297D01*
X42069Y263370D01*
X42271D01*
X42834Y263297D01*
X43228Y262708D01*
X43890Y262266D01*
X44670Y262111D01*
X45450Y262266D01*
X46112Y262708D01*
X46505Y263297D01*
X47069Y263370D01*
X47271D01*
X47834Y263297D01*
X48228Y262708D01*
X48890Y262266D01*
X49670Y262111D01*
X50450Y262266D01*
X51112Y262708D01*
X51506Y263297D01*
X52069Y263370D01*
X52271D01*
X52834Y263297D01*
X53228Y262708D01*
X53890Y262266D01*
X54670Y262111D01*
X55450Y262266D01*
X56112Y262708D01*
X56506Y263297D01*
X57069Y263370D01*
X57271D01*
X57834Y263297D01*
X58228Y262708D01*
X58890Y262266D01*
X59670Y262111D01*
X60876Y261140D01*
Y196173D01*
X57929Y193226D01*
X57470Y193134D01*
X56808Y192692D01*
X55692D01*
X55030Y193134D01*
X54250Y193290D01*
X53470Y193134D01*
X52808Y192692D01*
X51692D01*
X51031Y193134D01*
X50250Y193290D01*
X49470Y193134D01*
X48808Y192692D01*
X47692D01*
X47031Y193134D01*
X46250Y193290D01*
X45470Y193134D01*
X44808Y192692D01*
X43692D01*
X43031Y193134D01*
X42250Y193290D01*
X41470Y193134D01*
X40808Y192692D01*
X39692D01*
X39030Y193134D01*
X38250Y193290D01*
X37470Y193134D01*
X36808Y192692D01*
X35692D01*
X35148Y193056D01*
X35000Y193295D01*
X34776Y194480D01*
X35898Y195602D01*
X36374Y196750D01*
Y274846D01*
X39850D01*
X40923Y275060D01*
X41833Y275667D01*
X42440Y276577D01*
X42654Y277650D01*
Y279400D01*
X46246D01*
Y277650D01*
D02*
G37*
G36*
X182126Y100328D02*
Y95173D01*
X181077Y94124D01*
X168250D01*
X167102Y93648D01*
X165852Y92398D01*
X165376Y91250D01*
Y89250D01*
X165852Y88102D01*
X167102Y86852D01*
X168250Y86376D01*
X175077D01*
X177911Y83543D01*
X177285Y82372D01*
X176250Y82578D01*
X174689Y82268D01*
X173366Y81384D01*
X172482Y80061D01*
X172172Y78500D01*
X172378Y77465D01*
X171207Y76839D01*
X158624Y89423D01*
Y98500D01*
X158148Y99648D01*
X157440Y100356D01*
X157966Y101626D01*
X180828D01*
X182126Y100328D01*
D02*
G37*
%LPC*%
G36*
X226500Y271289D02*
X225720Y271134D01*
X225058Y270692D01*
X224616Y270030D01*
X224461Y269250D01*
X224616Y268470D01*
X225058Y267808D01*
X225720Y267366D01*
X226500Y267211D01*
X227280Y267366D01*
X227942Y267808D01*
X228384Y268470D01*
X228539Y269250D01*
X228384Y270030D01*
X227942Y270692D01*
X227280Y271134D01*
X226500Y271289D01*
D02*
G37*
G36*
X208500D02*
X207720Y271134D01*
X207058Y270692D01*
X206616Y270030D01*
X206461Y269250D01*
X206616Y268470D01*
X207058Y267808D01*
X207720Y267366D01*
X208500Y267211D01*
X209280Y267366D01*
X209942Y267808D01*
X210384Y268470D01*
X210539Y269250D01*
X210384Y270030D01*
X209942Y270692D01*
X209280Y271134D01*
X208500Y271289D01*
D02*
G37*
G36*
X195500D02*
X194720Y271134D01*
X194058Y270692D01*
X193616Y270030D01*
X193461Y269250D01*
X193616Y268470D01*
X194058Y267808D01*
X194720Y267366D01*
X195500Y267211D01*
X196280Y267366D01*
X196942Y267808D01*
X197384Y268470D01*
X197539Y269250D01*
X197384Y270030D01*
X196942Y270692D01*
X196280Y271134D01*
X195500Y271289D01*
D02*
G37*
G36*
X187500D02*
X186720Y271134D01*
X186058Y270692D01*
X185616Y270030D01*
X185461Y269250D01*
X185616Y268470D01*
X186058Y267808D01*
X186720Y267366D01*
X187500Y267211D01*
X188280Y267366D01*
X188942Y267808D01*
X189384Y268470D01*
X189539Y269250D01*
X189384Y270030D01*
X188942Y270692D01*
X188280Y271134D01*
X187500Y271289D01*
D02*
G37*
G36*
X169500D02*
X168720Y271134D01*
X168058Y270692D01*
X167616Y270030D01*
X167461Y269250D01*
X167616Y268470D01*
X168058Y267808D01*
X168720Y267366D01*
X169500Y267211D01*
X170280Y267366D01*
X170942Y267808D01*
X171384Y268470D01*
X171539Y269250D01*
X171384Y270030D01*
X170942Y270692D01*
X170280Y271134D01*
X169500Y271289D01*
D02*
G37*
G36*
X161500D02*
X160720Y271134D01*
X160058Y270692D01*
X159616Y270030D01*
X159461Y269250D01*
X159616Y268470D01*
X160058Y267808D01*
X160720Y267366D01*
X161500Y267211D01*
X162280Y267366D01*
X162942Y267808D01*
X163384Y268470D01*
X163539Y269250D01*
X163384Y270030D01*
X162942Y270692D01*
X162280Y271134D01*
X161500Y271289D01*
D02*
G37*
G36*
X117500D02*
X116720Y271134D01*
X116058Y270692D01*
X115616Y270030D01*
X115461Y269250D01*
X115616Y268470D01*
X116058Y267808D01*
X116720Y267366D01*
X117500Y267211D01*
X118280Y267366D01*
X118942Y267808D01*
X119384Y268470D01*
X119539Y269250D01*
X119384Y270030D01*
X118942Y270692D01*
X118280Y271134D01*
X117500Y271289D01*
D02*
G37*
G36*
X143500Y271289D02*
X142720Y271134D01*
X142058Y270692D01*
X141616Y270030D01*
X141461Y269250D01*
X141616Y268470D01*
X142058Y267808D01*
X142720Y267366D01*
X143500Y267211D01*
X144280Y267366D01*
X144942Y267808D01*
X145384Y268470D01*
X145539Y269250D01*
X145384Y270030D01*
X144942Y270692D01*
X144280Y271134D01*
X143500Y271289D01*
D02*
G37*
G36*
X135250Y262289D02*
X134470Y262134D01*
X133808Y261692D01*
X133366Y261030D01*
X133211Y260250D01*
X133366Y259470D01*
X133808Y258808D01*
X134470Y258366D01*
X135250Y258211D01*
X136030Y258366D01*
X136692Y258808D01*
X137134Y259470D01*
X137289Y260250D01*
X137134Y261030D01*
X136692Y261692D01*
X136030Y262134D01*
X135250Y262289D01*
D02*
G37*
G36*
X149250Y262289D02*
X148470Y262134D01*
X147808Y261692D01*
X147366Y261030D01*
X147211Y260250D01*
X147366Y259470D01*
X147808Y258808D01*
X148470Y258366D01*
X149250Y258211D01*
X150030Y258366D01*
X150692Y258808D01*
X151134Y259470D01*
X151289Y260250D01*
X151134Y261030D01*
X150692Y261692D01*
X150030Y262134D01*
X149250Y262289D01*
D02*
G37*
G36*
X270250Y259539D02*
X269470Y259384D01*
X268808Y258942D01*
X268366Y258280D01*
X268211Y257500D01*
X268366Y256720D01*
X268808Y256058D01*
X269470Y255616D01*
X270250Y255461D01*
X271030Y255616D01*
X271692Y256058D01*
X272134Y256720D01*
X272289Y257500D01*
X272134Y258280D01*
X271692Y258942D01*
X271030Y259384D01*
X270250Y259539D01*
D02*
G37*
G36*
X193750Y257789D02*
X192970Y257634D01*
X192308Y257192D01*
X191866Y256530D01*
X191711Y255750D01*
X191866Y254970D01*
X192308Y254308D01*
X192970Y253866D01*
X193750Y253711D01*
X194530Y253866D01*
X195192Y254308D01*
X195634Y254970D01*
X195789Y255750D01*
X195634Y256530D01*
X195192Y257192D01*
X194530Y257634D01*
X193750Y257789D01*
D02*
G37*
G36*
X254850Y253789D02*
X254070Y253634D01*
X253408Y253192D01*
X252966Y252530D01*
X252811Y251750D01*
X252966Y250970D01*
X253408Y250308D01*
X254070Y249866D01*
X254850Y249711D01*
X255630Y249866D01*
X256292Y250308D01*
X256734Y250970D01*
X256889Y251750D01*
X256734Y252530D01*
X256292Y253192D01*
X255630Y253634D01*
X254850Y253789D01*
D02*
G37*
G36*
X229750D02*
X228970Y253634D01*
X228308Y253192D01*
X227866Y252530D01*
X227711Y251750D01*
X227866Y250970D01*
X228308Y250308D01*
X228970Y249866D01*
X229750Y249711D01*
X230530Y249866D01*
X231192Y250308D01*
X231634Y250970D01*
X231789Y251750D01*
X231634Y252530D01*
X231192Y253192D01*
X230530Y253634D01*
X229750Y253789D01*
D02*
G37*
G36*
X153750Y250539D02*
X152970Y250384D01*
X152308Y249942D01*
X151866Y249280D01*
X151711Y248500D01*
X151866Y247720D01*
X152308Y247058D01*
X152970Y246616D01*
X153750Y246461D01*
X154530Y246616D01*
X155192Y247058D01*
X155634Y247720D01*
X155789Y248500D01*
X155634Y249280D01*
X155192Y249942D01*
X154530Y250384D01*
X153750Y250539D01*
D02*
G37*
G36*
X193750Y249789D02*
X192970Y249634D01*
X192308Y249192D01*
X191866Y248530D01*
X191711Y247750D01*
X191866Y246970D01*
X192308Y246308D01*
X192970Y245866D01*
X193750Y245711D01*
X194530Y245866D01*
X195192Y246308D01*
X195634Y246970D01*
X195789Y247750D01*
X195634Y248530D01*
X195192Y249192D01*
X194530Y249634D01*
X193750Y249789D01*
D02*
G37*
G36*
X129750D02*
X128970Y249634D01*
X128308Y249192D01*
X127866Y248530D01*
X127711Y247750D01*
X127866Y246970D01*
X128308Y246308D01*
X128970Y245866D01*
X129750Y245711D01*
X130530Y245866D01*
X131192Y246308D01*
X131634Y246970D01*
X131789Y247750D01*
X131634Y248530D01*
X131192Y249192D01*
X130530Y249634D01*
X129750Y249789D01*
D02*
G37*
G36*
X20500Y239539D02*
X19720Y239384D01*
X19058Y238942D01*
X18616Y238280D01*
X18461Y237500D01*
X18616Y236720D01*
X19058Y236058D01*
X19720Y235616D01*
X20500Y235461D01*
X21280Y235616D01*
X21942Y236058D01*
X22384Y236720D01*
X22539Y237500D01*
X22384Y238280D01*
X21942Y238942D01*
X21280Y239384D01*
X20500Y239539D01*
D02*
G37*
G36*
X125750Y239539D02*
X124970Y239384D01*
X124308Y238942D01*
X123866Y238280D01*
X123711Y237500D01*
X123866Y236720D01*
X124308Y236058D01*
X124970Y235616D01*
X125750Y235461D01*
X126530Y235616D01*
X127192Y236058D01*
X127634Y236720D01*
X127789Y237500D01*
X127634Y238280D01*
X127192Y238942D01*
X126530Y239384D01*
X125750Y239539D01*
D02*
G37*
G36*
X171750Y238789D02*
X170970Y238634D01*
X170308Y238192D01*
X169866Y237530D01*
X169711Y236750D01*
X169866Y235970D01*
X170308Y235308D01*
X170970Y234866D01*
X171750Y234711D01*
X172530Y234866D01*
X173192Y235308D01*
X173634Y235970D01*
X173789Y236750D01*
X173634Y237530D01*
X173192Y238192D01*
X172530Y238634D01*
X171750Y238789D01*
D02*
G37*
G36*
X161750Y238789D02*
X160970Y238634D01*
X160308Y238192D01*
X159866Y237530D01*
X159711Y236750D01*
X159866Y235970D01*
X160308Y235308D01*
X160970Y234866D01*
X161750Y234711D01*
X162530Y234866D01*
X163192Y235308D01*
X163634Y235970D01*
X163789Y236750D01*
X163634Y237530D01*
X163192Y238192D01*
X162530Y238634D01*
X161750Y238789D01*
D02*
G37*
G36*
X270250Y238539D02*
X269470Y238384D01*
X268808Y237942D01*
X268366Y237280D01*
X268211Y236500D01*
X268366Y235720D01*
X268808Y235058D01*
X269470Y234616D01*
X270250Y234461D01*
X271030Y234616D01*
X271692Y235058D01*
X272134Y235720D01*
X272289Y236500D01*
X272134Y237280D01*
X271692Y237942D01*
X271030Y238384D01*
X270250Y238539D01*
D02*
G37*
G36*
X225750Y233789D02*
X224970Y233634D01*
X224308Y233192D01*
X223866Y232530D01*
X223711Y231750D01*
X223866Y230970D01*
X224308Y230308D01*
X224970Y229866D01*
X225750Y229711D01*
X226530Y229866D01*
X227192Y230308D01*
X227634Y230970D01*
X227789Y231750D01*
X227634Y232530D01*
X227192Y233192D01*
X226530Y233634D01*
X225750Y233789D01*
D02*
G37*
G36*
X217750D02*
X216970Y233634D01*
X216308Y233192D01*
X215866Y232530D01*
X215711Y231750D01*
X215866Y230970D01*
X216308Y230308D01*
X216970Y229866D01*
X217750Y229711D01*
X218530Y229866D01*
X219192Y230308D01*
X219634Y230970D01*
X219789Y231750D01*
X219634Y232530D01*
X219192Y233192D01*
X218530Y233634D01*
X217750Y233789D01*
D02*
G37*
G36*
X119250Y241289D02*
X118470Y241134D01*
X117808Y240692D01*
X117366Y240030D01*
X117211Y239250D01*
X117366Y238470D01*
X117808Y237808D01*
X117814Y237763D01*
X117624Y236403D01*
X117308Y236192D01*
X116866Y235530D01*
X116711Y234750D01*
X116866Y233970D01*
X117308Y233308D01*
X117970Y232866D01*
X118612Y232738D01*
X118750Y232711D01*
X119711Y231750D01*
X119738Y231612D01*
X119866Y230970D01*
X120308Y230308D01*
X120970Y229866D01*
X121750Y229711D01*
X122530Y229866D01*
X123192Y230308D01*
X123634Y230970D01*
X123789Y231750D01*
X123634Y232530D01*
X123192Y233192D01*
X122530Y233634D01*
X121887Y233762D01*
X121750Y233789D01*
X120789Y234750D01*
X120762Y234888D01*
X120634Y235530D01*
X120192Y236192D01*
X120186Y236237D01*
X120375Y237597D01*
X120692Y237808D01*
X121134Y238470D01*
X121289Y239250D01*
X121134Y240030D01*
X120692Y240692D01*
X120030Y241134D01*
X119250Y241289D01*
D02*
G37*
G36*
X146250Y233289D02*
X145470Y233134D01*
X144808Y232692D01*
X144366Y232030D01*
X144211Y231250D01*
X144366Y230470D01*
X144808Y229808D01*
X145470Y229366D01*
X146250Y229211D01*
X147030Y229366D01*
X147692Y229808D01*
X148134Y230470D01*
X148289Y231250D01*
X148134Y232030D01*
X147692Y232692D01*
X147030Y233134D01*
X146250Y233289D01*
D02*
G37*
G36*
X137250Y233039D02*
X136470Y232884D01*
X135808Y232442D01*
X135366Y231780D01*
X135211Y231000D01*
X135366Y230220D01*
X135808Y229558D01*
X136470Y229116D01*
X137250Y228961D01*
X138030Y229116D01*
X138692Y229558D01*
X139134Y230220D01*
X139289Y231000D01*
X139134Y231780D01*
X138692Y232442D01*
X138030Y232884D01*
X137250Y233039D01*
D02*
G37*
G36*
X114250Y231289D02*
X113470Y231134D01*
X112808Y230692D01*
X112366Y230030D01*
X112211Y229250D01*
X112366Y228470D01*
X112808Y227808D01*
X113470Y227366D01*
X114250Y227211D01*
X115030Y227366D01*
X115692Y227808D01*
X116134Y228470D01*
X116289Y229250D01*
X116134Y230030D01*
X115692Y230692D01*
X115030Y231134D01*
X114250Y231289D01*
D02*
G37*
G36*
X157750Y231049D02*
X156775Y230855D01*
X155948Y230302D01*
X155395Y229475D01*
X155201Y228500D01*
X155395Y227525D01*
X155948Y226698D01*
X156775Y226145D01*
X157750Y225951D01*
X158725Y226145D01*
X159552Y226698D01*
X160105Y227525D01*
X160299Y228500D01*
X160105Y229475D01*
X159552Y230302D01*
X158725Y230855D01*
X157750Y231049D01*
D02*
G37*
G36*
X106000Y227039D02*
X105220Y226884D01*
X104558Y226442D01*
X104116Y225780D01*
X103961Y225000D01*
X104116Y224220D01*
X104558Y223558D01*
X105220Y223116D01*
X106000Y222961D01*
X106780Y223116D01*
X107442Y223558D01*
X107884Y224220D01*
X108039Y225000D01*
X107884Y225780D01*
X107442Y226442D01*
X106780Y226884D01*
X106000Y227039D01*
D02*
G37*
G36*
X120750Y225789D02*
X119970Y225634D01*
X119308Y225192D01*
X118866Y224530D01*
X118711Y223750D01*
X118866Y222970D01*
X119308Y222308D01*
X119970Y221866D01*
X120750Y221711D01*
X121530Y221866D01*
X122192Y222308D01*
X122634Y222970D01*
X122789Y223750D01*
X122634Y224530D01*
X122192Y225192D01*
X121530Y225634D01*
X120750Y225789D01*
D02*
G37*
G36*
X241750Y225789D02*
X240970Y225634D01*
X240308Y225192D01*
X239866Y224530D01*
X239711Y223750D01*
X239866Y222970D01*
X240308Y222308D01*
X240970Y221866D01*
X241750Y221711D01*
X242530Y221866D01*
X243192Y222308D01*
X243634Y222970D01*
X243789Y223750D01*
X243634Y224530D01*
X243192Y225192D01*
X242530Y225634D01*
X241750Y225789D01*
D02*
G37*
G36*
X129750D02*
X128970Y225634D01*
X128308Y225192D01*
X127866Y224530D01*
X127711Y223750D01*
X127866Y222970D01*
X128308Y222308D01*
X128970Y221866D01*
X129750Y221711D01*
X130530Y221866D01*
X131192Y222308D01*
X131634Y222970D01*
X131789Y223750D01*
X131634Y224530D01*
X131192Y225192D01*
X130530Y225634D01*
X129750Y225789D01*
D02*
G37*
G36*
X225750Y226539D02*
X224970Y226384D01*
X224308Y225942D01*
X223866Y225280D01*
X223711Y224500D01*
X223866Y223720D01*
X224308Y223058D01*
X224970Y222616D01*
X225750Y222461D01*
X226486Y222607D01*
X226537Y222613D01*
X227864Y221980D01*
X227866Y221970D01*
X228308Y221308D01*
X228970Y220866D01*
X229750Y220711D01*
X230530Y220866D01*
X231192Y221308D01*
X231634Y221970D01*
X231789Y222750D01*
X231634Y223530D01*
X231192Y224192D01*
X230530Y224634D01*
X229750Y224789D01*
X229014Y224643D01*
X228964Y224637D01*
X227636Y225270D01*
X227634Y225280D01*
X227192Y225942D01*
X226530Y226384D01*
X225750Y226539D01*
D02*
G37*
G36*
X169250Y226289D02*
X168470Y226134D01*
X167808Y225692D01*
X167366Y225030D01*
X167211Y224250D01*
X167366Y223470D01*
X167808Y222808D01*
X168397Y222414D01*
X168470Y221851D01*
Y221649D01*
X168397Y221086D01*
X167808Y220692D01*
X167433Y220131D01*
X167289Y220016D01*
X165910Y220444D01*
X165884Y220530D01*
X165831Y220610D01*
X165442Y221192D01*
X164780Y221634D01*
X164000Y221789D01*
X163220Y221634D01*
X162558Y221192D01*
X162116Y220530D01*
X161961Y219750D01*
X162116Y218970D01*
X162558Y218308D01*
X163220Y217866D01*
X164000Y217711D01*
X164780Y217866D01*
X165442Y218308D01*
X165817Y218869D01*
X165961Y218984D01*
X167340Y218556D01*
X167366Y218470D01*
X167419Y218390D01*
X167808Y217808D01*
X168470Y217366D01*
X169250Y217211D01*
X170030Y217366D01*
X170692Y217808D01*
X171134Y218470D01*
X171289Y219250D01*
X171134Y220030D01*
X170692Y220692D01*
X170103Y221086D01*
X170030Y221649D01*
Y221851D01*
X170103Y222414D01*
X170692Y222808D01*
X171134Y223470D01*
X171289Y224250D01*
X171134Y225030D01*
X170692Y225692D01*
X170030Y226134D01*
X169250Y226289D01*
D02*
G37*
G36*
X141750Y222539D02*
X140970Y222384D01*
X140308Y221942D01*
X139866Y221280D01*
X139711Y220500D01*
X139866Y219720D01*
X140308Y219058D01*
X140970Y218616D01*
X141750Y218461D01*
X142530Y218616D01*
X143192Y219058D01*
X143634Y219720D01*
X143789Y220500D01*
X143634Y221280D01*
X143192Y221942D01*
X142530Y222384D01*
X141750Y222539D01*
D02*
G37*
G36*
X134250Y221289D02*
X133470Y221134D01*
X132808Y220692D01*
X132366Y220030D01*
X132211Y219250D01*
X132366Y218470D01*
X132808Y217808D01*
X133470Y217366D01*
X134250Y217211D01*
X135030Y217366D01*
X135692Y217808D01*
X136134Y218470D01*
X136289Y219250D01*
X136134Y220030D01*
X135692Y220692D01*
X135030Y221134D01*
X134250Y221289D01*
D02*
G37*
G36*
X124250D02*
X123470Y221134D01*
X122808Y220692D01*
X122366Y220030D01*
X122211Y219250D01*
X122366Y218470D01*
X122808Y217808D01*
X123470Y217366D01*
X124250Y217211D01*
X125030Y217366D01*
X125692Y217808D01*
X126134Y218470D01*
X126289Y219250D01*
X126134Y220030D01*
X125692Y220692D01*
X125030Y221134D01*
X124250Y221289D01*
D02*
G37*
G36*
X106000Y220539D02*
X105220Y220384D01*
X104558Y219942D01*
X104116Y219280D01*
X103961Y218500D01*
X104116Y217720D01*
X104558Y217058D01*
X105220Y216616D01*
X106000Y216461D01*
X106780Y216616D01*
X107442Y217058D01*
X107884Y217720D01*
X108039Y218500D01*
X107884Y219280D01*
X107442Y219942D01*
X106780Y220384D01*
X106000Y220539D01*
D02*
G37*
G36*
X270250Y220539D02*
X269470Y220384D01*
X268808Y219942D01*
X268366Y219280D01*
X268211Y218500D01*
X268366Y217719D01*
X268808Y217058D01*
X269470Y216616D01*
X270250Y216461D01*
X271030Y216616D01*
X271692Y217058D01*
X272134Y217719D01*
X272289Y218500D01*
X272134Y219280D01*
X271692Y219942D01*
X271030Y220384D01*
X270250Y220539D01*
D02*
G37*
G36*
X207500Y219539D02*
X206720Y219384D01*
X206058Y218942D01*
X205616Y218280D01*
X205461Y217500D01*
X205616Y216720D01*
X206058Y216058D01*
X206720Y215616D01*
X207500Y215461D01*
X208280Y215616D01*
X208942Y216058D01*
X209384Y216720D01*
X209539Y217500D01*
X209384Y218280D01*
X208942Y218942D01*
X208280Y219384D01*
X207500Y219539D01*
D02*
G37*
G36*
X116750Y218789D02*
X115969Y218634D01*
X115308Y218192D01*
X114866Y217530D01*
X114711Y216750D01*
X114866Y215970D01*
X115308Y215308D01*
X115969Y214866D01*
X116750Y214711D01*
X117530Y214866D01*
X118192Y215308D01*
X118634Y215970D01*
X118789Y216750D01*
X118634Y217530D01*
X118192Y218192D01*
X117530Y218634D01*
X116750Y218789D01*
D02*
G37*
G36*
X201750Y217789D02*
X200970Y217634D01*
X200308Y217192D01*
X199866Y216530D01*
X199711Y215750D01*
X199866Y214970D01*
X200308Y214308D01*
X200970Y213866D01*
X201750Y213711D01*
X202530Y213866D01*
X203192Y214308D01*
X203634Y214970D01*
X203789Y215750D01*
X203634Y216530D01*
X203192Y217192D01*
X202530Y217634D01*
X201750Y217789D01*
D02*
G37*
G36*
X108750Y215789D02*
X107970Y215634D01*
X107308Y215192D01*
X106866Y214530D01*
X106711Y213750D01*
X106866Y212970D01*
X107308Y212308D01*
X107970Y211866D01*
X108750Y211711D01*
X109530Y211866D01*
X110192Y212308D01*
X110634Y212970D01*
X110789Y213750D01*
X110634Y214530D01*
X110192Y215192D01*
X109530Y215634D01*
X108750Y215789D01*
D02*
G37*
G36*
X20500Y214539D02*
X19720Y214384D01*
X19058Y213942D01*
X18616Y213280D01*
X18461Y212500D01*
X18616Y211719D01*
X19058Y211058D01*
X19720Y210616D01*
X20500Y210460D01*
X21280Y210616D01*
X21942Y211058D01*
X22384Y211719D01*
X22539Y212500D01*
X22384Y213280D01*
X21942Y213942D01*
X21280Y214384D01*
X20500Y214539D01*
D02*
G37*
G36*
X214500Y215049D02*
X213524Y214855D01*
X212698Y214302D01*
X212145Y213475D01*
X211951Y212500D01*
X212145Y211525D01*
X212698Y210698D01*
X213524Y210145D01*
X214500Y209951D01*
X215475Y210145D01*
X216302Y210698D01*
X216855Y211525D01*
X217049Y212500D01*
X216855Y213475D01*
X216302Y214302D01*
X215475Y214855D01*
X214500Y215049D01*
D02*
G37*
G36*
X226250Y213789D02*
X225469Y213634D01*
X224808Y213192D01*
X224366Y212530D01*
X224211Y211750D01*
X224366Y210970D01*
X224808Y210308D01*
X225469Y209866D01*
X226250Y209711D01*
X227030Y209866D01*
X227692Y210308D01*
X228134Y210970D01*
X228289Y211750D01*
X228134Y212530D01*
X227692Y213192D01*
X227030Y213634D01*
X226250Y213789D01*
D02*
G37*
G36*
X93000Y213789D02*
X92220Y213634D01*
X91558Y213192D01*
X91116Y212530D01*
X90961Y211750D01*
X91116Y210970D01*
X91558Y210308D01*
X92220Y209866D01*
X93000Y209711D01*
X93780Y209866D01*
X94442Y210308D01*
X94884Y210970D01*
X95039Y211750D01*
X94884Y212530D01*
X94442Y213192D01*
X93780Y213634D01*
X93000Y213789D01*
D02*
G37*
G36*
X270250Y212539D02*
X269470Y212384D01*
X268808Y211942D01*
X268366Y211280D01*
X268211Y210500D01*
X268366Y209720D01*
X268808Y209058D01*
X269470Y208616D01*
X270250Y208461D01*
X271030Y208616D01*
X271692Y209058D01*
X272134Y209720D01*
X272289Y210500D01*
X272134Y211280D01*
X271692Y211942D01*
X271030Y212384D01*
X270250Y212539D01*
D02*
G37*
G36*
X151250Y215539D02*
X150470Y215384D01*
X149808Y214942D01*
X149366Y214280D01*
X149211Y213500D01*
X149366Y212720D01*
X149502Y212515D01*
X149708Y211625D01*
X149503Y210735D01*
X149366Y210530D01*
X149211Y209750D01*
X149366Y208970D01*
X149808Y208308D01*
X150470Y207866D01*
X151250Y207711D01*
X152030Y207866D01*
X152692Y208308D01*
X153134Y208970D01*
X153289Y209750D01*
X153134Y210530D01*
X152997Y210735D01*
X152792Y211625D01*
X152997Y212515D01*
X153134Y212720D01*
X153289Y213500D01*
X153134Y214280D01*
X152692Y214942D01*
X152030Y215384D01*
X151250Y215539D01*
D02*
G37*
G36*
X145250Y210039D02*
X144470Y209884D01*
X143808Y209442D01*
X143366Y208780D01*
X143211Y208000D01*
X143366Y207220D01*
X143808Y206558D01*
X144470Y206116D01*
X145250Y205961D01*
X146030Y206116D01*
X146692Y206558D01*
X147134Y207220D01*
X147289Y208000D01*
X147134Y208780D01*
X146692Y209442D01*
X146030Y209884D01*
X145250Y210039D01*
D02*
G37*
G36*
X209750Y209789D02*
X208970Y209634D01*
X208308Y209192D01*
X207866Y208530D01*
X207711Y207750D01*
X207866Y206970D01*
X208308Y206308D01*
X208970Y205866D01*
X209750Y205711D01*
X210530Y205866D01*
X211192Y206308D01*
X211634Y206970D01*
X211789Y207750D01*
X211634Y208530D01*
X211192Y209192D01*
X210530Y209634D01*
X209750Y209789D01*
D02*
G37*
G36*
X192500Y213789D02*
X191720Y213634D01*
X191058Y213192D01*
X190616Y212530D01*
X190461Y211750D01*
X190616Y210970D01*
X191058Y210308D01*
X191462Y210038D01*
X191731Y209769D01*
X191873Y208541D01*
X191866Y208530D01*
X191711Y207750D01*
X191866Y206970D01*
X192308Y206308D01*
X192970Y205866D01*
X193750Y205711D01*
X194530Y205866D01*
X195192Y206308D01*
X195634Y206970D01*
X195789Y207750D01*
X195634Y208530D01*
X195192Y209192D01*
X194788Y209462D01*
X194519Y209731D01*
X194377Y210959D01*
X194384Y210970D01*
X194539Y211750D01*
X194384Y212530D01*
X193942Y213192D01*
X193280Y213634D01*
X192500Y213789D01*
D02*
G37*
G36*
X138250Y209289D02*
X137470Y209134D01*
X136808Y208692D01*
X136366Y208030D01*
X136211Y207250D01*
X136366Y206470D01*
X136808Y205808D01*
X137470Y205366D01*
X138250Y205211D01*
X139030Y205366D01*
X139692Y205808D01*
X140134Y206470D01*
X140289Y207250D01*
X140134Y208030D01*
X139692Y208692D01*
X139030Y209134D01*
X138250Y209289D01*
D02*
G37*
G36*
X229750Y208539D02*
X228970Y208384D01*
X228308Y207942D01*
X227866Y207280D01*
X227711Y206500D01*
X227866Y205720D01*
X228308Y205058D01*
X228970Y204616D01*
X229750Y204461D01*
X230530Y204616D01*
X231192Y205058D01*
X231634Y205720D01*
X231789Y206500D01*
X231634Y207280D01*
X231192Y207942D01*
X230530Y208384D01*
X229750Y208539D01*
D02*
G37*
G36*
X163750Y207789D02*
X162970Y207634D01*
X162308Y207192D01*
X161866Y206530D01*
X161711Y205750D01*
X161866Y204970D01*
X162308Y204308D01*
X162970Y203866D01*
X163750Y203711D01*
X164530Y203866D01*
X165192Y204308D01*
X165634Y204970D01*
X165789Y205750D01*
X165634Y206530D01*
X165192Y207192D01*
X164530Y207634D01*
X163750Y207789D01*
D02*
G37*
G36*
X106000Y207539D02*
X105220Y207384D01*
X104558Y206942D01*
X104116Y206280D01*
X103961Y205500D01*
X104116Y204720D01*
X104558Y204058D01*
X105220Y203616D01*
X106000Y203461D01*
X106780Y203616D01*
X107442Y204058D01*
X107884Y204720D01*
X108039Y205500D01*
X107884Y206280D01*
X107442Y206942D01*
X106780Y207384D01*
X106000Y207539D01*
D02*
G37*
G36*
X155500Y205789D02*
X154720Y205634D01*
X154058Y205192D01*
X153616Y204530D01*
X153461Y203750D01*
X153616Y202970D01*
X154058Y202308D01*
X154720Y201866D01*
X155500Y201711D01*
X156280Y201866D01*
X156942Y202308D01*
X157384Y202970D01*
X157539Y203750D01*
X157384Y204530D01*
X156942Y205192D01*
X156280Y205634D01*
X155500Y205789D01*
D02*
G37*
G36*
X229750Y202039D02*
X228970Y201884D01*
X228308Y201442D01*
X227866Y200780D01*
X227711Y200000D01*
X227866Y199220D01*
X228308Y198558D01*
X228970Y198116D01*
X229750Y197961D01*
X230530Y198116D01*
X231192Y198558D01*
X231634Y199220D01*
X231789Y200000D01*
X231634Y200780D01*
X231192Y201442D01*
X230530Y201884D01*
X229750Y202039D01*
D02*
G37*
G36*
X201750Y201789D02*
X200970Y201634D01*
X200308Y201192D01*
X199866Y200530D01*
X199711Y199750D01*
X199866Y198970D01*
X200308Y198308D01*
X200970Y197866D01*
X201750Y197711D01*
X202530Y197866D01*
X203192Y198308D01*
X203634Y198970D01*
X203789Y199750D01*
X203634Y200530D01*
X203192Y201192D01*
X202530Y201634D01*
X201750Y201789D01*
D02*
G37*
G36*
X92750Y200039D02*
X91970Y199884D01*
X91308Y199442D01*
X90866Y198780D01*
X90711Y198000D01*
X90866Y197220D01*
X91308Y196558D01*
X91970Y196116D01*
X92750Y195961D01*
X93531Y196116D01*
X94192Y196558D01*
X94634Y197220D01*
X94789Y198000D01*
X94634Y198780D01*
X94192Y199442D01*
X93531Y199884D01*
X92750Y200039D01*
D02*
G37*
G36*
X151750Y198289D02*
X150970Y198134D01*
X150308Y197692D01*
X149866Y197030D01*
X149711Y196250D01*
X149831Y195644D01*
X149080Y194852D01*
X148943Y194739D01*
X147715Y195243D01*
X147686Y195270D01*
X147634Y195530D01*
X147192Y196192D01*
X146530Y196634D01*
X145750Y196789D01*
X144970Y196634D01*
X144308Y196192D01*
X143866Y195530D01*
X143711Y194750D01*
X143740Y194603D01*
X142597Y193839D01*
X142530Y193884D01*
X141750Y194039D01*
X140970Y193884D01*
X140308Y193442D01*
X139866Y192780D01*
X139711Y192000D01*
X139866Y191220D01*
X140308Y190558D01*
X140970Y190116D01*
X141750Y189961D01*
X142530Y190116D01*
X143192Y190558D01*
X143634Y191220D01*
X143789Y192000D01*
X143760Y192147D01*
X144903Y192911D01*
X144970Y192866D01*
X145750Y192711D01*
X146530Y192866D01*
X146761Y193020D01*
X146786Y193020D01*
X148036Y192507D01*
X148064Y192480D01*
X148116Y192220D01*
X148558Y191558D01*
X149220Y191116D01*
X150000Y190961D01*
X150780Y191116D01*
X151442Y191558D01*
X151884Y192220D01*
X152039Y193000D01*
X151884Y193780D01*
X152530Y194366D01*
X153192Y194808D01*
X153634Y195470D01*
X153789Y196250D01*
X153634Y197030D01*
X153192Y197692D01*
X152530Y198134D01*
X151750Y198289D01*
D02*
G37*
G36*
X107500Y197789D02*
X106720Y197634D01*
X106058Y197192D01*
X105616Y196530D01*
X105461Y195750D01*
X105616Y194970D01*
X106058Y194308D01*
X106720Y193866D01*
X107500Y193711D01*
X108280Y193866D01*
X108942Y194308D01*
X109384Y194970D01*
X109539Y195750D01*
X109384Y196530D01*
X108942Y197192D01*
X108280Y197634D01*
X107500Y197789D01*
D02*
G37*
G36*
X130250Y197789D02*
X129470Y197634D01*
X128808Y197192D01*
X128366Y196530D01*
X128211Y195750D01*
X128366Y194970D01*
X128808Y194308D01*
X129470Y193866D01*
X130250Y193711D01*
X131030Y193866D01*
X131875Y194229D01*
X132720Y193866D01*
X133500Y193711D01*
X134281Y193866D01*
X134942Y194308D01*
X135384Y194970D01*
X135539Y195750D01*
X135384Y196530D01*
X134942Y197192D01*
X134281Y197634D01*
X133500Y197789D01*
X132720Y197634D01*
X131875Y197271D01*
X131030Y197634D01*
X130250Y197789D01*
D02*
G37*
G36*
X213750Y195789D02*
X212970Y195634D01*
X212308Y195192D01*
X211866Y194531D01*
X211820Y194300D01*
X210554Y193636D01*
X210530Y193634D01*
X209750Y193789D01*
X208970Y193634D01*
X208308Y193192D01*
X207866Y192530D01*
X207711Y191750D01*
X207866Y190970D01*
X208308Y190308D01*
X208970Y189866D01*
X209750Y189711D01*
X210530Y189866D01*
X211192Y190308D01*
X211634Y190970D01*
X211680Y191201D01*
X212946Y191864D01*
X212970Y191866D01*
X213750Y191711D01*
X214530Y191866D01*
X215192Y192308D01*
X215634Y192970D01*
X215789Y193750D01*
X215634Y194531D01*
X215192Y195192D01*
X214530Y195634D01*
X213750Y195789D01*
D02*
G37*
G36*
X229750Y195539D02*
X228970Y195384D01*
X228308Y194942D01*
X227866Y194280D01*
X227711Y193500D01*
X227866Y192720D01*
X228308Y192058D01*
X228970Y191616D01*
X229750Y191461D01*
X230530Y191616D01*
X231192Y192058D01*
X231634Y192720D01*
X231789Y193500D01*
X231634Y194280D01*
X231192Y194942D01*
X230530Y195384D01*
X229750Y195539D01*
D02*
G37*
G36*
X270250Y194539D02*
X269470Y194384D01*
X268808Y193942D01*
X268366Y193280D01*
X268211Y192500D01*
X268366Y191720D01*
X268808Y191058D01*
X269470Y190616D01*
X270250Y190461D01*
X271030Y190616D01*
X271692Y191058D01*
X272134Y191720D01*
X272289Y192500D01*
X272134Y193280D01*
X271692Y193942D01*
X271030Y194384D01*
X270250Y194539D01*
D02*
G37*
G36*
X83250Y191289D02*
X82470Y191134D01*
X81808Y190692D01*
X81366Y190031D01*
X81211Y189250D01*
X81366Y188470D01*
X81808Y187808D01*
X82470Y187366D01*
X83250Y187211D01*
X84031Y187366D01*
X84692Y187808D01*
X85134Y188470D01*
X85289Y189250D01*
X85134Y190031D01*
X84692Y190692D01*
X84031Y191134D01*
X83250Y191289D01*
D02*
G37*
G36*
X229750Y189039D02*
X228970Y188884D01*
X228308Y188442D01*
X227866Y187780D01*
X227711Y187000D01*
X227866Y186220D01*
X228308Y185558D01*
X228970Y185116D01*
X229750Y184961D01*
X230530Y185116D01*
X231192Y185558D01*
X231634Y186220D01*
X231789Y187000D01*
X231634Y187780D01*
X231192Y188442D01*
X230530Y188884D01*
X229750Y189039D01*
D02*
G37*
G36*
X264000Y186789D02*
X263220Y186634D01*
X262558Y186192D01*
X262116Y185530D01*
X261961Y184750D01*
X262116Y183970D01*
X262558Y183308D01*
X263220Y182866D01*
X264000Y182711D01*
X264780Y182866D01*
X265442Y183308D01*
X265884Y183970D01*
X266039Y184750D01*
X265884Y185530D01*
X265442Y186192D01*
X264780Y186634D01*
X264000Y186789D01*
D02*
G37*
G36*
X217750Y185789D02*
X216970Y185634D01*
X216308Y185192D01*
X215866Y184530D01*
X215711Y183750D01*
X215866Y182970D01*
X216308Y182308D01*
X216970Y181866D01*
X217750Y181711D01*
X218530Y181866D01*
X219192Y182308D01*
X219634Y182970D01*
X219789Y183750D01*
X219634Y184530D01*
X219192Y185192D01*
X218530Y185634D01*
X217750Y185789D01*
D02*
G37*
G36*
X104171Y181789D02*
X103391Y181634D01*
X102730Y181192D01*
X102288Y180530D01*
X102132Y179750D01*
X102288Y178970D01*
X102730Y178308D01*
X103391Y177866D01*
X104171Y177711D01*
X104952Y177866D01*
X105613Y178308D01*
X106055Y178970D01*
X106211Y179750D01*
X106055Y180530D01*
X105613Y181192D01*
X104952Y181634D01*
X104171Y181789D01*
D02*
G37*
G36*
X111250Y177289D02*
X110470Y177134D01*
X109808Y176692D01*
X109366Y176030D01*
X109211Y175250D01*
X109259Y175008D01*
X108665Y174478D01*
X108163Y174158D01*
X107500Y174289D01*
X106720Y174134D01*
X106058Y173692D01*
X105616Y173031D01*
X105461Y172250D01*
X105616Y171470D01*
X106058Y170808D01*
X106720Y170366D01*
X107500Y170211D01*
X108280Y170366D01*
X108942Y170808D01*
X109384Y171470D01*
X109539Y172250D01*
X109491Y172492D01*
X110085Y173023D01*
X110587Y173343D01*
X111250Y173211D01*
X112030Y173366D01*
X112692Y173808D01*
X113134Y174470D01*
X113289Y175250D01*
X113134Y176030D01*
X112692Y176692D01*
X112030Y177134D01*
X111250Y177289D01*
D02*
G37*
G36*
X270250Y177789D02*
X269470Y177634D01*
X268808Y177192D01*
X268366Y176530D01*
X268211Y175750D01*
X268366Y174970D01*
X268808Y174308D01*
X269470Y173866D01*
X270250Y173711D01*
X271030Y173866D01*
X271692Y174308D01*
X272134Y174970D01*
X272289Y175750D01*
X272134Y176530D01*
X271692Y177192D01*
X271030Y177634D01*
X270250Y177789D01*
D02*
G37*
G36*
X209750Y177789D02*
X208970Y177634D01*
X208308Y177192D01*
X207866Y176530D01*
X207711Y175750D01*
X207866Y174970D01*
X208308Y174308D01*
X208970Y173866D01*
X209750Y173711D01*
X210530Y173866D01*
X211192Y174308D01*
X211634Y174970D01*
X211789Y175750D01*
X211634Y176530D01*
X211192Y177192D01*
X210530Y177634D01*
X209750Y177789D01*
D02*
G37*
G36*
X193750D02*
X192970Y177634D01*
X192308Y177192D01*
X191866Y176530D01*
X191711Y175750D01*
X191866Y174970D01*
X192308Y174308D01*
X192970Y173866D01*
X193750Y173711D01*
X194530Y173866D01*
X195192Y174308D01*
X195634Y174970D01*
X195789Y175750D01*
X195634Y176530D01*
X195192Y177192D01*
X194530Y177634D01*
X193750Y177789D01*
D02*
G37*
G36*
X229750Y176789D02*
X228970Y176634D01*
X228308Y176192D01*
X227866Y175530D01*
X227711Y174750D01*
X227866Y173970D01*
X228308Y173308D01*
X228970Y172866D01*
X229750Y172711D01*
X230530Y172866D01*
X231192Y173308D01*
X231634Y173970D01*
X231789Y174750D01*
X231634Y175530D01*
X231192Y176192D01*
X230530Y176634D01*
X229750Y176789D01*
D02*
G37*
G36*
X26250Y181290D02*
X25470Y181134D01*
X24808Y180692D01*
X24366Y180031D01*
X24211Y179250D01*
X24366Y178470D01*
X24808Y177808D01*
Y176692D01*
X24366Y176031D01*
X24211Y175250D01*
X24366Y174470D01*
X24808Y173808D01*
Y172692D01*
X24366Y172031D01*
X24211Y171250D01*
X24366Y170470D01*
X24808Y169808D01*
X25470Y169366D01*
X26250Y169211D01*
X27030Y169366D01*
X27692Y169808D01*
X28134Y170470D01*
X28289Y171250D01*
X28134Y172031D01*
X27692Y172692D01*
Y173808D01*
X28134Y174470D01*
X28289Y175250D01*
X28134Y176031D01*
X27692Y176692D01*
Y177808D01*
X28134Y178470D01*
X28289Y179250D01*
X28134Y180031D01*
X27692Y180692D01*
X27030Y181134D01*
X26250Y181290D01*
D02*
G37*
G36*
X245750Y176039D02*
X244969Y175884D01*
X244308Y175442D01*
X243866Y174781D01*
X243710Y174000D01*
X243866Y173220D01*
X244180Y172750D01*
X243866Y172280D01*
X243711Y171500D01*
X243866Y170720D01*
X244180Y170250D01*
X243866Y169780D01*
X243711Y169000D01*
X243866Y168220D01*
X244308Y167558D01*
X244970Y167116D01*
X245750Y166961D01*
X246530Y167116D01*
X247192Y167558D01*
X247634Y168220D01*
X247789Y169000D01*
X247634Y169780D01*
X247320Y170250D01*
X247634Y170720D01*
X247789Y171500D01*
X247634Y172280D01*
X247320Y172750D01*
X247634Y173220D01*
X247789Y174000D01*
X247634Y174781D01*
X247192Y175442D01*
X246530Y175884D01*
X245750Y176039D01*
D02*
G37*
G36*
X201750Y169789D02*
X200970Y169634D01*
X200308Y169192D01*
X199866Y168530D01*
X199711Y167750D01*
X199866Y166970D01*
X200308Y166308D01*
X200970Y165866D01*
X201750Y165711D01*
X202530Y165866D01*
X203192Y166308D01*
X203634Y166970D01*
X203789Y167750D01*
X203634Y168530D01*
X203192Y169192D01*
X202530Y169634D01*
X201750Y169789D01*
D02*
G37*
G36*
X153750D02*
X152970Y169634D01*
X152308Y169192D01*
X151866Y168530D01*
X151711Y167750D01*
X151866Y166970D01*
X152308Y166308D01*
X152970Y165866D01*
X153750Y165711D01*
X154530Y165866D01*
X155192Y166308D01*
X155634Y166970D01*
X155789Y167750D01*
X155634Y168530D01*
X155192Y169192D01*
X154530Y169634D01*
X153750Y169789D01*
D02*
G37*
G36*
X145750D02*
X144970Y169634D01*
X144308Y169192D01*
X143866Y168530D01*
X143711Y167750D01*
X143866Y166970D01*
X144308Y166308D01*
X144970Y165866D01*
X145750Y165711D01*
X146530Y165866D01*
X147192Y166308D01*
X147634Y166970D01*
X147789Y167750D01*
X147634Y168530D01*
X147192Y169192D01*
X146530Y169634D01*
X145750Y169789D01*
D02*
G37*
G36*
X229750Y169539D02*
X228970Y169384D01*
X228308Y168942D01*
X227866Y168280D01*
X227711Y167500D01*
X227866Y166719D01*
X228308Y166058D01*
X228970Y165616D01*
X229750Y165461D01*
X230530Y165616D01*
X231192Y166058D01*
X231634Y166719D01*
X231789Y167500D01*
X231634Y168280D01*
X231192Y168942D01*
X230530Y169384D01*
X229750Y169539D01*
D02*
G37*
G36*
X96250Y170299D02*
X95275Y170105D01*
X94448Y169552D01*
X93895Y168725D01*
X93701Y167750D01*
X93895Y166775D01*
X94448Y165948D01*
X95275Y165395D01*
X96250Y165201D01*
X97226Y165395D01*
X98052Y165948D01*
X98605Y166775D01*
X98799Y167750D01*
X98605Y168725D01*
X98052Y169552D01*
X97226Y170105D01*
X96250Y170299D01*
D02*
G37*
G36*
X107500Y167289D02*
X106720Y167134D01*
X106058Y166692D01*
X105616Y166030D01*
X105461Y165250D01*
X105616Y164470D01*
X106058Y163808D01*
X106720Y163366D01*
X107500Y163211D01*
X108280Y163366D01*
X108942Y163808D01*
X109384Y164470D01*
X109539Y165250D01*
X109384Y166030D01*
X108942Y166692D01*
X108280Y167134D01*
X107500Y167289D01*
D02*
G37*
G36*
X215250Y166289D02*
X214470Y166134D01*
X213808Y165692D01*
X213366Y165030D01*
X213211Y164250D01*
X213366Y163470D01*
X213808Y162808D01*
X214470Y162366D01*
X215250Y162211D01*
X216030Y162366D01*
X216692Y162808D01*
X217134Y163470D01*
X217289Y164250D01*
X217134Y165030D01*
X216692Y165692D01*
X216030Y166134D01*
X215250Y166289D01*
D02*
G37*
G36*
X20250Y164289D02*
X19470Y164134D01*
X18808Y163692D01*
X18366Y163030D01*
X18211Y162250D01*
X18366Y161470D01*
X18808Y160808D01*
X19470Y160366D01*
X20250Y160211D01*
X21030Y160366D01*
X21692Y160808D01*
X22134Y161470D01*
X22289Y162250D01*
X22134Y163030D01*
X21692Y163692D01*
X21030Y164134D01*
X20250Y164289D01*
D02*
G37*
G36*
X153750Y161789D02*
X152970Y161634D01*
X152308Y161192D01*
X151866Y160530D01*
X151711Y159750D01*
X151866Y158970D01*
X152308Y158308D01*
X152970Y157866D01*
X153750Y157711D01*
X154530Y157866D01*
X155192Y158308D01*
X155634Y158970D01*
X155789Y159750D01*
X155634Y160530D01*
X155192Y161192D01*
X154530Y161634D01*
X153750Y161789D01*
D02*
G37*
G36*
X137750D02*
X136970Y161634D01*
X136308Y161192D01*
X135866Y160530D01*
X135711Y159750D01*
X135866Y158970D01*
X136308Y158308D01*
X136970Y157866D01*
X137750Y157711D01*
X138530Y157866D01*
X139192Y158308D01*
X139634Y158970D01*
X139789Y159750D01*
X139634Y160530D01*
X139192Y161192D01*
X138530Y161634D01*
X137750Y161789D01*
D02*
G37*
G36*
X215250Y157789D02*
X214470Y157634D01*
X213808Y157192D01*
X213366Y156530D01*
X213211Y155750D01*
X213366Y154970D01*
X213808Y154308D01*
X214470Y153866D01*
X215250Y153711D01*
X216030Y153866D01*
X216692Y154308D01*
X217134Y154970D01*
X217289Y155750D01*
X217134Y156530D01*
X216692Y157192D01*
X216030Y157634D01*
X215250Y157789D01*
D02*
G37*
G36*
X83250Y157289D02*
X82470Y157134D01*
X81808Y156692D01*
X81366Y156031D01*
X81211Y155250D01*
X81366Y154470D01*
X81808Y153808D01*
X82470Y153366D01*
X83250Y153211D01*
X84030Y153366D01*
X84692Y153808D01*
X85134Y154470D01*
X85289Y155250D01*
X85134Y156031D01*
X84692Y156692D01*
X84030Y157134D01*
X83250Y157289D01*
D02*
G37*
G36*
X15500Y155790D02*
X14720Y155634D01*
X14058Y155192D01*
X13616Y154531D01*
X13461Y153750D01*
X13616Y152970D01*
X14058Y152309D01*
X14720Y151867D01*
X15500Y151711D01*
X16280Y151867D01*
X16942Y152309D01*
X17384Y152970D01*
X17539Y153750D01*
X17384Y154531D01*
X16942Y155192D01*
X16280Y155634D01*
X15500Y155790D01*
D02*
G37*
G36*
X137750Y153789D02*
X136970Y153634D01*
X136308Y153192D01*
X135866Y152530D01*
X135711Y151750D01*
X135866Y150970D01*
X136308Y150308D01*
X136970Y149866D01*
X137750Y149711D01*
X138530Y149866D01*
X139192Y150308D01*
X139634Y150970D01*
X139789Y151750D01*
X139634Y152530D01*
X139192Y153192D01*
X138530Y153634D01*
X137750Y153789D01*
D02*
G37*
G36*
X270750Y148289D02*
X269970Y148134D01*
X269308Y147692D01*
X268866Y147030D01*
X268711Y146250D01*
X268866Y145470D01*
X269308Y144808D01*
X269970Y144366D01*
X270750Y144211D01*
X271530Y144366D01*
X272192Y144808D01*
X272634Y145470D01*
X272789Y146250D01*
X272634Y147030D01*
X272192Y147692D01*
X271530Y148134D01*
X270750Y148289D01*
D02*
G37*
G36*
X89250Y153289D02*
X88470Y153134D01*
X87808Y152692D01*
X87366Y152031D01*
X87211Y151250D01*
X87366Y150470D01*
X87808Y149808D01*
Y148692D01*
X87366Y148031D01*
X87211Y147250D01*
X87366Y146470D01*
X87808Y145808D01*
X87812Y144688D01*
X87370Y144027D01*
X87215Y143246D01*
X87370Y142466D01*
X87812Y141804D01*
X88474Y141362D01*
X89254Y141207D01*
X90035Y141362D01*
X90696Y141804D01*
X91138Y142466D01*
X91293Y143246D01*
X91138Y144027D01*
X90696Y144688D01*
X90692Y145808D01*
X91134Y146470D01*
X91289Y147250D01*
X91134Y148031D01*
X90692Y148692D01*
Y149808D01*
X91134Y150470D01*
X91289Y151250D01*
X91134Y152031D01*
X90692Y152692D01*
X90031Y153134D01*
X89250Y153289D01*
D02*
G37*
G36*
X271500Y141789D02*
X270720Y141634D01*
X270058Y141192D01*
X269664Y140603D01*
X269101Y140530D01*
X268899D01*
X268336Y140603D01*
X267942Y141192D01*
X267280Y141634D01*
X266500Y141789D01*
X265720Y141634D01*
X265058Y141192D01*
X264616Y140530D01*
X264461Y139750D01*
X264616Y138970D01*
X265058Y138308D01*
X265720Y137866D01*
X266500Y137711D01*
X267280Y137866D01*
X267942Y138308D01*
X268336Y138897D01*
X268899Y138970D01*
X269101D01*
X269664Y138897D01*
X270058Y138308D01*
X270720Y137866D01*
X271500Y137711D01*
X272280Y137866D01*
X272942Y138308D01*
X273384Y138970D01*
X273539Y139750D01*
X273384Y140530D01*
X272942Y141192D01*
X272280Y141634D01*
X271500Y141789D01*
D02*
G37*
G36*
X26900Y137289D02*
X26120Y137134D01*
X25458Y136692D01*
X25016Y136030D01*
X24861Y135250D01*
X25016Y134470D01*
X25458Y133808D01*
X26120Y133366D01*
X26900Y133211D01*
X27680Y133366D01*
X28342Y133808D01*
X28784Y134470D01*
X28939Y135250D01*
X28784Y136030D01*
X28342Y136692D01*
X27680Y137134D01*
X26900Y137289D01*
D02*
G37*
G36*
X89250Y137039D02*
X88470Y136884D01*
X87808Y136442D01*
X87366Y135780D01*
X87211Y135000D01*
X87366Y134220D01*
X87808Y133558D01*
X88470Y133116D01*
X89250Y132961D01*
X90031Y133116D01*
X90692Y133558D01*
X91134Y134220D01*
X91289Y135000D01*
X91134Y135780D01*
X90692Y136442D01*
X90031Y136884D01*
X89250Y137039D01*
D02*
G37*
G36*
X78250Y133289D02*
X77470Y133134D01*
X76808Y132692D01*
X75692D01*
X75030Y133134D01*
X74250Y133289D01*
X73470Y133134D01*
X72808Y132692D01*
X72366Y132031D01*
X72211Y131250D01*
X72355Y130526D01*
X72226Y130351D01*
X71392Y129643D01*
X71318Y129692D01*
X71030Y129884D01*
X70250Y130039D01*
X69470Y129884D01*
X68808Y129442D01*
X68366Y128780D01*
X68211Y128000D01*
X68274Y127680D01*
X67612Y126704D01*
X67318Y126503D01*
X66720Y126384D01*
X66226Y126054D01*
X66010Y125951D01*
X64695Y126188D01*
X64692Y126192D01*
X64030Y126634D01*
X63250Y126789D01*
X62470Y126634D01*
X61808Y126192D01*
X60651Y126387D01*
X60280Y126634D01*
X59500Y126789D01*
X58720Y126634D01*
X58058Y126192D01*
X57616Y125530D01*
X57461Y124750D01*
X57616Y123970D01*
X58058Y123308D01*
X58720Y122866D01*
X59500Y122711D01*
X60280Y122866D01*
X60942Y123308D01*
X62099Y123113D01*
X62470Y122866D01*
X63250Y122711D01*
X64030Y122866D01*
X64524Y123196D01*
X64740Y123299D01*
X66055Y123062D01*
X66058Y123058D01*
X66720Y122616D01*
X67500Y122461D01*
X68280Y122616D01*
X68942Y123058D01*
X69384Y123720D01*
X69539Y124500D01*
X69475Y124820D01*
X70138Y125796D01*
X70433Y125997D01*
X71030Y126116D01*
X71692Y126558D01*
X72134Y127220D01*
X72289Y128000D01*
X72145Y128724D01*
X72274Y128899D01*
X73109Y129608D01*
X73183Y129558D01*
X73470Y129366D01*
X74250Y129211D01*
X75030Y129366D01*
X75692Y129808D01*
X76808D01*
X77470Y129366D01*
X78250Y129211D01*
X79030Y129366D01*
X79692Y129808D01*
X80134Y130470D01*
X80289Y131250D01*
X80134Y132031D01*
X79692Y132692D01*
X79030Y133134D01*
X78250Y133289D01*
D02*
G37*
G36*
X62250D02*
X61470Y133134D01*
X60808Y132692D01*
X59692D01*
X59030Y133134D01*
X58250Y133289D01*
X57470Y133134D01*
X56808Y132692D01*
X55692D01*
X55030Y133134D01*
X54250Y133289D01*
X53470Y133134D01*
X52808Y132692D01*
X51692D01*
X51031Y133134D01*
X50250Y133289D01*
X49470Y133134D01*
X48808Y132692D01*
X47692D01*
X47031Y133134D01*
X46250Y133289D01*
X45470Y133134D01*
X44808Y132692D01*
X44366Y132031D01*
X44211Y131250D01*
X44366Y130470D01*
X44808Y129808D01*
X45470Y129366D01*
X46250Y129211D01*
X47031Y129366D01*
X47692Y129808D01*
X48808D01*
X49470Y129366D01*
X50250Y129211D01*
X51031Y129366D01*
X51692Y129808D01*
X52808D01*
X53470Y129366D01*
X54250Y129211D01*
X55030Y129366D01*
X55692Y129808D01*
X56808D01*
X57470Y129366D01*
X58250Y129211D01*
X59030Y129366D01*
X59692Y129808D01*
X60808D01*
X61470Y129366D01*
X62250Y129211D01*
X63031Y129366D01*
X63692Y129808D01*
X64134Y130470D01*
X64289Y131250D01*
X64134Y132031D01*
X63692Y132692D01*
X63031Y133134D01*
X62250Y133289D01*
D02*
G37*
G36*
X271500Y135289D02*
X270720Y135134D01*
X270058Y134692D01*
X269616Y134030D01*
X269461Y133250D01*
X269616Y132470D01*
X270058Y131808D01*
X270720Y131366D01*
X271500Y131211D01*
X272280Y131366D01*
X272942Y131808D01*
X273384Y132470D01*
X273539Y133250D01*
X273384Y134030D01*
X272942Y134692D01*
X272280Y135134D01*
X271500Y135289D01*
D02*
G37*
G36*
X26900Y129289D02*
X26120Y129134D01*
X25458Y128692D01*
X25016Y128030D01*
X24861Y127250D01*
X25016Y126470D01*
X25458Y125808D01*
X26120Y125366D01*
X26900Y125211D01*
X27680Y125366D01*
X28342Y125808D01*
X28784Y126470D01*
X28939Y127250D01*
X28784Y128030D01*
X28342Y128692D01*
X27680Y129134D01*
X26900Y129289D01*
D02*
G37*
G36*
X15500Y130040D02*
X14720Y129884D01*
X14058Y129442D01*
X13616Y128781D01*
X13461Y128000D01*
X13616Y127220D01*
X14058Y126558D01*
X14720Y126116D01*
X15500Y125961D01*
X16280Y126116D01*
X16567Y126308D01*
X16641Y126357D01*
X17475Y125650D01*
X17605Y125474D01*
X17461Y124750D01*
X17616Y123970D01*
X18058Y123308D01*
X18720Y122866D01*
X19500Y122711D01*
X20280Y122866D01*
X20942Y123308D01*
X21384Y123970D01*
X21539Y124750D01*
X21384Y125530D01*
X20942Y126192D01*
X20280Y126634D01*
X19500Y126789D01*
X18720Y126634D01*
X18433Y126442D01*
X18359Y126393D01*
X17525Y127101D01*
X17395Y127277D01*
X17539Y128000D01*
X17384Y128781D01*
X16942Y129442D01*
X16280Y129884D01*
X15500Y130040D01*
D02*
G37*
G36*
X70500Y121829D02*
X68939Y121518D01*
X67616Y120634D01*
X66732Y119311D01*
X66422Y117750D01*
X66732Y116189D01*
X67616Y114866D01*
X68939Y113982D01*
X70500Y113672D01*
X72061Y113982D01*
X73384Y114866D01*
X74268Y116189D01*
X74578Y117750D01*
X74268Y119311D01*
X73384Y120634D01*
X72061Y121518D01*
X70500Y121829D01*
D02*
G37*
G36*
X271500Y113789D02*
X270720Y113634D01*
X270058Y113192D01*
X269664Y112603D01*
X269101Y112530D01*
X268899D01*
X268336Y112603D01*
X267942Y113192D01*
X267280Y113634D01*
X266500Y113789D01*
X265720Y113634D01*
X265058Y113192D01*
X264616Y112530D01*
X264461Y111750D01*
X264616Y110969D01*
X265058Y110308D01*
X265720Y109866D01*
X266500Y109711D01*
X267280Y109866D01*
X267942Y110308D01*
X268336Y110897D01*
X268899Y110969D01*
X269101D01*
X269664Y110897D01*
X270058Y110308D01*
X270720Y109866D01*
X271500Y109711D01*
X272280Y109866D01*
X272942Y110308D01*
X273384Y110969D01*
X273539Y111750D01*
X273384Y112530D01*
X272942Y113192D01*
X272280Y113634D01*
X271500Y113789D01*
D02*
G37*
G36*
X54000Y110289D02*
X53220Y110134D01*
X52558Y109692D01*
X52165Y109103D01*
X51601Y109031D01*
X51399D01*
X50836Y109103D01*
X50442Y109692D01*
X49780Y110134D01*
X49000Y110289D01*
X48220Y110134D01*
X47558Y109692D01*
X47116Y109031D01*
X46961Y108250D01*
X47116Y107470D01*
X47558Y106808D01*
X48220Y106366D01*
X49000Y106211D01*
X49780Y106366D01*
X50442Y106808D01*
X50836Y107397D01*
X51399Y107470D01*
X51601D01*
X52165Y107397D01*
X52558Y106808D01*
X53220Y106366D01*
X54000Y106211D01*
X54780Y106366D01*
X55442Y106808D01*
X55884Y107470D01*
X56039Y108250D01*
X55884Y109031D01*
X55442Y109692D01*
X54780Y110134D01*
X54000Y110289D01*
D02*
G37*
G36*
X66000Y110289D02*
X65220Y110134D01*
X64558Y109692D01*
X64164Y109103D01*
X63601Y109030D01*
X63399D01*
X62836Y109103D01*
X62442Y109692D01*
X61780Y110134D01*
X61000Y110289D01*
X60220Y110134D01*
X59558Y109692D01*
X59116Y109030D01*
X58961Y108250D01*
X59116Y107470D01*
X59558Y106808D01*
X60220Y106366D01*
X61000Y106211D01*
X61780Y106366D01*
X62442Y106808D01*
X62836Y107397D01*
X63399Y107470D01*
X63601D01*
X64164Y107397D01*
X64558Y106808D01*
X65220Y106366D01*
X66000Y106211D01*
X66780Y106366D01*
X67442Y106808D01*
X67884Y107470D01*
X68039Y108250D01*
X67884Y109030D01*
X67442Y109692D01*
X66780Y110134D01*
X66000Y110289D01*
D02*
G37*
G36*
X73000D02*
X72220Y110134D01*
X71558Y109692D01*
X71116Y109030D01*
X70961Y108250D01*
X71116Y107470D01*
X71558Y106808D01*
X72220Y106366D01*
X73000Y106211D01*
X73780Y106366D01*
X74442Y106808D01*
X74884Y107470D01*
X75039Y108250D01*
X74884Y109030D01*
X74442Y109692D01*
X73780Y110134D01*
X73000Y110289D01*
D02*
G37*
G36*
X271500Y107289D02*
X270720Y107134D01*
X270058Y106692D01*
X269664Y106103D01*
X269101Y106030D01*
X268899D01*
X268336Y106103D01*
X267942Y106692D01*
X267280Y107134D01*
X266500Y107289D01*
X265720Y107134D01*
X265058Y106692D01*
X264616Y106030D01*
X264461Y105250D01*
X264616Y104470D01*
X265058Y103808D01*
X265720Y103366D01*
X266500Y103211D01*
X267280Y103366D01*
X267942Y103808D01*
X268336Y104397D01*
X268899Y104469D01*
X269101D01*
X269664Y104397D01*
X270058Y103808D01*
X270720Y103366D01*
X271500Y103211D01*
X272280Y103366D01*
X272942Y103808D01*
X273384Y104470D01*
X273539Y105250D01*
X273384Y106030D01*
X272942Y106692D01*
X272280Y107134D01*
X271500Y107289D01*
D02*
G37*
G36*
X266500Y100789D02*
X265720Y100634D01*
X265058Y100192D01*
X264616Y99530D01*
X264461Y98750D01*
X264616Y97970D01*
X265058Y97308D01*
X265720Y96866D01*
X266500Y96711D01*
X267280Y96866D01*
X267942Y97308D01*
X268384Y97970D01*
X268539Y98750D01*
X268384Y99530D01*
X267942Y100192D01*
X267280Y100634D01*
X266500Y100789D01*
D02*
G37*
G36*
Y94289D02*
X265720Y94134D01*
X265058Y93692D01*
X264616Y93030D01*
X264461Y92250D01*
X264616Y91469D01*
X265058Y90808D01*
X265720Y90366D01*
X266500Y90211D01*
X267280Y90366D01*
X267942Y90808D01*
X268384Y91469D01*
X268539Y92250D01*
X268384Y93030D01*
X267942Y93692D01*
X267280Y94134D01*
X266500Y94289D01*
D02*
G37*
G36*
Y87789D02*
X265720Y87634D01*
X265058Y87192D01*
X264616Y86530D01*
X264461Y85750D01*
X264616Y84970D01*
X265058Y84308D01*
X265720Y83866D01*
X266500Y83711D01*
X267280Y83866D01*
X267942Y84308D01*
X268384Y84970D01*
X268539Y85750D01*
X268384Y86530D01*
X267942Y87192D01*
X267280Y87634D01*
X266500Y87789D01*
D02*
G37*
G36*
X232000Y85789D02*
X231220Y85633D01*
X230558Y85191D01*
X230116Y84530D01*
X229961Y83750D01*
X230116Y82969D01*
X230558Y82308D01*
X231220Y81866D01*
X232000Y81710D01*
X232780Y81866D01*
X233442Y82308D01*
X233884Y82969D01*
X234039Y83750D01*
X233884Y84530D01*
X233442Y85191D01*
X232780Y85633D01*
X232000Y85789D01*
D02*
G37*
G36*
X257250Y82289D02*
X256470Y82134D01*
X255808Y81692D01*
X255366Y81030D01*
X255211Y80250D01*
X255366Y79470D01*
X255808Y78808D01*
X256470Y78366D01*
X257250Y78211D01*
X258030Y78366D01*
X258692Y78808D01*
X259134Y79470D01*
X259289Y80250D01*
X259134Y81030D01*
X258692Y81692D01*
X258030Y82134D01*
X257250Y82289D01*
D02*
G37*
G36*
X266500Y81289D02*
X265720Y81133D01*
X265058Y80691D01*
X264616Y80030D01*
X264461Y79250D01*
X264616Y78469D01*
X265058Y77808D01*
X265720Y77366D01*
X266500Y77210D01*
X267280Y77366D01*
X267942Y77808D01*
X268384Y78469D01*
X268539Y79250D01*
X268384Y80030D01*
X267942Y80691D01*
X267280Y81133D01*
X266500Y81289D01*
D02*
G37*
G36*
X217000Y80039D02*
X216220Y79884D01*
X215558Y79442D01*
X215116Y78780D01*
X214961Y78000D01*
X215116Y77220D01*
X215558Y76558D01*
X216220Y76116D01*
X217000Y75961D01*
X217780Y76116D01*
X218442Y76558D01*
X218884Y77220D01*
X219039Y78000D01*
X218884Y78780D01*
X218442Y79442D01*
X217780Y79884D01*
X217000Y80039D01*
D02*
G37*
G36*
X126700Y83728D02*
X125139Y83418D01*
X123816Y82534D01*
X122932Y81211D01*
X122622Y79650D01*
X122932Y78089D01*
X123816Y76766D01*
X125139Y75882D01*
X126700Y75572D01*
X128261Y75882D01*
X129584Y76766D01*
X130468Y78089D01*
X130778Y79650D01*
X130468Y81211D01*
X129584Y82534D01*
X128261Y83418D01*
X126700Y83728D01*
D02*
G37*
G36*
X88600Y83728D02*
X87039Y83418D01*
X85716Y82534D01*
X84832Y81211D01*
X84522Y79650D01*
X84832Y78089D01*
X85716Y76766D01*
X87039Y75882D01*
X88600Y75572D01*
X90161Y75882D01*
X91484Y76766D01*
X92368Y78089D01*
X92678Y79650D01*
X92368Y81211D01*
X91484Y82534D01*
X90161Y83418D01*
X88600Y83728D01*
D02*
G37*
G36*
X17300Y82578D02*
X15739Y82268D01*
X14416Y81384D01*
X13532Y80061D01*
X13222Y78500D01*
X13532Y76939D01*
X14416Y75616D01*
X15739Y74732D01*
X17300Y74422D01*
X18861Y74732D01*
X20184Y75616D01*
X21068Y76939D01*
X21379Y78500D01*
X21068Y80061D01*
X20184Y81384D01*
X18861Y82268D01*
X17300Y82578D01*
D02*
G37*
G36*
X240000Y77789D02*
X239220Y77634D01*
X238558Y77192D01*
X238116Y76530D01*
X237961Y75750D01*
X238116Y74969D01*
X238558Y74308D01*
X239220Y73866D01*
X240000Y73710D01*
X240780Y73866D01*
X241442Y74308D01*
X241884Y74969D01*
X242039Y75750D01*
X241884Y76530D01*
X241442Y77192D01*
X240780Y77634D01*
X240000Y77789D01*
D02*
G37*
G36*
X232000D02*
X231220Y77634D01*
X230558Y77192D01*
X230116Y76530D01*
X229961Y75750D01*
X230116Y74969D01*
X230558Y74308D01*
X231220Y73866D01*
X232000Y73710D01*
X232780Y73866D01*
X233442Y74308D01*
X233884Y74969D01*
X234039Y75750D01*
X233884Y76530D01*
X233442Y77192D01*
X232780Y77634D01*
X232000Y77789D01*
D02*
G37*
G36*
X266500Y74789D02*
X265720Y74634D01*
X265058Y74191D01*
X264616Y73530D01*
X264461Y72750D01*
X264616Y71969D01*
X265058Y71308D01*
X265720Y70866D01*
X266500Y70710D01*
X267280Y70866D01*
X267942Y71308D01*
X268384Y71969D01*
X268539Y72750D01*
X268384Y73530D01*
X267942Y74191D01*
X267280Y74634D01*
X266500Y74789D01*
D02*
G37*
G36*
X259000Y74059D02*
X257829Y73826D01*
X256837Y73163D01*
X256174Y72171D01*
X255941Y71000D01*
X256174Y69830D01*
X256837Y68837D01*
X257829Y68174D01*
X259000Y67941D01*
X260170Y68174D01*
X261163Y68837D01*
X261826Y69830D01*
X262059Y71000D01*
X261826Y72171D01*
X261163Y73163D01*
X260170Y73826D01*
X259000Y74059D01*
D02*
G37*
G36*
X95050Y71539D02*
X94270Y71384D01*
X93608Y70942D01*
X93166Y70280D01*
X93011Y69500D01*
X93166Y68720D01*
X93608Y68058D01*
X94270Y67616D01*
X95050Y67461D01*
X95830Y67616D01*
X96492Y68058D01*
X96934Y68720D01*
X97089Y69500D01*
X96934Y70280D01*
X96492Y70942D01*
X95830Y71384D01*
X95050Y71539D01*
D02*
G37*
G36*
X219500Y72309D02*
X218330Y72076D01*
X217337Y71413D01*
X216674Y70420D01*
X216441Y69250D01*
X216674Y68080D01*
X217337Y67087D01*
X218330Y66424D01*
X219500Y66191D01*
X220671Y66424D01*
X221663Y67087D01*
X222326Y68080D01*
X222559Y69250D01*
X222326Y70420D01*
X221663Y71413D01*
X220671Y72076D01*
X219500Y72309D01*
D02*
G37*
G36*
X237750Y63789D02*
X236970Y63634D01*
X236308Y63192D01*
X235692D01*
X235030Y63634D01*
X234250Y63789D01*
X233470Y63634D01*
X232808Y63192D01*
X232366Y62530D01*
X232211Y61750D01*
X232366Y60970D01*
X232808Y60308D01*
X233470Y59866D01*
X234250Y59711D01*
X235030Y59866D01*
X235692Y60308D01*
X236308D01*
X236970Y59866D01*
X237750Y59711D01*
X238530Y59866D01*
X239192Y60308D01*
X239634Y60970D01*
X239789Y61750D01*
X239634Y62530D01*
X239192Y63192D01*
X238530Y63634D01*
X237750Y63789D01*
D02*
G37*
G36*
X176250Y67078D02*
X174689Y66768D01*
X173366Y65884D01*
X172482Y64561D01*
X172172Y63000D01*
X172482Y61439D01*
X173366Y60116D01*
X174689Y59232D01*
X176250Y58922D01*
X177811Y59232D01*
X179134Y60116D01*
X180018Y61439D01*
X180328Y63000D01*
X180018Y64561D01*
X179134Y65884D01*
X177811Y66768D01*
X176250Y67078D01*
D02*
G37*
G36*
X68750Y64059D02*
X67579Y63826D01*
X66587Y63163D01*
X65924Y62171D01*
X65691Y61000D01*
X65924Y59830D01*
X66587Y58837D01*
X67579Y58174D01*
X68750Y57941D01*
X69921Y58174D01*
X70913Y58837D01*
X71576Y59830D01*
X71809Y61000D01*
X71576Y62171D01*
X70913Y63163D01*
X69921Y63826D01*
X68750Y64059D01*
D02*
G37*
G36*
X17300Y69117D02*
X14959Y68652D01*
X12974Y67326D01*
X11648Y65341D01*
X11183Y63000D01*
X11648Y60659D01*
X12974Y58674D01*
X14959Y57348D01*
X17300Y56882D01*
X19641Y57348D01*
X21626Y58674D01*
X22952Y60659D01*
X23418Y63000D01*
X22952Y65341D01*
X21626Y67326D01*
X19641Y68652D01*
X17300Y69117D01*
D02*
G37*
G36*
X243500Y59289D02*
X242720Y59134D01*
X242058Y58692D01*
X241616Y58030D01*
X241461Y57250D01*
X241616Y56470D01*
X242058Y55808D01*
X242720Y55366D01*
X243500Y55211D01*
X244280Y55366D01*
X244942Y55808D01*
X245384Y56470D01*
X245539Y57250D01*
X245384Y58030D01*
X244942Y58692D01*
X244280Y59134D01*
X243500Y59289D01*
D02*
G37*
G36*
X258250Y58039D02*
X257470Y57884D01*
X256808Y57442D01*
X256366Y56781D01*
X256211Y56000D01*
X256285Y55625D01*
X255597Y54717D01*
X255307Y54528D01*
X255250Y54539D01*
X254470Y54384D01*
X254074Y54120D01*
X253692Y54692D01*
X253030Y55134D01*
X252250Y55289D01*
X251470Y55134D01*
X250808Y54692D01*
X250366Y54030D01*
X250211Y53250D01*
X250366Y52470D01*
X250808Y51808D01*
X251470Y51366D01*
X252250Y51211D01*
X253030Y51366D01*
X253426Y51630D01*
X253808Y51058D01*
X254470Y50616D01*
X255250Y50461D01*
X256030Y50616D01*
X256692Y51058D01*
X257134Y51720D01*
X257289Y52500D01*
X257214Y52875D01*
X257903Y53783D01*
X258193Y53972D01*
X258250Y53961D01*
X259030Y54116D01*
X259692Y54558D01*
X260134Y55220D01*
X260289Y56000D01*
X260134Y56781D01*
X259692Y57442D01*
X259030Y57884D01*
X258250Y58039D01*
D02*
G37*
G36*
X158250Y55039D02*
X157470Y54884D01*
X156808Y54442D01*
X156366Y53780D01*
X156211Y53000D01*
X156366Y52220D01*
X156808Y51558D01*
X157470Y51116D01*
X158250Y50961D01*
X159030Y51116D01*
X159692Y51558D01*
X160134Y52220D01*
X160289Y53000D01*
X160134Y53780D01*
X159692Y54442D01*
X159030Y54884D01*
X158250Y55039D01*
D02*
G37*
G36*
X228750Y53789D02*
X227970Y53634D01*
X227308Y53192D01*
X226866Y52530D01*
X226711Y51750D01*
X226866Y50970D01*
X227308Y50308D01*
X227970Y49866D01*
X228750Y49711D01*
X229530Y49866D01*
X230192Y50308D01*
X230634Y50970D01*
X230789Y51750D01*
X230634Y52530D01*
X230192Y53192D01*
X229530Y53634D01*
X228750Y53789D01*
D02*
G37*
G36*
X244262Y51542D02*
X243482Y51386D01*
X242820Y50944D01*
X242378Y50283D01*
X242223Y49502D01*
X242378Y48722D01*
X242820Y48060D01*
X243482Y47618D01*
X244262Y47463D01*
X245042Y47618D01*
X245704Y48060D01*
X246146Y48722D01*
X246301Y49502D01*
X246146Y50283D01*
X245704Y50944D01*
X245042Y51386D01*
X244262Y51542D01*
D02*
G37*
G36*
X122250Y108539D02*
X121470Y108384D01*
X120808Y107942D01*
X120366Y107280D01*
X120211Y106500D01*
X120366Y105720D01*
X120626Y105330D01*
Y101500D01*
X121102Y100352D01*
X158211Y63243D01*
X157723Y61934D01*
X157470Y61884D01*
X156808Y61442D01*
X156366Y60780D01*
X156211Y60000D01*
X156366Y59220D01*
X156808Y58558D01*
X157470Y58116D01*
X158250Y57961D01*
X159030Y58116D01*
X159692Y58558D01*
X160134Y59220D01*
X160184Y59474D01*
X161493Y59961D01*
X170352Y51102D01*
X171500Y50626D01*
X179578D01*
X191266Y38938D01*
X191251Y38511D01*
X190953Y37455D01*
X190558Y37192D01*
X190116Y36530D01*
X189961Y35750D01*
X190116Y34969D01*
X190558Y34308D01*
X191220Y33866D01*
X192000Y33710D01*
X192780Y33866D01*
X193356Y34251D01*
X193802Y34151D01*
X194626Y33794D01*
Y21705D01*
X193802Y21348D01*
X193356Y21249D01*
X192780Y21634D01*
X192000Y21789D01*
X191220Y21634D01*
X190558Y21191D01*
X190116Y20530D01*
X189961Y19750D01*
X190116Y18969D01*
X190558Y18308D01*
X191220Y17866D01*
X192000Y17710D01*
X192780Y17866D01*
X193442Y18308D01*
X193495Y18316D01*
X194807Y18064D01*
X195102Y17352D01*
X197602Y14852D01*
X198750Y14376D01*
X201750D01*
X202898Y14852D01*
X205398Y17352D01*
X205874Y18500D01*
Y22578D01*
X208673Y25376D01*
X211500D01*
X211500Y25376D01*
X218330D01*
X218720Y25116D01*
X219284Y25004D01*
X219335Y24871D01*
X219527Y23929D01*
X219531Y23758D01*
X219058Y23442D01*
X218616Y22780D01*
X218461Y22000D01*
X218616Y21220D01*
X219058Y20558D01*
X219720Y20116D01*
X220500Y19961D01*
X221280Y20116D01*
X221942Y20558D01*
X222384Y21220D01*
X222539Y22000D01*
X222384Y22780D01*
X221942Y23442D01*
X221280Y23884D01*
X220716Y23996D01*
X220665Y24130D01*
X220473Y25071D01*
X220469Y25242D01*
X220942Y25558D01*
X221384Y26220D01*
X221539Y27000D01*
X221384Y27780D01*
X220942Y28442D01*
X220280Y28884D01*
X219500Y29039D01*
X218720Y28884D01*
X218330Y28624D01*
X211500D01*
X211500Y28624D01*
X208000D01*
X206852Y28148D01*
X203102Y24398D01*
X202626Y23250D01*
Y21705D01*
X201802Y21348D01*
X201356Y21249D01*
X200780Y21634D01*
X200000Y21789D01*
X199220Y21634D01*
X199144Y21583D01*
X197874Y22262D01*
Y33238D01*
X199144Y33916D01*
X199220Y33866D01*
X200000Y33710D01*
X200780Y33866D01*
X201442Y34308D01*
X201884Y34969D01*
X202039Y35750D01*
X201884Y36530D01*
X201442Y37192D01*
X200780Y37634D01*
X200000Y37789D01*
X199220Y37634D01*
X198793Y37349D01*
X197838Y37383D01*
X197320Y37520D01*
X196945Y38138D01*
X197750Y39260D01*
X198000Y39211D01*
X198780Y39366D01*
X199442Y39808D01*
X199884Y40470D01*
X200039Y41250D01*
X199884Y42030D01*
X199442Y42692D01*
X198780Y43134D01*
X198000Y43289D01*
X197220Y43134D01*
X196558Y42692D01*
X196116Y42030D01*
X195961Y41250D01*
X196116Y40470D01*
X195116Y39680D01*
X181398Y53398D01*
X180250Y53874D01*
X172173D01*
X123874Y102172D01*
Y105330D01*
X124134Y105720D01*
X124289Y106500D01*
X124134Y107280D01*
X123692Y107942D01*
X123030Y108384D01*
X122250Y108539D01*
D02*
G37*
G36*
X152100Y45628D02*
X150539Y45318D01*
X149216Y44434D01*
X148332Y43111D01*
X148022Y41550D01*
X148332Y39989D01*
X149216Y38666D01*
X150539Y37782D01*
X152100Y37472D01*
X153661Y37782D01*
X154984Y38666D01*
X155868Y39989D01*
X156178Y41550D01*
X155868Y43111D01*
X154984Y44434D01*
X153661Y45318D01*
X152100Y45628D01*
D02*
G37*
G36*
X37800Y45628D02*
X36239Y45318D01*
X34916Y44434D01*
X34032Y43111D01*
X33722Y41550D01*
X34032Y39989D01*
X34916Y38666D01*
X36239Y37782D01*
X37800Y37472D01*
X39361Y37782D01*
X40684Y38666D01*
X41568Y39989D01*
X41878Y41550D01*
X41568Y43111D01*
X40684Y44434D01*
X39361Y45318D01*
X37800Y45628D01*
D02*
G37*
G36*
X114000Y45628D02*
X112439Y45318D01*
X111116Y44434D01*
X110232Y43111D01*
X109922Y41550D01*
X110232Y39989D01*
X111116Y38666D01*
X112439Y37782D01*
X114000Y37472D01*
X115561Y37782D01*
X116884Y38666D01*
X117768Y39989D01*
X118078Y41550D01*
X117768Y43111D01*
X116884Y44434D01*
X115561Y45318D01*
X114000Y45628D01*
D02*
G37*
G36*
X75900D02*
X74339Y45318D01*
X73016Y44434D01*
X72132Y43111D01*
X71822Y41550D01*
X72132Y39989D01*
X73016Y38666D01*
X74339Y37782D01*
X75900Y37472D01*
X77461Y37782D01*
X78784Y38666D01*
X79668Y39989D01*
X79978Y41550D01*
X79668Y43111D01*
X78784Y44434D01*
X77461Y45318D01*
X75900Y45628D01*
D02*
G37*
G36*
X266500Y33059D02*
X265329Y32826D01*
X264337Y32163D01*
X263674Y31170D01*
X263441Y30000D01*
X263674Y28829D01*
X264337Y27837D01*
X265329Y27174D01*
X266500Y26941D01*
X267670Y27174D01*
X268663Y27837D01*
X269326Y28829D01*
X269559Y30000D01*
X269326Y31170D01*
X268663Y32163D01*
X267670Y32826D01*
X266500Y33059D01*
D02*
G37*
G36*
X88600Y30889D02*
X87820Y30734D01*
X87158Y30292D01*
X86716Y29630D01*
X86561Y28850D01*
X86716Y28070D01*
X87158Y27408D01*
X87820Y26966D01*
X88600Y26811D01*
X89380Y26966D01*
X90042Y27408D01*
X90484Y28070D01*
X90639Y28850D01*
X90484Y29630D01*
X90042Y30292D01*
X89380Y30734D01*
X88600Y30889D01*
D02*
G37*
G36*
X164800Y30889D02*
X164020Y30734D01*
X163358Y30292D01*
X162916Y29630D01*
X162761Y28850D01*
X162916Y28070D01*
X163358Y27408D01*
X164020Y26966D01*
X164800Y26811D01*
X165580Y26966D01*
X166242Y27408D01*
X166684Y28070D01*
X166839Y28850D01*
X166684Y29630D01*
X166242Y30292D01*
X165580Y30734D01*
X164800Y30889D01*
D02*
G37*
G36*
X126700D02*
X125920Y30734D01*
X125258Y30292D01*
X124816Y29630D01*
X124661Y28850D01*
X124816Y28070D01*
X125258Y27408D01*
X125920Y26966D01*
X126700Y26811D01*
X127480Y26966D01*
X128142Y27408D01*
X128584Y28070D01*
X128739Y28850D01*
X128584Y29630D01*
X128142Y30292D01*
X127480Y30734D01*
X126700Y30889D01*
D02*
G37*
G36*
X101300D02*
X100520Y30734D01*
X99858Y30292D01*
X99416Y29630D01*
X99261Y28850D01*
X99416Y28070D01*
X99858Y27408D01*
X100520Y26966D01*
X101300Y26811D01*
X102080Y26966D01*
X102742Y27408D01*
X103184Y28070D01*
X103339Y28850D01*
X103184Y29630D01*
X102742Y30292D01*
X102080Y30734D01*
X101300Y30889D01*
D02*
G37*
G36*
X63200D02*
X62420Y30734D01*
X61758Y30292D01*
X61316Y29630D01*
X61161Y28850D01*
X61316Y28070D01*
X61758Y27408D01*
X62420Y26966D01*
X63200Y26811D01*
X63980Y26966D01*
X64642Y27408D01*
X65084Y28070D01*
X65239Y28850D01*
X65084Y29630D01*
X64642Y30292D01*
X63980Y30734D01*
X63200Y30889D01*
D02*
G37*
G36*
X50500Y30889D02*
X49720Y30734D01*
X49058Y30292D01*
X48616Y29630D01*
X48461Y28850D01*
X48616Y28070D01*
X49058Y27408D01*
X49720Y26966D01*
X50500Y26811D01*
X51280Y26966D01*
X51942Y27408D01*
X52384Y28070D01*
X52539Y28850D01*
X52384Y29630D01*
X51942Y30292D01*
X51280Y30734D01*
X50500Y30889D01*
D02*
G37*
G36*
X176250Y34078D02*
X174689Y33768D01*
X173366Y32884D01*
X172482Y31561D01*
X172172Y30000D01*
X172482Y28439D01*
X173366Y27116D01*
X174689Y26232D01*
X176250Y25922D01*
X177811Y26232D01*
X179134Y27116D01*
X180018Y28439D01*
X180328Y30000D01*
X180018Y31561D01*
X179134Y32884D01*
X177811Y33768D01*
X176250Y34078D01*
D02*
G37*
G36*
X176500Y23059D02*
X175329Y22826D01*
X174337Y22163D01*
X173674Y21170D01*
X173441Y20000D01*
X173674Y18829D01*
X174337Y17837D01*
X175329Y17174D01*
X176500Y16941D01*
X177670Y17174D01*
X178663Y17837D01*
X179326Y18829D01*
X179559Y20000D01*
X179326Y21170D01*
X178663Y22163D01*
X177670Y22826D01*
X176500Y23059D01*
D02*
G37*
G36*
X243250Y18289D02*
X242469Y18134D01*
X241808Y17692D01*
X241366Y17030D01*
X241211Y16250D01*
X241366Y15470D01*
X241808Y14808D01*
X242469Y14366D01*
X243250Y14211D01*
X244030Y14366D01*
X244692Y14808D01*
X245134Y15470D01*
X245289Y16250D01*
X245134Y17030D01*
X244692Y17692D01*
X244030Y18134D01*
X243250Y18289D01*
D02*
G37*
G36*
X222000Y12039D02*
X221220Y11884D01*
X220558Y11442D01*
X220116Y10780D01*
X219961Y10000D01*
X220116Y9220D01*
X220558Y8558D01*
X221220Y8116D01*
X222000Y7961D01*
X222780Y8116D01*
X223442Y8558D01*
X223884Y9220D01*
X224039Y10000D01*
X223884Y10780D01*
X223442Y11442D01*
X222780Y11884D01*
X222000Y12039D01*
D02*
G37*
G36*
X202000D02*
X201220Y11884D01*
X200558Y11442D01*
X200116Y10780D01*
X199961Y10000D01*
X200116Y9220D01*
X200558Y8558D01*
X201220Y8116D01*
X202000Y7961D01*
X202780Y8116D01*
X203442Y8558D01*
X203884Y9220D01*
X204039Y10000D01*
X203884Y10780D01*
X203442Y11442D01*
X202780Y11884D01*
X202000Y12039D01*
D02*
G37*
G36*
X89750Y11289D02*
X88970Y11134D01*
X88308Y10692D01*
X87866Y10030D01*
X87711Y9250D01*
X87866Y8470D01*
X88308Y7808D01*
X88970Y7366D01*
X89750Y7211D01*
X90530Y7366D01*
X91192Y7808D01*
X91634Y8470D01*
X91789Y9250D01*
X91634Y10030D01*
X91192Y10692D01*
X90530Y11134D01*
X89750Y11289D01*
D02*
G37*
G36*
X63000D02*
X62220Y11134D01*
X61558Y10692D01*
X61116Y10030D01*
X60961Y9250D01*
X61116Y8470D01*
X61558Y7808D01*
X62220Y7366D01*
X63000Y7211D01*
X63780Y7366D01*
X64442Y7808D01*
X64884Y8470D01*
X65039Y9250D01*
X64884Y10030D01*
X64442Y10692D01*
X63780Y11134D01*
X63000Y11289D01*
D02*
G37*
G36*
X126000Y11289D02*
X125220Y11134D01*
X124558Y10692D01*
X124116Y10030D01*
X123961Y9250D01*
X124116Y8470D01*
X124558Y7808D01*
X125220Y7366D01*
X126000Y7211D01*
X126780Y7366D01*
X127442Y7808D01*
X127884Y8470D01*
X128039Y9250D01*
X127884Y10030D01*
X127442Y10692D01*
X126780Y11134D01*
X126000Y11289D01*
D02*
G37*
G36*
X164000Y11289D02*
X163220Y11134D01*
X162558Y10692D01*
X162116Y10030D01*
X161961Y9250D01*
X162116Y8470D01*
X162558Y7808D01*
X163220Y7366D01*
X164000Y7211D01*
X164780Y7366D01*
X165442Y7808D01*
X165884Y8470D01*
X166039Y9250D01*
X165884Y10030D01*
X165442Y10692D01*
X164780Y11134D01*
X164000Y11289D01*
D02*
G37*
G36*
X46250Y208039D02*
X45470Y207884D01*
X44808Y207442D01*
X44366Y206780D01*
X44211Y206000D01*
X44366Y205219D01*
X44808Y204558D01*
X45470Y204116D01*
X46250Y203961D01*
X47031Y204116D01*
X47692Y204558D01*
X48134Y205219D01*
X48289Y206000D01*
X48134Y206780D01*
X47692Y207442D01*
X47031Y207884D01*
X46250Y208039D01*
D02*
G37*
%LPD*%
D33*
X69670Y216900D02*
Y264150D01*
X16200Y-6500D02*
X21900D01*
X28900D02*
X34600D01*
X41600D02*
X47300D01*
X54300D02*
X60000D01*
X67000D02*
X72700D01*
X79700D02*
X85400D01*
X92400D02*
X98100D01*
X105100D02*
X110800D01*
X117800D02*
X123500D01*
X130500D02*
X136200D01*
X143200D02*
X148900D01*
X155900D02*
X161600D01*
X168600D02*
X174300D01*
X181300D02*
X187000D01*
X194000D02*
X199700D01*
X206700D02*
X212400D01*
X219400D02*
X225100D01*
X231846D02*
X237546D01*
X244546D02*
X250246D01*
X257246D02*
X262946D01*
X285900Y257246D02*
Y262946D01*
X285900Y250246D02*
X285900Y244546D01*
Y231846D02*
Y237546D01*
Y219400D02*
Y225100D01*
X285900Y212400D02*
X285900Y206700D01*
Y194000D02*
Y199700D01*
Y181300D02*
Y187000D01*
X285900Y168600D02*
X285900Y174300D01*
Y155900D02*
Y161600D01*
X285900Y148900D02*
X285900Y143200D01*
Y130500D02*
Y136200D01*
Y117800D02*
Y123500D01*
X285900Y105100D02*
X285900Y110800D01*
Y92400D02*
Y98100D01*
X285900Y85400D02*
X285900Y79700D01*
Y67000D02*
Y72700D01*
Y54300D02*
Y60000D01*
X285900Y41600D02*
Y47300D01*
X285900Y28900D02*
Y34600D01*
X285900Y21900D02*
X285900Y16200D01*
X16454Y285900D02*
X22154D01*
X29154Y285900D02*
X34854Y285900D01*
X41854D02*
X47554D01*
X54300D02*
X60000D01*
X67000Y285900D02*
X72700Y285900D01*
X79700D02*
X85400D01*
X92400D02*
X98100D01*
X105100D02*
X110800Y285900D01*
X117800Y285900D02*
X123500D01*
X130500Y285900D02*
X136200Y285900D01*
X143200D02*
X148900D01*
X155900D02*
X161600D01*
X168600D02*
X174300Y285900D01*
X181300Y285900D02*
X187000D01*
X194000Y285900D02*
X199700Y285900D01*
X206700D02*
X212400D01*
X219400D02*
X225100D01*
X232100Y285900D02*
X237800D01*
X244800Y285900D02*
X250500D01*
X257500Y285900D02*
X263200Y285900D01*
X-6500Y16454D02*
Y22154D01*
Y34854D02*
X-6500Y29154D01*
X-6500Y41854D02*
Y47554D01*
Y54300D02*
Y60000D01*
Y72700D02*
X-6500Y67000D01*
X-6500Y79700D02*
Y85400D01*
Y92400D02*
Y98100D01*
Y105100D02*
X-6500Y110800D01*
X-6500Y117800D02*
Y123500D01*
Y136200D02*
X-6500Y130500D01*
X-6500Y143200D02*
Y148900D01*
Y155900D02*
Y161600D01*
Y168600D02*
X-6500Y174300D01*
X-6500Y181300D02*
Y187000D01*
Y199700D02*
X-6500Y194000D01*
X-6500Y206700D02*
Y212400D01*
Y219400D02*
Y225100D01*
X-6500Y232100D02*
Y237800D01*
X-6500Y244800D02*
Y250500D01*
Y263200D02*
X-6500Y257500D01*
X-6500Y269946D02*
Y285900D01*
X9454D01*
X285900Y269946D02*
Y285900D01*
X269946D02*
X285900D01*
X269946Y-6500D02*
X285900D01*
Y9454D01*
X-6500D02*
X9454Y-6500D01*
X-11176Y137160D02*
Y142240D01*
X-10470Y142946D02*
X-6500D01*
X-10470Y136454D02*
X-6500D01*
X-11176Y142240D02*
X-10470Y142946D01*
X-11176Y137160D02*
X-10470Y136454D01*
X-11176Y124460D02*
Y129540D01*
X-10470Y130246D02*
X-6500D01*
X-10470Y123754D02*
X-6500D01*
X-11176Y129540D02*
X-10470Y130246D01*
X-11176Y124460D02*
X-10470Y123754D01*
X-11176Y111760D02*
Y116840D01*
X-10470Y117546D02*
X-6500D01*
X-10470Y111054D02*
X-6500D01*
X-11176Y116840D02*
X-10470Y117546D01*
X-11176Y111760D02*
X-10470Y111054D01*
X-11176Y99060D02*
Y104140D01*
X-10470Y104846D02*
X-6500D01*
X-10470Y98354D02*
X-6500D01*
X-11176Y104140D02*
X-10470Y104846D01*
X-11176Y99060D02*
X-10470Y98354D01*
X-11176Y86360D02*
Y91440D01*
X-10470Y92146D02*
X-6500D01*
X-10470Y85654D02*
X-6500D01*
X-11176Y91440D02*
X-10470Y92146D01*
X-11176Y86360D02*
X-10470Y85654D01*
X-11176Y73660D02*
Y78740D01*
X-10470Y79446D02*
X-6500D01*
X-10470Y72954D02*
X-6500D01*
X-11176Y78740D02*
X-10470Y79446D01*
X-11176Y73660D02*
X-10470Y72954D01*
X-11176Y60960D02*
Y66040D01*
X-10470Y66746D02*
X-6500D01*
X-10470Y60254D02*
X-6500D01*
X-11176Y66040D02*
X-10470Y66746D01*
X-11176Y60960D02*
X-10470Y60254D01*
X-11176Y48260D02*
Y53340D01*
X-10470Y54046D02*
X-6500D01*
X-10470Y47554D02*
X-6500D01*
X-11176Y53340D02*
X-10470Y54046D01*
X-11176Y48260D02*
X-10470Y47554D01*
X-11176Y35560D02*
Y40640D01*
X-10470Y41346D02*
X-6500D01*
X-10470Y34854D02*
X-6500D01*
X-11176Y40640D02*
X-10470Y41346D01*
X-11176Y35560D02*
X-10470Y34854D01*
X-11176Y22860D02*
Y27940D01*
X-10470Y28646D02*
X-6500D01*
X-10470Y22154D02*
X-6500D01*
X-11176Y27940D02*
X-10470Y28646D01*
X-11176Y22860D02*
X-10470Y22154D01*
X-11176Y10160D02*
Y15240D01*
X-10470Y15946D02*
X-6500D01*
X-10470Y9454D02*
X-6500D01*
X-11176Y15240D02*
X-10470Y15946D01*
X-11176Y10160D02*
X-10470Y9454D01*
X10160Y-11176D02*
X15240D01*
X9454Y-10470D02*
Y-6500D01*
X15946Y-10470D02*
Y-6500D01*
X9454Y-10470D02*
X10160Y-11176D01*
X15240D02*
X15946Y-10470D01*
X22860Y-11176D02*
X27940D01*
X22154Y-10470D02*
Y-6500D01*
X28646Y-10470D02*
Y-6500D01*
X22154Y-10470D02*
X22860Y-11176D01*
X27940D02*
X28646Y-10470D01*
X35560Y-11176D02*
X40640D01*
X34854Y-10470D02*
Y-6500D01*
X41346Y-10470D02*
Y-6500D01*
X34854Y-10470D02*
X35560Y-11176D01*
X40640D02*
X41346Y-10470D01*
X48260Y-11176D02*
X53340D01*
X47554Y-10470D02*
Y-6500D01*
X54046Y-10470D02*
Y-6500D01*
X47554Y-10470D02*
X48260Y-11176D01*
X53340D02*
X54046Y-10470D01*
X60960Y-11176D02*
X66040D01*
X60254Y-10470D02*
Y-6500D01*
X66746Y-10470D02*
Y-6500D01*
X60254Y-10470D02*
X60960Y-11176D01*
X66040D02*
X66746Y-10470D01*
X73660Y-11176D02*
X78740D01*
X72954Y-10470D02*
Y-6500D01*
X79446Y-10470D02*
Y-6500D01*
X72954Y-10470D02*
X73660Y-11176D01*
X78740D02*
X79446Y-10470D01*
X86360Y-11176D02*
X91440D01*
X85654Y-10470D02*
Y-6500D01*
X92146Y-10470D02*
Y-6500D01*
X85654Y-10470D02*
X86360Y-11176D01*
X91440D02*
X92146Y-10470D01*
X99060Y-11176D02*
X104140D01*
X98354Y-10470D02*
Y-6500D01*
X104846Y-10470D02*
Y-6500D01*
X98354Y-10470D02*
X99060Y-11176D01*
X104140D02*
X104846Y-10470D01*
X111760Y-11176D02*
X116840D01*
X111054Y-10470D02*
Y-6500D01*
X117546Y-10470D02*
Y-6500D01*
X111054Y-10470D02*
X111760Y-11176D01*
X116840D02*
X117546Y-10470D01*
X124460Y-11176D02*
X129540D01*
X123754Y-10470D02*
Y-6500D01*
X130246Y-10470D02*
Y-6500D01*
X123754Y-10470D02*
X124460Y-11176D01*
X129540D02*
X130246Y-10470D01*
X137160Y-11176D02*
X142240D01*
X136454Y-10470D02*
Y-6500D01*
X142946Y-10470D02*
Y-6500D01*
X136454Y-10470D02*
X137160Y-11176D01*
X142240D02*
X142946Y-10470D01*
X149860Y-11176D02*
X154940D01*
X149154Y-10470D02*
Y-6500D01*
X155646Y-10470D02*
Y-6500D01*
X149154Y-10470D02*
X149860Y-11176D01*
X154940D02*
X155646Y-10470D01*
X162560Y-11176D02*
X167640D01*
X161854Y-10470D02*
Y-6500D01*
X168346Y-10470D02*
Y-6500D01*
X161854Y-10470D02*
X162560Y-11176D01*
X167640D02*
X168346Y-10470D01*
X175260Y-11176D02*
X180340D01*
X174554Y-10470D02*
Y-6500D01*
X181046Y-10470D02*
Y-6500D01*
X174554Y-10470D02*
X175260Y-11176D01*
X180340D02*
X181046Y-10470D01*
X187960Y-11176D02*
X193040D01*
X187254Y-10470D02*
Y-6500D01*
X193746Y-10470D02*
Y-6500D01*
X187254Y-10470D02*
X187960Y-11176D01*
X193040D02*
X193746Y-10470D01*
X200660Y-11176D02*
X205740D01*
X199954Y-10470D02*
Y-6500D01*
X206446Y-10470D02*
Y-6500D01*
X199954Y-10470D02*
X200660Y-11176D01*
X205740D02*
X206446Y-10470D01*
X213360Y-11176D02*
X218440D01*
X212654Y-10470D02*
Y-6500D01*
X219146Y-10470D02*
Y-6500D01*
X212654Y-10470D02*
X213360Y-11176D01*
X218440D02*
X219146Y-10470D01*
X226060Y-11176D02*
X231140D01*
X225354Y-10470D02*
Y-6500D01*
X231846Y-10470D02*
Y-6500D01*
X225354Y-10470D02*
X226060Y-11176D01*
X231140D02*
X231846Y-10470D01*
X238760Y-11176D02*
X243840D01*
X238054Y-10470D02*
Y-6500D01*
X244546Y-10470D02*
Y-6500D01*
X238054Y-10470D02*
X238760Y-11176D01*
X243840D02*
X244546Y-10470D01*
X251460Y-11176D02*
X256540D01*
X250754Y-10470D02*
Y-6500D01*
X257246Y-10470D02*
Y-6500D01*
X250754Y-10470D02*
X251460Y-11176D01*
X256540D02*
X257246Y-10470D01*
X264160Y-11176D02*
X269240D01*
X263454Y-10470D02*
Y-6500D01*
X269946Y-10470D02*
Y-6500D01*
X263454Y-10470D02*
X264160Y-11176D01*
X269240D02*
X269946Y-10470D01*
X290576Y10160D02*
Y15240D01*
X285900Y9454D02*
X289870D01*
X285900Y15946D02*
X289870D01*
Y9454D02*
X290576Y10160D01*
X289870Y15946D02*
X290576Y15240D01*
Y22860D02*
Y27940D01*
X285900Y22154D02*
X289870D01*
X285900Y28646D02*
X289870D01*
Y22154D02*
X290576Y22860D01*
X289870Y28646D02*
X290576Y27940D01*
Y35560D02*
Y40640D01*
X285900Y34854D02*
X289870D01*
X285900Y41346D02*
X289870D01*
Y34854D02*
X290576Y35560D01*
X289870Y41346D02*
X290576Y40640D01*
Y48260D02*
Y53340D01*
X285900Y47554D02*
X289870D01*
X285900Y54046D02*
X289870D01*
Y47554D02*
X290576Y48260D01*
X289870Y54046D02*
X290576Y53340D01*
Y60960D02*
Y66040D01*
X285900Y60254D02*
X289870D01*
X285900Y66746D02*
X289870D01*
Y60254D02*
X290576Y60960D01*
X289870Y66746D02*
X290576Y66040D01*
Y73660D02*
Y78740D01*
X285900Y72954D02*
X289870D01*
X285900Y79446D02*
X289870D01*
Y72954D02*
X290576Y73660D01*
X289870Y79446D02*
X290576Y78740D01*
Y86360D02*
Y91440D01*
X285900Y85654D02*
X289870D01*
X285900Y92146D02*
X289870D01*
Y85654D02*
X290576Y86360D01*
X289870Y92146D02*
X290576Y91440D01*
Y99060D02*
Y104140D01*
X285900Y98354D02*
X289870D01*
X285900Y104846D02*
X289870D01*
Y98354D02*
X290576Y99060D01*
X289870Y104846D02*
X290576Y104140D01*
Y111760D02*
Y116840D01*
X285900Y111054D02*
X289870D01*
X285900Y117546D02*
X289870D01*
Y111054D02*
X290576Y111760D01*
X289870Y117546D02*
X290576Y116840D01*
Y124460D02*
Y129540D01*
X285900Y123754D02*
X289870D01*
X285900Y130246D02*
X289870D01*
Y123754D02*
X290576Y124460D01*
X289870Y130246D02*
X290576Y129540D01*
Y137160D02*
Y142240D01*
X285900Y136454D02*
X289870D01*
X285900Y142946D02*
X289870D01*
Y136454D02*
X290576Y137160D01*
X289870Y142946D02*
X290576Y142240D01*
Y149860D02*
Y154940D01*
X285900Y149154D02*
X289870D01*
X285900Y155646D02*
X289870D01*
Y149154D02*
X290576Y149860D01*
X289870Y155646D02*
X290576Y154940D01*
Y162560D02*
Y167640D01*
X285900Y161854D02*
X289870D01*
X285900Y168346D02*
X289870D01*
Y161854D02*
X290576Y162560D01*
X289870Y168346D02*
X290576Y167640D01*
Y175260D02*
Y180340D01*
X285900Y174554D02*
X289870D01*
X285900Y181046D02*
X289870D01*
Y174554D02*
X290576Y175260D01*
X289870Y181046D02*
X290576Y180340D01*
Y187960D02*
Y193040D01*
X285900Y187254D02*
X289870D01*
X285900Y193746D02*
X289870D01*
Y187254D02*
X290576Y187960D01*
X289870Y193746D02*
X290576Y193040D01*
Y200660D02*
Y205740D01*
X285900Y199954D02*
X289870D01*
X285900Y206446D02*
X289870D01*
Y199954D02*
X290576Y200660D01*
X289870Y206446D02*
X290576Y205740D01*
Y213360D02*
Y218440D01*
X285900Y212654D02*
X289870D01*
X285900Y219146D02*
X289870D01*
Y212654D02*
X290576Y213360D01*
X289870Y219146D02*
X290576Y218440D01*
Y226060D02*
Y231140D01*
X285900Y225354D02*
X289870D01*
X285900Y231846D02*
X289870D01*
Y225354D02*
X290576Y226060D01*
X289870Y231846D02*
X290576Y231140D01*
Y238760D02*
Y243840D01*
X285900Y238054D02*
X289870D01*
X285900Y244546D02*
X289870D01*
Y238054D02*
X290576Y238760D01*
X289870Y244546D02*
X290576Y243840D01*
Y251460D02*
Y256540D01*
X285900Y250754D02*
X289870D01*
X285900Y257246D02*
X289870D01*
Y250754D02*
X290576Y251460D01*
X289870Y257246D02*
X290576Y256540D01*
Y264160D02*
Y269240D01*
X285900Y263454D02*
X289870D01*
X285900Y269946D02*
X289870D01*
Y263454D02*
X290576Y264160D01*
X289870Y269946D02*
X290576Y269240D01*
X264160Y290576D02*
X269240D01*
X269946Y285900D02*
Y289870D01*
X263454Y285900D02*
Y289870D01*
X269240Y290576D02*
X269946Y289870D01*
X263454D02*
X264160Y290576D01*
X251460D02*
X256540D01*
X257246Y285900D02*
Y289870D01*
X250754Y285900D02*
Y289870D01*
X256540Y290576D02*
X257246Y289870D01*
X250754D02*
X251460Y290576D01*
X238760D02*
X243840D01*
X244546Y285900D02*
Y289870D01*
X238054Y285900D02*
Y289870D01*
X243840Y290576D02*
X244546Y289870D01*
X238054D02*
X238760Y290576D01*
X226060D02*
X231140D01*
X231846Y285900D02*
Y289870D01*
X225354Y285900D02*
Y289870D01*
X231140Y290576D02*
X231846Y289870D01*
X225354D02*
X226060Y290576D01*
X213360D02*
X218440D01*
X219146Y285900D02*
Y289870D01*
X212654Y285900D02*
Y289870D01*
X218440Y290576D02*
X219146Y289870D01*
X212654D02*
X213360Y290576D01*
X200660D02*
X205740D01*
X206446Y285900D02*
Y289870D01*
X199954Y285900D02*
Y289870D01*
X205740Y290576D02*
X206446Y289870D01*
X199954D02*
X200660Y290576D01*
X187960D02*
X193040D01*
X193746Y285900D02*
Y289870D01*
X187254Y285900D02*
Y289870D01*
X193040Y290576D02*
X193746Y289870D01*
X187254D02*
X187960Y290576D01*
X175260D02*
X180340D01*
X181046Y285900D02*
Y289870D01*
X174554Y285900D02*
Y289870D01*
X180340Y290576D02*
X181046Y289870D01*
X174554D02*
X175260Y290576D01*
X162560D02*
X167640D01*
X168346Y285900D02*
Y289870D01*
X161854Y285900D02*
Y289870D01*
X167640Y290576D02*
X168346Y289870D01*
X161854D02*
X162560Y290576D01*
X149860D02*
X154940D01*
X155646Y285900D02*
Y289870D01*
X149154Y285900D02*
Y289870D01*
X154940Y290576D02*
X155646Y289870D01*
X149154D02*
X149860Y290576D01*
X137160D02*
X142240D01*
X142946Y285900D02*
Y289870D01*
X136454Y285900D02*
Y289870D01*
X142240Y290576D02*
X142946Y289870D01*
X136454D02*
X137160Y290576D01*
X124460D02*
X129540D01*
X130246Y285900D02*
Y289870D01*
X123754Y285900D02*
Y289870D01*
X129540Y290576D02*
X130246Y289870D01*
X123754D02*
X124460Y290576D01*
X111760D02*
X116840D01*
X117546Y285900D02*
Y289870D01*
X111054Y285900D02*
Y289870D01*
X116840Y290576D02*
X117546Y289870D01*
X111054D02*
X111760Y290576D01*
X99060D02*
X104140D01*
X104846Y285900D02*
Y289870D01*
X98354Y285900D02*
Y289870D01*
X104140Y290576D02*
X104846Y289870D01*
X98354D02*
X99060Y290576D01*
X86360D02*
X91440D01*
X92146Y285900D02*
Y289870D01*
X85654Y285900D02*
Y289870D01*
X91440Y290576D02*
X92146Y289870D01*
X85654D02*
X86360Y290576D01*
X73660D02*
X78740D01*
X79446Y285900D02*
Y289870D01*
X72954Y285900D02*
Y289870D01*
X78740Y290576D02*
X79446Y289870D01*
X72954D02*
X73660Y290576D01*
X60960D02*
X66040D01*
X66746Y285900D02*
Y289870D01*
X60254Y285900D02*
Y289870D01*
X66040Y290576D02*
X66746Y289870D01*
X60254D02*
X60960Y290576D01*
X48260D02*
X53340D01*
X54046Y285900D02*
Y289870D01*
X47554Y285900D02*
Y289870D01*
X53340Y290576D02*
X54046Y289870D01*
X47554D02*
X48260Y290576D01*
X35560D02*
X40640D01*
X41346Y285900D02*
Y289870D01*
X34854Y285900D02*
Y289870D01*
X40640Y290576D02*
X41346Y289870D01*
X34854D02*
X35560Y290576D01*
X22860D02*
X27940D01*
X28646Y285900D02*
Y289870D01*
X22154Y285900D02*
Y289870D01*
X27940Y290576D02*
X28646Y289870D01*
X22154D02*
X22860Y290576D01*
X10160D02*
X15240D01*
X15946Y285900D02*
Y289870D01*
X9454Y285900D02*
Y289870D01*
X15240Y290576D02*
X15946Y289870D01*
X9454D02*
X10160Y290576D01*
X-11176Y264160D02*
Y269240D01*
X-10470Y269946D02*
X-6500D01*
X-10470Y263454D02*
X-6500D01*
X-11176Y269240D02*
X-10470Y269946D01*
X-11176Y264160D02*
X-10470Y263454D01*
X-11176Y251460D02*
Y256540D01*
X-10470Y257246D02*
X-6500D01*
X-10470Y250754D02*
X-6500D01*
X-11176Y256540D02*
X-10470Y257246D01*
X-11176Y251460D02*
X-10470Y250754D01*
X-11176Y238760D02*
Y243840D01*
X-10470Y244546D02*
X-6500D01*
X-10470Y238054D02*
X-6500D01*
X-11176Y243840D02*
X-10470Y244546D01*
X-11176Y238760D02*
X-10470Y238054D01*
X-11176Y226060D02*
Y231140D01*
X-10470Y231846D02*
X-6500D01*
X-10470Y225354D02*
X-6500D01*
X-11176Y231140D02*
X-10470Y231846D01*
X-11176Y226060D02*
X-10470Y225354D01*
X-11176Y213360D02*
Y218440D01*
X-10470Y219146D02*
X-6500D01*
X-10470Y212654D02*
X-6500D01*
X-11176Y218440D02*
X-10470Y219146D01*
X-11176Y213360D02*
X-10470Y212654D01*
X-11176Y200660D02*
Y205740D01*
X-10470Y206446D02*
X-6500D01*
X-10470Y199954D02*
X-6500D01*
X-11176Y205740D02*
X-10470Y206446D01*
X-11176Y200660D02*
X-10470Y199954D01*
X-11176Y187960D02*
Y193040D01*
X-10470Y193746D02*
X-6500D01*
X-10470Y187254D02*
X-6500D01*
X-11176Y193040D02*
X-10470Y193746D01*
X-11176Y187960D02*
X-10470Y187254D01*
X-11176Y175260D02*
Y180340D01*
X-10470Y181046D02*
X-6500D01*
X-10470Y174554D02*
X-6500D01*
X-11176Y180340D02*
X-10470Y181046D01*
X-11176Y175260D02*
X-10470Y174554D01*
X-11176Y162560D02*
Y167640D01*
X-10470Y168346D02*
X-6500D01*
X-10470Y161854D02*
X-6500D01*
X-11176Y167640D02*
X-10470Y168346D01*
X-11176Y162560D02*
X-10470Y161854D01*
X-11176Y149860D02*
Y154940D01*
X-10470Y155646D02*
X-6500D01*
X-10470Y149154D02*
X-6500D01*
X-11176Y154940D02*
X-10470Y155646D01*
X-11176Y149860D02*
X-10470Y149154D01*
D35*
X111750Y136500D02*
Y159750D01*
X115000Y135000D02*
Y158500D01*
X59750Y79750D02*
X115000Y135000D01*
X59750Y47750D02*
Y79750D01*
X25400Y13400D02*
X59750Y47750D01*
X25400Y0D02*
Y13400D01*
X56250Y49250D02*
Y81000D01*
X12700Y5700D02*
X56250Y49250D01*
X12700Y0D02*
Y5700D01*
X56250Y81000D02*
X111750Y136500D01*
Y159750D02*
X134000Y182000D01*
X115000Y158500D02*
X135750Y179250D01*
X192500Y187361D02*
Y187750D01*
X135750Y179250D02*
X184389D01*
X192500Y187361D01*
X134000Y182000D02*
X183250D01*
X189000Y187750D01*
D36*
X245500Y92000D02*
X250344Y87156D01*
X187500Y110750D02*
X199000Y99250D01*
X187795Y118256D02*
X189300Y116750D01*
X185448Y118256D02*
X187795D01*
X183759Y116566D02*
X185448Y118256D01*
X190250Y118750D02*
X191000D01*
X188000Y121000D02*
X190250Y118750D01*
X188000Y121000D02*
Y121750D01*
X187500Y122250D02*
X188000Y121750D01*
X186614Y122250D02*
X187500D01*
X181759Y117395D02*
X186614Y122250D01*
X179759Y118223D02*
X186785Y125250D01*
X183759Y116564D02*
Y116566D01*
X181759Y117392D02*
Y117395D01*
X179759Y118220D02*
Y118223D01*
X186785Y125250D02*
X192035D01*
X193759Y110505D02*
X196755D01*
X191759Y116006D02*
X194515Y113250D01*
X191015Y116750D02*
X191759Y116006D01*
X192030D01*
X195750Y118500D02*
X207000D01*
X194259Y119991D02*
X195750Y118500D01*
X194259Y119991D02*
Y123026D01*
X192035Y125250D02*
X194259Y123026D01*
X181000Y127250D02*
X210000D01*
X190965Y129250D02*
X218000D01*
X194500Y132000D02*
X195250Y131250D01*
X196250D01*
X197000Y132000D01*
X201000Y123750D02*
X207000D01*
X207750Y131250D02*
X208500Y132000D01*
X206500Y131250D02*
X207750D01*
X205750Y132000D02*
X206500Y131250D01*
X205750Y132000D02*
Y133500D01*
X191000Y118750D02*
X192259Y120009D01*
X191000Y122750D02*
X192259Y121490D01*
X190964Y129250D02*
X190965Y129250D01*
X179250Y129250D02*
X190964D01*
X194500Y132000D02*
Y136250D01*
X194786Y113250D02*
X208500D01*
X194785Y113250D02*
X194786Y113250D01*
X194515Y113250D02*
X194785D01*
X189300Y116750D02*
X191015D01*
X196755Y110505D02*
X197000Y110750D01*
X161750Y119750D02*
X164500Y122500D01*
X176250D01*
X175729Y117250D02*
X176223Y116756D01*
X145250Y117250D02*
X175729D01*
X174900Y115250D02*
X175395Y114756D01*
X143000Y115250D02*
X174900D01*
X174072Y113250D02*
X174566Y112756D01*
X150750Y113250D02*
X174072D01*
X176223Y116756D02*
X178294D01*
X175395Y114756D02*
X179123D01*
X174566Y112756D02*
X179951D01*
X183759Y116564D01*
X179123Y114756D02*
X181759Y117392D01*
X178294Y116756D02*
X179759Y118220D01*
X161750Y159750D02*
X164500Y157000D01*
X149500Y154250D02*
X155750D01*
X148500Y153250D02*
X149500Y154250D01*
X148500Y147000D02*
Y153250D01*
Y147000D02*
X155500Y140000D01*
X156750Y150250D02*
Y153250D01*
X155750Y154250D02*
X156750Y153250D01*
X156008Y149508D02*
X156750Y150250D01*
X156008Y146722D02*
Y149508D01*
X163493Y145257D02*
X168000Y140750D01*
X157472Y145257D02*
X163493D01*
X11500Y173500D02*
X14500Y170500D01*
X11500Y173500D02*
Y268250D01*
X81750Y272250D02*
X88900Y279400D01*
X81750Y268750D02*
Y272250D01*
X77500Y264500D02*
X81750Y268750D01*
X77500Y206000D02*
Y264500D01*
X28750Y188922D02*
X31672Y186000D01*
X31500Y189000D02*
X32500Y188000D01*
X31500Y193500D02*
X34750Y196750D01*
X31500Y189000D02*
Y193500D01*
X34750Y196750D02*
Y276050D01*
X38100Y279400D01*
X25400D02*
X28750Y276050D01*
Y188922D02*
Y276050D01*
X66500Y269700D02*
X76200Y279400D01*
X66500Y190750D02*
Y269700D01*
X62250Y191250D02*
X64500Y193500D01*
Y278400D01*
X63500Y279400D02*
X64500Y278400D01*
X58250Y191250D02*
X62500Y195500D01*
Y267700D01*
X50800Y279400D02*
X62500Y267700D01*
X184750Y189500D02*
Y193750D01*
X183000Y195500D02*
X184750Y193750D01*
X183000Y195500D02*
Y251000D01*
X183750Y251750D01*
X125000Y115500D02*
Y163000D01*
X127000Y116343D02*
Y157000D01*
X176250Y122500D02*
X181000Y127250D01*
X177750Y127750D02*
X179250Y129250D01*
X220750Y137000D02*
X230500D01*
X221250Y142500D02*
X233500D01*
X204000Y159750D02*
X221250Y142500D01*
X221000Y139750D02*
X232000D01*
X125000Y115500D02*
X137250Y103250D01*
X127000Y116343D02*
X138093Y105250D01*
X127000Y157000D02*
X129750Y159750D01*
X138093Y105250D02*
X183000D01*
X193250Y95000D01*
X193250Y70500D01*
Y58500D02*
Y70500D01*
Y58500D02*
X195500Y56250D01*
X196750D01*
X199010Y58510D01*
X167000Y91250D02*
X168250Y92500D01*
X167000Y89250D02*
Y91250D01*
Y89250D02*
X168250Y88000D01*
X175750D01*
X190500Y73250D01*
X168250Y92500D02*
X181750D01*
X183750Y94500D01*
X137250Y103250D02*
X181500D01*
X183750Y101000D01*
Y94500D02*
Y101000D01*
X257250Y93250D02*
X257250Y93250D01*
X239000Y138750D02*
X240000Y139750D01*
X233500Y142500D02*
X237250Y138750D01*
X239000D01*
X230500Y137000D02*
X231250Y136250D01*
X228000Y133500D02*
X228750Y134250D01*
X231250D01*
X232000Y133500D01*
Y131750D02*
Y133500D01*
X199250Y137750D02*
X200000Y137000D01*
X207750D01*
X208500Y136250D01*
Y132000D02*
Y136250D01*
X204750Y134500D02*
X205750Y133500D01*
X201500Y134500D02*
X204750D01*
X201000Y134000D02*
X201500Y134500D01*
X201000Y131750D02*
Y134000D01*
X197000Y132000D02*
Y137000D01*
X197750Y137750D01*
X199250D01*
X171285Y137750D02*
X193000D01*
X194500Y136250D01*
X203000Y157750D02*
X221000Y139750D01*
X207000Y118500D02*
X208250Y119750D01*
Y122500D01*
X202010Y110490D02*
Y110505D01*
X157000Y88750D02*
X172250Y73500D01*
X155750Y99750D02*
X157000Y98500D01*
Y88750D02*
Y98500D01*
X130250Y101750D02*
Y106500D01*
Y101750D02*
X132250Y99750D01*
X155750D01*
X172250Y73500D02*
X181000D01*
X187750Y66750D01*
Y56250D02*
Y66750D01*
X171500Y52250D02*
X180250D01*
X122250Y101500D02*
X171500Y52250D01*
X122250Y101500D02*
Y106500D01*
X187750Y56250D02*
X195250Y48750D01*
X190500Y70500D02*
Y73250D01*
X199010Y58510D02*
Y74754D01*
X195250Y48750D02*
X196750D01*
X197500Y49500D01*
Y53000D01*
X207000Y36750D02*
X208250Y35500D01*
X211000D01*
X212250Y36750D01*
Y39750D01*
X214000Y41500D01*
X219500D01*
X197500Y53000D02*
X199250Y54750D01*
X203750D01*
X207000Y51500D01*
Y36750D02*
Y51500D01*
X180250Y52250D02*
X196250Y36250D01*
Y18500D02*
Y36250D01*
Y18500D02*
X198750Y16000D01*
X201750D01*
X204250Y18500D01*
X211500Y27000D02*
X219500D01*
X211500Y27000D02*
Y27000D01*
X204250Y18500D02*
Y23250D01*
X208000Y27000D01*
X211500D01*
X188500Y160500D02*
X189250Y159750D01*
X188500Y160500D02*
Y169000D01*
X187750Y169750D02*
X188500Y169000D01*
X191750D02*
X192500Y169750D01*
X191750Y160500D02*
Y169000D01*
X191000Y159750D02*
X191750Y160500D01*
X189250Y159750D02*
X191000D01*
X195000Y160500D02*
X195750Y159750D01*
X195000Y160500D02*
Y169000D01*
X194250Y169750D02*
X195000Y169000D01*
X192500Y169750D02*
X194250D01*
X195750Y159750D02*
X204000D01*
X179750Y169750D02*
X187750D01*
X185250Y159750D02*
Y160500D01*
X184000Y156000D02*
X185500D01*
X187250Y157750D01*
X203000D01*
X177000Y158000D02*
Y159000D01*
Y158000D02*
X178250Y156750D01*
X179000D01*
X183500Y158000D02*
X185250Y159750D01*
X183500Y156500D02*
X184000Y156000D01*
X183500Y156500D02*
Y158000D01*
X184500Y161250D02*
X185250Y160500D01*
X179000Y156750D02*
X183500Y161250D01*
X184500D01*
X181000Y167250D02*
X182000D01*
X177000Y159000D02*
X183250Y165250D01*
Y166000D01*
X182000Y167250D02*
X183250Y166000D01*
X202000Y155750D02*
X220750Y137000D01*
X201000Y155750D02*
X202000D01*
X200250Y155000D02*
X201000Y155750D01*
X200250Y152000D02*
Y155000D01*
X199500Y151250D02*
X200250Y152000D01*
X198500Y151250D02*
X199500D01*
X197750Y152000D02*
X198500Y151250D01*
X197750Y152000D02*
Y155000D01*
X197000Y155750D02*
X197750Y155000D01*
X196000Y155750D02*
X197000D01*
X195250Y155000D02*
X196000Y155750D01*
X195250Y152000D02*
Y155000D01*
X194500Y151250D02*
X195250Y152000D01*
X193500Y151250D02*
X194500D01*
X192750Y152000D02*
X193500Y151250D01*
X192750Y152000D02*
Y155000D01*
X192000Y155750D02*
X192750Y155000D01*
X191000Y155750D02*
X192000D01*
X190250Y155000D02*
X191000Y155750D01*
X190250Y152000D02*
Y155000D01*
X189500Y151250D02*
X190250Y152000D01*
X186250Y151250D02*
X189500D01*
X185750Y151750D02*
X186250Y151250D01*
X231250Y136250D02*
X252250D01*
X240000Y131750D02*
X252250D01*
X253250Y132750D01*
Y135250D01*
X252250Y136250D02*
X253250Y135250D01*
X224250Y128157D02*
X225157Y127250D01*
X224250Y128157D02*
Y134000D01*
X223250Y135000D02*
X224250Y134000D01*
X222000Y135000D02*
X223250D01*
X221250Y134250D02*
X222000Y135000D01*
X221250Y132250D02*
Y134250D01*
X220250Y131250D02*
X221250Y132250D01*
X219500Y131250D02*
X220250D01*
X218500Y132250D02*
X219500Y131250D01*
X218500Y132250D02*
Y136422D01*
X217672Y137250D02*
X218500Y136422D01*
X216500Y137250D02*
X217672D01*
X215750Y136500D02*
X216500Y137250D01*
X215750Y132250D02*
Y136500D01*
X214750Y131250D02*
X215750Y132250D01*
X214000Y131250D02*
X214750D01*
X213000Y132250D02*
X214000Y131250D01*
X213000Y132250D02*
Y141500D01*
X212250Y142250D02*
X213000Y141500D01*
X211250Y142250D02*
X212250D01*
X210750Y141750D02*
X211250Y142250D01*
X210750Y140000D02*
Y141750D01*
X210000Y139250D02*
X210750Y140000D01*
X209250Y139250D02*
X210000D01*
X208500Y140000D02*
X209250Y139250D01*
X208500Y140000D02*
Y146250D01*
X207750Y147000D02*
X208500Y146250D01*
X206750Y147000D02*
X207750D01*
X206250Y146500D02*
X206750Y147000D01*
X195750Y148750D02*
X203250Y141250D01*
X205250D01*
X206250Y142250D01*
Y146500D01*
X200000Y140750D02*
X201000Y139750D01*
X192250Y140750D02*
X200000D01*
X191500Y141500D02*
X192250Y140750D01*
X191500Y141500D02*
Y144500D01*
X190750Y145250D02*
X191500Y144500D01*
X189750Y145250D02*
X190750D01*
X189000Y144500D02*
X189750Y145250D01*
X189000Y141500D02*
Y144500D01*
X188250Y140750D02*
X189000Y141500D01*
X183500Y140750D02*
X188250D01*
X182750Y141500D02*
X183500Y140750D01*
X182750Y141500D02*
Y144500D01*
X182000Y145250D02*
X182750Y144500D01*
X181000Y145250D02*
X182000D01*
X180250Y144500D02*
X181000Y145250D01*
X180250Y141500D02*
Y144500D01*
X179500Y140750D02*
X180250Y141500D01*
X175750Y140750D02*
X179500D01*
X175000Y141500D02*
X175750Y140750D01*
X175000Y141500D02*
Y144500D01*
X174250Y145250D02*
X175000Y144500D01*
X173250Y145250D02*
X174250D01*
X172500Y144500D02*
X173250Y145250D01*
X172500Y141500D02*
Y144500D01*
X145000Y120000D02*
X149500D01*
X192259Y120009D02*
Y121490D01*
X139750Y109750D02*
Y112250D01*
X139000Y109000D02*
X139750Y109750D01*
X137750Y109000D02*
X139000D01*
X137000Y109750D02*
X137750Y109000D01*
X142500Y109500D02*
Y112500D01*
Y109500D02*
X143250Y108750D01*
X144250D01*
X145000Y109500D01*
Y112500D01*
X145750Y113250D01*
X228250Y116250D02*
X232000Y120000D01*
X219000Y120750D02*
X219750Y120000D01*
X218000Y120750D02*
X219000D01*
X217250Y121500D02*
X218000Y120750D01*
X217250Y121500D02*
Y124500D01*
X216500Y125250D02*
X217250Y124500D01*
X215500Y125250D02*
X216500D01*
X214750Y124500D02*
X215500Y125250D01*
X214750Y117000D02*
Y124500D01*
X214250Y116500D02*
X214750Y117000D01*
X212250Y116500D02*
X214250D01*
X211750Y117000D02*
X212250Y116500D01*
X165250Y139250D02*
Y140500D01*
X162000Y136000D02*
X165250Y139250D01*
X161000Y141500D02*
X164250D01*
X165250Y140500D01*
X159500Y130250D02*
X163786D01*
X11500Y268250D02*
X14250Y271000D01*
X31672Y186000D02*
X64250D01*
X83000Y167250D01*
X32500Y188000D02*
X65965D01*
X66250Y190500D02*
X66500Y190750D01*
X179250Y148750D02*
X195750D01*
X156500Y133250D02*
X159500Y130250D01*
X156500Y133250D02*
Y137000D01*
X234500Y114250D02*
X236000Y112750D01*
X238500D01*
X240000Y114250D01*
Y123750D01*
X234500Y114250D02*
Y125750D01*
X218000Y129250D02*
X224000Y123250D01*
X227750D01*
X210000Y127250D02*
X211750Y125500D01*
Y117000D02*
Y125500D01*
X201750Y79750D02*
X203750Y77750D01*
X205500D02*
X206250Y77000D01*
Y75500D02*
Y77000D01*
X205500Y74750D02*
X206250Y75500D01*
X199000Y78750D02*
X203000Y74750D01*
X205250Y81250D02*
X208250Y84250D01*
X201750Y79750D02*
Y88000D01*
X204000Y90250D01*
X203750Y77750D02*
X205500D01*
X203000Y74750D02*
X205500D01*
X204000Y90250D02*
X207000D01*
X208250Y89000D01*
Y84250D02*
Y89000D01*
X241749Y104249D02*
X242500Y105000D01*
X236215Y104249D02*
X241749D01*
X209250Y115750D02*
X211250Y113750D01*
X200000Y115750D02*
X209250D01*
X254500Y109000D02*
X257250Y106250D01*
X242500Y105000D02*
Y111000D01*
X247750Y116250D01*
X253250D01*
X254500Y115000D01*
Y109000D02*
Y115000D01*
X208500Y113250D02*
X210500Y111250D01*
X227750Y103000D02*
X229750Y101000D01*
X243250D01*
X246500Y104250D01*
X252750D01*
X257250Y99750D01*
Y93250D02*
Y95500D01*
X225500Y102000D02*
Y107500D01*
X224250Y108750D02*
X225500Y107500D01*
X209750Y108750D02*
X224250D01*
X202010Y110505D02*
X207995D01*
X209750Y108750D01*
X225500Y102000D02*
X228500Y99000D01*
X250750Y102000D02*
X257250Y95500D01*
X228500Y99000D02*
X231750D01*
X234000Y96750D01*
X242500D01*
X219750Y117000D02*
Y120000D01*
Y117000D02*
X220500Y116250D01*
X221500D01*
X222250Y117000D01*
Y120000D01*
X223000Y120750D01*
X224000D01*
X224750Y120000D01*
Y117000D02*
Y120000D01*
Y117000D02*
X225500Y116250D01*
X228250D01*
X211250Y113750D02*
X226714D01*
X236215Y104249D01*
X227750Y103000D02*
Y108750D01*
X225250Y111250D02*
X227750Y108750D01*
X210500Y111250D02*
X225250D01*
X231000Y89000D02*
X232786D01*
X235786Y92000D01*
X245500D01*
X228250Y91750D02*
X231000Y89000D01*
X228250Y91750D02*
Y96250D01*
X218000Y106500D02*
X228250Y96250D01*
X233750Y126500D02*
X234500Y125750D01*
X225157Y127250D02*
X227000D01*
X228000Y128250D01*
Y133500D01*
X227750Y123250D02*
X231000Y126500D01*
X233750D01*
X232000Y120000D02*
Y123750D01*
X250250Y87156D02*
X250344D01*
X242500Y96750D02*
X242512Y96762D01*
Y96790D01*
X247722Y102000D01*
X250750D01*
X197000Y110750D02*
X201250Y106500D01*
X218000D01*
X199000Y78750D02*
Y99250D01*
X125000Y163000D02*
X129750Y167750D01*
X182000Y186750D02*
X184750Y189500D01*
X137750Y127750D02*
Y129000D01*
X139000Y130250D01*
X137000Y109750D02*
Y112750D01*
X136250Y113500D02*
X137000Y112750D01*
X135000Y113500D02*
X136250D01*
X134000Y114500D02*
X135000Y113500D01*
X134000Y114500D02*
Y116000D01*
X137750Y119750D01*
X85750Y162751D02*
X89250Y159250D01*
X85750Y162751D02*
Y168215D01*
X65965Y188000D02*
X85750Y168215D01*
X163786Y130250D02*
X171285Y137750D01*
X207000Y123750D02*
X208250Y122500D01*
X177750Y150250D02*
X179250Y148750D01*
X177750Y150250D02*
Y151750D01*
X164500Y157000D02*
X170750D01*
X181000Y167250D01*
X169750Y159750D02*
X179750Y169750D01*
X156008Y146722D02*
X157472Y145257D01*
X156500Y137000D02*
X161000Y141500D01*
X171750Y140750D02*
X172500Y141500D01*
X168000Y140750D02*
X171750D01*
X139750Y112250D02*
X140750Y113250D01*
X141750D01*
X142500Y112500D01*
X144250Y119250D02*
X145000Y120000D01*
X144250Y118250D02*
Y119250D01*
Y118250D02*
X145250Y117250D01*
X142000Y116250D02*
X143000Y115250D01*
X139000Y130250D02*
X141250D01*
X142500Y129000D01*
X145750Y113250D02*
X146750D01*
X147500Y112500D01*
Y109500D02*
Y112500D01*
Y109500D02*
X148250Y108750D01*
X149250D01*
X150000Y109500D01*
Y112500D01*
X150750Y113250D01*
X142500Y126000D02*
Y129000D01*
X141500Y125000D02*
X142500Y126000D01*
X130250Y125000D02*
X141500D01*
X129500Y124250D02*
X130250Y125000D01*
X129500Y118500D02*
Y124250D01*
Y118500D02*
X130250Y117750D01*
X132000D01*
X132750Y118500D01*
Y121500D01*
X133500Y122250D01*
X141000D01*
X142000Y121250D01*
Y116250D02*
Y121250D01*
X151500Y127000D02*
X153750D01*
X149500Y125000D02*
X151500Y127000D01*
X145000Y125000D02*
X149500D01*
X144250Y124250D02*
X145000Y125000D01*
X144250Y123250D02*
Y124250D01*
Y123250D02*
X145000Y122500D01*
X149500D01*
X150250Y121750D01*
Y120750D02*
Y121750D01*
X149500Y120000D02*
X150250Y120750D01*
X155500Y139757D02*
Y140000D01*
X155750Y139750D01*
X162000Y133250D02*
Y136000D01*
D40*
X4000Y197000D02*
X7750Y193250D01*
Y96650D02*
Y193250D01*
X0Y88900D02*
X7750Y96650D01*
D42*
X-4500Y88900D02*
D03*
Y25400D02*
D03*
Y12700D02*
D03*
D43*
X12700Y-4500D02*
D03*
X25400D02*
D03*
X88900Y283900D02*
D03*
X76200D02*
D03*
X63500D02*
D03*
X50800D02*
D03*
X38100D02*
D03*
X25400D02*
D03*
D44*
X77500Y206000D02*
D03*
X187500Y110750D02*
D03*
X193759Y110505D02*
D03*
X191759Y116006D02*
D03*
X201000Y123750D02*
D03*
X191000Y122750D02*
D03*
X161750Y119750D02*
D03*
X238375Y167750D02*
D03*
X161750Y159750D02*
D03*
X158750Y276500D02*
D03*
X14500Y170500D02*
D03*
X69670Y216900D02*
D03*
X164750Y199750D02*
D03*
X14250Y271000D02*
D03*
X129750Y159750D02*
D03*
X201000Y131750D02*
D03*
X62250Y191250D02*
D03*
X58250D02*
D03*
X155800Y9250D02*
D03*
X54800D02*
D03*
X101500Y74000D02*
D03*
X69670Y264150D02*
D03*
X201750Y207750D02*
D03*
X183750Y251750D02*
D03*
X233750Y223750D02*
D03*
X225750Y215750D02*
D03*
X257250Y99750D02*
D03*
X257250Y106250D02*
D03*
X257250Y93250D02*
D03*
X232000Y139750D02*
D03*
X240000D02*
D03*
Y131750D02*
D03*
X232000D02*
D03*
X240000Y123750D02*
D03*
X137750Y119750D02*
D03*
X185750Y151750D02*
D03*
X177750Y127750D02*
D03*
X175250Y100750D02*
D03*
X178750Y97250D02*
D03*
X180500Y95500D02*
D03*
X177000Y99000D02*
D03*
X201000Y139750D02*
D03*
X200000Y115750D02*
D03*
X202010Y110505D02*
D03*
X210250Y93750D02*
D03*
X122250Y106500D02*
D03*
X130250D02*
D03*
X219500Y27000D02*
D03*
Y41500D02*
D03*
X242750Y53750D02*
D03*
X244500Y67750D02*
D03*
X240000Y67750D02*
D03*
X190500Y70500D02*
D03*
X199010Y74754D02*
D03*
X205250Y81250D02*
D03*
X271500Y120250D02*
D03*
X229750Y213000D02*
D03*
X137750Y127750D02*
D03*
X209750Y183750D02*
D03*
X207000Y199750D02*
D03*
X185750Y207750D02*
D03*
X209750Y167750D02*
D03*
X201750Y175750D02*
D03*
X131500Y149000D02*
D03*
X83000Y167250D02*
D03*
X66250Y190500D02*
D03*
X135500Y251500D02*
D03*
X232000Y123750D02*
D03*
X250250Y87156D02*
D03*
Y95656D02*
D03*
X272000Y126750D02*
D03*
X201750Y231750D02*
D03*
X209750D02*
D03*
X185750Y239750D02*
D03*
X217750Y255750D02*
D03*
X241750Y247750D02*
D03*
X149250Y199250D02*
D03*
X137750Y175750D02*
D03*
X192500Y187750D02*
D03*
X193750Y199750D02*
D03*
X129750Y167750D02*
D03*
X107500Y145250D02*
D03*
X182000Y186750D02*
D03*
X189000Y187750D02*
D03*
X107500Y160250D02*
D03*
X255000Y215500D02*
D03*
X89250Y159250D02*
D03*
X161750Y247750D02*
D03*
X107500Y190750D02*
D03*
Y177250D02*
D03*
X158500Y209750D02*
D03*
X153750Y220750D02*
D03*
X241750Y167750D02*
D03*
X177750Y151750D02*
D03*
X169750Y159750D02*
D03*
X153750Y127000D02*
D03*
X155500Y140000D02*
D03*
X162000Y133250D02*
D03*
D45*
X245000Y24500D02*
D03*
X15000Y264000D02*
D03*
X44250Y273500D02*
D03*
X253250Y61000D02*
D03*
X210500Y6750D02*
D03*
X116500Y112750D02*
D03*
X4000Y197000D02*
D03*
X95250Y207000D02*
D03*
X273500Y184000D02*
D03*
D46*
X54750Y150250D02*
D03*
X40000D02*
D03*
X101300Y41550D02*
D03*
X139400Y41550D02*
D03*
X164800Y41550D02*
D03*
X152100Y79650D02*
D03*
X75900Y79650D02*
D03*
X37800D02*
D03*
X106500Y11000D02*
D03*
X17300Y45500D02*
D03*
X114000Y86100D02*
D03*
X50500Y66950D02*
D03*
X126700Y54250D02*
D03*
X43250Y253070D02*
D03*
Y245500D02*
D03*
X176299Y12500D02*
D03*
X176250Y45500D02*
D03*
X63200Y41550D02*
D03*
M02*
