G04 Layer_Physical_Order=10*
G04 Layer_Color=6632219*
%FSLAX44Y44*%
%MOMM*%
G71*
G01*
G75*
%ADD11R,0.3000X0.3000*%
%ADD12R,0.3000X0.3000*%
%ADD33C,0.2000*%
%ADD34C,0.3000*%
%ADD36C,0.1000*%
%ADD37C,0.2500*%
%ADD38C,0.7000*%
%ADD40C,0.4000*%
%ADD41R,1.6000X0.7000*%
G04:AMPARAMS|DCode=42|XSize=0.7mm|YSize=1.6mm|CornerRadius=0.175mm|HoleSize=0mm|Usage=FLASHONLY|Rotation=90.000|XOffset=0mm|YOffset=0mm|HoleType=Round|Shape=RoundedRectangle|*
%AMROUNDEDRECTD42*
21,1,0.7000,1.2500,0,0,90.0*
21,1,0.3500,1.6000,0,0,90.0*
1,1,0.3500,0.6250,0.1750*
1,1,0.3500,0.6250,-0.1750*
1,1,0.3500,-0.6250,-0.1750*
1,1,0.3500,-0.6250,0.1750*
%
%ADD42ROUNDEDRECTD42*%
G04:AMPARAMS|DCode=43|XSize=0.7mm|YSize=1.6mm|CornerRadius=0.175mm|HoleSize=0mm|Usage=FLASHONLY|Rotation=180.000|XOffset=0mm|YOffset=0mm|HoleType=Round|Shape=RoundedRectangle|*
%AMROUNDEDRECTD43*
21,1,0.7000,1.2500,0,0,180.0*
21,1,0.3500,1.6000,0,0,180.0*
1,1,0.3500,-0.1750,0.6250*
1,1,0.3500,0.1750,0.6250*
1,1,0.3500,0.1750,-0.6250*
1,1,0.3500,-0.1750,-0.6250*
%
%ADD43ROUNDEDRECTD43*%
%ADD44C,0.2000*%
%ADD45C,0.4000*%
%ADD46C,0.6000*%
%ADD47C,1.0000*%
%ADD48C,0.3000*%
%ADD49C,0.5000*%
%ADD51R,0.5000X3.0000*%
%ADD52R,0.9000X0.3000*%
%ADD53R,0.3000X0.6000*%
%ADD54R,0.5500X0.2500*%
%ADD55R,0.9000X1.0000*%
G36*
X279400Y271254D02*
X277650D01*
X276577Y271040D01*
X275667Y270433D01*
X275060Y269523D01*
X274846Y268450D01*
Y264950D01*
X275060Y263877D01*
X275667Y262967D01*
X276577Y262360D01*
X277650Y262146D01*
X279400D01*
Y258554D01*
X277650D01*
X276577Y258340D01*
X275667Y257733D01*
X275060Y256823D01*
X274846Y255750D01*
Y252250D01*
X275060Y251177D01*
X275667Y250267D01*
X276577Y249660D01*
X277650Y249446D01*
X279400D01*
Y245854D01*
X277650D01*
X276577Y245640D01*
X275667Y245033D01*
X275060Y244123D01*
X274846Y243050D01*
Y239550D01*
X275060Y238477D01*
X275667Y237567D01*
X276577Y236960D01*
X277650Y236746D01*
X279400D01*
Y233154D01*
X277650D01*
X276577Y232940D01*
X275667Y232333D01*
X275060Y231423D01*
X274846Y230350D01*
Y226850D01*
X275060Y225777D01*
X275667Y224867D01*
X276577Y224260D01*
X277650Y224046D01*
X279400D01*
Y220454D01*
X277650D01*
X276577Y220240D01*
X275667Y219633D01*
X275060Y218723D01*
X274846Y217650D01*
Y214150D01*
X275060Y213077D01*
X275667Y212167D01*
X276577Y211560D01*
X277650Y211346D01*
X279400D01*
Y207754D01*
X277650D01*
X276577Y207540D01*
X275667Y206933D01*
X275060Y206023D01*
X274846Y204950D01*
Y201450D01*
X275060Y200377D01*
X275667Y199467D01*
X276577Y198860D01*
X277650Y198646D01*
X279400D01*
Y195054D01*
X277650D01*
X276577Y194840D01*
X275667Y194233D01*
X275060Y193323D01*
X274846Y192250D01*
Y188750D01*
X275060Y187677D01*
X275667Y186767D01*
X276577Y186160D01*
X277650Y185946D01*
X279400D01*
Y182354D01*
X277650D01*
X276577Y182140D01*
X275667Y181533D01*
X275060Y180623D01*
X274846Y179550D01*
Y176050D01*
X274992Y175319D01*
X274431Y174334D01*
X274266Y174165D01*
X272934Y174163D01*
X272771Y174327D01*
X272204Y175319D01*
X272289Y175750D01*
X272134Y176530D01*
X271692Y177192D01*
X271030Y177634D01*
X270250Y177789D01*
X269470Y177634D01*
X268808Y177192D01*
X268446Y176651D01*
X268361Y176527D01*
X267437Y175839D01*
X267250Y175750D01*
X266996D01*
X266750Y175799D01*
X264750D01*
X264504Y175750D01*
X263124D01*
Y181590D01*
X263835Y182500D01*
X264188Y182748D01*
X264780Y182866D01*
X265442Y183308D01*
X265884Y183970D01*
X266039Y184750D01*
X265884Y185530D01*
X265442Y186192D01*
X264780Y186634D01*
X264000Y186789D01*
X263220Y186634D01*
X262558Y186192D01*
X262116Y185530D01*
X262052Y185209D01*
X261017Y184457D01*
X260750Y184374D01*
X258750D01*
X257602Y183898D01*
X257281Y183577D01*
X256936Y183384D01*
X256080Y183581D01*
X255789Y183745D01*
Y184500D01*
X255634Y185280D01*
X255192Y185942D01*
X255192Y185942D01*
X253250Y187884D01*
Y198500D01*
X242250D01*
Y186500D01*
X248866D01*
X251096Y184270D01*
X250570Y183000D01*
X246250D01*
Y178000D01*
X252516D01*
X253195Y176730D01*
X253041Y176500D01*
X248996D01*
X248750Y176549D01*
X248504Y176500D01*
X246250D01*
Y176039D01*
X245750D01*
X244969Y175884D01*
X244308Y175442D01*
X243866Y174781D01*
X243710Y174000D01*
X243866Y173220D01*
X244180Y172750D01*
X243866Y172280D01*
X243711Y171500D01*
X243866Y170720D01*
X244180Y170250D01*
X243866Y169780D01*
X243711Y169000D01*
X243866Y168220D01*
X244308Y167558D01*
X244970Y167116D01*
X245750Y166961D01*
X246201D01*
Y164299D01*
X243750D01*
X242775Y164105D01*
X241948Y163552D01*
X241944Y163549D01*
X230000D01*
X229754Y163500D01*
X227500D01*
Y161246D01*
X227451Y161000D01*
X227500Y160754D01*
Y155796D01*
X225077Y153374D01*
X218710D01*
X218092Y154644D01*
X218566Y155250D01*
X220250D01*
Y160250D01*
X215250D01*
Y158930D01*
X213980Y158404D01*
X203943Y168441D01*
X204469Y169711D01*
X215250D01*
Y168250D01*
X220250D01*
Y173250D01*
X218985D01*
X218772Y173480D01*
X219326Y174750D01*
X220250D01*
Y179750D01*
X215250D01*
Y179289D01*
X211250D01*
X210470Y179134D01*
X209808Y178692D01*
X209808Y178692D01*
X208308Y177192D01*
X207866Y176530D01*
X207711Y175750D01*
X207848Y175059D01*
X207842Y174931D01*
X207127Y173789D01*
X198595D01*
X195192Y177192D01*
X194530Y177634D01*
X193750Y177789D01*
X192970Y177634D01*
X192308Y177192D01*
X191866Y176530D01*
X191711Y175750D01*
X191866Y174970D01*
X192308Y174308D01*
X196308Y170308D01*
X196308Y170308D01*
X196970Y169866D01*
X197750Y169711D01*
X199127D01*
X199842Y168569D01*
X199848Y168441D01*
X199711Y167750D01*
X199866Y166970D01*
X200308Y166308D01*
X206723Y159894D01*
X206197Y158624D01*
X200750D01*
X199602Y158148D01*
X198852Y157398D01*
X198377Y156250D01*
Y154000D01*
X198852Y152852D01*
X199602Y152102D01*
X199698Y152062D01*
Y150688D01*
X199602Y150648D01*
X198852Y149898D01*
X198377Y148750D01*
Y146500D01*
X198852Y145352D01*
X199602Y144602D01*
X200750Y144126D01*
X202861D01*
X203518Y142856D01*
X203245Y142405D01*
X201900Y142088D01*
X201171Y142576D01*
X200000Y142808D01*
X198829Y142576D01*
X197837Y141912D01*
X197174Y140920D01*
X196941Y139750D01*
X197161Y138644D01*
X197165Y138564D01*
X196499Y137451D01*
X195361Y137283D01*
X194604Y138247D01*
X194826Y138579D01*
X195059Y139750D01*
X194826Y140920D01*
X194163Y141912D01*
X193171Y142576D01*
X192000Y142808D01*
X190829Y142576D01*
X189837Y141912D01*
X189477Y141373D01*
X189250D01*
X188102Y140898D01*
X184578Y137374D01*
X171423D01*
X168398Y140398D01*
X167250Y140874D01*
X163374D01*
Y145250D01*
X166565D01*
X167711Y144500D01*
X167866Y143720D01*
X168308Y143058D01*
X168970Y142616D01*
X169750Y142461D01*
X170530Y142616D01*
X171192Y143058D01*
X171634Y143720D01*
X171789Y144500D01*
X171634Y145280D01*
X171192Y145942D01*
X170530Y146384D01*
X169750Y146539D01*
X169020Y146394D01*
X168962Y146388D01*
X167750Y147097D01*
Y148053D01*
X167789Y148250D01*
X167789Y148250D01*
Y152500D01*
X167634Y153280D01*
X167192Y153942D01*
X166530Y154384D01*
X165750Y154539D01*
X164970Y154384D01*
X164308Y153942D01*
X163962Y153424D01*
X163231Y153276D01*
X162569Y153271D01*
X162450Y153449D01*
X161788Y153891D01*
X161008Y154047D01*
X160228Y153891D01*
X159566Y153449D01*
X159124Y152788D01*
X158969Y152007D01*
X159066Y151520D01*
X158552Y150588D01*
X158249Y150250D01*
X156680Y150250D01*
X156493Y150379D01*
X155716Y151270D01*
X155789Y151750D01*
X155634Y152530D01*
X155192Y153192D01*
X154530Y153634D01*
X153750Y153789D01*
X153059Y153652D01*
X152931Y153658D01*
X151789Y154373D01*
Y157127D01*
X152931Y157842D01*
X153059Y157848D01*
X153750Y157711D01*
X154530Y157866D01*
X155192Y158308D01*
X155634Y158970D01*
X155789Y159750D01*
X155634Y160530D01*
X155192Y161192D01*
X154530Y161634D01*
X153750Y161789D01*
X153059Y161652D01*
X152931Y161658D01*
X151789Y162373D01*
Y165127D01*
X152931Y165842D01*
X153059Y165848D01*
X153750Y165711D01*
X154530Y165866D01*
X155192Y166308D01*
X155634Y166970D01*
X155789Y167750D01*
X155634Y168530D01*
X155192Y169192D01*
X154530Y169634D01*
X153750Y169789D01*
X153678Y169775D01*
X152430Y170643D01*
X152352Y171468D01*
X155192Y174308D01*
X155192Y174308D01*
X155634Y174970D01*
X155789Y175750D01*
X155667Y176362D01*
X156152Y177050D01*
X156549Y177448D01*
X157448D01*
X158274Y176895D01*
X159250Y176701D01*
X160225Y176895D01*
X161052Y177448D01*
X162448D01*
X163274Y176895D01*
X164250Y176701D01*
X165225Y176895D01*
X166052Y177448D01*
X167448D01*
X168274Y176895D01*
X169250Y176701D01*
X170225Y176895D01*
X171052Y177448D01*
X172448D01*
X173274Y176895D01*
X174250Y176701D01*
X175225Y176895D01*
X176052Y177448D01*
X177448D01*
X178274Y176895D01*
X179250Y176701D01*
X180225Y176895D01*
X181052Y177448D01*
X181605Y178275D01*
X181799Y179250D01*
X181605Y180225D01*
X181052Y181052D01*
Y182448D01*
X181605Y183275D01*
X181799Y184250D01*
X182780Y184866D01*
X183442Y185308D01*
X183884Y185970D01*
X184039Y186750D01*
X183884Y187530D01*
X183442Y188192D01*
X182853Y188586D01*
X182780Y189150D01*
Y189350D01*
X182853Y189914D01*
X183442Y190308D01*
X183884Y190970D01*
X184039Y191750D01*
X183884Y192530D01*
X183442Y193192D01*
X182780Y193634D01*
X181799Y194250D01*
X181605Y195225D01*
X181052Y196052D01*
Y197448D01*
X181605Y198275D01*
X181799Y199250D01*
X181605Y200225D01*
X181052Y201052D01*
Y202448D01*
X181605Y203275D01*
X181799Y204250D01*
X181605Y205225D01*
X181052Y206052D01*
Y207448D01*
X181605Y208275D01*
X181799Y209250D01*
X181605Y210225D01*
X181052Y211052D01*
Y212448D01*
X181605Y213275D01*
X181799Y214250D01*
X181605Y215226D01*
X181277Y215716D01*
X181555Y216802D01*
X181759Y217107D01*
X181878Y217131D01*
X182622Y217628D01*
X185372Y220378D01*
X185869Y221122D01*
X186044Y222000D01*
Y226250D01*
X185869Y227128D01*
X185372Y227872D01*
X182372Y230872D01*
X181628Y231369D01*
X180750Y231544D01*
X180317D01*
X180225Y231605D01*
X179250Y231799D01*
X178274Y231605D01*
X178183Y231544D01*
X176860D01*
X176772Y231642D01*
X176297Y232814D01*
X176605Y233275D01*
X176799Y234250D01*
X176605Y235225D01*
X176052Y236052D01*
X175225Y236605D01*
X174250Y236799D01*
X173634Y237530D01*
X173192Y238192D01*
X172530Y238634D01*
X171799Y239250D01*
X171605Y240226D01*
X171052Y241052D01*
Y242448D01*
X172448D01*
X173274Y241895D01*
X174250Y241701D01*
X175225Y241895D01*
X176052Y242448D01*
X177447D01*
Y241052D01*
X176895Y240226D01*
X176701Y239250D01*
X176895Y238275D01*
X177447Y237448D01*
X178274Y236895D01*
X179250Y236701D01*
X180225Y236895D01*
X181052Y237448D01*
X181605Y238275D01*
X181799Y239250D01*
X181605Y240226D01*
X181052Y241052D01*
Y242448D01*
X181605Y243275D01*
X181799Y244250D01*
X181605Y245225D01*
X181052Y246052D01*
X180225Y246605D01*
X179250Y246799D01*
X178274Y246605D01*
X177447Y246052D01*
X176052D01*
X175225Y246605D01*
X174250Y246799D01*
X173274Y246605D01*
X172448Y246052D01*
X171052D01*
X170225Y246605D01*
X169250Y246799D01*
X168274Y246605D01*
X167447Y246052D01*
X166052D01*
X165225Y246605D01*
X164250Y246799D01*
X163274Y246605D01*
X162448Y246052D01*
X161052D01*
X160225Y246605D01*
X159250Y246799D01*
X158274Y246605D01*
X157448Y246052D01*
X156154D01*
X155387Y247047D01*
X155634Y247720D01*
X155789Y248500D01*
X155634Y249280D01*
X155192Y249942D01*
X154530Y250384D01*
X153750Y250539D01*
X152970Y250384D01*
X152308Y249942D01*
X151866Y249280D01*
X151711Y248500D01*
X151866Y247720D01*
X152060Y247430D01*
X151793Y246716D01*
X150601Y246354D01*
X150225Y246605D01*
X149250Y246799D01*
X148274Y246605D01*
X147448Y246052D01*
X146052D01*
X145225Y246605D01*
X144250Y246799D01*
X143274Y246605D01*
X142448Y246052D01*
X141052D01*
X140225Y246605D01*
X139250Y246799D01*
X138274Y246605D01*
X137448Y246052D01*
X136052D01*
X135225Y246605D01*
X134250Y246799D01*
X133274Y246605D01*
X132448Y246052D01*
X131574Y246880D01*
X131634Y246970D01*
X131789Y247750D01*
X131634Y248530D01*
X131192Y249192D01*
X130530Y249634D01*
X129750Y249789D01*
X128970Y249634D01*
X128580Y249374D01*
X112750D01*
X111602Y248898D01*
X109602Y246898D01*
X109126Y245750D01*
Y237750D01*
X109602Y236602D01*
X111743Y234461D01*
X111701Y234250D01*
X111895Y233275D01*
X112448Y232448D01*
Y231052D01*
X111895Y230225D01*
X111701Y229250D01*
X111895Y228275D01*
X112448Y227448D01*
Y226052D01*
X111895Y225225D01*
X111701Y224250D01*
X111895Y223275D01*
X112448Y222448D01*
Y221052D01*
X111895Y220225D01*
X111701Y219250D01*
X111895Y218275D01*
X112448Y217448D01*
Y216052D01*
X111895Y215226D01*
X111823Y214863D01*
X111313Y214720D01*
X110501Y214729D01*
X110192Y215192D01*
X109530Y215634D01*
X108750Y215789D01*
X107970Y215634D01*
X107308Y215192D01*
X106866Y214530D01*
X106711Y213750D01*
X106866Y212970D01*
X107308Y212308D01*
X107970Y211866D01*
X108750Y211711D01*
X109530Y211866D01*
X110192Y212308D01*
X110437Y212675D01*
X111657Y212892D01*
X111876Y212875D01*
X112448Y212401D01*
Y211052D01*
X111895Y210225D01*
X111701Y209250D01*
X111895Y208275D01*
X112448Y207448D01*
Y206052D01*
X111895Y205225D01*
X111701Y204250D01*
X111895Y203275D01*
X112448Y202448D01*
Y201052D01*
X111895Y200225D01*
X111701Y199250D01*
X111895Y198275D01*
X112448Y197448D01*
Y196052D01*
X111895Y195225D01*
X111701Y194250D01*
X111895Y193275D01*
X112448Y192448D01*
Y191052D01*
X111895Y190226D01*
X111701Y189250D01*
X111895Y188275D01*
X112448Y187448D01*
Y186052D01*
X111895Y185225D01*
X111701Y184250D01*
X111895Y183275D01*
X112448Y182448D01*
Y181052D01*
X111895Y180225D01*
X111701Y179250D01*
X111858Y178463D01*
X111543Y177856D01*
X111512Y177809D01*
X111052Y177250D01*
X110470Y177134D01*
X109808Y176692D01*
X109366Y176030D01*
X109211Y175250D01*
X109259Y175008D01*
X108665Y174478D01*
X108163Y174158D01*
X107500Y174289D01*
X106720Y174134D01*
X106058Y173692D01*
X105616Y173031D01*
X105461Y172250D01*
X105616Y171470D01*
X106058Y170808D01*
X106720Y170366D01*
X107500Y170211D01*
X108280Y170366D01*
X108942Y170808D01*
X109384Y171470D01*
X109539Y172250D01*
X109491Y172492D01*
X110085Y173023D01*
X110587Y173343D01*
X111250Y173211D01*
X112030Y173366D01*
X112692Y173808D01*
X113134Y174470D01*
X113289Y175250D01*
X113217Y175612D01*
X113921Y176536D01*
X114195Y176712D01*
X114250Y176701D01*
X115225Y176895D01*
X116052Y177448D01*
X117448D01*
X118274Y176895D01*
X119250Y176701D01*
X120225Y176895D01*
X121052Y177448D01*
X122448D01*
X123274Y176895D01*
X124250Y176701D01*
X125225Y176895D01*
X126052Y177448D01*
X127448D01*
X128274Y176895D01*
X129250Y176701D01*
X130225Y176895D01*
X131052Y177448D01*
X132448D01*
X133274Y176895D01*
X134250Y176701D01*
X135225Y176895D01*
X136052Y177448D01*
X137448D01*
X138274Y176895D01*
X138715Y176807D01*
X138928Y176589D01*
X139397Y175661D01*
X139425Y175470D01*
X139126Y174750D01*
Y170647D01*
X137856Y169768D01*
X137750Y169789D01*
X136970Y169634D01*
X136308Y169192D01*
X135192D01*
X134530Y169634D01*
X133750Y169789D01*
X132970Y169634D01*
X132308Y169192D01*
X131192D01*
X130530Y169634D01*
X129750Y169789D01*
X128970Y169634D01*
X128308Y169192D01*
X127866Y168530D01*
X127711Y167750D01*
X127866Y166970D01*
X128308Y166308D01*
X128472Y164769D01*
X124731Y161028D01*
X123192Y161192D01*
X122530Y161634D01*
X121750Y161789D01*
X120970Y161634D01*
X120308Y161192D01*
X119866Y160530D01*
X119711Y159750D01*
X119866Y158970D01*
X120308Y158308D01*
X120970Y157866D01*
X121750Y157711D01*
X122876Y156686D01*
Y154814D01*
X121750Y153789D01*
X120970Y153634D01*
X120308Y153192D01*
X119866Y152530D01*
X119711Y151750D01*
X119866Y150970D01*
X120308Y150308D01*
X120970Y149866D01*
X121750Y149711D01*
X122876Y148686D01*
Y146814D01*
X121750Y145789D01*
X120970Y145634D01*
X120308Y145192D01*
X119866Y144530D01*
X119711Y143750D01*
X119866Y142970D01*
X120308Y142308D01*
X120970Y141866D01*
X121750Y141711D01*
X122876Y140686D01*
Y138814D01*
X121750Y137789D01*
X120970Y137634D01*
X120308Y137192D01*
X119866Y136530D01*
X119711Y135750D01*
X119866Y134970D01*
X120308Y134308D01*
X120970Y133866D01*
X121750Y133711D01*
X122876Y132686D01*
Y113173D01*
X117602Y107898D01*
X117126Y106750D01*
Y79750D01*
X115550D01*
Y79750D01*
X113296D01*
X113050Y79799D01*
X108980D01*
X108905Y80175D01*
X108352Y81002D01*
X106052Y83302D01*
X105225Y83855D01*
X104250Y84049D01*
X99000D01*
X98025Y83855D01*
X97198Y83302D01*
X93902Y80007D01*
X92524Y80425D01*
X92368Y81211D01*
X91484Y82534D01*
X90161Y83418D01*
X88600Y83728D01*
X87039Y83418D01*
X85716Y82534D01*
X84832Y81211D01*
X84522Y79650D01*
X84832Y78089D01*
X85716Y76766D01*
X87039Y75882D01*
X87825Y75726D01*
X88243Y74348D01*
X81998Y68102D01*
X81445Y67276D01*
X81251Y66300D01*
Y63549D01*
X70335D01*
X69921Y63826D01*
X68750Y64059D01*
X67579Y63826D01*
X66587Y63163D01*
X65924Y62171D01*
X65691Y61000D01*
X65924Y59830D01*
X66587Y58837D01*
X67579Y58174D01*
X68750Y57941D01*
X69921Y58174D01*
X70335Y58451D01*
X81300D01*
Y58000D01*
X83554D01*
X83800Y57951D01*
X84046Y58000D01*
X91300D01*
Y58000D01*
X92550Y57952D01*
Y55500D01*
X97550D01*
Y59706D01*
X103550D01*
X103772Y59750D01*
X107300D01*
Y63437D01*
X107725Y64341D01*
X108467Y64500D01*
X112134D01*
X112875Y64341D01*
X113300Y63437D01*
Y59750D01*
X113300Y59750D01*
Y59250D01*
X113300D01*
X113300Y58480D01*
Y54750D01*
X120800D01*
Y55397D01*
X121898Y55852D01*
X135148Y69102D01*
X135624Y70250D01*
Y117238D01*
X136894Y117917D01*
X136970Y117866D01*
X137750Y117711D01*
X138530Y117866D01*
X139192Y118308D01*
X139634Y118970D01*
X139789Y119750D01*
X139634Y120530D01*
X139192Y121192D01*
X138530Y121634D01*
X137750Y121789D01*
X136970Y121634D01*
X136894Y121583D01*
X135624Y122262D01*
Y125238D01*
X136894Y125917D01*
X136970Y125866D01*
X137750Y125711D01*
X138530Y125866D01*
X139192Y126308D01*
X139634Y126970D01*
X139789Y127750D01*
X139634Y128530D01*
X139192Y129192D01*
X138530Y129634D01*
X137750Y129789D01*
X136970Y129634D01*
X136894Y129583D01*
X135624Y130262D01*
Y141238D01*
X136894Y141917D01*
X136970Y141866D01*
X137750Y141711D01*
X138530Y141866D01*
X139192Y142308D01*
X139310Y142484D01*
X140366Y141780D01*
X140211Y141000D01*
X140366Y140220D01*
X140808Y139558D01*
X140558Y138692D01*
X140116Y138030D01*
X139961Y137250D01*
X140116Y136470D01*
X140558Y135808D01*
X141220Y135366D01*
X142000Y135211D01*
X142780Y135366D01*
X143866Y134970D01*
X144308Y134308D01*
X144970Y133866D01*
X145750Y133711D01*
X146530Y133866D01*
X147192Y134308D01*
X147634Y134970D01*
X147789Y135750D01*
X147634Y136530D01*
X147192Y137192D01*
X146530Y137634D01*
X145750Y137789D01*
X144970Y137634D01*
X143884Y138030D01*
X143442Y138692D01*
X143692Y139558D01*
X144134Y140220D01*
X144289Y141000D01*
X144134Y141780D01*
X143766Y142330D01*
X143692Y142442D01*
Y143808D01*
X143766Y143919D01*
X144134Y144470D01*
X144289Y145250D01*
X148250D01*
Y147116D01*
X151046Y149912D01*
X152295Y150304D01*
X152627Y150095D01*
X152970Y149866D01*
X153750Y149711D01*
X154530Y149866D01*
X154982Y150166D01*
X156089Y149712D01*
X156250Y149606D01*
X156250Y149158D01*
Y145250D01*
X160126D01*
Y139750D01*
X160222Y139518D01*
X159363Y138659D01*
X158451Y138607D01*
X157882Y138729D01*
X157444Y139520D01*
X157539Y140000D01*
X157384Y140780D01*
X156942Y141442D01*
X156280Y141884D01*
X155500Y142039D01*
X154750Y142655D01*
Y145250D01*
X149750D01*
Y142619D01*
X149565Y142435D01*
X149123Y141773D01*
X148968Y140993D01*
Y140955D01*
X148652Y140482D01*
X148458Y139507D01*
X148652Y138531D01*
X148968Y138059D01*
Y137037D01*
X148961Y137000D01*
X149116Y136220D01*
X149558Y135558D01*
X149750Y135366D01*
Y133250D01*
X154750D01*
Y136427D01*
X155500Y136862D01*
X156250Y136426D01*
Y129419D01*
X156250Y129144D01*
X155766Y128823D01*
X155442Y128724D01*
Y128724D01*
X155442D01*
Y128724D01*
X154207Y128948D01*
X153750Y129039D01*
X152970Y128884D01*
X152308Y128442D01*
X151866Y127780D01*
X151711Y127000D01*
X151866Y126220D01*
X152308Y125558D01*
X152970Y125116D01*
X153750Y124961D01*
X154530Y125116D01*
X155192Y125558D01*
X155634Y126220D01*
X155693Y126517D01*
X156155Y127623D01*
D01*
X156155Y127624D01*
Y127624D01*
X156728Y128246D01*
X156737Y128250D01*
X157063Y128250D01*
X157149Y128250D01*
X158366D01*
X160308Y126308D01*
X160308Y126308D01*
X160970Y125866D01*
X161750Y125711D01*
X162530Y125866D01*
X163192Y126308D01*
X163634Y126970D01*
X163789Y127750D01*
X163634Y128530D01*
X163192Y129192D01*
X163192Y129192D01*
X162390Y129993D01*
X162780Y131366D01*
X163442Y131808D01*
X163884Y132470D01*
X164039Y133250D01*
X164039Y133250D01*
X167015D01*
X167968Y132851D01*
X168317Y132215D01*
X168366Y131970D01*
X168808Y131308D01*
X169282Y130991D01*
X169298Y130228D01*
X169148Y129670D01*
X168970Y129634D01*
X168308Y129192D01*
X167866Y128530D01*
X167711Y127750D01*
X167866Y126970D01*
X168308Y126308D01*
X168970Y125866D01*
X169750Y125711D01*
X170530Y125866D01*
X171192Y126308D01*
X171634Y126970D01*
X171789Y127750D01*
X171634Y128530D01*
X171192Y129192D01*
X170718Y129509D01*
X170702Y130272D01*
X170852Y130830D01*
X171030Y130866D01*
X171692Y131308D01*
X172134Y131970D01*
X172289Y132750D01*
X172268Y132856D01*
X173147Y134126D01*
X180453D01*
X181165Y132935D01*
X181161Y132856D01*
X180941Y131750D01*
X181174Y130579D01*
X181837Y129587D01*
X182829Y128924D01*
X184000Y128691D01*
X185170Y128924D01*
X186163Y129587D01*
X186826Y130579D01*
X187059Y131750D01*
X186994Y132073D01*
X187041Y132141D01*
X187861Y132336D01*
X189004Y131436D01*
X189174Y130579D01*
X189837Y129587D01*
X190829Y128924D01*
X192000Y128691D01*
X193060Y128902D01*
X193133Y128844D01*
X193391Y127589D01*
X192512Y126706D01*
X192000Y126808D01*
X190829Y126575D01*
X189837Y125913D01*
X189174Y124920D01*
X188941Y123750D01*
X189050Y123201D01*
X188961Y122750D01*
X189116Y121969D01*
X189558Y121308D01*
X190220Y120866D01*
X191000Y120710D01*
X191451Y120800D01*
X192000Y120691D01*
X193171Y120924D01*
X194163Y121587D01*
X194826Y122579D01*
X195059Y123750D01*
X194957Y124262D01*
X195839Y125141D01*
X197095Y124882D01*
X197152Y124810D01*
X196941Y123750D01*
X197174Y122579D01*
X197837Y121587D01*
X198829Y120924D01*
X200000Y120691D01*
X201171Y120924D01*
X202163Y121587D01*
X202523Y122126D01*
X210250D01*
X211398Y122601D01*
X227796Y138999D01*
X229174Y138581D01*
X229174Y138579D01*
X229837Y137587D01*
X230829Y136924D01*
X232000Y136691D01*
X233060Y136902D01*
X233132Y136844D01*
X233391Y135589D01*
X232512Y134707D01*
X232000Y134808D01*
X230829Y134576D01*
X229837Y133912D01*
X229174Y132920D01*
X228941Y131750D01*
X229174Y130579D01*
X229837Y129587D01*
X230829Y128924D01*
X232000Y128691D01*
X233060Y128902D01*
X233133Y128844D01*
X233391Y127589D01*
X232512Y126706D01*
X232000Y126808D01*
X230829Y126575D01*
X229837Y125912D01*
X229174Y124920D01*
X228941Y123750D01*
X229174Y122579D01*
X229837Y121587D01*
X230829Y120924D01*
X232000Y120691D01*
X233171Y120924D01*
X234163Y121587D01*
X234826Y122579D01*
X235059Y123750D01*
X234957Y124262D01*
X235839Y125141D01*
X237095Y124882D01*
X237152Y124810D01*
X236941Y123750D01*
X237174Y122579D01*
X237209Y122526D01*
X236720Y121134D01*
X236058Y120692D01*
X235616Y120030D01*
X235461Y119250D01*
X235562Y118739D01*
X235362Y118404D01*
X235034Y118270D01*
X233896Y118091D01*
X233171Y118575D01*
X232000Y118808D01*
X230829Y118575D01*
X229837Y117913D01*
X229174Y116920D01*
X228941Y115750D01*
X229174Y114579D01*
X229837Y113587D01*
X230829Y112924D01*
X231710Y112748D01*
X231851Y112574D01*
X232153Y111926D01*
X232249Y111446D01*
X231803Y110769D01*
X230829Y110576D01*
X229837Y109913D01*
X229174Y108920D01*
X228941Y107750D01*
X229174Y106579D01*
X229837Y105587D01*
X229576Y105204D01*
X229558Y105192D01*
X229116Y104530D01*
X228961Y103750D01*
X229116Y102970D01*
X229558Y102308D01*
X229575Y102297D01*
X229837Y101912D01*
X229174Y100920D01*
X228941Y99750D01*
X229174Y98579D01*
X229818Y97615D01*
X229558Y97442D01*
X229116Y96780D01*
X228961Y96000D01*
X229116Y95220D01*
X229237Y95039D01*
X229837Y93912D01*
X229174Y92920D01*
X228941Y91750D01*
X229174Y90579D01*
X229837Y89587D01*
X230829Y88924D01*
X232000Y88691D01*
X233171Y88924D01*
X234163Y89587D01*
X234826Y90579D01*
X235059Y91750D01*
X234826Y92920D01*
X234163Y93912D01*
X233731Y94201D01*
X233210Y94828D01*
X233159Y95217D01*
X233148Y95852D01*
X233624Y97000D01*
Y97226D01*
X234163Y97587D01*
X234826Y98579D01*
X235059Y99750D01*
X234826Y100920D01*
X234163Y101912D01*
X233846Y102124D01*
X232884Y102970D01*
X233039Y103750D01*
X232884Y104530D01*
X233847Y105375D01*
X234163Y105587D01*
X234826Y106579D01*
X235059Y107750D01*
X234962Y108237D01*
X235442Y108558D01*
X235884Y109220D01*
X236039Y110000D01*
X235884Y110780D01*
X235442Y111442D01*
X234780Y111884D01*
X234131Y112013D01*
X233767Y113148D01*
X234647Y113957D01*
X235920Y114066D01*
X236220Y113866D01*
X237000Y113711D01*
X237666Y113843D01*
X237837Y113587D01*
X238829Y112924D01*
X240000Y112691D01*
X240512Y112793D01*
X241391Y111911D01*
X241133Y110655D01*
X241060Y110597D01*
X240000Y110808D01*
X238829Y110576D01*
X237837Y109913D01*
X237174Y108920D01*
X236941Y107750D01*
X237174Y106579D01*
X237837Y105587D01*
X238829Y104924D01*
X240000Y104691D01*
X241171Y104924D01*
X241306Y105014D01*
X242852Y104602D01*
X244852Y102602D01*
X245265Y101056D01*
X245174Y100920D01*
X244941Y99750D01*
X245006Y99423D01*
X243939Y98853D01*
X243046Y99685D01*
X243059Y99750D01*
X242826Y100920D01*
X242163Y101912D01*
X241171Y102576D01*
X240000Y102808D01*
X238829Y102576D01*
X237837Y101912D01*
X237174Y100920D01*
X236941Y99750D01*
X237174Y98579D01*
X237837Y97587D01*
X238829Y96924D01*
X240000Y96691D01*
X240065Y96704D01*
X240896Y95810D01*
X240326Y94743D01*
X240000Y94808D01*
X238829Y94576D01*
X237837Y93912D01*
X237174Y92920D01*
X236941Y91750D01*
X237035Y91278D01*
X236470Y89884D01*
X235808Y89442D01*
X235366Y88780D01*
X235211Y88000D01*
X235366Y87220D01*
X235808Y86558D01*
X236470Y86116D01*
X237250Y85961D01*
X238030Y86116D01*
X238420Y86376D01*
X244620D01*
X245299Y85106D01*
X245174Y84920D01*
X244941Y83750D01*
X245174Y82579D01*
X245837Y81587D01*
X246829Y80924D01*
X248000Y80691D01*
X249170Y80924D01*
X250163Y81587D01*
X250826Y82579D01*
X251059Y83750D01*
X251014Y83974D01*
X251030Y85272D01*
X251692Y85714D01*
X252134Y86376D01*
X252289Y87156D01*
X252134Y87937D01*
X251692Y88598D01*
X251030Y89040D01*
X250706Y90400D01*
X250826Y90579D01*
X251059Y91750D01*
X250826Y92920D01*
X250163Y93912D01*
X249170Y94576D01*
X248000Y94808D01*
X247901Y94907D01*
X247914Y96606D01*
X248000Y96691D01*
X249170Y96924D01*
X250163Y97587D01*
X250826Y98579D01*
X251059Y99750D01*
X250839Y100856D01*
X250833Y100969D01*
X250843Y101037D01*
X251429Y102304D01*
X252148Y102602D01*
X254310Y104764D01*
X255808Y104808D01*
X256470Y104366D01*
X257250Y104211D01*
X257606Y104282D01*
X258660Y103650D01*
X258742Y103556D01*
X258752Y102679D01*
X258571Y102417D01*
X257675Y101705D01*
X257250Y101789D01*
X256470Y101634D01*
X255808Y101192D01*
X255366Y100530D01*
X255211Y99750D01*
X255366Y98970D01*
X255808Y98308D01*
X256470Y97866D01*
X257250Y97711D01*
X258030Y97866D01*
X258692Y98308D01*
X259134Y98970D01*
X259289Y99750D01*
X259198Y100211D01*
X259811Y100816D01*
X260001Y100943D01*
X260227Y101051D01*
X261250Y100627D01*
X262500D01*
X262681Y100702D01*
X263951Y99853D01*
Y92250D01*
Y85750D01*
X264000Y85504D01*
Y83250D01*
X266254D01*
X266500Y83201D01*
X266746Y83250D01*
X269000D01*
Y85504D01*
X269049Y85750D01*
Y92250D01*
Y102750D01*
X271254D01*
X271500Y102701D01*
X271746Y102750D01*
X274000D01*
X274846Y101830D01*
Y99850D01*
X275060Y98777D01*
X275667Y97867D01*
X276577Y97260D01*
X277650Y97046D01*
X279400D01*
Y93454D01*
X277650D01*
X276577Y93240D01*
X275667Y92633D01*
X275060Y91723D01*
X274846Y90650D01*
Y87150D01*
X275060Y86077D01*
X275667Y85167D01*
X276577Y84560D01*
X277650Y84346D01*
X279400D01*
Y80754D01*
X277650D01*
X276577Y80540D01*
X275667Y79933D01*
X275060Y79023D01*
X274846Y77950D01*
Y74450D01*
X275060Y73377D01*
X275667Y72467D01*
X276577Y71860D01*
X277650Y71646D01*
X279400D01*
Y68054D01*
X277650D01*
X276577Y67840D01*
X275667Y67233D01*
X275060Y66323D01*
X274846Y65250D01*
Y61750D01*
X275060Y60677D01*
X275667Y59767D01*
X276577Y59160D01*
X277650Y58946D01*
X279400D01*
Y55354D01*
X277650D01*
X276577Y55140D01*
X275667Y54533D01*
X275060Y53623D01*
X274846Y52550D01*
Y49050D01*
X275060Y47977D01*
X275667Y47067D01*
X276577Y46460D01*
X277650Y46246D01*
X279400D01*
Y42654D01*
X277650D01*
X276577Y42440D01*
X275667Y41833D01*
X275060Y40923D01*
X274846Y39850D01*
Y36350D01*
X275060Y35277D01*
X275667Y34367D01*
X276577Y33760D01*
X277650Y33546D01*
X279400D01*
Y29954D01*
X277650D01*
X276577Y29740D01*
X275667Y29133D01*
X275060Y28223D01*
X274846Y27150D01*
Y23650D01*
X275060Y22577D01*
X275667Y21667D01*
X276577Y21060D01*
X277650Y20846D01*
X279400D01*
Y17254D01*
X277650D01*
X276577Y17040D01*
X275667Y16433D01*
X275060Y15523D01*
X274846Y14450D01*
Y10950D01*
X275060Y9877D01*
X275667Y8967D01*
X276577Y8360D01*
X277650Y8146D01*
X279400D01*
Y0D01*
X271254D01*
Y1750D01*
X271040Y2823D01*
X270433Y3733D01*
X269523Y4340D01*
X268450Y4554D01*
X264950D01*
X263877Y4340D01*
X262967Y3733D01*
X262360Y2823D01*
X262146Y1750D01*
Y0D01*
X258554D01*
Y1750D01*
X258340Y2823D01*
X257733Y3733D01*
X256823Y4340D01*
X255750Y4554D01*
X252250D01*
X251177Y4340D01*
X250267Y3733D01*
X249660Y2823D01*
X249446Y1750D01*
Y0D01*
X245854D01*
Y1750D01*
X245640Y2823D01*
X245033Y3733D01*
X244123Y4340D01*
X243050Y4554D01*
X239550D01*
X238477Y4340D01*
X237567Y3733D01*
X236960Y2823D01*
X236746Y1750D01*
Y0D01*
X233154D01*
Y1750D01*
X232940Y2823D01*
X232333Y3733D01*
X231423Y4340D01*
X230350Y4554D01*
X226850D01*
X225777Y4340D01*
X224867Y3733D01*
X224260Y2823D01*
X224046Y1750D01*
Y0D01*
X220454D01*
Y1750D01*
X220240Y2823D01*
X219633Y3733D01*
X218723Y4340D01*
X217650Y4554D01*
X214150D01*
X213077Y4340D01*
X212167Y3733D01*
X211560Y2823D01*
X211346Y1750D01*
Y0D01*
X207754D01*
Y1750D01*
X207540Y2823D01*
X206933Y3733D01*
X206023Y4340D01*
X204950Y4554D01*
X201450D01*
X200377Y4340D01*
X199467Y3733D01*
X198860Y2823D01*
X198646Y1750D01*
Y0D01*
X195054D01*
Y1750D01*
X194840Y2823D01*
X194233Y3733D01*
X193323Y4340D01*
X192250Y4554D01*
X188750D01*
X187677Y4340D01*
X186767Y3733D01*
X186160Y2823D01*
X185946Y1750D01*
Y0D01*
X182354D01*
Y1750D01*
X182140Y2823D01*
X181533Y3733D01*
X180623Y4340D01*
X179550Y4554D01*
X176050D01*
X174977Y4340D01*
X174067Y3733D01*
X173460Y2823D01*
X173246Y1750D01*
Y0D01*
X169654D01*
Y1750D01*
X169440Y2823D01*
X168833Y3733D01*
X167923Y4340D01*
X166850Y4554D01*
X163350D01*
X162277Y4340D01*
X161367Y3733D01*
X160760Y2823D01*
X160546Y1750D01*
Y0D01*
X156954D01*
Y1750D01*
X156740Y2823D01*
X156133Y3733D01*
X155223Y4340D01*
X154150Y4554D01*
X150650D01*
X149577Y4340D01*
X148667Y3733D01*
X148060Y2823D01*
X147846Y1750D01*
Y0D01*
X144254D01*
Y1750D01*
X144040Y2823D01*
X143433Y3733D01*
X142523Y4340D01*
X141450Y4554D01*
X137950D01*
X136877Y4340D01*
X135967Y3733D01*
X135360Y2823D01*
X135146Y1750D01*
Y0D01*
X131554D01*
Y1750D01*
X131340Y2823D01*
X130733Y3733D01*
X129823Y4340D01*
X128750Y4554D01*
X125250D01*
X124177Y4340D01*
X123267Y3733D01*
X122660Y2823D01*
X122446Y1750D01*
Y0D01*
X118854D01*
Y1750D01*
X118640Y2823D01*
X118033Y3733D01*
X117123Y4340D01*
X116050Y4554D01*
X112550D01*
X111477Y4340D01*
X110567Y3733D01*
X109960Y2823D01*
X109746Y1750D01*
Y0D01*
X106154D01*
Y1750D01*
X105940Y2823D01*
X105333Y3733D01*
X104423Y4340D01*
X103350Y4554D01*
X99850D01*
X98777Y4340D01*
X97867Y3733D01*
X97260Y2823D01*
X97046Y1750D01*
Y0D01*
X93454D01*
Y1750D01*
X93240Y2823D01*
X92633Y3733D01*
X91723Y4340D01*
X90650Y4554D01*
X87150D01*
X86077Y4340D01*
X85167Y3733D01*
X84560Y2823D01*
X84346Y1750D01*
Y0D01*
X80754D01*
Y1750D01*
X80540Y2823D01*
X79933Y3733D01*
X79023Y4340D01*
X77950Y4554D01*
X74450D01*
X73377Y4340D01*
X72467Y3733D01*
X71860Y2823D01*
X71646Y1750D01*
Y0D01*
X68054D01*
Y1750D01*
X67840Y2823D01*
X67233Y3733D01*
X66323Y4340D01*
X65250Y4554D01*
X61750D01*
X60677Y4340D01*
X59767Y3733D01*
X59160Y2823D01*
X58946Y1750D01*
Y0D01*
X55354D01*
Y1750D01*
X55140Y2823D01*
X54533Y3733D01*
X53623Y4340D01*
X52550Y4554D01*
X49050D01*
X47977Y4340D01*
X47067Y3733D01*
X46460Y2823D01*
X46246Y1750D01*
Y0D01*
X42654D01*
Y1750D01*
X42440Y2823D01*
X41833Y3733D01*
X40923Y4340D01*
X39850Y4554D01*
X36350D01*
X35277Y4340D01*
X34367Y3733D01*
X33760Y2823D01*
X33546Y1750D01*
Y0D01*
X29954D01*
Y1750D01*
X29740Y2823D01*
X29133Y3733D01*
X28223Y4340D01*
X27150Y4554D01*
X23650D01*
X22577Y4340D01*
X21667Y3733D01*
X21060Y2823D01*
X20846Y1750D01*
Y0D01*
X17254D01*
Y1750D01*
X17040Y2823D01*
X16433Y3733D01*
X15523Y4340D01*
X14450Y4554D01*
X10950D01*
X9877Y4340D01*
X8967Y3733D01*
X0Y12700D01*
Y30426D01*
X453Y30668D01*
X1270Y30976D01*
X2850Y30662D01*
X31500D01*
X33256Y31011D01*
X34744Y32006D01*
X41044Y38306D01*
X42039Y39794D01*
X42388Y41550D01*
X42039Y43306D01*
X41044Y44794D01*
X39556Y45789D01*
X37800Y46138D01*
X36044Y45789D01*
X34556Y44794D01*
X29600Y39838D01*
X4751D01*
X4508Y40081D01*
X4340Y40923D01*
X3733Y41833D01*
X2823Y42440D01*
X1750Y42654D01*
X172D01*
X0Y42688D01*
Y46246D01*
X1750D01*
X2823Y46460D01*
X3733Y47067D01*
X4340Y47977D01*
X4554Y49050D01*
Y52550D01*
X4340Y53623D01*
X3733Y54533D01*
X2823Y55140D01*
X1750Y55354D01*
X0D01*
Y58946D01*
X1750D01*
X2823Y59160D01*
X3733Y59767D01*
X4340Y60677D01*
X4554Y61750D01*
Y65250D01*
X4340Y66323D01*
X3733Y67233D01*
X2823Y67840D01*
X1750Y68054D01*
X0D01*
Y71646D01*
X1750D01*
X2823Y71860D01*
X3142Y72073D01*
X4412Y71394D01*
Y71300D01*
X4761Y69544D01*
X5756Y68056D01*
X11275Y62537D01*
X11648Y60659D01*
X12974Y58674D01*
X14959Y57348D01*
X17300Y56882D01*
X19641Y57348D01*
X21626Y58674D01*
X22952Y60659D01*
X23418Y63000D01*
X22952Y65341D01*
X21626Y67326D01*
X19641Y68652D01*
X17763Y69025D01*
X13588Y73200D01*
Y74744D01*
X14858Y75321D01*
X15739Y74732D01*
X17300Y74422D01*
X18861Y74732D01*
X20184Y75616D01*
X21068Y76939D01*
X21379Y78500D01*
X21068Y80061D01*
X20184Y81384D01*
X18861Y82268D01*
X17300Y82578D01*
X15739Y82268D01*
X14858Y81679D01*
X13588Y82256D01*
Y96250D01*
X13239Y98006D01*
X12244Y99494D01*
X6894Y104844D01*
X5406Y105839D01*
X3650Y106188D01*
X0D01*
Y109746D01*
X1750D01*
X2823Y109960D01*
X3733Y110567D01*
X4340Y111477D01*
X4554Y112550D01*
Y116050D01*
X4340Y117123D01*
X3733Y118033D01*
X2823Y118640D01*
X1750Y118854D01*
X0D01*
Y122446D01*
X1750D01*
X2823Y122660D01*
X3733Y123267D01*
X4340Y124177D01*
X4554Y125250D01*
Y128750D01*
X4340Y129823D01*
X3733Y130733D01*
X2823Y131340D01*
X1750Y131554D01*
X0D01*
Y135200D01*
X4500D01*
Y144200D01*
X0D01*
Y147846D01*
X1750D01*
X2823Y148060D01*
X3733Y148667D01*
X4340Y149577D01*
X4554Y150650D01*
Y154150D01*
X4340Y155223D01*
X3733Y156133D01*
X2823Y156740D01*
X1750Y156954D01*
X0D01*
Y160546D01*
X1750D01*
X2823Y160760D01*
X3733Y161367D01*
X4340Y162277D01*
X4554Y163350D01*
Y166850D01*
X4340Y167923D01*
X3733Y168833D01*
X2823Y169440D01*
X1750Y169654D01*
X0D01*
Y173246D01*
X1750D01*
X2823Y173460D01*
X3733Y174067D01*
X4340Y174977D01*
X4554Y176050D01*
Y179550D01*
X4340Y180623D01*
X3733Y181533D01*
X2823Y182140D01*
X1750Y182354D01*
X0D01*
Y185946D01*
X1750D01*
X2823Y186160D01*
X3733Y186767D01*
X4340Y187677D01*
X4554Y188750D01*
Y192250D01*
X4340Y193323D01*
X5260Y194233D01*
X6163Y194837D01*
X6826Y195830D01*
X7059Y197000D01*
X6826Y198171D01*
X6163Y199163D01*
X5171Y199826D01*
X5169Y199826D01*
X4340Y200377D01*
X4554Y201450D01*
Y204950D01*
X4340Y206023D01*
X4157Y206297D01*
X4193Y206676D01*
X4549Y207791D01*
X4562Y207804D01*
X4942Y208058D01*
X5384Y208720D01*
X5539Y209500D01*
X5384Y210280D01*
X4942Y210942D01*
X4515Y211227D01*
X4466Y211287D01*
X4164Y212240D01*
X4099Y212715D01*
X4340Y213077D01*
X4554Y214150D01*
Y217650D01*
X4340Y218723D01*
X3733Y219633D01*
X2823Y220240D01*
X1750Y220454D01*
X0D01*
Y224046D01*
X1750D01*
X2823Y224260D01*
X3733Y224867D01*
X4340Y225777D01*
X4554Y226850D01*
Y230350D01*
X4340Y231423D01*
X3733Y232333D01*
X2823Y232940D01*
X1750Y233154D01*
X0D01*
Y236746D01*
X1750D01*
X2823Y236960D01*
X3733Y237567D01*
X4340Y238477D01*
X4554Y239550D01*
Y243050D01*
X4340Y244123D01*
X3733Y245033D01*
X2823Y245640D01*
X1750Y245854D01*
X0D01*
Y249446D01*
X1750D01*
X2823Y249660D01*
X3733Y250267D01*
X4340Y251177D01*
X4554Y252250D01*
Y255750D01*
X4340Y256823D01*
X3733Y257733D01*
X2823Y258340D01*
X1750Y258554D01*
X0D01*
Y262146D01*
X1750D01*
X2823Y262360D01*
X3733Y262967D01*
X4340Y263877D01*
X4554Y264950D01*
Y268450D01*
X4340Y269523D01*
X3733Y270433D01*
X2823Y271040D01*
X1750Y271254D01*
X0D01*
Y279400D01*
X8146D01*
Y277650D01*
X8360Y276577D01*
X8967Y275667D01*
X9877Y275060D01*
X10950Y274846D01*
X14450D01*
X15523Y275060D01*
X16433Y275667D01*
X17040Y276577D01*
X17254Y277650D01*
Y279400D01*
X20846D01*
Y277650D01*
X21060Y276577D01*
X21667Y275667D01*
X22577Y275060D01*
X23650Y274846D01*
X27150D01*
X28223Y275060D01*
X29133Y275667D01*
X29740Y276577D01*
X29954Y277650D01*
Y279400D01*
X33546D01*
Y277650D01*
X33760Y276577D01*
X34367Y275667D01*
X35277Y275060D01*
X36350Y274846D01*
X39850D01*
X40923Y275060D01*
X41833Y275667D01*
X42440Y276577D01*
X42654Y277650D01*
Y279400D01*
X46246D01*
Y277650D01*
X46460Y276577D01*
X47067Y275667D01*
X47977Y275060D01*
X49050Y274846D01*
X52550D01*
X53623Y275060D01*
X54533Y275667D01*
X55140Y276577D01*
X55354Y277650D01*
Y279400D01*
X58946D01*
Y277650D01*
X59160Y276577D01*
X59767Y275667D01*
X60677Y275060D01*
X61750Y274846D01*
X65250D01*
X66323Y275060D01*
X67233Y275667D01*
X67840Y276577D01*
X68054Y277650D01*
Y279400D01*
X71646D01*
Y277650D01*
X71860Y276577D01*
X72467Y275667D01*
X73377Y275060D01*
X74450Y274846D01*
X77950D01*
X79023Y275060D01*
X79933Y275667D01*
X80540Y276577D01*
X80754Y277650D01*
Y279400D01*
X84346D01*
Y277650D01*
X84560Y276577D01*
X85167Y275667D01*
X85972Y275130D01*
X86079Y274590D01*
X86049Y273770D01*
X85558Y273442D01*
X85116Y272780D01*
X84961Y272000D01*
X85116Y271220D01*
X85558Y270558D01*
X86220Y270116D01*
X87000Y269961D01*
X87780Y270116D01*
X88442Y270558D01*
X88884Y271220D01*
X89039Y272000D01*
X88884Y272780D01*
X88442Y273442D01*
X88241Y273576D01*
X88626Y274846D01*
X90650D01*
X91723Y275060D01*
X92633Y275667D01*
X93240Y276577D01*
X93454Y277650D01*
Y279400D01*
X97046D01*
Y277650D01*
X97260Y276577D01*
X97867Y275667D01*
X98777Y275060D01*
X99850Y274846D01*
X103350D01*
X104423Y275060D01*
X105333Y275667D01*
X105940Y276577D01*
X106154Y277650D01*
Y279400D01*
X109746D01*
Y277650D01*
X109960Y276577D01*
X110567Y275667D01*
X111477Y275060D01*
X112550Y274846D01*
X116050D01*
X117123Y275060D01*
X118033Y275667D01*
X118640Y276577D01*
X118854Y277650D01*
Y279400D01*
X122446D01*
Y277650D01*
X122660Y276577D01*
X123267Y275667D01*
X124177Y275060D01*
X125250Y274846D01*
X128750D01*
X129823Y275060D01*
X130733Y275667D01*
X131340Y276577D01*
X131554Y277650D01*
Y279400D01*
X135146D01*
Y277650D01*
X135360Y276577D01*
X135967Y275667D01*
X136877Y275060D01*
X137950Y274846D01*
X141450D01*
X142523Y275060D01*
X143433Y275667D01*
X144040Y276577D01*
X144254Y277650D01*
Y279400D01*
X147846D01*
Y277650D01*
X148060Y276577D01*
X148667Y275667D01*
X149577Y275060D01*
X150650Y274846D01*
X154150D01*
X155223Y275060D01*
X156133Y275667D01*
X156740Y276577D01*
X156954Y277650D01*
Y279400D01*
X160546D01*
Y277650D01*
X160760Y276577D01*
X161367Y275667D01*
X162277Y275060D01*
X163350Y274846D01*
X166850D01*
X167923Y275060D01*
X168833Y275667D01*
X169440Y276577D01*
X169654Y277650D01*
Y279400D01*
X173246D01*
Y277650D01*
X173460Y276577D01*
X174067Y275667D01*
X174977Y275060D01*
X176050Y274846D01*
X179550D01*
X180623Y275060D01*
X181533Y275667D01*
X182140Y276577D01*
X182354Y277650D01*
Y279400D01*
X185946D01*
Y277650D01*
X186160Y276577D01*
X186767Y275667D01*
X187677Y275060D01*
X188750Y274846D01*
X192250D01*
X192306Y274857D01*
X192677Y273636D01*
X192102Y273398D01*
X190352Y271648D01*
X190152Y271166D01*
X189739Y271005D01*
X188703Y270851D01*
X188280Y271134D01*
X187500Y271289D01*
X186720Y271134D01*
X186058Y270692D01*
X185616Y270030D01*
X185461Y269250D01*
X185616Y268470D01*
X186058Y267808D01*
X186720Y267366D01*
X187500Y267211D01*
X188280Y267366D01*
X188606Y267584D01*
X189716Y267157D01*
X189876Y267021D01*
Y260672D01*
X189102Y259898D01*
X188626Y258750D01*
Y254250D01*
X189102Y253102D01*
X192126Y250077D01*
Y248920D01*
X191866Y248530D01*
X191711Y247750D01*
X191866Y246970D01*
X192308Y246308D01*
X192970Y245866D01*
X193750Y245711D01*
X194530Y245866D01*
X195192Y246308D01*
X195289Y246453D01*
X195881Y246520D01*
X196731Y246472D01*
X200602Y242602D01*
X201750Y242126D01*
X223150D01*
Y241250D01*
X234150D01*
Y246250D01*
X223150D01*
Y245374D01*
X202423D01*
X199374Y248423D01*
Y251750D01*
X198898Y252898D01*
X195725Y256071D01*
X195634Y256530D01*
X195192Y257192D01*
X194530Y257634D01*
X193750Y257789D01*
X193290Y257698D01*
X192583Y258787D01*
X192648Y258852D01*
X193124Y260000D01*
Y267021D01*
X193284Y267157D01*
X194394Y267584D01*
X194720Y267366D01*
X195500Y267211D01*
X196280Y267366D01*
X196942Y267808D01*
X197384Y268470D01*
X197539Y269250D01*
X197518Y269356D01*
X198397Y270626D01*
X205603D01*
X206482Y269356D01*
X206461Y269250D01*
X206616Y268470D01*
X207058Y267808D01*
X207720Y267366D01*
X208500Y267211D01*
X209280Y267366D01*
X209942Y267808D01*
X210384Y268470D01*
X210539Y269250D01*
X210518Y269356D01*
X211397Y270626D01*
X223603D01*
X224482Y269356D01*
X224461Y269250D01*
X224616Y268470D01*
X225058Y267808D01*
X225720Y267366D01*
X226500Y267211D01*
X227280Y267366D01*
X227942Y267808D01*
X228384Y268470D01*
X228539Y269250D01*
X228518Y269356D01*
X229397Y270626D01*
X243577D01*
X245876Y268328D01*
Y264250D01*
X246352Y263102D01*
X249350Y260104D01*
Y257250D01*
X260350D01*
Y262250D01*
X251796D01*
X249124Y264923D01*
Y269000D01*
X248648Y270148D01*
X245398Y273398D01*
X244380Y273820D01*
X244210Y274471D01*
X244249Y275144D01*
X245033Y275667D01*
X245640Y276577D01*
X245854Y277650D01*
Y279400D01*
X249446D01*
Y277650D01*
X249660Y276577D01*
X250267Y275667D01*
X251177Y275060D01*
X252250Y274846D01*
X255750D01*
X256823Y275060D01*
X257733Y275667D01*
X258340Y276577D01*
X258554Y277650D01*
Y279400D01*
X262146D01*
Y277650D01*
X262360Y276577D01*
X262967Y275667D01*
X263877Y275060D01*
X264950Y274846D01*
X268450D01*
X269523Y275060D01*
X270433Y275667D01*
X271040Y276577D01*
X271254Y277650D01*
Y279400D01*
X279400D01*
Y271254D01*
D02*
G37*
G36*
X153274Y231895D02*
X154250Y231701D01*
X155225Y231895D01*
X156052Y232448D01*
X156157D01*
X156440Y232107D01*
X156509Y231918D01*
X156168Y230450D01*
X155948Y230302D01*
X155395Y229475D01*
X155201Y228500D01*
X155324Y227880D01*
X154695Y227014D01*
X154368Y226775D01*
X154250Y226799D01*
X153274Y226605D01*
X152448Y226052D01*
X151052D01*
X150225Y226605D01*
X149250Y226799D01*
X148274Y226605D01*
X147448Y226052D01*
X146895Y225225D01*
X146701Y224250D01*
X146895Y223275D01*
X147448Y222448D01*
X148274Y221895D01*
X149250Y221701D01*
X150225Y221895D01*
X151052Y222448D01*
X152448D01*
X153274Y221895D01*
X154250Y221701D01*
X155225Y221895D01*
X156052Y222448D01*
X157448D01*
Y221052D01*
X156895Y220225D01*
X156701Y219250D01*
X156895Y218275D01*
X157448Y217448D01*
Y216052D01*
X156895Y215226D01*
X156701Y214250D01*
X156895Y213275D01*
X157448Y212448D01*
X158274Y211895D01*
X159250Y211701D01*
X160225Y211895D01*
X161052Y212448D01*
X161605Y213275D01*
X161799Y214250D01*
X161605Y215226D01*
X161052Y216052D01*
Y217448D01*
X161329Y217862D01*
X162231Y218189D01*
X162866Y218103D01*
X163220Y217866D01*
X164000Y217711D01*
X164780Y217866D01*
X165442Y218308D01*
X165559Y218483D01*
X166895Y218274D01*
X167447Y217448D01*
Y216052D01*
X166895Y215226D01*
X166701Y214250D01*
X166895Y213275D01*
X167447Y212448D01*
Y211052D01*
X166895Y210225D01*
X166701Y209250D01*
X166895Y208275D01*
X167447Y207448D01*
Y206317D01*
X167020Y205922D01*
X165661Y206395D01*
X165634Y206530D01*
X165192Y207192D01*
X164530Y207634D01*
X163750Y207789D01*
X162970Y207634D01*
X162308Y207192D01*
X162046Y206800D01*
X161939Y206719D01*
X160985Y206438D01*
X160544Y206392D01*
X160225Y206605D01*
X159250Y206799D01*
X158274Y206605D01*
X157802Y206289D01*
X156000D01*
X155220Y206134D01*
X154558Y205692D01*
X154058Y205192D01*
X154058Y205192D01*
X152808Y203942D01*
X152366Y203280D01*
X152211Y202500D01*
Y200698D01*
X151895Y200225D01*
X151701Y199250D01*
X150970Y198134D01*
X150308Y197692D01*
X149866Y197030D01*
X149711Y196250D01*
X149831Y195644D01*
X149080Y194852D01*
X148943Y194739D01*
X147715Y195243D01*
X147686Y195270D01*
X147634Y195530D01*
X147192Y196192D01*
X146800Y196454D01*
X146719Y196561D01*
X146438Y197515D01*
X146392Y197956D01*
X146605Y198275D01*
X146799Y199250D01*
X146605Y200225D01*
X146052Y201052D01*
X145225Y201605D01*
X144250Y201799D01*
X143274Y201605D01*
X142448Y201052D01*
X141052D01*
X140225Y201605D01*
X139250Y201799D01*
X138274Y201605D01*
X137448Y201052D01*
X136052D01*
Y202448D01*
X136605Y203275D01*
X136799Y204250D01*
X136788Y204305D01*
X136964Y204579D01*
X137888Y205283D01*
X138250Y205211D01*
X139030Y205366D01*
X139692Y205808D01*
X140134Y206470D01*
X140289Y207250D01*
X140134Y208030D01*
X139692Y208692D01*
X139030Y209134D01*
X138250Y209289D01*
X137997Y209239D01*
X137373Y209245D01*
X136630Y210100D01*
X136605Y210225D01*
X136052Y211052D01*
X135225Y211605D01*
X134250Y211799D01*
X133274Y211605D01*
X132448Y211052D01*
X131895Y210225D01*
X131701Y209250D01*
X131895Y208275D01*
X132448Y207448D01*
Y206052D01*
X131895Y205225D01*
X131701Y204250D01*
X131895Y203275D01*
X132448Y202448D01*
Y201052D01*
X131895Y200225D01*
X131701Y199250D01*
X131824Y198631D01*
X131413Y198115D01*
X131074Y197819D01*
X130818Y197676D01*
X130250Y197789D01*
X129470Y197634D01*
X128808Y197192D01*
X128366Y196530D01*
X128211Y195750D01*
X128366Y194970D01*
X128808Y194308D01*
X129470Y193866D01*
X130250Y193711D01*
X131030Y193866D01*
X131875Y194229D01*
X132720Y193866D01*
X133500Y193711D01*
X134281Y193866D01*
X134942Y194308D01*
X135384Y194970D01*
X135539Y195750D01*
X135401Y196448D01*
X135760Y196907D01*
X136299Y197448D01*
X137448D01*
X138274Y196895D01*
X139250Y196701D01*
X140225Y196895D01*
X141052Y197448D01*
X142174D01*
X143261Y196904D01*
X143264Y196902D01*
X143274Y196895D01*
X143866Y195530D01*
X143857Y195484D01*
X143711Y194750D01*
X143740Y194603D01*
X142597Y193839D01*
X142530Y193884D01*
X141750Y194039D01*
X140970Y193884D01*
X140308Y193442D01*
X139866Y192780D01*
X139250Y191799D01*
X138274Y191605D01*
X137448Y191052D01*
X136052D01*
X135225Y191605D01*
X134250Y191799D01*
X133274Y191605D01*
X132448Y191052D01*
X131052D01*
X130225Y191605D01*
X129250Y191799D01*
X128274Y191605D01*
X127448Y191052D01*
X126052D01*
Y192448D01*
X126605Y193275D01*
X126799Y194250D01*
X126605Y195225D01*
X126052Y196052D01*
Y197448D01*
X126605Y198275D01*
X126799Y199250D01*
X126605Y200225D01*
X126052Y201052D01*
Y202448D01*
X126605Y203275D01*
X126799Y204250D01*
X126605Y205225D01*
X126052Y206052D01*
Y207448D01*
X126605Y208275D01*
X126799Y209250D01*
X126605Y210225D01*
X126052Y211052D01*
Y212448D01*
X126605Y213275D01*
X126799Y214250D01*
X126605Y215226D01*
X126052Y216052D01*
Y217448D01*
X126605Y218275D01*
X126799Y219250D01*
X126605Y220225D01*
X126052Y221052D01*
Y222401D01*
X126624Y222875D01*
X126844Y222892D01*
X128063Y222675D01*
X128308Y222308D01*
X128970Y221866D01*
X129750Y221711D01*
X130530Y221866D01*
X131068Y222226D01*
X131192Y222308D01*
X131192Y222308D01*
X131708Y221969D01*
X131995Y220375D01*
X131895Y220225D01*
X131701Y219250D01*
X131895Y218275D01*
X132448Y217448D01*
X133274Y216895D01*
X134250Y216701D01*
X135225Y216895D01*
X135698Y217211D01*
X135750D01*
X136530Y217366D01*
X137192Y217808D01*
X138742Y219358D01*
X140280Y219100D01*
X140308Y219058D01*
X140970Y218616D01*
X141750Y218461D01*
X142530Y218616D01*
X143192Y219058D01*
X143634Y219720D01*
X143789Y220500D01*
X143634Y221280D01*
X143192Y221942D01*
X142535Y222381D01*
X142530Y222384D01*
X142344Y222563D01*
X141700Y223715D01*
X141699Y223746D01*
X141799Y224250D01*
X141605Y225225D01*
X141052Y226052D01*
X140225Y226605D01*
X139250Y226799D01*
X138274Y226605D01*
X137448Y226052D01*
X136052D01*
X135225Y226605D01*
X134250Y226799D01*
X133274Y226605D01*
X132448Y226052D01*
X132296Y225826D01*
X131617Y225436D01*
X130629Y225830D01*
X130520Y227092D01*
X131052Y227448D01*
X131605Y228275D01*
X131799Y229250D01*
X131605Y230225D01*
X131052Y231052D01*
Y232448D01*
X132448D01*
X133274Y231895D01*
X134250Y231701D01*
X135288Y230613D01*
X135366Y230220D01*
X135808Y229558D01*
X136470Y229116D01*
X137250Y228961D01*
X138030Y229116D01*
X138692Y229558D01*
X139046Y230088D01*
X139134Y230220D01*
X139134Y230220D01*
X139289Y231000D01*
X140225Y231895D01*
X140341Y231972D01*
X141052Y232448D01*
X142448D01*
X143112Y232004D01*
X143274Y231895D01*
X143275Y231895D01*
X144211Y231250D01*
X144366Y230470D01*
X144366Y230470D01*
X144473Y230310D01*
X144808Y229808D01*
X145470Y229366D01*
X146250Y229211D01*
X147030Y229366D01*
X147692Y229808D01*
X148134Y230470D01*
X148164Y230622D01*
X149250Y231701D01*
X150225Y231895D01*
X151052Y232448D01*
X152448D01*
X153274Y231895D01*
D02*
G37*
%LPC*%
G36*
X14250Y273039D02*
X13470Y272884D01*
X12808Y272442D01*
X12366Y271780D01*
X12211Y271000D01*
X12366Y270220D01*
X12808Y269558D01*
X13470Y269116D01*
X14250Y268961D01*
X15030Y269116D01*
X15692Y269558D01*
X16134Y270220D01*
X16289Y271000D01*
X16134Y271780D01*
X15692Y272442D01*
X15030Y272884D01*
X14250Y273039D01*
D02*
G37*
G36*
X169500Y271289D02*
X168720Y271134D01*
X168058Y270692D01*
X167616Y270030D01*
X167461Y269250D01*
X167616Y268470D01*
X168058Y267808D01*
X168720Y267366D01*
X169500Y267211D01*
X170280Y267366D01*
X170942Y267808D01*
X171384Y268470D01*
X171539Y269250D01*
X171384Y270030D01*
X170942Y270692D01*
X170280Y271134D01*
X169500Y271289D01*
D02*
G37*
G36*
X161500D02*
X160720Y271134D01*
X160058Y270692D01*
X159616Y270030D01*
X159461Y269250D01*
X159616Y268470D01*
X160058Y267808D01*
X160720Y267366D01*
X161500Y267211D01*
X162280Y267366D01*
X162942Y267808D01*
X163384Y268470D01*
X163539Y269250D01*
X163384Y270030D01*
X162942Y270692D01*
X162280Y271134D01*
X161500Y271289D01*
D02*
G37*
G36*
X117500D02*
X116720Y271134D01*
X116058Y270692D01*
X115616Y270030D01*
X115461Y269250D01*
X115616Y268470D01*
X116058Y267808D01*
X116720Y267366D01*
X117500Y267211D01*
X118280Y267366D01*
X118942Y267808D01*
X119384Y268470D01*
X119539Y269250D01*
X119384Y270030D01*
X118942Y270692D01*
X118280Y271134D01*
X117500Y271289D01*
D02*
G37*
G36*
X143500Y271289D02*
X142720Y271134D01*
X142058Y270692D01*
X141616Y270030D01*
X141461Y269250D01*
X141616Y268470D01*
X142058Y267808D01*
X142720Y267366D01*
X143500Y267211D01*
X144280Y267366D01*
X144942Y267808D01*
X145384Y268470D01*
X145539Y269250D01*
X145384Y270030D01*
X144942Y270692D01*
X144280Y271134D01*
X143500Y271289D01*
D02*
G37*
G36*
X57000Y271500D02*
X52000D01*
Y266500D01*
X52000Y266500D01*
X52053Y265577D01*
X51112Y265592D01*
X50450Y266034D01*
X49670Y266189D01*
X48890Y266034D01*
X48228Y265592D01*
X47834Y265003D01*
X47271Y264930D01*
X47069D01*
X46505Y265003D01*
X46112Y265592D01*
X45450Y266034D01*
X44670Y266189D01*
X43890Y266034D01*
X43228Y265592D01*
X42834Y265003D01*
X42271Y264930D01*
X42069D01*
X41506Y265003D01*
X41112Y265592D01*
X40450Y266034D01*
X39750Y266500D01*
Y271500D01*
X34750D01*
Y266500D01*
X35655D01*
X36102Y265422D01*
X37695Y263829D01*
X37786Y263370D01*
X38228Y262708D01*
X38890Y262266D01*
X39670Y262111D01*
X40450Y262266D01*
X41112Y262708D01*
X41506Y263297D01*
X42069Y263370D01*
X42271D01*
X42834Y263297D01*
X43228Y262708D01*
X43890Y262266D01*
X44670Y262111D01*
X45450Y262266D01*
X46112Y262708D01*
X46505Y263297D01*
X47069Y263370D01*
X47271D01*
X47834Y263297D01*
X48228Y262708D01*
X48890Y262266D01*
X49670Y262111D01*
X50450Y262266D01*
X51112Y262708D01*
X51506Y263297D01*
X52069Y263370D01*
X52271D01*
X52834Y263297D01*
X53228Y262708D01*
X53890Y262266D01*
X54670Y262111D01*
X55450Y262266D01*
X56112Y262708D01*
X56506Y263297D01*
X57069Y263370D01*
X57271D01*
X57834Y263297D01*
X58228Y262708D01*
X58890Y262266D01*
X59670Y262111D01*
X60450Y262266D01*
X61112Y262708D01*
X61554Y263370D01*
X61709Y264150D01*
X61554Y264930D01*
X61112Y265592D01*
X60450Y266034D01*
X59670Y266189D01*
X58890Y266034D01*
X58228Y265592D01*
X57135Y265575D01*
X57000Y266500D01*
X57000D01*
Y271500D01*
D02*
G37*
G36*
X25000Y268809D02*
X23830Y268576D01*
X22837Y267913D01*
X22174Y266921D01*
X21941Y265750D01*
X22174Y264580D01*
X22837Y263587D01*
X23830Y262924D01*
X25000Y262691D01*
X26170Y262924D01*
X27163Y263587D01*
X27826Y264580D01*
X28059Y265750D01*
X27826Y266921D01*
X27163Y267913D01*
X26170Y268576D01*
X25000Y268809D01*
D02*
G37*
G36*
X72000Y271250D02*
X67000D01*
Y266250D01*
X67631D01*
Y264150D01*
X67786Y263370D01*
X68228Y262708D01*
X68890Y262266D01*
X69670Y262111D01*
X70450Y262266D01*
X71112Y262708D01*
X71505Y263297D01*
X72069Y263370D01*
X72271D01*
X72834Y263297D01*
X73228Y262708D01*
X73890Y262266D01*
X74670Y262111D01*
X75450Y262266D01*
X76112Y262708D01*
X76554Y263370D01*
X76709Y264150D01*
X76554Y264930D01*
X76112Y265592D01*
X75450Y266034D01*
X74670Y266189D01*
X73890Y266034D01*
X73228Y265592D01*
X72074Y266151D01*
X72000Y266250D01*
Y271250D01*
D02*
G37*
G36*
X135250Y262289D02*
X134470Y262134D01*
X133808Y261692D01*
X133366Y261030D01*
X133211Y260250D01*
X133366Y259470D01*
X133808Y258808D01*
X134470Y258366D01*
X135250Y258211D01*
X136030Y258366D01*
X136692Y258808D01*
X137134Y259470D01*
X137289Y260250D01*
X137134Y261030D01*
X136692Y261692D01*
X136030Y262134D01*
X135250Y262289D01*
D02*
G37*
G36*
X149250Y262289D02*
X148470Y262134D01*
X147808Y261692D01*
X147366Y261030D01*
X147211Y260250D01*
X147366Y259470D01*
X147808Y258808D01*
X148470Y258366D01*
X149250Y258211D01*
X150030Y258366D01*
X150692Y258808D01*
X151134Y259470D01*
X151289Y260250D01*
X151134Y261030D01*
X150692Y261692D01*
X150030Y262134D01*
X149250Y262289D01*
D02*
G37*
G36*
X270250Y259539D02*
X269470Y259384D01*
X268808Y258942D01*
X268366Y258280D01*
X268211Y257500D01*
X268366Y256720D01*
X268808Y256058D01*
X269470Y255616D01*
X270250Y255461D01*
X271030Y255616D01*
X271692Y256058D01*
X272134Y256720D01*
X272289Y257500D01*
X272134Y258280D01*
X271692Y258942D01*
X271030Y259384D01*
X270250Y259539D01*
D02*
G37*
G36*
X183750Y253789D02*
X182970Y253634D01*
X182308Y253192D01*
X181866Y252530D01*
X181711Y251750D01*
X181866Y250970D01*
X182308Y250308D01*
X182970Y249866D01*
X183750Y249711D01*
X184530Y249866D01*
X185192Y250308D01*
X185634Y250970D01*
X185789Y251750D01*
X185634Y252530D01*
X185192Y253192D01*
X184530Y253634D01*
X183750Y253789D01*
D02*
G37*
G36*
X260350Y254250D02*
X249350D01*
Y249250D01*
X260350D01*
Y254250D01*
D02*
G37*
G36*
X234150D02*
X223150D01*
Y249250D01*
X234150D01*
Y254250D01*
D02*
G37*
G36*
X20500Y239539D02*
X19720Y239384D01*
X19058Y238942D01*
X18616Y238280D01*
X18461Y237500D01*
X18616Y236720D01*
X19058Y236058D01*
X19720Y235616D01*
X20500Y235461D01*
X21280Y235616D01*
X21942Y236058D01*
X22384Y236720D01*
X22539Y237500D01*
X22384Y238280D01*
X21942Y238942D01*
X21280Y239384D01*
X20500Y239539D01*
D02*
G37*
G36*
X32170Y233689D02*
X31390Y233534D01*
X30728Y233092D01*
X30286Y232430D01*
X30131Y231650D01*
X30286Y230870D01*
X30728Y230208D01*
X31390Y229766D01*
X32170Y229611D01*
X32950Y229766D01*
X33612Y230208D01*
X34054Y230870D01*
X34209Y231650D01*
X34054Y232430D01*
X33612Y233092D01*
X32950Y233534D01*
X32170Y233689D01*
D02*
G37*
G36*
X185750Y234539D02*
X184970Y234384D01*
X184308Y233942D01*
X183866Y233280D01*
X183711Y232500D01*
X183866Y231720D01*
X184308Y231058D01*
X184970Y230616D01*
X185750Y230461D01*
X186530Y230616D01*
X187192Y231058D01*
X188116Y230280D01*
X187961Y229500D01*
X188116Y228720D01*
X188558Y228058D01*
X189220Y227616D01*
X190000Y227461D01*
X190780Y227616D01*
X191442Y228058D01*
X191884Y228720D01*
X192039Y229500D01*
X191884Y230280D01*
X191442Y230942D01*
X190780Y231384D01*
X190000Y231539D01*
X189220Y231384D01*
X188558Y230942D01*
X187634Y231720D01*
X187789Y232500D01*
X187634Y233280D01*
X187192Y233942D01*
X186530Y234384D01*
X185750Y234539D01*
D02*
G37*
G36*
X260350Y246250D02*
X249350D01*
Y241250D01*
X252811D01*
Y238250D01*
X249350D01*
Y233250D01*
X260350D01*
Y233711D01*
X263500D01*
Y233500D01*
X263961D01*
Y231500D01*
X263500D01*
Y227592D01*
X262230Y227066D01*
X260648Y228648D01*
X259500Y229124D01*
X233423D01*
X231624Y230923D01*
Y233250D01*
X234150D01*
Y238250D01*
X223150D01*
Y237374D01*
X209500D01*
X208352Y236898D01*
X204852Y233398D01*
X204376Y232250D01*
Y220672D01*
X201429Y217725D01*
X200970Y217634D01*
X200308Y217192D01*
X199866Y216530D01*
X199711Y215750D01*
X199848Y215059D01*
X199842Y214931D01*
X199127Y213789D01*
X197750D01*
X196970Y213634D01*
X196308Y213192D01*
X196308Y213192D01*
X195674Y212557D01*
X195309Y212550D01*
X194170Y212850D01*
X193942Y213192D01*
X193280Y213634D01*
X192500Y213789D01*
X191720Y213634D01*
X191058Y213192D01*
X190616Y212530D01*
X190461Y211750D01*
X190616Y210970D01*
X191058Y210308D01*
X191404Y210077D01*
X191732Y209756D01*
X191873Y208541D01*
X191866Y208530D01*
X191711Y207750D01*
X191866Y206970D01*
X192141Y206559D01*
X191844Y205660D01*
X191578Y205289D01*
X189250D01*
X188469Y205134D01*
X187808Y204692D01*
X187808Y204692D01*
X184308Y201192D01*
X183866Y200530D01*
X183711Y199750D01*
X183866Y198970D01*
X184308Y198308D01*
X184970Y197866D01*
X185750Y197711D01*
X186530Y197866D01*
X187192Y198308D01*
X190094Y201210D01*
X198805D01*
X198986Y201094D01*
X199749Y199940D01*
X199711Y199750D01*
X199866Y198970D01*
X200308Y198308D01*
X203309Y195308D01*
X203309Y195308D01*
X203970Y194866D01*
X204750Y194710D01*
X208367D01*
X208680Y193440D01*
X208308Y193192D01*
X207866Y192530D01*
X207711Y191750D01*
X207866Y190970D01*
X208308Y190308D01*
X208970Y189866D01*
X209750Y189711D01*
X210530Y189866D01*
X211192Y190308D01*
X211634Y190970D01*
X211670Y191150D01*
X213015Y191601D01*
X215250Y189366D01*
Y187750D01*
X220250D01*
Y192750D01*
X218547D01*
X218393Y192980D01*
X219072Y194249D01*
X220250D01*
Y199249D01*
X215250D01*
Y198789D01*
X205595D01*
X204443Y199940D01*
X204969Y201210D01*
X215250D01*
Y200750D01*
X220250D01*
Y205750D01*
X215250D01*
Y205289D01*
X211922D01*
X211656Y205660D01*
X211360Y206559D01*
X211634Y206970D01*
X211789Y207750D01*
X211634Y208530D01*
X211192Y209192D01*
X210530Y209634D01*
X209750Y209789D01*
X208970Y209634D01*
X208308Y209192D01*
X207866Y208530D01*
X207711Y207750D01*
X207866Y206970D01*
X208141Y206559D01*
X207844Y205660D01*
X207578Y205289D01*
X195922D01*
X195718Y205574D01*
X195443Y206559D01*
X198595Y209711D01*
X206250D01*
X207030Y209866D01*
X207692Y210308D01*
X210848Y213464D01*
X212018Y212838D01*
X211951Y212500D01*
X212145Y211525D01*
X212698Y210698D01*
X213524Y210145D01*
X214082Y210034D01*
X215250Y208866D01*
Y207250D01*
X220250D01*
Y212250D01*
X220208D01*
X219529Y213520D01*
X219683Y213750D01*
X220250D01*
Y218750D01*
X217879D01*
X217405Y219859D01*
X218140Y220750D01*
X221250D01*
Y225750D01*
X216250D01*
Y224634D01*
X210467Y218851D01*
X208942Y218942D01*
X208280Y219384D01*
X207624Y220000D01*
X207624Y220711D01*
Y231577D01*
X210173Y234126D01*
X215521D01*
X215657Y233966D01*
X216084Y232856D01*
X215866Y232530D01*
X215711Y231750D01*
X215866Y230970D01*
X216308Y230308D01*
X216970Y229866D01*
X217750Y229711D01*
X218530Y229866D01*
X219192Y230308D01*
X219634Y230970D01*
X219789Y231750D01*
X219634Y232530D01*
X219416Y232856D01*
X219844Y233966D01*
X219979Y234126D01*
X222320D01*
X223150Y233250D01*
X223757Y231980D01*
X223711Y231750D01*
X223866Y230970D01*
X224308Y230308D01*
X224970Y229866D01*
X225750Y229711D01*
X226530Y229866D01*
X227106Y230251D01*
X227472Y230251D01*
X228493Y229969D01*
X228852Y229102D01*
X231602Y226352D01*
X232750Y225876D01*
X239238D01*
X239917Y224606D01*
X239866Y224530D01*
X239711Y223750D01*
X239749Y223559D01*
X238986Y222405D01*
X238805Y222289D01*
X235500D01*
X234720Y222134D01*
X234519Y222000D01*
X232405D01*
X231789Y222750D01*
X231634Y223530D01*
X231192Y224192D01*
X230530Y224634D01*
X229750Y224789D01*
X229014Y224643D01*
X228964Y224637D01*
X227636Y225270D01*
X227634Y225280D01*
X227192Y225942D01*
X226530Y226384D01*
X225750Y226539D01*
X224970Y226384D01*
X224308Y225942D01*
X223866Y225280D01*
X223711Y224500D01*
X223866Y223720D01*
X224308Y223058D01*
X224970Y222616D01*
X225750Y222461D01*
X226209Y222552D01*
X227063Y221841D01*
X227250Y221569D01*
Y217000D01*
X232711D01*
Y215500D01*
X232250D01*
Y210500D01*
X237250D01*
Y210961D01*
X242250D01*
Y205500D01*
X253250D01*
Y209461D01*
X257250D01*
Y205500D01*
X268250D01*
Y207903D01*
X269462Y208612D01*
X269520Y208606D01*
X270250Y208461D01*
X271030Y208616D01*
X271692Y209058D01*
X272134Y209720D01*
X272289Y210500D01*
X272134Y211280D01*
X271692Y211942D01*
X271030Y212384D01*
X270250Y212539D01*
X269520Y212394D01*
X269462Y212388D01*
X268250Y213096D01*
Y215903D01*
X269462Y216612D01*
X269520Y216606D01*
X270250Y216461D01*
X271030Y216616D01*
X271692Y217058D01*
X272134Y217719D01*
X272289Y218500D01*
X272134Y219280D01*
X271692Y219942D01*
X271692Y219942D01*
X269942Y221692D01*
X269280Y222134D01*
X268500Y222289D01*
Y231500D01*
X268039D01*
Y233500D01*
X268500D01*
Y234461D01*
X270250D01*
X271030Y234616D01*
X271692Y235058D01*
X272134Y235720D01*
X272289Y236500D01*
X272134Y237280D01*
X271692Y237942D01*
X271030Y238384D01*
X270250Y238539D01*
X266500D01*
X266303Y238500D01*
X263500D01*
Y237789D01*
X260350D01*
Y238250D01*
X256889D01*
Y241250D01*
X260350D01*
Y246250D01*
D02*
G37*
G36*
X106000Y227039D02*
X105220Y226884D01*
X104558Y226442D01*
X104116Y225780D01*
X103961Y225000D01*
X104116Y224220D01*
X104558Y223558D01*
X105220Y223116D01*
X106000Y222961D01*
X106780Y223116D01*
X107442Y223558D01*
X107884Y224220D01*
X108039Y225000D01*
X107884Y225780D01*
X107442Y226442D01*
X106780Y226884D01*
X106000Y227039D01*
D02*
G37*
G36*
Y220539D02*
X105220Y220384D01*
X104558Y219942D01*
X104116Y219280D01*
X103961Y218500D01*
X104116Y217720D01*
X104558Y217058D01*
X105220Y216616D01*
X106000Y216461D01*
X106780Y216616D01*
X107442Y217058D01*
X107884Y217720D01*
X108039Y218500D01*
X107884Y219280D01*
X107442Y219942D01*
X106780Y220384D01*
X106000Y220539D01*
D02*
G37*
G36*
X69670Y218939D02*
X68890Y218784D01*
X68228Y218342D01*
X67786Y217680D01*
X67631Y216900D01*
X67786Y216120D01*
X68228Y215458D01*
X68890Y215016D01*
X69670Y214861D01*
X70450Y215016D01*
X71112Y215458D01*
X71554Y216120D01*
X71709Y216900D01*
X71554Y217680D01*
X71112Y218342D01*
X70450Y218784D01*
X69670Y218939D01*
D02*
G37*
G36*
X20500Y214539D02*
X19720Y214384D01*
X19058Y213942D01*
X18616Y213280D01*
X18461Y212500D01*
X18616Y211719D01*
X19058Y211058D01*
X19720Y210616D01*
X20500Y210460D01*
X21280Y210616D01*
X21942Y211058D01*
X22384Y211719D01*
X22539Y212500D01*
X22384Y213280D01*
X21942Y213942D01*
X21280Y214384D01*
X20500Y214539D01*
D02*
G37*
G36*
X93000Y213789D02*
X92220Y213634D01*
X91558Y213192D01*
X91116Y212530D01*
X90961Y211750D01*
X91116Y210970D01*
X91558Y210308D01*
X92220Y209866D01*
X93000Y209711D01*
X93780Y209866D01*
X94442Y210308D01*
X94884Y210970D01*
X95039Y211750D01*
X94884Y212530D01*
X94442Y213192D01*
X93780Y213634D01*
X93000Y213789D01*
D02*
G37*
G36*
X226250Y213789D02*
X225469Y213634D01*
X224808Y213192D01*
X224366Y212530D01*
X224211Y211750D01*
X224366Y210970D01*
X224808Y210308D01*
X225469Y209866D01*
X225472Y209865D01*
X226579Y209374D01*
X226579D01*
X226579Y209374D01*
X226579D01*
X227250Y208615D01*
X227250Y208089D01*
X227250D01*
X227250Y208049D01*
Y204000D01*
X232250D01*
Y209000D01*
X228361D01*
X228358Y209000D01*
X228358D01*
X228020Y209000D01*
X227714Y210007D01*
D01*
X227714Y210007D01*
X228134Y210970D01*
X228169Y211144D01*
X228289Y211750D01*
X228134Y212530D01*
X227692Y213192D01*
X227030Y213634D01*
X226250Y213789D01*
D02*
G37*
G36*
X77500Y208039D02*
X76720Y207884D01*
X76058Y207442D01*
X75616Y206780D01*
X75461Y206000D01*
X75616Y205220D01*
X76058Y204558D01*
X76720Y204116D01*
X77500Y203961D01*
X78280Y204116D01*
X78942Y204558D01*
X79384Y205220D01*
X79539Y206000D01*
X79384Y206780D01*
X78942Y207442D01*
X78280Y207884D01*
X77500Y208039D01*
D02*
G37*
G36*
X46250Y208039D02*
X45470Y207884D01*
X44808Y207442D01*
X44366Y206780D01*
X44211Y206000D01*
X44366Y205219D01*
X44808Y204558D01*
X45470Y204116D01*
X46250Y203961D01*
X47031Y204116D01*
X47692Y204558D01*
X48134Y205219D01*
X48289Y206000D01*
X48134Y206780D01*
X47692Y207442D01*
X47031Y207884D01*
X46250Y208039D01*
D02*
G37*
G36*
X106000Y207539D02*
X105220Y207384D01*
X104558Y206942D01*
X104116Y206280D01*
X103961Y205500D01*
X104116Y204720D01*
X104558Y204058D01*
X105220Y203616D01*
X106000Y203461D01*
X106780Y203616D01*
X107442Y204058D01*
X107884Y204720D01*
X108039Y205500D01*
X107884Y206280D01*
X107442Y206942D01*
X106780Y207384D01*
X106000Y207539D01*
D02*
G37*
G36*
X14500Y207039D02*
X13720Y206884D01*
X13058Y206442D01*
X12616Y205780D01*
X12461Y205000D01*
X12616Y204220D01*
X13058Y203558D01*
X13187Y203472D01*
X13507Y202368D01*
X13383Y201930D01*
X13116Y201530D01*
X12961Y200750D01*
X13116Y199970D01*
X13558Y199308D01*
X14220Y198866D01*
X15000Y198711D01*
X15780Y198866D01*
X16442Y199308D01*
X16884Y199970D01*
X17039Y200750D01*
X16884Y201530D01*
X16442Y202192D01*
X16313Y202278D01*
X15993Y203382D01*
X16117Y203820D01*
X16384Y204220D01*
X16539Y205000D01*
X16384Y205780D01*
X15942Y206442D01*
X15280Y206884D01*
X14500Y207039D01*
D02*
G37*
G36*
X232250Y202500D02*
X227250D01*
Y197500D01*
X232250D01*
Y202500D01*
D02*
G37*
G36*
X92750Y200039D02*
X91970Y199884D01*
X91308Y199442D01*
X90866Y198780D01*
X90711Y198000D01*
X90866Y197220D01*
X91308Y196558D01*
X91970Y196116D01*
X92750Y195961D01*
X93531Y196116D01*
X94192Y196558D01*
X94634Y197220D01*
X94789Y198000D01*
X94634Y198780D01*
X94192Y199442D01*
X93531Y199884D01*
X92750Y200039D01*
D02*
G37*
G36*
X107500Y197789D02*
X106720Y197634D01*
X106058Y197192D01*
X105616Y196530D01*
X105461Y195750D01*
X105616Y194970D01*
X106058Y194308D01*
X106720Y193866D01*
X107500Y193711D01*
X108280Y193866D01*
X108942Y194308D01*
X109384Y194970D01*
X109539Y195750D01*
X109384Y196530D01*
X108942Y197192D01*
X108280Y197634D01*
X107500Y197789D01*
D02*
G37*
G36*
X62250Y193290D02*
X61470Y193134D01*
X60808Y192692D01*
X59692D01*
X59030Y193134D01*
X58250Y193290D01*
X57470Y193134D01*
X56808Y192692D01*
X55692D01*
X55030Y193134D01*
X54250Y193290D01*
X53470Y193134D01*
X52808Y192692D01*
X51692D01*
X51031Y193134D01*
X50250Y193290D01*
X49470Y193134D01*
X48808Y192692D01*
X47692D01*
X47031Y193134D01*
X46250Y193290D01*
X45470Y193134D01*
X44808Y192692D01*
X43692D01*
X43031Y193134D01*
X42250Y193290D01*
X41470Y193134D01*
X40808Y192692D01*
X39692D01*
X39030Y193134D01*
X38250Y193290D01*
X37470Y193134D01*
X36808Y192692D01*
X35692D01*
X35031Y193134D01*
X34250Y193290D01*
X33470Y193134D01*
X32808Y192692D01*
X32366Y192031D01*
X32211Y191250D01*
X32366Y190470D01*
X32808Y189808D01*
X33470Y189366D01*
X34250Y189211D01*
X35031Y189366D01*
X35692Y189808D01*
X36808D01*
X37470Y189366D01*
X38250Y189211D01*
X39030Y189366D01*
X39692Y189808D01*
X40808D01*
X41470Y189366D01*
X42250Y189211D01*
X43031Y189366D01*
X43692Y189808D01*
X44808D01*
X45470Y189366D01*
X46250Y189211D01*
X47031Y189366D01*
X47692Y189808D01*
X48808D01*
X49470Y189366D01*
X50250Y189211D01*
X51031Y189366D01*
X51692Y189808D01*
X52808D01*
X53470Y189366D01*
X54250Y189211D01*
X55030Y189366D01*
X55692Y189808D01*
X56808D01*
X57470Y189366D01*
X58250Y189211D01*
X59030Y189366D01*
X59692Y189808D01*
X60808D01*
X61470Y189366D01*
X62250Y189211D01*
X63031Y189366D01*
X63142Y189441D01*
X63972Y189630D01*
X64763Y189126D01*
X64808Y189058D01*
X65470Y188616D01*
X66250Y188461D01*
X67031Y188616D01*
X67692Y189058D01*
X68134Y189720D01*
X68289Y190500D01*
X68134Y191281D01*
X67692Y191942D01*
X67031Y192384D01*
X66250Y192540D01*
X65470Y192384D01*
X65359Y192310D01*
X64528Y192121D01*
X63737Y192625D01*
X63692Y192692D01*
X63031Y193134D01*
X62250Y193290D01*
D02*
G37*
G36*
X70250Y196039D02*
X69470Y195884D01*
X68808Y195442D01*
X68366Y194780D01*
X68211Y194000D01*
X68366Y193220D01*
X68808Y192558D01*
X69470Y192116D01*
X70250Y191961D01*
X71030Y192116D01*
X71692Y192558D01*
X72134Y193220D01*
X72289Y194000D01*
X72134Y194780D01*
X71692Y195442D01*
X71030Y195884D01*
X70250Y196039D01*
D02*
G37*
G36*
X270250Y194539D02*
X269470Y194384D01*
X268808Y193942D01*
X268366Y193280D01*
X268211Y192500D01*
X268366Y191720D01*
X268808Y191058D01*
X269470Y190616D01*
X270250Y190461D01*
X271030Y190616D01*
X271692Y191058D01*
X272134Y191720D01*
X272289Y192500D01*
X272134Y193280D01*
X271692Y193942D01*
X271030Y194384D01*
X270250Y194539D01*
D02*
G37*
G36*
X192500Y189789D02*
X191720Y189634D01*
X191058Y189192D01*
X190442D01*
X189780Y189634D01*
X189000Y189789D01*
X188220Y189634D01*
X187558Y189192D01*
X187116Y188530D01*
X186961Y187750D01*
X187116Y186970D01*
X187558Y186308D01*
X188220Y185866D01*
X189000Y185711D01*
X189780Y185866D01*
X190442Y186308D01*
X191058D01*
X191720Y185866D01*
X192500Y185711D01*
X193280Y185866D01*
X193942Y186308D01*
X194384Y186970D01*
X194539Y187750D01*
X194384Y188530D01*
X193942Y189192D01*
X193280Y189634D01*
X192500Y189789D01*
D02*
G37*
G36*
X83250Y191289D02*
X82470Y191134D01*
X81808Y190692D01*
X81366Y190031D01*
X81211Y189250D01*
X81366Y188470D01*
X81808Y187808D01*
X82470Y187366D01*
X83250Y187211D01*
X84031Y187366D01*
X84692Y187808D01*
X85134Y188470D01*
X85289Y189250D01*
X85134Y190031D01*
X84692Y190692D01*
X84031Y191134D01*
X83250Y191289D01*
D02*
G37*
G36*
X220250Y186250D02*
X215250D01*
Y181250D01*
X220250D01*
Y186250D01*
D02*
G37*
G36*
X104171Y181789D02*
X103391Y181634D01*
X102730Y181192D01*
X102288Y180530D01*
X102132Y179750D01*
X102288Y178970D01*
X102730Y178308D01*
X103391Y177866D01*
X104171Y177711D01*
X104952Y177866D01*
X105613Y178308D01*
X106055Y178970D01*
X106211Y179750D01*
X106055Y180530D01*
X105613Y181192D01*
X104952Y181634D01*
X104171Y181789D01*
D02*
G37*
G36*
X19750Y179289D02*
X18970Y179134D01*
X18308Y178692D01*
X17866Y178030D01*
X17711Y177250D01*
X17866Y176470D01*
X18257Y175884D01*
X18172Y175572D01*
X17673Y174705D01*
X17592Y174721D01*
X17250Y174789D01*
X16470Y174634D01*
X15808Y174192D01*
X15385Y173559D01*
X15366Y173530D01*
Y173530D01*
X15211Y172750D01*
X14500Y172539D01*
X13720Y172384D01*
X13058Y171942D01*
X12616Y171280D01*
X12461Y170500D01*
X12616Y169720D01*
X13058Y169058D01*
X13720Y168616D01*
X14500Y168461D01*
X15280Y168616D01*
X15942Y169058D01*
X16365Y169691D01*
X16384Y169720D01*
Y169720D01*
X16539Y170500D01*
X17250Y170711D01*
X18030Y170866D01*
X18692Y171308D01*
X19134Y171970D01*
X19289Y172750D01*
X19134Y173530D01*
X18743Y174116D01*
X18828Y174428D01*
X19327Y175295D01*
X19409Y175279D01*
X19750Y175211D01*
X20530Y175366D01*
X21192Y175808D01*
X21634Y176470D01*
X21789Y177250D01*
X21634Y178030D01*
X21192Y178692D01*
X20530Y179134D01*
X19750Y179289D01*
D02*
G37*
G36*
X86250Y185289D02*
X85470Y185134D01*
X84808Y184692D01*
X84366Y184031D01*
X84211Y183250D01*
X84366Y182470D01*
X84808Y181808D01*
Y180692D01*
X84366Y180031D01*
X84211Y179250D01*
X84359Y178507D01*
X84366Y178470D01*
X83976Y177155D01*
X83837Y177046D01*
X83308Y176692D01*
X82866Y176031D01*
X82711Y175250D01*
X82866Y174470D01*
X83308Y173808D01*
X83970Y173366D01*
X84750Y173211D01*
X85530Y173366D01*
X86192Y173808D01*
X86634Y174470D01*
X86789Y175250D01*
X86641Y175994D01*
X86634Y176031D01*
X87024Y177346D01*
X87163Y177455D01*
X87692Y177808D01*
X88134Y178470D01*
X88289Y179250D01*
X88134Y180031D01*
X87692Y180692D01*
Y181808D01*
X88134Y182470D01*
X88289Y183250D01*
X88134Y184031D01*
X87692Y184692D01*
X87030Y185134D01*
X86250Y185289D01*
D02*
G37*
G36*
X232250Y196000D02*
X227250D01*
Y193884D01*
X224808Y191442D01*
X224366Y190780D01*
X224211Y190000D01*
Y183250D01*
X224366Y182470D01*
X224808Y181808D01*
X227250Y179366D01*
Y172250D01*
X229519D01*
X229720Y172116D01*
X230500Y171961D01*
X230500Y171961D01*
X234250D01*
Y171500D01*
X239250D01*
Y176500D01*
X238790D01*
Y178000D01*
X239250D01*
Y183000D01*
X234250D01*
Y178000D01*
X234711D01*
Y176500D01*
X234250D01*
Y176039D01*
X232250D01*
Y182250D01*
X230134D01*
X229154Y183230D01*
X229680Y184500D01*
X232250D01*
Y189500D01*
X231572D01*
X230893Y190770D01*
X231046Y191000D01*
X232250D01*
Y196000D01*
D02*
G37*
G36*
X26250Y181290D02*
X25470Y181134D01*
X24808Y180692D01*
X24366Y180031D01*
X24211Y179250D01*
X24366Y178470D01*
X24808Y177808D01*
Y176692D01*
X24366Y176031D01*
X24211Y175250D01*
X24366Y174470D01*
X24808Y173808D01*
Y172692D01*
X24366Y172031D01*
X24211Y171250D01*
X24366Y170470D01*
X24808Y169808D01*
X25470Y169366D01*
X26250Y169211D01*
X27030Y169366D01*
X27692Y169808D01*
X28134Y170470D01*
X28289Y171250D01*
X28134Y172031D01*
X27692Y172692D01*
Y173808D01*
X28134Y174470D01*
X28289Y175250D01*
X28134Y176031D01*
X27692Y176692D01*
Y177808D01*
X28134Y178470D01*
X28289Y179250D01*
X28134Y180031D01*
X27692Y180692D01*
X27030Y181134D01*
X26250Y181290D01*
D02*
G37*
G36*
X89000Y173289D02*
X88220Y173134D01*
X87558Y172692D01*
X87116Y172030D01*
X86961Y171250D01*
X87116Y170470D01*
X87558Y169808D01*
X88220Y169366D01*
X89000Y169211D01*
X89780Y169366D01*
X90442Y169808D01*
X90884Y170470D01*
X91039Y171250D01*
X90884Y172030D01*
X90442Y172692D01*
X89780Y173134D01*
X89000Y173289D01*
D02*
G37*
G36*
X83000Y169289D02*
X82220Y169134D01*
X81558Y168692D01*
X81116Y168031D01*
X80961Y167250D01*
X81116Y166470D01*
X81558Y165808D01*
X82220Y165366D01*
X83000Y165211D01*
X83780Y165366D01*
X84442Y165808D01*
X84884Y166470D01*
X85039Y167250D01*
X84884Y168031D01*
X84442Y168692D01*
X83780Y169134D01*
X83000Y169289D01*
D02*
G37*
G36*
X96250Y170299D02*
X95275Y170105D01*
X94448Y169552D01*
X93895Y168725D01*
X93701Y167750D01*
X93895Y166775D01*
X94448Y165948D01*
X95275Y165395D01*
X96250Y165201D01*
X97226Y165395D01*
X98052Y165948D01*
X98605Y166775D01*
X98799Y167750D01*
X98605Y168725D01*
X98052Y169552D01*
X97226Y170105D01*
X96250Y170299D01*
D02*
G37*
G36*
X232250Y170000D02*
X227250D01*
Y165000D01*
X232250D01*
Y170000D01*
D02*
G37*
G36*
X107500Y167289D02*
X106720Y167134D01*
X106058Y166692D01*
X105616Y166030D01*
X105461Y165250D01*
X105616Y164470D01*
X106058Y163808D01*
X106720Y163366D01*
X107500Y163211D01*
X108280Y163366D01*
X108942Y163808D01*
X109384Y164470D01*
X109539Y165250D01*
X109384Y166030D01*
X108942Y166692D01*
X108280Y167134D01*
X107500Y167289D01*
D02*
G37*
G36*
X220250Y166750D02*
X215250D01*
Y166289D01*
X214470Y166134D01*
X213808Y165692D01*
X213366Y165030D01*
X213211Y164250D01*
X213366Y163470D01*
X213808Y162808D01*
X214470Y162366D01*
X215250Y162211D01*
Y161750D01*
X220250D01*
Y166750D01*
D02*
G37*
G36*
X169750Y161789D02*
X168970Y161634D01*
X168308Y161192D01*
X167866Y160530D01*
X167711Y159750D01*
X167866Y158970D01*
X168308Y158308D01*
X168970Y157866D01*
X169750Y157711D01*
X170530Y157866D01*
X171192Y158308D01*
X171634Y158970D01*
X171789Y159750D01*
X171634Y160530D01*
X171192Y161192D01*
X170530Y161634D01*
X169750Y161789D01*
D02*
G37*
G36*
X161750D02*
X160970Y161634D01*
X160308Y161192D01*
X159866Y160530D01*
X159711Y159750D01*
X159866Y158970D01*
X160308Y158308D01*
X160970Y157866D01*
X161750Y157711D01*
X162530Y157866D01*
X163192Y158308D01*
X163634Y158970D01*
X163789Y159750D01*
X163634Y160530D01*
X163192Y161192D01*
X162530Y161634D01*
X161750Y161789D01*
D02*
G37*
G36*
X89250Y161290D02*
X88470Y161134D01*
X87808Y160692D01*
X87366Y160031D01*
X87211Y159250D01*
X87366Y158470D01*
X87808Y157808D01*
X88470Y157366D01*
X89250Y157211D01*
X90031Y157366D01*
X90692Y157808D01*
X91134Y158470D01*
X91289Y159250D01*
X91134Y160031D01*
X90692Y160692D01*
X90031Y161134D01*
X89250Y161290D01*
D02*
G37*
G36*
X83250Y157289D02*
X82470Y157134D01*
X81808Y156692D01*
X81366Y156031D01*
X81211Y155250D01*
X81366Y154470D01*
X81808Y153808D01*
X82470Y153366D01*
X83250Y153211D01*
X84030Y153366D01*
X84692Y153808D01*
X85134Y154470D01*
X85289Y155250D01*
X85134Y156031D01*
X84692Y156692D01*
X84030Y157134D01*
X83250Y157289D01*
D02*
G37*
G36*
X15500Y155790D02*
X14720Y155634D01*
X14058Y155192D01*
X13616Y154531D01*
X13461Y153750D01*
X13616Y152970D01*
X14058Y152309D01*
X14720Y151867D01*
X15500Y151711D01*
X16280Y151867D01*
X16942Y152309D01*
X17384Y152970D01*
X17539Y153750D01*
X17384Y154531D01*
X16942Y155192D01*
X16280Y155634D01*
X15500Y155790D01*
D02*
G37*
G36*
X185750Y153789D02*
X184970Y153634D01*
X184308Y153192D01*
X183866Y152530D01*
X183711Y151750D01*
X183866Y150970D01*
X184308Y150308D01*
X184970Y149866D01*
X185750Y149711D01*
X186530Y149866D01*
X187192Y150308D01*
X187634Y150970D01*
X187789Y151750D01*
X187634Y152530D01*
X187192Y153192D01*
X186530Y153634D01*
X185750Y153789D01*
D02*
G37*
G36*
X177750D02*
X176970Y153634D01*
X176308Y153192D01*
X175866Y152530D01*
X175711Y151750D01*
X175866Y150970D01*
X176308Y150308D01*
X176970Y149866D01*
X177750Y149711D01*
X178530Y149866D01*
X179192Y150308D01*
X179634Y150970D01*
X179789Y151750D01*
X179634Y152530D01*
X179192Y153192D01*
X178530Y153634D01*
X177750Y153789D01*
D02*
G37*
G36*
X108000Y151789D02*
X107220Y151634D01*
X106558Y151192D01*
X106116Y150530D01*
X105961Y149750D01*
X106116Y148970D01*
X106558Y148308D01*
X107220Y147866D01*
X108000Y147711D01*
X108780Y147866D01*
X109442Y148308D01*
X109884Y148970D01*
X110039Y149750D01*
X109884Y150530D01*
X109442Y151192D01*
X108780Y151634D01*
X108000Y151789D01*
D02*
G37*
G36*
X185750Y145789D02*
X184970Y145634D01*
X184308Y145192D01*
X183866Y144530D01*
X183711Y143750D01*
X183866Y142970D01*
X184308Y142308D01*
X184970Y141866D01*
X185750Y141711D01*
X186530Y141866D01*
X187192Y142308D01*
X187634Y142970D01*
X187789Y143750D01*
X187634Y144530D01*
X187192Y145192D01*
X186530Y145634D01*
X185750Y145789D01*
D02*
G37*
G36*
X177750D02*
X176970Y145634D01*
X176308Y145192D01*
X175866Y144530D01*
X175711Y143750D01*
X175866Y142970D01*
X176308Y142308D01*
X176970Y141866D01*
X177750Y141711D01*
X178530Y141866D01*
X179192Y142308D01*
X179634Y142970D01*
X179789Y143750D01*
X179634Y144530D01*
X179192Y145192D01*
X178530Y145634D01*
X177750Y145789D01*
D02*
G37*
G36*
X89250Y153289D02*
X88470Y153134D01*
X87808Y152692D01*
X87366Y152031D01*
X87211Y151250D01*
X87366Y150470D01*
X87808Y149808D01*
Y148692D01*
X87366Y148031D01*
X87211Y147250D01*
X87366Y146470D01*
X87808Y145808D01*
X87812Y144688D01*
X87370Y144027D01*
X87215Y143246D01*
X87370Y142466D01*
X87812Y141804D01*
X88474Y141362D01*
X89254Y141207D01*
X90035Y141362D01*
X90696Y141804D01*
X91138Y142466D01*
X91293Y143246D01*
X91138Y144027D01*
X90696Y144688D01*
X90692Y145808D01*
X91134Y146470D01*
X91289Y147250D01*
X91134Y148031D01*
X90692Y148692D01*
Y149808D01*
X91134Y150470D01*
X91289Y151250D01*
X91134Y152031D01*
X90692Y152692D01*
X90031Y153134D01*
X89250Y153289D01*
D02*
G37*
G36*
X20250Y164289D02*
X19470Y164134D01*
X18808Y163692D01*
X18366Y163030D01*
X18211Y162250D01*
X18366Y161470D01*
X18808Y160808D01*
X19470Y160366D01*
X20250Y160211D01*
X21030Y160366D01*
X21420Y160626D01*
X31532D01*
X32750Y160500D01*
Y155744D01*
X25278Y148272D01*
X24781Y147528D01*
X24606Y146650D01*
Y145750D01*
X21400D01*
Y140750D01*
X32400D01*
Y145750D01*
X30904D01*
X30418Y146923D01*
X36872Y153378D01*
X37369Y154122D01*
X37544Y155000D01*
X38484Y155706D01*
X42250D01*
Y155500D01*
X48126D01*
Y145750D01*
X47600D01*
Y140750D01*
X58600D01*
Y145750D01*
X51374D01*
Y155500D01*
X52250D01*
Y160500D01*
X51374D01*
Y161000D01*
X50898Y162148D01*
X49648Y163398D01*
X48500Y163874D01*
X21420D01*
X21030Y164134D01*
X20250Y164289D01*
D02*
G37*
G36*
X107500Y142289D02*
X106720Y142134D01*
X106058Y141692D01*
X105616Y141030D01*
X105461Y140250D01*
X105616Y139469D01*
X106058Y138808D01*
X106720Y138366D01*
X107500Y138210D01*
X108280Y138366D01*
X108942Y138808D01*
X109384Y139469D01*
X109539Y140250D01*
X109384Y141030D01*
X108942Y141692D01*
X108280Y142134D01*
X107500Y142289D01*
D02*
G37*
G36*
X58600Y137750D02*
X47600D01*
Y134165D01*
X46330Y133274D01*
X46250Y133289D01*
X45470Y133134D01*
X44808Y132692D01*
X44366Y132031D01*
X44211Y131250D01*
X44366Y130470D01*
X44808Y129808D01*
X45470Y129366D01*
X46250Y129211D01*
X46330Y129227D01*
X47600Y128336D01*
Y124750D01*
X57204D01*
X57524Y124429D01*
X57616Y123970D01*
X58058Y123308D01*
X58720Y122866D01*
X59500Y122711D01*
X60280Y122866D01*
X60942Y123308D01*
X62099Y123113D01*
X62470Y122866D01*
X63250Y122711D01*
X64030Y122866D01*
X64545Y123210D01*
X64735Y123300D01*
X66055Y123062D01*
X66058Y123058D01*
X66720Y122616D01*
X67500Y122461D01*
X68280Y122616D01*
X68942Y123058D01*
X69384Y123720D01*
X69539Y124500D01*
X69475Y124820D01*
X70138Y125796D01*
X70433Y125997D01*
X71030Y126116D01*
X71692Y126558D01*
X72134Y127220D01*
X72289Y128000D01*
X72145Y128724D01*
X72274Y128899D01*
X73109Y129608D01*
X73183Y129558D01*
X73470Y129366D01*
X74250Y129211D01*
X75030Y129366D01*
X75692Y129808D01*
X76808D01*
X77470Y129366D01*
X78250Y129211D01*
X79030Y129366D01*
X79692Y129808D01*
X80134Y130470D01*
X80289Y131250D01*
X80134Y132031D01*
X79692Y132692D01*
X79030Y133134D01*
X78250Y133289D01*
X77470Y133134D01*
X76808Y132692D01*
X75692D01*
X75030Y133134D01*
X74250Y133289D01*
X73470Y133134D01*
X72808Y132692D01*
X72366Y132031D01*
X72211Y131250D01*
X72355Y130526D01*
X72226Y130351D01*
X71392Y129643D01*
X71318Y129692D01*
X71030Y129884D01*
X70250Y130039D01*
X69470Y129884D01*
X68808Y129442D01*
X68366Y128780D01*
X68211Y128000D01*
X67681Y127826D01*
X66624Y128854D01*
Y132750D01*
X66148Y133898D01*
X63648Y136398D01*
X62500Y136874D01*
X58600D01*
Y137750D01*
D02*
G37*
G36*
X89250Y137039D02*
X88470Y136884D01*
X87808Y136442D01*
X87366Y135780D01*
X87211Y135000D01*
X87366Y134220D01*
X87808Y133558D01*
X88470Y133116D01*
X89250Y132961D01*
X90031Y133116D01*
X90692Y133558D01*
X91134Y134220D01*
X91289Y135000D01*
X91134Y135780D01*
X90692Y136442D01*
X90031Y136884D01*
X89250Y137039D01*
D02*
G37*
G36*
X32400Y137750D02*
X21400D01*
Y132750D01*
X32400D01*
Y137750D01*
D02*
G37*
G36*
X177750Y129789D02*
X176970Y129634D01*
X176308Y129192D01*
X175866Y128530D01*
X175711Y127750D01*
X175866Y126970D01*
X176308Y126308D01*
X176970Y125866D01*
X177750Y125711D01*
X178530Y125866D01*
X179192Y126308D01*
X179634Y126970D01*
X179789Y127750D01*
X179634Y128530D01*
X179192Y129192D01*
X178530Y129634D01*
X177750Y129789D01*
D02*
G37*
G36*
X173750Y121789D02*
X172970Y121634D01*
X172308Y121192D01*
X171192D01*
X170530Y121634D01*
X169750Y121789D01*
X168970Y121634D01*
X168308Y121192D01*
X167866Y120530D01*
X167711Y119750D01*
X167866Y118970D01*
X168308Y118308D01*
X168970Y117866D01*
X169750Y117711D01*
X170126Y116491D01*
Y107172D01*
X168827Y105874D01*
X156000D01*
X154852Y105398D01*
X154352Y104898D01*
X153876Y103750D01*
Y102250D01*
X154352Y101102D01*
X154780Y100500D01*
X154352Y99898D01*
X153876Y98750D01*
Y97250D01*
X154352Y96102D01*
X154780Y95500D01*
X154352Y94898D01*
X153876Y93750D01*
Y92250D01*
X154352Y91102D01*
X154852Y90602D01*
X156000Y90126D01*
X181477D01*
X181837Y89587D01*
X182829Y88924D01*
X184000Y88691D01*
X184785Y88847D01*
X185723Y88129D01*
X185896Y87881D01*
X185896Y87618D01*
X185723Y87370D01*
X184785Y86652D01*
X184000Y86808D01*
X182829Y86575D01*
X181837Y85913D01*
X181174Y84920D01*
X180941Y83750D01*
X181174Y82579D01*
X181837Y81587D01*
X182829Y80924D01*
X184000Y80691D01*
X185170Y80924D01*
X186163Y81587D01*
X186826Y82579D01*
X187059Y83750D01*
X186851Y84793D01*
X187044Y85128D01*
X187760Y85808D01*
X188250Y85711D01*
X189030Y85866D01*
X189420Y86126D01*
X195327D01*
X197068Y84386D01*
X196941Y83750D01*
X197174Y82579D01*
X197837Y81587D01*
X198829Y80924D01*
X200000Y80691D01*
X201171Y80924D01*
X201973Y81460D01*
X202473Y81375D01*
X202649Y81310D01*
X203269Y80956D01*
X203366Y80469D01*
X203808Y79808D01*
X204470Y79366D01*
X205250Y79211D01*
X206030Y79366D01*
X206692Y79808D01*
X207086Y80397D01*
X207649Y80469D01*
X207851D01*
X208414Y80397D01*
X208808Y79808D01*
X209470Y79366D01*
X210250Y79211D01*
X211030Y79366D01*
X211692Y79808D01*
X212134Y80469D01*
X212289Y81250D01*
X212134Y82030D01*
X211692Y82692D01*
X211030Y83134D01*
X210250Y83289D01*
X209470Y83134D01*
X208808Y82692D01*
X208414Y82103D01*
X207851Y82030D01*
X207649D01*
X207086Y82103D01*
X206692Y82692D01*
X206030Y83134D01*
X205250Y83289D01*
X204470Y83134D01*
X204195Y82950D01*
X203040Y83654D01*
X203059Y83750D01*
X202826Y84920D01*
X202163Y85913D01*
X201171Y86575D01*
X200000Y86808D01*
X199488Y86706D01*
X198609Y87589D01*
X198867Y88844D01*
X198940Y88902D01*
X200000Y88691D01*
X201171Y88924D01*
X202163Y89587D01*
X202826Y90579D01*
X203059Y91750D01*
X202826Y92920D01*
X202163Y93912D01*
X201171Y94576D01*
X200000Y94808D01*
X198829Y94576D01*
X197837Y93912D01*
X197174Y92920D01*
X196941Y91750D01*
X197174Y90579D01*
X197396Y90247D01*
X196639Y89283D01*
X195501Y89451D01*
X194835Y90564D01*
X194839Y90644D01*
X195059Y91750D01*
X194826Y92920D01*
X194163Y93912D01*
X193171Y94576D01*
X192000Y94808D01*
X190829Y94576D01*
X189837Y93912D01*
X189174Y92920D01*
X188941Y91750D01*
X188983Y91538D01*
X188105Y90302D01*
X187980Y90284D01*
X186987Y91389D01*
X187059Y91750D01*
X186826Y92920D01*
X186163Y93912D01*
X185170Y94576D01*
X184000Y94808D01*
X182829Y94576D01*
X181837Y93912D01*
X181477Y93373D01*
X174178D01*
X173329Y94643D01*
X173374Y94750D01*
Y96250D01*
X172898Y97398D01*
X172470Y98000D01*
X172898Y98602D01*
X173374Y99750D01*
Y101250D01*
X172898Y102398D01*
X172398Y102898D01*
X172286Y102944D01*
X171989Y104442D01*
X172898Y105352D01*
X173374Y106500D01*
Y117078D01*
X174071Y117775D01*
X174530Y117866D01*
X175192Y118308D01*
X175817Y117814D01*
X176478Y117372D01*
X177259Y117217D01*
X178039Y117372D01*
X178701Y117814D01*
X179143Y118476D01*
X179298Y119256D01*
X179143Y120036D01*
X178701Y120698D01*
X178039Y121140D01*
X177259Y121295D01*
X176478Y121140D01*
X175817Y120698D01*
X175192Y121192D01*
X174530Y121634D01*
X173750Y121789D01*
D02*
G37*
G36*
X161750D02*
X160970Y121634D01*
X160308Y121192D01*
X159866Y120530D01*
X159711Y119750D01*
X159866Y118970D01*
X160308Y118308D01*
X160970Y117866D01*
X161750Y117711D01*
X162530Y117866D01*
X163192Y118308D01*
X163634Y118970D01*
X163789Y119750D01*
X163634Y120530D01*
X163192Y121192D01*
X162530Y121634D01*
X161750Y121789D01*
D02*
G37*
G36*
X153750D02*
X152970Y121634D01*
X152308Y121192D01*
X151866Y120530D01*
X151711Y119750D01*
X151866Y118970D01*
X152308Y118308D01*
X152970Y117866D01*
X153750Y117711D01*
X154530Y117866D01*
X155192Y118308D01*
X155634Y118970D01*
X155789Y119750D01*
X155634Y120530D01*
X155192Y121192D01*
X154530Y121634D01*
X153750Y121789D01*
D02*
G37*
G36*
X15500Y130040D02*
X14720Y129884D01*
X14058Y129442D01*
X13616Y128781D01*
X13461Y128000D01*
X13616Y127220D01*
X14058Y126558D01*
X14720Y126116D01*
X15500Y125961D01*
X16280Y126116D01*
X16567Y126308D01*
X16641Y126357D01*
X17475Y125650D01*
X17605Y125474D01*
X17461Y124750D01*
X17616Y123970D01*
X17876Y123580D01*
Y123000D01*
X18352Y121852D01*
X21400Y118804D01*
Y116750D01*
X32400D01*
Y121750D01*
X23046D01*
X21161Y123636D01*
X21384Y123970D01*
X21539Y124750D01*
X22457Y124750D01*
X32400D01*
Y129750D01*
X21400D01*
Y127413D01*
X20454Y126755D01*
X20130Y126664D01*
X19500Y126789D01*
X18720Y126634D01*
X18433Y126442D01*
X18359Y126393D01*
X17525Y127101D01*
X17395Y127277D01*
X17539Y128000D01*
X17384Y128781D01*
X16942Y129442D01*
X16280Y129884D01*
X15500Y130040D01*
D02*
G37*
G36*
X70500Y121829D02*
X68939Y121518D01*
X67616Y120634D01*
X66732Y119311D01*
X66422Y117750D01*
X66732Y116189D01*
X67616Y114866D01*
X68939Y113982D01*
X70500Y113672D01*
X72061Y113982D01*
X73384Y114866D01*
X74268Y116189D01*
X74578Y117750D01*
X74268Y119311D01*
X73384Y120634D01*
X72061Y121518D01*
X70500Y121829D01*
D02*
G37*
G36*
X54000Y110289D02*
X53220Y110134D01*
X52558Y109692D01*
X52165Y109103D01*
X51601Y109031D01*
X51399D01*
X50836Y109103D01*
X50442Y109692D01*
X49780Y110134D01*
X49000Y110289D01*
X48220Y110134D01*
X47558Y109692D01*
X47116Y109031D01*
X46961Y108250D01*
X47116Y107470D01*
X47558Y106808D01*
X48220Y106366D01*
X49000Y106211D01*
X49780Y106366D01*
X50442Y106808D01*
X50836Y107397D01*
X51399Y107470D01*
X51601D01*
X52165Y107397D01*
X52558Y106808D01*
X53220Y106366D01*
X54000Y106211D01*
X54780Y106366D01*
X55442Y106808D01*
X55884Y107470D01*
X56039Y108250D01*
X55884Y109031D01*
X55442Y109692D01*
X54780Y110134D01*
X54000Y110289D01*
D02*
G37*
G36*
X66000Y110289D02*
X65220Y110134D01*
X64558Y109692D01*
X64164Y109103D01*
X63601Y109030D01*
X63399D01*
X62836Y109103D01*
X62442Y109692D01*
X61780Y110134D01*
X61000Y110289D01*
X60220Y110134D01*
X59558Y109692D01*
X59116Y109030D01*
X58961Y108250D01*
X59116Y107470D01*
X59558Y106808D01*
X60220Y106366D01*
X61000Y106211D01*
X61780Y106366D01*
X62442Y106808D01*
X62836Y107397D01*
X63399Y107470D01*
X63601D01*
X64164Y107397D01*
X64558Y106808D01*
X65220Y106366D01*
X66000Y106211D01*
X66780Y106366D01*
X67442Y106808D01*
X67884Y107470D01*
X68039Y108250D01*
X67884Y109030D01*
X67442Y109692D01*
X66780Y110134D01*
X66000Y110289D01*
D02*
G37*
G36*
X200000Y118808D02*
X198829Y118575D01*
X197837Y117913D01*
X197174Y116920D01*
X196941Y115750D01*
X197174Y114579D01*
X197837Y113587D01*
X198829Y112924D01*
X199260Y112838D01*
X199945Y111616D01*
X199638Y110736D01*
X198829Y110576D01*
X197837Y109913D01*
X197174Y108920D01*
X196563Y108220D01*
X195155Y108271D01*
X194852Y108789D01*
X194845Y108825D01*
X195201Y109064D01*
X195643Y109725D01*
X195799Y110505D01*
X195643Y111286D01*
X195201Y111947D01*
X194540Y112389D01*
X194446Y112687D01*
X194265Y113739D01*
X194826Y114579D01*
X195059Y115750D01*
X194826Y116920D01*
X194163Y117913D01*
X193171Y118575D01*
X192000Y118808D01*
X190829Y118575D01*
X189837Y117913D01*
X189544Y117474D01*
X188644Y117289D01*
X188078Y117296D01*
X188026Y117314D01*
X187540Y117640D01*
X186759Y117795D01*
X186241D01*
X186163Y117913D01*
X185170Y118575D01*
X184000Y118808D01*
X182829Y118575D01*
X181837Y117913D01*
X181174Y116920D01*
X180941Y115750D01*
X181174Y114579D01*
X181837Y113587D01*
X182829Y112924D01*
X184000Y112691D01*
X184996Y112889D01*
X185439Y112495D01*
X185836Y111860D01*
X185616Y111530D01*
X185461Y110750D01*
X185616Y109970D01*
X186058Y109308D01*
X186720Y108866D01*
X187500Y108711D01*
X187851Y108781D01*
X188788Y108062D01*
X188952Y107803D01*
X188941Y107750D01*
X189174Y106579D01*
X189837Y105587D01*
X189934Y105522D01*
X189836Y104867D01*
X189552Y104250D01*
X188969Y104134D01*
X188308Y103692D01*
X187866Y103030D01*
X187727Y102332D01*
X187710Y102250D01*
X187806Y101723D01*
X187806D01*
X187710Y102250D01*
X187790Y101716D01*
X186618Y101231D01*
X186163Y101912D01*
X185170Y102576D01*
X184000Y102808D01*
X182829Y102576D01*
X181837Y101912D01*
X181174Y100920D01*
X180941Y99750D01*
X181174Y98579D01*
X181837Y97587D01*
X182829Y96924D01*
X184000Y96691D01*
X185170Y96924D01*
X186163Y97587D01*
X186826Y98579D01*
X187059Y99750D01*
X186930Y100399D01*
X188104Y100940D01*
X188308Y100808D01*
X188453Y100711D01*
X188969Y100366D01*
X189042Y100257D01*
X188941Y99750D01*
X189174Y98579D01*
X189837Y97587D01*
X190829Y96924D01*
X192000Y96691D01*
X193171Y96924D01*
X194163Y97587D01*
X194826Y98579D01*
X195059Y99750D01*
X194826Y100920D01*
X194163Y101912D01*
X193171Y102576D01*
X192186Y102771D01*
X191722Y103451D01*
X191887Y104224D01*
X192000Y104691D01*
X193109Y104911D01*
X194375Y105053D01*
X194818Y104391D01*
X195479Y103949D01*
X196259Y103794D01*
X197040Y103949D01*
X197701Y104391D01*
X198062Y104931D01*
X199282Y104765D01*
X199373Y104585D01*
X199607Y103403D01*
X198852Y102648D01*
X198819Y102569D01*
X197837Y101912D01*
X197174Y100920D01*
X196941Y99750D01*
X197174Y98579D01*
X197837Y97587D01*
X198829Y96924D01*
X200000Y96691D01*
X201171Y96924D01*
X202163Y97587D01*
X202546Y98160D01*
X202985Y98299D01*
X203845Y98414D01*
X204080Y98376D01*
X204470Y98116D01*
X205250Y97961D01*
X206030Y98116D01*
X206692Y98558D01*
X207134Y99219D01*
X207289Y100000D01*
X207134Y100780D01*
X206692Y101442D01*
X206030Y101884D01*
X205250Y102039D01*
X204470Y101884D01*
X204237Y101958D01*
X203233Y102585D01*
X203144Y103035D01*
X202702Y103697D01*
X202161Y104058D01*
X202005Y104709D01*
X201958Y105450D01*
X202163Y105587D01*
X202826Y106579D01*
X203059Y107750D01*
X202891Y108595D01*
X203158Y108862D01*
X203161Y108869D01*
X203452Y109064D01*
X203894Y109725D01*
X204049Y110505D01*
X203894Y111286D01*
X203452Y111947D01*
X202790Y112389D01*
X202687Y112410D01*
X202460Y112919D01*
X202294Y113783D01*
X202826Y114579D01*
X203059Y115750D01*
X202826Y116920D01*
X202163Y117913D01*
X201171Y118575D01*
X200000Y118808D01*
D02*
G37*
G36*
X73000Y110289D02*
X72220Y110134D01*
X71558Y109692D01*
X71116Y109030D01*
X70961Y108250D01*
X71116Y107470D01*
X71558Y106808D01*
X72220Y106366D01*
X73000Y106211D01*
X73780Y106366D01*
X74442Y106808D01*
X74884Y107470D01*
X75039Y108250D01*
X74884Y109030D01*
X74442Y109692D01*
X73780Y110134D01*
X73000Y110289D01*
D02*
G37*
G36*
X257250Y95289D02*
X256470Y95134D01*
X255808Y94692D01*
X255366Y94030D01*
X255211Y93250D01*
X255366Y92470D01*
X255808Y91808D01*
X256470Y91366D01*
X257250Y91211D01*
X258030Y91366D01*
X258692Y91808D01*
X259134Y92470D01*
X259289Y93250D01*
X259134Y94030D01*
X258692Y94692D01*
X258030Y95134D01*
X257250Y95289D01*
D02*
G37*
G36*
X205250Y89539D02*
X204470Y89384D01*
X203808Y88942D01*
X203366Y88280D01*
X203211Y87500D01*
X203366Y86720D01*
X203808Y86058D01*
X204470Y85616D01*
X205250Y85461D01*
X206030Y85616D01*
X206692Y86058D01*
X207134Y86720D01*
X207289Y87500D01*
X207134Y88280D01*
X206692Y88942D01*
X206030Y89384D01*
X205250Y89539D01*
D02*
G37*
G36*
X232000Y86808D02*
X230829Y86575D01*
X229837Y85913D01*
X229174Y84920D01*
X228941Y83750D01*
X229174Y82579D01*
X229837Y81587D01*
X230829Y80924D01*
X232000Y80691D01*
X233171Y80924D01*
X234163Y81587D01*
X234826Y82579D01*
X235059Y83750D01*
X234826Y84920D01*
X234163Y85913D01*
X233171Y86575D01*
X232000Y86808D01*
D02*
G37*
G36*
X257250Y82289D02*
X256470Y82134D01*
X255808Y81692D01*
X255366Y81030D01*
X255211Y80250D01*
X255366Y79470D01*
X255808Y78808D01*
X256470Y78366D01*
X257250Y78211D01*
X258030Y78366D01*
X258692Y78808D01*
X259134Y79470D01*
X259289Y80250D01*
X259134Y81030D01*
X258692Y81692D01*
X258030Y82134D01*
X257250Y82289D01*
D02*
G37*
G36*
X217000Y80039D02*
X216220Y79884D01*
X215558Y79442D01*
X215116Y78780D01*
X214961Y78000D01*
X215116Y77220D01*
X215558Y76558D01*
X216220Y76116D01*
X217000Y75961D01*
X217780Y76116D01*
X218442Y76558D01*
X218884Y77220D01*
X219039Y78000D01*
X218884Y78780D01*
X218442Y79442D01*
X217780Y79884D01*
X217000Y80039D01*
D02*
G37*
G36*
X50500Y83728D02*
X48939Y83418D01*
X47616Y82534D01*
X46732Y81211D01*
X46422Y79650D01*
X46732Y78089D01*
X47616Y76766D01*
X48939Y75882D01*
X50500Y75572D01*
X52061Y75882D01*
X53384Y76766D01*
X54268Y78089D01*
X54578Y79650D01*
X54268Y81211D01*
X53384Y82534D01*
X52061Y83418D01*
X50500Y83728D01*
D02*
G37*
G36*
X248000Y78808D02*
X246829Y78576D01*
X245837Y77913D01*
X245174Y76920D01*
X244941Y75750D01*
X245174Y74579D01*
X245837Y73587D01*
X246829Y72924D01*
X248000Y72691D01*
X249170Y72924D01*
X250163Y73587D01*
X250826Y74579D01*
X251059Y75750D01*
X250826Y76920D01*
X250163Y77913D01*
X249170Y78576D01*
X248000Y78808D01*
D02*
G37*
G36*
X240000D02*
X238829Y78576D01*
X237837Y77913D01*
X237174Y76920D01*
X236941Y75750D01*
X237174Y74579D01*
X237837Y73587D01*
X238829Y72924D01*
X240000Y72691D01*
X241171Y72924D01*
X242163Y73587D01*
X242826Y74579D01*
X243059Y75750D01*
X242826Y76920D01*
X242163Y77913D01*
X241171Y78576D01*
X240000Y78808D01*
D02*
G37*
G36*
X232000D02*
X230829Y78576D01*
X229837Y77913D01*
X229174Y76920D01*
X228941Y75750D01*
X229174Y74579D01*
X229837Y73587D01*
X230829Y72924D01*
X232000Y72691D01*
X233171Y72924D01*
X234163Y73587D01*
X234826Y74579D01*
X235059Y75750D01*
X234826Y76920D01*
X234163Y77913D01*
X233171Y78576D01*
X232000Y78808D01*
D02*
G37*
G36*
X200000D02*
X198829Y78576D01*
X197837Y77913D01*
X197174Y76920D01*
X196941Y75750D01*
X197055Y75178D01*
X196971Y74754D01*
X197126Y73973D01*
X197568Y73312D01*
X198229Y72870D01*
X199010Y72715D01*
X199445Y72801D01*
X200000Y72691D01*
X201171Y72924D01*
X202163Y73587D01*
X202826Y74579D01*
X203059Y75750D01*
X202826Y76920D01*
X202163Y77913D01*
X201171Y78576D01*
X200000Y78808D01*
D02*
G37*
G36*
X176250Y82578D02*
X174689Y82268D01*
X173366Y81384D01*
X172482Y80061D01*
X172172Y78500D01*
X172482Y76939D01*
X173366Y75616D01*
X174689Y74732D01*
X176250Y74422D01*
X177811Y74732D01*
X179134Y75616D01*
X179731Y76510D01*
X179826Y76652D01*
X181022Y76156D01*
X180998Y76034D01*
X180941Y75750D01*
X181174Y74579D01*
X181837Y73587D01*
X182829Y72924D01*
X184000Y72691D01*
X185170Y72924D01*
X186163Y73587D01*
X186826Y74579D01*
X187059Y75750D01*
X186826Y76920D01*
X186163Y77913D01*
X185170Y78576D01*
X184000Y78808D01*
X182829Y78576D01*
X181837Y77913D01*
X181461Y77349D01*
X181366Y77208D01*
X180170Y77703D01*
X180194Y77825D01*
X180328Y78500D01*
X180018Y80061D01*
X179134Y81384D01*
X177811Y82268D01*
X176250Y82578D01*
D02*
G37*
G36*
X259000Y74059D02*
X257829Y73826D01*
X256837Y73163D01*
X256174Y72171D01*
X255941Y71000D01*
X256174Y69830D01*
X256837Y68837D01*
X257829Y68174D01*
X259000Y67941D01*
X260170Y68174D01*
X261163Y68837D01*
X261826Y69830D01*
X262059Y71000D01*
X261826Y72171D01*
X261163Y73163D01*
X260170Y73826D01*
X259000Y74059D01*
D02*
G37*
G36*
X219500Y72309D02*
X218330Y72076D01*
X217337Y71413D01*
X216674Y70420D01*
X216441Y69250D01*
X216674Y68080D01*
X217337Y67087D01*
X218330Y66424D01*
X219500Y66191D01*
X220671Y66424D01*
X221663Y67087D01*
X222326Y68080D01*
X222559Y69250D01*
X222326Y70420D01*
X221663Y71413D01*
X220671Y72076D01*
X219500Y72309D01*
D02*
G37*
G36*
X232000Y70808D02*
X230829Y70575D01*
X229837Y69913D01*
X229174Y68920D01*
X228941Y67750D01*
X229174Y66579D01*
X229837Y65587D01*
X230829Y64924D01*
X232000Y64691D01*
X233171Y64924D01*
X234163Y65587D01*
X234826Y66579D01*
X235059Y67750D01*
X234826Y68920D01*
X234163Y69913D01*
X233171Y70575D01*
X232000Y70808D01*
D02*
G37*
G36*
X200000D02*
X198829Y70575D01*
X197837Y69913D01*
X197174Y68920D01*
X196941Y67750D01*
X197174Y66579D01*
X197837Y65587D01*
X198829Y64924D01*
X200000Y64691D01*
X201171Y64924D01*
X202163Y65587D01*
X202826Y66579D01*
X203059Y67750D01*
X202826Y68920D01*
X202163Y69913D01*
X201171Y70575D01*
X200000Y70808D01*
D02*
G37*
G36*
X192000Y78808D02*
X190829Y78576D01*
X189837Y77913D01*
X189174Y76920D01*
X188941Y75750D01*
X189174Y74579D01*
X189769Y73689D01*
X189751Y73207D01*
X189535Y72261D01*
X189058Y71942D01*
X188616Y71280D01*
X188461Y70500D01*
X188616Y69720D01*
X189058Y69058D01*
X189202Y68962D01*
X189174Y68920D01*
X188941Y67750D01*
X189174Y66579D01*
X189837Y65587D01*
X190829Y64924D01*
X192000Y64691D01*
X193171Y64924D01*
X194163Y65587D01*
X194826Y66579D01*
X195059Y67750D01*
X194826Y68920D01*
X194163Y69913D01*
X193171Y70575D01*
X193082Y70593D01*
X192476Y71699D01*
X192973Y72884D01*
X193171Y72924D01*
X194163Y73587D01*
X194826Y74579D01*
X195059Y75750D01*
X194826Y76920D01*
X194163Y77913D01*
X193171Y78576D01*
X192000Y78808D01*
D02*
G37*
G36*
X237750Y63789D02*
X236970Y63634D01*
X236308Y63192D01*
X235692D01*
X235030Y63634D01*
X234250Y63789D01*
X233470Y63634D01*
X232808Y63192D01*
X232487Y62712D01*
X232000Y62808D01*
X230829Y62575D01*
X229837Y61912D01*
X229174Y60920D01*
X228941Y59750D01*
X229174Y58579D01*
X229837Y57587D01*
X230829Y56924D01*
X232000Y56691D01*
X233171Y56924D01*
X234163Y57587D01*
X234826Y58579D01*
X234983Y59369D01*
X235725Y59851D01*
X235891Y59837D01*
X236551Y59595D01*
X237047Y59218D01*
X237174Y58579D01*
X237837Y57587D01*
X238829Y56924D01*
X240000Y56691D01*
X240267Y56744D01*
X241616Y56470D01*
X242058Y55808D01*
X242720Y55366D01*
X243179Y55275D01*
X243852Y54602D01*
X244571Y54304D01*
X245157Y53037D01*
X245167Y52969D01*
X245161Y52856D01*
X244941Y51750D01*
X243710Y51432D01*
X243482Y51386D01*
X242820Y50944D01*
X242378Y50283D01*
X242223Y49502D01*
X242378Y48722D01*
X242820Y48060D01*
X243482Y47618D01*
X244262Y47463D01*
X245042Y47618D01*
X245704Y48060D01*
X246146Y48722D01*
X247456Y48799D01*
X248000Y48691D01*
X249170Y48924D01*
X250163Y49587D01*
X250683Y50364D01*
X251470Y51366D01*
X252250Y51211D01*
X253030Y51366D01*
X253426Y51630D01*
X253808Y51058D01*
X254470Y50616D01*
X255250Y50461D01*
X256030Y50616D01*
X256692Y51058D01*
X257134Y51720D01*
X257289Y52500D01*
X257218Y52856D01*
X257224Y52888D01*
X257903Y53783D01*
X258193Y53972D01*
X258250Y53961D01*
X259030Y54116D01*
X259692Y54558D01*
X260134Y55220D01*
X260289Y56000D01*
X260134Y56781D01*
X259692Y57442D01*
X259030Y57884D01*
X258250Y58039D01*
X257470Y57884D01*
X256808Y57442D01*
X256762Y57374D01*
X245672D01*
X245475Y57571D01*
X245384Y58030D01*
X244942Y58692D01*
X244280Y59134D01*
X244233Y59143D01*
X243059Y59750D01*
X242826Y60920D01*
X242163Y61912D01*
X241171Y62575D01*
X240000Y62808D01*
X239513Y62712D01*
X239192Y63192D01*
X238530Y63634D01*
X237750Y63789D01*
D02*
G37*
G36*
X176250Y67078D02*
X174689Y66768D01*
X173366Y65884D01*
X172482Y64561D01*
X172172Y63000D01*
X172482Y61439D01*
X173366Y60116D01*
X174689Y59232D01*
X176250Y58922D01*
X177811Y59232D01*
X179134Y60116D01*
X180018Y61439D01*
X180328Y63000D01*
X180018Y64561D01*
X179134Y65884D01*
X177811Y66768D01*
X176250Y67078D01*
D02*
G37*
G36*
X200000Y62808D02*
X198829Y62575D01*
X197837Y61912D01*
X197174Y60920D01*
X196941Y59750D01*
X197174Y58579D01*
X197837Y57587D01*
X198829Y56924D01*
X200000Y56691D01*
X201171Y56924D01*
X202163Y57587D01*
X202826Y58579D01*
X203059Y59750D01*
X202826Y60920D01*
X202163Y61912D01*
X201171Y62575D01*
X200000Y62808D01*
D02*
G37*
G36*
X184000D02*
X182829Y62575D01*
X181837Y61912D01*
X181174Y60920D01*
X180941Y59750D01*
X181174Y58579D01*
X181837Y57587D01*
X182829Y56924D01*
X184000Y56691D01*
X185170Y56924D01*
X186163Y57587D01*
X186826Y58579D01*
X187059Y59750D01*
X186826Y60920D01*
X186163Y61912D01*
X185170Y62575D01*
X184000Y62808D01*
D02*
G37*
G36*
X192000D02*
X190829Y62575D01*
X189837Y61912D01*
X189174Y60920D01*
X188941Y59750D01*
X189174Y58579D01*
X189287Y58410D01*
X188866Y57780D01*
X188711Y57000D01*
X188866Y56220D01*
X189308Y55558D01*
X189970Y55116D01*
X190750Y54961D01*
X191530Y55116D01*
X192192Y55558D01*
X192634Y56220D01*
X192725Y56679D01*
X192920Y56874D01*
X193171Y56924D01*
X194163Y57587D01*
X194826Y58579D01*
X195059Y59750D01*
X194826Y60920D01*
X194163Y61912D01*
X193171Y62575D01*
X192000Y62808D01*
D02*
G37*
G36*
X232000Y54808D02*
X230829Y54576D01*
X229837Y53913D01*
X229670Y53662D01*
X229530Y53634D01*
X228750Y53789D01*
X227970Y53634D01*
X227308Y53192D01*
X226866Y52530D01*
X226711Y51750D01*
X226866Y50970D01*
X227308Y50308D01*
X227970Y49866D01*
X228750Y49711D01*
X229530Y49866D01*
X229669Y49839D01*
X229837Y49587D01*
X230829Y48924D01*
X232000Y48691D01*
X233171Y48924D01*
X234163Y49587D01*
X234826Y50579D01*
X235059Y51750D01*
X234826Y52920D01*
X234163Y53913D01*
X233171Y54576D01*
X232000Y54808D01*
D02*
G37*
G36*
X153250Y62549D02*
X153004Y62500D01*
X150750D01*
Y60246D01*
X150701Y60000D01*
Y53000D01*
X150750Y52754D01*
Y50500D01*
X153004D01*
X153250Y50451D01*
X153496Y50500D01*
X160750D01*
Y55500D01*
X155799D01*
Y57500D01*
X160750D01*
Y62500D01*
X153496D01*
X153250Y62549D01*
D02*
G37*
G36*
X200000Y54808D02*
X198829Y54576D01*
X197837Y53913D01*
X197174Y52920D01*
X196941Y51750D01*
X197174Y50579D01*
X197837Y49587D01*
X198829Y48924D01*
X200000Y48691D01*
X201171Y48924D01*
X202163Y49587D01*
X202826Y50579D01*
X203059Y51750D01*
X202826Y52920D01*
X202163Y53913D01*
X201171Y54576D01*
X200000Y54808D01*
D02*
G37*
G36*
X232000Y46808D02*
X230829Y46575D01*
X229837Y45912D01*
X229644Y45624D01*
X228170D01*
X227780Y45884D01*
X227000Y46039D01*
X226220Y45884D01*
X225558Y45442D01*
X225116Y44780D01*
X223941Y44606D01*
X223645Y44783D01*
X223203Y45444D01*
X222541Y45886D01*
X221761Y46041D01*
X220980Y45886D01*
X220319Y45444D01*
X219877Y44783D01*
X219872Y44760D01*
X219500Y43539D01*
X218720Y43384D01*
X218058Y42942D01*
X217616Y42280D01*
X217461Y41500D01*
X217616Y40720D01*
X218058Y40058D01*
X218524Y39747D01*
X218531Y39727D01*
X218620Y38869D01*
X218552Y38355D01*
X218308Y38192D01*
X217866Y37530D01*
X217711Y36750D01*
X217866Y35970D01*
X218308Y35308D01*
X218970Y34866D01*
X219429Y34775D01*
X223602Y30602D01*
X224750Y30126D01*
X227264D01*
X228004Y28856D01*
X227871Y28624D01*
X220670D01*
X220280Y28884D01*
X219500Y29039D01*
X218720Y28884D01*
X218058Y28442D01*
X217616Y27780D01*
X217461Y27000D01*
X217616Y26220D01*
X218058Y25558D01*
X218720Y25116D01*
X219284Y25004D01*
X219336Y24871D01*
X219467Y24223D01*
D01*
X219527Y23929D01*
X219531Y23758D01*
X219058Y23442D01*
X218616Y22780D01*
X218461Y22000D01*
X218616Y21220D01*
X219058Y20558D01*
X219720Y20116D01*
X220179Y20025D01*
X221602Y18601D01*
X222750Y18126D01*
X229477D01*
X229837Y17587D01*
X230612Y17069D01*
X230498Y16054D01*
X230401Y15799D01*
X225250D01*
X224275Y15605D01*
X223448Y15052D01*
X220198Y11802D01*
X219645Y10976D01*
X219451Y10000D01*
X219645Y9025D01*
X220198Y8198D01*
X221024Y7645D01*
X222000Y7451D01*
X222975Y7645D01*
X223802Y8198D01*
X226306Y10701D01*
X233500D01*
X234476Y10895D01*
X235303Y11448D01*
X239992Y16136D01*
X241319Y15676D01*
X241328Y15660D01*
X241366Y15470D01*
X241808Y14808D01*
X242469Y14366D01*
X243250Y14211D01*
X244030Y14366D01*
X244692Y14808D01*
X245134Y15470D01*
X245289Y16250D01*
X245134Y17030D01*
X244692Y17692D01*
X244030Y18134D01*
X243950Y18150D01*
X243047Y19367D01*
X243015Y19532D01*
X243059Y19750D01*
X242826Y20920D01*
X242163Y21913D01*
X241171Y22576D01*
X240000Y22808D01*
X238829Y22576D01*
X237837Y21913D01*
X237174Y20920D01*
X237077Y20431D01*
X236278Y19633D01*
X236041Y19655D01*
X234982Y20133D01*
X234826Y20920D01*
X234163Y21913D01*
X233171Y22576D01*
X232000Y22808D01*
X230829Y22576D01*
X229837Y21913D01*
X229477Y21373D01*
X223423D01*
X222475Y22321D01*
X222384Y22780D01*
X221942Y23442D01*
X221813Y23528D01*
X221452Y24923D01*
X221487Y25138D01*
X221679Y25373D01*
X221693Y25376D01*
X230152D01*
X230829Y24924D01*
X232000Y24691D01*
X233171Y24924D01*
X234163Y25587D01*
X234826Y26579D01*
X235059Y27750D01*
X234848Y28809D01*
X234905Y28882D01*
X236161Y29141D01*
X237043Y28262D01*
X236941Y27750D01*
X237174Y26579D01*
X237837Y25587D01*
X238829Y24924D01*
X240000Y24691D01*
X241171Y24924D01*
X242163Y25587D01*
X242826Y26579D01*
X243059Y27750D01*
X242826Y28920D01*
X242163Y29912D01*
X241171Y30575D01*
X240000Y30808D01*
X239488Y30707D01*
X238609Y31588D01*
X238867Y32844D01*
X238940Y32902D01*
X240000Y32691D01*
X241171Y32924D01*
X242163Y33587D01*
X242826Y34579D01*
X243059Y35750D01*
X242826Y36920D01*
X242163Y37912D01*
X241171Y38575D01*
X240000Y38808D01*
X239364Y38682D01*
X237148Y40898D01*
X236000Y41374D01*
X235548D01*
X234835Y42564D01*
X234839Y42644D01*
X235059Y43750D01*
X234826Y44920D01*
X234163Y45912D01*
X233171Y46575D01*
X232000Y46808D01*
D02*
G37*
G36*
X248000D02*
X246829Y46575D01*
X245837Y45912D01*
X245174Y44920D01*
X244941Y43750D01*
X245174Y42579D01*
X245837Y41587D01*
X246829Y40924D01*
X248000Y40691D01*
X249170Y40924D01*
X250163Y41587D01*
X250826Y42579D01*
X251059Y43750D01*
X250826Y44920D01*
X250163Y45912D01*
X249170Y46575D01*
X248000Y46808D01*
D02*
G37*
G36*
X192000D02*
X190829Y46575D01*
X189837Y45912D01*
X189174Y44920D01*
X188941Y43750D01*
X189174Y42579D01*
X189837Y41587D01*
X190829Y40924D01*
X192000Y40691D01*
X193171Y40924D01*
X194163Y41587D01*
X194826Y42579D01*
X195059Y43750D01*
X194826Y44920D01*
X194163Y45912D01*
X193171Y46575D01*
X192000Y46808D01*
D02*
G37*
G36*
X152100Y45628D02*
X150539Y45318D01*
X149216Y44434D01*
X148332Y43111D01*
X148022Y41550D01*
X148332Y39989D01*
X149216Y38666D01*
X150539Y37782D01*
X152100Y37472D01*
X153661Y37782D01*
X154984Y38666D01*
X155868Y39989D01*
X156178Y41550D01*
X155868Y43111D01*
X154984Y44434D01*
X153661Y45318D01*
X152100Y45628D01*
D02*
G37*
G36*
X114000Y45628D02*
X112439Y45318D01*
X111116Y44434D01*
X110232Y43111D01*
X109922Y41550D01*
X110232Y39989D01*
X111116Y38666D01*
X112439Y37782D01*
X114000Y37472D01*
X115561Y37782D01*
X116884Y38666D01*
X117768Y39989D01*
X118078Y41550D01*
X117768Y43111D01*
X116884Y44434D01*
X115561Y45318D01*
X114000Y45628D01*
D02*
G37*
G36*
X75900D02*
X74339Y45318D01*
X73016Y44434D01*
X72132Y43111D01*
X71822Y41550D01*
X72132Y39989D01*
X73016Y38666D01*
X74339Y37782D01*
X75900Y37472D01*
X77461Y37782D01*
X78784Y38666D01*
X79668Y39989D01*
X79978Y41550D01*
X79668Y43111D01*
X78784Y44434D01*
X77461Y45318D01*
X75900Y45628D01*
D02*
G37*
G36*
X200000Y46808D02*
X198829Y46575D01*
X197837Y45912D01*
X197174Y44920D01*
X196941Y43750D01*
X197082Y43042D01*
X196558Y42692D01*
X196116Y42030D01*
X195961Y41250D01*
X196116Y40470D01*
X196558Y39808D01*
X197220Y39366D01*
X197610Y39288D01*
X197985Y38012D01*
X197837Y37912D01*
X197174Y36920D01*
X196941Y35750D01*
X197174Y34579D01*
X197837Y33587D01*
X198829Y32924D01*
X200000Y32691D01*
X201171Y32924D01*
X202163Y33587D01*
X202826Y34579D01*
X203059Y35750D01*
X202826Y36920D01*
X202163Y37912D01*
X201171Y38575D01*
X200569Y38695D01*
X199976Y39935D01*
X200474Y40785D01*
X201171Y40924D01*
X202163Y41587D01*
X202826Y42579D01*
X203059Y43750D01*
X202826Y44920D01*
X202163Y45912D01*
X201171Y46575D01*
X200000Y46808D01*
D02*
G37*
G36*
X248000Y38808D02*
X246829Y38575D01*
X245837Y37912D01*
X245174Y36920D01*
X244941Y35750D01*
X245174Y34579D01*
X245837Y33587D01*
X246829Y32924D01*
X248000Y32691D01*
X249170Y32924D01*
X250163Y33587D01*
X250826Y34579D01*
X251059Y35750D01*
X250826Y36920D01*
X250163Y37912D01*
X249170Y38575D01*
X248000Y38808D01*
D02*
G37*
G36*
X192000D02*
X190829Y38575D01*
X189837Y37912D01*
X189174Y36920D01*
X188941Y35750D01*
X189174Y34579D01*
X189837Y33587D01*
X190829Y32924D01*
X192000Y32691D01*
X193171Y32924D01*
X194163Y33587D01*
X194826Y34579D01*
X195059Y35750D01*
X194826Y36920D01*
X194163Y37912D01*
X193171Y38575D01*
X192000Y38808D01*
D02*
G37*
G36*
X184000D02*
X182829Y38575D01*
X181837Y37912D01*
X181174Y36920D01*
X180941Y35750D01*
X181174Y34579D01*
X181837Y33587D01*
X182829Y32924D01*
X184000Y32691D01*
X185170Y32924D01*
X186163Y33587D01*
X186826Y34579D01*
X187059Y35750D01*
X186826Y36920D01*
X186163Y37912D01*
X185170Y38575D01*
X184000Y38808D01*
D02*
G37*
G36*
X266500Y81798D02*
X266254Y81749D01*
X264000D01*
Y79496D01*
X263951Y79250D01*
Y72750D01*
Y66250D01*
Y46750D01*
Y40250D01*
Y31585D01*
X263674Y31170D01*
X263441Y30000D01*
X263674Y28829D01*
X264337Y27837D01*
X265329Y27174D01*
X266500Y26941D01*
X267670Y27174D01*
X268663Y27837D01*
X269326Y28829D01*
X269559Y30000D01*
X269326Y31170D01*
X269049Y31585D01*
Y40250D01*
Y46750D01*
Y66250D01*
Y72750D01*
Y79250D01*
X269000Y79496D01*
Y81749D01*
X266746D01*
X266500Y81798D01*
D02*
G37*
G36*
X101300Y30889D02*
X100520Y30734D01*
X99858Y30292D01*
X99416Y29630D01*
X99261Y28850D01*
X99416Y28070D01*
X99858Y27408D01*
X100520Y26966D01*
X101300Y26811D01*
X102080Y26966D01*
X102742Y27408D01*
X103184Y28070D01*
X103339Y28850D01*
X103184Y29630D01*
X102742Y30292D01*
X102080Y30734D01*
X101300Y30889D01*
D02*
G37*
G36*
X63200D02*
X62420Y30734D01*
X61758Y30292D01*
X61316Y29630D01*
X61161Y28850D01*
X61316Y28070D01*
X61758Y27408D01*
X62420Y26966D01*
X63200Y26811D01*
X63980Y26966D01*
X64642Y27408D01*
X65084Y28070D01*
X65239Y28850D01*
X65084Y29630D01*
X64642Y30292D01*
X63980Y30734D01*
X63200Y30889D01*
D02*
G37*
G36*
X176250Y34078D02*
X174689Y33768D01*
X173366Y32884D01*
X172482Y31561D01*
X172172Y30000D01*
X172482Y28439D01*
X173366Y27116D01*
X174689Y26232D01*
X176250Y25922D01*
X177811Y26232D01*
X179134Y27116D01*
X180018Y28439D01*
X180328Y30000D01*
X180018Y31561D01*
X179134Y32884D01*
X177811Y33768D01*
X176250Y34078D01*
D02*
G37*
G36*
X192000Y30808D02*
X190829Y30575D01*
X189837Y29912D01*
X189174Y28920D01*
X188941Y27750D01*
X189174Y26579D01*
X189837Y25587D01*
X190829Y24924D01*
X192000Y24691D01*
X193171Y24924D01*
X194163Y25587D01*
X194826Y26579D01*
X195059Y27750D01*
X194826Y28920D01*
X194163Y29912D01*
X193171Y30575D01*
X192000Y30808D01*
D02*
G37*
G36*
X176500Y23059D02*
X175329Y22826D01*
X174337Y22163D01*
X173674Y21170D01*
X173441Y20000D01*
X173674Y18829D01*
X174337Y17837D01*
X175329Y17174D01*
X176500Y16941D01*
X177670Y17174D01*
X178663Y17837D01*
X179326Y18829D01*
X179559Y20000D01*
X179326Y21170D01*
X178663Y22163D01*
X177670Y22826D01*
X176500Y23059D01*
D02*
G37*
G36*
X200000Y22808D02*
X198829Y22576D01*
X197837Y21913D01*
X197174Y20920D01*
X196941Y19750D01*
X197174Y18579D01*
X197837Y17587D01*
X198829Y16924D01*
X200000Y16691D01*
X201171Y16924D01*
X202163Y17587D01*
X202826Y18579D01*
X203059Y19750D01*
X202826Y20920D01*
X202163Y21913D01*
X201171Y22576D01*
X200000Y22808D01*
D02*
G37*
G36*
X192000D02*
X190829Y22576D01*
X189837Y21913D01*
X189174Y20920D01*
X188941Y19750D01*
X189174Y18579D01*
X189837Y17587D01*
X190829Y16924D01*
X192000Y16691D01*
X193171Y16924D01*
X194163Y17587D01*
X194826Y18579D01*
X195059Y19750D01*
X194826Y20920D01*
X194163Y21913D01*
X193171Y22576D01*
X192000Y22808D01*
D02*
G37*
G36*
X164800Y30889D02*
X164020Y30734D01*
X163358Y30292D01*
X162916Y29630D01*
X162761Y28850D01*
X162916Y28070D01*
X163176Y27680D01*
Y20422D01*
X161004Y18250D01*
X158300D01*
Y13250D01*
X163300D01*
Y15954D01*
X165948Y18602D01*
X166424Y19750D01*
Y27680D01*
X166684Y28070D01*
X166839Y28850D01*
X166684Y29630D01*
X166242Y30292D01*
X165580Y30734D01*
X164800Y30889D01*
D02*
G37*
G36*
X50500Y30889D02*
X49720Y30734D01*
X49058Y30292D01*
X48616Y29630D01*
X48461Y28850D01*
X48616Y28070D01*
X49058Y27408D01*
X49720Y26966D01*
X50179Y26874D01*
X57534Y19520D01*
X57300Y18250D01*
X57300D01*
Y13250D01*
X62300D01*
Y18250D01*
X61424D01*
Y19550D01*
X60948Y20698D01*
X52475Y29171D01*
X52384Y29630D01*
X51942Y30292D01*
X51280Y30734D01*
X50500Y30889D01*
D02*
G37*
G36*
X126700Y30889D02*
X125920Y30734D01*
X125258Y30292D01*
X124816Y29630D01*
X124661Y28850D01*
X124816Y28070D01*
X125076Y27680D01*
Y20322D01*
X123004Y18250D01*
X120300D01*
Y13250D01*
X125300D01*
Y15954D01*
X127848Y18502D01*
X128324Y19650D01*
Y27680D01*
X128584Y28070D01*
X128739Y28850D01*
X128584Y29630D01*
X128142Y30292D01*
X127480Y30734D01*
X126700Y30889D01*
D02*
G37*
G36*
X88600Y30889D02*
X87820Y30734D01*
X87158Y30292D01*
X86716Y29630D01*
X86561Y28850D01*
X86716Y28070D01*
X86976Y27680D01*
Y19950D01*
X87452Y18802D01*
X90300Y15954D01*
Y13250D01*
X95300D01*
Y18250D01*
X92596D01*
X90224Y20622D01*
Y27680D01*
X90484Y28070D01*
X90639Y28850D01*
X90484Y29630D01*
X90042Y30292D01*
X89380Y30734D01*
X88600Y30889D01*
D02*
G37*
G36*
X184000Y22808D02*
X182829Y22576D01*
X181837Y21913D01*
X181174Y20920D01*
X180941Y19750D01*
X181174Y18579D01*
X181451Y18164D01*
Y17250D01*
X181645Y16275D01*
X182198Y15448D01*
X189448Y8198D01*
X190275Y7645D01*
X191250Y7451D01*
X202000D01*
X202975Y7645D01*
X203802Y8198D01*
X204355Y9025D01*
X204549Y10000D01*
X204355Y10975D01*
X203802Y11802D01*
X202975Y12355D01*
X202000Y12549D01*
X192306D01*
X186605Y18249D01*
X186826Y18579D01*
X187059Y19750D01*
X186826Y20920D01*
X186163Y21913D01*
X185170Y22576D01*
X184000Y22808D01*
D02*
G37*
G36*
X95300Y11750D02*
X90300D01*
Y11741D01*
X89750Y11289D01*
X88970Y11134D01*
X88308Y10692D01*
X87866Y10030D01*
X87711Y9250D01*
X87866Y8470D01*
X88308Y7808D01*
X88970Y7366D01*
X89750Y7211D01*
X90300Y6759D01*
Y6750D01*
X95300D01*
Y11750D01*
D02*
G37*
G36*
X62300Y11750D02*
Y11750D01*
X57300D01*
Y6750D01*
X62300D01*
Y6750D01*
X63350Y7280D01*
X63780Y7366D01*
X64442Y7808D01*
X64884Y8470D01*
X65039Y9250D01*
X64884Y10030D01*
X64442Y10692D01*
X63780Y11134D01*
X63350Y11220D01*
X62300Y11750D01*
X62300Y11750D01*
D02*
G37*
G36*
X163300D02*
Y11750D01*
X158300D01*
Y6750D01*
X163300D01*
Y6750D01*
X164350Y7280D01*
X164780Y7366D01*
X165442Y7808D01*
X165884Y8470D01*
X166039Y9250D01*
X165884Y10030D01*
X165442Y10692D01*
X164780Y11134D01*
X164350Y11220D01*
X163300Y11750D01*
X163300Y11750D01*
D02*
G37*
G36*
X125300Y11750D02*
Y11750D01*
X120300D01*
Y6750D01*
X125300D01*
Y6750D01*
X126350Y7280D01*
X126780Y7366D01*
X127442Y7808D01*
X127884Y8470D01*
X128039Y9250D01*
X127884Y10030D01*
X127442Y10692D01*
X126780Y11134D01*
X126350Y11220D01*
X125300Y11750D01*
X125300Y11750D01*
D02*
G37*
G36*
X151250Y215539D02*
X150470Y215384D01*
X149808Y214942D01*
X149366Y214280D01*
X149211Y213500D01*
X149366Y212720D01*
X149502Y212515D01*
X149708Y211625D01*
X149503Y210735D01*
X149366Y210530D01*
X149211Y209750D01*
X149366Y208970D01*
X149808Y208308D01*
X150470Y207866D01*
X151250Y207711D01*
X152030Y207866D01*
X152692Y208308D01*
X153134Y208970D01*
X153289Y209750D01*
X153134Y210530D01*
X152997Y210735D01*
X152792Y211625D01*
X152997Y212515D01*
X153134Y212720D01*
X153289Y213500D01*
X153134Y214280D01*
X152692Y214942D01*
X152030Y215384D01*
X151250Y215539D01*
D02*
G37*
G36*
X145250Y210039D02*
X144470Y209884D01*
X143808Y209442D01*
X143366Y208780D01*
X143211Y208000D01*
X143366Y207220D01*
X143808Y206558D01*
X144470Y206116D01*
X145250Y205961D01*
X146030Y206116D01*
X146692Y206558D01*
X147134Y207220D01*
X147289Y208000D01*
X147134Y208780D01*
X146692Y209442D01*
X146030Y209884D01*
X145250Y210039D01*
D02*
G37*
%LPD*%
D11*
X271500Y146250D02*
D03*
X266500D02*
D03*
X271500Y139750D02*
D03*
X266500D02*
D03*
X248750Y167500D02*
D03*
X253750D02*
D03*
X271500Y133250D02*
D03*
X266500D02*
D03*
X229750Y219500D02*
D03*
X234750D02*
D03*
X253750Y180500D02*
D03*
X248750D02*
D03*
X234750Y213000D02*
D03*
X229750D02*
D03*
X234750Y206500D02*
D03*
X229750D02*
D03*
X217750Y196749D02*
D03*
X222750D02*
D03*
X118050Y77250D02*
D03*
X113050Y77250D02*
D03*
X83800Y60500D02*
D03*
X88800D02*
D03*
X101550Y77250D02*
D03*
X106550D02*
D03*
X59800Y9250D02*
D03*
X54800D02*
D03*
X92800D02*
D03*
X97800D02*
D03*
X122800Y9250D02*
D03*
X117800D02*
D03*
X160800Y9250D02*
D03*
X155800D02*
D03*
X59800Y15750D02*
D03*
X54800D02*
D03*
X92800Y15750D02*
D03*
X97800D02*
D03*
X122800Y15750D02*
D03*
X117800D02*
D03*
X160800Y15750D02*
D03*
X155800D02*
D03*
X44750Y158000D02*
D03*
X49750D02*
D03*
X35250D02*
D03*
X30250D02*
D03*
X217750Y157750D02*
D03*
X222750D02*
D03*
X217750Y190250D02*
D03*
X222750D02*
D03*
X217750Y177250D02*
D03*
X222750D02*
D03*
X217750Y183750D02*
D03*
X222750D02*
D03*
Y209750D02*
D03*
X217750D02*
D03*
X222750Y216250D02*
D03*
X217750D02*
D03*
Y170750D02*
D03*
X222750D02*
D03*
X229750Y187000D02*
D03*
X234750D02*
D03*
X217750Y164250D02*
D03*
X222750D02*
D03*
X234750Y193500D02*
D03*
X229750D02*
D03*
X234750Y200000D02*
D03*
X229750D02*
D03*
X42250Y269000D02*
D03*
X37250D02*
D03*
X49500D02*
D03*
X54500D02*
D03*
X74500Y268750D02*
D03*
X69500D02*
D03*
X229750Y167500D02*
D03*
X234750D02*
D03*
X217750Y203250D02*
D03*
X222750D02*
D03*
X266500Y33750D02*
D03*
X271500D02*
D03*
X266500Y40250D02*
D03*
X271500D02*
D03*
X266500Y46750D02*
D03*
X271500D02*
D03*
X266500Y72750D02*
D03*
X271500D02*
D03*
X266500Y120250D02*
D03*
X271500D02*
D03*
X266500Y126750D02*
D03*
X271500D02*
D03*
X266500Y79250D02*
D03*
X271500D02*
D03*
X266500Y66250D02*
D03*
X271500D02*
D03*
X266500Y92250D02*
D03*
X271500D02*
D03*
Y85750D02*
D03*
X266500D02*
D03*
Y98750D02*
D03*
X271500D02*
D03*
X266500Y111750D02*
D03*
X271500D02*
D03*
Y105250D02*
D03*
X266500D02*
D03*
X241750Y180500D02*
D03*
X236750D02*
D03*
X241750Y174000D02*
D03*
X236750D02*
D03*
X248750Y174000D02*
D03*
X253750D02*
D03*
X153250Y60000D02*
D03*
X158250D02*
D03*
X153250Y53000D02*
D03*
X158250D02*
D03*
D12*
X236500Y161000D02*
D03*
Y156000D02*
D03*
X249500Y161000D02*
D03*
Y156000D02*
D03*
X256000Y161000D02*
D03*
Y156000D02*
D03*
X266000Y229000D02*
D03*
Y224000D02*
D03*
Y241000D02*
D03*
Y236000D02*
D03*
X145750Y142750D02*
D03*
Y147750D02*
D03*
X95050Y58000D02*
D03*
Y53000D02*
D03*
Y69500D02*
D03*
Y64500D02*
D03*
X229750Y174750D02*
D03*
Y179750D02*
D03*
X165250Y135750D02*
D03*
Y130750D02*
D03*
Y147750D02*
D03*
Y142750D02*
D03*
X152250D02*
D03*
Y147750D02*
D03*
Y135750D02*
D03*
Y130750D02*
D03*
X158750Y147750D02*
D03*
Y142750D02*
D03*
X218750Y228250D02*
D03*
Y223250D02*
D03*
X158750Y130750D02*
D03*
Y135750D02*
D03*
X230000Y161000D02*
D03*
Y156000D02*
D03*
X243000Y161000D02*
D03*
Y156000D02*
D03*
X264750Y173250D02*
D03*
Y168250D02*
D03*
X266500Y161000D02*
D03*
Y156000D02*
D03*
D33*
X151000Y137000D02*
X151007Y137007D01*
X184006Y115756D02*
X186759D01*
X184000Y115750D02*
X184006Y115756D01*
X229750Y174750D02*
X230500Y174000D01*
X248000Y107750D02*
Y108750D01*
X152250Y142235D02*
Y142750D01*
X151000Y137000D02*
X152250Y135750D01*
X266000Y229000D02*
Y236000D01*
X254850Y235750D02*
Y243750D01*
Y235750D02*
X265750D01*
X266000Y236000D01*
X266500Y236500D01*
X270250D01*
X69500Y268750D02*
X69670Y268580D01*
Y264150D02*
Y268580D01*
X74500Y268750D02*
X75500Y269750D01*
X77750D01*
X134250Y219250D02*
X135750D01*
X139250Y222750D01*
Y224250D01*
X154250Y199250D02*
Y202500D01*
X155500Y203750D01*
X156000Y204250D01*
X159250D01*
X124250Y239000D02*
Y239250D01*
X204750Y196749D02*
X217750D01*
X201750Y199750D02*
X204750Y196749D01*
X211250Y177250D02*
X217750D01*
X209750Y175750D02*
X211250Y177250D01*
X216750Y171750D02*
X217750Y170750D01*
X197750Y171750D02*
X216750D01*
X193750Y175750D02*
X197750Y171750D01*
X201750Y167750D02*
X213750Y155750D01*
X217251Y190250D02*
X217750D01*
X213750Y193750D02*
X217251Y190250D01*
X213750Y155750D02*
X215250D01*
X217250Y209750D02*
X217750D01*
X214500Y212500D02*
X217250Y209750D01*
X214500Y212500D02*
X217750Y215750D01*
Y216250D01*
X165250Y147750D02*
X165750Y148250D01*
Y152500D01*
X217750Y223250D02*
X218750D01*
X197750Y211750D02*
X206250D01*
X217750Y223250D01*
X236750Y174000D02*
Y180500D01*
X226250Y183250D02*
X229750Y179750D01*
X226250Y183250D02*
Y190000D01*
X229750Y193500D01*
X230500Y174000D02*
X236750D01*
X268500Y220250D02*
X270250Y218500D01*
X235500Y220250D02*
X268500D01*
X234750Y219500D02*
X235500Y220250D01*
X234750Y213000D02*
Y219500D01*
Y213000D02*
X234750Y213000D01*
X253750Y180500D02*
Y184500D01*
X247750Y190500D02*
X253750Y184500D01*
X247750Y190500D02*
Y192500D01*
Y211500D02*
X262750D01*
X234750Y213000D02*
X246250D01*
X247750Y211500D01*
X158750Y130750D02*
X161750Y127750D01*
X215750Y155750D02*
X217750Y157750D01*
X215250Y155750D02*
X215750D01*
X240000Y99750D02*
X244000Y95750D01*
X240749Y51750D02*
X242750Y53750D01*
X240000Y51750D02*
X240749D01*
X248000Y59750D02*
X249251Y61000D01*
X253250D01*
X244500Y67750D02*
X248000D01*
X244500Y67750D02*
X244500Y67750D01*
X151007Y140993D02*
X152250Y142235D01*
X146000Y147750D02*
X149750Y151500D01*
X145750Y147750D02*
X146000D01*
X266500Y161000D02*
X272000D01*
X248750Y174000D02*
X248750Y174000D01*
X248500Y171500D02*
X248750Y171750D01*
X245750Y171500D02*
X248500D01*
X245750Y169000D02*
X248500D01*
X248750Y169250D01*
X124250Y239000D02*
X125750Y237500D01*
X248000Y108750D02*
X250000Y110750D01*
X244000Y95750D02*
X244004Y95755D01*
X245012D01*
X149750Y151500D02*
Y171750D01*
X185750Y199750D02*
X189250Y203250D01*
X217750D01*
X149750Y171750D02*
X153750Y175750D01*
X193750Y207750D02*
X197750Y211750D01*
X272000Y161000D02*
X273750Y159250D01*
X245750Y174000D02*
X248750D01*
X215250Y164250D02*
X217750D01*
X151007Y139507D02*
Y140993D01*
Y137007D02*
Y139507D01*
X16200Y-6500D02*
X21900D01*
X28900D02*
X34600D01*
X41600D02*
X47300D01*
X54300D02*
X60000D01*
X67000D02*
X72700D01*
X79700D02*
X85400D01*
X92400D02*
X98100D01*
X105100D02*
X110800D01*
X117800D02*
X123500D01*
X130500D02*
X136200D01*
X143200D02*
X148900D01*
X155900D02*
X161600D01*
X168600D02*
X174300D01*
X181300D02*
X187000D01*
X194000D02*
X199700D01*
X206700D02*
X212400D01*
X219400D02*
X225100D01*
X231846D02*
X237546D01*
X244546D02*
X250246D01*
X257246D02*
X262946D01*
X285900Y257246D02*
Y262946D01*
X285900Y250246D02*
X285900Y244546D01*
Y231846D02*
Y237546D01*
Y219400D02*
Y225100D01*
X285900Y212400D02*
X285900Y206700D01*
Y194000D02*
Y199700D01*
Y181300D02*
Y187000D01*
X285900Y168600D02*
X285900Y174300D01*
Y155900D02*
Y161600D01*
X285900Y148900D02*
X285900Y143200D01*
Y130500D02*
Y136200D01*
Y117800D02*
Y123500D01*
X285900Y105100D02*
X285900Y110800D01*
Y92400D02*
Y98100D01*
X285900Y85400D02*
X285900Y79700D01*
Y67000D02*
Y72700D01*
Y54300D02*
Y60000D01*
X285900Y41600D02*
Y47300D01*
X285900Y28900D02*
Y34600D01*
X285900Y21900D02*
X285900Y16200D01*
X16454Y285900D02*
X22154D01*
X29154Y285900D02*
X34854Y285900D01*
X41854D02*
X47554D01*
X54300D02*
X60000D01*
X67000Y285900D02*
X72700Y285900D01*
X79700D02*
X85400D01*
X92400D02*
X98100D01*
X105100D02*
X110800Y285900D01*
X117800Y285900D02*
X123500D01*
X130500Y285900D02*
X136200Y285900D01*
X143200D02*
X148900D01*
X155900D02*
X161600D01*
X168600D02*
X174300Y285900D01*
X181300Y285900D02*
X187000D01*
X194000Y285900D02*
X199700Y285900D01*
X206700D02*
X212400D01*
X219400D02*
X225100D01*
X232100Y285900D02*
X237800D01*
X244800Y285900D02*
X250500D01*
X257500Y285900D02*
X263200Y285900D01*
X-6500Y16454D02*
Y22154D01*
Y34854D02*
X-6500Y29154D01*
X-6500Y41854D02*
Y47554D01*
Y54300D02*
Y60000D01*
Y72700D02*
X-6500Y67000D01*
X-6500Y79700D02*
Y85400D01*
Y92400D02*
Y98100D01*
Y105100D02*
X-6500Y110800D01*
X-6500Y117800D02*
Y123500D01*
Y136200D02*
X-6500Y130500D01*
X-6500Y143200D02*
Y148900D01*
Y155900D02*
Y161600D01*
Y168600D02*
X-6500Y174300D01*
X-6500Y181300D02*
Y187000D01*
Y199700D02*
X-6500Y194000D01*
X-6500Y206700D02*
Y212400D01*
Y219400D02*
Y225100D01*
X-6500Y232100D02*
Y237800D01*
X-6500Y244800D02*
Y250500D01*
Y263200D02*
X-6500Y257500D01*
X-6500Y269946D02*
Y285900D01*
X9454D01*
X285900Y269946D02*
Y285900D01*
X269946D02*
X285900D01*
X269946Y-6500D02*
X285900D01*
Y9454D01*
X-6500D02*
X9454Y-6500D01*
X-11176Y137160D02*
Y142240D01*
X-10470Y142946D02*
X-6500D01*
X-10470Y136454D02*
X-6500D01*
X-11176Y142240D02*
X-10470Y142946D01*
X-11176Y137160D02*
X-10470Y136454D01*
X-11176Y124460D02*
Y129540D01*
X-10470Y130246D02*
X-6500D01*
X-10470Y123754D02*
X-6500D01*
X-11176Y129540D02*
X-10470Y130246D01*
X-11176Y124460D02*
X-10470Y123754D01*
X-11176Y111760D02*
Y116840D01*
X-10470Y117546D02*
X-6500D01*
X-10470Y111054D02*
X-6500D01*
X-11176Y116840D02*
X-10470Y117546D01*
X-11176Y111760D02*
X-10470Y111054D01*
X-11176Y99060D02*
Y104140D01*
X-10470Y104846D02*
X-6500D01*
X-10470Y98354D02*
X-6500D01*
X-11176Y104140D02*
X-10470Y104846D01*
X-11176Y99060D02*
X-10470Y98354D01*
X-11176Y86360D02*
Y91440D01*
X-10470Y92146D02*
X-6500D01*
X-10470Y85654D02*
X-6500D01*
X-11176Y91440D02*
X-10470Y92146D01*
X-11176Y86360D02*
X-10470Y85654D01*
X-11176Y73660D02*
Y78740D01*
X-10470Y79446D02*
X-6500D01*
X-10470Y72954D02*
X-6500D01*
X-11176Y78740D02*
X-10470Y79446D01*
X-11176Y73660D02*
X-10470Y72954D01*
X-11176Y60960D02*
Y66040D01*
X-10470Y66746D02*
X-6500D01*
X-10470Y60254D02*
X-6500D01*
X-11176Y66040D02*
X-10470Y66746D01*
X-11176Y60960D02*
X-10470Y60254D01*
X-11176Y48260D02*
Y53340D01*
X-10470Y54046D02*
X-6500D01*
X-10470Y47554D02*
X-6500D01*
X-11176Y53340D02*
X-10470Y54046D01*
X-11176Y48260D02*
X-10470Y47554D01*
X-11176Y35560D02*
Y40640D01*
X-10470Y41346D02*
X-6500D01*
X-10470Y34854D02*
X-6500D01*
X-11176Y40640D02*
X-10470Y41346D01*
X-11176Y35560D02*
X-10470Y34854D01*
X-11176Y22860D02*
Y27940D01*
X-10470Y28646D02*
X-6500D01*
X-10470Y22154D02*
X-6500D01*
X-11176Y27940D02*
X-10470Y28646D01*
X-11176Y22860D02*
X-10470Y22154D01*
X-11176Y10160D02*
Y15240D01*
X-10470Y15946D02*
X-6500D01*
X-10470Y9454D02*
X-6500D01*
X-11176Y15240D02*
X-10470Y15946D01*
X-11176Y10160D02*
X-10470Y9454D01*
X10160Y-11176D02*
X15240D01*
X9454Y-10470D02*
Y-6500D01*
X15946Y-10470D02*
Y-6500D01*
X9454Y-10470D02*
X10160Y-11176D01*
X15240D02*
X15946Y-10470D01*
X22860Y-11176D02*
X27940D01*
X22154Y-10470D02*
Y-6500D01*
X28646Y-10470D02*
Y-6500D01*
X22154Y-10470D02*
X22860Y-11176D01*
X27940D02*
X28646Y-10470D01*
X35560Y-11176D02*
X40640D01*
X34854Y-10470D02*
Y-6500D01*
X41346Y-10470D02*
Y-6500D01*
X34854Y-10470D02*
X35560Y-11176D01*
X40640D02*
X41346Y-10470D01*
X48260Y-11176D02*
X53340D01*
X47554Y-10470D02*
Y-6500D01*
X54046Y-10470D02*
Y-6500D01*
X47554Y-10470D02*
X48260Y-11176D01*
X53340D02*
X54046Y-10470D01*
X60960Y-11176D02*
X66040D01*
X60254Y-10470D02*
Y-6500D01*
X66746Y-10470D02*
Y-6500D01*
X60254Y-10470D02*
X60960Y-11176D01*
X66040D02*
X66746Y-10470D01*
X73660Y-11176D02*
X78740D01*
X72954Y-10470D02*
Y-6500D01*
X79446Y-10470D02*
Y-6500D01*
X72954Y-10470D02*
X73660Y-11176D01*
X78740D02*
X79446Y-10470D01*
X86360Y-11176D02*
X91440D01*
X85654Y-10470D02*
Y-6500D01*
X92146Y-10470D02*
Y-6500D01*
X85654Y-10470D02*
X86360Y-11176D01*
X91440D02*
X92146Y-10470D01*
X99060Y-11176D02*
X104140D01*
X98354Y-10470D02*
Y-6500D01*
X104846Y-10470D02*
Y-6500D01*
X98354Y-10470D02*
X99060Y-11176D01*
X104140D02*
X104846Y-10470D01*
X111760Y-11176D02*
X116840D01*
X111054Y-10470D02*
Y-6500D01*
X117546Y-10470D02*
Y-6500D01*
X111054Y-10470D02*
X111760Y-11176D01*
X116840D02*
X117546Y-10470D01*
X124460Y-11176D02*
X129540D01*
X123754Y-10470D02*
Y-6500D01*
X130246Y-10470D02*
Y-6500D01*
X123754Y-10470D02*
X124460Y-11176D01*
X129540D02*
X130246Y-10470D01*
X137160Y-11176D02*
X142240D01*
X136454Y-10470D02*
Y-6500D01*
X142946Y-10470D02*
Y-6500D01*
X136454Y-10470D02*
X137160Y-11176D01*
X142240D02*
X142946Y-10470D01*
X149860Y-11176D02*
X154940D01*
X149154Y-10470D02*
Y-6500D01*
X155646Y-10470D02*
Y-6500D01*
X149154Y-10470D02*
X149860Y-11176D01*
X154940D02*
X155646Y-10470D01*
X162560Y-11176D02*
X167640D01*
X161854Y-10470D02*
Y-6500D01*
X168346Y-10470D02*
Y-6500D01*
X161854Y-10470D02*
X162560Y-11176D01*
X167640D02*
X168346Y-10470D01*
X175260Y-11176D02*
X180340D01*
X174554Y-10470D02*
Y-6500D01*
X181046Y-10470D02*
Y-6500D01*
X174554Y-10470D02*
X175260Y-11176D01*
X180340D02*
X181046Y-10470D01*
X187960Y-11176D02*
X193040D01*
X187254Y-10470D02*
Y-6500D01*
X193746Y-10470D02*
Y-6500D01*
X187254Y-10470D02*
X187960Y-11176D01*
X193040D02*
X193746Y-10470D01*
X200660Y-11176D02*
X205740D01*
X199954Y-10470D02*
Y-6500D01*
X206446Y-10470D02*
Y-6500D01*
X199954Y-10470D02*
X200660Y-11176D01*
X205740D02*
X206446Y-10470D01*
X213360Y-11176D02*
X218440D01*
X212654Y-10470D02*
Y-6500D01*
X219146Y-10470D02*
Y-6500D01*
X212654Y-10470D02*
X213360Y-11176D01*
X218440D02*
X219146Y-10470D01*
X226060Y-11176D02*
X231140D01*
X225354Y-10470D02*
Y-6500D01*
X231846Y-10470D02*
Y-6500D01*
X225354Y-10470D02*
X226060Y-11176D01*
X231140D02*
X231846Y-10470D01*
X238760Y-11176D02*
X243840D01*
X238054Y-10470D02*
Y-6500D01*
X244546Y-10470D02*
Y-6500D01*
X238054Y-10470D02*
X238760Y-11176D01*
X243840D02*
X244546Y-10470D01*
X251460Y-11176D02*
X256540D01*
X250754Y-10470D02*
Y-6500D01*
X257246Y-10470D02*
Y-6500D01*
X250754Y-10470D02*
X251460Y-11176D01*
X256540D02*
X257246Y-10470D01*
X264160Y-11176D02*
X269240D01*
X263454Y-10470D02*
Y-6500D01*
X269946Y-10470D02*
Y-6500D01*
X263454Y-10470D02*
X264160Y-11176D01*
X269240D02*
X269946Y-10470D01*
X290576Y10160D02*
Y15240D01*
X285900Y9454D02*
X289870D01*
X285900Y15946D02*
X289870D01*
Y9454D02*
X290576Y10160D01*
X289870Y15946D02*
X290576Y15240D01*
Y22860D02*
Y27940D01*
X285900Y22154D02*
X289870D01*
X285900Y28646D02*
X289870D01*
Y22154D02*
X290576Y22860D01*
X289870Y28646D02*
X290576Y27940D01*
Y35560D02*
Y40640D01*
X285900Y34854D02*
X289870D01*
X285900Y41346D02*
X289870D01*
Y34854D02*
X290576Y35560D01*
X289870Y41346D02*
X290576Y40640D01*
Y48260D02*
Y53340D01*
X285900Y47554D02*
X289870D01*
X285900Y54046D02*
X289870D01*
Y47554D02*
X290576Y48260D01*
X289870Y54046D02*
X290576Y53340D01*
Y60960D02*
Y66040D01*
X285900Y60254D02*
X289870D01*
X285900Y66746D02*
X289870D01*
Y60254D02*
X290576Y60960D01*
X289870Y66746D02*
X290576Y66040D01*
Y73660D02*
Y78740D01*
X285900Y72954D02*
X289870D01*
X285900Y79446D02*
X289870D01*
Y72954D02*
X290576Y73660D01*
X289870Y79446D02*
X290576Y78740D01*
Y86360D02*
Y91440D01*
X285900Y85654D02*
X289870D01*
X285900Y92146D02*
X289870D01*
Y85654D02*
X290576Y86360D01*
X289870Y92146D02*
X290576Y91440D01*
Y99060D02*
Y104140D01*
X285900Y98354D02*
X289870D01*
X285900Y104846D02*
X289870D01*
Y98354D02*
X290576Y99060D01*
X289870Y104846D02*
X290576Y104140D01*
Y111760D02*
Y116840D01*
X285900Y111054D02*
X289870D01*
X285900Y117546D02*
X289870D01*
Y111054D02*
X290576Y111760D01*
X289870Y117546D02*
X290576Y116840D01*
Y124460D02*
Y129540D01*
X285900Y123754D02*
X289870D01*
X285900Y130246D02*
X289870D01*
Y123754D02*
X290576Y124460D01*
X289870Y130246D02*
X290576Y129540D01*
Y137160D02*
Y142240D01*
X285900Y136454D02*
X289870D01*
X285900Y142946D02*
X289870D01*
Y136454D02*
X290576Y137160D01*
X289870Y142946D02*
X290576Y142240D01*
Y149860D02*
Y154940D01*
X285900Y149154D02*
X289870D01*
X285900Y155646D02*
X289870D01*
Y149154D02*
X290576Y149860D01*
X289870Y155646D02*
X290576Y154940D01*
Y162560D02*
Y167640D01*
X285900Y161854D02*
X289870D01*
X285900Y168346D02*
X289870D01*
Y161854D02*
X290576Y162560D01*
X289870Y168346D02*
X290576Y167640D01*
Y175260D02*
Y180340D01*
X285900Y174554D02*
X289870D01*
X285900Y181046D02*
X289870D01*
Y174554D02*
X290576Y175260D01*
X289870Y181046D02*
X290576Y180340D01*
Y187960D02*
Y193040D01*
X285900Y187254D02*
X289870D01*
X285900Y193746D02*
X289870D01*
Y187254D02*
X290576Y187960D01*
X289870Y193746D02*
X290576Y193040D01*
Y200660D02*
Y205740D01*
X285900Y199954D02*
X289870D01*
X285900Y206446D02*
X289870D01*
Y199954D02*
X290576Y200660D01*
X289870Y206446D02*
X290576Y205740D01*
Y213360D02*
Y218440D01*
X285900Y212654D02*
X289870D01*
X285900Y219146D02*
X289870D01*
Y212654D02*
X290576Y213360D01*
X289870Y219146D02*
X290576Y218440D01*
Y226060D02*
Y231140D01*
X285900Y225354D02*
X289870D01*
X285900Y231846D02*
X289870D01*
Y225354D02*
X290576Y226060D01*
X289870Y231846D02*
X290576Y231140D01*
Y238760D02*
Y243840D01*
X285900Y238054D02*
X289870D01*
X285900Y244546D02*
X289870D01*
Y238054D02*
X290576Y238760D01*
X289870Y244546D02*
X290576Y243840D01*
Y251460D02*
Y256540D01*
X285900Y250754D02*
X289870D01*
X285900Y257246D02*
X289870D01*
Y250754D02*
X290576Y251460D01*
X289870Y257246D02*
X290576Y256540D01*
Y264160D02*
Y269240D01*
X285900Y263454D02*
X289870D01*
X285900Y269946D02*
X289870D01*
Y263454D02*
X290576Y264160D01*
X289870Y269946D02*
X290576Y269240D01*
X264160Y290576D02*
X269240D01*
X269946Y285900D02*
Y289870D01*
X263454Y285900D02*
Y289870D01*
X269240Y290576D02*
X269946Y289870D01*
X263454D02*
X264160Y290576D01*
X251460D02*
X256540D01*
X257246Y285900D02*
Y289870D01*
X250754Y285900D02*
Y289870D01*
X256540Y290576D02*
X257246Y289870D01*
X250754D02*
X251460Y290576D01*
X238760D02*
X243840D01*
X244546Y285900D02*
Y289870D01*
X238054Y285900D02*
Y289870D01*
X243840Y290576D02*
X244546Y289870D01*
X238054D02*
X238760Y290576D01*
X226060D02*
X231140D01*
X231846Y285900D02*
Y289870D01*
X225354Y285900D02*
Y289870D01*
X231140Y290576D02*
X231846Y289870D01*
X225354D02*
X226060Y290576D01*
X213360D02*
X218440D01*
X219146Y285900D02*
Y289870D01*
X212654Y285900D02*
Y289870D01*
X218440Y290576D02*
X219146Y289870D01*
X212654D02*
X213360Y290576D01*
X200660D02*
X205740D01*
X206446Y285900D02*
Y289870D01*
X199954Y285900D02*
Y289870D01*
X205740Y290576D02*
X206446Y289870D01*
X199954D02*
X200660Y290576D01*
X187960D02*
X193040D01*
X193746Y285900D02*
Y289870D01*
X187254Y285900D02*
Y289870D01*
X193040Y290576D02*
X193746Y289870D01*
X187254D02*
X187960Y290576D01*
X175260D02*
X180340D01*
X181046Y285900D02*
Y289870D01*
X174554Y285900D02*
Y289870D01*
X180340Y290576D02*
X181046Y289870D01*
X174554D02*
X175260Y290576D01*
X162560D02*
X167640D01*
X168346Y285900D02*
Y289870D01*
X161854Y285900D02*
Y289870D01*
X167640Y290576D02*
X168346Y289870D01*
X161854D02*
X162560Y290576D01*
X149860D02*
X154940D01*
X155646Y285900D02*
Y289870D01*
X149154Y285900D02*
Y289870D01*
X154940Y290576D02*
X155646Y289870D01*
X149154D02*
X149860Y290576D01*
X137160D02*
X142240D01*
X142946Y285900D02*
Y289870D01*
X136454Y285900D02*
Y289870D01*
X142240Y290576D02*
X142946Y289870D01*
X136454D02*
X137160Y290576D01*
X124460D02*
X129540D01*
X130246Y285900D02*
Y289870D01*
X123754Y285900D02*
Y289870D01*
X129540Y290576D02*
X130246Y289870D01*
X123754D02*
X124460Y290576D01*
X111760D02*
X116840D01*
X117546Y285900D02*
Y289870D01*
X111054Y285900D02*
Y289870D01*
X116840Y290576D02*
X117546Y289870D01*
X111054D02*
X111760Y290576D01*
X99060D02*
X104140D01*
X104846Y285900D02*
Y289870D01*
X98354Y285900D02*
Y289870D01*
X104140Y290576D02*
X104846Y289870D01*
X98354D02*
X99060Y290576D01*
X86360D02*
X91440D01*
X92146Y285900D02*
Y289870D01*
X85654Y285900D02*
Y289870D01*
X91440Y290576D02*
X92146Y289870D01*
X85654D02*
X86360Y290576D01*
X73660D02*
X78740D01*
X79446Y285900D02*
Y289870D01*
X72954Y285900D02*
Y289870D01*
X78740Y290576D02*
X79446Y289870D01*
X72954D02*
X73660Y290576D01*
X60960D02*
X66040D01*
X66746Y285900D02*
Y289870D01*
X60254Y285900D02*
Y289870D01*
X66040Y290576D02*
X66746Y289870D01*
X60254D02*
X60960Y290576D01*
X48260D02*
X53340D01*
X54046Y285900D02*
Y289870D01*
X47554Y285900D02*
Y289870D01*
X53340Y290576D02*
X54046Y289870D01*
X47554D02*
X48260Y290576D01*
X35560D02*
X40640D01*
X41346Y285900D02*
Y289870D01*
X34854Y285900D02*
Y289870D01*
X40640Y290576D02*
X41346Y289870D01*
X34854D02*
X35560Y290576D01*
X22860D02*
X27940D01*
X28646Y285900D02*
Y289870D01*
X22154Y285900D02*
Y289870D01*
X27940Y290576D02*
X28646Y289870D01*
X22154D02*
X22860Y290576D01*
X10160D02*
X15240D01*
X15946Y285900D02*
Y289870D01*
X9454Y285900D02*
Y289870D01*
X15240Y290576D02*
X15946Y289870D01*
X9454D02*
X10160Y290576D01*
X-11176Y264160D02*
Y269240D01*
X-10470Y269946D02*
X-6500D01*
X-10470Y263454D02*
X-6500D01*
X-11176Y269240D02*
X-10470Y269946D01*
X-11176Y264160D02*
X-10470Y263454D01*
X-11176Y251460D02*
Y256540D01*
X-10470Y257246D02*
X-6500D01*
X-10470Y250754D02*
X-6500D01*
X-11176Y256540D02*
X-10470Y257246D01*
X-11176Y251460D02*
X-10470Y250754D01*
X-11176Y238760D02*
Y243840D01*
X-10470Y244546D02*
X-6500D01*
X-10470Y238054D02*
X-6500D01*
X-11176Y243840D02*
X-10470Y244546D01*
X-11176Y238760D02*
X-10470Y238054D01*
X-11176Y226060D02*
Y231140D01*
X-10470Y231846D02*
X-6500D01*
X-10470Y225354D02*
X-6500D01*
X-11176Y231140D02*
X-10470Y231846D01*
X-11176Y226060D02*
X-10470Y225354D01*
X-11176Y213360D02*
Y218440D01*
X-10470Y219146D02*
X-6500D01*
X-10470Y212654D02*
X-6500D01*
X-11176Y218440D02*
X-10470Y219146D01*
X-11176Y213360D02*
X-10470Y212654D01*
X-11176Y200660D02*
Y205740D01*
X-10470Y206446D02*
X-6500D01*
X-10470Y199954D02*
X-6500D01*
X-11176Y205740D02*
X-10470Y206446D01*
X-11176Y200660D02*
X-10470Y199954D01*
X-11176Y187960D02*
Y193040D01*
X-10470Y193746D02*
X-6500D01*
X-10470Y187254D02*
X-6500D01*
X-11176Y193040D02*
X-10470Y193746D01*
X-11176Y187960D02*
X-10470Y187254D01*
X-11176Y175260D02*
Y180340D01*
X-10470Y181046D02*
X-6500D01*
X-10470Y174554D02*
X-6500D01*
X-11176Y180340D02*
X-10470Y181046D01*
X-11176Y175260D02*
X-10470Y174554D01*
X-11176Y162560D02*
Y167640D01*
X-10470Y168346D02*
X-6500D01*
X-10470Y161854D02*
X-6500D01*
X-11176Y167640D02*
X-10470Y168346D01*
X-11176Y162560D02*
X-10470Y161854D01*
X-11176Y149860D02*
Y154940D01*
X-10470Y155646D02*
X-6500D01*
X-10470Y149154D02*
X-6500D01*
X-11176Y154940D02*
X-10470Y155646D01*
X-11176Y149860D02*
X-10470Y149154D01*
D34*
X228650Y259750D02*
X241750D01*
X44250Y269000D02*
Y273500D01*
X270750Y146250D02*
X271500Y145500D01*
X235000Y167750D02*
X238375D01*
X241750D01*
X234750Y167500D02*
X235000Y167750D01*
X245000Y22750D02*
Y24500D01*
Y22750D02*
X248000Y19750D01*
X245000Y24500D02*
Y24750D01*
X248000Y27750D01*
X54800Y9250D02*
Y15750D01*
X97800Y9250D02*
Y15750D01*
X117800Y9250D02*
Y15750D01*
X155800Y9250D02*
Y15750D01*
X97800Y9250D02*
X104750D01*
X106500Y11000D01*
X108250Y9250D02*
X117800D01*
X106500Y11000D02*
X108250Y9250D01*
X110300Y68500D02*
Y77200D01*
X110250Y77250D02*
X110300Y77200D01*
X106550Y77250D02*
X110250D01*
X113050D01*
X83800Y60500D02*
Y66300D01*
X99000Y81500D01*
X104250D01*
X106550Y79200D01*
Y77250D02*
Y79200D01*
X68750Y61000D02*
X83300D01*
X83800Y60500D01*
X42250Y269000D02*
X44250D01*
X49500D01*
X241750Y247750D02*
Y259750D01*
X222750Y216250D02*
X225250D01*
X225750Y215750D01*
X266500Y33750D02*
Y40250D01*
Y46750D01*
Y66250D01*
Y72750D01*
Y79250D01*
Y118500D02*
X271500Y113500D01*
X266500Y118500D02*
Y120250D01*
Y126750D01*
X225250Y13250D02*
X233500D01*
X240000Y19750D01*
X191250Y10000D02*
X202000D01*
X184000Y17250D02*
X191250Y10000D01*
X184000Y17250D02*
Y19750D01*
X266500Y30000D02*
Y33750D01*
X153250Y53000D02*
Y60000D01*
X266500Y85750D02*
Y92250D01*
Y98750D01*
X230000Y161000D02*
X236500D01*
X243000D01*
X243750Y161750D01*
X248750D01*
X249500Y161000D02*
X256000D01*
X248750Y161750D02*
Y167500D01*
Y161750D02*
X249500Y161000D01*
X248750Y161750D02*
X248750Y161750D01*
Y171750D02*
Y174000D01*
Y167500D02*
Y169250D01*
Y171750D01*
X234750Y187000D02*
X234750Y187000D01*
X234750Y187000D02*
Y193500D01*
Y200000D01*
Y206500D01*
X241750Y174000D02*
Y180500D01*
X222750Y157750D02*
Y164250D01*
Y170750D01*
Y177250D01*
Y183750D01*
Y190250D01*
Y196749D01*
Y203250D01*
Y209750D01*
Y216250D01*
X271500Y133250D02*
Y139750D01*
X222000Y10000D02*
X225250Y13250D01*
X271500Y111750D02*
Y113500D01*
X266500Y98750D02*
Y105250D01*
X271500D02*
Y111750D01*
Y139750D02*
Y145500D01*
X264750Y173250D02*
X266750D01*
X268500Y171500D01*
X275250D01*
X241750Y174000D02*
X241750Y174000D01*
X241750Y167750D02*
Y174000D01*
D36*
X252000Y259750D02*
X254850D01*
X247500Y264250D02*
X252000Y259750D01*
X247500Y264250D02*
Y269000D01*
X244250Y272250D02*
X247500Y269000D01*
X193250Y272250D02*
X244250D01*
X191500Y270500D02*
X193250Y272250D01*
X191500Y260000D02*
Y270500D01*
X190250Y258750D02*
X191500Y260000D01*
X190250Y254250D02*
Y258750D01*
Y254250D02*
X193750Y250750D01*
Y247750D02*
Y250750D01*
Y255750D02*
X197750Y251750D01*
Y247750D02*
Y251750D01*
Y247750D02*
X201750Y243750D01*
X228650D01*
X63250Y124750D02*
X65000Y126500D01*
Y132750D01*
X62500Y135250D02*
X65000Y132750D01*
X53100Y135250D02*
X62500D01*
X19500Y123000D02*
Y124750D01*
Y123000D02*
X23250Y119250D01*
X26900D01*
X49750Y143250D02*
Y158000D01*
X201000Y123750D02*
Y124172D01*
X246250Y88000D02*
X249000Y90750D01*
X189750Y102250D02*
X192000Y100000D01*
Y99750D02*
Y100000D01*
X193505Y110505D02*
X193759D01*
X200755Y102255D02*
X201260D01*
X201000Y123750D02*
X210250D01*
X196000Y127750D02*
X211422D01*
X209000Y129750D02*
X210593D01*
X205500Y133250D02*
X209000Y129750D01*
X192000Y131750D02*
X196000Y135750D01*
X192000Y109000D02*
X193505Y110505D01*
X200000Y101500D02*
X200755Y102255D01*
X188250Y87750D02*
X196000D01*
X210250Y123750D02*
X232000Y145500D01*
X116750Y216750D02*
X116750D01*
X222750Y19750D02*
X232000D01*
X220500Y22000D02*
X222750Y19750D01*
X219750Y36750D02*
X224750Y31750D01*
X236000D01*
X240000Y27750D01*
X226013Y39750D02*
X236000D01*
X240000Y35750D01*
X237750Y61750D02*
X239750Y59750D01*
X240000D01*
X232000D02*
X232250D01*
X190750Y57000D02*
X192000Y58250D01*
Y59750D01*
Y67750D02*
Y69000D01*
X49750Y158000D02*
Y161000D01*
X48500Y162250D02*
X49750Y161000D01*
X20250Y162250D02*
X48500D01*
X57000Y127250D02*
X59500Y124750D01*
X53100Y127250D02*
X57000D01*
X49750Y143250D02*
X53100D01*
X160800Y9250D02*
X164000D01*
X122800Y9250D02*
X126000D01*
X126000Y9250D01*
X89750Y9250D02*
X92800D01*
X89750Y9250D02*
X89750Y9250D01*
X59800D02*
X63000D01*
X63000Y9250D01*
X160800Y15750D02*
X164800Y19750D01*
Y28850D01*
X122800Y15750D02*
X126700Y19650D01*
Y28850D01*
X88600Y19950D02*
X92800Y15750D01*
X88600Y19950D02*
Y28850D01*
X117050Y67000D02*
X118050Y68000D01*
Y77250D01*
X59800Y15750D02*
Y19550D01*
X50500Y28850D02*
X59800Y19550D01*
X37250Y266570D02*
Y269000D01*
X54500D02*
X54670Y268830D01*
Y264150D02*
Y268830D01*
X201750Y215750D02*
X206000Y220000D01*
X159500Y224250D02*
X164000Y219750D01*
X159250Y224250D02*
X159500D01*
X229750Y219500D02*
Y222750D01*
X228650Y235750D02*
X230000Y234400D01*
X200000Y107750D02*
Y108000D01*
X192000Y107750D02*
Y109000D01*
X237001Y115750D02*
X240000D01*
X237000Y115750D02*
X237001Y115750D01*
X189250Y139750D02*
X192000D01*
X185250Y135750D02*
X189250Y139750D01*
X170750Y135750D02*
X185250D01*
X158750D02*
X162250Y139250D01*
X231749Y44000D02*
X232000Y43750D01*
X221761Y44002D02*
X226013Y39750D01*
X232000Y107750D02*
Y108000D01*
X162250Y139250D02*
X167250D01*
X232000Y97000D02*
Y99750D01*
X200000Y108000D02*
X202010Y110010D01*
Y110505D01*
X196000Y87750D02*
X200000Y83750D01*
X225250Y35750D02*
X232000D01*
X219500Y41500D02*
X225250Y35750D01*
X231250Y27000D02*
X232000Y27750D01*
X219500Y27000D02*
X231250D01*
X200000Y43250D02*
Y43750D01*
X258000Y55750D02*
X258250Y56000D01*
X198000Y41250D02*
X200000Y43250D01*
X227000Y44000D02*
X231749D01*
X243500Y57250D02*
X245000Y55750D01*
X164000Y9250D02*
X164000Y9250D01*
X200000Y82500D02*
Y83750D01*
X190500Y70500D02*
X192000Y69000D01*
X232000Y108000D02*
X234000Y110000D01*
X121250Y223750D02*
X121250Y223750D01*
X116750Y216750D02*
X119250Y219250D01*
Y229250D02*
X119250D01*
X110750Y237750D02*
X114250Y234250D01*
X110750Y237750D02*
Y245750D01*
X112750Y247750D01*
X129750D01*
X119250Y229250D02*
X121750Y231750D01*
X119250Y224250D02*
X119750Y223750D01*
X120750D01*
X263000Y224000D02*
X266000D01*
X259500Y227500D02*
X263000Y224000D01*
X230000Y230250D02*
Y234400D01*
Y230250D02*
X232750Y227500D01*
X259500D01*
X245000Y55750D02*
X258000D01*
X155500Y92250D02*
X156000Y91750D01*
X155500Y92250D02*
Y93750D01*
X156000Y94250D01*
X171250D02*
X171750Y94750D01*
Y96250D01*
X155500Y97250D02*
Y98750D01*
Y97250D02*
X156000Y96750D01*
X171250D02*
X171750Y96250D01*
X171250Y99250D02*
X171750Y99750D01*
X155500Y98750D02*
X156000Y99250D01*
X171250Y101750D02*
X171750Y101250D01*
X155500Y102250D02*
X156000Y101750D01*
X171750Y99750D02*
Y101250D01*
X155500Y103750D02*
X156000Y104250D01*
X155500Y102250D02*
Y103750D01*
X171750Y117750D02*
X173750Y119750D01*
X156000Y94250D02*
X171250D01*
X156000Y91750D02*
X184000D01*
X156000Y96750D02*
X171250D01*
X156000Y101750D02*
X171250D01*
X156000Y99250D02*
X171250D01*
X156000Y104250D02*
X169500D01*
X171750Y106500D01*
Y117750D01*
X118050Y77250D02*
X118750Y77950D01*
Y106750D01*
X117050Y62000D02*
X120750D01*
X131500Y72750D01*
Y82500D01*
X126750Y87250D02*
X131500Y82500D01*
X126750Y87250D02*
Y153000D01*
X118750Y106750D02*
X124500Y112500D01*
Y158500D01*
X117050Y57000D02*
X120750D01*
X134000Y70250D01*
Y152465D01*
X200000Y99750D02*
Y101500D01*
X232000Y131750D02*
X236000Y135750D01*
X241750D01*
X244000Y138000D01*
Y141000D01*
X246250Y143250D01*
X263500Y163500D02*
X264250Y164250D01*
X271250Y165000D02*
Y166500D01*
X240000Y139750D02*
Y139828D01*
X245422Y145250D01*
X258750Y182750D02*
X260750D01*
X256500Y164250D02*
X257000Y164750D01*
X253250Y164250D02*
X256500D01*
X252750Y164750D02*
X253250Y164250D01*
X252750Y164750D02*
Y166500D01*
X253750Y167500D01*
X257000Y172250D02*
X257500Y172750D01*
X259000D01*
X259500Y172250D01*
X257000Y164750D02*
Y172250D01*
X240000Y131750D02*
X240578D01*
X244578Y135750D01*
X249750D01*
X252000Y138000D01*
Y140250D01*
X252750Y141000D01*
X254000D01*
X254500Y140500D01*
Y132250D02*
Y140500D01*
Y132250D02*
X255000Y131750D01*
X256750D01*
X257250Y132250D01*
X253750Y147250D02*
X259500Y153000D01*
X245422Y145250D02*
X254578D01*
X261500Y152172D01*
X246250Y143250D02*
X255407D01*
X263500Y151343D01*
X257250Y132250D02*
Y142265D01*
X265485Y150500D01*
X258000Y182000D02*
X258750Y182750D01*
X253750Y174000D02*
X258000Y178250D01*
Y182000D01*
X260750Y182750D02*
X261500Y182000D01*
X264250Y164250D02*
X270500D01*
X271250Y165000D01*
X270500Y167250D02*
X271250Y166500D01*
X264750Y168250D02*
X265750Y167250D01*
X270500D01*
X266500Y156000D02*
X267000Y156500D01*
X271500D01*
X272500Y155500D01*
X265485Y150500D02*
X271500D01*
X272500Y151500D01*
Y155500D01*
X236000Y127750D02*
X249750D01*
X259250Y137500D02*
X260500Y138750D01*
X261000Y142000D02*
X261750Y141250D01*
X261000Y142000D02*
Y143000D01*
X264250Y146250D01*
X266500D01*
X249750Y127750D02*
X252250Y130250D01*
X253250D01*
X254000Y129500D01*
Y122000D02*
Y129500D01*
Y122000D02*
X254750Y121250D01*
X258500D01*
X259250Y122000D01*
Y137500D01*
X240000Y123750D02*
X244000Y119750D01*
X250000D01*
X252500Y117250D01*
Y111250D02*
X253250Y110500D01*
X254750D02*
X255500Y111250D01*
Y115750D02*
X256250Y116500D01*
X257750D01*
X258500Y115750D01*
X255500Y111250D02*
Y115750D01*
X252500Y111250D02*
Y117250D01*
X261250Y134422D02*
X266500Y139672D01*
X253250Y110500D02*
X254750D01*
X258500Y111250D02*
Y115750D01*
Y111250D02*
X259000Y110750D01*
X260750D01*
X263250Y130000D02*
X266500Y133250D01*
X261250Y102250D02*
X262500D01*
X260500Y103000D02*
X261250Y102250D01*
X251000Y103750D02*
X256000Y108750D01*
X246000Y103750D02*
X251000D01*
X244000Y105750D02*
X246000Y103750D01*
X244000Y105750D02*
Y111750D01*
X240000Y115750D02*
X244000Y111750D01*
X256000Y108750D02*
X258750D01*
X260500Y107000D01*
Y103000D02*
Y107000D01*
X263500Y151343D02*
Y163500D01*
X261500Y152172D02*
Y182000D01*
X259500Y153000D02*
Y172250D01*
X252750Y149250D02*
X256000Y152500D01*
Y156000D01*
X192000Y123750D02*
X196000Y127750D01*
X244750Y151250D02*
X249500Y156000D01*
X232000Y139750D02*
X235750Y143500D01*
X240843D01*
X244593Y147250D01*
X253750D01*
X232000Y145500D02*
X240015D01*
X243765Y149250D01*
X252750D01*
X211422Y127750D02*
X231172Y147500D01*
X239186D01*
X242936Y151250D01*
X244750D01*
X230343Y149500D02*
X238358D01*
X242000Y153142D01*
Y155000D01*
X243000Y156000D01*
X210954Y140954D02*
X221797D01*
X209750Y139750D02*
X210954Y140954D01*
X209750Y138000D02*
Y139750D01*
Y138000D02*
X210750Y137000D01*
X214500D01*
X201000Y131750D02*
X202500Y133250D01*
X205500D01*
X221797Y140954D02*
X230343Y149500D01*
X210593Y129750D02*
X211500Y130657D01*
Y132500D01*
X212500Y133500D01*
X214343D01*
X215750Y134907D01*
Y135750D01*
X214500Y137000D02*
X215750Y135750D01*
X220500Y146250D02*
X221250Y145500D01*
X214000Y147000D02*
X214750Y146250D01*
X214000Y147000D02*
Y148500D01*
X214750Y149250D01*
X227265D02*
X229515Y151500D01*
X232000D01*
X236500Y156000D01*
X202750Y135750D02*
X210000Y143000D01*
X196000Y135750D02*
X202750D01*
X214750Y149250D02*
X227265D01*
X214750Y146250D02*
X220500D01*
X210000Y143000D02*
X220500D01*
X221250Y143750D01*
Y145500D01*
X201000Y139750D02*
X203250D01*
X206500Y143000D01*
Y145000D01*
X205750Y145750D02*
X206500Y145000D01*
X200000Y146500D02*
X200750Y145750D01*
X200000Y146500D02*
Y148750D01*
X212000Y151750D02*
X225750D01*
X230000Y156000D01*
X206500Y150250D02*
Y152500D01*
X205750Y149500D02*
X206500Y150250D01*
X200000Y148750D02*
X200750Y149500D01*
X200000Y154000D02*
Y156250D01*
Y154000D02*
X200750Y153250D01*
X205750D02*
X206500Y152500D01*
X200000Y156250D02*
X200750Y157000D01*
X206750D02*
X212000Y151750D01*
X200750Y149500D02*
X205750D01*
X200750Y145750D02*
X205750D01*
X200750Y153250D02*
X205750D01*
X200750Y157000D02*
X206750D01*
X231000Y96000D02*
X232000Y97000D01*
X232000Y123750D02*
X236000Y127750D01*
X237250Y88000D02*
X246250D01*
X248000Y91750D02*
X249000Y90750D01*
X232250Y59750D02*
X234250Y61750D01*
X228750Y51750D02*
X232000D01*
X228750Y51750D02*
X228750Y51750D01*
X260500Y138750D02*
X262750D01*
X263250Y139250D01*
Y140750D01*
X262750Y141250D02*
X263250Y140750D01*
X261750Y141250D02*
X262750D01*
X266500Y139672D02*
Y139750D01*
X124500Y158500D02*
X133750Y167750D01*
X206000Y220000D02*
Y232250D01*
X209500Y235750D01*
X228650D01*
X140750Y174750D02*
X141750Y175750D01*
X134000Y152465D02*
X143250Y161714D01*
Y169500D01*
X149500Y175750D01*
X126750Y153000D02*
X140750Y167000D01*
Y174750D01*
X260750Y110750D02*
X261250Y111250D01*
Y134422D01*
X262500Y102250D02*
X263250Y103000D01*
Y130000D01*
X37250Y266570D02*
X39670Y264150D01*
X161008Y152007D02*
X161750Y151265D01*
Y139750D02*
Y151265D01*
Y139750D02*
X162250Y139250D01*
X167250D02*
X170750Y135750D01*
D37*
X157750Y228500D02*
X158500Y229250D01*
X179250D02*
X180750D01*
X183750Y226250D01*
Y222000D02*
Y226250D01*
X181000Y219250D02*
X183750Y222000D01*
X179250Y219250D02*
X181000D01*
X35250Y155000D02*
Y158000D01*
X44750D01*
X26900Y146650D02*
X35250Y155000D01*
X26900Y143250D02*
Y146650D01*
X95050Y62000D02*
X103550D01*
X95050Y62000D02*
X95050Y62000D01*
X95050Y62000D02*
Y64500D01*
X88800Y60500D02*
X95050D01*
X95050Y60500D01*
Y58000D02*
Y60500D01*
Y62000D01*
X101750Y67000D02*
X103550D01*
X99250Y69500D02*
X101750Y67000D01*
X95050Y69500D02*
X99250D01*
X101750Y57000D02*
X103550D01*
X97750Y53000D02*
X101750Y57000D01*
X95050Y53000D02*
X97750D01*
X103550Y57000D02*
X108800D01*
X110300Y55500D01*
X101500Y74000D02*
Y77200D01*
X101550Y77250D01*
X169250Y229250D02*
X174250D01*
X179250D01*
X158500D02*
X169250D01*
D38*
X0Y38100D02*
X2850Y35250D01*
X31500D01*
X37800Y41550D01*
X0Y101600D02*
X3650D01*
X9000Y96250D01*
Y71300D02*
Y96250D01*
Y71300D02*
X17300Y63000D01*
D40*
X262750Y192000D02*
Y192500D01*
Y192000D02*
X270750Y184000D01*
X273500D01*
D41*
X-4500Y139700D02*
D03*
D42*
Y127000D02*
D03*
Y114300D02*
D03*
Y101600D02*
D03*
Y88900D02*
D03*
Y76200D02*
D03*
Y63500D02*
D03*
Y50800D02*
D03*
Y38100D02*
D03*
Y25400D02*
D03*
Y12700D02*
D03*
X283900D02*
D03*
Y25400D02*
D03*
Y38100D02*
D03*
Y50800D02*
D03*
Y63500D02*
D03*
Y76200D02*
D03*
Y88900D02*
D03*
Y101600D02*
D03*
Y114300D02*
D03*
Y127000D02*
D03*
Y139700D02*
D03*
Y152400D02*
D03*
Y165100D02*
D03*
Y177800D02*
D03*
Y190500D02*
D03*
Y203200D02*
D03*
Y215900D02*
D03*
Y228600D02*
D03*
Y241300D02*
D03*
Y254000D02*
D03*
Y266700D02*
D03*
X-4500D02*
D03*
Y254000D02*
D03*
Y241300D02*
D03*
Y228600D02*
D03*
Y215900D02*
D03*
Y203200D02*
D03*
Y190500D02*
D03*
Y177800D02*
D03*
Y165100D02*
D03*
Y152400D02*
D03*
D43*
X12700Y-4500D02*
D03*
X25400D02*
D03*
X38100D02*
D03*
X50800D02*
D03*
X63500D02*
D03*
X76200D02*
D03*
X88900D02*
D03*
X101600D02*
D03*
X114300D02*
D03*
X127000D02*
D03*
X139700D02*
D03*
X152400D02*
D03*
X165100D02*
D03*
X177800D02*
D03*
X190500D02*
D03*
X203200D02*
D03*
X215900D02*
D03*
X228600D02*
D03*
X241300D02*
D03*
X254000D02*
D03*
X266700D02*
D03*
Y283900D02*
D03*
X254000D02*
D03*
X241300D02*
D03*
X228600D02*
D03*
X215900D02*
D03*
X203200D02*
D03*
X190500D02*
D03*
X177800D02*
D03*
X165100D02*
D03*
X152400D02*
D03*
X139700D02*
D03*
X127000D02*
D03*
X114300D02*
D03*
X101600D02*
D03*
X88900D02*
D03*
X76200D02*
D03*
X63500D02*
D03*
X50800D02*
D03*
X38100D02*
D03*
X25400D02*
D03*
X12700D02*
D03*
D44*
X46250Y206000D02*
D03*
X77500Y206000D02*
D03*
X63250Y124750D02*
D03*
X187500Y110750D02*
D03*
X186759Y115756D02*
D03*
X189750Y102250D02*
D03*
X193759Y110505D02*
D03*
X196259Y105833D02*
D03*
X201260Y102255D02*
D03*
X191759Y116006D02*
D03*
X201000Y123750D02*
D03*
X191000Y122750D02*
D03*
X192000Y131750D02*
D03*
X188250Y87750D02*
D03*
X188500Y135000D02*
D03*
X161750Y119750D02*
D03*
X153750D02*
D03*
X229750Y174750D02*
D03*
X238375Y167750D02*
D03*
X229750Y167500D02*
D03*
X217750Y183750D02*
D03*
X177259Y119256D02*
D03*
X161750Y159750D02*
D03*
X153750D02*
D03*
Y167750D02*
D03*
X264000Y184750D02*
D03*
X158750Y276500D02*
D03*
X153750Y151750D02*
D03*
X138250Y207250D02*
D03*
X116750Y216750D02*
D03*
X141750Y220500D02*
D03*
X17250Y172750D02*
D03*
X19750Y177250D02*
D03*
X14500Y170500D02*
D03*
X26250Y171250D02*
D03*
Y179250D02*
D03*
X130250Y195750D02*
D03*
X133500Y195750D02*
D03*
X108750Y213750D02*
D03*
X106000Y218500D02*
D03*
X141750Y192000D02*
D03*
X78250Y131250D02*
D03*
X69670Y216900D02*
D03*
X58250Y131250D02*
D03*
X38250Y191250D02*
D03*
X164750Y199750D02*
D03*
X14250Y271000D02*
D03*
X129750Y143750D02*
D03*
Y135750D02*
D03*
X190750Y57000D02*
D03*
X220500Y22000D02*
D03*
X219750Y36750D02*
D03*
X237750Y61750D02*
D03*
X200000Y35750D02*
D03*
X200000Y51750D02*
D03*
X232000Y75750D02*
D03*
X240000D02*
D03*
X121750Y135750D02*
D03*
Y143750D02*
D03*
X137750Y151750D02*
D03*
X145750D02*
D03*
X129750Y159750D02*
D03*
X169750Y144500D02*
D03*
X201000Y131750D02*
D03*
X229750Y251750D02*
D03*
X174250Y224250D02*
D03*
X179250D02*
D03*
X44750Y158000D02*
D03*
X30250D02*
D03*
X59500Y124750D02*
D03*
X20250Y162250D02*
D03*
X62250Y191250D02*
D03*
X58250D02*
D03*
X54250D02*
D03*
X50250D02*
D03*
X46250D02*
D03*
X19500Y124750D02*
D03*
X26900Y127250D02*
D03*
Y135250D02*
D03*
X164800Y28850D02*
D03*
X126700D02*
D03*
X88600Y28850D02*
D03*
X50500Y28850D02*
D03*
X63000Y9250D02*
D03*
X89750D02*
D03*
X126000Y9250D02*
D03*
X155800Y9250D02*
D03*
X54800D02*
D03*
X101500Y74000D02*
D03*
X95050Y69500D02*
D03*
X101300Y28850D02*
D03*
X63200D02*
D03*
X54250Y131250D02*
D03*
X62250D02*
D03*
X49000Y108250D02*
D03*
X54000D02*
D03*
X61000Y108250D02*
D03*
X66000D02*
D03*
X15500Y153750D02*
D03*
Y128000D02*
D03*
X20500Y237500D02*
D03*
X20500Y212500D02*
D03*
X32170Y231650D02*
D03*
X44670Y264150D02*
D03*
X74670Y264150D02*
D03*
X54670D02*
D03*
X69670D02*
D03*
X49670Y264150D02*
D03*
X59670Y264150D02*
D03*
X77750Y269750D02*
D03*
X93000Y211750D02*
D03*
X14500Y205000D02*
D03*
X106000Y225000D02*
D03*
X124250Y219250D02*
D03*
X134250D02*
D03*
X155500Y203750D02*
D03*
X106000Y205500D02*
D03*
X201750Y199750D02*
D03*
X213750Y193750D02*
D03*
X209750Y175750D02*
D03*
X193750D02*
D03*
X201750Y167750D02*
D03*
X229750Y187000D02*
D03*
X215250Y155750D02*
D03*
X117500Y269250D02*
D03*
X143500Y269250D02*
D03*
X161500Y269250D02*
D03*
X169500D02*
D03*
X187500D02*
D03*
X195500D02*
D03*
X208500D02*
D03*
X226500D02*
D03*
X270250Y236500D02*
D03*
Y218500D02*
D03*
Y210500D02*
D03*
X270250Y257500D02*
D03*
X193750Y255750D02*
D03*
Y247750D02*
D03*
X201750Y215750D02*
D03*
X254850Y251750D02*
D03*
X164000Y219750D02*
D03*
X165750Y152500D02*
D03*
X107500Y140250D02*
D03*
Y195750D02*
D03*
X209750Y207750D02*
D03*
X201750D02*
D03*
X229750Y206500D02*
D03*
Y200000D02*
D03*
Y193500D02*
D03*
X192500Y211750D02*
D03*
X163750Y205750D02*
D03*
X182000Y191750D02*
D03*
X183750Y251750D02*
D03*
X270250Y175750D02*
D03*
X229750Y222750D02*
D03*
X233750Y223750D02*
D03*
X225750Y215750D02*
D03*
X217000Y78000D02*
D03*
X158750Y135750D02*
D03*
X161750Y127750D02*
D03*
X257250Y99750D02*
D03*
X257250Y106250D02*
D03*
X257250Y93250D02*
D03*
X257250Y80250D02*
D03*
X232000Y139750D02*
D03*
X240000D02*
D03*
Y131750D02*
D03*
X232000D02*
D03*
X240000Y123750D02*
D03*
X237000Y115750D02*
D03*
X137750Y119750D02*
D03*
X169750D02*
D03*
Y127750D02*
D03*
X185750Y151750D02*
D03*
X177750Y127750D02*
D03*
X152750Y147750D02*
D03*
X165250Y142750D02*
D03*
X175250Y100750D02*
D03*
X178750Y97250D02*
D03*
X180500Y95500D02*
D03*
X177000Y99000D02*
D03*
X221761Y44002D02*
D03*
X201000Y139750D02*
D03*
X266500Y126750D02*
D03*
Y120250D02*
D03*
X232000Y91750D02*
D03*
X200000Y115750D02*
D03*
X202010Y110505D02*
D03*
X192000Y75750D02*
D03*
X184000Y67750D02*
D03*
X192000Y83750D02*
D03*
Y91750D02*
D03*
X184000Y107750D02*
D03*
X173750Y119750D02*
D03*
X231000Y103750D02*
D03*
X210250Y93750D02*
D03*
X237250Y88000D02*
D03*
X177750Y143750D02*
D03*
X185750D02*
D03*
X122250Y106500D02*
D03*
X130250D02*
D03*
X219500Y27000D02*
D03*
Y41500D02*
D03*
X200000Y59750D02*
D03*
Y67750D02*
D03*
X121750Y151750D02*
D03*
Y159750D02*
D03*
X158250Y53000D02*
D03*
Y60000D02*
D03*
X145750Y142750D02*
D03*
X129750Y127750D02*
D03*
X242750Y53750D02*
D03*
X258250Y56000D02*
D03*
X244500Y67750D02*
D03*
X240000Y67750D02*
D03*
X198000Y41250D02*
D03*
X227000Y44000D02*
D03*
X243500Y57250D02*
D03*
X145750Y147750D02*
D03*
X266500Y79250D02*
D03*
Y72750D02*
D03*
Y40250D02*
D03*
Y46750D02*
D03*
Y66250D02*
D03*
X202000Y10000D02*
D03*
X192000Y19750D02*
D03*
X164000Y9250D02*
D03*
X200000Y19750D02*
D03*
X205250Y87500D02*
D03*
X190500Y70500D02*
D03*
X199010Y74754D02*
D03*
X205250Y81250D02*
D03*
X184000Y35750D02*
D03*
X192000Y27750D02*
D03*
Y43750D02*
D03*
X184000Y59750D02*
D03*
X192000Y51750D02*
D03*
X210250Y81250D02*
D03*
X234000Y110000D02*
D03*
X240000Y106749D02*
D03*
X184000Y75750D02*
D03*
X153250Y60000D02*
D03*
X266500Y98750D02*
D03*
Y92250D02*
D03*
Y85750D02*
D03*
X271500Y139750D02*
D03*
X270750Y146250D02*
D03*
X271500Y120250D02*
D03*
X245750Y171500D02*
D03*
X245750Y169000D02*
D03*
X243250Y16250D02*
D03*
X244262Y49502D02*
D03*
X124250Y229250D02*
D03*
X144250Y224250D02*
D03*
X169250D02*
D03*
Y219250D02*
D03*
X129750Y223750D02*
D03*
X137250Y231000D02*
D03*
X114250Y224250D02*
D03*
Y229250D02*
D03*
X119250Y239250D02*
D03*
X125750Y237500D02*
D03*
X129750Y247750D02*
D03*
X121750Y231750D02*
D03*
X120750Y223750D02*
D03*
X229750Y213000D02*
D03*
X248750Y180500D02*
D03*
X241750Y223750D02*
D03*
X74250Y131250D02*
D03*
X86250Y179250D02*
D03*
Y183250D02*
D03*
X34250Y191250D02*
D03*
X192000Y35750D02*
D03*
X252250Y53250D02*
D03*
X255250Y52500D02*
D03*
X73000Y108250D02*
D03*
X70250Y128000D02*
D03*
X67500Y124500D02*
D03*
X42250Y191250D02*
D03*
X137750Y127750D02*
D03*
X209750Y183750D02*
D03*
X207000Y199750D02*
D03*
X185750Y207750D02*
D03*
X209750Y167750D02*
D03*
X201750Y175750D02*
D03*
X131500Y149000D02*
D03*
X83000Y167250D02*
D03*
X3500Y209500D02*
D03*
X66250Y190500D02*
D03*
X70250Y194000D02*
D03*
X149250Y260250D02*
D03*
X118750Y234750D02*
D03*
X135250Y260250D02*
D03*
X15000Y200750D02*
D03*
X135500Y251500D02*
D03*
X151750Y196250D02*
D03*
X205250Y100000D02*
D03*
X200000Y91750D02*
D03*
X271500Y133250D02*
D03*
X250000Y110750D02*
D03*
X231000Y96000D02*
D03*
X232000Y123750D02*
D03*
X232000Y83750D02*
D03*
X234250Y61750D02*
D03*
X222000Y10000D02*
D03*
X250250Y87156D02*
D03*
Y95656D02*
D03*
X245012Y95755D02*
D03*
X228750Y51750D02*
D03*
X266500Y139750D02*
D03*
X272000Y126750D02*
D03*
X237500Y119250D02*
D03*
X196250Y95750D02*
D03*
Y98250D02*
D03*
X83250Y189250D02*
D03*
X145250Y208000D02*
D03*
X146250Y231250D02*
D03*
X26250Y175250D02*
D03*
X217750Y231750D02*
D03*
X225750D02*
D03*
X201750D02*
D03*
X209750D02*
D03*
X185750Y239750D02*
D03*
X217750Y255750D02*
D03*
X241750Y247750D02*
D03*
X151250Y209750D02*
D03*
X89250Y135000D02*
D03*
X89254Y143246D02*
D03*
X149250Y199250D02*
D03*
X150000Y193000D02*
D03*
X145750Y194750D02*
D03*
X133750Y167750D02*
D03*
X137750Y159750D02*
D03*
Y175750D02*
D03*
X185750Y199750D02*
D03*
X192500Y187750D02*
D03*
X193750Y199750D02*
D03*
X226250Y211750D02*
D03*
X141750Y175750D02*
D03*
X145750D02*
D03*
X149500D02*
D03*
X153750D02*
D03*
X145750Y167750D02*
D03*
X137750D02*
D03*
X129750D02*
D03*
X193750Y207750D02*
D03*
X107500Y145250D02*
D03*
X83250Y155250D02*
D03*
X50250Y131250D02*
D03*
X46250D02*
D03*
X182000Y186750D02*
D03*
X189000Y187750D02*
D03*
X225750Y224500D02*
D03*
X207500Y217500D02*
D03*
X107500Y160250D02*
D03*
Y165250D02*
D03*
X89250Y147250D02*
D03*
Y151250D02*
D03*
X266500Y111750D02*
D03*
X271500D02*
D03*
X266500Y105250D02*
D03*
X271500D02*
D03*
X273750Y159250D02*
D03*
X275250Y171500D02*
D03*
X255000Y215500D02*
D03*
X270250Y192500D02*
D03*
X245750Y174000D02*
D03*
X209750Y191750D02*
D03*
X142250Y145250D02*
D03*
X108000Y149750D02*
D03*
X89250Y159250D02*
D03*
X232000Y115750D02*
D03*
X161750Y247750D02*
D03*
X87000Y272000D02*
D03*
X190000Y229500D02*
D03*
X171750Y236750D02*
D03*
X161750Y236750D02*
D03*
X185750Y232500D02*
D03*
X153750Y248500D02*
D03*
X39670Y264150D02*
D03*
X111250Y175250D02*
D03*
X107500Y172250D02*
D03*
Y190750D02*
D03*
X104171Y179750D02*
D03*
X107500Y177250D02*
D03*
X84750Y175250D02*
D03*
X89000Y171250D02*
D03*
X92750Y198000D02*
D03*
X158500Y209750D02*
D03*
X165750Y135750D02*
D03*
X151250Y213500D02*
D03*
X153750Y220750D02*
D03*
X241750Y167750D02*
D03*
X215250Y164250D02*
D03*
X218750Y223250D02*
D03*
X177750Y151750D02*
D03*
X169750Y159750D02*
D03*
X161008Y152007D02*
D03*
X158508Y142757D02*
D03*
Y147757D02*
D03*
X142000Y137250D02*
D03*
X137750Y143750D02*
D03*
X142250Y141000D02*
D03*
X170250Y132750D02*
D03*
X153750Y127000D02*
D03*
X145750Y135750D02*
D03*
X155500Y140000D02*
D03*
X162000Y133250D02*
D03*
D45*
X232000Y91750D02*
D03*
X184000Y19750D02*
D03*
X192000D02*
D03*
X200000D02*
D03*
X232000D02*
D03*
X240000D02*
D03*
X248000D02*
D03*
X184000Y27750D02*
D03*
X192000D02*
D03*
X200000D02*
D03*
X232000D02*
D03*
X240000D02*
D03*
X248000D02*
D03*
X184000Y35750D02*
D03*
X192000D02*
D03*
X200000Y35750D02*
D03*
X232000D02*
D03*
X240000Y35750D02*
D03*
X248000D02*
D03*
X184000Y43750D02*
D03*
X192000D02*
D03*
X200000D02*
D03*
X232000D02*
D03*
X240000D02*
D03*
X248000D02*
D03*
X184000Y51750D02*
D03*
X192000D02*
D03*
X200000D02*
D03*
X232000D02*
D03*
X240000D02*
D03*
X248000D02*
D03*
X184000Y59750D02*
D03*
X192000D02*
D03*
X200000D02*
D03*
X232000D02*
D03*
X240000D02*
D03*
X248000D02*
D03*
X184000Y67750D02*
D03*
X192000D02*
D03*
X200000D02*
D03*
X232000D02*
D03*
X240000D02*
D03*
X248000D02*
D03*
X184000Y75750D02*
D03*
X192000D02*
D03*
X200000D02*
D03*
X232000D02*
D03*
X240000D02*
D03*
X248000D02*
D03*
X184000Y83750D02*
D03*
X192000D02*
D03*
X200000D02*
D03*
X232000D02*
D03*
X240000D02*
D03*
X248000D02*
D03*
X184000Y91750D02*
D03*
X192000D02*
D03*
X200000D02*
D03*
X240000D02*
D03*
X248000D02*
D03*
X184000Y99750D02*
D03*
X192000D02*
D03*
X200000D02*
D03*
X232000D02*
D03*
X240000D02*
D03*
X248000D02*
D03*
X184000Y107750D02*
D03*
X192000D02*
D03*
X200000D02*
D03*
X232000D02*
D03*
X240000D02*
D03*
X248000D02*
D03*
X184000Y115750D02*
D03*
X192000D02*
D03*
X200000D02*
D03*
X232000D02*
D03*
X240000D02*
D03*
X248000D02*
D03*
X184000Y123750D02*
D03*
X192000D02*
D03*
X200000Y123750D02*
D03*
X232000D02*
D03*
X240000Y123750D02*
D03*
X248000D02*
D03*
X184000Y131750D02*
D03*
X192000D02*
D03*
X200000D02*
D03*
X232000D02*
D03*
X240000D02*
D03*
X248000D02*
D03*
X184000Y139750D02*
D03*
X192000D02*
D03*
X200000D02*
D03*
X232000D02*
D03*
X240000D02*
D03*
X248000D02*
D03*
X240000Y83750D02*
D03*
Y43750D02*
D03*
X184000Y51750D02*
D03*
Y43750D02*
D03*
Y27750D02*
D03*
X200000D02*
D03*
X245000Y24500D02*
D03*
X15000Y264000D02*
D03*
X25000Y265750D02*
D03*
X68750Y61000D02*
D03*
X44250Y273500D02*
D03*
X248000Y139750D02*
D03*
Y123750D02*
D03*
Y131750D02*
D03*
X253250Y61000D02*
D03*
X259000Y71000D02*
D03*
X240000Y91750D02*
D03*
X248000Y75750D02*
D03*
X232000Y67750D02*
D03*
X248000Y35750D02*
D03*
Y43750D02*
D03*
Y51750D02*
D03*
X266500Y30000D02*
D03*
X184000Y131750D02*
D03*
X210500Y6750D02*
D03*
X219500Y69250D02*
D03*
X176500Y20000D02*
D03*
X116500Y112750D02*
D03*
X4000Y197000D02*
D03*
X248000Y115750D02*
D03*
X95250Y207000D02*
D03*
X273500Y184000D02*
D03*
D46*
X241750Y266750D02*
D03*
X54750Y150250D02*
D03*
X40000D02*
D03*
X101300Y41550D02*
D03*
X139400Y41550D02*
D03*
X164800Y41550D02*
D03*
X152100Y79650D02*
D03*
X75900Y79650D02*
D03*
X37800D02*
D03*
X106500Y11000D02*
D03*
X37800Y41550D02*
D03*
X75900Y41550D02*
D03*
X114000D02*
D03*
X152100Y41550D02*
D03*
X17300Y45500D02*
D03*
X17300Y78500D02*
D03*
X50500Y79650D02*
D03*
X114000Y86100D02*
D03*
X126700Y79650D02*
D03*
X50500Y66950D02*
D03*
X126700Y54250D02*
D03*
X43250Y253070D02*
D03*
Y245500D02*
D03*
X176250Y78500D02*
D03*
Y63000D02*
D03*
X176299Y12500D02*
D03*
X176250Y45500D02*
D03*
X63200Y41550D02*
D03*
X176250Y30000D02*
D03*
X70500Y117750D02*
D03*
X88600Y79650D02*
D03*
D47*
X17300Y63000D02*
D03*
D48*
X179250Y179250D02*
D03*
Y184250D02*
D03*
Y189250D02*
D03*
Y194250D02*
D03*
Y199250D02*
D03*
Y204250D02*
D03*
Y209250D02*
D03*
Y214250D02*
D03*
Y219250D02*
D03*
Y224250D02*
D03*
Y229250D02*
D03*
Y234250D02*
D03*
Y239250D02*
D03*
Y244250D02*
D03*
X174250Y179250D02*
D03*
Y184250D02*
D03*
Y189250D02*
D03*
Y194250D02*
D03*
Y199250D02*
D03*
Y204250D02*
D03*
Y209250D02*
D03*
Y214250D02*
D03*
Y219250D02*
D03*
Y224250D02*
D03*
Y229250D02*
D03*
Y234250D02*
D03*
Y239250D02*
D03*
Y244250D02*
D03*
X169250Y179250D02*
D03*
Y184250D02*
D03*
Y189250D02*
D03*
Y194250D02*
D03*
Y199250D02*
D03*
Y204250D02*
D03*
Y209250D02*
D03*
Y214250D02*
D03*
Y219250D02*
D03*
Y224250D02*
D03*
Y229250D02*
D03*
Y234250D02*
D03*
Y239250D02*
D03*
Y244250D02*
D03*
X164250Y179250D02*
D03*
Y184250D02*
D03*
Y189250D02*
D03*
Y234250D02*
D03*
Y239250D02*
D03*
Y244250D02*
D03*
X159250Y179250D02*
D03*
Y184250D02*
D03*
Y189250D02*
D03*
Y199250D02*
D03*
Y204250D02*
D03*
Y209250D02*
D03*
Y214250D02*
D03*
Y219250D02*
D03*
Y224250D02*
D03*
Y234250D02*
D03*
Y239250D02*
D03*
Y244250D02*
D03*
X154250Y179250D02*
D03*
Y184250D02*
D03*
Y189250D02*
D03*
Y199250D02*
D03*
Y224250D02*
D03*
Y234250D02*
D03*
Y239250D02*
D03*
Y244250D02*
D03*
X149250Y179250D02*
D03*
Y184250D02*
D03*
Y189250D02*
D03*
Y199250D02*
D03*
Y224250D02*
D03*
Y234250D02*
D03*
Y239250D02*
D03*
Y244250D02*
D03*
X144250Y179250D02*
D03*
Y184250D02*
D03*
Y189250D02*
D03*
Y199250D02*
D03*
Y224250D02*
D03*
Y234250D02*
D03*
Y239250D02*
D03*
Y244250D02*
D03*
X139250Y179250D02*
D03*
Y184250D02*
D03*
Y189250D02*
D03*
Y199250D02*
D03*
Y224250D02*
D03*
Y234250D02*
D03*
Y239250D02*
D03*
Y244250D02*
D03*
X134250Y179250D02*
D03*
Y184250D02*
D03*
Y189250D02*
D03*
Y199250D02*
D03*
Y204250D02*
D03*
Y209250D02*
D03*
Y214250D02*
D03*
Y219250D02*
D03*
Y224250D02*
D03*
Y234250D02*
D03*
Y239250D02*
D03*
Y244250D02*
D03*
X129250Y179250D02*
D03*
Y184250D02*
D03*
Y189250D02*
D03*
Y229250D02*
D03*
Y234250D02*
D03*
Y239250D02*
D03*
Y244250D02*
D03*
X124250Y179250D02*
D03*
Y184250D02*
D03*
Y189250D02*
D03*
Y194250D02*
D03*
Y199250D02*
D03*
Y204250D02*
D03*
Y209250D02*
D03*
Y214250D02*
D03*
Y219250D02*
D03*
Y224250D02*
D03*
Y229250D02*
D03*
Y234250D02*
D03*
Y239250D02*
D03*
Y244250D02*
D03*
X119250Y179250D02*
D03*
Y184250D02*
D03*
Y189250D02*
D03*
Y194250D02*
D03*
Y199250D02*
D03*
Y204250D02*
D03*
Y209250D02*
D03*
Y214250D02*
D03*
Y219250D02*
D03*
Y224250D02*
D03*
Y229250D02*
D03*
Y234250D02*
D03*
Y239250D02*
D03*
Y244250D02*
D03*
X114250Y179250D02*
D03*
Y184250D02*
D03*
Y189250D02*
D03*
Y194250D02*
D03*
Y199250D02*
D03*
Y204250D02*
D03*
Y209250D02*
D03*
Y214250D02*
D03*
Y219250D02*
D03*
Y224250D02*
D03*
Y229250D02*
D03*
Y234250D02*
D03*
Y239250D02*
D03*
Y244250D02*
D03*
X157750Y228500D02*
D03*
X214500Y212500D02*
D03*
X96250Y167750D02*
D03*
X151007Y139507D02*
D03*
D49*
X40000Y131250D02*
Y150250D01*
X241750Y259750D02*
Y266750D01*
D51*
X40000Y131250D02*
D03*
X241750Y247750D02*
D03*
D52*
X26900Y119250D02*
D03*
Y127250D02*
D03*
Y135250D02*
D03*
Y143250D02*
D03*
X53100Y119250D02*
D03*
Y127250D02*
D03*
Y135250D02*
D03*
Y143250D02*
D03*
X254850Y259750D02*
D03*
Y251750D02*
D03*
Y243750D02*
D03*
Y235750D02*
D03*
X228650Y259750D02*
D03*
Y251750D02*
D03*
Y243750D02*
D03*
Y235750D02*
D03*
D53*
X110300Y55500D02*
D03*
X110300Y68500D02*
D03*
D54*
X103550Y67000D02*
D03*
X103550Y62000D02*
D03*
Y57000D02*
D03*
X117050D02*
D03*
Y62000D02*
D03*
Y67000D02*
D03*
D55*
X247750Y211500D02*
D03*
Y192500D02*
D03*
X262750D02*
D03*
Y211500D02*
D03*
M02*
