G04 Layer_Physical_Order=9*
G04 Layer_Color=32896*
%FSLAX44Y44*%
%MOMM*%
G71*
G01*
G75*
%ADD33C,0.2000*%
%ADD34C,0.3000*%
%ADD36C,0.1000*%
G04:AMPARAMS|DCode=42|XSize=0.7mm|YSize=1.6mm|CornerRadius=0.175mm|HoleSize=0mm|Usage=FLASHONLY|Rotation=90.000|XOffset=0mm|YOffset=0mm|HoleType=Round|Shape=RoundedRectangle|*
%AMROUNDEDRECTD42*
21,1,0.7000,1.2500,0,0,90.0*
21,1,0.3500,1.6000,0,0,90.0*
1,1,0.3500,0.6250,0.1750*
1,1,0.3500,0.6250,-0.1750*
1,1,0.3500,-0.6250,-0.1750*
1,1,0.3500,-0.6250,0.1750*
%
%ADD42ROUNDEDRECTD42*%
%ADD44C,0.2000*%
%ADD45C,0.4000*%
%ADD46C,0.6000*%
G36*
X279400Y271254D02*
X277650D01*
X276577Y271040D01*
X275667Y270433D01*
X275060Y269523D01*
X274846Y268450D01*
Y264950D01*
X275060Y263877D01*
X275667Y262967D01*
X276577Y262360D01*
X277650Y262146D01*
X279400D01*
Y258554D01*
X277650D01*
X276577Y258340D01*
X275667Y257733D01*
X275060Y256823D01*
X274846Y255750D01*
Y252250D01*
X275060Y251177D01*
X275667Y250267D01*
X276577Y249660D01*
X277650Y249446D01*
X279400D01*
Y245854D01*
X277650D01*
X276577Y245640D01*
X275667Y245033D01*
X275060Y244123D01*
X274846Y243050D01*
Y239550D01*
X275060Y238477D01*
X275667Y237567D01*
X276577Y236960D01*
X277650Y236746D01*
X279400D01*
Y233154D01*
X277650D01*
X276577Y232940D01*
X275667Y232333D01*
X275060Y231423D01*
X274846Y230350D01*
Y226850D01*
X275060Y225777D01*
X275667Y224867D01*
X276577Y224260D01*
X277650Y224046D01*
X279400D01*
Y220454D01*
X277650D01*
X276577Y220240D01*
X275667Y219633D01*
X275060Y218723D01*
X274846Y217650D01*
Y214150D01*
X275060Y213077D01*
X275667Y212167D01*
X276577Y211560D01*
X277650Y211346D01*
X279400D01*
Y207754D01*
X277650D01*
X276577Y207540D01*
X275667Y206933D01*
X275060Y206023D01*
X274846Y204950D01*
Y201450D01*
X275060Y200377D01*
X275667Y199467D01*
X276577Y198860D01*
X277650Y198646D01*
X279400D01*
Y195054D01*
X277650D01*
X276577Y194840D01*
X275667Y194233D01*
X275060Y193323D01*
X274846Y192250D01*
Y188750D01*
X275060Y187677D01*
X275667Y186767D01*
X276577Y186160D01*
X277650Y185946D01*
X279400D01*
Y182354D01*
X277650D01*
X276577Y182140D01*
X275667Y181533D01*
X275060Y180623D01*
X274846Y179550D01*
Y176050D01*
X275060Y174977D01*
X275217Y174742D01*
X274582Y173406D01*
X274470Y173384D01*
X273808Y172942D01*
X273366Y172280D01*
X273211Y171500D01*
X273366Y170720D01*
X273808Y170058D01*
X274470Y169616D01*
X274669Y169576D01*
X275282Y168297D01*
X275283Y168258D01*
X275060Y167923D01*
X274846Y166850D01*
Y163350D01*
X275060Y162277D01*
X275100Y162217D01*
X274916Y161867D01*
X274260Y161188D01*
X273750Y161289D01*
X272970Y161134D01*
X272308Y160692D01*
X271866Y160030D01*
X271711Y159250D01*
X271866Y158470D01*
X272308Y157808D01*
X272970Y157366D01*
X273750Y157211D01*
X274531Y157366D01*
X275192Y157808D01*
X275634Y158470D01*
X275789Y159250D01*
X275673Y159836D01*
X276199Y160409D01*
X276689Y160737D01*
X277650Y160546D01*
X279400D01*
Y156954D01*
X277650D01*
X276577Y156740D01*
X275667Y156133D01*
X275060Y155223D01*
X274846Y154150D01*
Y150650D01*
X275060Y149577D01*
X275667Y148667D01*
X276577Y148060D01*
X277650Y147846D01*
X279400D01*
Y144254D01*
X277650D01*
X276577Y144040D01*
X275667Y143433D01*
X275060Y142523D01*
X274846Y141450D01*
Y137950D01*
X275060Y136877D01*
X275667Y135967D01*
X276577Y135360D01*
X277650Y135146D01*
X279400D01*
Y131554D01*
X277650D01*
X276577Y131340D01*
X275667Y130733D01*
X275060Y129823D01*
X274846Y128750D01*
Y125250D01*
X275060Y124177D01*
X275667Y123267D01*
X276577Y122660D01*
X277650Y122446D01*
X279400D01*
Y118854D01*
X277650D01*
X276577Y118640D01*
X275667Y118033D01*
X275060Y117123D01*
X274846Y116050D01*
Y112550D01*
X275060Y111477D01*
X275667Y110567D01*
X276577Y109960D01*
X277650Y109746D01*
X279400D01*
Y106154D01*
X277650D01*
X276577Y105940D01*
X275667Y105333D01*
X275060Y104423D01*
X274846Y103350D01*
Y99850D01*
X275060Y98777D01*
X275667Y97867D01*
X276577Y97260D01*
X277650Y97046D01*
X279400D01*
Y93454D01*
X277650D01*
X276577Y93240D01*
X275667Y92633D01*
X275060Y91723D01*
X274846Y90650D01*
Y87150D01*
X275060Y86077D01*
X275667Y85167D01*
X276577Y84560D01*
X277650Y84346D01*
X279400D01*
Y80754D01*
X277650D01*
X276577Y80540D01*
X275667Y79933D01*
X275060Y79023D01*
X274846Y77950D01*
Y74450D01*
X275060Y73377D01*
X275667Y72467D01*
X276577Y71860D01*
X277650Y71646D01*
X279400D01*
Y68054D01*
X277650D01*
X276577Y67840D01*
X275667Y67233D01*
X275060Y66323D01*
X274846Y65250D01*
Y61750D01*
X275060Y60677D01*
X275667Y59767D01*
X276577Y59160D01*
X277650Y58946D01*
X279400D01*
Y55354D01*
X277650D01*
X276577Y55140D01*
X275667Y54533D01*
X275060Y53623D01*
X274846Y52550D01*
Y49050D01*
X275060Y47977D01*
X275667Y47067D01*
X276577Y46460D01*
X277650Y46246D01*
X279400D01*
Y42654D01*
X277650D01*
X276577Y42440D01*
X275667Y41833D01*
X275060Y40923D01*
X274846Y39850D01*
Y36350D01*
X275060Y35277D01*
X275667Y34367D01*
X276577Y33760D01*
X277650Y33546D01*
X279400D01*
Y29954D01*
X277650D01*
X276577Y29740D01*
X275667Y29133D01*
X275060Y28223D01*
X274846Y27150D01*
Y27024D01*
X269558D01*
X268968Y28294D01*
X269326Y28829D01*
X269559Y30000D01*
X269326Y31170D01*
X268663Y32163D01*
X267670Y32826D01*
X266500Y33059D01*
X265329Y32826D01*
X264337Y32163D01*
X263674Y31170D01*
X263674Y31168D01*
X262296Y30750D01*
X257624Y35422D01*
Y51750D01*
X257267Y52610D01*
X257214Y52875D01*
X257903Y53783D01*
X258193Y53972D01*
X258250Y53961D01*
X259030Y54116D01*
X259692Y54558D01*
X260134Y55220D01*
X260289Y56000D01*
X260134Y56781D01*
X259692Y57442D01*
X259030Y57884D01*
X258250Y58039D01*
X257470Y57884D01*
X256808Y57442D01*
X256366Y56781D01*
X256211Y56000D01*
X256285Y55625D01*
X255597Y54717D01*
X255307Y54528D01*
X255250Y54539D01*
X254470Y54384D01*
X254074Y54120D01*
X253692Y54692D01*
X253030Y55134D01*
X252250Y55289D01*
X251470Y55134D01*
X250808Y54692D01*
X250289Y54064D01*
X249273Y54507D01*
X249170Y54576D01*
X248000Y54808D01*
X246829Y54576D01*
X245837Y53913D01*
X245174Y52920D01*
X244941Y51750D01*
X243710Y51432D01*
X243482Y51386D01*
X242820Y50944D01*
X242378Y50283D01*
X242223Y49502D01*
X242378Y48722D01*
X242820Y48060D01*
X243482Y47618D01*
X244262Y47463D01*
X245042Y47618D01*
X245704Y48060D01*
X246146Y48722D01*
X247456Y48799D01*
X248000Y48691D01*
X249170Y48924D01*
X250163Y49587D01*
X250326Y49831D01*
X250405Y49861D01*
X251626Y49491D01*
Y46008D01*
X250356Y45623D01*
X250163Y45912D01*
X249170Y46575D01*
X248000Y46808D01*
X246829Y46575D01*
X245837Y45912D01*
X245174Y44920D01*
X244941Y43750D01*
X245174Y42579D01*
X245837Y41587D01*
X246829Y40924D01*
X248000Y40691D01*
X249170Y40924D01*
X250163Y41587D01*
X250356Y41876D01*
X251626Y41491D01*
Y38008D01*
X250356Y37623D01*
X250163Y37912D01*
X249170Y38575D01*
X248000Y38808D01*
X246829Y38575D01*
X245837Y37912D01*
X245174Y36920D01*
X244941Y35750D01*
X245174Y34579D01*
X245837Y33587D01*
X246829Y32924D01*
X248000Y32691D01*
X249170Y32924D01*
X250163Y33587D01*
X250495Y34084D01*
X251906Y33996D01*
X252102Y33523D01*
X274074Y11552D01*
X274846Y11232D01*
Y10950D01*
X275060Y9877D01*
X275667Y8967D01*
X276577Y8360D01*
X277650Y8146D01*
X279400D01*
Y0D01*
X271254D01*
Y1750D01*
X271040Y2823D01*
X270433Y3733D01*
X269523Y4340D01*
X268450Y4554D01*
X264950D01*
X263877Y4340D01*
X262967Y3733D01*
X262360Y2823D01*
X262146Y1750D01*
Y0D01*
X258554D01*
Y1750D01*
X258340Y2823D01*
X257733Y3733D01*
X256823Y4340D01*
X255750Y4554D01*
X252250D01*
X251177Y4340D01*
X250267Y3733D01*
X249660Y2823D01*
X249446Y1750D01*
Y0D01*
X245854D01*
Y1750D01*
X245640Y2823D01*
X245033Y3733D01*
X244123Y4340D01*
X243050Y4554D01*
X239550D01*
X238477Y4340D01*
X237567Y3733D01*
X236960Y2823D01*
X236746Y1750D01*
Y0D01*
X233154D01*
Y1750D01*
X232940Y2823D01*
X232333Y3733D01*
X231423Y4340D01*
X230350Y4554D01*
X226850D01*
X225777Y4340D01*
X224867Y3733D01*
X224260Y2823D01*
X224046Y1750D01*
Y0D01*
X220454D01*
Y1750D01*
X220240Y2823D01*
X219633Y3733D01*
X218723Y4340D01*
X217650Y4554D01*
X214150D01*
X213077Y4340D01*
X212167Y3733D01*
X211560Y2823D01*
X211346Y1750D01*
Y0D01*
X207754D01*
Y1750D01*
X207540Y2823D01*
X206933Y3733D01*
X206023Y4340D01*
X204950Y4554D01*
X201450D01*
X200377Y4340D01*
X199467Y3733D01*
X198860Y2823D01*
X198646Y1750D01*
Y0D01*
X195054D01*
Y1750D01*
X194840Y2823D01*
X194233Y3733D01*
X193323Y4340D01*
X192250Y4554D01*
X188750D01*
X187677Y4340D01*
X186767Y3733D01*
X186160Y2823D01*
X185946Y1750D01*
Y0D01*
X182354D01*
Y1750D01*
X182140Y2823D01*
X181533Y3733D01*
X180623Y4340D01*
X179550Y4554D01*
X176050D01*
X174977Y4340D01*
X174067Y3733D01*
X173460Y2823D01*
X173246Y1750D01*
Y0D01*
X169654D01*
Y1750D01*
X169440Y2823D01*
X168833Y3733D01*
X167923Y4340D01*
X166850Y4554D01*
X163350D01*
X162277Y4340D01*
X161367Y3733D01*
X160760Y2823D01*
X160546Y1750D01*
Y0D01*
X156954D01*
Y1750D01*
X156740Y2823D01*
X156133Y3733D01*
X155223Y4340D01*
X154150Y4554D01*
X150650D01*
X149577Y4340D01*
X148667Y3733D01*
X148060Y2823D01*
X147846Y1750D01*
Y0D01*
X144254D01*
Y1750D01*
X144040Y2823D01*
X143433Y3733D01*
X142523Y4340D01*
X141450Y4554D01*
X137950D01*
X136877Y4340D01*
X135967Y3733D01*
X135360Y2823D01*
X135146Y1750D01*
Y0D01*
X131554D01*
Y1750D01*
X131340Y2823D01*
X130733Y3733D01*
X129823Y4340D01*
X128750Y4554D01*
X125250D01*
X124177Y4340D01*
X123267Y3733D01*
X122660Y2823D01*
X122446Y1750D01*
Y0D01*
X118854D01*
Y1750D01*
X118640Y2823D01*
X118033Y3733D01*
X117123Y4340D01*
X116050Y4554D01*
X112550D01*
X111477Y4340D01*
X110567Y3733D01*
X109960Y2823D01*
X109746Y1750D01*
Y0D01*
X106154D01*
Y1750D01*
X105940Y2823D01*
X105333Y3733D01*
X104423Y4340D01*
X103350Y4554D01*
X99850D01*
X98777Y4340D01*
X97867Y3733D01*
X97260Y2823D01*
X97046Y1750D01*
Y0D01*
X93454D01*
Y1750D01*
X93240Y2823D01*
X92633Y3733D01*
X91723Y4340D01*
X90650Y4554D01*
X87150D01*
X86077Y4340D01*
X85167Y3733D01*
X84560Y2823D01*
X84346Y1750D01*
Y0D01*
X80754D01*
Y1750D01*
X80540Y2823D01*
X79933Y3733D01*
X79023Y4340D01*
X77950Y4554D01*
X74450D01*
X73377Y4340D01*
X72467Y3733D01*
X71860Y2823D01*
X71646Y1750D01*
Y0D01*
X68054D01*
Y1750D01*
X67840Y2823D01*
X67233Y3733D01*
X66323Y4340D01*
X65250Y4554D01*
X61750D01*
X60677Y4340D01*
X59767Y3733D01*
X59160Y2823D01*
X58946Y1750D01*
Y0D01*
X55354D01*
Y1750D01*
X55140Y2823D01*
X54533Y3733D01*
X53623Y4340D01*
X52550Y4554D01*
X49050D01*
X47977Y4340D01*
X47067Y3733D01*
X46460Y2823D01*
X46246Y1750D01*
Y0D01*
X42654D01*
Y1750D01*
X42440Y2823D01*
X41833Y3733D01*
X40923Y4340D01*
X39850Y4554D01*
X36350D01*
X35277Y4340D01*
X34367Y3733D01*
X33760Y2823D01*
X33546Y1750D01*
Y0D01*
X29954D01*
Y1750D01*
X29740Y2823D01*
X29133Y3733D01*
X28223Y4340D01*
X27150Y4554D01*
X23650D01*
X22577Y4340D01*
X21667Y3733D01*
X21060Y2823D01*
X20846Y1750D01*
Y0D01*
X17254D01*
Y1750D01*
X17040Y2823D01*
X16433Y3733D01*
X15523Y4340D01*
X14450Y4554D01*
X10950D01*
X9877Y4340D01*
X8967Y3733D01*
X0Y12700D01*
Y33546D01*
X1750D01*
X2823Y33760D01*
X3733Y34367D01*
X4340Y35277D01*
X4554Y36350D01*
Y39850D01*
X4340Y40923D01*
X3733Y41833D01*
X2823Y42440D01*
X1750Y42654D01*
X0D01*
Y46246D01*
X1750D01*
X2823Y46460D01*
X3733Y47067D01*
X4340Y47977D01*
X4554Y49050D01*
Y52550D01*
X4340Y53623D01*
X3733Y54533D01*
X2823Y55140D01*
X1750Y55354D01*
X0D01*
Y58946D01*
X1750D01*
X2823Y59160D01*
X3733Y59767D01*
X4340Y60677D01*
X4554Y61750D01*
Y65250D01*
X4340Y66323D01*
X3733Y67233D01*
X2823Y67840D01*
X1750Y68054D01*
X0D01*
Y71646D01*
X1750D01*
X2823Y71860D01*
X3733Y72467D01*
X4340Y73377D01*
X4554Y74450D01*
Y77950D01*
X4340Y79023D01*
X3733Y79933D01*
X2823Y80540D01*
X1750Y80754D01*
X0D01*
Y84346D01*
X1750D01*
X2823Y84560D01*
X3733Y85167D01*
X4340Y86077D01*
X4554Y87150D01*
Y90650D01*
X4340Y91723D01*
X3733Y92633D01*
X2823Y93240D01*
X1750Y93454D01*
X0D01*
Y97046D01*
X1750D01*
X2823Y97260D01*
X3733Y97867D01*
X4340Y98777D01*
X4554Y99850D01*
Y103350D01*
X4340Y104423D01*
X3733Y105333D01*
X2823Y105940D01*
X1750Y106154D01*
X0D01*
Y109746D01*
X1750D01*
X2823Y109960D01*
X3733Y110567D01*
X4340Y111477D01*
X4554Y112550D01*
Y116050D01*
X4340Y117123D01*
X3733Y118033D01*
X2823Y118640D01*
X1750Y118854D01*
X0D01*
Y122446D01*
X1750D01*
X2823Y122660D01*
X3733Y123267D01*
X4340Y124177D01*
X4554Y125250D01*
Y128750D01*
X4340Y129823D01*
X3733Y130733D01*
X2823Y131340D01*
X1750Y131554D01*
X0D01*
Y135200D01*
X4500D01*
Y144200D01*
X0D01*
Y147846D01*
X1750D01*
X2823Y148060D01*
X3733Y148667D01*
X4340Y149577D01*
X4554Y150650D01*
Y154150D01*
X4340Y155223D01*
X3733Y156133D01*
X2823Y156740D01*
X1750Y156954D01*
X0D01*
Y160546D01*
X1750D01*
X2823Y160760D01*
X3733Y161367D01*
X4340Y162277D01*
X4554Y163350D01*
Y166850D01*
X4340Y167923D01*
X3733Y168833D01*
X2823Y169440D01*
X1750Y169654D01*
X0D01*
Y173246D01*
X1750D01*
X2823Y173460D01*
X3733Y174067D01*
X4340Y174977D01*
X4554Y176050D01*
Y179550D01*
X4340Y180623D01*
X3733Y181533D01*
X2823Y182140D01*
X1750Y182354D01*
X0D01*
Y185946D01*
X1750D01*
X2823Y186160D01*
X3733Y186767D01*
X4340Y187677D01*
X4554Y188750D01*
Y192250D01*
X4340Y193323D01*
X5260Y194233D01*
X6163Y194837D01*
X6826Y195830D01*
X7059Y197000D01*
X6826Y198171D01*
X6163Y199163D01*
X5171Y199826D01*
X5169Y199826D01*
X4340Y200377D01*
X4554Y201450D01*
Y204950D01*
X4340Y206023D01*
X4157Y206297D01*
X4193Y206676D01*
X4549Y207791D01*
X4562Y207804D01*
X4942Y208058D01*
X5384Y208720D01*
X5539Y209500D01*
X5384Y210280D01*
X4942Y210942D01*
X4515Y211227D01*
X4466Y211287D01*
X4164Y212240D01*
X4099Y212715D01*
X4340Y213077D01*
X4554Y214150D01*
Y217650D01*
X4340Y218723D01*
X3733Y219633D01*
X2823Y220240D01*
X1750Y220454D01*
X0D01*
Y224046D01*
X1750D01*
X2823Y224260D01*
X3733Y224867D01*
X4340Y225777D01*
X4554Y226850D01*
Y230350D01*
X4340Y231423D01*
X3733Y232333D01*
X2823Y232940D01*
X1750Y233154D01*
X0D01*
Y236746D01*
X1750D01*
X2823Y236960D01*
X3733Y237567D01*
X4340Y238477D01*
X4554Y239550D01*
Y243050D01*
X4340Y244123D01*
X3733Y245033D01*
X2823Y245640D01*
X1750Y245854D01*
X0D01*
Y249446D01*
X1750D01*
X2823Y249660D01*
X3733Y250267D01*
X4340Y251177D01*
X4554Y252250D01*
Y255750D01*
X4340Y256823D01*
X3733Y257733D01*
X2823Y258340D01*
X1750Y258554D01*
X0D01*
Y262146D01*
X1750D01*
X2823Y262360D01*
X3733Y262967D01*
X4340Y263877D01*
X4554Y264950D01*
Y268450D01*
X4340Y269523D01*
X3733Y270433D01*
X2823Y271040D01*
X1750Y271254D01*
X0D01*
Y279400D01*
X8146D01*
Y277650D01*
X8360Y276577D01*
X8967Y275667D01*
X9877Y275060D01*
X10950Y274846D01*
X14450D01*
X15523Y275060D01*
X16433Y275667D01*
X17040Y276577D01*
X17254Y277650D01*
Y279400D01*
X20846D01*
Y277650D01*
X21060Y276577D01*
X21667Y275667D01*
X22577Y275060D01*
X23650Y274846D01*
X27150D01*
X28223Y275060D01*
X29133Y275667D01*
X29740Y276577D01*
X29954Y277650D01*
Y279400D01*
X33546D01*
Y277650D01*
X33760Y276577D01*
X34367Y275667D01*
X35277Y275060D01*
X36350Y274846D01*
X39850D01*
X40923Y275060D01*
X41833Y275667D01*
X42440Y276577D01*
X42654Y277650D01*
Y279400D01*
X46246D01*
Y277650D01*
X46460Y276577D01*
X47067Y275667D01*
X47977Y275060D01*
X49050Y274846D01*
X52550D01*
X53623Y275060D01*
X54533Y275667D01*
X55140Y276577D01*
X55354Y277650D01*
Y279400D01*
X58946D01*
Y277650D01*
X59160Y276577D01*
X59767Y275667D01*
X60677Y275060D01*
X61750Y274846D01*
X65250D01*
X66323Y275060D01*
X67233Y275667D01*
X67840Y276577D01*
X68054Y277650D01*
Y279400D01*
X71646D01*
Y277650D01*
X71860Y276577D01*
X72467Y275667D01*
X73377Y275060D01*
X74450Y274846D01*
X77950D01*
X79023Y275060D01*
X79933Y275667D01*
X80540Y276577D01*
X80754Y277650D01*
Y279400D01*
X84346D01*
Y277650D01*
X84560Y276577D01*
X85167Y275667D01*
X85972Y275130D01*
X86079Y274590D01*
X86049Y273770D01*
X85558Y273442D01*
X85116Y272780D01*
X84961Y272000D01*
X85116Y271220D01*
X85558Y270558D01*
X86220Y270116D01*
X87000Y269961D01*
X87780Y270116D01*
X88442Y270558D01*
X88884Y271220D01*
X89039Y272000D01*
X88884Y272780D01*
X88442Y273442D01*
X88241Y273576D01*
X88626Y274846D01*
X90650D01*
X91723Y275060D01*
X92633Y275667D01*
X93240Y276577D01*
X93454Y277650D01*
Y279400D01*
X97046D01*
Y277650D01*
X97260Y276577D01*
X97867Y275667D01*
X98777Y275060D01*
X99850Y274846D01*
X103350D01*
X104423Y275060D01*
X105333Y275667D01*
X105940Y276577D01*
X106154Y277650D01*
Y279400D01*
X109746D01*
Y277650D01*
X109960Y276577D01*
X110567Y275667D01*
X111477Y275060D01*
X112550Y274846D01*
X116050D01*
X117123Y275060D01*
X118033Y275667D01*
X118640Y276577D01*
X118854Y277650D01*
Y279400D01*
X122446D01*
Y277650D01*
X122660Y276577D01*
X123267Y275667D01*
X124177Y275060D01*
X125250Y274846D01*
X128750D01*
X129823Y275060D01*
X130733Y275667D01*
X131340Y276577D01*
X131554Y277650D01*
Y279400D01*
X135146D01*
Y277650D01*
X135360Y276577D01*
X135967Y275667D01*
X136877Y275060D01*
X137950Y274846D01*
X141450D01*
X142523Y275060D01*
X143433Y275667D01*
X144040Y276577D01*
X144254Y277650D01*
Y279400D01*
X147846D01*
Y277650D01*
X148060Y276577D01*
X148667Y275667D01*
X149577Y275060D01*
X150650Y274846D01*
X154150D01*
X155223Y275060D01*
X156133Y275667D01*
X156740Y276577D01*
X156954Y277650D01*
Y279400D01*
X160546D01*
Y277650D01*
X160760Y276577D01*
X161367Y275667D01*
X162277Y275060D01*
X163350Y274846D01*
X166850D01*
X167923Y275060D01*
X168833Y275667D01*
X169440Y276577D01*
X169654Y277650D01*
Y279400D01*
X173246D01*
Y277650D01*
X173460Y276577D01*
X174067Y275667D01*
X174977Y275060D01*
X176050Y274846D01*
X179550D01*
X180623Y275060D01*
X181533Y275667D01*
X182140Y276577D01*
X182354Y277650D01*
Y279400D01*
X185946D01*
Y277650D01*
X186160Y276577D01*
X186767Y275667D01*
X187677Y275060D01*
X188750Y274846D01*
X192250D01*
X193323Y275060D01*
X194233Y275667D01*
X194840Y276577D01*
X195054Y277650D01*
Y279400D01*
X198646D01*
Y277650D01*
X198860Y276577D01*
X199467Y275667D01*
X200377Y275060D01*
X201450Y274846D01*
X204950D01*
X206023Y275060D01*
X206933Y275667D01*
X207540Y276577D01*
X207754Y277650D01*
Y279400D01*
X211346D01*
Y277650D01*
X211560Y276577D01*
X212167Y275667D01*
X213077Y275060D01*
X214150Y274846D01*
X217650D01*
X218723Y275060D01*
X219633Y275667D01*
X220240Y276577D01*
X220454Y277650D01*
Y279400D01*
X224046D01*
Y277650D01*
X224260Y276577D01*
X224867Y275667D01*
X225777Y275060D01*
X226850Y274846D01*
X230350D01*
X231423Y275060D01*
X232333Y275667D01*
X232940Y276577D01*
X233154Y277650D01*
Y279400D01*
X236746D01*
Y277650D01*
X236960Y276577D01*
X237567Y275667D01*
X238477Y275060D01*
X239550Y274846D01*
X243050D01*
X244123Y275060D01*
X245033Y275667D01*
X245640Y276577D01*
X245854Y277650D01*
Y279400D01*
X249446D01*
Y277650D01*
X249660Y276577D01*
X250267Y275667D01*
X251177Y275060D01*
X252250Y274846D01*
X255750D01*
X256823Y275060D01*
X257733Y275667D01*
X258340Y276577D01*
X258554Y277650D01*
Y279400D01*
X262146D01*
Y277650D01*
X262360Y276577D01*
X262967Y275667D01*
X263877Y275060D01*
X264950Y274846D01*
X268450D01*
X269523Y275060D01*
X270433Y275667D01*
X271040Y276577D01*
X271254Y277650D01*
Y279400D01*
X279400D01*
Y271254D01*
D02*
G37*
%LPC*%
G36*
X14250Y273039D02*
X13470Y272884D01*
X12808Y272442D01*
X12366Y271780D01*
X12211Y271000D01*
X12366Y270220D01*
X12808Y269558D01*
X13470Y269116D01*
X14250Y268961D01*
X15030Y269116D01*
X15692Y269558D01*
X16134Y270220D01*
X16289Y271000D01*
X16134Y271780D01*
X15692Y272442D01*
X15030Y272884D01*
X14250Y273039D01*
D02*
G37*
G36*
X226500Y271289D02*
X225720Y271134D01*
X225058Y270692D01*
X224616Y270030D01*
X224461Y269250D01*
X224616Y268470D01*
X225058Y267808D01*
X225720Y267366D01*
X226500Y267211D01*
X227280Y267366D01*
X227942Y267808D01*
X228384Y268470D01*
X228539Y269250D01*
X228384Y270030D01*
X227942Y270692D01*
X227280Y271134D01*
X226500Y271289D01*
D02*
G37*
G36*
X208500D02*
X207720Y271134D01*
X207058Y270692D01*
X206616Y270030D01*
X206461Y269250D01*
X206616Y268470D01*
X207058Y267808D01*
X207720Y267366D01*
X208500Y267211D01*
X209280Y267366D01*
X209942Y267808D01*
X210384Y268470D01*
X210539Y269250D01*
X210384Y270030D01*
X209942Y270692D01*
X209280Y271134D01*
X208500Y271289D01*
D02*
G37*
G36*
X195500D02*
X194720Y271134D01*
X194058Y270692D01*
X193616Y270030D01*
X193461Y269250D01*
X193616Y268470D01*
X194058Y267808D01*
X194720Y267366D01*
X195500Y267211D01*
X196280Y267366D01*
X196942Y267808D01*
X197384Y268470D01*
X197539Y269250D01*
X197384Y270030D01*
X196942Y270692D01*
X196280Y271134D01*
X195500Y271289D01*
D02*
G37*
G36*
X187500D02*
X186720Y271134D01*
X186058Y270692D01*
X185616Y270030D01*
X185461Y269250D01*
X185616Y268470D01*
X186058Y267808D01*
X186720Y267366D01*
X187500Y267211D01*
X188280Y267366D01*
X188942Y267808D01*
X189384Y268470D01*
X189539Y269250D01*
X189384Y270030D01*
X188942Y270692D01*
X188280Y271134D01*
X187500Y271289D01*
D02*
G37*
G36*
X169500D02*
X168720Y271134D01*
X168058Y270692D01*
X167616Y270030D01*
X167461Y269250D01*
X167616Y268470D01*
X168058Y267808D01*
X168720Y267366D01*
X169500Y267211D01*
X170280Y267366D01*
X170942Y267808D01*
X171384Y268470D01*
X171539Y269250D01*
X171384Y270030D01*
X170942Y270692D01*
X170280Y271134D01*
X169500Y271289D01*
D02*
G37*
G36*
X161500D02*
X160720Y271134D01*
X160058Y270692D01*
X159616Y270030D01*
X159461Y269250D01*
X159616Y268470D01*
X160058Y267808D01*
X160720Y267366D01*
X161500Y267211D01*
X162280Y267366D01*
X162942Y267808D01*
X163384Y268470D01*
X163539Y269250D01*
X163384Y270030D01*
X162942Y270692D01*
X162280Y271134D01*
X161500Y271289D01*
D02*
G37*
G36*
X117500D02*
X116720Y271134D01*
X116058Y270692D01*
X115616Y270030D01*
X115461Y269250D01*
X115616Y268470D01*
X116058Y267808D01*
X116720Y267366D01*
X117500Y267211D01*
X118280Y267366D01*
X118942Y267808D01*
X119384Y268470D01*
X119539Y269250D01*
X119384Y270030D01*
X118942Y270692D01*
X118280Y271134D01*
X117500Y271289D01*
D02*
G37*
G36*
X143500Y271289D02*
X142720Y271134D01*
X142058Y270692D01*
X141616Y270030D01*
X141461Y269250D01*
X141616Y268470D01*
X142058Y267808D01*
X142720Y267366D01*
X143500Y267211D01*
X144280Y267366D01*
X144942Y267808D01*
X145384Y268470D01*
X145539Y269250D01*
X145384Y270030D01*
X144942Y270692D01*
X144280Y271134D01*
X143500Y271289D01*
D02*
G37*
G36*
X59670Y266189D02*
X58890Y266034D01*
X58228Y265592D01*
X57834Y265003D01*
X57271Y264930D01*
X57069D01*
X56506Y265003D01*
X56112Y265592D01*
X55450Y266034D01*
X54670Y266189D01*
X53890Y266034D01*
X53228Y265592D01*
X52834Y265003D01*
X52271Y264930D01*
X52069D01*
X51505Y265003D01*
X51112Y265592D01*
X50450Y266034D01*
X49670Y266189D01*
X48890Y266034D01*
X48228Y265592D01*
X47834Y265003D01*
X47271Y264930D01*
X47069D01*
X46505Y265003D01*
X46112Y265592D01*
X45450Y266034D01*
X44670Y266189D01*
X43890Y266034D01*
X43228Y265592D01*
X42834Y265003D01*
X42271Y264930D01*
X42069D01*
X41506Y265003D01*
X41112Y265592D01*
X40450Y266034D01*
X39670Y266189D01*
X38890Y266034D01*
X38228Y265592D01*
X37786Y264930D01*
X37631Y264150D01*
X37786Y263370D01*
X38228Y262708D01*
X38890Y262266D01*
X39670Y262111D01*
X40450Y262266D01*
X41112Y262708D01*
X41506Y263297D01*
X42069Y263370D01*
X42271D01*
X42834Y263297D01*
X43228Y262708D01*
X43890Y262266D01*
X44670Y262111D01*
X45450Y262266D01*
X46112Y262708D01*
X46505Y263297D01*
X47069Y263370D01*
X47271D01*
X47834Y263297D01*
X48228Y262708D01*
X48890Y262266D01*
X49670Y262111D01*
X50450Y262266D01*
X51112Y262708D01*
X51506Y263297D01*
X52069Y263370D01*
X52271D01*
X52834Y263297D01*
X53228Y262708D01*
X53890Y262266D01*
X54670Y262111D01*
X55450Y262266D01*
X56112Y262708D01*
X56506Y263297D01*
X57069Y263370D01*
X57271D01*
X57834Y263297D01*
X58228Y262708D01*
X58890Y262266D01*
X59670Y262111D01*
X60450Y262266D01*
X61112Y262708D01*
X61554Y263370D01*
X61709Y264150D01*
X61554Y264930D01*
X61112Y265592D01*
X60450Y266034D01*
X59670Y266189D01*
D02*
G37*
G36*
X74670D02*
X73890Y266034D01*
X73228Y265592D01*
X72834Y265003D01*
X72271Y264930D01*
X72069D01*
X71505Y265003D01*
X71112Y265592D01*
X70450Y266034D01*
X69670Y266189D01*
X68890Y266034D01*
X68228Y265592D01*
X67786Y264930D01*
X67631Y264150D01*
X67786Y263370D01*
X68228Y262708D01*
X68890Y262266D01*
X69670Y262111D01*
X70450Y262266D01*
X71112Y262708D01*
X71505Y263297D01*
X72069Y263370D01*
X72271D01*
X72834Y263297D01*
X73228Y262708D01*
X73890Y262266D01*
X74670Y262111D01*
X75450Y262266D01*
X76112Y262708D01*
X76554Y263370D01*
X76709Y264150D01*
X76554Y264930D01*
X76112Y265592D01*
X75450Y266034D01*
X74670Y266189D01*
D02*
G37*
G36*
X25000Y268809D02*
X23830Y268576D01*
X22837Y267913D01*
X22174Y266921D01*
X21941Y265750D01*
X22174Y264580D01*
X22837Y263587D01*
X23830Y262924D01*
X25000Y262691D01*
X26170Y262924D01*
X27163Y263587D01*
X27826Y264580D01*
X28059Y265750D01*
X27826Y266921D01*
X27163Y267913D01*
X26170Y268576D01*
X25000Y268809D01*
D02*
G37*
G36*
X135250Y262289D02*
X134470Y262134D01*
X133808Y261692D01*
X133366Y261030D01*
X133211Y260250D01*
X133366Y259470D01*
X133808Y258808D01*
X134470Y258366D01*
X135250Y258211D01*
X136030Y258366D01*
X136692Y258808D01*
X137134Y259470D01*
X137289Y260250D01*
X137134Y261030D01*
X136692Y261692D01*
X136030Y262134D01*
X135250Y262289D01*
D02*
G37*
G36*
X149250Y262289D02*
X148470Y262134D01*
X147808Y261692D01*
X147366Y261030D01*
X147211Y260250D01*
X147366Y259470D01*
X147808Y258808D01*
X148470Y258366D01*
X149250Y258211D01*
X150030Y258366D01*
X150692Y258808D01*
X151134Y259470D01*
X151289Y260250D01*
X151134Y261030D01*
X150692Y261692D01*
X150030Y262134D01*
X149250Y262289D01*
D02*
G37*
G36*
X270250Y259539D02*
X269470Y259384D01*
X268808Y258942D01*
X268366Y258280D01*
X268211Y257500D01*
X268366Y256720D01*
X268808Y256058D01*
X269470Y255616D01*
X270250Y255461D01*
X271030Y255616D01*
X271692Y256058D01*
X272134Y256720D01*
X272289Y257500D01*
X272134Y258280D01*
X271692Y258942D01*
X271030Y259384D01*
X270250Y259539D01*
D02*
G37*
G36*
X193750Y257789D02*
X192970Y257634D01*
X192308Y257192D01*
X191866Y256530D01*
X191711Y255750D01*
X191866Y254970D01*
X192308Y254308D01*
X192970Y253866D01*
X193750Y253711D01*
X194530Y253866D01*
X195192Y254308D01*
X195634Y254970D01*
X195789Y255750D01*
X195634Y256530D01*
X195192Y257192D01*
X194530Y257634D01*
X193750Y257789D01*
D02*
G37*
G36*
X254850Y253789D02*
X254070Y253634D01*
X253408Y253192D01*
X252966Y252530D01*
X252811Y251750D01*
X252966Y250970D01*
X253408Y250308D01*
X254070Y249866D01*
X254850Y249711D01*
X255630Y249866D01*
X256292Y250308D01*
X256734Y250970D01*
X256889Y251750D01*
X256734Y252530D01*
X256292Y253192D01*
X255630Y253634D01*
X254850Y253789D01*
D02*
G37*
G36*
X229750D02*
X228970Y253634D01*
X228308Y253192D01*
X227866Y252530D01*
X227711Y251750D01*
X227866Y250970D01*
X228308Y250308D01*
X228970Y249866D01*
X229750Y249711D01*
X230530Y249866D01*
X231192Y250308D01*
X231634Y250970D01*
X231789Y251750D01*
X231634Y252530D01*
X231192Y253192D01*
X230530Y253634D01*
X229750Y253789D01*
D02*
G37*
G36*
X183750D02*
X182970Y253634D01*
X182308Y253192D01*
X181866Y252530D01*
X181711Y251750D01*
X181866Y250970D01*
X182308Y250308D01*
X182970Y249866D01*
X183750Y249711D01*
X184530Y249866D01*
X185192Y250308D01*
X185634Y250970D01*
X185789Y251750D01*
X185634Y252530D01*
X185192Y253192D01*
X184530Y253634D01*
X183750Y253789D01*
D02*
G37*
G36*
X153750Y250539D02*
X152970Y250384D01*
X152308Y249942D01*
X151866Y249280D01*
X151711Y248500D01*
X151866Y247720D01*
X152308Y247058D01*
X152970Y246616D01*
X153750Y246461D01*
X154530Y246616D01*
X155192Y247058D01*
X155634Y247720D01*
X155789Y248500D01*
X155634Y249280D01*
X155192Y249942D01*
X154530Y250384D01*
X153750Y250539D01*
D02*
G37*
G36*
X193750Y249789D02*
X192970Y249634D01*
X192308Y249192D01*
X191866Y248530D01*
X191711Y247750D01*
X191866Y246970D01*
X192308Y246308D01*
X192970Y245866D01*
X193750Y245711D01*
X194530Y245866D01*
X195192Y246308D01*
X195634Y246970D01*
X195789Y247750D01*
X195634Y248530D01*
X195192Y249192D01*
X194530Y249634D01*
X193750Y249789D01*
D02*
G37*
G36*
X129750D02*
X128970Y249634D01*
X128308Y249192D01*
X127866Y248530D01*
X127711Y247750D01*
X127866Y246970D01*
X128308Y246308D01*
X128970Y245866D01*
X129750Y245711D01*
X130530Y245866D01*
X131192Y246308D01*
X131634Y246970D01*
X131789Y247750D01*
X131634Y248530D01*
X131192Y249192D01*
X130530Y249634D01*
X129750Y249789D01*
D02*
G37*
G36*
X20500Y239539D02*
X19720Y239384D01*
X19058Y238942D01*
X18616Y238280D01*
X18461Y237500D01*
X18616Y236720D01*
X19058Y236058D01*
X19720Y235616D01*
X20500Y235461D01*
X21280Y235616D01*
X21942Y236058D01*
X22384Y236720D01*
X22539Y237500D01*
X22384Y238280D01*
X21942Y238942D01*
X21280Y239384D01*
X20500Y239539D01*
D02*
G37*
G36*
X125750Y239539D02*
X124970Y239384D01*
X124308Y238942D01*
X123866Y238280D01*
X123711Y237500D01*
X123866Y236720D01*
X124308Y236058D01*
X124970Y235616D01*
X125750Y235461D01*
X126530Y235616D01*
X127192Y236058D01*
X127634Y236720D01*
X127789Y237500D01*
X127634Y238280D01*
X127192Y238942D01*
X126530Y239384D01*
X125750Y239539D01*
D02*
G37*
G36*
X171750Y238789D02*
X170970Y238634D01*
X170308Y238192D01*
X169866Y237530D01*
X169711Y236750D01*
X169866Y235970D01*
X170308Y235308D01*
X170970Y234866D01*
X171750Y234711D01*
X172530Y234866D01*
X173192Y235308D01*
X173634Y235970D01*
X173789Y236750D01*
X173634Y237530D01*
X173192Y238192D01*
X172530Y238634D01*
X171750Y238789D01*
D02*
G37*
G36*
X161750Y238789D02*
X160970Y238634D01*
X160308Y238192D01*
X159866Y237530D01*
X159711Y236750D01*
X159866Y235970D01*
X160308Y235308D01*
X160970Y234866D01*
X161750Y234711D01*
X162530Y234866D01*
X163192Y235308D01*
X163634Y235970D01*
X163789Y236750D01*
X163634Y237530D01*
X163192Y238192D01*
X162530Y238634D01*
X161750Y238789D01*
D02*
G37*
G36*
X270250Y238539D02*
X269470Y238384D01*
X268808Y237942D01*
X268366Y237280D01*
X268211Y236500D01*
X268366Y235720D01*
X268808Y235058D01*
X269470Y234616D01*
X270250Y234461D01*
X271030Y234616D01*
X271692Y235058D01*
X272134Y235720D01*
X272289Y236500D01*
X272134Y237280D01*
X271692Y237942D01*
X271030Y238384D01*
X270250Y238539D01*
D02*
G37*
G36*
X225750Y233789D02*
X224970Y233634D01*
X224308Y233192D01*
X223866Y232530D01*
X223711Y231750D01*
X223866Y230970D01*
X224308Y230308D01*
X224970Y229866D01*
X225750Y229711D01*
X226530Y229866D01*
X227192Y230308D01*
X227634Y230970D01*
X227789Y231750D01*
X227634Y232530D01*
X227192Y233192D01*
X226530Y233634D01*
X225750Y233789D01*
D02*
G37*
G36*
X217750D02*
X216970Y233634D01*
X216308Y233192D01*
X215866Y232530D01*
X215711Y231750D01*
X215866Y230970D01*
X216308Y230308D01*
X216970Y229866D01*
X217750Y229711D01*
X218530Y229866D01*
X219192Y230308D01*
X219634Y230970D01*
X219789Y231750D01*
X219634Y232530D01*
X219192Y233192D01*
X218530Y233634D01*
X217750Y233789D01*
D02*
G37*
G36*
X119250Y241289D02*
X118470Y241134D01*
X117808Y240692D01*
X117366Y240030D01*
X117211Y239250D01*
X117366Y238470D01*
X117808Y237808D01*
X117814Y237763D01*
X117624Y236403D01*
X117308Y236192D01*
X116866Y235530D01*
X116711Y234750D01*
X116866Y233970D01*
X117308Y233308D01*
X117970Y232866D01*
X118612Y232738D01*
X118750Y232711D01*
X119711Y231750D01*
X119738Y231612D01*
X119866Y230970D01*
X120308Y230308D01*
X120970Y229866D01*
X121750Y229711D01*
X122530Y229866D01*
X123192Y230308D01*
X123634Y230970D01*
X123789Y231750D01*
X123634Y232530D01*
X123192Y233192D01*
X122530Y233634D01*
X121887Y233762D01*
X121750Y233789D01*
X120789Y234750D01*
X120762Y234888D01*
X120634Y235530D01*
X120192Y236192D01*
X120186Y236237D01*
X120375Y237597D01*
X120692Y237808D01*
X121134Y238470D01*
X121289Y239250D01*
X121134Y240030D01*
X120692Y240692D01*
X120030Y241134D01*
X119250Y241289D01*
D02*
G37*
G36*
X32170Y233689D02*
X31390Y233534D01*
X30728Y233092D01*
X30286Y232430D01*
X30131Y231650D01*
X30286Y230870D01*
X30728Y230208D01*
X31390Y229766D01*
X32170Y229611D01*
X32950Y229766D01*
X33612Y230208D01*
X34054Y230870D01*
X34209Y231650D01*
X34054Y232430D01*
X33612Y233092D01*
X32950Y233534D01*
X32170Y233689D01*
D02*
G37*
G36*
X146250Y233289D02*
X145470Y233134D01*
X144808Y232692D01*
X144366Y232030D01*
X144211Y231250D01*
X144366Y230470D01*
X144808Y229808D01*
X145470Y229366D01*
X146250Y229211D01*
X147030Y229366D01*
X147692Y229808D01*
X148134Y230470D01*
X148289Y231250D01*
X148134Y232030D01*
X147692Y232692D01*
X147030Y233134D01*
X146250Y233289D01*
D02*
G37*
G36*
X137250Y233039D02*
X136470Y232884D01*
X135808Y232442D01*
X135366Y231780D01*
X135275Y231321D01*
X132078Y228124D01*
X117673D01*
X116225Y229571D01*
X116134Y230030D01*
X115692Y230692D01*
X115030Y231134D01*
X114250Y231289D01*
X113470Y231134D01*
X112808Y230692D01*
X112366Y230030D01*
X112211Y229250D01*
X112366Y228470D01*
X112808Y227808D01*
X113397Y227414D01*
X113469Y226851D01*
Y226649D01*
X113404Y226139D01*
X113352Y226056D01*
X112808Y225692D01*
X112366Y225030D01*
X112211Y224250D01*
X112366Y223470D01*
X112808Y222808D01*
X113470Y222366D01*
X113929Y222275D01*
X116102Y220102D01*
X116341Y220003D01*
X116211Y218682D01*
X115969Y218634D01*
X115308Y218192D01*
X114866Y217530D01*
X114711Y216750D01*
X114866Y215970D01*
X115308Y215308D01*
X115969Y214866D01*
X116750Y214711D01*
X117530Y214866D01*
X118192Y215308D01*
X118634Y215970D01*
X118789Y216750D01*
X118634Y217530D01*
X118192Y218192D01*
X117945Y218356D01*
X118331Y219627D01*
X121902D01*
X122211Y219250D01*
X122366Y218470D01*
X122808Y217808D01*
X123470Y217366D01*
X124250Y217211D01*
X125030Y217366D01*
X125692Y217808D01*
X126134Y218470D01*
X126289Y219250D01*
X127314Y220376D01*
X128000D01*
X129148Y220852D01*
X130071Y221775D01*
X130530Y221866D01*
X131192Y222308D01*
X131634Y222970D01*
X131789Y223750D01*
X132750Y224876D01*
X133898Y225352D01*
X137571Y229025D01*
X138030Y229116D01*
X138692Y229558D01*
X139134Y230220D01*
X139289Y231000D01*
X139134Y231780D01*
X138692Y232442D01*
X138030Y232884D01*
X137250Y233039D01*
D02*
G37*
G36*
X185750Y234539D02*
X184970Y234384D01*
X184308Y233942D01*
X183866Y233280D01*
X183711Y232500D01*
X183866Y231720D01*
X184308Y231058D01*
X184970Y230616D01*
X185750Y230461D01*
X186530Y230616D01*
X187192Y231058D01*
X188116Y230280D01*
X187961Y229500D01*
X188116Y228720D01*
X188558Y228058D01*
X189220Y227616D01*
X190000Y227461D01*
X190780Y227616D01*
X191442Y228058D01*
X191884Y228720D01*
X192039Y229500D01*
X191884Y230280D01*
X191442Y230942D01*
X190780Y231384D01*
X190000Y231539D01*
X189220Y231384D01*
X188558Y230942D01*
X187634Y231720D01*
X187789Y232500D01*
X187634Y233280D01*
X187192Y233942D01*
X186530Y234384D01*
X185750Y234539D01*
D02*
G37*
G36*
X157750Y231049D02*
X156775Y230855D01*
X155948Y230302D01*
X155395Y229475D01*
X155201Y228500D01*
X155395Y227525D01*
X155948Y226698D01*
X156775Y226145D01*
X157750Y225951D01*
X158725Y226145D01*
X159552Y226698D01*
X160105Y227525D01*
X160299Y228500D01*
X160105Y229475D01*
X159552Y230302D01*
X158725Y230855D01*
X157750Y231049D01*
D02*
G37*
G36*
X106000Y227039D02*
X105220Y226884D01*
X104558Y226442D01*
X104116Y225780D01*
X103961Y225000D01*
X104116Y224220D01*
X104558Y223558D01*
X105220Y223116D01*
X106000Y222961D01*
X106780Y223116D01*
X107442Y223558D01*
X107884Y224220D01*
X108039Y225000D01*
X107884Y225780D01*
X107442Y226442D01*
X106780Y226884D01*
X106000Y227039D01*
D02*
G37*
G36*
X225750Y226539D02*
X224970Y226384D01*
X224308Y225942D01*
X223866Y225280D01*
X223711Y224500D01*
X223866Y223720D01*
X224308Y223058D01*
X224970Y222616D01*
X225750Y222461D01*
X226486Y222607D01*
X226537Y222613D01*
X227864Y221980D01*
X227866Y221970D01*
X228308Y221308D01*
X228970Y220866D01*
X229750Y220711D01*
X230530Y220866D01*
X231192Y221308D01*
X231634Y221970D01*
X231789Y222750D01*
X231634Y223530D01*
X231192Y224192D01*
X230530Y224634D01*
X229750Y224789D01*
X229014Y224643D01*
X228964Y224637D01*
X227636Y225270D01*
X227634Y225280D01*
X227192Y225942D01*
X226530Y226384D01*
X225750Y226539D01*
D02*
G37*
G36*
X169250Y226289D02*
X168470Y226134D01*
X167808Y225692D01*
X167366Y225030D01*
X167211Y224250D01*
X167366Y223470D01*
X167808Y222808D01*
X168397Y222414D01*
X168470Y221851D01*
Y221649D01*
X168397Y221086D01*
X167808Y220692D01*
X167433Y220131D01*
X167289Y220016D01*
X165910Y220444D01*
X165884Y220530D01*
X165831Y220610D01*
X165442Y221192D01*
X164780Y221634D01*
X164000Y221789D01*
X163220Y221634D01*
X162558Y221192D01*
X162116Y220530D01*
X161961Y219750D01*
X162116Y218970D01*
X162558Y218308D01*
X163220Y217866D01*
X164000Y217711D01*
X164780Y217866D01*
X165442Y218308D01*
X165817Y218869D01*
X165961Y218984D01*
X167340Y218556D01*
X167366Y218470D01*
X167419Y218390D01*
X167808Y217808D01*
X168470Y217366D01*
X169250Y217211D01*
X170030Y217366D01*
X170692Y217808D01*
X171134Y218470D01*
X171289Y219250D01*
X171134Y220030D01*
X170692Y220692D01*
X170103Y221086D01*
X170030Y221649D01*
Y221851D01*
X170103Y222414D01*
X170692Y222808D01*
X171134Y223470D01*
X171289Y224250D01*
X171134Y225030D01*
X170692Y225692D01*
X170030Y226134D01*
X169250Y226289D01*
D02*
G37*
G36*
X141750Y222539D02*
X140970Y222384D01*
X140308Y221942D01*
X139866Y221280D01*
X139711Y220500D01*
X139866Y219720D01*
X140308Y219058D01*
X140970Y218616D01*
X141750Y218461D01*
X142530Y218616D01*
X143192Y219058D01*
X143634Y219720D01*
X143789Y220500D01*
X143634Y221280D01*
X143192Y221942D01*
X142530Y222384D01*
X141750Y222539D01*
D02*
G37*
G36*
X134250Y221289D02*
X133470Y221134D01*
X132808Y220692D01*
X132366Y220030D01*
X132211Y219250D01*
X132366Y218470D01*
X132808Y217808D01*
X133470Y217366D01*
X134250Y217211D01*
X135030Y217366D01*
X135692Y217808D01*
X136134Y218470D01*
X136289Y219250D01*
X136134Y220030D01*
X135692Y220692D01*
X135030Y221134D01*
X134250Y221289D01*
D02*
G37*
G36*
X106000Y220539D02*
X105220Y220384D01*
X104558Y219942D01*
X104116Y219280D01*
X103961Y218500D01*
X104116Y217720D01*
X104558Y217058D01*
X105220Y216616D01*
X106000Y216461D01*
X106780Y216616D01*
X107442Y217058D01*
X107884Y217720D01*
X108039Y218500D01*
X107884Y219280D01*
X107442Y219942D01*
X106780Y220384D01*
X106000Y220539D01*
D02*
G37*
G36*
X270250Y220539D02*
X269470Y220384D01*
X268808Y219942D01*
X268366Y219280D01*
X268211Y218500D01*
X268366Y217719D01*
X268808Y217058D01*
X269470Y216616D01*
X270250Y216461D01*
X271030Y216616D01*
X271692Y217058D01*
X272134Y217719D01*
X272289Y218500D01*
X272134Y219280D01*
X271692Y219942D01*
X271030Y220384D01*
X270250Y220539D01*
D02*
G37*
G36*
X207500Y219539D02*
X206720Y219384D01*
X206058Y218942D01*
X205616Y218280D01*
X205461Y217500D01*
X205616Y216720D01*
X206058Y216058D01*
X206720Y215616D01*
X207500Y215461D01*
X208280Y215616D01*
X208942Y216058D01*
X209384Y216720D01*
X209539Y217500D01*
X209384Y218280D01*
X208942Y218942D01*
X208280Y219384D01*
X207500Y219539D01*
D02*
G37*
G36*
X218750Y225799D02*
X217775Y225605D01*
X216948Y225052D01*
X216395Y224226D01*
X216201Y223250D01*
Y215781D01*
X214931Y214963D01*
X214500Y215049D01*
X213524Y214855D01*
X212698Y214302D01*
X212145Y213475D01*
X211951Y212500D01*
X212145Y211525D01*
X212698Y210698D01*
X213524Y210145D01*
X214500Y209951D01*
X215475Y210145D01*
X216302Y210698D01*
X217877Y210768D01*
X223948Y204698D01*
X224774Y204145D01*
X225750Y203951D01*
X229750D01*
X230725Y204145D01*
X231552Y204698D01*
X232105Y205525D01*
X232299Y206500D01*
X232105Y207475D01*
X231552Y208302D01*
X230725Y208855D01*
X229750Y209049D01*
X228093D01*
X227692Y210308D01*
X228134Y210970D01*
X228289Y211750D01*
X228134Y212530D01*
X227692Y213192D01*
X227030Y213634D01*
X226250Y213789D01*
X225469Y213634D01*
X224808Y213192D01*
X224668Y212983D01*
X223371Y212698D01*
X223113Y212742D01*
X221299Y214556D01*
Y223250D01*
X221105Y224226D01*
X220552Y225052D01*
X219725Y225605D01*
X218750Y225799D01*
D02*
G37*
G36*
X69670Y218939D02*
X68890Y218784D01*
X68228Y218342D01*
X67786Y217680D01*
X67631Y216900D01*
X67786Y216120D01*
X68228Y215458D01*
X68890Y215016D01*
X69670Y214861D01*
X70450Y215016D01*
X71112Y215458D01*
X71554Y216120D01*
X71709Y216900D01*
X71554Y217680D01*
X71112Y218342D01*
X70450Y218784D01*
X69670Y218939D01*
D02*
G37*
G36*
X201750Y217789D02*
X200970Y217634D01*
X200308Y217192D01*
X199866Y216530D01*
X199711Y215750D01*
X199866Y214970D01*
X200308Y214308D01*
X200970Y213866D01*
X201750Y213711D01*
X202530Y213866D01*
X203192Y214308D01*
X203634Y214970D01*
X203789Y215750D01*
X203634Y216530D01*
X203192Y217192D01*
X202530Y217634D01*
X201750Y217789D01*
D02*
G37*
G36*
X108750Y215789D02*
X107970Y215634D01*
X107308Y215192D01*
X106866Y214530D01*
X106711Y213750D01*
X106866Y212970D01*
X107308Y212308D01*
X107970Y211866D01*
X108750Y211711D01*
X109530Y211866D01*
X110192Y212308D01*
X110634Y212970D01*
X110789Y213750D01*
X110634Y214530D01*
X110192Y215192D01*
X109530Y215634D01*
X108750Y215789D01*
D02*
G37*
G36*
X20500Y214539D02*
X19720Y214384D01*
X19058Y213942D01*
X18616Y213280D01*
X18461Y212500D01*
X18616Y211719D01*
X19058Y211058D01*
X19720Y210616D01*
X20500Y210460D01*
X21280Y210616D01*
X21942Y211058D01*
X22384Y211719D01*
X22539Y212500D01*
X22384Y213280D01*
X21942Y213942D01*
X21280Y214384D01*
X20500Y214539D01*
D02*
G37*
G36*
X93000Y213789D02*
X92220Y213634D01*
X91558Y213192D01*
X91116Y212530D01*
X90961Y211750D01*
X91116Y210970D01*
X91558Y210308D01*
X92220Y209866D01*
X93000Y209711D01*
X93780Y209866D01*
X94442Y210308D01*
X94884Y210970D01*
X95039Y211750D01*
X94884Y212530D01*
X94442Y213192D01*
X93780Y213634D01*
X93000Y213789D01*
D02*
G37*
G36*
X270250Y212539D02*
X269470Y212384D01*
X268808Y211942D01*
X268366Y211280D01*
X268211Y210500D01*
X268366Y209720D01*
X268808Y209058D01*
X269470Y208616D01*
X270250Y208461D01*
X271030Y208616D01*
X271692Y209058D01*
X272134Y209720D01*
X272289Y210500D01*
X272134Y211280D01*
X271692Y211942D01*
X271030Y212384D01*
X270250Y212539D01*
D02*
G37*
G36*
X151250Y215539D02*
X150470Y215384D01*
X149808Y214942D01*
X149366Y214280D01*
X149211Y213500D01*
X149366Y212720D01*
X149502Y212515D01*
X149708Y211625D01*
X149503Y210735D01*
X149366Y210530D01*
X149211Y209750D01*
X149366Y208970D01*
X149808Y208308D01*
X150470Y207866D01*
X151250Y207711D01*
X152030Y207866D01*
X152692Y208308D01*
X153134Y208970D01*
X153289Y209750D01*
X153134Y210530D01*
X152997Y210735D01*
X152792Y211625D01*
X152997Y212515D01*
X153134Y212720D01*
X153289Y213500D01*
X153134Y214280D01*
X152692Y214942D01*
X152030Y215384D01*
X151250Y215539D01*
D02*
G37*
G36*
X145250Y210039D02*
X144470Y209884D01*
X143808Y209442D01*
X143366Y208780D01*
X143211Y208000D01*
X143366Y207220D01*
X143808Y206558D01*
X144470Y206116D01*
X145250Y205961D01*
X146030Y206116D01*
X146692Y206558D01*
X147134Y207220D01*
X147289Y208000D01*
X147134Y208780D01*
X146692Y209442D01*
X146030Y209884D01*
X145250Y210039D01*
D02*
G37*
G36*
X209750Y209789D02*
X208970Y209634D01*
X208308Y209192D01*
X207866Y208530D01*
X207711Y207750D01*
X207866Y206970D01*
X208308Y206308D01*
X208970Y205866D01*
X209750Y205711D01*
X210530Y205866D01*
X211192Y206308D01*
X211634Y206970D01*
X211789Y207750D01*
X211634Y208530D01*
X211192Y209192D01*
X210530Y209634D01*
X209750Y209789D01*
D02*
G37*
G36*
X192500Y213789D02*
X191720Y213634D01*
X191058Y213192D01*
X190616Y212530D01*
X190461Y211750D01*
X190616Y210970D01*
X191058Y210308D01*
X191462Y210038D01*
X191731Y209769D01*
X191873Y208541D01*
X191866Y208530D01*
X191711Y207750D01*
X191866Y206970D01*
X192308Y206308D01*
X192970Y205866D01*
X193750Y205711D01*
X194530Y205866D01*
X195192Y206308D01*
X195634Y206970D01*
X195789Y207750D01*
X195634Y208530D01*
X195192Y209192D01*
X194788Y209462D01*
X194519Y209731D01*
X194377Y210959D01*
X194384Y210970D01*
X194539Y211750D01*
X194384Y212530D01*
X193942Y213192D01*
X193280Y213634D01*
X192500Y213789D01*
D02*
G37*
G36*
X138250Y209289D02*
X137470Y209134D01*
X136808Y208692D01*
X136366Y208030D01*
X136211Y207250D01*
X136366Y206470D01*
X136808Y205808D01*
X137470Y205366D01*
X138250Y205211D01*
X139030Y205366D01*
X139692Y205808D01*
X140134Y206470D01*
X140289Y207250D01*
X140134Y208030D01*
X139692Y208692D01*
X139030Y209134D01*
X138250Y209289D01*
D02*
G37*
G36*
X77500Y208039D02*
X76720Y207884D01*
X76058Y207442D01*
X75616Y206780D01*
X75461Y206000D01*
X75616Y205220D01*
X76058Y204558D01*
X76720Y204116D01*
X77500Y203961D01*
X78280Y204116D01*
X78942Y204558D01*
X79384Y205220D01*
X79539Y206000D01*
X79384Y206780D01*
X78942Y207442D01*
X78280Y207884D01*
X77500Y208039D01*
D02*
G37*
G36*
X46250Y208039D02*
X45470Y207884D01*
X44808Y207442D01*
X44366Y206780D01*
X44211Y206000D01*
X44366Y205219D01*
X44808Y204558D01*
X45470Y204116D01*
X46250Y203961D01*
X47031Y204116D01*
X47692Y204558D01*
X48134Y205219D01*
X48289Y206000D01*
X48134Y206780D01*
X47692Y207442D01*
X47031Y207884D01*
X46250Y208039D01*
D02*
G37*
G36*
X163750Y207789D02*
X162970Y207634D01*
X162308Y207192D01*
X161866Y206530D01*
X161711Y205750D01*
X161866Y204970D01*
X162308Y204308D01*
X162970Y203866D01*
X163750Y203711D01*
X164530Y203866D01*
X165192Y204308D01*
X165634Y204970D01*
X165789Y205750D01*
X165634Y206530D01*
X165192Y207192D01*
X164530Y207634D01*
X163750Y207789D01*
D02*
G37*
G36*
X106000Y207539D02*
X105220Y207384D01*
X104558Y206942D01*
X104116Y206280D01*
X103961Y205500D01*
X104116Y204720D01*
X104558Y204058D01*
X105220Y203616D01*
X106000Y203461D01*
X106780Y203616D01*
X107442Y204058D01*
X107884Y204720D01*
X108039Y205500D01*
X107884Y206280D01*
X107442Y206942D01*
X106780Y207384D01*
X106000Y207539D01*
D02*
G37*
G36*
X155500Y205789D02*
X154720Y205634D01*
X154058Y205192D01*
X153616Y204530D01*
X153461Y203750D01*
X153616Y202970D01*
X154058Y202308D01*
X154720Y201866D01*
X155500Y201711D01*
X156280Y201866D01*
X156942Y202308D01*
X157384Y202970D01*
X157539Y203750D01*
X157384Y204530D01*
X156942Y205192D01*
X156280Y205634D01*
X155500Y205789D01*
D02*
G37*
G36*
X14500Y207039D02*
X13720Y206884D01*
X13058Y206442D01*
X12616Y205780D01*
X12461Y205000D01*
X12616Y204220D01*
X13058Y203558D01*
X13187Y203472D01*
X13507Y202368D01*
X13383Y201930D01*
X13116Y201530D01*
X12961Y200750D01*
X13116Y199970D01*
X13558Y199308D01*
X14220Y198866D01*
X15000Y198711D01*
X15780Y198866D01*
X16442Y199308D01*
X16884Y199970D01*
X17039Y200750D01*
X16884Y201530D01*
X16442Y202192D01*
X16313Y202278D01*
X15993Y203382D01*
X16117Y203820D01*
X16384Y204220D01*
X16539Y205000D01*
X16384Y205780D01*
X15942Y206442D01*
X15280Y206884D01*
X14500Y207039D01*
D02*
G37*
G36*
X229750Y202039D02*
X228970Y201884D01*
X228308Y201442D01*
X227866Y200780D01*
X227711Y200000D01*
X227866Y199220D01*
X228308Y198558D01*
X228970Y198116D01*
X229750Y197961D01*
X230530Y198116D01*
X231192Y198558D01*
X231634Y199220D01*
X231789Y200000D01*
X231634Y200780D01*
X231192Y201442D01*
X230530Y201884D01*
X229750Y202039D01*
D02*
G37*
G36*
X201750Y201789D02*
X200970Y201634D01*
X200308Y201192D01*
X199866Y200530D01*
X199711Y199750D01*
X199866Y198970D01*
X200308Y198308D01*
X200970Y197866D01*
X201750Y197711D01*
X202530Y197866D01*
X203192Y198308D01*
X203634Y198970D01*
X203789Y199750D01*
X203634Y200530D01*
X203192Y201192D01*
X202530Y201634D01*
X201750Y201789D01*
D02*
G37*
G36*
X185750D02*
X184970Y201634D01*
X184308Y201192D01*
X183866Y200530D01*
X183711Y199750D01*
X183866Y198970D01*
X184308Y198308D01*
X184970Y197866D01*
X185750Y197711D01*
X186530Y197866D01*
X187192Y198308D01*
X187634Y198970D01*
X187789Y199750D01*
X187634Y200530D01*
X187192Y201192D01*
X186530Y201634D01*
X185750Y201789D01*
D02*
G37*
G36*
X92750Y200039D02*
X91970Y199884D01*
X91308Y199442D01*
X90866Y198780D01*
X90711Y198000D01*
X90866Y197220D01*
X91308Y196558D01*
X91970Y196116D01*
X92750Y195961D01*
X93531Y196116D01*
X94192Y196558D01*
X94634Y197220D01*
X94789Y198000D01*
X94634Y198780D01*
X94192Y199442D01*
X93531Y199884D01*
X92750Y200039D01*
D02*
G37*
G36*
X151750Y198289D02*
X150970Y198134D01*
X150308Y197692D01*
X149866Y197030D01*
X149711Y196250D01*
X149831Y195644D01*
X149080Y194852D01*
X148943Y194739D01*
X147715Y195243D01*
X147686Y195270D01*
X147634Y195530D01*
X147192Y196192D01*
X146530Y196634D01*
X145750Y196789D01*
X144970Y196634D01*
X144308Y196192D01*
X143866Y195530D01*
X143711Y194750D01*
X143740Y194603D01*
X142597Y193839D01*
X142530Y193884D01*
X141750Y194039D01*
X140970Y193884D01*
X140308Y193442D01*
X139866Y192780D01*
X139711Y192000D01*
X139866Y191220D01*
X140308Y190558D01*
X140970Y190116D01*
X141750Y189961D01*
X142530Y190116D01*
X143192Y190558D01*
X143634Y191220D01*
X143789Y192000D01*
X143760Y192147D01*
X144903Y192911D01*
X144970Y192866D01*
X145750Y192711D01*
X146530Y192866D01*
X146761Y193020D01*
X146786Y193020D01*
X148036Y192507D01*
X148064Y192480D01*
X148116Y192220D01*
X148558Y191558D01*
X149220Y191116D01*
X150000Y190961D01*
X150780Y191116D01*
X151442Y191558D01*
X151884Y192220D01*
X152039Y193000D01*
X151884Y193780D01*
X152530Y194366D01*
X153192Y194808D01*
X153634Y195470D01*
X153789Y196250D01*
X153634Y197030D01*
X153192Y197692D01*
X152530Y198134D01*
X151750Y198289D01*
D02*
G37*
G36*
X107500Y197789D02*
X106720Y197634D01*
X106058Y197192D01*
X105616Y196530D01*
X105461Y195750D01*
X105616Y194970D01*
X106058Y194308D01*
X106720Y193866D01*
X107500Y193711D01*
X108280Y193866D01*
X108942Y194308D01*
X109384Y194970D01*
X109539Y195750D01*
X109384Y196530D01*
X108942Y197192D01*
X108280Y197634D01*
X107500Y197789D01*
D02*
G37*
G36*
X130250Y197789D02*
X129470Y197634D01*
X128808Y197192D01*
X128366Y196530D01*
X128211Y195750D01*
X128366Y194970D01*
X128808Y194308D01*
X129470Y193866D01*
X130250Y193711D01*
X131030Y193866D01*
X131875Y194229D01*
X132720Y193866D01*
X133500Y193711D01*
X134281Y193866D01*
X134942Y194308D01*
X135384Y194970D01*
X135539Y195750D01*
X135384Y196530D01*
X134942Y197192D01*
X134281Y197634D01*
X133500Y197789D01*
X132720Y197634D01*
X131875Y197271D01*
X131030Y197634D01*
X130250Y197789D01*
D02*
G37*
G36*
X213750Y195789D02*
X212970Y195634D01*
X212308Y195192D01*
X211866Y194531D01*
X211820Y194300D01*
X210554Y193636D01*
X210530Y193634D01*
X209750Y193789D01*
X208970Y193634D01*
X208308Y193192D01*
X207866Y192530D01*
X207711Y191750D01*
X207866Y190970D01*
X208308Y190308D01*
X208970Y189866D01*
X209750Y189711D01*
X210530Y189866D01*
X211192Y190308D01*
X211634Y190970D01*
X211680Y191201D01*
X212946Y191864D01*
X212970Y191866D01*
X213750Y191711D01*
X214530Y191866D01*
X215192Y192308D01*
X215634Y192970D01*
X215789Y193750D01*
X215634Y194531D01*
X215192Y195192D01*
X214530Y195634D01*
X213750Y195789D01*
D02*
G37*
G36*
X62250Y193290D02*
X61470Y193134D01*
X60808Y192692D01*
X59692D01*
X59030Y193134D01*
X58250Y193290D01*
X57470Y193134D01*
X56808Y192692D01*
X55692D01*
X55030Y193134D01*
X54250Y193290D01*
X53470Y193134D01*
X52808Y192692D01*
X51692D01*
X51031Y193134D01*
X50250Y193290D01*
X49470Y193134D01*
X48808Y192692D01*
X47692D01*
X47031Y193134D01*
X46250Y193290D01*
X45470Y193134D01*
X44808Y192692D01*
X43692D01*
X43031Y193134D01*
X42250Y193290D01*
X41470Y193134D01*
X40808Y192692D01*
X39692D01*
X39030Y193134D01*
X38250Y193290D01*
X37470Y193134D01*
X36808Y192692D01*
X35692D01*
X35031Y193134D01*
X34250Y193290D01*
X33470Y193134D01*
X32808Y192692D01*
X32366Y192031D01*
X32211Y191250D01*
X32366Y190470D01*
X32808Y189808D01*
X33470Y189366D01*
X34250Y189211D01*
X35031Y189366D01*
X35692Y189808D01*
X36808D01*
X37470Y189366D01*
X38250Y189211D01*
X39030Y189366D01*
X39692Y189808D01*
X40808D01*
X41470Y189366D01*
X42250Y189211D01*
X43031Y189366D01*
X43692Y189808D01*
X44808D01*
X45470Y189366D01*
X46250Y189211D01*
X47031Y189366D01*
X47692Y189808D01*
X48808D01*
X49470Y189366D01*
X50250Y189211D01*
X51031Y189366D01*
X51692Y189808D01*
X52808D01*
X53470Y189366D01*
X54250Y189211D01*
X55030Y189366D01*
X55692Y189808D01*
X56808D01*
X57470Y189366D01*
X58250Y189211D01*
X59030Y189366D01*
X59692Y189808D01*
X60808D01*
X61470Y189366D01*
X62250Y189211D01*
X63031Y189366D01*
X63142Y189441D01*
X63972Y189630D01*
X64763Y189126D01*
X64808Y189058D01*
X65470Y188616D01*
X66250Y188461D01*
X67031Y188616D01*
X67692Y189058D01*
X68134Y189720D01*
X68289Y190500D01*
X68134Y191281D01*
X67692Y191942D01*
X67031Y192384D01*
X66250Y192540D01*
X65470Y192384D01*
X65359Y192310D01*
X64528Y192121D01*
X63737Y192625D01*
X63692Y192692D01*
X63031Y193134D01*
X62250Y193290D01*
D02*
G37*
G36*
X70250Y196039D02*
X69470Y195884D01*
X68808Y195442D01*
X68366Y194780D01*
X68211Y194000D01*
X68366Y193220D01*
X68808Y192558D01*
X69470Y192116D01*
X70250Y191961D01*
X71030Y192116D01*
X71692Y192558D01*
X72134Y193220D01*
X72289Y194000D01*
X72134Y194780D01*
X71692Y195442D01*
X71030Y195884D01*
X70250Y196039D01*
D02*
G37*
G36*
X229750Y195539D02*
X228970Y195384D01*
X228308Y194942D01*
X227866Y194280D01*
X227711Y193500D01*
X227866Y192720D01*
X228308Y192058D01*
X228970Y191616D01*
X229750Y191461D01*
X230530Y191616D01*
X231192Y192058D01*
X231634Y192720D01*
X231789Y193500D01*
X231634Y194280D01*
X231192Y194942D01*
X230530Y195384D01*
X229750Y195539D01*
D02*
G37*
G36*
X270250Y194539D02*
X269470Y194384D01*
X268808Y193942D01*
X268366Y193280D01*
X268211Y192500D01*
X268366Y191720D01*
X268808Y191058D01*
X269470Y190616D01*
X270250Y190461D01*
X271030Y190616D01*
X271692Y191058D01*
X272134Y191720D01*
X272289Y192500D01*
X272134Y193280D01*
X271692Y193942D01*
X271030Y194384D01*
X270250Y194539D01*
D02*
G37*
G36*
X192500Y189789D02*
X191720Y189634D01*
X191058Y189192D01*
X190442D01*
X189780Y189634D01*
X189000Y189789D01*
X188220Y189634D01*
X187558Y189192D01*
X187116Y188530D01*
X186961Y187750D01*
X187116Y186970D01*
X187558Y186308D01*
X188220Y185866D01*
X189000Y185711D01*
X189780Y185866D01*
X190442Y186308D01*
X191058D01*
X191720Y185866D01*
X192500Y185711D01*
X193280Y185866D01*
X193942Y186308D01*
X194384Y186970D01*
X194539Y187750D01*
X194384Y188530D01*
X193942Y189192D01*
X193280Y189634D01*
X192500Y189789D01*
D02*
G37*
G36*
X83250Y191289D02*
X82470Y191134D01*
X81808Y190692D01*
X81366Y190031D01*
X81211Y189250D01*
X81366Y188470D01*
X81808Y187808D01*
X82470Y187366D01*
X83250Y187211D01*
X84031Y187366D01*
X84692Y187808D01*
X85134Y188470D01*
X85289Y189250D01*
X85134Y190031D01*
X84692Y190692D01*
X84031Y191134D01*
X83250Y191289D01*
D02*
G37*
G36*
X229750Y189039D02*
X228970Y188884D01*
X228308Y188442D01*
X227866Y187780D01*
X227711Y187000D01*
X227866Y186220D01*
X228308Y185558D01*
X228970Y185116D01*
X229750Y184961D01*
X230530Y185116D01*
X231192Y185558D01*
X231634Y186220D01*
X231789Y187000D01*
X231634Y187780D01*
X231192Y188442D01*
X230530Y188884D01*
X229750Y189039D01*
D02*
G37*
G36*
X182000Y193789D02*
X181220Y193634D01*
X180558Y193192D01*
X180116Y192530D01*
X179961Y191750D01*
X180116Y190970D01*
X180558Y190308D01*
X181147Y189914D01*
X181220Y189350D01*
Y189150D01*
X181147Y188586D01*
X180558Y188192D01*
X180116Y187530D01*
X179961Y186750D01*
X180116Y185970D01*
X180558Y185308D01*
X181220Y184866D01*
X182000Y184711D01*
X182780Y184866D01*
X183442Y185308D01*
X183884Y185970D01*
X184039Y186750D01*
X183884Y187530D01*
X183442Y188192D01*
X182853Y188586D01*
X182780Y189150D01*
Y189350D01*
X182853Y189914D01*
X183442Y190308D01*
X183884Y190970D01*
X184039Y191750D01*
X183884Y192530D01*
X183442Y193192D01*
X182780Y193634D01*
X182000Y193789D01*
D02*
G37*
G36*
X264000Y186789D02*
X263220Y186634D01*
X262558Y186192D01*
X262116Y185530D01*
X261961Y184750D01*
X262116Y183970D01*
X262558Y183308D01*
X263220Y182866D01*
X264000Y182711D01*
X264780Y182866D01*
X265442Y183308D01*
X265884Y183970D01*
X266039Y184750D01*
X265884Y185530D01*
X265442Y186192D01*
X264780Y186634D01*
X264000Y186789D01*
D02*
G37*
G36*
X217750Y185789D02*
X216970Y185634D01*
X216308Y185192D01*
X215866Y184530D01*
X215711Y183750D01*
X215866Y182970D01*
X216308Y182308D01*
X216970Y181866D01*
X217750Y181711D01*
X218530Y181866D01*
X219192Y182308D01*
X219634Y182970D01*
X219789Y183750D01*
X219634Y184530D01*
X219192Y185192D01*
X218530Y185634D01*
X217750Y185789D01*
D02*
G37*
G36*
X241750Y225789D02*
X240970Y225634D01*
X240308Y225192D01*
X239866Y224530D01*
X239711Y223750D01*
X239866Y222970D01*
X240308Y222308D01*
X240970Y221866D01*
X241429Y221775D01*
X244876Y218328D01*
Y182750D01*
X245352Y181602D01*
X246775Y180179D01*
X246866Y179720D01*
X247308Y179058D01*
X247970Y178616D01*
X248750Y178461D01*
X249530Y178616D01*
X250192Y179058D01*
X250634Y179720D01*
X250789Y180500D01*
X250634Y181280D01*
X250192Y181942D01*
X249530Y182384D01*
X249071Y182475D01*
X248124Y183423D01*
Y219000D01*
X247648Y220148D01*
X243725Y224071D01*
X243634Y224530D01*
X243192Y225192D01*
X242530Y225634D01*
X241750Y225789D01*
D02*
G37*
G36*
X104171Y181789D02*
X103391Y181634D01*
X102730Y181192D01*
X102288Y180530D01*
X102132Y179750D01*
X102288Y178970D01*
X102730Y178308D01*
X103391Y177866D01*
X104171Y177711D01*
X104952Y177866D01*
X105613Y178308D01*
X106055Y178970D01*
X106211Y179750D01*
X106055Y180530D01*
X105613Y181192D01*
X104952Y181634D01*
X104171Y181789D01*
D02*
G37*
G36*
X153750Y177789D02*
X152970Y177634D01*
X152420Y177266D01*
X152308Y177192D01*
X150942Y177192D01*
X150830Y177266D01*
X150280Y177634D01*
X149500Y177789D01*
X148720Y177634D01*
X148058Y177192D01*
X147192D01*
X146530Y177634D01*
X145750Y177789D01*
X144970Y177634D01*
X144308Y177192D01*
X143192D01*
X142530Y177634D01*
X141750Y177789D01*
X140970Y177634D01*
X140308Y177192D01*
X139866Y176530D01*
X139711Y175750D01*
X139866Y174970D01*
X140308Y174308D01*
X140970Y173866D01*
X141750Y173711D01*
X142530Y173866D01*
X143192Y174308D01*
X144308D01*
X144970Y173866D01*
X145750Y173711D01*
X146530Y173866D01*
X147192Y174308D01*
X148058D01*
X148720Y173866D01*
X149500Y173711D01*
X150280Y173866D01*
X150830Y174234D01*
X150942Y174308D01*
X152308Y174308D01*
X152420Y174234D01*
X152970Y173866D01*
X153750Y173711D01*
X154530Y173866D01*
X155192Y174308D01*
X155634Y174970D01*
X155789Y175750D01*
X155634Y176530D01*
X155192Y177192D01*
X154530Y177634D01*
X153750Y177789D01*
D02*
G37*
G36*
X19750Y179289D02*
X18970Y179134D01*
X18308Y178692D01*
X17866Y178030D01*
X17711Y177250D01*
X17866Y176470D01*
X18257Y175884D01*
X18172Y175572D01*
X17673Y174705D01*
X17592Y174721D01*
X17250Y174789D01*
X16470Y174634D01*
X15808Y174192D01*
X15385Y173559D01*
X15366Y173530D01*
Y173530D01*
X15211Y172750D01*
X14500Y172539D01*
X13720Y172384D01*
X13058Y171942D01*
X12616Y171280D01*
X12461Y170500D01*
X12616Y169720D01*
X13058Y169058D01*
X13720Y168616D01*
X14500Y168461D01*
X15280Y168616D01*
X15942Y169058D01*
X16365Y169691D01*
X16384Y169720D01*
Y169720D01*
X16539Y170500D01*
X17250Y170711D01*
X18030Y170866D01*
X18692Y171308D01*
X19134Y171970D01*
X19289Y172750D01*
X19134Y173530D01*
X18743Y174116D01*
X18828Y174428D01*
X19327Y175295D01*
X19409Y175279D01*
X19750Y175211D01*
X20530Y175366D01*
X21192Y175808D01*
X21634Y176470D01*
X21789Y177250D01*
X21634Y178030D01*
X21192Y178692D01*
X20530Y179134D01*
X19750Y179289D01*
D02*
G37*
G36*
X111250Y177289D02*
X110470Y177134D01*
X109808Y176692D01*
X109366Y176030D01*
X109211Y175250D01*
X109259Y175008D01*
X108665Y174478D01*
X108163Y174158D01*
X107500Y174289D01*
X106720Y174134D01*
X106058Y173692D01*
X105616Y173031D01*
X105461Y172250D01*
X105616Y171470D01*
X106058Y170808D01*
X106720Y170366D01*
X107500Y170211D01*
X108280Y170366D01*
X108942Y170808D01*
X109384Y171470D01*
X109539Y172250D01*
X109491Y172492D01*
X110085Y173023D01*
X110587Y173343D01*
X111250Y173211D01*
X112030Y173366D01*
X112692Y173808D01*
X113134Y174470D01*
X113289Y175250D01*
X113134Y176030D01*
X112692Y176692D01*
X112030Y177134D01*
X111250Y177289D01*
D02*
G37*
G36*
X270250Y177789D02*
X269470Y177634D01*
X268808Y177192D01*
X268366Y176530D01*
X268211Y175750D01*
X268366Y174970D01*
X268808Y174308D01*
X269470Y173866D01*
X270250Y173711D01*
X271030Y173866D01*
X271692Y174308D01*
X272134Y174970D01*
X272289Y175750D01*
X272134Y176530D01*
X271692Y177192D01*
X271030Y177634D01*
X270250Y177789D01*
D02*
G37*
G36*
X209750Y177789D02*
X208970Y177634D01*
X208308Y177192D01*
X207866Y176530D01*
X207711Y175750D01*
X207866Y174970D01*
X208308Y174308D01*
X208970Y173866D01*
X209750Y173711D01*
X210530Y173866D01*
X211192Y174308D01*
X211634Y174970D01*
X211789Y175750D01*
X211634Y176530D01*
X211192Y177192D01*
X210530Y177634D01*
X209750Y177789D01*
D02*
G37*
G36*
X193750D02*
X192970Y177634D01*
X192308Y177192D01*
X191866Y176530D01*
X191711Y175750D01*
X191866Y174970D01*
X192308Y174308D01*
X192970Y173866D01*
X193750Y173711D01*
X194530Y173866D01*
X195192Y174308D01*
X195634Y174970D01*
X195789Y175750D01*
X195634Y176530D01*
X195192Y177192D01*
X194530Y177634D01*
X193750Y177789D01*
D02*
G37*
G36*
X86250Y185289D02*
X85470Y185134D01*
X84808Y184692D01*
X84366Y184031D01*
X84211Y183250D01*
X84366Y182470D01*
X84808Y181808D01*
Y180692D01*
X84366Y180031D01*
X84211Y179250D01*
X84359Y178507D01*
X84366Y178470D01*
X83976Y177155D01*
X83837Y177046D01*
X83308Y176692D01*
X82866Y176031D01*
X82711Y175250D01*
X82866Y174470D01*
X83308Y173808D01*
X83970Y173366D01*
X84750Y173211D01*
X85530Y173366D01*
X86192Y173808D01*
X86634Y174470D01*
X86789Y175250D01*
X86641Y175994D01*
X86634Y176031D01*
X87024Y177346D01*
X87163Y177455D01*
X87692Y177808D01*
X88134Y178470D01*
X88289Y179250D01*
X88134Y180031D01*
X87692Y180692D01*
Y181808D01*
X88134Y182470D01*
X88289Y183250D01*
X88134Y184031D01*
X87692Y184692D01*
X87030Y185134D01*
X86250Y185289D01*
D02*
G37*
G36*
X229750Y176789D02*
X228970Y176634D01*
X228308Y176192D01*
X227866Y175530D01*
X227711Y174750D01*
X227866Y173970D01*
X228308Y173308D01*
X228970Y172866D01*
X229750Y172711D01*
X230530Y172866D01*
X231192Y173308D01*
X231634Y173970D01*
X231789Y174750D01*
X231634Y175530D01*
X231192Y176192D01*
X230530Y176634D01*
X229750Y176789D01*
D02*
G37*
G36*
X26250Y181290D02*
X25470Y181134D01*
X24808Y180692D01*
X24366Y180031D01*
X24211Y179250D01*
X24366Y178470D01*
X24808Y177808D01*
Y176692D01*
X24366Y176031D01*
X24211Y175250D01*
X24366Y174470D01*
X24808Y173808D01*
Y172692D01*
X24366Y172031D01*
X24211Y171250D01*
X24366Y170470D01*
X24808Y169808D01*
X25470Y169366D01*
X26250Y169211D01*
X27030Y169366D01*
X27692Y169808D01*
X28134Y170470D01*
X28289Y171250D01*
X28134Y172031D01*
X27692Y172692D01*
Y173808D01*
X28134Y174470D01*
X28289Y175250D01*
X28134Y176031D01*
X27692Y176692D01*
Y177808D01*
X28134Y178470D01*
X28289Y179250D01*
X28134Y180031D01*
X27692Y180692D01*
X27030Y181134D01*
X26250Y181290D01*
D02*
G37*
G36*
X89000Y173289D02*
X88220Y173134D01*
X87558Y172692D01*
X87116Y172030D01*
X86961Y171250D01*
X87116Y170470D01*
X87558Y169808D01*
X88220Y169366D01*
X89000Y169211D01*
X89780Y169366D01*
X90442Y169808D01*
X90884Y170470D01*
X91039Y171250D01*
X90884Y172030D01*
X90442Y172692D01*
X89780Y173134D01*
X89000Y173289D01*
D02*
G37*
G36*
X137750Y169789D02*
X136970Y169634D01*
X136308Y169192D01*
X135192D01*
X134530Y169634D01*
X133750Y169789D01*
X132970Y169634D01*
X132308Y169192D01*
X131192D01*
X130530Y169634D01*
X129750Y169789D01*
X128970Y169634D01*
X128308Y169192D01*
X127866Y168530D01*
X127711Y167750D01*
X127866Y166970D01*
X128308Y166308D01*
X128970Y165866D01*
X129750Y165711D01*
X130530Y165866D01*
X131192Y166308D01*
X132308D01*
X132970Y165866D01*
X133750Y165711D01*
X134530Y165866D01*
X135192Y166308D01*
X136308D01*
X136970Y165866D01*
X137750Y165711D01*
X138530Y165866D01*
X139192Y166308D01*
X139634Y166970D01*
X139789Y167750D01*
X139634Y168530D01*
X139192Y169192D01*
X138530Y169634D01*
X137750Y169789D01*
D02*
G37*
G36*
X245750Y176039D02*
X244969Y175884D01*
X244308Y175442D01*
X243866Y174781D01*
X243710Y174000D01*
X243866Y173220D01*
X244180Y172750D01*
X243866Y172280D01*
X243711Y171500D01*
X243866Y170720D01*
X244180Y170250D01*
X243866Y169780D01*
X243711Y169000D01*
X243866Y168220D01*
X244308Y167558D01*
X244970Y167116D01*
X245750Y166961D01*
X246530Y167116D01*
X247192Y167558D01*
X247634Y168220D01*
X247789Y169000D01*
X247634Y169780D01*
X247320Y170250D01*
X247634Y170720D01*
X247789Y171500D01*
X247634Y172280D01*
X247320Y172750D01*
X247634Y173220D01*
X247789Y174000D01*
X247634Y174781D01*
X247192Y175442D01*
X246530Y175884D01*
X245750Y176039D01*
D02*
G37*
G36*
X201750Y169789D02*
X200970Y169634D01*
X200308Y169192D01*
X199866Y168530D01*
X199711Y167750D01*
X199866Y166970D01*
X200308Y166308D01*
X200970Y165866D01*
X201750Y165711D01*
X202530Y165866D01*
X203192Y166308D01*
X203634Y166970D01*
X203789Y167750D01*
X203634Y168530D01*
X203192Y169192D01*
X202530Y169634D01*
X201750Y169789D01*
D02*
G37*
G36*
X153750D02*
X152970Y169634D01*
X152308Y169192D01*
X151866Y168530D01*
X151711Y167750D01*
X151866Y166970D01*
X152308Y166308D01*
X152970Y165866D01*
X153750Y165711D01*
X154530Y165866D01*
X155192Y166308D01*
X155634Y166970D01*
X155789Y167750D01*
X155634Y168530D01*
X155192Y169192D01*
X154530Y169634D01*
X153750Y169789D01*
D02*
G37*
G36*
X145750D02*
X144970Y169634D01*
X144308Y169192D01*
X143866Y168530D01*
X143711Y167750D01*
X143866Y166970D01*
X144308Y166308D01*
X144970Y165866D01*
X145750Y165711D01*
X146530Y165866D01*
X147192Y166308D01*
X147634Y166970D01*
X147789Y167750D01*
X147634Y168530D01*
X147192Y169192D01*
X146530Y169634D01*
X145750Y169789D01*
D02*
G37*
G36*
X229750Y169539D02*
X228970Y169384D01*
X228308Y168942D01*
X227866Y168280D01*
X227711Y167500D01*
X227866Y166719D01*
X228308Y166058D01*
X228970Y165616D01*
X229750Y165461D01*
X230530Y165616D01*
X231192Y166058D01*
X231634Y166719D01*
X231789Y167500D01*
X231634Y168280D01*
X231192Y168942D01*
X230530Y169384D01*
X229750Y169539D01*
D02*
G37*
G36*
X83000Y169289D02*
X82220Y169134D01*
X81558Y168692D01*
X81116Y168031D01*
X80961Y167250D01*
X81116Y166470D01*
X81558Y165808D01*
X82220Y165366D01*
X83000Y165211D01*
X83780Y165366D01*
X84442Y165808D01*
X84884Y166470D01*
X85039Y167250D01*
X84884Y168031D01*
X84442Y168692D01*
X83780Y169134D01*
X83000Y169289D01*
D02*
G37*
G36*
X96250Y170299D02*
X95275Y170105D01*
X94448Y169552D01*
X93895Y168725D01*
X93701Y167750D01*
X93895Y166775D01*
X94448Y165948D01*
X95275Y165395D01*
X96250Y165201D01*
X97226Y165395D01*
X98052Y165948D01*
X98605Y166775D01*
X98799Y167750D01*
X98605Y168725D01*
X98052Y169552D01*
X97226Y170105D01*
X96250Y170299D01*
D02*
G37*
G36*
X107500Y167289D02*
X106720Y167134D01*
X106058Y166692D01*
X105616Y166030D01*
X105461Y165250D01*
X105616Y164470D01*
X106058Y163808D01*
X106720Y163366D01*
X107500Y163211D01*
X108280Y163366D01*
X108942Y163808D01*
X109384Y164470D01*
X109539Y165250D01*
X109384Y166030D01*
X108942Y166692D01*
X108280Y167134D01*
X107500Y167289D01*
D02*
G37*
G36*
X215250Y166289D02*
X214470Y166134D01*
X213808Y165692D01*
X213366Y165030D01*
X213211Y164250D01*
X213366Y163470D01*
X213808Y162808D01*
X214470Y162366D01*
X215250Y162211D01*
X216030Y162366D01*
X216692Y162808D01*
X217134Y163470D01*
X217289Y164250D01*
X217134Y165030D01*
X216692Y165692D01*
X216030Y166134D01*
X215250Y166289D01*
D02*
G37*
G36*
X20250Y164289D02*
X19470Y164134D01*
X18808Y163692D01*
X18366Y163030D01*
X18211Y162250D01*
X18366Y161470D01*
X18808Y160808D01*
X19470Y160366D01*
X20250Y160211D01*
X21030Y160366D01*
X21692Y160808D01*
X22134Y161470D01*
X22289Y162250D01*
X22134Y163030D01*
X21692Y163692D01*
X21030Y164134D01*
X20250Y164289D01*
D02*
G37*
G36*
X169750Y161789D02*
X168970Y161634D01*
X168308Y161192D01*
X167866Y160530D01*
X167711Y159750D01*
X167866Y158970D01*
X168308Y158308D01*
X168970Y157866D01*
X169750Y157711D01*
X170530Y157866D01*
X171192Y158308D01*
X171634Y158970D01*
X171789Y159750D01*
X171634Y160530D01*
X171192Y161192D01*
X170530Y161634D01*
X169750Y161789D01*
D02*
G37*
G36*
X161750D02*
X160970Y161634D01*
X160308Y161192D01*
X159866Y160530D01*
X159711Y159750D01*
X159866Y158970D01*
X160308Y158308D01*
X160970Y157866D01*
X161750Y157711D01*
X162530Y157866D01*
X163192Y158308D01*
X163634Y158970D01*
X163789Y159750D01*
X163634Y160530D01*
X163192Y161192D01*
X162530Y161634D01*
X161750Y161789D01*
D02*
G37*
G36*
X153750D02*
X152970Y161634D01*
X152308Y161192D01*
X151866Y160530D01*
X151711Y159750D01*
X151866Y158970D01*
X152308Y158308D01*
X152970Y157866D01*
X153750Y157711D01*
X154530Y157866D01*
X155192Y158308D01*
X155634Y158970D01*
X155789Y159750D01*
X155634Y160530D01*
X155192Y161192D01*
X154530Y161634D01*
X153750Y161789D01*
D02*
G37*
G36*
X137750D02*
X136970Y161634D01*
X136308Y161192D01*
X135866Y160530D01*
X135711Y159750D01*
X135866Y158970D01*
X136308Y158308D01*
X136970Y157866D01*
X137750Y157711D01*
X138530Y157866D01*
X139192Y158308D01*
X139634Y158970D01*
X139789Y159750D01*
X139634Y160530D01*
X139192Y161192D01*
X138530Y161634D01*
X137750Y161789D01*
D02*
G37*
G36*
X129750D02*
X128970Y161634D01*
X128308Y161192D01*
X127866Y160530D01*
X127711Y159750D01*
X127866Y158970D01*
X128308Y158308D01*
X128970Y157866D01*
X129750Y157711D01*
X130530Y157866D01*
X131192Y158308D01*
X131634Y158970D01*
X131789Y159750D01*
X131634Y160530D01*
X131192Y161192D01*
X130530Y161634D01*
X129750Y161789D01*
D02*
G37*
G36*
X121750D02*
X120970Y161634D01*
X120308Y161192D01*
X119866Y160530D01*
X119711Y159750D01*
X119866Y158970D01*
X120308Y158308D01*
X120970Y157866D01*
X121750Y157711D01*
X122530Y157866D01*
X123192Y158308D01*
X123634Y158970D01*
X123789Y159750D01*
X123634Y160530D01*
X123192Y161192D01*
X122530Y161634D01*
X121750Y161789D01*
D02*
G37*
G36*
X89250Y161290D02*
X88470Y161134D01*
X87808Y160692D01*
X87366Y160031D01*
X87211Y159250D01*
X87366Y158470D01*
X87808Y157808D01*
X88470Y157366D01*
X89250Y157211D01*
X90031Y157366D01*
X90692Y157808D01*
X91134Y158470D01*
X91289Y159250D01*
X91134Y160031D01*
X90692Y160692D01*
X90031Y161134D01*
X89250Y161290D01*
D02*
G37*
G36*
X215250Y157789D02*
X214470Y157634D01*
X213808Y157192D01*
X213366Y156530D01*
X213211Y155750D01*
X213366Y154970D01*
X213808Y154308D01*
X214470Y153866D01*
X215250Y153711D01*
X216030Y153866D01*
X216692Y154308D01*
X217134Y154970D01*
X217289Y155750D01*
X217134Y156530D01*
X216692Y157192D01*
X216030Y157634D01*
X215250Y157789D01*
D02*
G37*
G36*
X165750Y154539D02*
X164970Y154384D01*
X164308Y153942D01*
X163962Y153424D01*
X163231Y153276D01*
X162569Y153271D01*
X162450Y153449D01*
X161788Y153891D01*
X161008Y154047D01*
X160228Y153891D01*
X159566Y153449D01*
X159124Y152788D01*
X158969Y152007D01*
X159124Y151227D01*
X159323Y150929D01*
X158646Y149769D01*
X158508Y149796D01*
X157727Y149641D01*
X157066Y149199D01*
X156624Y148538D01*
X156468Y147757D01*
X156624Y146977D01*
X157066Y146315D01*
X157727Y145873D01*
X158508Y145718D01*
X159288Y145873D01*
X159950Y146315D01*
X160392Y146977D01*
X160547Y147757D01*
X160392Y148538D01*
X160193Y148835D01*
X160869Y149996D01*
X161008Y149968D01*
X161788Y150123D01*
X162450Y150566D01*
X162796Y151084D01*
X163527Y151232D01*
X164189Y151237D01*
X164308Y151058D01*
X164970Y150616D01*
X165750Y150461D01*
X166530Y150616D01*
X167192Y151058D01*
X167634Y151720D01*
X167789Y152500D01*
X167634Y153280D01*
X167192Y153942D01*
X166530Y154384D01*
X165750Y154539D01*
D02*
G37*
G36*
X83250Y157289D02*
X82470Y157134D01*
X81808Y156692D01*
X81366Y156031D01*
X81211Y155250D01*
X81366Y154470D01*
X81808Y153808D01*
X82470Y153366D01*
X83250Y153211D01*
X84030Y153366D01*
X84692Y153808D01*
X85134Y154470D01*
X85289Y155250D01*
X85134Y156031D01*
X84692Y156692D01*
X84030Y157134D01*
X83250Y157289D01*
D02*
G37*
G36*
X185750Y153789D02*
X184970Y153634D01*
X184308Y153192D01*
X183866Y152530D01*
X183711Y151750D01*
X183866Y150970D01*
X184308Y150308D01*
X184970Y149866D01*
X185750Y149711D01*
X186530Y149866D01*
X187192Y150308D01*
X187634Y150970D01*
X187789Y151750D01*
X187634Y152530D01*
X187192Y153192D01*
X186530Y153634D01*
X185750Y153789D01*
D02*
G37*
G36*
X177750D02*
X176970Y153634D01*
X176308Y153192D01*
X175866Y152530D01*
X175711Y151750D01*
X175866Y150970D01*
X176308Y150308D01*
X176970Y149866D01*
X177750Y149711D01*
X178530Y149866D01*
X179192Y150308D01*
X179634Y150970D01*
X179789Y151750D01*
X179634Y152530D01*
X179192Y153192D01*
X178530Y153634D01*
X177750Y153789D01*
D02*
G37*
G36*
X153750D02*
X152970Y153634D01*
X152308Y153192D01*
X151866Y152530D01*
X151711Y151750D01*
X151866Y150970D01*
X152308Y150308D01*
X152970Y149866D01*
X153750Y149711D01*
X154530Y149866D01*
X155192Y150308D01*
X155634Y150970D01*
X155789Y151750D01*
X155634Y152530D01*
X155192Y153192D01*
X154530Y153634D01*
X153750Y153789D01*
D02*
G37*
G36*
X137750D02*
X136970Y153634D01*
X136308Y153192D01*
X135866Y152530D01*
X135711Y151750D01*
X135866Y150970D01*
X136308Y150308D01*
X136970Y149866D01*
X137750Y149711D01*
X138530Y149866D01*
X139192Y150308D01*
X139634Y150970D01*
X139789Y151750D01*
X139634Y152530D01*
X139192Y153192D01*
X138530Y153634D01*
X137750Y153789D01*
D02*
G37*
G36*
X121750D02*
X120970Y153634D01*
X120308Y153192D01*
X119866Y152530D01*
X119711Y151750D01*
X119866Y150970D01*
X120308Y150308D01*
X120970Y149866D01*
X121750Y149711D01*
X122530Y149866D01*
X123192Y150308D01*
X123634Y150970D01*
X123789Y151750D01*
X123634Y152530D01*
X123192Y153192D01*
X122530Y153634D01*
X121750Y153789D01*
D02*
G37*
G36*
X108000Y151789D02*
X107220Y151634D01*
X106558Y151192D01*
X106116Y150530D01*
X105961Y149750D01*
X106116Y148970D01*
X106558Y148308D01*
X107220Y147866D01*
X108000Y147711D01*
X108780Y147866D01*
X109442Y148308D01*
X109884Y148970D01*
X110039Y149750D01*
X109884Y150530D01*
X109442Y151192D01*
X108780Y151634D01*
X108000Y151789D01*
D02*
G37*
G36*
X145750Y153789D02*
X144970Y153634D01*
X144308Y153192D01*
X143866Y152530D01*
X143711Y151750D01*
X143866Y150970D01*
X144308Y150308D01*
X144308Y149192D01*
X143866Y148530D01*
X143791Y148153D01*
X143385Y147610D01*
X142518Y147236D01*
X142250Y147289D01*
X141470Y147134D01*
X140808Y146692D01*
X140366Y146030D01*
X140319Y145792D01*
X139849Y145542D01*
X139001Y145320D01*
X138530Y145634D01*
X137750Y145789D01*
X136970Y145634D01*
X136308Y145192D01*
X135866Y144530D01*
X135711Y143750D01*
X135866Y142970D01*
X136308Y142308D01*
X136970Y141866D01*
X137750Y141711D01*
X138530Y141866D01*
X139192Y142308D01*
X139310Y142484D01*
X140366Y141780D01*
X140211Y141000D01*
X140366Y140220D01*
X140808Y139558D01*
X140558Y138692D01*
X140116Y138030D01*
X139961Y137250D01*
X140116Y136470D01*
X140558Y135808D01*
X141220Y135366D01*
X142000Y135211D01*
X142780Y135366D01*
X143866Y134970D01*
X144308Y134308D01*
X144970Y133866D01*
X145750Y133711D01*
X146530Y133866D01*
X146920Y134126D01*
X149078D01*
X153016Y130188D01*
X153001Y129761D01*
X152702Y128705D01*
X152308Y128442D01*
X151866Y127780D01*
X151711Y127000D01*
X151866Y126220D01*
X152308Y125558D01*
X152970Y125116D01*
X153750Y124961D01*
X154530Y125116D01*
X155192Y125558D01*
X155455Y125952D01*
X156511Y126251D01*
X156938Y126266D01*
X160473Y122731D01*
X160308Y121192D01*
X159866Y120530D01*
X159711Y119750D01*
X159866Y118970D01*
X160308Y118308D01*
X160970Y117866D01*
X161750Y117711D01*
X162530Y117866D01*
X163192Y118308D01*
X164731Y118472D01*
X171102Y112102D01*
X171102Y112101D01*
X172250Y111626D01*
X172251Y111626D01*
X184340D01*
X185461Y110750D01*
X185616Y109970D01*
X186058Y109308D01*
X186720Y108866D01*
X187500Y108711D01*
X188280Y108866D01*
X188670Y109126D01*
X188827D01*
X192126Y105828D01*
Y104479D01*
X191965Y104343D01*
X190856Y103916D01*
X190530Y104134D01*
X189750Y104289D01*
X188969Y104134D01*
X188308Y103692D01*
X187866Y103030D01*
X187710Y102250D01*
X187866Y101470D01*
X188308Y100808D01*
X188969Y100366D01*
X189750Y100211D01*
X190530Y100366D01*
X191321Y99367D01*
X189328Y97374D01*
X186000D01*
X184852Y96898D01*
X183102Y95148D01*
X182626Y94000D01*
Y92750D01*
X183102Y91602D01*
X184852Y89852D01*
X185533Y89570D01*
X186119Y88838D01*
X186282Y88106D01*
X186211Y87750D01*
X186366Y86970D01*
X186808Y86308D01*
X187470Y85866D01*
X188250Y85711D01*
X189030Y85866D01*
X189692Y86308D01*
X190224Y86949D01*
X191356Y86686D01*
X191500Y86626D01*
X201000D01*
X202007Y87043D01*
X202438Y87011D01*
X203142Y86790D01*
X203444Y86602D01*
X203808Y86058D01*
X204470Y85616D01*
X205250Y85461D01*
X206030Y85616D01*
X206692Y86058D01*
X207134Y86720D01*
X207289Y87500D01*
X207134Y88280D01*
X206692Y88942D01*
X206030Y89384D01*
X205669Y89456D01*
X205038Y89935D01*
X204624Y90709D01*
Y97446D01*
X205250Y97961D01*
X206030Y98116D01*
X206692Y98558D01*
X207134Y99219D01*
X207289Y100000D01*
X207134Y100780D01*
X206692Y101442D01*
X206030Y101884D01*
X205250Y102039D01*
X204470Y101884D01*
X204237Y101958D01*
X203233Y102585D01*
X203144Y103035D01*
X202702Y103697D01*
X202040Y104139D01*
X201260Y104294D01*
X200480Y104139D01*
X199818Y103697D01*
X199376Y103035D01*
X199221Y102255D01*
X199376Y101475D01*
X199578Y100511D01*
X199052Y99848D01*
X198852Y99648D01*
X198376Y98500D01*
Y92920D01*
X198116Y92530D01*
X197961Y91750D01*
X198081Y91144D01*
X197913Y90689D01*
X197321Y89874D01*
X194679D01*
X194087Y90689D01*
X193919Y91144D01*
X194039Y91750D01*
X193884Y92530D01*
X193442Y93191D01*
X192780Y93633D01*
X192109Y93767D01*
X191851Y94177D01*
X191538Y94992D01*
X194898Y98352D01*
X195374Y99500D01*
Y102676D01*
X196259Y103794D01*
X197040Y103949D01*
X197701Y104391D01*
X198143Y105053D01*
X198299Y105833D01*
X198143Y106614D01*
X197701Y107275D01*
X197040Y107717D01*
X196259Y107872D01*
X196244Y107870D01*
X195171Y108923D01*
X195201Y109064D01*
X195643Y109725D01*
X195799Y110505D01*
X196827Y111626D01*
X198942D01*
X199971Y110505D01*
X200126Y109725D01*
X200568Y109064D01*
X201229Y108621D01*
X202010Y108466D01*
X202790Y108621D01*
X203452Y109064D01*
X203894Y109725D01*
X204049Y110505D01*
X205078Y111626D01*
X230078D01*
X231060Y110644D01*
X230534Y109374D01*
X228500D01*
X227352Y108898D01*
X226352Y107898D01*
X225876Y106750D01*
Y87250D01*
X226352Y86102D01*
X227352Y85102D01*
X228500Y84626D01*
X228840D01*
X229961Y83750D01*
X230116Y82969D01*
X230558Y82308D01*
X231220Y81866D01*
X232000Y81710D01*
X232780Y81866D01*
X233442Y82308D01*
X233884Y82969D01*
X234039Y83750D01*
X233884Y84530D01*
X233937Y84704D01*
X234898Y85102D01*
X235898Y86102D01*
X236306Y86226D01*
X236470Y86116D01*
X237250Y85961D01*
X238030Y86116D01*
X238692Y86558D01*
X239134Y87220D01*
X239201Y87555D01*
X240000Y88691D01*
X240335Y88757D01*
X241171Y88924D01*
X242163Y89587D01*
X242826Y90579D01*
X243059Y91750D01*
X242826Y92920D01*
X242163Y93912D01*
X241171Y94576D01*
X240000Y94808D01*
X239846Y94778D01*
X238961Y95662D01*
X238874Y95879D01*
Y102750D01*
X238398Y103898D01*
X239220Y104866D01*
X240000Y104710D01*
X240780Y104866D01*
X241442Y105308D01*
X241884Y105969D01*
X242039Y106749D01*
X241884Y107530D01*
X241442Y108191D01*
X240780Y108633D01*
X240000Y108789D01*
X239220Y108633D01*
X238558Y108191D01*
X238116Y107530D01*
X237961Y106749D01*
X238116Y105969D01*
X237347Y104996D01*
X237268Y104952D01*
X236250Y105374D01*
X233251D01*
X232950Y106421D01*
X232940Y106644D01*
X234321Y108025D01*
X234780Y108116D01*
X235442Y108558D01*
X235884Y109220D01*
X236039Y110000D01*
X235884Y110780D01*
X235442Y111442D01*
X234780Y111884D01*
X234321Y111975D01*
X233486Y112810D01*
X233445Y114207D01*
X234017Y114650D01*
X235475Y114432D01*
X235558Y114308D01*
X236220Y113866D01*
X237000Y113711D01*
X237780Y113866D01*
X238442Y114308D01*
X238884Y114970D01*
X239039Y115750D01*
X238884Y116530D01*
X238442Y117192D01*
X238942Y117808D01*
X239384Y118470D01*
X239539Y119250D01*
X239384Y120030D01*
X238993Y120616D01*
X239079Y120929D01*
X239578Y121794D01*
X239658Y121778D01*
X240000Y121710D01*
X240780Y121866D01*
X241442Y122308D01*
X241884Y122969D01*
X242039Y123750D01*
X241884Y124530D01*
X241442Y125191D01*
X240780Y125634D01*
X240000Y125789D01*
X239220Y125634D01*
X238558Y125191D01*
X238116Y124530D01*
X237961Y123750D01*
X238116Y122969D01*
X238507Y122384D01*
X238421Y122070D01*
X237922Y121205D01*
X237842Y121221D01*
X237500Y121289D01*
X236720Y121134D01*
X236058Y120692D01*
X235616Y120030D01*
X235461Y119250D01*
X235616Y118470D01*
X236058Y117808D01*
X235558Y117192D01*
X235164Y116603D01*
X234601Y116530D01*
X234398Y116530D01*
X233835Y116602D01*
X233442Y117191D01*
X232780Y117633D01*
X232000Y117789D01*
X231220Y117633D01*
X230558Y117191D01*
X230116Y116530D01*
X229961Y115750D01*
X228840Y114873D01*
X203160D01*
X202039Y115750D01*
X201884Y116530D01*
X201442Y117191D01*
X200780Y117633D01*
X200000Y117789D01*
X199220Y117633D01*
X198558Y117191D01*
X198116Y116530D01*
X197961Y115750D01*
X196840Y114873D01*
X194819D01*
X193799Y116006D01*
X193643Y116786D01*
X193201Y117448D01*
X192540Y117890D01*
X191759Y118045D01*
X190979Y117890D01*
X190317Y117448D01*
X190068Y117075D01*
X188798Y117386D01*
Y120333D01*
X190068Y120967D01*
X190220Y120866D01*
X191000Y120710D01*
X191780Y120866D01*
X192442Y121308D01*
X192884Y121969D01*
X193039Y122750D01*
X192884Y123530D01*
X192442Y124192D01*
X191780Y124634D01*
X191000Y124789D01*
X190220Y124634D01*
X190068Y124532D01*
X188798Y125167D01*
Y128990D01*
X188643Y129771D01*
X188201Y130432D01*
X187405Y131228D01*
X187497Y132030D01*
X188500Y132961D01*
X189026Y133066D01*
X189146Y133006D01*
X189721Y132511D01*
X190028Y132088D01*
X189961Y131750D01*
X190116Y130969D01*
X190558Y130308D01*
X191220Y129866D01*
X192000Y129710D01*
X192780Y129866D01*
X193442Y130308D01*
X193884Y130969D01*
X194039Y131750D01*
X193884Y132530D01*
X193442Y133191D01*
X192780Y133634D01*
X192000Y133789D01*
X191474Y133684D01*
X191353Y133743D01*
X190779Y134239D01*
X190472Y134661D01*
X190539Y135000D01*
X190384Y135780D01*
X189942Y136442D01*
X189280Y136884D01*
X188500Y137039D01*
X187720Y136884D01*
X187058Y136442D01*
X186616Y135780D01*
X186503Y135213D01*
X185809Y134736D01*
X185263Y134514D01*
X185170Y134576D01*
X184000Y134808D01*
X182829Y134576D01*
X181837Y133912D01*
X181174Y132920D01*
X180941Y131750D01*
X181174Y130579D01*
X181837Y129587D01*
X182829Y128924D01*
X184000Y128691D01*
X184720Y127692D01*
Y115756D01*
X183601Y114874D01*
X172922D01*
X171040Y116756D01*
X171245Y117949D01*
X172441Y118219D01*
X172970Y117866D01*
X173750Y117711D01*
X174530Y117866D01*
X175192Y118308D01*
X175817Y117814D01*
X176478Y117372D01*
X177259Y117217D01*
X178039Y117372D01*
X178701Y117814D01*
X179143Y118476D01*
X179298Y119256D01*
X179143Y120036D01*
X178701Y120698D01*
X178039Y121140D01*
X177259Y121295D01*
X176478Y121140D01*
X175817Y120698D01*
X175192Y121192D01*
X174530Y121634D01*
X173750Y121789D01*
X172970Y121634D01*
X172308Y121192D01*
X171192D01*
X170530Y121634D01*
X169750Y121789D01*
X168970Y121634D01*
X168308Y121192D01*
X166769Y121027D01*
X163027Y124769D01*
X163192Y126308D01*
X163634Y126970D01*
X163789Y127750D01*
X163634Y128530D01*
X163192Y129192D01*
X162530Y129634D01*
X161750Y129789D01*
X160970Y129634D01*
X160308Y129192D01*
X158769Y129028D01*
X151946Y135850D01*
X151958Y136267D01*
X152257Y137335D01*
X152810Y137704D01*
X152955Y137922D01*
X153810Y138415D01*
X154565Y138219D01*
X154720Y138116D01*
X155500Y137961D01*
X156280Y138116D01*
X156942Y138558D01*
X157384Y139220D01*
X157539Y140000D01*
X157384Y140780D01*
X156942Y141442D01*
X156280Y141884D01*
X155500Y142039D01*
X154720Y141884D01*
X154190Y141530D01*
X154058Y141442D01*
X154058Y141442D01*
X153720Y141406D01*
X152558Y141477D01*
X151983Y141862D01*
X151007Y142056D01*
X150032Y141862D01*
X149205Y141309D01*
X148652Y140482D01*
X148458Y139507D01*
X148601Y138788D01*
X147872Y137667D01*
X146729Y137501D01*
X146530Y137634D01*
X145750Y137789D01*
X144970Y137634D01*
X143884Y138030D01*
X143442Y138692D01*
X143692Y139558D01*
X144134Y140220D01*
X144289Y141000D01*
X144134Y141780D01*
X143766Y142330D01*
X143692Y142442D01*
Y143808D01*
X143766Y143919D01*
X144134Y144470D01*
X144209Y144847D01*
X144615Y145390D01*
X145482Y145764D01*
X145750Y145711D01*
X146530Y145866D01*
X147192Y146308D01*
X147634Y146970D01*
X147789Y147750D01*
X147634Y148530D01*
X147192Y149192D01*
X147192Y150308D01*
X147634Y150970D01*
X147789Y151750D01*
X147634Y152530D01*
X147192Y153192D01*
X146530Y153634D01*
X145750Y153789D01*
D02*
G37*
G36*
X270750Y148289D02*
X269970Y148134D01*
X269308Y147692D01*
X268866Y147030D01*
X268711Y146250D01*
X268866Y145470D01*
X269308Y144808D01*
X269970Y144366D01*
X270750Y144211D01*
X271530Y144366D01*
X272192Y144808D01*
X272634Y145470D01*
X272789Y146250D01*
X272634Y147030D01*
X272192Y147692D01*
X271530Y148134D01*
X270750Y148289D01*
D02*
G37*
G36*
X169750Y146539D02*
X168970Y146384D01*
X168308Y145942D01*
X167866Y145280D01*
X167711Y144500D01*
X167866Y143720D01*
X168308Y143058D01*
X168970Y142616D01*
X169750Y142461D01*
X170530Y142616D01*
X171192Y143058D01*
X171634Y143720D01*
X171789Y144500D01*
X171634Y145280D01*
X171192Y145942D01*
X170530Y146384D01*
X169750Y146539D01*
D02*
G37*
G36*
X185750Y145789D02*
X184970Y145634D01*
X184308Y145192D01*
X183866Y144530D01*
X183711Y143750D01*
X183866Y142970D01*
X184308Y142308D01*
X184970Y141866D01*
X185750Y141711D01*
X186530Y141866D01*
X187192Y142308D01*
X187634Y142970D01*
X187789Y143750D01*
X187634Y144530D01*
X187192Y145192D01*
X186530Y145634D01*
X185750Y145789D01*
D02*
G37*
G36*
X177750D02*
X176970Y145634D01*
X176308Y145192D01*
X175866Y144530D01*
X175711Y143750D01*
X175866Y142970D01*
X176308Y142308D01*
X176970Y141866D01*
X177750Y141711D01*
X178530Y141866D01*
X179192Y142308D01*
X179634Y142970D01*
X179789Y143750D01*
X179634Y144530D01*
X179192Y145192D01*
X178530Y145634D01*
X177750Y145789D01*
D02*
G37*
G36*
X129750D02*
X128970Y145634D01*
X128308Y145192D01*
X127866Y144530D01*
X127711Y143750D01*
X127866Y142970D01*
X128308Y142308D01*
X128970Y141866D01*
X129750Y141711D01*
X130530Y141866D01*
X131192Y142308D01*
X131634Y142970D01*
X131789Y143750D01*
X131634Y144530D01*
X131192Y145192D01*
X130530Y145634D01*
X129750Y145789D01*
D02*
G37*
G36*
X121750D02*
X120970Y145634D01*
X120308Y145192D01*
X119866Y144530D01*
X119711Y143750D01*
X119866Y142970D01*
X120308Y142308D01*
X120970Y141866D01*
X121750Y141711D01*
X122530Y141866D01*
X123192Y142308D01*
X123634Y142970D01*
X123789Y143750D01*
X123634Y144530D01*
X123192Y145192D01*
X122530Y145634D01*
X121750Y145789D01*
D02*
G37*
G36*
X89250Y153289D02*
X88470Y153134D01*
X87808Y152692D01*
X87366Y152031D01*
X87211Y151250D01*
X87366Y150470D01*
X87808Y149808D01*
Y148692D01*
X87366Y148031D01*
X87211Y147250D01*
X87366Y146470D01*
X87808Y145808D01*
X87812Y144688D01*
X87370Y144027D01*
X87215Y143246D01*
X87370Y142466D01*
X87812Y141804D01*
X88474Y141362D01*
X89254Y141207D01*
X90035Y141362D01*
X90696Y141804D01*
X91138Y142466D01*
X91293Y143246D01*
X91138Y144027D01*
X90696Y144688D01*
X90692Y145808D01*
X91134Y146470D01*
X91289Y147250D01*
X91134Y148031D01*
X90692Y148692D01*
Y149808D01*
X91134Y150470D01*
X91289Y151250D01*
X91134Y152031D01*
X90692Y152692D01*
X90031Y153134D01*
X89250Y153289D01*
D02*
G37*
G36*
X271500Y141789D02*
X270720Y141634D01*
X270058Y141192D01*
X269664Y140603D01*
X269101Y140530D01*
X268899D01*
X268336Y140603D01*
X267942Y141192D01*
X267280Y141634D01*
X266500Y141789D01*
X265720Y141634D01*
X265058Y141192D01*
X264616Y140530D01*
X264461Y139750D01*
X264616Y138970D01*
X265058Y138308D01*
X265720Y137866D01*
X266500Y137711D01*
X267280Y137866D01*
X267942Y138308D01*
X268336Y138897D01*
X268899Y138970D01*
X269101D01*
X269664Y138897D01*
X270058Y138308D01*
X270720Y137866D01*
X271500Y137711D01*
X272280Y137866D01*
X272942Y138308D01*
X273384Y138970D01*
X273539Y139750D01*
X273384Y140530D01*
X272942Y141192D01*
X272280Y141634D01*
X271500Y141789D01*
D02*
G37*
G36*
X107500Y142289D02*
X106720Y142134D01*
X106058Y141692D01*
X105616Y141030D01*
X105461Y140250D01*
X105616Y139469D01*
X106058Y138808D01*
X106720Y138366D01*
X107500Y138210D01*
X108280Y138366D01*
X108942Y138808D01*
X109384Y139469D01*
X109539Y140250D01*
X109384Y141030D01*
X108942Y141692D01*
X108280Y142134D01*
X107500Y142289D01*
D02*
G37*
G36*
X240000Y141789D02*
X239220Y141634D01*
X238558Y141192D01*
X238116Y140530D01*
X237961Y139750D01*
X238116Y138969D01*
X238558Y138308D01*
X239220Y137866D01*
X240000Y137710D01*
X240780Y137866D01*
X241442Y138308D01*
X241884Y138969D01*
X242039Y139750D01*
X241884Y140530D01*
X241442Y141192D01*
X240780Y141634D01*
X240000Y141789D01*
D02*
G37*
G36*
X232000D02*
X231220Y141634D01*
X230558Y141192D01*
X230116Y140530D01*
X229961Y139750D01*
X230116Y138969D01*
X230558Y138308D01*
X231220Y137866D01*
X232000Y137710D01*
X232780Y137866D01*
X233442Y138308D01*
X233884Y138969D01*
X234039Y139750D01*
X233884Y140530D01*
X233442Y141192D01*
X232780Y141634D01*
X232000Y141789D01*
D02*
G37*
G36*
X201000D02*
X200220Y141634D01*
X199558Y141192D01*
X199116Y140530D01*
X198961Y139750D01*
X199116Y138969D01*
X199558Y138308D01*
X200220Y137866D01*
X201000Y137710D01*
X201780Y137866D01*
X202442Y138308D01*
X202884Y138969D01*
X203039Y139750D01*
X202884Y140530D01*
X202442Y141192D01*
X201780Y141634D01*
X201000Y141789D01*
D02*
G37*
G36*
X129750Y137789D02*
X128970Y137634D01*
X128308Y137192D01*
X127866Y136530D01*
X127711Y135750D01*
X127866Y134970D01*
X128308Y134308D01*
X128970Y133866D01*
X129750Y133711D01*
X130530Y133866D01*
X131192Y134308D01*
X131634Y134970D01*
X131789Y135750D01*
X131634Y136530D01*
X131192Y137192D01*
X130530Y137634D01*
X129750Y137789D01*
D02*
G37*
G36*
X121750D02*
X120970Y137634D01*
X120308Y137192D01*
X119866Y136530D01*
X119711Y135750D01*
X119866Y134970D01*
X120308Y134308D01*
X120970Y133866D01*
X121750Y133711D01*
X122530Y133866D01*
X123192Y134308D01*
X123634Y134970D01*
X123789Y135750D01*
X123634Y136530D01*
X123192Y137192D01*
X122530Y137634D01*
X121750Y137789D01*
D02*
G37*
G36*
X158750D02*
X157970Y137634D01*
X157308Y137192D01*
X156866Y136530D01*
X156711Y135750D01*
X156866Y134970D01*
X157308Y134308D01*
X157970Y133866D01*
X158750Y133711D01*
X158758Y133712D01*
X159796Y133313D01*
X160055Y132774D01*
X160116Y132470D01*
X160558Y131808D01*
X161220Y131366D01*
X162000Y131211D01*
X162780Y131366D01*
X163442Y131808D01*
X163884Y132470D01*
X163988Y132994D01*
X164553Y133496D01*
X165222Y133816D01*
X165750Y133711D01*
X166530Y133866D01*
X167192Y134308D01*
X167634Y134970D01*
X167789Y135750D01*
X167634Y136530D01*
X167192Y137192D01*
X166530Y137634D01*
X165750Y137789D01*
X164970Y137634D01*
X164308Y137192D01*
X163866Y136530D01*
X163762Y136006D01*
X163197Y135504D01*
X162528Y135184D01*
X162000Y135289D01*
X161992Y135288D01*
X160954Y135687D01*
X160695Y136226D01*
X160634Y136530D01*
X160192Y137192D01*
X159530Y137634D01*
X158750Y137789D01*
D02*
G37*
G36*
X26900Y137289D02*
X26120Y137134D01*
X25458Y136692D01*
X25016Y136030D01*
X24861Y135250D01*
X25016Y134470D01*
X25458Y133808D01*
X26120Y133366D01*
X26900Y133211D01*
X27680Y133366D01*
X28342Y133808D01*
X28784Y134470D01*
X28939Y135250D01*
X28784Y136030D01*
X28342Y136692D01*
X27680Y137134D01*
X26900Y137289D01*
D02*
G37*
G36*
X89250Y137039D02*
X88470Y136884D01*
X87808Y136442D01*
X87366Y135780D01*
X87211Y135000D01*
X87366Y134220D01*
X87808Y133558D01*
X88470Y133116D01*
X89250Y132961D01*
X90031Y133116D01*
X90692Y133558D01*
X91134Y134220D01*
X91289Y135000D01*
X91134Y135780D01*
X90692Y136442D01*
X90031Y136884D01*
X89250Y137039D01*
D02*
G37*
G36*
X78250Y133289D02*
X77470Y133134D01*
X76808Y132692D01*
X75692D01*
X75030Y133134D01*
X74250Y133289D01*
X73470Y133134D01*
X72808Y132692D01*
X72366Y132031D01*
X72211Y131250D01*
X72355Y130526D01*
X72226Y130351D01*
X71392Y129643D01*
X71318Y129692D01*
X71030Y129884D01*
X70250Y130039D01*
X69470Y129884D01*
X68808Y129442D01*
X68366Y128780D01*
X68211Y128000D01*
X68274Y127680D01*
X67612Y126704D01*
X67318Y126503D01*
X66720Y126384D01*
X66226Y126054D01*
X66010Y125951D01*
X64695Y126188D01*
X64692Y126192D01*
X64030Y126634D01*
X63250Y126789D01*
X62470Y126634D01*
X61808Y126192D01*
X60651Y126387D01*
X60280Y126634D01*
X59500Y126789D01*
X58720Y126634D01*
X58058Y126192D01*
X57616Y125530D01*
X57461Y124750D01*
X57616Y123970D01*
X58058Y123308D01*
X58720Y122866D01*
X59500Y122711D01*
X60280Y122866D01*
X60942Y123308D01*
X62099Y123113D01*
X62470Y122866D01*
X63250Y122711D01*
X64030Y122866D01*
X64524Y123196D01*
X64740Y123299D01*
X66055Y123062D01*
X66058Y123058D01*
X66720Y122616D01*
X67500Y122461D01*
X68280Y122616D01*
X68942Y123058D01*
X69384Y123720D01*
X69539Y124500D01*
X69475Y124820D01*
X70138Y125796D01*
X70433Y125997D01*
X71030Y126116D01*
X71692Y126558D01*
X72134Y127220D01*
X72289Y128000D01*
X72145Y128724D01*
X72274Y128899D01*
X73109Y129608D01*
X73183Y129558D01*
X73470Y129366D01*
X74250Y129211D01*
X75030Y129366D01*
X75692Y129808D01*
X76808D01*
X77470Y129366D01*
X78250Y129211D01*
X79030Y129366D01*
X79692Y129808D01*
X80134Y130470D01*
X80289Y131250D01*
X80134Y132031D01*
X79692Y132692D01*
X79030Y133134D01*
X78250Y133289D01*
D02*
G37*
G36*
X271500Y135289D02*
X270720Y135134D01*
X270058Y134692D01*
X269616Y134030D01*
X269461Y133250D01*
X269616Y132470D01*
X270058Y131808D01*
X270720Y131366D01*
X271500Y131211D01*
X272280Y131366D01*
X272942Y131808D01*
X273384Y132470D01*
X273539Y133250D01*
X273384Y134030D01*
X272942Y134692D01*
X272280Y135134D01*
X271500Y135289D01*
D02*
G37*
G36*
X240000Y133789D02*
X239220Y133634D01*
X238558Y133191D01*
X238116Y132530D01*
X237961Y131750D01*
X238116Y130969D01*
X238558Y130308D01*
X239220Y129866D01*
X240000Y129710D01*
X240780Y129866D01*
X241442Y130308D01*
X241884Y130969D01*
X242039Y131750D01*
X241884Y132530D01*
X241442Y133191D01*
X240780Y133634D01*
X240000Y133789D01*
D02*
G37*
G36*
X232000D02*
X231220Y133634D01*
X230558Y133191D01*
X230116Y132530D01*
X229961Y131750D01*
X230116Y130969D01*
X230558Y130308D01*
X231220Y129866D01*
X232000Y129710D01*
X232780Y129866D01*
X233442Y130308D01*
X233884Y130969D01*
X234039Y131750D01*
X233884Y132530D01*
X233442Y133191D01*
X232780Y133634D01*
X232000Y133789D01*
D02*
G37*
G36*
X201000D02*
X200220Y133634D01*
X199558Y133191D01*
X199116Y132530D01*
X198961Y131750D01*
X199116Y130969D01*
X199558Y130308D01*
X200220Y129866D01*
X201000Y129710D01*
X201780Y129866D01*
X202442Y130308D01*
X202884Y130969D01*
X203039Y131750D01*
X202884Y132530D01*
X202442Y133191D01*
X201780Y133634D01*
X201000Y133789D01*
D02*
G37*
G36*
X44750Y160039D02*
X43970Y159884D01*
X43308Y159442D01*
X42866Y158780D01*
X42711Y158000D01*
X42866Y157220D01*
X43308Y156558D01*
X44211Y155655D01*
Y131250D01*
X44366Y130470D01*
X44808Y129808D01*
X45470Y129366D01*
X46250Y129211D01*
X47031Y129366D01*
X47692Y129808D01*
X48808D01*
X49470Y129366D01*
X50250Y129211D01*
X51031Y129366D01*
X51692Y129808D01*
X52808D01*
X53470Y129366D01*
X54250Y129211D01*
X55030Y129366D01*
X55692Y129808D01*
X56808D01*
X57470Y129366D01*
X58250Y129211D01*
X59030Y129366D01*
X59692Y129808D01*
X60808D01*
X61470Y129366D01*
X62250Y129211D01*
X63031Y129366D01*
X63692Y129808D01*
X64134Y130470D01*
X64289Y131250D01*
X64134Y132031D01*
X63692Y132692D01*
X63031Y133134D01*
X62250Y133289D01*
X61470Y133134D01*
X60808Y132692D01*
X59692D01*
X59030Y133134D01*
X58250Y133289D01*
X57470Y133134D01*
X56808Y132692D01*
X55692D01*
X55030Y133134D01*
X54250Y133289D01*
X53470Y133134D01*
X52808Y132692D01*
X51692D01*
X51031Y133134D01*
X50250Y133289D01*
X49559Y133152D01*
X49431Y133158D01*
X48289Y133873D01*
Y156500D01*
X48134Y157280D01*
X47692Y157942D01*
X46192Y159442D01*
X45530Y159884D01*
X44750Y160039D01*
D02*
G37*
G36*
X248000Y134808D02*
X246829Y134576D01*
X245837Y133912D01*
X245174Y132920D01*
X244941Y131750D01*
X245174Y130579D01*
X245837Y129587D01*
X246829Y128924D01*
X248000Y128691D01*
X249170Y128924D01*
X250163Y129587D01*
X250826Y130579D01*
X251059Y131750D01*
X250826Y132920D01*
X250163Y133912D01*
X249170Y134576D01*
X248000Y134808D01*
D02*
G37*
G36*
X177750Y129789D02*
X176970Y129634D01*
X176308Y129192D01*
X175866Y128530D01*
X175711Y127750D01*
X175866Y126970D01*
X176308Y126308D01*
X176970Y125866D01*
X177750Y125711D01*
X178530Y125866D01*
X179192Y126308D01*
X179634Y126970D01*
X179789Y127750D01*
X179634Y128530D01*
X179192Y129192D01*
X178530Y129634D01*
X177750Y129789D01*
D02*
G37*
G36*
X170250Y134789D02*
X169470Y134634D01*
X168808Y134192D01*
X168366Y133530D01*
X168211Y132750D01*
X168366Y131970D01*
X168808Y131308D01*
X169282Y130991D01*
X169298Y130228D01*
X169148Y129670D01*
X168970Y129634D01*
X168308Y129192D01*
X167866Y128530D01*
X167711Y127750D01*
X167866Y126970D01*
X168308Y126308D01*
X168970Y125866D01*
X169750Y125711D01*
X170530Y125866D01*
X171192Y126308D01*
X171634Y126970D01*
X171789Y127750D01*
X171634Y128530D01*
X171192Y129192D01*
X170718Y129509D01*
X170702Y130272D01*
X170852Y130830D01*
X171030Y130866D01*
X171692Y131308D01*
X172134Y131970D01*
X172289Y132750D01*
X172134Y133530D01*
X171692Y134192D01*
X171030Y134634D01*
X170250Y134789D01*
D02*
G37*
G36*
X137750Y129789D02*
X136970Y129634D01*
X136308Y129192D01*
X135866Y128530D01*
X135711Y127750D01*
X135866Y126970D01*
X136308Y126308D01*
X136970Y125866D01*
X137750Y125711D01*
X138530Y125866D01*
X139192Y126308D01*
X139634Y126970D01*
X139789Y127750D01*
X139634Y128530D01*
X139192Y129192D01*
X138530Y129634D01*
X137750Y129789D01*
D02*
G37*
G36*
X129750D02*
X128970Y129634D01*
X128308Y129192D01*
X127866Y128530D01*
X127711Y127750D01*
X127866Y126970D01*
X128308Y126308D01*
X128970Y125866D01*
X129750Y125711D01*
X130530Y125866D01*
X131192Y126308D01*
X131634Y126970D01*
X131789Y127750D01*
X131634Y128530D01*
X131192Y129192D01*
X130530Y129634D01*
X129750Y129789D01*
D02*
G37*
G36*
X26900Y129289D02*
X26120Y129134D01*
X25458Y128692D01*
X25016Y128030D01*
X24861Y127250D01*
X25016Y126470D01*
X25458Y125808D01*
X26120Y125366D01*
X26900Y125211D01*
X27680Y125366D01*
X28342Y125808D01*
X28784Y126470D01*
X28939Y127250D01*
X28784Y128030D01*
X28342Y128692D01*
X27680Y129134D01*
X26900Y129289D01*
D02*
G37*
G36*
X266500Y128789D02*
X265720Y128634D01*
X265058Y128192D01*
X264616Y127530D01*
X264461Y126750D01*
X264616Y125970D01*
X265058Y125308D01*
X265720Y124866D01*
X266500Y124711D01*
X267280Y124866D01*
X267942Y125308D01*
X268384Y125970D01*
X268539Y126750D01*
X268384Y127530D01*
X267942Y128192D01*
X267280Y128634D01*
X266500Y128789D01*
D02*
G37*
G36*
X15500Y155790D02*
X14720Y155634D01*
X14058Y155192D01*
X13616Y154531D01*
X13461Y153750D01*
Y128000D01*
X13616Y127220D01*
X14058Y126558D01*
X14720Y126116D01*
X15500Y125961D01*
X16280Y126116D01*
X16567Y126308D01*
X16641Y126357D01*
X17475Y125650D01*
X17605Y125474D01*
X17461Y124750D01*
X17616Y123970D01*
X18058Y123308D01*
X18720Y122866D01*
X19500Y122711D01*
X20280Y122866D01*
X20942Y123308D01*
X21384Y123970D01*
X21539Y124750D01*
X21384Y125530D01*
X20942Y126192D01*
X20280Y126634D01*
X19500Y126789D01*
X18720Y126634D01*
X18433Y126442D01*
X18359Y126393D01*
X17525Y127101D01*
X17395Y127277D01*
X17539Y128000D01*
Y153750D01*
X17384Y154531D01*
X16942Y155192D01*
X16280Y155634D01*
X15500Y155790D01*
D02*
G37*
G36*
X232000Y125789D02*
X231220Y125633D01*
X230558Y125191D01*
X230116Y124530D01*
X229961Y123750D01*
X230116Y122969D01*
X230558Y122308D01*
X231220Y121866D01*
X232000Y121710D01*
X232780Y121866D01*
X233442Y122308D01*
X233884Y122969D01*
X234039Y123750D01*
X233884Y124530D01*
X233442Y125191D01*
X232780Y125633D01*
X232000Y125789D01*
D02*
G37*
G36*
X201000D02*
X200220Y125633D01*
X199558Y125191D01*
X199116Y124530D01*
X198961Y123750D01*
X199116Y122969D01*
X199558Y122308D01*
X200220Y121866D01*
X201000Y121710D01*
X201780Y121866D01*
X202442Y122308D01*
X202884Y122969D01*
X203039Y123750D01*
X202884Y124530D01*
X202442Y125191D01*
X201780Y125633D01*
X201000Y125789D01*
D02*
G37*
G36*
X266500Y122289D02*
X265720Y122134D01*
X265058Y121692D01*
X264616Y121031D01*
X264461Y120250D01*
X264616Y119470D01*
X265058Y118808D01*
X265720Y118366D01*
X266500Y118211D01*
X267280Y118366D01*
X267942Y118808D01*
X268384Y119470D01*
X268539Y120250D01*
X268384Y121031D01*
X267942Y121692D01*
X267280Y122134D01*
X266500Y122289D01*
D02*
G37*
G36*
X153750Y121789D02*
X152970Y121634D01*
X152308Y121192D01*
X151866Y120530D01*
X151711Y119750D01*
X151866Y118970D01*
X152308Y118308D01*
X152970Y117866D01*
X153750Y117711D01*
X154530Y117866D01*
X155192Y118308D01*
X155634Y118970D01*
X155789Y119750D01*
X155634Y120530D01*
X155192Y121192D01*
X154530Y121634D01*
X153750Y121789D01*
D02*
G37*
G36*
X137750D02*
X136970Y121634D01*
X136308Y121192D01*
X135866Y120530D01*
X135711Y119750D01*
X135866Y118970D01*
X136308Y118308D01*
X136970Y117866D01*
X137750Y117711D01*
X138530Y117866D01*
X139192Y118308D01*
X139634Y118970D01*
X139789Y119750D01*
X139634Y120530D01*
X139192Y121192D01*
X138530Y121634D01*
X137750Y121789D01*
D02*
G37*
G36*
X70500Y121829D02*
X68939Y121518D01*
X67616Y120634D01*
X66732Y119311D01*
X66422Y117750D01*
X66732Y116189D01*
X67616Y114866D01*
X68939Y113982D01*
X70500Y113672D01*
X72061Y113982D01*
X73384Y114866D01*
X74268Y116189D01*
X74578Y117750D01*
X74268Y119311D01*
X73384Y120634D01*
X72061Y121518D01*
X70500Y121829D01*
D02*
G37*
G36*
X248000Y118808D02*
X246829Y118575D01*
X245837Y117913D01*
X245174Y116920D01*
X244941Y115750D01*
X245174Y114579D01*
X245837Y113587D01*
X246829Y112924D01*
X248000Y112691D01*
X249170Y112924D01*
X250163Y113587D01*
X250826Y114579D01*
X251059Y115750D01*
X250826Y116920D01*
X250163Y117913D01*
X249170Y118575D01*
X248000Y118808D01*
D02*
G37*
G36*
X271500Y113789D02*
X270720Y113634D01*
X270058Y113192D01*
X269664Y112603D01*
X269101Y112530D01*
X268899D01*
X268336Y112603D01*
X267942Y113192D01*
X267280Y113634D01*
X266500Y113789D01*
X265720Y113634D01*
X265058Y113192D01*
X264616Y112530D01*
X264461Y111750D01*
X264616Y110969D01*
X265058Y110308D01*
X265720Y109866D01*
X266500Y109711D01*
X267280Y109866D01*
X267942Y110308D01*
X268336Y110897D01*
X268899Y110969D01*
X269101D01*
X269664Y110897D01*
X270058Y110308D01*
X270720Y109866D01*
X271500Y109711D01*
X272280Y109866D01*
X272942Y110308D01*
X273384Y110969D01*
X273539Y111750D01*
X273384Y112530D01*
X272942Y113192D01*
X272280Y113634D01*
X271500Y113789D01*
D02*
G37*
G36*
X54000Y110289D02*
X53220Y110134D01*
X52558Y109692D01*
X52165Y109103D01*
X51601Y109031D01*
X51399D01*
X50836Y109103D01*
X50442Y109692D01*
X49780Y110134D01*
X49000Y110289D01*
X48220Y110134D01*
X47558Y109692D01*
X47116Y109031D01*
X46961Y108250D01*
X47116Y107470D01*
X47558Y106808D01*
X48220Y106366D01*
X49000Y106211D01*
X49780Y106366D01*
X50442Y106808D01*
X50836Y107397D01*
X51399Y107470D01*
X51601D01*
X52165Y107397D01*
X52558Y106808D01*
X53220Y106366D01*
X54000Y106211D01*
X54780Y106366D01*
X55442Y106808D01*
X55884Y107470D01*
X56039Y108250D01*
X55884Y109031D01*
X55442Y109692D01*
X54780Y110134D01*
X54000Y110289D01*
D02*
G37*
G36*
X66000Y110289D02*
X65220Y110134D01*
X64558Y109692D01*
X64164Y109103D01*
X63601Y109030D01*
X63399D01*
X62836Y109103D01*
X62442Y109692D01*
X61780Y110134D01*
X61000Y110289D01*
X60220Y110134D01*
X59558Y109692D01*
X59116Y109030D01*
X58961Y108250D01*
X59116Y107470D01*
X59558Y106808D01*
X60220Y106366D01*
X61000Y106211D01*
X61780Y106366D01*
X62442Y106808D01*
X62836Y107397D01*
X63399Y107470D01*
X63601D01*
X64164Y107397D01*
X64558Y106808D01*
X65220Y106366D01*
X66000Y106211D01*
X66780Y106366D01*
X67442Y106808D01*
X67884Y107470D01*
X68039Y108250D01*
X67884Y109030D01*
X67442Y109692D01*
X66780Y110134D01*
X66000Y110289D01*
D02*
G37*
G36*
X73000D02*
X72220Y110134D01*
X71558Y109692D01*
X71116Y109030D01*
X70961Y108250D01*
X71116Y107470D01*
X71558Y106808D01*
X72220Y106366D01*
X73000Y106211D01*
X73780Y106366D01*
X74442Y106808D01*
X74884Y107470D01*
X75039Y108250D01*
X74884Y109030D01*
X74442Y109692D01*
X73780Y110134D01*
X73000Y110289D01*
D02*
G37*
G36*
X271500Y107289D02*
X270720Y107134D01*
X270058Y106692D01*
X269664Y106103D01*
X269101Y106030D01*
X268899D01*
X268336Y106103D01*
X267942Y106692D01*
X267280Y107134D01*
X266500Y107289D01*
X265720Y107134D01*
X265058Y106692D01*
X264616Y106030D01*
X264461Y105250D01*
X264616Y104470D01*
X265058Y103808D01*
X265720Y103366D01*
X266500Y103211D01*
X267280Y103366D01*
X267942Y103808D01*
X268336Y104397D01*
X268899Y104469D01*
X269101D01*
X269664Y104397D01*
X270058Y103808D01*
X270720Y103366D01*
X271500Y103211D01*
X272280Y103366D01*
X272942Y103808D01*
X273384Y104470D01*
X273539Y105250D01*
X273384Y106030D01*
X272942Y106692D01*
X272280Y107134D01*
X271500Y107289D01*
D02*
G37*
G36*
X130250Y108539D02*
X129470Y108384D01*
X128808Y107942D01*
X128366Y107280D01*
X128211Y106500D01*
X128366Y105720D01*
X128808Y105058D01*
X129470Y104616D01*
X130250Y104461D01*
X131030Y104616D01*
X131692Y105058D01*
X132134Y105720D01*
X132289Y106500D01*
X132134Y107280D01*
X131692Y107942D01*
X131030Y108384D01*
X130250Y108539D01*
D02*
G37*
G36*
X122250D02*
X121470Y108384D01*
X120808Y107942D01*
X120366Y107280D01*
X120211Y106500D01*
X120366Y105720D01*
X120808Y105058D01*
X121470Y104616D01*
X122250Y104461D01*
X123030Y104616D01*
X123692Y105058D01*
X124134Y105720D01*
X124289Y106500D01*
X124134Y107280D01*
X123692Y107942D01*
X123030Y108384D01*
X122250Y108539D01*
D02*
G37*
G36*
X257250Y108289D02*
X256470Y108134D01*
X255808Y107692D01*
X255366Y107030D01*
X255211Y106250D01*
X255366Y105470D01*
X255808Y104808D01*
X256470Y104366D01*
X257250Y104211D01*
X258030Y104366D01*
X258692Y104808D01*
X259134Y105470D01*
X259289Y106250D01*
X259134Y107030D01*
X258692Y107692D01*
X258030Y108134D01*
X257250Y108289D01*
D02*
G37*
G36*
X257250Y101789D02*
X256470Y101634D01*
X255808Y101192D01*
X255366Y100530D01*
X255211Y99750D01*
X255366Y98970D01*
X255808Y98308D01*
X256470Y97866D01*
X257250Y97711D01*
X258030Y97866D01*
X258692Y98308D01*
X259134Y98970D01*
X259289Y99750D01*
X259134Y100530D01*
X258692Y101192D01*
X258030Y101634D01*
X257250Y101789D01*
D02*
G37*
G36*
X266500Y100789D02*
X265720Y100634D01*
X265058Y100192D01*
X264616Y99530D01*
X264461Y98750D01*
X264616Y97970D01*
X265058Y97308D01*
X265720Y96866D01*
X266500Y96711D01*
X267280Y96866D01*
X267942Y97308D01*
X268384Y97970D01*
X268539Y98750D01*
X268384Y99530D01*
X267942Y100192D01*
X267280Y100634D01*
X266500Y100789D01*
D02*
G37*
G36*
X245012Y97794D02*
X244232Y97639D01*
X243570Y97197D01*
X243128Y96535D01*
X242973Y95755D01*
X243128Y94974D01*
X243570Y94313D01*
X244232Y93871D01*
X245012Y93715D01*
X245792Y93871D01*
X246454Y94313D01*
X246896Y94974D01*
X247051Y95755D01*
X246896Y96535D01*
X246454Y97197D01*
X245792Y97639D01*
X245012Y97794D01*
D02*
G37*
G36*
X257250Y95289D02*
X256470Y95134D01*
X255808Y94692D01*
X255366Y94030D01*
X255211Y93250D01*
X255366Y92470D01*
X255808Y91808D01*
X256470Y91366D01*
X257250Y91211D01*
X258030Y91366D01*
X258692Y91808D01*
X259134Y92470D01*
X259289Y93250D01*
X259134Y94030D01*
X258692Y94692D01*
X258030Y95134D01*
X257250Y95289D01*
D02*
G37*
G36*
X266500Y94289D02*
X265720Y94134D01*
X265058Y93692D01*
X264616Y93030D01*
X264461Y92250D01*
X264616Y91469D01*
X265058Y90808D01*
X265720Y90366D01*
X266500Y90211D01*
X267280Y90366D01*
X267942Y90808D01*
X268384Y91469D01*
X268539Y92250D01*
X268384Y93030D01*
X267942Y93692D01*
X267280Y94134D01*
X266500Y94289D01*
D02*
G37*
G36*
X250250Y89195D02*
X249470Y89040D01*
X248808Y88598D01*
X248366Y87937D01*
X248211Y87156D01*
X248366Y86376D01*
X248808Y85714D01*
X249470Y85272D01*
X250250Y85117D01*
X251030Y85272D01*
X251692Y85714D01*
X252134Y86376D01*
X252289Y87156D01*
X252134Y87937D01*
X251692Y88598D01*
X251030Y89040D01*
X250250Y89195D01*
D02*
G37*
G36*
X266500Y87789D02*
X265720Y87634D01*
X265058Y87192D01*
X264616Y86530D01*
X264461Y85750D01*
X264616Y84970D01*
X265058Y84308D01*
X265720Y83866D01*
X266500Y83711D01*
X267280Y83866D01*
X267942Y84308D01*
X268384Y84970D01*
X268539Y85750D01*
X268384Y86530D01*
X267942Y87192D01*
X267280Y87634D01*
X266500Y87789D01*
D02*
G37*
G36*
X210250Y83799D02*
X209275Y83605D01*
X208448Y83052D01*
X208166Y82771D01*
X206692Y82692D01*
X206030Y83134D01*
X205250Y83289D01*
X204470Y83134D01*
X203808Y82692D01*
X203716Y82554D01*
X202705Y81984D01*
X202053Y81939D01*
X201500Y82049D01*
X187750D01*
X186775Y81855D01*
X185948Y81302D01*
X182198Y77552D01*
X182198Y77552D01*
X181122Y76477D01*
X181084Y76493D01*
X180075Y77225D01*
X180328Y78500D01*
X180018Y80061D01*
X179134Y81384D01*
X177811Y82268D01*
X176250Y82578D01*
X174689Y82268D01*
X173366Y81384D01*
X172482Y80061D01*
X172172Y78500D01*
X172482Y76939D01*
X173366Y75616D01*
X174689Y74732D01*
X175509Y74569D01*
X175384Y73299D01*
X164000D01*
X163024Y73105D01*
X162197Y72552D01*
X151447Y61802D01*
X150895Y60975D01*
X150701Y60000D01*
X150895Y59025D01*
X151447Y58198D01*
X152274Y57645D01*
X153250Y57451D01*
X154225Y57645D01*
X155052Y58198D01*
X155333Y58479D01*
X156808Y58558D01*
X157470Y58116D01*
X158250Y57961D01*
X159030Y58116D01*
X159692Y58558D01*
X160134Y59220D01*
X160289Y60000D01*
X160134Y60780D01*
X159692Y61442D01*
X159771Y62916D01*
X165056Y68201D01*
X175384D01*
X175509Y66931D01*
X174689Y66768D01*
X173366Y65884D01*
X172482Y64561D01*
X172172Y63000D01*
X172482Y61439D01*
X173366Y60116D01*
X174689Y59232D01*
X176250Y58922D01*
X177811Y59232D01*
X179134Y60116D01*
X180018Y61439D01*
X180328Y63000D01*
X180018Y64561D01*
X179134Y65884D01*
X177811Y66768D01*
X176991Y66931D01*
X177116Y68201D01*
X179000D01*
X179976Y68395D01*
X180803Y68948D01*
X185802Y73947D01*
X185802Y73947D01*
X188003Y76147D01*
X189708Y76062D01*
X189961Y75750D01*
X190116Y74969D01*
X190558Y74308D01*
X191220Y73866D01*
X192000Y73710D01*
X192780Y73866D01*
X193442Y74308D01*
X193884Y74969D01*
X194039Y75750D01*
X195014Y76951D01*
X196586D01*
X197224Y75681D01*
X197126Y75534D01*
X196971Y74754D01*
X197126Y73973D01*
X197568Y73312D01*
X198229Y72870D01*
X199010Y72715D01*
X199790Y72870D01*
X200452Y73312D01*
X200894Y73973D01*
X201015Y74584D01*
X201300Y74848D01*
X201361Y74883D01*
X202245Y75249D01*
X202775Y74895D01*
X203750Y74701D01*
X206250D01*
X207226Y74895D01*
X208053Y75448D01*
X212052Y79447D01*
X212605Y80274D01*
X212799Y81250D01*
X212605Y82225D01*
X212052Y83052D01*
X211225Y83605D01*
X210250Y83799D01*
D02*
G37*
G36*
X257250Y82289D02*
X256470Y82134D01*
X255808Y81692D01*
X255366Y81030D01*
X255211Y80250D01*
X255366Y79470D01*
X255808Y78808D01*
X256470Y78366D01*
X257250Y78211D01*
X258030Y78366D01*
X258692Y78808D01*
X259134Y79470D01*
X259289Y80250D01*
X259134Y81030D01*
X258692Y81692D01*
X258030Y82134D01*
X257250Y82289D01*
D02*
G37*
G36*
X266500Y81289D02*
X265720Y81133D01*
X265058Y80691D01*
X264616Y80030D01*
X264461Y79250D01*
X264616Y78469D01*
X265058Y77808D01*
X265720Y77366D01*
X266500Y77210D01*
X267280Y77366D01*
X267942Y77808D01*
X268384Y78469D01*
X268539Y79250D01*
X268384Y80030D01*
X267942Y80691D01*
X267280Y81133D01*
X266500Y81289D01*
D02*
G37*
G36*
X217000Y80039D02*
X216220Y79884D01*
X215558Y79442D01*
X215116Y78780D01*
X214961Y78000D01*
X215116Y77220D01*
X215558Y76558D01*
X216220Y76116D01*
X217000Y75961D01*
X217780Y76116D01*
X218442Y76558D01*
X218884Y77220D01*
X219039Y78000D01*
X218884Y78780D01*
X218442Y79442D01*
X217780Y79884D01*
X217000Y80039D01*
D02*
G37*
G36*
X126700Y83728D02*
X125139Y83418D01*
X123816Y82534D01*
X122932Y81211D01*
X122622Y79650D01*
X122932Y78089D01*
X123816Y76766D01*
X125139Y75882D01*
X126700Y75572D01*
X128261Y75882D01*
X129584Y76766D01*
X130468Y78089D01*
X130778Y79650D01*
X130468Y81211D01*
X129584Y82534D01*
X128261Y83418D01*
X126700Y83728D01*
D02*
G37*
G36*
X88600Y83728D02*
X87039Y83418D01*
X85716Y82534D01*
X84832Y81211D01*
X84522Y79650D01*
X84832Y78089D01*
X85716Y76766D01*
X87039Y75882D01*
X88600Y75572D01*
X90161Y75882D01*
X91484Y76766D01*
X92368Y78089D01*
X92678Y79650D01*
X92368Y81211D01*
X91484Y82534D01*
X90161Y83418D01*
X88600Y83728D01*
D02*
G37*
G36*
X50500D02*
X48939Y83418D01*
X47616Y82534D01*
X46732Y81211D01*
X46422Y79650D01*
X46732Y78089D01*
X47616Y76766D01*
X48939Y75882D01*
X50500Y75572D01*
X52061Y75882D01*
X53384Y76766D01*
X54268Y78089D01*
X54578Y79650D01*
X54268Y81211D01*
X53384Y82534D01*
X52061Y83418D01*
X50500Y83728D01*
D02*
G37*
G36*
X17300Y82578D02*
X15739Y82268D01*
X14416Y81384D01*
X13532Y80061D01*
X13222Y78500D01*
X13532Y76939D01*
X14416Y75616D01*
X15739Y74732D01*
X17300Y74422D01*
X18861Y74732D01*
X20184Y75616D01*
X21068Y76939D01*
X21379Y78500D01*
X21068Y80061D01*
X20184Y81384D01*
X18861Y82268D01*
X17300Y82578D01*
D02*
G37*
G36*
X240000Y77789D02*
X239220Y77634D01*
X238558Y77192D01*
X238116Y76530D01*
X237961Y75750D01*
X238116Y74969D01*
X238558Y74308D01*
X239220Y73866D01*
X240000Y73710D01*
X240780Y73866D01*
X241442Y74308D01*
X241884Y74969D01*
X242039Y75750D01*
X241884Y76530D01*
X241442Y77192D01*
X240780Y77634D01*
X240000Y77789D01*
D02*
G37*
G36*
X232000D02*
X231220Y77634D01*
X230558Y77192D01*
X230116Y76530D01*
X229961Y75750D01*
X230116Y74969D01*
X230558Y74308D01*
X231220Y73866D01*
X232000Y73710D01*
X232780Y73866D01*
X233442Y74308D01*
X233884Y74969D01*
X234039Y75750D01*
X233884Y76530D01*
X233442Y77192D01*
X232780Y77634D01*
X232000Y77789D01*
D02*
G37*
G36*
X248000Y78808D02*
X246829Y78576D01*
X245837Y77913D01*
X245174Y76920D01*
X244941Y75750D01*
X245174Y74579D01*
X245837Y73587D01*
X246829Y72924D01*
X248000Y72691D01*
X249170Y72924D01*
X250163Y73587D01*
X250826Y74579D01*
X251059Y75750D01*
X250826Y76920D01*
X250163Y77913D01*
X249170Y78576D01*
X248000Y78808D01*
D02*
G37*
G36*
X266500Y74789D02*
X265720Y74634D01*
X265058Y74191D01*
X264616Y73530D01*
X264461Y72750D01*
X264616Y71969D01*
X265058Y71308D01*
X265720Y70866D01*
X266500Y70710D01*
X267280Y70866D01*
X267942Y71308D01*
X268384Y71969D01*
X268539Y72750D01*
X268384Y73530D01*
X267942Y74191D01*
X267280Y74634D01*
X266500Y74789D01*
D02*
G37*
G36*
X190500Y72539D02*
X189720Y72384D01*
X189058Y71942D01*
X188616Y71280D01*
X188461Y70500D01*
X188616Y69720D01*
X189058Y69058D01*
X189720Y68616D01*
X190500Y68461D01*
X191280Y68616D01*
X191942Y69058D01*
X192384Y69720D01*
X192539Y70500D01*
X192384Y71280D01*
X191942Y71942D01*
X191280Y72384D01*
X190500Y72539D01*
D02*
G37*
G36*
X259000Y74059D02*
X257829Y73826D01*
X256837Y73163D01*
X256174Y72171D01*
X255941Y71000D01*
X256174Y69830D01*
X256837Y68837D01*
X257829Y68174D01*
X259000Y67941D01*
X260170Y68174D01*
X261163Y68837D01*
X261826Y69830D01*
X262059Y71000D01*
X261826Y72171D01*
X261163Y73163D01*
X260170Y73826D01*
X259000Y74059D01*
D02*
G37*
G36*
X95050Y71539D02*
X94270Y71384D01*
X93608Y70942D01*
X93166Y70280D01*
X93011Y69500D01*
X93166Y68720D01*
X93608Y68058D01*
X94270Y67616D01*
X95050Y67461D01*
X95830Y67616D01*
X96492Y68058D01*
X96934Y68720D01*
X97089Y69500D01*
X96934Y70280D01*
X96492Y70942D01*
X95830Y71384D01*
X95050Y71539D01*
D02*
G37*
G36*
X219500Y72309D02*
X218330Y72076D01*
X217337Y71413D01*
X216674Y70420D01*
X216441Y69250D01*
X216674Y68080D01*
X217337Y67087D01*
X218330Y66424D01*
X219500Y66191D01*
X220671Y66424D01*
X221663Y67087D01*
X222326Y68080D01*
X222559Y69250D01*
X222326Y70420D01*
X221663Y71413D01*
X220671Y72076D01*
X219500Y72309D01*
D02*
G37*
G36*
X200000Y69789D02*
X199220Y69633D01*
X198558Y69191D01*
X198116Y68530D01*
X197961Y67750D01*
X198116Y66969D01*
X198558Y66308D01*
X199220Y65866D01*
X200000Y65710D01*
X200780Y65866D01*
X201442Y66308D01*
X201884Y66969D01*
X202039Y67750D01*
X201884Y68530D01*
X201442Y69191D01*
X200780Y69633D01*
X200000Y69789D01*
D02*
G37*
G36*
X232000Y70808D02*
X230829Y70575D01*
X229837Y69913D01*
X229174Y68920D01*
X228941Y67750D01*
X229174Y66579D01*
X229837Y65587D01*
X230829Y64924D01*
X232000Y64691D01*
X233171Y64924D01*
X234163Y65587D01*
X234826Y66579D01*
X235059Y67750D01*
X234826Y68920D01*
X234163Y69913D01*
X233171Y70575D01*
X232000Y70808D01*
D02*
G37*
G36*
X266500Y68289D02*
X265720Y68134D01*
X265058Y67692D01*
X264616Y67030D01*
X264461Y66250D01*
X264616Y65469D01*
X265058Y64808D01*
X265720Y64366D01*
X266500Y64211D01*
X267280Y64366D01*
X267942Y64808D01*
X268384Y65469D01*
X268539Y66250D01*
X268384Y67030D01*
X267942Y67692D01*
X267280Y68134D01*
X266500Y68289D01*
D02*
G37*
G36*
X237750Y63789D02*
X236970Y63634D01*
X236308Y63192D01*
X235692D01*
X235030Y63634D01*
X234250Y63789D01*
X233470Y63634D01*
X232808Y63192D01*
X232366Y62530D01*
X232211Y61750D01*
X232366Y60970D01*
X232808Y60308D01*
X233470Y59866D01*
X234250Y59711D01*
X235030Y59866D01*
X235692Y60308D01*
X236308D01*
X236970Y59866D01*
X237750Y59711D01*
X238530Y59866D01*
X239192Y60308D01*
X239634Y60970D01*
X239789Y61750D01*
X239634Y62530D01*
X239192Y63192D01*
X238530Y63634D01*
X237750Y63789D01*
D02*
G37*
G36*
X68750Y64059D02*
X67579Y63826D01*
X66587Y63163D01*
X65924Y62171D01*
X65691Y61000D01*
X65924Y59830D01*
X66587Y58837D01*
X67579Y58174D01*
X68750Y57941D01*
X69921Y58174D01*
X70913Y58837D01*
X71576Y59830D01*
X71809Y61000D01*
X71576Y62171D01*
X70913Y63163D01*
X69921Y63826D01*
X68750Y64059D01*
D02*
G37*
G36*
X200000Y61789D02*
X199220Y61634D01*
X198558Y61192D01*
X198116Y60530D01*
X197961Y59750D01*
X198116Y58969D01*
X198558Y58308D01*
X199220Y57866D01*
X200000Y57710D01*
X200780Y57866D01*
X201442Y58308D01*
X201884Y58969D01*
X202039Y59750D01*
X201884Y60530D01*
X201442Y61192D01*
X200780Y61634D01*
X200000Y61789D01*
D02*
G37*
G36*
X184000D02*
X183220Y61634D01*
X182558Y61192D01*
X182116Y60530D01*
X181961Y59750D01*
X182116Y58969D01*
X182558Y58308D01*
X183220Y57866D01*
X184000Y57710D01*
X184780Y57866D01*
X185442Y58308D01*
X185884Y58969D01*
X186039Y59750D01*
X185884Y60530D01*
X185442Y61192D01*
X184780Y61634D01*
X184000Y61789D01*
D02*
G37*
G36*
X17300Y69117D02*
X14959Y68652D01*
X12974Y67326D01*
X11648Y65341D01*
X11183Y63000D01*
X11648Y60659D01*
X12974Y58674D01*
X14959Y57348D01*
X17300Y56882D01*
X19641Y57348D01*
X21626Y58674D01*
X22952Y60659D01*
X23418Y63000D01*
X22952Y65341D01*
X21626Y67326D01*
X19641Y68652D01*
X17300Y69117D01*
D02*
G37*
G36*
X243500Y59289D02*
X242720Y59134D01*
X242058Y58692D01*
X241616Y58030D01*
X241461Y57250D01*
X241616Y56470D01*
X242058Y55808D01*
X242720Y55366D01*
X243500Y55211D01*
X244280Y55366D01*
X244942Y55808D01*
X245384Y56470D01*
X245539Y57250D01*
X245384Y58030D01*
X244942Y58692D01*
X244280Y59134D01*
X243500Y59289D01*
D02*
G37*
G36*
X190750Y59039D02*
X189970Y58884D01*
X189308Y58442D01*
X188866Y57780D01*
X188711Y57000D01*
X188866Y56220D01*
X189308Y55558D01*
X189970Y55116D01*
X190750Y54961D01*
X191530Y55116D01*
X192192Y55558D01*
X192634Y56220D01*
X192789Y57000D01*
X192634Y57780D01*
X192192Y58442D01*
X191530Y58884D01*
X190750Y59039D01*
D02*
G37*
G36*
X158250Y55039D02*
X157470Y54884D01*
X156808Y54442D01*
X156366Y53780D01*
X156211Y53000D01*
X156366Y52220D01*
X156808Y51558D01*
X157470Y51116D01*
X158250Y50961D01*
X159030Y51116D01*
X159692Y51558D01*
X160134Y52220D01*
X160289Y53000D01*
X160134Y53780D01*
X159692Y54442D01*
X159030Y54884D01*
X158250Y55039D01*
D02*
G37*
G36*
X228750Y53789D02*
X227970Y53634D01*
X227308Y53192D01*
X226866Y52530D01*
X226711Y51750D01*
X226866Y50970D01*
X227308Y50308D01*
X227970Y49866D01*
X228750Y49711D01*
X229530Y49866D01*
X230192Y50308D01*
X230634Y50970D01*
X230789Y51750D01*
X230634Y52530D01*
X230192Y53192D01*
X229530Y53634D01*
X228750Y53789D01*
D02*
G37*
G36*
X200000Y53789D02*
X199220Y53633D01*
X198558Y53191D01*
X198116Y52530D01*
X197961Y51750D01*
X198116Y50969D01*
X198558Y50308D01*
X199220Y49866D01*
X200000Y49710D01*
X200780Y49866D01*
X201442Y50308D01*
X201884Y50969D01*
X202039Y51750D01*
X201884Y52530D01*
X201442Y53191D01*
X200780Y53633D01*
X200000Y53789D01*
D02*
G37*
G36*
X266500Y48789D02*
X265720Y48634D01*
X265058Y48192D01*
X264616Y47530D01*
X264461Y46750D01*
X264616Y45970D01*
X265058Y45308D01*
X265720Y44866D01*
X266500Y44711D01*
X267280Y44866D01*
X267942Y45308D01*
X268384Y45970D01*
X268539Y46750D01*
X268384Y47530D01*
X267942Y48192D01*
X267280Y48634D01*
X266500Y48789D01*
D02*
G37*
G36*
X221761Y46041D02*
X220980Y45886D01*
X220319Y45444D01*
X219877Y44783D01*
X219872Y44760D01*
X219500Y43539D01*
X218720Y43384D01*
X218058Y42942D01*
X217616Y42280D01*
X217461Y41500D01*
X217616Y40720D01*
X218058Y40058D01*
X218524Y39747D01*
X218531Y39727D01*
X218620Y38869D01*
X218552Y38355D01*
X218308Y38192D01*
X217866Y37530D01*
X217711Y36750D01*
X217866Y35970D01*
X218308Y35308D01*
X218970Y34866D01*
X219750Y34711D01*
X220530Y34866D01*
X221192Y35308D01*
X221634Y35970D01*
X221789Y36750D01*
X221634Y37530D01*
X221192Y38192D01*
X220727Y38503D01*
X220718Y38523D01*
X220630Y39381D01*
X220699Y39895D01*
X220942Y40058D01*
X221384Y40720D01*
X221388Y40742D01*
X221761Y41963D01*
X222541Y42118D01*
X223203Y42560D01*
X223584Y43130D01*
X223645Y43222D01*
X223668Y43285D01*
X223782Y43602D01*
X224981Y43604D01*
X225090Y43293D01*
X225116Y43220D01*
X225161Y43153D01*
X225558Y42558D01*
X226220Y42116D01*
X227000Y41961D01*
X227780Y42116D01*
X228442Y42558D01*
X228884Y43220D01*
X229039Y44000D01*
X228884Y44780D01*
X228442Y45442D01*
X227780Y45884D01*
X227000Y46039D01*
X226220Y45884D01*
X225558Y45442D01*
X225177Y44872D01*
X225116Y44780D01*
X225093Y44717D01*
X224979Y44400D01*
X223779Y44398D01*
X223671Y44709D01*
X223645Y44783D01*
X223600Y44850D01*
X223203Y45444D01*
X222541Y45886D01*
X221761Y46041D01*
D02*
G37*
G36*
X192000Y45789D02*
X191220Y45634D01*
X190558Y45191D01*
X190116Y44530D01*
X189961Y43750D01*
X190116Y42969D01*
X190558Y42308D01*
X191220Y41866D01*
X192000Y41710D01*
X192780Y41866D01*
X193442Y42308D01*
X193884Y42969D01*
X194039Y43750D01*
X193884Y44530D01*
X193442Y45191D01*
X192780Y45634D01*
X192000Y45789D01*
D02*
G37*
G36*
X198000Y43289D02*
X197220Y43134D01*
X196558Y42692D01*
X196116Y42030D01*
X195961Y41250D01*
X196116Y40470D01*
X196558Y39808D01*
X197220Y39366D01*
X198000Y39211D01*
X198780Y39366D01*
X199442Y39808D01*
X199884Y40470D01*
X200039Y41250D01*
X199884Y42030D01*
X199442Y42692D01*
X198780Y43134D01*
X198000Y43289D01*
D02*
G37*
G36*
X266500Y42289D02*
X265720Y42134D01*
X265058Y41692D01*
X264616Y41030D01*
X264461Y40250D01*
X264616Y39469D01*
X265058Y38808D01*
X265720Y38366D01*
X266500Y38211D01*
X267280Y38366D01*
X267942Y38808D01*
X268384Y39469D01*
X268539Y40250D01*
X268384Y41030D01*
X267942Y41692D01*
X267280Y42134D01*
X266500Y42289D01*
D02*
G37*
G36*
X152100Y45628D02*
X150539Y45318D01*
X149216Y44434D01*
X148332Y43111D01*
X148022Y41550D01*
X148332Y39989D01*
X149216Y38666D01*
X150539Y37782D01*
X152100Y37472D01*
X153661Y37782D01*
X154984Y38666D01*
X155868Y39989D01*
X156178Y41550D01*
X155868Y43111D01*
X154984Y44434D01*
X153661Y45318D01*
X152100Y45628D01*
D02*
G37*
G36*
X37800Y45628D02*
X36239Y45318D01*
X34916Y44434D01*
X34032Y43111D01*
X33722Y41550D01*
X34032Y39989D01*
X34916Y38666D01*
X36239Y37782D01*
X37800Y37472D01*
X39361Y37782D01*
X40684Y38666D01*
X41568Y39989D01*
X41878Y41550D01*
X41568Y43111D01*
X40684Y44434D01*
X39361Y45318D01*
X37800Y45628D01*
D02*
G37*
G36*
X114000Y45628D02*
X112439Y45318D01*
X111116Y44434D01*
X110232Y43111D01*
X109922Y41550D01*
X110232Y39989D01*
X111116Y38666D01*
X112439Y37782D01*
X114000Y37472D01*
X115561Y37782D01*
X116884Y38666D01*
X117768Y39989D01*
X118078Y41550D01*
X117768Y43111D01*
X116884Y44434D01*
X115561Y45318D01*
X114000Y45628D01*
D02*
G37*
G36*
X75900D02*
X74339Y45318D01*
X73016Y44434D01*
X72132Y43111D01*
X71822Y41550D01*
X72132Y39989D01*
X73016Y38666D01*
X74339Y37782D01*
X75900Y37472D01*
X77461Y37782D01*
X78784Y38666D01*
X79668Y39989D01*
X79978Y41550D01*
X79668Y43111D01*
X78784Y44434D01*
X77461Y45318D01*
X75900Y45628D01*
D02*
G37*
G36*
X200000Y37789D02*
X199220Y37634D01*
X198558Y37192D01*
X198116Y36530D01*
X197961Y35750D01*
X198116Y34969D01*
X198558Y34308D01*
X199220Y33866D01*
X200000Y33710D01*
X200780Y33866D01*
X201442Y34308D01*
X201884Y34969D01*
X202039Y35750D01*
X201884Y36530D01*
X201442Y37192D01*
X200780Y37634D01*
X200000Y37789D01*
D02*
G37*
G36*
X192000Y37789D02*
X191220Y37634D01*
X190558Y37192D01*
X190116Y36530D01*
X189961Y35750D01*
X190116Y34969D01*
X190558Y34308D01*
X191220Y33866D01*
X192000Y33710D01*
X192780Y33866D01*
X193442Y34308D01*
X193884Y34969D01*
X194039Y35750D01*
X193884Y36530D01*
X193442Y37192D01*
X192780Y37634D01*
X192000Y37789D01*
D02*
G37*
G36*
X184000D02*
X183220Y37634D01*
X182558Y37192D01*
X182116Y36530D01*
X181961Y35750D01*
X182116Y34969D01*
X182558Y34308D01*
X183220Y33866D01*
X184000Y33710D01*
X184780Y33866D01*
X185442Y34308D01*
X185884Y34969D01*
X186039Y35750D01*
X185884Y36530D01*
X185442Y37192D01*
X184780Y37634D01*
X184000Y37789D01*
D02*
G37*
G36*
X88600Y30889D02*
X87820Y30734D01*
X87158Y30292D01*
X86716Y29630D01*
X86561Y28850D01*
X86716Y28070D01*
X87158Y27408D01*
X87820Y26966D01*
X88600Y26811D01*
X89380Y26966D01*
X90042Y27408D01*
X90484Y28070D01*
X90639Y28850D01*
X90484Y29630D01*
X90042Y30292D01*
X89380Y30734D01*
X88600Y30889D01*
D02*
G37*
G36*
X164800Y30889D02*
X164020Y30734D01*
X163358Y30292D01*
X162916Y29630D01*
X162761Y28850D01*
X162916Y28070D01*
X163358Y27408D01*
X164020Y26966D01*
X164800Y26811D01*
X165580Y26966D01*
X166242Y27408D01*
X166684Y28070D01*
X166839Y28850D01*
X166684Y29630D01*
X166242Y30292D01*
X165580Y30734D01*
X164800Y30889D01*
D02*
G37*
G36*
X126700D02*
X125920Y30734D01*
X125258Y30292D01*
X124816Y29630D01*
X124661Y28850D01*
X124816Y28070D01*
X125258Y27408D01*
X125920Y26966D01*
X126700Y26811D01*
X127480Y26966D01*
X128142Y27408D01*
X128584Y28070D01*
X128739Y28850D01*
X128584Y29630D01*
X128142Y30292D01*
X127480Y30734D01*
X126700Y30889D01*
D02*
G37*
G36*
X101300D02*
X100520Y30734D01*
X99858Y30292D01*
X99416Y29630D01*
X99261Y28850D01*
X99416Y28070D01*
X99858Y27408D01*
X100520Y26966D01*
X101300Y26811D01*
X102080Y26966D01*
X102742Y27408D01*
X103184Y28070D01*
X103339Y28850D01*
X103184Y29630D01*
X102742Y30292D01*
X102080Y30734D01*
X101300Y30889D01*
D02*
G37*
G36*
X63200D02*
X62420Y30734D01*
X61758Y30292D01*
X61316Y29630D01*
X61161Y28850D01*
X61316Y28070D01*
X61758Y27408D01*
X62420Y26966D01*
X63200Y26811D01*
X63980Y26966D01*
X64642Y27408D01*
X65084Y28070D01*
X65239Y28850D01*
X65084Y29630D01*
X64642Y30292D01*
X63980Y30734D01*
X63200Y30889D01*
D02*
G37*
G36*
X50500Y30889D02*
X49720Y30734D01*
X49058Y30292D01*
X48616Y29630D01*
X48461Y28850D01*
X48616Y28070D01*
X49058Y27408D01*
X49720Y26966D01*
X50500Y26811D01*
X51280Y26966D01*
X51942Y27408D01*
X52384Y28070D01*
X52539Y28850D01*
X52384Y29630D01*
X51942Y30292D01*
X51280Y30734D01*
X50500Y30889D01*
D02*
G37*
G36*
X176250Y34078D02*
X174689Y33768D01*
X173366Y32884D01*
X172482Y31561D01*
X172172Y30000D01*
X172482Y28439D01*
X173366Y27116D01*
X174689Y26232D01*
X176250Y25922D01*
X177811Y26232D01*
X179134Y27116D01*
X180018Y28439D01*
X180328Y30000D01*
X180018Y31561D01*
X179134Y32884D01*
X177811Y33768D01*
X176250Y34078D01*
D02*
G37*
G36*
X192000Y29789D02*
X191220Y29634D01*
X190558Y29192D01*
X190116Y28530D01*
X189961Y27750D01*
X190116Y26969D01*
X190558Y26308D01*
X191220Y25866D01*
X192000Y25710D01*
X192780Y25866D01*
X193442Y26308D01*
X193884Y26969D01*
X194039Y27750D01*
X193884Y28530D01*
X193442Y29192D01*
X192780Y29634D01*
X192000Y29789D01*
D02*
G37*
G36*
X219500Y29039D02*
X218720Y28884D01*
X218058Y28442D01*
X217616Y27780D01*
X217461Y27000D01*
X217616Y26220D01*
X218058Y25558D01*
X218720Y25116D01*
X219284Y25004D01*
X219335Y24871D01*
X219527Y23929D01*
X219531Y23758D01*
X219058Y23442D01*
X218616Y22780D01*
X218461Y22000D01*
X218616Y21220D01*
X219058Y20558D01*
X219720Y20116D01*
X220500Y19961D01*
X221280Y20116D01*
X221942Y20558D01*
X222384Y21220D01*
X222539Y22000D01*
X222384Y22780D01*
X221942Y23442D01*
X221280Y23884D01*
X220716Y23996D01*
X220665Y24130D01*
X220473Y25071D01*
X220469Y25242D01*
X220942Y25558D01*
X221384Y26220D01*
X221539Y27000D01*
X221384Y27780D01*
X220942Y28442D01*
X220280Y28884D01*
X219500Y29039D01*
D02*
G37*
G36*
X200000Y21789D02*
X199220Y21634D01*
X198558Y21191D01*
X198116Y20530D01*
X197961Y19750D01*
X198116Y18969D01*
X198558Y18308D01*
X199220Y17866D01*
X200000Y17710D01*
X200780Y17866D01*
X201442Y18308D01*
X201884Y18969D01*
X202039Y19750D01*
X201884Y20530D01*
X201442Y21191D01*
X200780Y21634D01*
X200000Y21789D01*
D02*
G37*
G36*
X192000D02*
X191220Y21634D01*
X190558Y21191D01*
X190116Y20530D01*
X189961Y19750D01*
X190116Y18969D01*
X190558Y18308D01*
X191220Y17866D01*
X192000Y17710D01*
X192780Y17866D01*
X193442Y18308D01*
X193884Y18969D01*
X194039Y19750D01*
X193884Y20530D01*
X193442Y21191D01*
X192780Y21634D01*
X192000Y21789D01*
D02*
G37*
G36*
X176500Y23059D02*
X175329Y22826D01*
X174337Y22163D01*
X173674Y21170D01*
X173441Y20000D01*
X173674Y18829D01*
X174337Y17837D01*
X175329Y17174D01*
X176500Y16941D01*
X177670Y17174D01*
X178663Y17837D01*
X179326Y18829D01*
X179559Y20000D01*
X179326Y21170D01*
X178663Y22163D01*
X177670Y22826D01*
X176500Y23059D01*
D02*
G37*
G36*
X243250Y18289D02*
X242469Y18134D01*
X241808Y17692D01*
X241366Y17030D01*
X241211Y16250D01*
X241366Y15470D01*
X241808Y14808D01*
X242469Y14366D01*
X243250Y14211D01*
X244030Y14366D01*
X244692Y14808D01*
X245134Y15470D01*
X245289Y16250D01*
X245134Y17030D01*
X244692Y17692D01*
X244030Y18134D01*
X243250Y18289D01*
D02*
G37*
G36*
X222000Y12039D02*
X221220Y11884D01*
X220558Y11442D01*
X220116Y10780D01*
X219961Y10000D01*
X220116Y9220D01*
X220558Y8558D01*
X221220Y8116D01*
X222000Y7961D01*
X222780Y8116D01*
X223442Y8558D01*
X223884Y9220D01*
X224039Y10000D01*
X223884Y10780D01*
X223442Y11442D01*
X222780Y11884D01*
X222000Y12039D01*
D02*
G37*
G36*
X202000D02*
X201220Y11884D01*
X200558Y11442D01*
X200116Y10780D01*
X199961Y10000D01*
X200116Y9220D01*
X200558Y8558D01*
X201220Y8116D01*
X202000Y7961D01*
X202780Y8116D01*
X203442Y8558D01*
X203884Y9220D01*
X204039Y10000D01*
X203884Y10780D01*
X203442Y11442D01*
X202780Y11884D01*
X202000Y12039D01*
D02*
G37*
G36*
X89750Y11289D02*
X88970Y11134D01*
X88308Y10692D01*
X87866Y10030D01*
X87711Y9250D01*
X87866Y8470D01*
X88308Y7808D01*
X88970Y7366D01*
X89750Y7211D01*
X90530Y7366D01*
X91192Y7808D01*
X91634Y8470D01*
X91789Y9250D01*
X91634Y10030D01*
X91192Y10692D01*
X90530Y11134D01*
X89750Y11289D01*
D02*
G37*
G36*
X63000D02*
X62220Y11134D01*
X61558Y10692D01*
X61116Y10030D01*
X60961Y9250D01*
X61116Y8470D01*
X61558Y7808D01*
X62220Y7366D01*
X63000Y7211D01*
X63780Y7366D01*
X64442Y7808D01*
X64884Y8470D01*
X65039Y9250D01*
X64884Y10030D01*
X64442Y10692D01*
X63780Y11134D01*
X63000Y11289D01*
D02*
G37*
G36*
X126000Y11289D02*
X125220Y11134D01*
X124558Y10692D01*
X124116Y10030D01*
X123961Y9250D01*
X124116Y8470D01*
X124558Y7808D01*
X125220Y7366D01*
X126000Y7211D01*
X126780Y7366D01*
X127442Y7808D01*
X127884Y8470D01*
X128039Y9250D01*
X127884Y10030D01*
X127442Y10692D01*
X126780Y11134D01*
X126000Y11289D01*
D02*
G37*
G36*
X164000Y11289D02*
X163220Y11134D01*
X162558Y10692D01*
X162116Y10030D01*
X161961Y9250D01*
X162116Y8470D01*
X162558Y7808D01*
X163220Y7366D01*
X164000Y7211D01*
X164780Y7366D01*
X165442Y7808D01*
X165884Y8470D01*
X166039Y9250D01*
X165884Y10030D01*
X165442Y10692D01*
X164780Y11134D01*
X164000Y11289D01*
D02*
G37*
%LPD*%
D33*
X186759Y115756D02*
Y128990D01*
X184000Y131750D02*
X186759Y128990D01*
X44750Y158000D02*
X46250Y156500D01*
X15500Y128000D02*
Y153750D01*
X46250Y131250D02*
Y156500D01*
X16200Y-6500D02*
X21900D01*
X28900D02*
X34600D01*
X41600D02*
X47300D01*
X54300D02*
X60000D01*
X67000D02*
X72700D01*
X79700D02*
X85400D01*
X92400D02*
X98100D01*
X105100D02*
X110800D01*
X117800D02*
X123500D01*
X130500D02*
X136200D01*
X143200D02*
X148900D01*
X155900D02*
X161600D01*
X168600D02*
X174300D01*
X181300D02*
X187000D01*
X194000D02*
X199700D01*
X206700D02*
X212400D01*
X219400D02*
X225100D01*
X231846D02*
X237546D01*
X244546D02*
X250246D01*
X257246D02*
X262946D01*
X285900Y257246D02*
Y262946D01*
X285900Y250246D02*
X285900Y244546D01*
Y231846D02*
Y237546D01*
Y219400D02*
Y225100D01*
X285900Y212400D02*
X285900Y206700D01*
Y194000D02*
Y199700D01*
Y181300D02*
Y187000D01*
X285900Y168600D02*
X285900Y174300D01*
Y155900D02*
Y161600D01*
X285900Y148900D02*
X285900Y143200D01*
Y130500D02*
Y136200D01*
Y117800D02*
Y123500D01*
X285900Y105100D02*
X285900Y110800D01*
Y92400D02*
Y98100D01*
X285900Y85400D02*
X285900Y79700D01*
Y67000D02*
Y72700D01*
Y54300D02*
Y60000D01*
X285900Y41600D02*
Y47300D01*
X285900Y28900D02*
Y34600D01*
X285900Y21900D02*
X285900Y16200D01*
X16454Y285900D02*
X22154D01*
X29154Y285900D02*
X34854Y285900D01*
X41854D02*
X47554D01*
X54300D02*
X60000D01*
X67000Y285900D02*
X72700Y285900D01*
X79700D02*
X85400D01*
X92400D02*
X98100D01*
X105100D02*
X110800Y285900D01*
X117800Y285900D02*
X123500D01*
X130500Y285900D02*
X136200Y285900D01*
X143200D02*
X148900D01*
X155900D02*
X161600D01*
X168600D02*
X174300Y285900D01*
X181300Y285900D02*
X187000D01*
X194000Y285900D02*
X199700Y285900D01*
X206700D02*
X212400D01*
X219400D02*
X225100D01*
X232100Y285900D02*
X237800D01*
X244800Y285900D02*
X250500D01*
X257500Y285900D02*
X263200Y285900D01*
X-6500Y16454D02*
Y22154D01*
Y34854D02*
X-6500Y29154D01*
X-6500Y41854D02*
Y47554D01*
Y54300D02*
Y60000D01*
Y72700D02*
X-6500Y67000D01*
X-6500Y79700D02*
Y85400D01*
Y92400D02*
Y98100D01*
Y105100D02*
X-6500Y110800D01*
X-6500Y117800D02*
Y123500D01*
Y136200D02*
X-6500Y130500D01*
X-6500Y143200D02*
Y148900D01*
Y155900D02*
Y161600D01*
Y168600D02*
X-6500Y174300D01*
X-6500Y181300D02*
Y187000D01*
Y199700D02*
X-6500Y194000D01*
X-6500Y206700D02*
Y212400D01*
Y219400D02*
Y225100D01*
X-6500Y232100D02*
Y237800D01*
X-6500Y244800D02*
Y250500D01*
Y263200D02*
X-6500Y257500D01*
X-6500Y269946D02*
Y285900D01*
X9454D01*
X285900Y269946D02*
Y285900D01*
X269946D02*
X285900D01*
X269946Y-6500D02*
X285900D01*
Y9454D01*
X-6500D02*
X9454Y-6500D01*
X-11176Y137160D02*
Y142240D01*
X-10470Y142946D02*
X-6500D01*
X-10470Y136454D02*
X-6500D01*
X-11176Y142240D02*
X-10470Y142946D01*
X-11176Y137160D02*
X-10470Y136454D01*
X-11176Y124460D02*
Y129540D01*
X-10470Y130246D02*
X-6500D01*
X-10470Y123754D02*
X-6500D01*
X-11176Y129540D02*
X-10470Y130246D01*
X-11176Y124460D02*
X-10470Y123754D01*
X-11176Y111760D02*
Y116840D01*
X-10470Y117546D02*
X-6500D01*
X-10470Y111054D02*
X-6500D01*
X-11176Y116840D02*
X-10470Y117546D01*
X-11176Y111760D02*
X-10470Y111054D01*
X-11176Y99060D02*
Y104140D01*
X-10470Y104846D02*
X-6500D01*
X-10470Y98354D02*
X-6500D01*
X-11176Y104140D02*
X-10470Y104846D01*
X-11176Y99060D02*
X-10470Y98354D01*
X-11176Y86360D02*
Y91440D01*
X-10470Y92146D02*
X-6500D01*
X-10470Y85654D02*
X-6500D01*
X-11176Y91440D02*
X-10470Y92146D01*
X-11176Y86360D02*
X-10470Y85654D01*
X-11176Y73660D02*
Y78740D01*
X-10470Y79446D02*
X-6500D01*
X-10470Y72954D02*
X-6500D01*
X-11176Y78740D02*
X-10470Y79446D01*
X-11176Y73660D02*
X-10470Y72954D01*
X-11176Y60960D02*
Y66040D01*
X-10470Y66746D02*
X-6500D01*
X-10470Y60254D02*
X-6500D01*
X-11176Y66040D02*
X-10470Y66746D01*
X-11176Y60960D02*
X-10470Y60254D01*
X-11176Y48260D02*
Y53340D01*
X-10470Y54046D02*
X-6500D01*
X-10470Y47554D02*
X-6500D01*
X-11176Y53340D02*
X-10470Y54046D01*
X-11176Y48260D02*
X-10470Y47554D01*
X-11176Y35560D02*
Y40640D01*
X-10470Y41346D02*
X-6500D01*
X-10470Y34854D02*
X-6500D01*
X-11176Y40640D02*
X-10470Y41346D01*
X-11176Y35560D02*
X-10470Y34854D01*
X-11176Y22860D02*
Y27940D01*
X-10470Y28646D02*
X-6500D01*
X-10470Y22154D02*
X-6500D01*
X-11176Y27940D02*
X-10470Y28646D01*
X-11176Y22860D02*
X-10470Y22154D01*
X-11176Y10160D02*
Y15240D01*
X-10470Y15946D02*
X-6500D01*
X-10470Y9454D02*
X-6500D01*
X-11176Y15240D02*
X-10470Y15946D01*
X-11176Y10160D02*
X-10470Y9454D01*
X10160Y-11176D02*
X15240D01*
X9454Y-10470D02*
Y-6500D01*
X15946Y-10470D02*
Y-6500D01*
X9454Y-10470D02*
X10160Y-11176D01*
X15240D02*
X15946Y-10470D01*
X22860Y-11176D02*
X27940D01*
X22154Y-10470D02*
Y-6500D01*
X28646Y-10470D02*
Y-6500D01*
X22154Y-10470D02*
X22860Y-11176D01*
X27940D02*
X28646Y-10470D01*
X35560Y-11176D02*
X40640D01*
X34854Y-10470D02*
Y-6500D01*
X41346Y-10470D02*
Y-6500D01*
X34854Y-10470D02*
X35560Y-11176D01*
X40640D02*
X41346Y-10470D01*
X48260Y-11176D02*
X53340D01*
X47554Y-10470D02*
Y-6500D01*
X54046Y-10470D02*
Y-6500D01*
X47554Y-10470D02*
X48260Y-11176D01*
X53340D02*
X54046Y-10470D01*
X60960Y-11176D02*
X66040D01*
X60254Y-10470D02*
Y-6500D01*
X66746Y-10470D02*
Y-6500D01*
X60254Y-10470D02*
X60960Y-11176D01*
X66040D02*
X66746Y-10470D01*
X73660Y-11176D02*
X78740D01*
X72954Y-10470D02*
Y-6500D01*
X79446Y-10470D02*
Y-6500D01*
X72954Y-10470D02*
X73660Y-11176D01*
X78740D02*
X79446Y-10470D01*
X86360Y-11176D02*
X91440D01*
X85654Y-10470D02*
Y-6500D01*
X92146Y-10470D02*
Y-6500D01*
X85654Y-10470D02*
X86360Y-11176D01*
X91440D02*
X92146Y-10470D01*
X99060Y-11176D02*
X104140D01*
X98354Y-10470D02*
Y-6500D01*
X104846Y-10470D02*
Y-6500D01*
X98354Y-10470D02*
X99060Y-11176D01*
X104140D02*
X104846Y-10470D01*
X111760Y-11176D02*
X116840D01*
X111054Y-10470D02*
Y-6500D01*
X117546Y-10470D02*
Y-6500D01*
X111054Y-10470D02*
X111760Y-11176D01*
X116840D02*
X117546Y-10470D01*
X124460Y-11176D02*
X129540D01*
X123754Y-10470D02*
Y-6500D01*
X130246Y-10470D02*
Y-6500D01*
X123754Y-10470D02*
X124460Y-11176D01*
X129540D02*
X130246Y-10470D01*
X137160Y-11176D02*
X142240D01*
X136454Y-10470D02*
Y-6500D01*
X142946Y-10470D02*
Y-6500D01*
X136454Y-10470D02*
X137160Y-11176D01*
X142240D02*
X142946Y-10470D01*
X149860Y-11176D02*
X154940D01*
X149154Y-10470D02*
Y-6500D01*
X155646Y-10470D02*
Y-6500D01*
X149154Y-10470D02*
X149860Y-11176D01*
X154940D02*
X155646Y-10470D01*
X162560Y-11176D02*
X167640D01*
X161854Y-10470D02*
Y-6500D01*
X168346Y-10470D02*
Y-6500D01*
X161854Y-10470D02*
X162560Y-11176D01*
X167640D02*
X168346Y-10470D01*
X175260Y-11176D02*
X180340D01*
X174554Y-10470D02*
Y-6500D01*
X181046Y-10470D02*
Y-6500D01*
X174554Y-10470D02*
X175260Y-11176D01*
X180340D02*
X181046Y-10470D01*
X187960Y-11176D02*
X193040D01*
X187254Y-10470D02*
Y-6500D01*
X193746Y-10470D02*
Y-6500D01*
X187254Y-10470D02*
X187960Y-11176D01*
X193040D02*
X193746Y-10470D01*
X200660Y-11176D02*
X205740D01*
X199954Y-10470D02*
Y-6500D01*
X206446Y-10470D02*
Y-6500D01*
X199954Y-10470D02*
X200660Y-11176D01*
X205740D02*
X206446Y-10470D01*
X213360Y-11176D02*
X218440D01*
X212654Y-10470D02*
Y-6500D01*
X219146Y-10470D02*
Y-6500D01*
X212654Y-10470D02*
X213360Y-11176D01*
X218440D02*
X219146Y-10470D01*
X226060Y-11176D02*
X231140D01*
X225354Y-10470D02*
Y-6500D01*
X231846Y-10470D02*
Y-6500D01*
X225354Y-10470D02*
X226060Y-11176D01*
X231140D02*
X231846Y-10470D01*
X238760Y-11176D02*
X243840D01*
X238054Y-10470D02*
Y-6500D01*
X244546Y-10470D02*
Y-6500D01*
X238054Y-10470D02*
X238760Y-11176D01*
X243840D02*
X244546Y-10470D01*
X251460Y-11176D02*
X256540D01*
X250754Y-10470D02*
Y-6500D01*
X257246Y-10470D02*
Y-6500D01*
X250754Y-10470D02*
X251460Y-11176D01*
X256540D02*
X257246Y-10470D01*
X264160Y-11176D02*
X269240D01*
X263454Y-10470D02*
Y-6500D01*
X269946Y-10470D02*
Y-6500D01*
X263454Y-10470D02*
X264160Y-11176D01*
X269240D02*
X269946Y-10470D01*
X290576Y10160D02*
Y15240D01*
X285900Y9454D02*
X289870D01*
X285900Y15946D02*
X289870D01*
Y9454D02*
X290576Y10160D01*
X289870Y15946D02*
X290576Y15240D01*
Y22860D02*
Y27940D01*
X285900Y22154D02*
X289870D01*
X285900Y28646D02*
X289870D01*
Y22154D02*
X290576Y22860D01*
X289870Y28646D02*
X290576Y27940D01*
Y35560D02*
Y40640D01*
X285900Y34854D02*
X289870D01*
X285900Y41346D02*
X289870D01*
Y34854D02*
X290576Y35560D01*
X289870Y41346D02*
X290576Y40640D01*
Y48260D02*
Y53340D01*
X285900Y47554D02*
X289870D01*
X285900Y54046D02*
X289870D01*
Y47554D02*
X290576Y48260D01*
X289870Y54046D02*
X290576Y53340D01*
Y60960D02*
Y66040D01*
X285900Y60254D02*
X289870D01*
X285900Y66746D02*
X289870D01*
Y60254D02*
X290576Y60960D01*
X289870Y66746D02*
X290576Y66040D01*
Y73660D02*
Y78740D01*
X285900Y72954D02*
X289870D01*
X285900Y79446D02*
X289870D01*
Y72954D02*
X290576Y73660D01*
X289870Y79446D02*
X290576Y78740D01*
Y86360D02*
Y91440D01*
X285900Y85654D02*
X289870D01*
X285900Y92146D02*
X289870D01*
Y85654D02*
X290576Y86360D01*
X289870Y92146D02*
X290576Y91440D01*
Y99060D02*
Y104140D01*
X285900Y98354D02*
X289870D01*
X285900Y104846D02*
X289870D01*
Y98354D02*
X290576Y99060D01*
X289870Y104846D02*
X290576Y104140D01*
Y111760D02*
Y116840D01*
X285900Y111054D02*
X289870D01*
X285900Y117546D02*
X289870D01*
Y111054D02*
X290576Y111760D01*
X289870Y117546D02*
X290576Y116840D01*
Y124460D02*
Y129540D01*
X285900Y123754D02*
X289870D01*
X285900Y130246D02*
X289870D01*
Y123754D02*
X290576Y124460D01*
X289870Y130246D02*
X290576Y129540D01*
Y137160D02*
Y142240D01*
X285900Y136454D02*
X289870D01*
X285900Y142946D02*
X289870D01*
Y136454D02*
X290576Y137160D01*
X289870Y142946D02*
X290576Y142240D01*
Y149860D02*
Y154940D01*
X285900Y149154D02*
X289870D01*
X285900Y155646D02*
X289870D01*
Y149154D02*
X290576Y149860D01*
X289870Y155646D02*
X290576Y154940D01*
Y162560D02*
Y167640D01*
X285900Y161854D02*
X289870D01*
X285900Y168346D02*
X289870D01*
Y161854D02*
X290576Y162560D01*
X289870Y168346D02*
X290576Y167640D01*
Y175260D02*
Y180340D01*
X285900Y174554D02*
X289870D01*
X285900Y181046D02*
X289870D01*
Y174554D02*
X290576Y175260D01*
X289870Y181046D02*
X290576Y180340D01*
Y187960D02*
Y193040D01*
X285900Y187254D02*
X289870D01*
X285900Y193746D02*
X289870D01*
Y187254D02*
X290576Y187960D01*
X289870Y193746D02*
X290576Y193040D01*
Y200660D02*
Y205740D01*
X285900Y199954D02*
X289870D01*
X285900Y206446D02*
X289870D01*
Y199954D02*
X290576Y200660D01*
X289870Y206446D02*
X290576Y205740D01*
Y213360D02*
Y218440D01*
X285900Y212654D02*
X289870D01*
X285900Y219146D02*
X289870D01*
Y212654D02*
X290576Y213360D01*
X289870Y219146D02*
X290576Y218440D01*
Y226060D02*
Y231140D01*
X285900Y225354D02*
X289870D01*
X285900Y231846D02*
X289870D01*
Y225354D02*
X290576Y226060D01*
X289870Y231846D02*
X290576Y231140D01*
Y238760D02*
Y243840D01*
X285900Y238054D02*
X289870D01*
X285900Y244546D02*
X289870D01*
Y238054D02*
X290576Y238760D01*
X289870Y244546D02*
X290576Y243840D01*
Y251460D02*
Y256540D01*
X285900Y250754D02*
X289870D01*
X285900Y257246D02*
X289870D01*
Y250754D02*
X290576Y251460D01*
X289870Y257246D02*
X290576Y256540D01*
Y264160D02*
Y269240D01*
X285900Y263454D02*
X289870D01*
X285900Y269946D02*
X289870D01*
Y263454D02*
X290576Y264160D01*
X289870Y269946D02*
X290576Y269240D01*
X264160Y290576D02*
X269240D01*
X269946Y285900D02*
Y289870D01*
X263454Y285900D02*
Y289870D01*
X269240Y290576D02*
X269946Y289870D01*
X263454D02*
X264160Y290576D01*
X251460D02*
X256540D01*
X257246Y285900D02*
Y289870D01*
X250754Y285900D02*
Y289870D01*
X256540Y290576D02*
X257246Y289870D01*
X250754D02*
X251460Y290576D01*
X238760D02*
X243840D01*
X244546Y285900D02*
Y289870D01*
X238054Y285900D02*
Y289870D01*
X243840Y290576D02*
X244546Y289870D01*
X238054D02*
X238760Y290576D01*
X226060D02*
X231140D01*
X231846Y285900D02*
Y289870D01*
X225354Y285900D02*
Y289870D01*
X231140Y290576D02*
X231846Y289870D01*
X225354D02*
X226060Y290576D01*
X213360D02*
X218440D01*
X219146Y285900D02*
Y289870D01*
X212654Y285900D02*
Y289870D01*
X218440Y290576D02*
X219146Y289870D01*
X212654D02*
X213360Y290576D01*
X200660D02*
X205740D01*
X206446Y285900D02*
Y289870D01*
X199954Y285900D02*
Y289870D01*
X205740Y290576D02*
X206446Y289870D01*
X199954D02*
X200660Y290576D01*
X187960D02*
X193040D01*
X193746Y285900D02*
Y289870D01*
X187254Y285900D02*
Y289870D01*
X193040Y290576D02*
X193746Y289870D01*
X187254D02*
X187960Y290576D01*
X175260D02*
X180340D01*
X181046Y285900D02*
Y289870D01*
X174554Y285900D02*
Y289870D01*
X180340Y290576D02*
X181046Y289870D01*
X174554D02*
X175260Y290576D01*
X162560D02*
X167640D01*
X168346Y285900D02*
Y289870D01*
X161854Y285900D02*
Y289870D01*
X167640Y290576D02*
X168346Y289870D01*
X161854D02*
X162560Y290576D01*
X149860D02*
X154940D01*
X155646Y285900D02*
Y289870D01*
X149154Y285900D02*
Y289870D01*
X154940Y290576D02*
X155646Y289870D01*
X149154D02*
X149860Y290576D01*
X137160D02*
X142240D01*
X142946Y285900D02*
Y289870D01*
X136454Y285900D02*
Y289870D01*
X142240Y290576D02*
X142946Y289870D01*
X136454D02*
X137160Y290576D01*
X124460D02*
X129540D01*
X130246Y285900D02*
Y289870D01*
X123754Y285900D02*
Y289870D01*
X129540Y290576D02*
X130246Y289870D01*
X123754D02*
X124460Y290576D01*
X111760D02*
X116840D01*
X117546Y285900D02*
Y289870D01*
X111054Y285900D02*
Y289870D01*
X116840Y290576D02*
X117546Y289870D01*
X111054D02*
X111760Y290576D01*
X99060D02*
X104140D01*
X104846Y285900D02*
Y289870D01*
X98354Y285900D02*
Y289870D01*
X104140Y290576D02*
X104846Y289870D01*
X98354D02*
X99060Y290576D01*
X86360D02*
X91440D01*
X92146Y285900D02*
Y289870D01*
X85654Y285900D02*
Y289870D01*
X91440Y290576D02*
X92146Y289870D01*
X85654D02*
X86360Y290576D01*
X73660D02*
X78740D01*
X79446Y285900D02*
Y289870D01*
X72954Y285900D02*
Y289870D01*
X78740Y290576D02*
X79446Y289870D01*
X72954D02*
X73660Y290576D01*
X60960D02*
X66040D01*
X66746Y285900D02*
Y289870D01*
X60254Y285900D02*
Y289870D01*
X66040Y290576D02*
X66746Y289870D01*
X60254D02*
X60960Y290576D01*
X48260D02*
X53340D01*
X54046Y285900D02*
Y289870D01*
X47554Y285900D02*
Y289870D01*
X53340Y290576D02*
X54046Y289870D01*
X47554D02*
X48260Y290576D01*
X35560D02*
X40640D01*
X41346Y285900D02*
Y289870D01*
X34854Y285900D02*
Y289870D01*
X40640Y290576D02*
X41346Y289870D01*
X34854D02*
X35560Y290576D01*
X22860D02*
X27940D01*
X28646Y285900D02*
Y289870D01*
X22154Y285900D02*
Y289870D01*
X27940Y290576D02*
X28646Y289870D01*
X22154D02*
X22860Y290576D01*
X10160D02*
X15240D01*
X15946Y285900D02*
Y289870D01*
X9454Y285900D02*
Y289870D01*
X15240Y290576D02*
X15946Y289870D01*
X9454D02*
X10160Y290576D01*
X-11176Y264160D02*
Y269240D01*
X-10470Y269946D02*
X-6500D01*
X-10470Y263454D02*
X-6500D01*
X-11176Y269240D02*
X-10470Y269946D01*
X-11176Y264160D02*
X-10470Y263454D01*
X-11176Y251460D02*
Y256540D01*
X-10470Y257246D02*
X-6500D01*
X-10470Y250754D02*
X-6500D01*
X-11176Y256540D02*
X-10470Y257246D01*
X-11176Y251460D02*
X-10470Y250754D01*
X-11176Y238760D02*
Y243840D01*
X-10470Y244546D02*
X-6500D01*
X-10470Y238054D02*
X-6500D01*
X-11176Y243840D02*
X-10470Y244546D01*
X-11176Y238760D02*
X-10470Y238054D01*
X-11176Y226060D02*
Y231140D01*
X-10470Y231846D02*
X-6500D01*
X-10470Y225354D02*
X-6500D01*
X-11176Y231140D02*
X-10470Y231846D01*
X-11176Y226060D02*
X-10470Y225354D01*
X-11176Y213360D02*
Y218440D01*
X-10470Y219146D02*
X-6500D01*
X-10470Y212654D02*
X-6500D01*
X-11176Y218440D02*
X-10470Y219146D01*
X-11176Y213360D02*
X-10470Y212654D01*
X-11176Y200660D02*
Y205740D01*
X-10470Y206446D02*
X-6500D01*
X-10470Y199954D02*
X-6500D01*
X-11176Y205740D02*
X-10470Y206446D01*
X-11176Y200660D02*
X-10470Y199954D01*
X-11176Y187960D02*
Y193040D01*
X-10470Y193746D02*
X-6500D01*
X-10470Y187254D02*
X-6500D01*
X-11176Y193040D02*
X-10470Y193746D01*
X-11176Y187960D02*
X-10470Y187254D01*
X-11176Y175260D02*
Y180340D01*
X-10470Y181046D02*
X-6500D01*
X-10470Y174554D02*
X-6500D01*
X-11176Y180340D02*
X-10470Y181046D01*
X-11176Y175260D02*
X-10470Y174554D01*
X-11176Y162560D02*
Y167640D01*
X-10470Y168346D02*
X-6500D01*
X-10470Y161854D02*
X-6500D01*
X-11176Y167640D02*
X-10470Y168346D01*
X-11176Y162560D02*
X-10470Y161854D01*
X-11176Y149860D02*
Y154940D01*
X-10470Y155646D02*
X-6500D01*
X-10470Y149154D02*
X-6500D01*
X-11176Y154940D02*
X-10470Y155646D01*
X-11176Y149860D02*
X-10470Y149154D01*
D34*
X153250Y60000D02*
X164000Y70750D01*
X179000D01*
X184000Y75750D01*
X187750Y79500D01*
X201500D01*
X203750Y77250D01*
X206250D01*
X210250Y81250D01*
X225750Y206500D02*
X229750D01*
X218750Y213500D02*
X225750Y206500D01*
X218750Y213500D02*
Y223250D01*
D36*
X187500Y110750D02*
X189500D01*
X188536Y113250D02*
X230750D01*
X188535Y113250D02*
X188536Y113250D01*
X172250Y113250D02*
X188535D01*
X189500Y110750D02*
X193750Y106500D01*
X172250Y113250D02*
X172250Y113250D01*
X193750Y99500D02*
Y106500D01*
X190000Y95750D02*
X193750Y99500D01*
X149750Y135750D02*
X172250Y113250D01*
X128000Y222000D02*
X129750Y223750D01*
X114250Y224250D02*
X117250Y221250D01*
X122500D01*
X123250Y222000D01*
X128000D01*
X114250Y229250D02*
X117000Y226500D01*
X132750D01*
X137250Y231000D01*
X246500Y182750D02*
X248750Y180500D01*
X246500Y182750D02*
Y219000D01*
X241750Y223750D02*
X246500Y219000D01*
X265350Y25400D02*
X279400D01*
X256000Y34750D02*
X265350Y25400D01*
X253250Y34672D02*
X275222Y12700D01*
X279400D01*
X253250Y34672D02*
Y51000D01*
X252250Y52000D02*
X253250Y51000D01*
X252250Y52000D02*
Y53250D01*
X256000Y34750D02*
Y51750D01*
X255250Y52500D02*
X256000Y51750D01*
X200000Y91750D02*
Y98500D01*
X200750Y99250D01*
X202250D01*
X203000Y98500D01*
Y90250D02*
Y98500D01*
X201000Y88250D02*
X203000Y90250D01*
X191500Y88250D02*
X201000D01*
X188750Y91000D02*
X191500Y88250D01*
X186000Y91000D02*
X188750D01*
X184250Y92750D02*
X186000Y91000D01*
X184250Y92750D02*
Y94000D01*
X186000Y95750D01*
X190000D01*
X231750Y107750D02*
X234000Y110000D01*
X227500Y106750D02*
X228500Y107750D01*
X231750D01*
X227500Y87250D02*
Y106750D01*
Y87250D02*
X228500Y86250D01*
X233750D01*
X234750Y87250D01*
Y93250D01*
X237250Y95750D01*
X231000Y103750D02*
X236250D01*
X237250Y102750D01*
Y95750D02*
Y102750D01*
X230750Y113250D02*
X234000Y110000D01*
X145750Y135750D02*
X149750D01*
D42*
X-4500Y25400D02*
D03*
Y12700D02*
D03*
X283900D02*
D03*
Y25400D02*
D03*
D44*
X187500Y110750D02*
D03*
X186759Y115756D02*
D03*
X238375Y167750D02*
D03*
X158750Y276500D02*
D03*
X164750Y199750D02*
D03*
X174250Y224250D02*
D03*
X179250D02*
D03*
X44750Y158000D02*
D03*
X30250D02*
D03*
X155800Y9250D02*
D03*
X54800D02*
D03*
X101500Y74000D02*
D03*
X15500Y153750D02*
D03*
Y128000D02*
D03*
X77750Y269750D02*
D03*
X201750Y207750D02*
D03*
X229750Y206500D02*
D03*
X233750Y223750D02*
D03*
X225750Y215750D02*
D03*
X158750Y135750D02*
D03*
X152750Y147750D02*
D03*
X165250Y142750D02*
D03*
X175250Y100750D02*
D03*
X178750Y97250D02*
D03*
X180500Y95500D02*
D03*
X177000Y99000D02*
D03*
X184000Y67750D02*
D03*
X192000Y83750D02*
D03*
X184000Y107750D02*
D03*
X231000Y103750D02*
D03*
X210250Y93750D02*
D03*
X145750Y142750D02*
D03*
X242750Y53750D02*
D03*
X244500Y67750D02*
D03*
X240000Y67750D02*
D03*
X192000Y51750D02*
D03*
X210250Y81250D02*
D03*
X234000Y110000D02*
D03*
X184000Y75750D02*
D03*
X153250Y60000D02*
D03*
X271500Y120250D02*
D03*
X124250Y229250D02*
D03*
X144250Y224250D02*
D03*
X129750Y223750D02*
D03*
X137250Y231000D02*
D03*
X114250Y224250D02*
D03*
Y229250D02*
D03*
X229750Y213000D02*
D03*
X248750Y180500D02*
D03*
X241750Y223750D02*
D03*
X252250Y53250D02*
D03*
X255250Y52500D02*
D03*
X209750Y183750D02*
D03*
X207000Y199750D02*
D03*
X185750Y207750D02*
D03*
X209750Y167750D02*
D03*
X201750Y175750D02*
D03*
X131500Y149000D02*
D03*
X135500Y251500D02*
D03*
X200000Y91750D02*
D03*
X250000Y110750D02*
D03*
X250250Y95656D02*
D03*
X272000Y126750D02*
D03*
X196250Y95750D02*
D03*
Y98250D02*
D03*
X201750Y231750D02*
D03*
X209750D02*
D03*
X185750Y239750D02*
D03*
X217750Y255750D02*
D03*
X241750Y247750D02*
D03*
X149250Y199250D02*
D03*
X137750Y175750D02*
D03*
X193750Y199750D02*
D03*
X107500Y145250D02*
D03*
X46250Y131250D02*
D03*
X107500Y160250D02*
D03*
X255000Y215500D02*
D03*
X161750Y247750D02*
D03*
X107500Y190750D02*
D03*
Y177250D02*
D03*
X158500Y209750D02*
D03*
X153750Y220750D02*
D03*
X241750Y167750D02*
D03*
X218750Y223250D02*
D03*
X158508Y142757D02*
D03*
X145750Y135750D02*
D03*
D45*
X240000Y83750D02*
D03*
Y43750D02*
D03*
X184000Y51750D02*
D03*
Y43750D02*
D03*
Y27750D02*
D03*
X200000D02*
D03*
X245000Y24500D02*
D03*
X15000Y264000D02*
D03*
X44250Y273500D02*
D03*
X248000Y139750D02*
D03*
Y123750D02*
D03*
X253250Y61000D02*
D03*
X184000Y131750D02*
D03*
X210500Y6750D02*
D03*
X116500Y112750D02*
D03*
X95250Y207000D02*
D03*
X273500Y184000D02*
D03*
D46*
X241750Y266750D02*
D03*
X54750Y150250D02*
D03*
X40000D02*
D03*
X101300Y41550D02*
D03*
X139400Y41550D02*
D03*
X164800Y41550D02*
D03*
X152100Y79650D02*
D03*
X75900Y79650D02*
D03*
X37800D02*
D03*
X106500Y11000D02*
D03*
X17300Y45500D02*
D03*
X114000Y86100D02*
D03*
X50500Y66950D02*
D03*
X126700Y54250D02*
D03*
X43250Y253070D02*
D03*
Y245500D02*
D03*
X176299Y12500D02*
D03*
X176250Y45500D02*
D03*
X63200Y41550D02*
D03*
M02*
