M48
;Layer_Color=0
;FILE_FORMAT=4:4
METRIC,LZ
;TYPE=PLATED
T1F00S00C0.1000
%
T01
X00222Y00078
Y000975
X0022325Y0010625
X0024425
X0025775Y0011975
X0025475Y0013575
X0024975Y0015975
Y0016775
X0023375
X0022575Y0015175
X0021775
Y0015975
X0020975
X0020175
X0019375
Y0015175
Y0013575
X0020175
Y0011975
X0016175Y0016775
X0027025Y0016275
X00088Y0022
X0008217Y0022165
Y0022665
Y0023165
X0008217Y0023665
Y0024165
Y0024665
Y0025165
Y0025665
X00091Y002595
Y002655
X0006467Y0021415
X0005967Y0021415
X0005467
X0004967Y0021415
X0012975Y0021575
X0013775Y0022375
X0014575
X0014625Y0021625
X0016175Y0021575
X0015375Y0023175
Y0023975
X0014575Y0024775
Y0025575
X0012975
X0012175
X0013775Y0024775
Y0023975
X0017775
Y0023175
Y0024775
X0016975
X0018575
Y0021575
X0019375
X0020175Y0022375
X0020975
X0021775
Y0017575
X0023375
X0024175
X0024975
X0016975
X0012175
Y0018375
Y0019175
M30
