G04 Layer_Color=6759642*
%FSLAX44Y44*%
%MOMM*%
G71*
G01*
G75*
%ADD33C,0.2000*%
D33*
X16200Y-6500D02*
X21900D01*
X28900D02*
X34600D01*
X41600D02*
X47300D01*
X54300D02*
X60000D01*
X67000D02*
X72700D01*
X79700D02*
X85400D01*
X92400D02*
X98100D01*
X105100D02*
X110800D01*
X117800D02*
X123500D01*
X130500D02*
X136200D01*
X143200D02*
X148900D01*
X155900D02*
X161600D01*
X168600D02*
X174300D01*
X181300D02*
X187000D01*
X194000D02*
X199700D01*
X206700D02*
X212400D01*
X219400D02*
X225100D01*
X231846D02*
X237546D01*
X244546D02*
X250246D01*
X257246D02*
X262946D01*
X285900Y257246D02*
Y262946D01*
X285900Y250246D02*
X285900Y244546D01*
Y231846D02*
Y237546D01*
Y219400D02*
Y225100D01*
X285900Y212400D02*
X285900Y206700D01*
Y194000D02*
Y199700D01*
Y181300D02*
Y187000D01*
X285900Y168600D02*
X285900Y174300D01*
Y155900D02*
Y161600D01*
X285900Y148900D02*
X285900Y143200D01*
Y130500D02*
Y136200D01*
Y117800D02*
Y123500D01*
X285900Y105100D02*
X285900Y110800D01*
Y92400D02*
Y98100D01*
X285900Y85400D02*
X285900Y79700D01*
Y67000D02*
Y72700D01*
Y54300D02*
Y60000D01*
X285900Y41600D02*
Y47300D01*
X285900Y28900D02*
Y34600D01*
X285900Y21900D02*
X285900Y16200D01*
X16454Y285900D02*
X22154D01*
X29154Y285900D02*
X34854Y285900D01*
X41854D02*
X47554D01*
X54300D02*
X60000D01*
X67000Y285900D02*
X72700Y285900D01*
X79700D02*
X85400D01*
X92400D02*
X98100D01*
X105100D02*
X110800Y285900D01*
X117800Y285900D02*
X123500D01*
X130500Y285900D02*
X136200Y285900D01*
X143200D02*
X148900D01*
X155900D02*
X161600D01*
X168600D02*
X174300Y285900D01*
X181300Y285900D02*
X187000D01*
X194000Y285900D02*
X199700Y285900D01*
X206700D02*
X212400D01*
X219400D02*
X225100D01*
X232100Y285900D02*
X237800D01*
X244800Y285900D02*
X250500D01*
X257500Y285900D02*
X263200Y285900D01*
X-6500Y16454D02*
Y22154D01*
Y34854D02*
X-6500Y29154D01*
X-6500Y41854D02*
Y47554D01*
Y54300D02*
Y60000D01*
Y72700D02*
X-6500Y67000D01*
X-6500Y79700D02*
Y85400D01*
Y92400D02*
Y98100D01*
Y105100D02*
X-6500Y110800D01*
X-6500Y117800D02*
Y123500D01*
Y136200D02*
X-6500Y130500D01*
X-6500Y143200D02*
Y148900D01*
Y155900D02*
Y161600D01*
Y168600D02*
X-6500Y174300D01*
X-6500Y181300D02*
Y187000D01*
Y199700D02*
X-6500Y194000D01*
X-6500Y206700D02*
Y212400D01*
Y219400D02*
Y225100D01*
X-6500Y232100D02*
Y237800D01*
X-6500Y244800D02*
Y250500D01*
Y263200D02*
X-6500Y257500D01*
X-6500Y269946D02*
Y285900D01*
X9454D01*
X285900Y269946D02*
Y285900D01*
X269946D02*
X285900D01*
X269946Y-6500D02*
X285900D01*
Y9454D01*
X-6500D02*
X9454Y-6500D01*
X-11176Y137160D02*
Y142240D01*
X-10470Y142946D02*
X-6500D01*
X-10470Y136454D02*
X-6500D01*
X-11176Y142240D02*
X-10470Y142946D01*
X-11176Y137160D02*
X-10470Y136454D01*
X-11176Y124460D02*
Y129540D01*
X-10470Y130246D02*
X-6500D01*
X-10470Y123754D02*
X-6500D01*
X-11176Y129540D02*
X-10470Y130246D01*
X-11176Y124460D02*
X-10470Y123754D01*
X-11176Y111760D02*
Y116840D01*
X-10470Y117546D02*
X-6500D01*
X-10470Y111054D02*
X-6500D01*
X-11176Y116840D02*
X-10470Y117546D01*
X-11176Y111760D02*
X-10470Y111054D01*
X-11176Y99060D02*
Y104140D01*
X-10470Y104846D02*
X-6500D01*
X-10470Y98354D02*
X-6500D01*
X-11176Y104140D02*
X-10470Y104846D01*
X-11176Y99060D02*
X-10470Y98354D01*
X-11176Y86360D02*
Y91440D01*
X-10470Y92146D02*
X-6500D01*
X-10470Y85654D02*
X-6500D01*
X-11176Y91440D02*
X-10470Y92146D01*
X-11176Y86360D02*
X-10470Y85654D01*
X-11176Y73660D02*
Y78740D01*
X-10470Y79446D02*
X-6500D01*
X-10470Y72954D02*
X-6500D01*
X-11176Y78740D02*
X-10470Y79446D01*
X-11176Y73660D02*
X-10470Y72954D01*
X-11176Y60960D02*
Y66040D01*
X-10470Y66746D02*
X-6500D01*
X-10470Y60254D02*
X-6500D01*
X-11176Y66040D02*
X-10470Y66746D01*
X-11176Y60960D02*
X-10470Y60254D01*
X-11176Y48260D02*
Y53340D01*
X-10470Y54046D02*
X-6500D01*
X-10470Y47554D02*
X-6500D01*
X-11176Y53340D02*
X-10470Y54046D01*
X-11176Y48260D02*
X-10470Y47554D01*
X-11176Y35560D02*
Y40640D01*
X-10470Y41346D02*
X-6500D01*
X-10470Y34854D02*
X-6500D01*
X-11176Y40640D02*
X-10470Y41346D01*
X-11176Y35560D02*
X-10470Y34854D01*
X-11176Y22860D02*
Y27940D01*
X-10470Y28646D02*
X-6500D01*
X-10470Y22154D02*
X-6500D01*
X-11176Y27940D02*
X-10470Y28646D01*
X-11176Y22860D02*
X-10470Y22154D01*
X-11176Y10160D02*
Y15240D01*
X-10470Y15946D02*
X-6500D01*
X-10470Y9454D02*
X-6500D01*
X-11176Y15240D02*
X-10470Y15946D01*
X-11176Y10160D02*
X-10470Y9454D01*
X10160Y-11176D02*
X15240D01*
X9454Y-10470D02*
Y-6500D01*
X15946Y-10470D02*
Y-6500D01*
X9454Y-10470D02*
X10160Y-11176D01*
X15240D02*
X15946Y-10470D01*
X22860Y-11176D02*
X27940D01*
X22154Y-10470D02*
Y-6500D01*
X28646Y-10470D02*
Y-6500D01*
X22154Y-10470D02*
X22860Y-11176D01*
X27940D02*
X28646Y-10470D01*
X35560Y-11176D02*
X40640D01*
X34854Y-10470D02*
Y-6500D01*
X41346Y-10470D02*
Y-6500D01*
X34854Y-10470D02*
X35560Y-11176D01*
X40640D02*
X41346Y-10470D01*
X48260Y-11176D02*
X53340D01*
X47554Y-10470D02*
Y-6500D01*
X54046Y-10470D02*
Y-6500D01*
X47554Y-10470D02*
X48260Y-11176D01*
X53340D02*
X54046Y-10470D01*
X60960Y-11176D02*
X66040D01*
X60254Y-10470D02*
Y-6500D01*
X66746Y-10470D02*
Y-6500D01*
X60254Y-10470D02*
X60960Y-11176D01*
X66040D02*
X66746Y-10470D01*
X73660Y-11176D02*
X78740D01*
X72954Y-10470D02*
Y-6500D01*
X79446Y-10470D02*
Y-6500D01*
X72954Y-10470D02*
X73660Y-11176D01*
X78740D02*
X79446Y-10470D01*
X86360Y-11176D02*
X91440D01*
X85654Y-10470D02*
Y-6500D01*
X92146Y-10470D02*
Y-6500D01*
X85654Y-10470D02*
X86360Y-11176D01*
X91440D02*
X92146Y-10470D01*
X99060Y-11176D02*
X104140D01*
X98354Y-10470D02*
Y-6500D01*
X104846Y-10470D02*
Y-6500D01*
X98354Y-10470D02*
X99060Y-11176D01*
X104140D02*
X104846Y-10470D01*
X111760Y-11176D02*
X116840D01*
X111054Y-10470D02*
Y-6500D01*
X117546Y-10470D02*
Y-6500D01*
X111054Y-10470D02*
X111760Y-11176D01*
X116840D02*
X117546Y-10470D01*
X124460Y-11176D02*
X129540D01*
X123754Y-10470D02*
Y-6500D01*
X130246Y-10470D02*
Y-6500D01*
X123754Y-10470D02*
X124460Y-11176D01*
X129540D02*
X130246Y-10470D01*
X137160Y-11176D02*
X142240D01*
X136454Y-10470D02*
Y-6500D01*
X142946Y-10470D02*
Y-6500D01*
X136454Y-10470D02*
X137160Y-11176D01*
X142240D02*
X142946Y-10470D01*
X149860Y-11176D02*
X154940D01*
X149154Y-10470D02*
Y-6500D01*
X155646Y-10470D02*
Y-6500D01*
X149154Y-10470D02*
X149860Y-11176D01*
X154940D02*
X155646Y-10470D01*
X162560Y-11176D02*
X167640D01*
X161854Y-10470D02*
Y-6500D01*
X168346Y-10470D02*
Y-6500D01*
X161854Y-10470D02*
X162560Y-11176D01*
X167640D02*
X168346Y-10470D01*
X175260Y-11176D02*
X180340D01*
X174554Y-10470D02*
Y-6500D01*
X181046Y-10470D02*
Y-6500D01*
X174554Y-10470D02*
X175260Y-11176D01*
X180340D02*
X181046Y-10470D01*
X187960Y-11176D02*
X193040D01*
X187254Y-10470D02*
Y-6500D01*
X193746Y-10470D02*
Y-6500D01*
X187254Y-10470D02*
X187960Y-11176D01*
X193040D02*
X193746Y-10470D01*
X200660Y-11176D02*
X205740D01*
X199954Y-10470D02*
Y-6500D01*
X206446Y-10470D02*
Y-6500D01*
X199954Y-10470D02*
X200660Y-11176D01*
X205740D02*
X206446Y-10470D01*
X213360Y-11176D02*
X218440D01*
X212654Y-10470D02*
Y-6500D01*
X219146Y-10470D02*
Y-6500D01*
X212654Y-10470D02*
X213360Y-11176D01*
X218440D02*
X219146Y-10470D01*
X226060Y-11176D02*
X231140D01*
X225354Y-10470D02*
Y-6500D01*
X231846Y-10470D02*
Y-6500D01*
X225354Y-10470D02*
X226060Y-11176D01*
X231140D02*
X231846Y-10470D01*
X238760Y-11176D02*
X243840D01*
X238054Y-10470D02*
Y-6500D01*
X244546Y-10470D02*
Y-6500D01*
X238054Y-10470D02*
X238760Y-11176D01*
X243840D02*
X244546Y-10470D01*
X251460Y-11176D02*
X256540D01*
X250754Y-10470D02*
Y-6500D01*
X257246Y-10470D02*
Y-6500D01*
X250754Y-10470D02*
X251460Y-11176D01*
X256540D02*
X257246Y-10470D01*
X264160Y-11176D02*
X269240D01*
X263454Y-10470D02*
Y-6500D01*
X269946Y-10470D02*
Y-6500D01*
X263454Y-10470D02*
X264160Y-11176D01*
X269240D02*
X269946Y-10470D01*
X290576Y10160D02*
Y15240D01*
X285900Y9454D02*
X289870D01*
X285900Y15946D02*
X289870D01*
Y9454D02*
X290576Y10160D01*
X289870Y15946D02*
X290576Y15240D01*
Y22860D02*
Y27940D01*
X285900Y22154D02*
X289870D01*
X285900Y28646D02*
X289870D01*
Y22154D02*
X290576Y22860D01*
X289870Y28646D02*
X290576Y27940D01*
Y35560D02*
Y40640D01*
X285900Y34854D02*
X289870D01*
X285900Y41346D02*
X289870D01*
Y34854D02*
X290576Y35560D01*
X289870Y41346D02*
X290576Y40640D01*
Y48260D02*
Y53340D01*
X285900Y47554D02*
X289870D01*
X285900Y54046D02*
X289870D01*
Y47554D02*
X290576Y48260D01*
X289870Y54046D02*
X290576Y53340D01*
Y60960D02*
Y66040D01*
X285900Y60254D02*
X289870D01*
X285900Y66746D02*
X289870D01*
Y60254D02*
X290576Y60960D01*
X289870Y66746D02*
X290576Y66040D01*
Y73660D02*
Y78740D01*
X285900Y72954D02*
X289870D01*
X285900Y79446D02*
X289870D01*
Y72954D02*
X290576Y73660D01*
X289870Y79446D02*
X290576Y78740D01*
Y86360D02*
Y91440D01*
X285900Y85654D02*
X289870D01*
X285900Y92146D02*
X289870D01*
Y85654D02*
X290576Y86360D01*
X289870Y92146D02*
X290576Y91440D01*
Y99060D02*
Y104140D01*
X285900Y98354D02*
X289870D01*
X285900Y104846D02*
X289870D01*
Y98354D02*
X290576Y99060D01*
X289870Y104846D02*
X290576Y104140D01*
Y111760D02*
Y116840D01*
X285900Y111054D02*
X289870D01*
X285900Y117546D02*
X289870D01*
Y111054D02*
X290576Y111760D01*
X289870Y117546D02*
X290576Y116840D01*
Y124460D02*
Y129540D01*
X285900Y123754D02*
X289870D01*
X285900Y130246D02*
X289870D01*
Y123754D02*
X290576Y124460D01*
X289870Y130246D02*
X290576Y129540D01*
Y137160D02*
Y142240D01*
X285900Y136454D02*
X289870D01*
X285900Y142946D02*
X289870D01*
Y136454D02*
X290576Y137160D01*
X289870Y142946D02*
X290576Y142240D01*
Y149860D02*
Y154940D01*
X285900Y149154D02*
X289870D01*
X285900Y155646D02*
X289870D01*
Y149154D02*
X290576Y149860D01*
X289870Y155646D02*
X290576Y154940D01*
Y162560D02*
Y167640D01*
X285900Y161854D02*
X289870D01*
X285900Y168346D02*
X289870D01*
Y161854D02*
X290576Y162560D01*
X289870Y168346D02*
X290576Y167640D01*
Y175260D02*
Y180340D01*
X285900Y174554D02*
X289870D01*
X285900Y181046D02*
X289870D01*
Y174554D02*
X290576Y175260D01*
X289870Y181046D02*
X290576Y180340D01*
Y187960D02*
Y193040D01*
X285900Y187254D02*
X289870D01*
X285900Y193746D02*
X289870D01*
Y187254D02*
X290576Y187960D01*
X289870Y193746D02*
X290576Y193040D01*
Y200660D02*
Y205740D01*
X285900Y199954D02*
X289870D01*
X285900Y206446D02*
X289870D01*
Y199954D02*
X290576Y200660D01*
X289870Y206446D02*
X290576Y205740D01*
Y213360D02*
Y218440D01*
X285900Y212654D02*
X289870D01*
X285900Y219146D02*
X289870D01*
Y212654D02*
X290576Y213360D01*
X289870Y219146D02*
X290576Y218440D01*
Y226060D02*
Y231140D01*
X285900Y225354D02*
X289870D01*
X285900Y231846D02*
X289870D01*
Y225354D02*
X290576Y226060D01*
X289870Y231846D02*
X290576Y231140D01*
Y238760D02*
Y243840D01*
X285900Y238054D02*
X289870D01*
X285900Y244546D02*
X289870D01*
Y238054D02*
X290576Y238760D01*
X289870Y244546D02*
X290576Y243840D01*
Y251460D02*
Y256540D01*
X285900Y250754D02*
X289870D01*
X285900Y257246D02*
X289870D01*
Y250754D02*
X290576Y251460D01*
X289870Y257246D02*
X290576Y256540D01*
Y264160D02*
Y269240D01*
X285900Y263454D02*
X289870D01*
X285900Y269946D02*
X289870D01*
Y263454D02*
X290576Y264160D01*
X289870Y269946D02*
X290576Y269240D01*
X264160Y290576D02*
X269240D01*
X269946Y285900D02*
Y289870D01*
X263454Y285900D02*
Y289870D01*
X269240Y290576D02*
X269946Y289870D01*
X263454D02*
X264160Y290576D01*
X251460D02*
X256540D01*
X257246Y285900D02*
Y289870D01*
X250754Y285900D02*
Y289870D01*
X256540Y290576D02*
X257246Y289870D01*
X250754D02*
X251460Y290576D01*
X238760D02*
X243840D01*
X244546Y285900D02*
Y289870D01*
X238054Y285900D02*
Y289870D01*
X243840Y290576D02*
X244546Y289870D01*
X238054D02*
X238760Y290576D01*
X226060D02*
X231140D01*
X231846Y285900D02*
Y289870D01*
X225354Y285900D02*
Y289870D01*
X231140Y290576D02*
X231846Y289870D01*
X225354D02*
X226060Y290576D01*
X213360D02*
X218440D01*
X219146Y285900D02*
Y289870D01*
X212654Y285900D02*
Y289870D01*
X218440Y290576D02*
X219146Y289870D01*
X212654D02*
X213360Y290576D01*
X200660D02*
X205740D01*
X206446Y285900D02*
Y289870D01*
X199954Y285900D02*
Y289870D01*
X205740Y290576D02*
X206446Y289870D01*
X199954D02*
X200660Y290576D01*
X187960D02*
X193040D01*
X193746Y285900D02*
Y289870D01*
X187254Y285900D02*
Y289870D01*
X193040Y290576D02*
X193746Y289870D01*
X187254D02*
X187960Y290576D01*
X175260D02*
X180340D01*
X181046Y285900D02*
Y289870D01*
X174554Y285900D02*
Y289870D01*
X180340Y290576D02*
X181046Y289870D01*
X174554D02*
X175260Y290576D01*
X162560D02*
X167640D01*
X168346Y285900D02*
Y289870D01*
X161854Y285900D02*
Y289870D01*
X167640Y290576D02*
X168346Y289870D01*
X161854D02*
X162560Y290576D01*
X149860D02*
X154940D01*
X155646Y285900D02*
Y289870D01*
X149154Y285900D02*
Y289870D01*
X154940Y290576D02*
X155646Y289870D01*
X149154D02*
X149860Y290576D01*
X137160D02*
X142240D01*
X142946Y285900D02*
Y289870D01*
X136454Y285900D02*
Y289870D01*
X142240Y290576D02*
X142946Y289870D01*
X136454D02*
X137160Y290576D01*
X124460D02*
X129540D01*
X130246Y285900D02*
Y289870D01*
X123754Y285900D02*
Y289870D01*
X129540Y290576D02*
X130246Y289870D01*
X123754D02*
X124460Y290576D01*
X111760D02*
X116840D01*
X117546Y285900D02*
Y289870D01*
X111054Y285900D02*
Y289870D01*
X116840Y290576D02*
X117546Y289870D01*
X111054D02*
X111760Y290576D01*
X99060D02*
X104140D01*
X104846Y285900D02*
Y289870D01*
X98354Y285900D02*
Y289870D01*
X104140Y290576D02*
X104846Y289870D01*
X98354D02*
X99060Y290576D01*
X86360D02*
X91440D01*
X92146Y285900D02*
Y289870D01*
X85654Y285900D02*
Y289870D01*
X91440Y290576D02*
X92146Y289870D01*
X85654D02*
X86360Y290576D01*
X73660D02*
X78740D01*
X79446Y285900D02*
Y289870D01*
X72954Y285900D02*
Y289870D01*
X78740Y290576D02*
X79446Y289870D01*
X72954D02*
X73660Y290576D01*
X60960D02*
X66040D01*
X66746Y285900D02*
Y289870D01*
X60254Y285900D02*
Y289870D01*
X66040Y290576D02*
X66746Y289870D01*
X60254D02*
X60960Y290576D01*
X48260D02*
X53340D01*
X54046Y285900D02*
Y289870D01*
X47554Y285900D02*
Y289870D01*
X53340Y290576D02*
X54046Y289870D01*
X47554D02*
X48260Y290576D01*
X35560D02*
X40640D01*
X41346Y285900D02*
Y289870D01*
X34854Y285900D02*
Y289870D01*
X40640Y290576D02*
X41346Y289870D01*
X34854D02*
X35560Y290576D01*
X22860D02*
X27940D01*
X28646Y285900D02*
Y289870D01*
X22154Y285900D02*
Y289870D01*
X27940Y290576D02*
X28646Y289870D01*
X22154D02*
X22860Y290576D01*
X10160D02*
X15240D01*
X15946Y285900D02*
Y289870D01*
X9454Y285900D02*
Y289870D01*
X15240Y290576D02*
X15946Y289870D01*
X9454D02*
X10160Y290576D01*
X-11176Y264160D02*
Y269240D01*
X-10470Y269946D02*
X-6500D01*
X-10470Y263454D02*
X-6500D01*
X-11176Y269240D02*
X-10470Y269946D01*
X-11176Y264160D02*
X-10470Y263454D01*
X-11176Y251460D02*
Y256540D01*
X-10470Y257246D02*
X-6500D01*
X-10470Y250754D02*
X-6500D01*
X-11176Y256540D02*
X-10470Y257246D01*
X-11176Y251460D02*
X-10470Y250754D01*
X-11176Y238760D02*
Y243840D01*
X-10470Y244546D02*
X-6500D01*
X-10470Y238054D02*
X-6500D01*
X-11176Y243840D02*
X-10470Y244546D01*
X-11176Y238760D02*
X-10470Y238054D01*
X-11176Y226060D02*
Y231140D01*
X-10470Y231846D02*
X-6500D01*
X-10470Y225354D02*
X-6500D01*
X-11176Y231140D02*
X-10470Y231846D01*
X-11176Y226060D02*
X-10470Y225354D01*
X-11176Y213360D02*
Y218440D01*
X-10470Y219146D02*
X-6500D01*
X-10470Y212654D02*
X-6500D01*
X-11176Y218440D02*
X-10470Y219146D01*
X-11176Y213360D02*
X-10470Y212654D01*
X-11176Y200660D02*
Y205740D01*
X-10470Y206446D02*
X-6500D01*
X-10470Y199954D02*
X-6500D01*
X-11176Y205740D02*
X-10470Y206446D01*
X-11176Y200660D02*
X-10470Y199954D01*
X-11176Y187960D02*
Y193040D01*
X-10470Y193746D02*
X-6500D01*
X-10470Y187254D02*
X-6500D01*
X-11176Y193040D02*
X-10470Y193746D01*
X-11176Y187960D02*
X-10470Y187254D01*
X-11176Y175260D02*
Y180340D01*
X-10470Y181046D02*
X-6500D01*
X-10470Y174554D02*
X-6500D01*
X-11176Y180340D02*
X-10470Y181046D01*
X-11176Y175260D02*
X-10470Y174554D01*
X-11176Y162560D02*
Y167640D01*
X-10470Y168346D02*
X-6500D01*
X-10470Y161854D02*
X-6500D01*
X-11176Y167640D02*
X-10470Y168346D01*
X-11176Y162560D02*
X-10470Y161854D01*
X-11176Y149860D02*
Y154940D01*
X-10470Y155646D02*
X-6500D01*
X-10470Y149154D02*
X-6500D01*
X-11176Y154940D02*
X-10470Y155646D01*
X-11176Y149860D02*
X-10470Y149154D01*
X16200Y-6500D02*
X21900D01*
X28900D02*
X34600D01*
X41600D02*
X47300D01*
X54300D02*
X60000D01*
X67000D02*
X72700D01*
X79700D02*
X85400D01*
X92400D02*
X98100D01*
X105100D02*
X110800D01*
X117800D02*
X123500D01*
X130500D02*
X136200D01*
X143200D02*
X148900D01*
X155900D02*
X161600D01*
X168600D02*
X174300D01*
X181300D02*
X187000D01*
X194000D02*
X199700D01*
X206700D02*
X212400D01*
X219400D02*
X225100D01*
X231846D02*
X237546D01*
X244546D02*
X250246D01*
X257246D02*
X262946D01*
X285900Y257246D02*
Y262946D01*
X285900Y250246D02*
X285900Y244546D01*
Y231846D02*
Y237546D01*
Y219400D02*
Y225100D01*
X285900Y212400D02*
X285900Y206700D01*
Y194000D02*
Y199700D01*
Y181300D02*
Y187000D01*
X285900Y168600D02*
X285900Y174300D01*
Y155900D02*
Y161600D01*
X285900Y148900D02*
X285900Y143200D01*
Y130500D02*
Y136200D01*
Y117800D02*
Y123500D01*
X285900Y105100D02*
X285900Y110800D01*
Y92400D02*
Y98100D01*
X285900Y85400D02*
X285900Y79700D01*
Y67000D02*
Y72700D01*
Y54300D02*
Y60000D01*
X285900Y41600D02*
Y47300D01*
X285900Y28900D02*
Y34600D01*
X285900Y21900D02*
X285900Y16200D01*
X16454Y285900D02*
X22154D01*
X29154Y285900D02*
X34854Y285900D01*
X41854D02*
X47554D01*
X54300D02*
X60000D01*
X67000Y285900D02*
X72700Y285900D01*
X79700D02*
X85400D01*
X92400D02*
X98100D01*
X105100D02*
X110800Y285900D01*
X117800Y285900D02*
X123500D01*
X130500Y285900D02*
X136200Y285900D01*
X143200D02*
X148900D01*
X155900D02*
X161600D01*
X168600D02*
X174300Y285900D01*
X181300Y285900D02*
X187000D01*
X194000Y285900D02*
X199700Y285900D01*
X206700D02*
X212400D01*
X219400D02*
X225100D01*
X232100Y285900D02*
X237800D01*
X244800Y285900D02*
X250500D01*
X257500Y285900D02*
X263200Y285900D01*
X-6500Y16454D02*
Y22154D01*
Y34854D02*
X-6500Y29154D01*
X-6500Y41854D02*
Y47554D01*
Y54300D02*
Y60000D01*
Y72700D02*
X-6500Y67000D01*
X-6500Y79700D02*
Y85400D01*
Y92400D02*
Y98100D01*
Y105100D02*
X-6500Y110800D01*
X-6500Y117800D02*
Y123500D01*
Y136200D02*
X-6500Y130500D01*
X-6500Y143200D02*
Y148900D01*
Y155900D02*
Y161600D01*
Y168600D02*
X-6500Y174300D01*
X-6500Y181300D02*
Y187000D01*
Y199700D02*
X-6500Y194000D01*
X-6500Y206700D02*
Y212400D01*
Y219400D02*
Y225100D01*
X-6500Y232100D02*
Y237800D01*
X-6500Y244800D02*
Y250500D01*
Y263200D02*
X-6500Y257500D01*
X-6500Y269946D02*
Y285900D01*
X9454D01*
X285900Y269946D02*
Y285900D01*
X269946D02*
X285900D01*
X269946Y-6500D02*
X285900D01*
Y9454D01*
X-6500D02*
X9454Y-6500D01*
X-11176Y137160D02*
Y142240D01*
X-10470Y142946D02*
X-6500D01*
X-10470Y136454D02*
X-6500D01*
X-11176Y142240D02*
X-10470Y142946D01*
X-11176Y137160D02*
X-10470Y136454D01*
X-11176Y124460D02*
Y129540D01*
X-10470Y130246D02*
X-6500D01*
X-10470Y123754D02*
X-6500D01*
X-11176Y129540D02*
X-10470Y130246D01*
X-11176Y124460D02*
X-10470Y123754D01*
X-11176Y111760D02*
Y116840D01*
X-10470Y117546D02*
X-6500D01*
X-10470Y111054D02*
X-6500D01*
X-11176Y116840D02*
X-10470Y117546D01*
X-11176Y111760D02*
X-10470Y111054D01*
X-11176Y99060D02*
Y104140D01*
X-10470Y104846D02*
X-6500D01*
X-10470Y98354D02*
X-6500D01*
X-11176Y104140D02*
X-10470Y104846D01*
X-11176Y99060D02*
X-10470Y98354D01*
X-11176Y86360D02*
Y91440D01*
X-10470Y92146D02*
X-6500D01*
X-10470Y85654D02*
X-6500D01*
X-11176Y91440D02*
X-10470Y92146D01*
X-11176Y86360D02*
X-10470Y85654D01*
X-11176Y73660D02*
Y78740D01*
X-10470Y79446D02*
X-6500D01*
X-10470Y72954D02*
X-6500D01*
X-11176Y78740D02*
X-10470Y79446D01*
X-11176Y73660D02*
X-10470Y72954D01*
X-11176Y60960D02*
Y66040D01*
X-10470Y66746D02*
X-6500D01*
X-10470Y60254D02*
X-6500D01*
X-11176Y66040D02*
X-10470Y66746D01*
X-11176Y60960D02*
X-10470Y60254D01*
X-11176Y48260D02*
Y53340D01*
X-10470Y54046D02*
X-6500D01*
X-10470Y47554D02*
X-6500D01*
X-11176Y53340D02*
X-10470Y54046D01*
X-11176Y48260D02*
X-10470Y47554D01*
X-11176Y35560D02*
Y40640D01*
X-10470Y41346D02*
X-6500D01*
X-10470Y34854D02*
X-6500D01*
X-11176Y40640D02*
X-10470Y41346D01*
X-11176Y35560D02*
X-10470Y34854D01*
X-11176Y22860D02*
Y27940D01*
X-10470Y28646D02*
X-6500D01*
X-10470Y22154D02*
X-6500D01*
X-11176Y27940D02*
X-10470Y28646D01*
X-11176Y22860D02*
X-10470Y22154D01*
X-11176Y10160D02*
Y15240D01*
X-10470Y15946D02*
X-6500D01*
X-10470Y9454D02*
X-6500D01*
X-11176Y15240D02*
X-10470Y15946D01*
X-11176Y10160D02*
X-10470Y9454D01*
X10160Y-11176D02*
X15240D01*
X9454Y-10470D02*
Y-6500D01*
X15946Y-10470D02*
Y-6500D01*
X9454Y-10470D02*
X10160Y-11176D01*
X15240D02*
X15946Y-10470D01*
X22860Y-11176D02*
X27940D01*
X22154Y-10470D02*
Y-6500D01*
X28646Y-10470D02*
Y-6500D01*
X22154Y-10470D02*
X22860Y-11176D01*
X27940D02*
X28646Y-10470D01*
X35560Y-11176D02*
X40640D01*
X34854Y-10470D02*
Y-6500D01*
X41346Y-10470D02*
Y-6500D01*
X34854Y-10470D02*
X35560Y-11176D01*
X40640D02*
X41346Y-10470D01*
X48260Y-11176D02*
X53340D01*
X47554Y-10470D02*
Y-6500D01*
X54046Y-10470D02*
Y-6500D01*
X47554Y-10470D02*
X48260Y-11176D01*
X53340D02*
X54046Y-10470D01*
X60960Y-11176D02*
X66040D01*
X60254Y-10470D02*
Y-6500D01*
X66746Y-10470D02*
Y-6500D01*
X60254Y-10470D02*
X60960Y-11176D01*
X66040D02*
X66746Y-10470D01*
X73660Y-11176D02*
X78740D01*
X72954Y-10470D02*
Y-6500D01*
X79446Y-10470D02*
Y-6500D01*
X72954Y-10470D02*
X73660Y-11176D01*
X78740D02*
X79446Y-10470D01*
X86360Y-11176D02*
X91440D01*
X85654Y-10470D02*
Y-6500D01*
X92146Y-10470D02*
Y-6500D01*
X85654Y-10470D02*
X86360Y-11176D01*
X91440D02*
X92146Y-10470D01*
X99060Y-11176D02*
X104140D01*
X98354Y-10470D02*
Y-6500D01*
X104846Y-10470D02*
Y-6500D01*
X98354Y-10470D02*
X99060Y-11176D01*
X104140D02*
X104846Y-10470D01*
X111760Y-11176D02*
X116840D01*
X111054Y-10470D02*
Y-6500D01*
X117546Y-10470D02*
Y-6500D01*
X111054Y-10470D02*
X111760Y-11176D01*
X116840D02*
X117546Y-10470D01*
X124460Y-11176D02*
X129540D01*
X123754Y-10470D02*
Y-6500D01*
X130246Y-10470D02*
Y-6500D01*
X123754Y-10470D02*
X124460Y-11176D01*
X129540D02*
X130246Y-10470D01*
X137160Y-11176D02*
X142240D01*
X136454Y-10470D02*
Y-6500D01*
X142946Y-10470D02*
Y-6500D01*
X136454Y-10470D02*
X137160Y-11176D01*
X142240D02*
X142946Y-10470D01*
X149860Y-11176D02*
X154940D01*
X149154Y-10470D02*
Y-6500D01*
X155646Y-10470D02*
Y-6500D01*
X149154Y-10470D02*
X149860Y-11176D01*
X154940D02*
X155646Y-10470D01*
X162560Y-11176D02*
X167640D01*
X161854Y-10470D02*
Y-6500D01*
X168346Y-10470D02*
Y-6500D01*
X161854Y-10470D02*
X162560Y-11176D01*
X167640D02*
X168346Y-10470D01*
X175260Y-11176D02*
X180340D01*
X174554Y-10470D02*
Y-6500D01*
X181046Y-10470D02*
Y-6500D01*
X174554Y-10470D02*
X175260Y-11176D01*
X180340D02*
X181046Y-10470D01*
X187960Y-11176D02*
X193040D01*
X187254Y-10470D02*
Y-6500D01*
X193746Y-10470D02*
Y-6500D01*
X187254Y-10470D02*
X187960Y-11176D01*
X193040D02*
X193746Y-10470D01*
X200660Y-11176D02*
X205740D01*
X199954Y-10470D02*
Y-6500D01*
X206446Y-10470D02*
Y-6500D01*
X199954Y-10470D02*
X200660Y-11176D01*
X205740D02*
X206446Y-10470D01*
X213360Y-11176D02*
X218440D01*
X212654Y-10470D02*
Y-6500D01*
X219146Y-10470D02*
Y-6500D01*
X212654Y-10470D02*
X213360Y-11176D01*
X218440D02*
X219146Y-10470D01*
X226060Y-11176D02*
X231140D01*
X225354Y-10470D02*
Y-6500D01*
X231846Y-10470D02*
Y-6500D01*
X225354Y-10470D02*
X226060Y-11176D01*
X231140D02*
X231846Y-10470D01*
X238760Y-11176D02*
X243840D01*
X238054Y-10470D02*
Y-6500D01*
X244546Y-10470D02*
Y-6500D01*
X238054Y-10470D02*
X238760Y-11176D01*
X243840D02*
X244546Y-10470D01*
X251460Y-11176D02*
X256540D01*
X250754Y-10470D02*
Y-6500D01*
X257246Y-10470D02*
Y-6500D01*
X250754Y-10470D02*
X251460Y-11176D01*
X256540D02*
X257246Y-10470D01*
X264160Y-11176D02*
X269240D01*
X263454Y-10470D02*
Y-6500D01*
X269946Y-10470D02*
Y-6500D01*
X263454Y-10470D02*
X264160Y-11176D01*
X269240D02*
X269946Y-10470D01*
X290576Y10160D02*
Y15240D01*
X285900Y9454D02*
X289870D01*
X285900Y15946D02*
X289870D01*
Y9454D02*
X290576Y10160D01*
X289870Y15946D02*
X290576Y15240D01*
Y22860D02*
Y27940D01*
X285900Y22154D02*
X289870D01*
X285900Y28646D02*
X289870D01*
Y22154D02*
X290576Y22860D01*
X289870Y28646D02*
X290576Y27940D01*
Y35560D02*
Y40640D01*
X285900Y34854D02*
X289870D01*
X285900Y41346D02*
X289870D01*
Y34854D02*
X290576Y35560D01*
X289870Y41346D02*
X290576Y40640D01*
Y48260D02*
Y53340D01*
X285900Y47554D02*
X289870D01*
X285900Y54046D02*
X289870D01*
Y47554D02*
X290576Y48260D01*
X289870Y54046D02*
X290576Y53340D01*
Y60960D02*
Y66040D01*
X285900Y60254D02*
X289870D01*
X285900Y66746D02*
X289870D01*
Y60254D02*
X290576Y60960D01*
X289870Y66746D02*
X290576Y66040D01*
Y73660D02*
Y78740D01*
X285900Y72954D02*
X289870D01*
X285900Y79446D02*
X289870D01*
Y72954D02*
X290576Y73660D01*
X289870Y79446D02*
X290576Y78740D01*
Y86360D02*
Y91440D01*
X285900Y85654D02*
X289870D01*
X285900Y92146D02*
X289870D01*
Y85654D02*
X290576Y86360D01*
X289870Y92146D02*
X290576Y91440D01*
Y99060D02*
Y104140D01*
X285900Y98354D02*
X289870D01*
X285900Y104846D02*
X289870D01*
Y98354D02*
X290576Y99060D01*
X289870Y104846D02*
X290576Y104140D01*
Y111760D02*
Y116840D01*
X285900Y111054D02*
X289870D01*
X285900Y117546D02*
X289870D01*
Y111054D02*
X290576Y111760D01*
X289870Y117546D02*
X290576Y116840D01*
Y124460D02*
Y129540D01*
X285900Y123754D02*
X289870D01*
X285900Y130246D02*
X289870D01*
Y123754D02*
X290576Y124460D01*
X289870Y130246D02*
X290576Y129540D01*
Y137160D02*
Y142240D01*
X285900Y136454D02*
X289870D01*
X285900Y142946D02*
X289870D01*
Y136454D02*
X290576Y137160D01*
X289870Y142946D02*
X290576Y142240D01*
Y149860D02*
Y154940D01*
X285900Y149154D02*
X289870D01*
X285900Y155646D02*
X289870D01*
Y149154D02*
X290576Y149860D01*
X289870Y155646D02*
X290576Y154940D01*
Y162560D02*
Y167640D01*
X285900Y161854D02*
X289870D01*
X285900Y168346D02*
X289870D01*
Y161854D02*
X290576Y162560D01*
X289870Y168346D02*
X290576Y167640D01*
Y175260D02*
Y180340D01*
X285900Y174554D02*
X289870D01*
X285900Y181046D02*
X289870D01*
Y174554D02*
X290576Y175260D01*
X289870Y181046D02*
X290576Y180340D01*
Y187960D02*
Y193040D01*
X285900Y187254D02*
X289870D01*
X285900Y193746D02*
X289870D01*
Y187254D02*
X290576Y187960D01*
X289870Y193746D02*
X290576Y193040D01*
Y200660D02*
Y205740D01*
X285900Y199954D02*
X289870D01*
X285900Y206446D02*
X289870D01*
Y199954D02*
X290576Y200660D01*
X289870Y206446D02*
X290576Y205740D01*
Y213360D02*
Y218440D01*
X285900Y212654D02*
X289870D01*
X285900Y219146D02*
X289870D01*
Y212654D02*
X290576Y213360D01*
X289870Y219146D02*
X290576Y218440D01*
Y226060D02*
Y231140D01*
X285900Y225354D02*
X289870D01*
X285900Y231846D02*
X289870D01*
Y225354D02*
X290576Y226060D01*
X289870Y231846D02*
X290576Y231140D01*
Y238760D02*
Y243840D01*
X285900Y238054D02*
X289870D01*
X285900Y244546D02*
X289870D01*
Y238054D02*
X290576Y238760D01*
X289870Y244546D02*
X290576Y243840D01*
Y251460D02*
Y256540D01*
X285900Y250754D02*
X289870D01*
X285900Y257246D02*
X289870D01*
Y250754D02*
X290576Y251460D01*
X289870Y257246D02*
X290576Y256540D01*
Y264160D02*
Y269240D01*
X285900Y263454D02*
X289870D01*
X285900Y269946D02*
X289870D01*
Y263454D02*
X290576Y264160D01*
X289870Y269946D02*
X290576Y269240D01*
X264160Y290576D02*
X269240D01*
X269946Y285900D02*
Y289870D01*
X263454Y285900D02*
Y289870D01*
X269240Y290576D02*
X269946Y289870D01*
X263454D02*
X264160Y290576D01*
X251460D02*
X256540D01*
X257246Y285900D02*
Y289870D01*
X250754Y285900D02*
Y289870D01*
X256540Y290576D02*
X257246Y289870D01*
X250754D02*
X251460Y290576D01*
X238760D02*
X243840D01*
X244546Y285900D02*
Y289870D01*
X238054Y285900D02*
Y289870D01*
X243840Y290576D02*
X244546Y289870D01*
X238054D02*
X238760Y290576D01*
X226060D02*
X231140D01*
X231846Y285900D02*
Y289870D01*
X225354Y285900D02*
Y289870D01*
X231140Y290576D02*
X231846Y289870D01*
X225354D02*
X226060Y290576D01*
X213360D02*
X218440D01*
X219146Y285900D02*
Y289870D01*
X212654Y285900D02*
Y289870D01*
X218440Y290576D02*
X219146Y289870D01*
X212654D02*
X213360Y290576D01*
X200660D02*
X205740D01*
X206446Y285900D02*
Y289870D01*
X199954Y285900D02*
Y289870D01*
X205740Y290576D02*
X206446Y289870D01*
X199954D02*
X200660Y290576D01*
X187960D02*
X193040D01*
X193746Y285900D02*
Y289870D01*
X187254Y285900D02*
Y289870D01*
X193040Y290576D02*
X193746Y289870D01*
X187254D02*
X187960Y290576D01*
X175260D02*
X180340D01*
X181046Y285900D02*
Y289870D01*
X174554Y285900D02*
Y289870D01*
X180340Y290576D02*
X181046Y289870D01*
X174554D02*
X175260Y290576D01*
X162560D02*
X167640D01*
X168346Y285900D02*
Y289870D01*
X161854Y285900D02*
Y289870D01*
X167640Y290576D02*
X168346Y289870D01*
X161854D02*
X162560Y290576D01*
X149860D02*
X154940D01*
X155646Y285900D02*
Y289870D01*
X149154Y285900D02*
Y289870D01*
X154940Y290576D02*
X155646Y289870D01*
X149154D02*
X149860Y290576D01*
X137160D02*
X142240D01*
X142946Y285900D02*
Y289870D01*
X136454Y285900D02*
Y289870D01*
X142240Y290576D02*
X142946Y289870D01*
X136454D02*
X137160Y290576D01*
X124460D02*
X129540D01*
X130246Y285900D02*
Y289870D01*
X123754Y285900D02*
Y289870D01*
X129540Y290576D02*
X130246Y289870D01*
X123754D02*
X124460Y290576D01*
X111760D02*
X116840D01*
X117546Y285900D02*
Y289870D01*
X111054Y285900D02*
Y289870D01*
X116840Y290576D02*
X117546Y289870D01*
X111054D02*
X111760Y290576D01*
X99060D02*
X104140D01*
X104846Y285900D02*
Y289870D01*
X98354Y285900D02*
Y289870D01*
X104140Y290576D02*
X104846Y289870D01*
X98354D02*
X99060Y290576D01*
X86360D02*
X91440D01*
X92146Y285900D02*
Y289870D01*
X85654Y285900D02*
Y289870D01*
X91440Y290576D02*
X92146Y289870D01*
X85654D02*
X86360Y290576D01*
X73660D02*
X78740D01*
X79446Y285900D02*
Y289870D01*
X72954Y285900D02*
Y289870D01*
X78740Y290576D02*
X79446Y289870D01*
X72954D02*
X73660Y290576D01*
X60960D02*
X66040D01*
X66746Y285900D02*
Y289870D01*
X60254Y285900D02*
Y289870D01*
X66040Y290576D02*
X66746Y289870D01*
X60254D02*
X60960Y290576D01*
X48260D02*
X53340D01*
X54046Y285900D02*
Y289870D01*
X47554Y285900D02*
Y289870D01*
X53340Y290576D02*
X54046Y289870D01*
X47554D02*
X48260Y290576D01*
X35560D02*
X40640D01*
X41346Y285900D02*
Y289870D01*
X34854Y285900D02*
Y289870D01*
X40640Y290576D02*
X41346Y289870D01*
X34854D02*
X35560Y290576D01*
X22860D02*
X27940D01*
X28646Y285900D02*
Y289870D01*
X22154Y285900D02*
Y289870D01*
X27940Y290576D02*
X28646Y289870D01*
X22154D02*
X22860Y290576D01*
X10160D02*
X15240D01*
X15946Y285900D02*
Y289870D01*
X9454Y285900D02*
Y289870D01*
X15240Y290576D02*
X15946Y289870D01*
X9454D02*
X10160Y290576D01*
X-11176Y264160D02*
Y269240D01*
X-10470Y269946D02*
X-6500D01*
X-10470Y263454D02*
X-6500D01*
X-11176Y269240D02*
X-10470Y269946D01*
X-11176Y264160D02*
X-10470Y263454D01*
X-11176Y251460D02*
Y256540D01*
X-10470Y257246D02*
X-6500D01*
X-10470Y250754D02*
X-6500D01*
X-11176Y256540D02*
X-10470Y257246D01*
X-11176Y251460D02*
X-10470Y250754D01*
X-11176Y238760D02*
Y243840D01*
X-10470Y244546D02*
X-6500D01*
X-10470Y238054D02*
X-6500D01*
X-11176Y243840D02*
X-10470Y244546D01*
X-11176Y238760D02*
X-10470Y238054D01*
X-11176Y226060D02*
Y231140D01*
X-10470Y231846D02*
X-6500D01*
X-10470Y225354D02*
X-6500D01*
X-11176Y231140D02*
X-10470Y231846D01*
X-11176Y226060D02*
X-10470Y225354D01*
X-11176Y213360D02*
Y218440D01*
X-10470Y219146D02*
X-6500D01*
X-10470Y212654D02*
X-6500D01*
X-11176Y218440D02*
X-10470Y219146D01*
X-11176Y213360D02*
X-10470Y212654D01*
X-11176Y200660D02*
Y205740D01*
X-10470Y206446D02*
X-6500D01*
X-10470Y199954D02*
X-6500D01*
X-11176Y205740D02*
X-10470Y206446D01*
X-11176Y200660D02*
X-10470Y199954D01*
X-11176Y187960D02*
Y193040D01*
X-10470Y193746D02*
X-6500D01*
X-10470Y187254D02*
X-6500D01*
X-11176Y193040D02*
X-10470Y193746D01*
X-11176Y187960D02*
X-10470Y187254D01*
X-11176Y175260D02*
Y180340D01*
X-10470Y181046D02*
X-6500D01*
X-10470Y174554D02*
X-6500D01*
X-11176Y180340D02*
X-10470Y181046D01*
X-11176Y175260D02*
X-10470Y174554D01*
X-11176Y162560D02*
Y167640D01*
X-10470Y168346D02*
X-6500D01*
X-10470Y161854D02*
X-6500D01*
X-11176Y167640D02*
X-10470Y168346D01*
X-11176Y162560D02*
X-10470Y161854D01*
X-11176Y149860D02*
Y154940D01*
X-10470Y155646D02*
X-6500D01*
X-10470Y149154D02*
X-6500D01*
X-11176Y154940D02*
X-10470Y155646D01*
X-11176Y149860D02*
X-10470Y149154D01*
M02*
