G04 Layer_Physical_Order=4*
G04 Layer_Color=3162822*
%FSLAX44Y44*%
%MOMM*%
G71*
G01*
G75*
%ADD33C,0.2000*%
%ADD34C,0.3000*%
%ADD35C,0.1500*%
%ADD36C,0.1000*%
%ADD37C,0.2500*%
%ADD38C,0.7000*%
%ADD39C,0.6000*%
%ADD40C,0.4000*%
G04:AMPARAMS|DCode=42|XSize=0.7mm|YSize=1.6mm|CornerRadius=0.175mm|HoleSize=0mm|Usage=FLASHONLY|Rotation=90.000|XOffset=0mm|YOffset=0mm|HoleType=Round|Shape=RoundedRectangle|*
%AMROUNDEDRECTD42*
21,1,0.7000,1.2500,0,0,90.0*
21,1,0.3500,1.6000,0,0,90.0*
1,1,0.3500,0.6250,0.1750*
1,1,0.3500,0.6250,-0.1750*
1,1,0.3500,-0.6250,-0.1750*
1,1,0.3500,-0.6250,0.1750*
%
%ADD42ROUNDEDRECTD42*%
G04:AMPARAMS|DCode=43|XSize=0.7mm|YSize=1.6mm|CornerRadius=0.175mm|HoleSize=0mm|Usage=FLASHONLY|Rotation=180.000|XOffset=0mm|YOffset=0mm|HoleType=Round|Shape=RoundedRectangle|*
%AMROUNDEDRECTD43*
21,1,0.7000,1.2500,0,0,180.0*
21,1,0.3500,1.6000,0,0,180.0*
1,1,0.3500,-0.1750,0.6250*
1,1,0.3500,0.1750,0.6250*
1,1,0.3500,0.1750,-0.6250*
1,1,0.3500,-0.1750,-0.6250*
%
%ADD43ROUNDEDRECTD43*%
%ADD44C,0.2000*%
%ADD45C,0.4000*%
%ADD46C,0.6000*%
%ADD47C,1.0000*%
%ADD48C,0.3000*%
%ADD49C,0.5000*%
G36*
X279400Y271254D02*
X277650D01*
X276577Y271040D01*
X275667Y270433D01*
X275060Y269523D01*
X274846Y268450D01*
Y264950D01*
X275060Y263877D01*
X275667Y262967D01*
X276577Y262360D01*
X277650Y262146D01*
X279400D01*
Y258554D01*
X277650D01*
X276577Y258340D01*
X275667Y257733D01*
X275060Y256823D01*
X274846Y255750D01*
Y252250D01*
X275060Y251177D01*
X275667Y250267D01*
X276577Y249660D01*
X277650Y249446D01*
X279400D01*
Y245854D01*
X277650D01*
X276577Y245640D01*
X275667Y245033D01*
X275060Y244123D01*
X274846Y243050D01*
Y239550D01*
X275060Y238477D01*
X275667Y237567D01*
X276577Y236960D01*
X277650Y236746D01*
X279400D01*
Y233154D01*
X277650D01*
X276577Y232940D01*
X275667Y232333D01*
X275060Y231423D01*
X274846Y230350D01*
Y226850D01*
X275060Y225777D01*
X275667Y224867D01*
X276577Y224260D01*
X277650Y224046D01*
X279400D01*
Y220454D01*
X277650D01*
X276577Y220240D01*
X275667Y219633D01*
X275060Y218723D01*
X274846Y217650D01*
Y214150D01*
X275060Y213077D01*
X275667Y212167D01*
X276577Y211560D01*
X277650Y211346D01*
X279400D01*
Y207754D01*
X277650D01*
X276577Y207540D01*
X275667Y206933D01*
X275060Y206023D01*
X274846Y204950D01*
Y201450D01*
X275060Y200377D01*
X275667Y199467D01*
X276577Y198860D01*
X277650Y198646D01*
X279400D01*
Y195054D01*
X277650D01*
X276577Y194840D01*
X275667Y194233D01*
X275060Y193323D01*
X274846Y192250D01*
Y188750D01*
X275060Y187677D01*
X275667Y186767D01*
X276577Y186160D01*
X277650Y185946D01*
X279400D01*
Y182354D01*
X277650D01*
X276577Y182140D01*
X275667Y181533D01*
X275060Y180623D01*
X274846Y179550D01*
Y176050D01*
X274897Y175794D01*
X274075Y174579D01*
X273687Y174524D01*
X273135Y174664D01*
X272713Y175319D01*
X272799Y175750D01*
X272605Y176726D01*
X272052Y177552D01*
X270799Y178806D01*
Y187250D01*
X270605Y188225D01*
X270052Y189052D01*
X269862Y189243D01*
X270089Y189955D01*
X270408Y190492D01*
X271030Y190616D01*
X271692Y191058D01*
X272134Y191720D01*
X272289Y192500D01*
X272134Y193280D01*
X271692Y193942D01*
X271030Y194384D01*
X270250Y194539D01*
X269470Y194384D01*
X268808Y193942D01*
X268366Y193280D01*
X268242Y192659D01*
X267705Y192339D01*
X266993Y192112D01*
X238302Y220802D01*
X237475Y221355D01*
X236500Y221549D01*
X232764D01*
X231789Y222750D01*
X231634Y223530D01*
X231249Y224106D01*
X231348Y224552D01*
X231705Y225376D01*
X237827D01*
X239775Y223429D01*
X239866Y222970D01*
X240308Y222308D01*
X240970Y221866D01*
X241750Y221711D01*
X242530Y221866D01*
X243192Y222308D01*
X243634Y222970D01*
X243789Y223750D01*
X243634Y224530D01*
X243192Y225192D01*
X242530Y225634D01*
X242071Y225725D01*
X239648Y228148D01*
X238500Y228624D01*
X226783D01*
X226548Y229782D01*
X226572Y229894D01*
X227192Y230308D01*
X227634Y230970D01*
X227789Y231750D01*
X227634Y232530D01*
X227192Y233192D01*
X226530Y233634D01*
X225750Y233789D01*
X224970Y233634D01*
X224308Y233192D01*
X223866Y232530D01*
X223711Y231750D01*
X223866Y230970D01*
X224308Y230308D01*
X224928Y229894D01*
X224953Y229782D01*
X224717Y228624D01*
X218783D01*
X218547Y229782D01*
X218572Y229894D01*
X219192Y230308D01*
X219634Y230970D01*
X219789Y231750D01*
X219634Y232530D01*
X219192Y233192D01*
X218530Y233634D01*
X217750Y233789D01*
X216970Y233634D01*
X216308Y233192D01*
X215866Y232530D01*
X215711Y231750D01*
X215866Y230970D01*
X216308Y230308D01*
X216928Y229894D01*
X216952Y229782D01*
X216717Y228624D01*
X193160D01*
X192039Y229500D01*
X191884Y230280D01*
X191442Y230942D01*
X190780Y231384D01*
X190000Y231539D01*
X189220Y231384D01*
X188830Y231124D01*
X188647D01*
X187768Y232394D01*
X187789Y232500D01*
X187634Y233280D01*
X187192Y233942D01*
X186530Y234384D01*
X185750Y234539D01*
X184970Y234384D01*
X184308Y233942D01*
X183866Y233280D01*
X183711Y232500D01*
X183732Y232394D01*
X182853Y231124D01*
X165672D01*
X163027Y233769D01*
X163192Y235308D01*
X163634Y235970D01*
X163789Y236750D01*
X163634Y237530D01*
X163192Y238192D01*
X162530Y238634D01*
X161750Y238789D01*
X160970Y238634D01*
X160308Y238192D01*
X158769Y238027D01*
X141324Y255473D01*
Y266795D01*
X142594Y267450D01*
X142720Y267366D01*
X143500Y267211D01*
X144280Y267366D01*
X144942Y267808D01*
X145384Y268470D01*
X145539Y269250D01*
X145384Y270030D01*
X144942Y270692D01*
X144280Y271134D01*
X143500Y271289D01*
X142720Y271134D01*
X142594Y271050D01*
X141324Y271705D01*
Y274846D01*
X141450D01*
X142523Y275060D01*
X143433Y275667D01*
X144040Y276577D01*
X144254Y277650D01*
Y279400D01*
X147846D01*
Y277650D01*
X148060Y276577D01*
X148667Y275667D01*
X149577Y275060D01*
X150650Y274846D01*
X154150D01*
X155223Y275060D01*
X156133Y275667D01*
X156740Y276577D01*
X156954Y277650D01*
Y279400D01*
X160546D01*
Y277650D01*
X160760Y276577D01*
X161367Y275667D01*
X162277Y275060D01*
X163350Y274846D01*
X166850D01*
X167923Y275060D01*
X168833Y275667D01*
X169440Y276577D01*
X169654Y277650D01*
Y279400D01*
X173246D01*
Y277650D01*
X173460Y276577D01*
X174067Y275667D01*
X174977Y275060D01*
X176050Y274846D01*
X179550D01*
X180623Y275060D01*
X181533Y275667D01*
X182140Y276577D01*
X182354Y277650D01*
Y279400D01*
X185946D01*
Y277650D01*
X186160Y276577D01*
X186767Y275667D01*
X187677Y275060D01*
X188750Y274846D01*
X192250D01*
X193323Y275060D01*
X194233Y275667D01*
X194840Y276577D01*
X195054Y277650D01*
Y279400D01*
X198646D01*
Y277650D01*
X198860Y276577D01*
X199467Y275667D01*
X200377Y275060D01*
X201450Y274846D01*
X204950D01*
X206023Y275060D01*
X206933Y275667D01*
X207540Y276577D01*
X207754Y277650D01*
Y279400D01*
X211346D01*
Y277650D01*
X211560Y276577D01*
X212167Y275667D01*
X213077Y275060D01*
X214150Y274846D01*
X217650D01*
X218723Y275060D01*
X219633Y275667D01*
X220240Y276577D01*
X220454Y277650D01*
Y279400D01*
X224046D01*
Y277650D01*
X224260Y276577D01*
X224867Y275667D01*
X225777Y275060D01*
X226850Y274846D01*
X230350D01*
X231423Y275060D01*
X232333Y275667D01*
X232940Y276577D01*
X233154Y277650D01*
Y279400D01*
X236746D01*
Y277650D01*
X236960Y276577D01*
X237567Y275667D01*
X238477Y275060D01*
X239550Y274846D01*
X243050D01*
X244123Y275060D01*
X245033Y275667D01*
X245640Y276577D01*
X245854Y277650D01*
Y279400D01*
X249446D01*
Y277650D01*
X249660Y276577D01*
X250267Y275667D01*
X251177Y275060D01*
X252250Y274846D01*
X255750D01*
X256823Y275060D01*
X257733Y275667D01*
X258340Y276577D01*
X258554Y277650D01*
Y279400D01*
X262146D01*
Y277650D01*
X262360Y276577D01*
X262967Y275667D01*
X263877Y275060D01*
X264950Y274846D01*
X268450D01*
X269523Y275060D01*
X270433Y275667D01*
X271040Y276577D01*
X271254Y277650D01*
Y279400D01*
X279400D01*
Y271254D01*
D02*
G37*
G36*
X84346Y277650D02*
X84560Y276577D01*
X85167Y275667D01*
X85972Y275130D01*
X86079Y274590D01*
X86049Y273770D01*
X85558Y273442D01*
X85116Y272780D01*
X84961Y272000D01*
X85116Y271220D01*
X85558Y270558D01*
X86220Y270116D01*
X87000Y269961D01*
X87780Y270116D01*
X88170Y270376D01*
X113737D01*
X114774Y269246D01*
X114726Y268675D01*
X114340Y268374D01*
X62270D01*
X61122Y267898D01*
X59670Y266446D01*
X57968Y268148D01*
X56820Y268624D01*
X30422D01*
X28398Y270648D01*
X27250Y271124D01*
X16422D01*
X16225Y271321D01*
X16134Y271780D01*
X15692Y272442D01*
X15030Y272884D01*
X14250Y273039D01*
X13470Y272884D01*
X12808Y272442D01*
X12366Y271780D01*
X12211Y271000D01*
X12366Y270220D01*
X12808Y269558D01*
X13470Y269116D01*
X13929Y269025D01*
X14602Y268352D01*
X15750Y267876D01*
X21402D01*
X22112Y266606D01*
X21941Y265750D01*
X22174Y264580D01*
X22837Y263587D01*
X23830Y262924D01*
X25000Y262691D01*
X26170Y262924D01*
X27163Y263587D01*
X27826Y264580D01*
X27885Y264879D01*
X27911Y264914D01*
X29292Y265566D01*
X29750Y265376D01*
X36673D01*
X37631Y264150D01*
X37786Y263370D01*
X38228Y262708D01*
X38890Y262266D01*
X39670Y262111D01*
X40450Y262266D01*
X41112Y262708D01*
X41506Y263297D01*
X42069Y263370D01*
X42271D01*
X42834Y263297D01*
X43228Y262708D01*
X43890Y262266D01*
X44670Y262111D01*
X45450Y262266D01*
X46112Y262708D01*
X46505Y263297D01*
X47069Y263370D01*
X47271D01*
X47834Y263297D01*
X48228Y262708D01*
X48890Y262266D01*
X49670Y262111D01*
X50450Y262266D01*
X51112Y262708D01*
X51506Y263297D01*
X52069Y263370D01*
X52271D01*
X52834Y263297D01*
X53228Y262708D01*
X53890Y262266D01*
X54670Y262111D01*
X55450Y262266D01*
X56112Y262708D01*
X56476Y263252D01*
X56559Y263304D01*
X57069Y263370D01*
X57271D01*
X57834Y263297D01*
X58228Y262708D01*
X58890Y262266D01*
X59670Y262111D01*
X60450Y262266D01*
X61112Y262708D01*
X61554Y263370D01*
X61645Y263829D01*
X62943Y265126D01*
X66530D01*
X67631Y264150D01*
X67786Y263370D01*
X68228Y262708D01*
X68890Y262266D01*
X69670Y262111D01*
X70450Y262266D01*
X71112Y262708D01*
X71505Y263297D01*
X72069Y263370D01*
X72271D01*
X72834Y263297D01*
X73228Y262708D01*
X73890Y262266D01*
X74670Y262111D01*
X75450Y262266D01*
X76112Y262708D01*
X76554Y263370D01*
X76709Y264150D01*
X77810Y265126D01*
X123577D01*
X156673Y232031D01*
X156342Y230566D01*
X155948Y230302D01*
X155395Y229475D01*
X155201Y228500D01*
X155395Y227525D01*
X155948Y226698D01*
X156775Y226145D01*
X157750Y225951D01*
X158725Y226145D01*
X159552Y226698D01*
X159816Y227092D01*
X161281Y227423D01*
X162852Y225852D01*
X164000Y225376D01*
X166186D01*
X167211Y224250D01*
X167366Y223470D01*
X167808Y222808D01*
X168397Y222414D01*
X168470Y221851D01*
Y221649D01*
X168397Y221086D01*
X167808Y220692D01*
X167366Y220030D01*
X167273Y219562D01*
X166039Y219750D01*
X165884Y220530D01*
X165442Y221192D01*
X164780Y221634D01*
X164000Y221789D01*
X163220Y221634D01*
X162558Y221192D01*
X162116Y220530D01*
X161961Y219750D01*
X162047Y219319D01*
X161479Y218327D01*
X161204Y218049D01*
X155806D01*
X154802Y219052D01*
X153975Y219605D01*
X153000Y219799D01*
X149500D01*
X148525Y219605D01*
X147698Y219052D01*
X146694Y218049D01*
X143929D01*
X143678Y218392D01*
X143366Y219319D01*
X143634Y219720D01*
X143789Y220500D01*
X143634Y221280D01*
X143192Y221942D01*
X142530Y222384D01*
X141750Y222539D01*
X140970Y222384D01*
X140308Y221942D01*
X139866Y221280D01*
X139711Y220500D01*
X139866Y219720D01*
X140134Y219319D01*
X139822Y218392D01*
X139571Y218049D01*
X137264D01*
X136289Y219250D01*
X136134Y220030D01*
X135692Y220692D01*
X135030Y221134D01*
X134250Y221289D01*
X133470Y221134D01*
X132808Y220692D01*
X132366Y220030D01*
X132211Y219250D01*
X131236Y218049D01*
X127250D01*
X126269Y219149D01*
X126289Y219250D01*
X126134Y220030D01*
X125692Y220692D01*
X125030Y221134D01*
X124250Y221289D01*
X123470Y221134D01*
X122808Y220692D01*
X122366Y220030D01*
X122211Y219250D01*
X122366Y218470D01*
X122808Y217808D01*
X123470Y217366D01*
X123674Y217325D01*
X124137Y215992D01*
X107860Y199715D01*
X105263Y202312D01*
X105889Y203483D01*
X106000Y203461D01*
X106780Y203616D01*
X107442Y204058D01*
X107884Y204720D01*
X108039Y205500D01*
X107884Y206280D01*
X107442Y206942D01*
X106780Y207384D01*
X106000Y207539D01*
X105220Y207384D01*
X104558Y206942D01*
X104116Y206280D01*
X103961Y205500D01*
X104001Y205297D01*
X102858Y204534D01*
X102421Y204826D01*
X101250Y205059D01*
X101250Y205059D01*
X80647D01*
X79539Y206000D01*
X79384Y206780D01*
X78942Y207442D01*
X78280Y207884D01*
X77500Y208039D01*
X76720Y207884D01*
X76058Y207442D01*
X75616Y206780D01*
X75461Y206000D01*
X74353Y205059D01*
X49397D01*
X48289Y206000D01*
X48134Y206780D01*
X47692Y207442D01*
X47031Y207884D01*
X46250Y208039D01*
X45470Y207884D01*
X44808Y207442D01*
X44366Y206780D01*
X44211Y206000D01*
X43103Y205059D01*
X22500D01*
X21330Y204826D01*
X20337Y204163D01*
X18018Y201844D01*
X16493Y202115D01*
X16442Y202192D01*
X16313Y202278D01*
X15993Y203382D01*
X16117Y203820D01*
X16384Y204220D01*
X16539Y205000D01*
X16384Y205780D01*
X15942Y206442D01*
X15280Y206884D01*
X14500Y207039D01*
X13720Y206884D01*
X13058Y206442D01*
X12616Y205780D01*
X12461Y205000D01*
X12616Y204220D01*
X13058Y203558D01*
X13187Y203472D01*
X13507Y202368D01*
X13383Y201930D01*
X13116Y201530D01*
X13058Y201236D01*
X12783Y200642D01*
X11805Y200050D01*
X5533D01*
X4528Y201320D01*
X4554Y201450D01*
Y204950D01*
X4340Y206023D01*
X4157Y206297D01*
X4193Y206676D01*
X4549Y207791D01*
X4562Y207804D01*
X4942Y208058D01*
X5384Y208720D01*
X5539Y209500D01*
X5384Y210280D01*
X4942Y210942D01*
X4515Y211227D01*
X4466Y211287D01*
X4164Y212240D01*
X4099Y212715D01*
X4340Y213077D01*
X4554Y214150D01*
Y217650D01*
X4340Y218723D01*
X3733Y219633D01*
X2823Y220240D01*
X1750Y220454D01*
X0D01*
Y224046D01*
X1750D01*
X2823Y224260D01*
X3733Y224867D01*
X4340Y225777D01*
X4554Y226850D01*
Y230350D01*
X4340Y231423D01*
X3733Y232333D01*
X2823Y232940D01*
X1750Y233154D01*
X0D01*
Y236746D01*
X1750D01*
X2823Y236960D01*
X3733Y237567D01*
X4340Y238477D01*
X4554Y239550D01*
Y243050D01*
X4340Y244123D01*
X3733Y245033D01*
X2823Y245640D01*
X1750Y245854D01*
X0D01*
Y249446D01*
X1750D01*
X2823Y249660D01*
X3733Y250267D01*
X4340Y251177D01*
X4554Y252250D01*
Y255750D01*
X4340Y256823D01*
X3733Y257733D01*
X2823Y258340D01*
X1750Y258554D01*
X0D01*
Y262146D01*
X1750D01*
X2823Y262360D01*
X3733Y262967D01*
X4340Y263877D01*
X4554Y264950D01*
Y268450D01*
X4340Y269523D01*
X3733Y270433D01*
X2823Y271040D01*
X1750Y271254D01*
X0D01*
Y279400D01*
X8146D01*
Y277650D01*
X8360Y276577D01*
X8967Y275667D01*
X9877Y275060D01*
X10950Y274846D01*
X14450D01*
X15523Y275060D01*
X16433Y275667D01*
X17040Y276577D01*
X17254Y277650D01*
Y279400D01*
X20846D01*
Y277650D01*
X21060Y276577D01*
X21667Y275667D01*
X22577Y275060D01*
X23650Y274846D01*
X27150D01*
X28223Y275060D01*
X29133Y275667D01*
X29740Y276577D01*
X29954Y277650D01*
Y279400D01*
X33546D01*
Y277650D01*
X33760Y276577D01*
X34367Y275667D01*
X35277Y275060D01*
X36350Y274846D01*
X39850D01*
X40923Y275060D01*
X41833Y275667D01*
X42440Y276577D01*
X42654Y277650D01*
Y279400D01*
X46246D01*
Y277650D01*
X46460Y276577D01*
X47067Y275667D01*
X47977Y275060D01*
X49050Y274846D01*
X52550D01*
X53623Y275060D01*
X54533Y275667D01*
X55140Y276577D01*
X55354Y277650D01*
Y279400D01*
X58946D01*
Y277650D01*
X59160Y276577D01*
X59767Y275667D01*
X60677Y275060D01*
X61750Y274846D01*
X65250D01*
X66323Y275060D01*
X67233Y275667D01*
X67840Y276577D01*
X68054Y277650D01*
Y279400D01*
X71646D01*
Y277650D01*
X71860Y276577D01*
X72467Y275667D01*
X73377Y275060D01*
X74450Y274846D01*
X77950D01*
X79023Y275060D01*
X79933Y275667D01*
X80540Y276577D01*
X80754Y277650D01*
Y279400D01*
X84346D01*
Y277650D01*
D02*
G37*
G36*
X225948Y217198D02*
X226775Y216645D01*
X227750Y216451D01*
X229005D01*
X229947Y215181D01*
X229875Y214944D01*
X229901Y214680D01*
X229849Y214419D01*
X229940Y214283D01*
X229956Y214120D01*
X230071Y214025D01*
X230159Y212726D01*
X229441Y212142D01*
X228176Y212316D01*
X228134Y212530D01*
X227692Y213192D01*
X227030Y213634D01*
X226250Y213789D01*
X225737Y213767D01*
X225296Y214750D01*
X225278Y214767D01*
X225276Y214792D01*
X225276Y214792D01*
X225222Y214839D01*
X225208Y214909D01*
X225173Y214963D01*
X225172Y214963D01*
X225172Y214963D01*
X224886Y215392D01*
X224772Y215961D01*
X224625Y216182D01*
X224548Y216437D01*
X224547Y216437D01*
X224424Y216587D01*
X224375Y216613D01*
X224353Y216665D01*
X224016Y216805D01*
X223695Y216977D01*
X223694Y216977D01*
X223640Y216961D01*
X223588Y216982D01*
X217943D01*
X217744Y216900D01*
X217529D01*
X217376Y216748D01*
X217177Y216665D01*
X217095Y216466D01*
X216943Y216314D01*
X216853Y216096D01*
X215866Y215797D01*
X214500Y216069D01*
X213134Y215797D01*
X211977Y215023D01*
X211203Y213866D01*
X210931Y212500D01*
Y210777D01*
X209750Y209789D01*
X208970Y209634D01*
X208308Y209192D01*
X207866Y208530D01*
X207711Y207750D01*
X207866Y206970D01*
X208308Y206308D01*
X208552Y206145D01*
X208716Y205873D01*
X208939Y204882D01*
X208930Y204579D01*
X208453Y203866D01*
X208181Y202500D01*
Y198728D01*
X206772Y197319D01*
X205500D01*
X204134Y197047D01*
X202977Y196273D01*
X195523Y188820D01*
X194005Y189098D01*
X193942Y189192D01*
X193280Y189634D01*
X192500Y189789D01*
X191720Y189634D01*
X191058Y189192D01*
X190442D01*
X189780Y189634D01*
X189000Y189789D01*
X188220Y189634D01*
X187558Y189192D01*
X187116Y188530D01*
X186961Y187750D01*
X187116Y186970D01*
X187558Y186308D01*
X188220Y185866D01*
X189000Y185711D01*
X189780Y185866D01*
X189914Y185956D01*
X190681Y185687D01*
X190982Y184279D01*
X172477Y165773D01*
X171703Y164616D01*
X171431Y163250D01*
Y162559D01*
X171172Y162293D01*
X170161Y161707D01*
X169750Y161789D01*
X168970Y161634D01*
X168308Y161192D01*
X167866Y160530D01*
X167711Y159750D01*
X167866Y158970D01*
X168308Y158308D01*
X168702Y158045D01*
X168952Y157161D01*
X168616Y156651D01*
X167951Y156069D01*
X165750D01*
X164384Y155797D01*
X163227Y155023D01*
X162453Y153866D01*
X162066Y153706D01*
X161788Y153891D01*
X161008Y154047D01*
X160228Y153891D01*
X159566Y153449D01*
X159384Y153177D01*
X159074Y153305D01*
X158753Y153477D01*
X158699Y153461D01*
X158646Y153482D01*
X156323D01*
X156271Y153461D01*
X156217Y153477D01*
X155894Y153305D01*
X155557Y153165D01*
X154530Y153634D01*
X153750Y153789D01*
X152970Y153634D01*
X151943Y153165D01*
X151605Y153305D01*
X151284Y153477D01*
X151229Y153461D01*
X151177Y153482D01*
X148323D01*
X148271Y153461D01*
X148216Y153477D01*
X147894Y153305D01*
X147557Y153165D01*
X146530Y153634D01*
X145750Y153789D01*
X144970Y153634D01*
X143943Y153165D01*
X143605Y153305D01*
X143284Y153477D01*
X143230Y153461D01*
X143177Y153482D01*
X140955D01*
X140701Y153377D01*
X140428Y153345D01*
X139453Y152802D01*
X139192Y153192D01*
X138530Y153634D01*
X137750Y153789D01*
X136970Y153634D01*
X136308Y153192D01*
X135866Y152530D01*
X135711Y151750D01*
X135822Y151189D01*
X135543Y151074D01*
X130427Y145957D01*
X130330Y145725D01*
X130293Y145681D01*
X129750Y145789D01*
X128970Y145634D01*
X128308Y145192D01*
X127866Y144530D01*
X127711Y143750D01*
X127819Y143207D01*
X127775Y143170D01*
X127543Y143074D01*
X122427Y137957D01*
X122330Y137725D01*
X122293Y137681D01*
X121750Y137789D01*
X120970Y137634D01*
X120308Y137192D01*
X119866Y136530D01*
X119711Y135750D01*
X119866Y134970D01*
X120104Y134613D01*
X119885Y133434D01*
X119731Y133063D01*
X119568Y132698D01*
X119574Y132683D01*
X119568Y132668D01*
Y109364D01*
X119709Y109022D01*
X119820Y108669D01*
X120018Y108432D01*
X120366Y107280D01*
X120211Y106500D01*
X120366Y105720D01*
X120018Y104568D01*
X119820Y104331D01*
X119709Y103978D01*
X119568Y103636D01*
Y101838D01*
X23000D01*
X21244Y101489D01*
X19756Y100494D01*
X5709Y86448D01*
X4539Y87073D01*
X4554Y87150D01*
Y90650D01*
X4340Y91723D01*
X3733Y92633D01*
X2823Y93240D01*
X1750Y93454D01*
X0D01*
Y97012D01*
X7350D01*
X9106Y97361D01*
X10594Y98356D01*
X25401Y113162D01*
X70500D01*
X72256Y113511D01*
X73744Y114506D01*
X74739Y115994D01*
X75088Y117750D01*
X74739Y119506D01*
X73744Y120995D01*
X72256Y121989D01*
X70500Y122338D01*
X69977D01*
X69310Y123608D01*
X69384Y123720D01*
X69539Y124500D01*
X69475Y124820D01*
X70138Y125796D01*
X70433Y125997D01*
X71030Y126116D01*
X71692Y126558D01*
X72134Y127220D01*
X72289Y128000D01*
X72145Y128724D01*
X72274Y128899D01*
X73109Y129608D01*
X73183Y129558D01*
X73470Y129366D01*
X74250Y129211D01*
X75030Y129366D01*
X75692Y129808D01*
X76808D01*
X77470Y129366D01*
X78250Y129211D01*
X79030Y129366D01*
X79692Y129808D01*
X80134Y130470D01*
X80289Y131250D01*
X80134Y132031D01*
X79692Y132692D01*
X79030Y133134D01*
X78250Y133289D01*
X77470Y133134D01*
X76808Y132692D01*
X75692D01*
X75030Y133134D01*
X74250Y133289D01*
X73470Y133134D01*
X72808Y132692D01*
X72366Y132031D01*
X72211Y131250D01*
X72355Y130526D01*
X72226Y130351D01*
X71392Y129643D01*
X71318Y129692D01*
X71030Y129884D01*
X70250Y130039D01*
X69470Y129884D01*
X68808Y129442D01*
X68366Y128780D01*
X68211Y128000D01*
X68240Y127852D01*
X67070Y127226D01*
X65648Y128648D01*
X64672Y129052D01*
X64275Y129808D01*
X64083Y130394D01*
X64134Y130470D01*
X64289Y131250D01*
X64134Y132031D01*
X63692Y132692D01*
X63031Y133134D01*
X62250Y133289D01*
X61470Y133134D01*
X60808Y132692D01*
X59692D01*
X59030Y133134D01*
X58250Y133289D01*
X57470Y133134D01*
X56808Y132692D01*
X55692D01*
X55030Y133134D01*
X54250Y133289D01*
X53470Y133134D01*
X52808Y132692D01*
X51692D01*
X51031Y133134D01*
X50250Y133289D01*
X49470Y133134D01*
X48808Y132692D01*
X47692D01*
X47031Y133134D01*
X46250Y133289D01*
X45470Y133134D01*
X44808Y132692D01*
X44366Y132031D01*
X44211Y131250D01*
X44366Y130470D01*
X44808Y129808D01*
X45470Y129366D01*
X46250Y129211D01*
X47031Y129366D01*
X47692Y129808D01*
X48808D01*
X49470Y129366D01*
X50250Y129211D01*
X51031Y129366D01*
X51692Y129808D01*
X52808D01*
X53470Y129366D01*
X54250Y129211D01*
X55030Y129366D01*
X55462Y129655D01*
X55816Y129603D01*
X55855Y129588D01*
X56632Y128538D01*
X56614Y128411D01*
X52828Y124624D01*
X28855D01*
X28498Y125448D01*
X28399Y125894D01*
X28784Y126470D01*
X28939Y127250D01*
X28784Y128030D01*
X28342Y128692D01*
X27680Y129134D01*
X26900Y129289D01*
X26120Y129134D01*
X25458Y128692D01*
X25016Y128030D01*
X24861Y127250D01*
X25016Y126470D01*
X25401Y125894D01*
X25302Y125448D01*
X24945Y124624D01*
X21643D01*
X21539Y124750D01*
X21384Y125530D01*
X20942Y126192D01*
X20280Y126634D01*
X19500Y126789D01*
X18720Y126634D01*
X18433Y126442D01*
X18359Y126393D01*
X17525Y127101D01*
X17395Y127277D01*
X17539Y128000D01*
X17384Y128781D01*
X16942Y129442D01*
X16280Y129884D01*
X15500Y130040D01*
X14720Y129884D01*
X14058Y129442D01*
X13616Y128781D01*
X13461Y128000D01*
X13616Y127220D01*
X14058Y126558D01*
X14720Y126116D01*
X15500Y125961D01*
X16280Y126116D01*
X16567Y126308D01*
X16641Y126357D01*
X17475Y125650D01*
X17605Y125474D01*
X17461Y124750D01*
X17616Y123970D01*
X18058Y123308D01*
X17885Y121896D01*
X11913Y115924D01*
X4554D01*
Y116050D01*
X4340Y117123D01*
X3733Y118033D01*
X2823Y118640D01*
X1750Y118854D01*
X0D01*
Y122446D01*
X1750D01*
X2823Y122660D01*
X3733Y123267D01*
X4340Y124177D01*
X4554Y125250D01*
Y128750D01*
X4340Y129823D01*
X3733Y130733D01*
X2823Y131340D01*
X1750Y131554D01*
X0D01*
Y135200D01*
X4500D01*
Y144200D01*
X0D01*
Y147846D01*
X1750D01*
X2823Y148060D01*
X3733Y148667D01*
X4340Y149577D01*
X4554Y150650D01*
Y154150D01*
X4340Y155223D01*
X3733Y156133D01*
X2823Y156740D01*
X1750Y156954D01*
X0D01*
Y160546D01*
X1750D01*
X2823Y160760D01*
X3733Y161367D01*
X4340Y162277D01*
X4554Y163350D01*
Y166850D01*
X4340Y167923D01*
X3733Y168833D01*
X2823Y169440D01*
X1750Y169654D01*
X0D01*
Y173246D01*
X1750D01*
X2823Y173460D01*
X3733Y174067D01*
X4340Y174977D01*
X4554Y176050D01*
Y179550D01*
X4340Y180623D01*
X3733Y181533D01*
X2823Y182140D01*
X1750Y182354D01*
X0D01*
Y185946D01*
X1750D01*
X2823Y186160D01*
X3733Y186767D01*
X4340Y187677D01*
X4554Y188750D01*
Y192250D01*
X4472Y192663D01*
X5299Y193866D01*
X5415Y193932D01*
X11443D01*
X11830Y193674D01*
X13000Y193441D01*
X17000D01*
X17000Y193441D01*
X18170Y193674D01*
X19163Y194337D01*
X23767Y198941D01*
X89603D01*
X90711Y198000D01*
X90866Y197220D01*
X91308Y196558D01*
X91970Y196116D01*
X92750Y195961D01*
X93531Y196116D01*
X94192Y196558D01*
X94634Y197220D01*
X94789Y198000D01*
X95897Y198941D01*
X99983D01*
X105337Y193587D01*
X106329Y192924D01*
X107500Y192691D01*
X108671Y192924D01*
X109663Y193587D01*
X110326Y194579D01*
X110423Y195068D01*
X128306Y212951D01*
X147750D01*
X148015Y213004D01*
X149126Y212770D01*
X149531Y212390D01*
X149708Y211625D01*
X149503Y210735D01*
X149366Y210530D01*
X149211Y209750D01*
X149366Y208970D01*
X149808Y208308D01*
X150470Y207866D01*
X151250Y207711D01*
X152030Y207866D01*
X152692Y208308D01*
X153134Y208970D01*
X153289Y209750D01*
X153134Y210530D01*
X152997Y210735D01*
X152792Y211625D01*
X152969Y212390D01*
X153374Y212770D01*
X154485Y213004D01*
X154750Y212951D01*
X189486D01*
X190461Y211750D01*
X190616Y210970D01*
X191058Y210308D01*
X191462Y210038D01*
X191731Y209769D01*
X191873Y208541D01*
X191866Y208530D01*
X191711Y207750D01*
X191866Y206970D01*
X192308Y206308D01*
X192970Y205866D01*
X193750Y205711D01*
X194530Y205866D01*
X195192Y206308D01*
X195634Y206970D01*
X195789Y207750D01*
X195634Y208530D01*
X195192Y209192D01*
X194788Y209462D01*
X194519Y209731D01*
X194377Y210959D01*
X194384Y210970D01*
X194539Y211750D01*
X195208Y212880D01*
X195487Y212998D01*
X196225Y213145D01*
X197052Y213698D01*
X198530Y215175D01*
X199483Y215029D01*
X199968Y214817D01*
X200308Y214308D01*
X200970Y213866D01*
X201750Y213711D01*
X202530Y213866D01*
X203192Y214308D01*
X203634Y214970D01*
X203789Y215750D01*
X203634Y216530D01*
X203631Y216535D01*
X204183Y217941D01*
X204359Y217976D01*
X205532Y217141D01*
X205616Y216720D01*
X206058Y216058D01*
X206720Y215616D01*
X207500Y215461D01*
X208280Y215616D01*
X208942Y216058D01*
X209384Y216720D01*
X209539Y217500D01*
X210645Y218451D01*
X224694D01*
X225948Y217198D01*
D02*
G37*
G36*
X241300Y210595D02*
Y169700D01*
X240970Y169634D01*
X240308Y169192D01*
X239817D01*
X239156Y169634D01*
X238375Y169789D01*
X237595Y169634D01*
X236933Y169192D01*
X236491Y168530D01*
X236336Y167750D01*
X236491Y166970D01*
X236933Y166308D01*
X237595Y165866D01*
X238375Y165711D01*
X239156Y165866D01*
X239817Y166308D01*
X240240D01*
X241300Y165637D01*
Y146050D01*
X235278Y140028D01*
X233901Y140447D01*
X233884Y140530D01*
X233442Y141192D01*
X232780Y141634D01*
X232000Y141789D01*
X231220Y141634D01*
X230558Y141192D01*
X230116Y140530D01*
X229961Y139750D01*
X230116Y138969D01*
X230558Y138308D01*
X231220Y137866D01*
X231303Y137849D01*
X231721Y136471D01*
X205242Y109992D01*
X204338Y110381D01*
X204034Y110580D01*
X203894Y111286D01*
X203452Y111947D01*
X202790Y112389D01*
X202010Y112545D01*
X201229Y112389D01*
X200568Y111947D01*
X200126Y111286D01*
X199971Y110505D01*
X200126Y109725D01*
X200175Y109652D01*
X199496Y108382D01*
X196259D01*
X195512Y109529D01*
X195643Y109725D01*
X195799Y110505D01*
X195643Y111286D01*
X195201Y111947D01*
X194540Y112389D01*
X193759Y112545D01*
X192979Y112389D01*
X192318Y111947D01*
X191875Y111286D01*
X191720Y110505D01*
X191875Y109725D01*
X192318Y109064D01*
X192979Y108621D01*
X193619Y108494D01*
X193637Y108476D01*
X193961Y107923D01*
X194206Y107260D01*
X193904Y106809D01*
X193710Y105833D01*
X193904Y104858D01*
X194457Y104031D01*
X195284Y103478D01*
X196259Y103284D01*
X196875D01*
X197361Y102111D01*
X195211Y99961D01*
X194808Y99692D01*
X194538Y99289D01*
X190500Y95250D01*
Y90094D01*
X189230Y89501D01*
X189030Y89634D01*
X188250Y89789D01*
X187470Y89634D01*
X186808Y89192D01*
X186366Y88530D01*
X186211Y87750D01*
X186366Y86970D01*
X186808Y86308D01*
X187470Y85866D01*
X188250Y85711D01*
X189030Y85866D01*
X189230Y85999D01*
X190500Y85405D01*
Y82550D01*
X174725Y66775D01*
X174689Y66768D01*
X173366Y65884D01*
X172482Y64561D01*
X172475Y64525D01*
X171450Y63500D01*
X145047D01*
X144023Y64523D01*
X142866Y65297D01*
X141500Y65569D01*
X131281D01*
X120650Y76200D01*
Y103636D01*
X120848Y103873D01*
X121920Y104526D01*
X122250Y104461D01*
X123030Y104616D01*
X123692Y105058D01*
X124134Y105720D01*
X124289Y106500D01*
X124134Y107280D01*
X123692Y107942D01*
X123030Y108384D01*
X122250Y108539D01*
X121920Y108474D01*
X120848Y109127D01*
X120650Y109364D01*
Y132668D01*
X121750Y133711D01*
X122530Y133866D01*
X123192Y134308D01*
X123634Y134970D01*
X123789Y135750D01*
X123634Y136530D01*
X123192Y137192D01*
X123192Y137192D01*
X128308Y142308D01*
X128308Y142308D01*
X128970Y141866D01*
X129750Y141711D01*
X130530Y141866D01*
X131192Y142308D01*
X131634Y142970D01*
X131789Y143750D01*
X131634Y144530D01*
X131192Y145192D01*
X131192Y145192D01*
X136308Y150308D01*
X136970Y149866D01*
X137750Y149711D01*
X138530Y149866D01*
X139192Y150308D01*
X139634Y150970D01*
X139789Y151750D01*
X140955Y152400D01*
X143177D01*
X143711Y151750D01*
X143866Y150970D01*
X144308Y150308D01*
X144970Y149866D01*
X145750Y149711D01*
X146530Y149866D01*
X147192Y150308D01*
X147634Y150970D01*
X147789Y151750D01*
X148323Y152400D01*
X151177D01*
X151711Y151750D01*
X151866Y150970D01*
X151902Y150915D01*
X151957Y149869D01*
X151539Y149347D01*
X151308Y149192D01*
X150866Y148530D01*
X150711Y147750D01*
X150866Y146970D01*
X151308Y146308D01*
X151970Y145866D01*
X152750Y145711D01*
X153531Y145866D01*
X154192Y146308D01*
X154634Y146970D01*
X154789Y147750D01*
X154634Y148530D01*
X154598Y148585D01*
X154543Y149631D01*
X154961Y150154D01*
X155192Y150308D01*
X155634Y150970D01*
X155789Y151750D01*
X156323Y152400D01*
X158646D01*
X158969Y152007D01*
X159124Y151227D01*
X159323Y150929D01*
X158646Y149769D01*
X158508Y149796D01*
X157727Y149641D01*
X157066Y149199D01*
X156624Y148538D01*
X156468Y147757D01*
X156624Y146977D01*
X157066Y146315D01*
X157727Y145873D01*
X158508Y145718D01*
X159288Y145873D01*
X159950Y146315D01*
X160392Y146977D01*
X160547Y147757D01*
X160392Y148538D01*
X160193Y148835D01*
X160869Y149996D01*
X161008Y149968D01*
X161788Y150123D01*
X162450Y150566D01*
X163206Y150008D01*
X163227Y149977D01*
X164384Y149203D01*
X165750Y148931D01*
X170000D01*
X171366Y149203D01*
X172523Y149977D01*
X174478Y151932D01*
X174871Y151874D01*
X175774Y151431D01*
X175866Y150970D01*
X176308Y150308D01*
X176970Y149866D01*
X177750Y149711D01*
X178530Y149866D01*
X179192Y150308D01*
X179634Y150970D01*
X179789Y151750D01*
X180323Y152400D01*
X183177D01*
X183711Y151750D01*
X183866Y150970D01*
X184308Y150308D01*
X184970Y149866D01*
X185750Y149711D01*
X186530Y149866D01*
X187192Y150308D01*
X187634Y150970D01*
X187789Y151750D01*
X188323Y152400D01*
X212651D01*
X213750Y152182D01*
X215250D01*
X216616Y152453D01*
X217773Y153227D01*
X218547Y154384D01*
X218818Y155750D01*
Y164249D01*
X218819Y164250D01*
Y170250D01*
Y182059D01*
X219192Y182308D01*
X219634Y182970D01*
X219789Y183750D01*
X219634Y184530D01*
X219192Y185192D01*
X218819Y185441D01*
Y190022D01*
X221273Y192477D01*
X222047Y193634D01*
X222319Y195000D01*
Y208250D01*
X222047Y209616D01*
X221273Y210773D01*
X217417Y214630D01*
X217943Y215900D01*
X223588D01*
X223711Y215750D01*
X223866Y214970D01*
X224272Y214362D01*
X224308Y214308D01*
X224308Y214308D01*
X224749Y213324D01*
X224517Y212757D01*
X224366Y212530D01*
X224211Y211750D01*
X224366Y210970D01*
X224808Y210308D01*
X225469Y209866D01*
X226250Y209711D01*
X227030Y209866D01*
X227692Y210308D01*
X228134Y210970D01*
X229439Y211023D01*
X229750Y210961D01*
X230530Y211116D01*
X231192Y211558D01*
X231634Y212220D01*
X231789Y213000D01*
X231634Y213780D01*
X231192Y214442D01*
X230911Y214630D01*
X231296Y215900D01*
X235995D01*
X241300Y210595D01*
D02*
G37*
G36*
X266698Y169698D02*
X267525Y169145D01*
X268500Y168951D01*
X269451D01*
Y161000D01*
X269645Y160025D01*
X270156Y159260D01*
X269698Y158802D01*
X269145Y157975D01*
X268951Y157000D01*
Y148056D01*
X268948Y148052D01*
X268395Y147226D01*
X268201Y146250D01*
X268395Y145275D01*
X268948Y144448D01*
X269774Y143895D01*
X270750Y143701D01*
X271725Y143895D01*
X272552Y144448D01*
X273302Y145198D01*
X273855Y146025D01*
X274049Y147000D01*
Y148804D01*
X275319Y149189D01*
X275667Y148667D01*
X276577Y148060D01*
X277650Y147846D01*
X279400D01*
Y144254D01*
X277650D01*
X276577Y144040D01*
X275667Y143433D01*
X275060Y142523D01*
X274846Y141450D01*
Y137950D01*
X275060Y136877D01*
X275667Y135967D01*
X276577Y135360D01*
X277650Y135146D01*
X279400D01*
Y131554D01*
X277650D01*
X276577Y131340D01*
X275667Y130733D01*
X275060Y129823D01*
X274846Y128750D01*
Y125250D01*
X275060Y124177D01*
X275667Y123267D01*
X276577Y122660D01*
X277650Y122446D01*
X279400D01*
Y118854D01*
X277650D01*
X276577Y118640D01*
X275667Y118033D01*
X275060Y117123D01*
X274846Y116050D01*
Y112550D01*
X275060Y111477D01*
X275667Y110567D01*
X276577Y109960D01*
X277650Y109746D01*
X279400D01*
Y106154D01*
X277650D01*
X276577Y105940D01*
X275667Y105333D01*
X275060Y104423D01*
X274846Y103350D01*
Y99850D01*
X275060Y98777D01*
X275667Y97867D01*
X276577Y97260D01*
X277650Y97046D01*
X279400D01*
Y93454D01*
X277650D01*
X276577Y93240D01*
X275667Y92633D01*
X275060Y91723D01*
X274846Y90650D01*
Y87150D01*
X275060Y86077D01*
X275667Y85167D01*
X276577Y84560D01*
X277650Y84346D01*
X279400D01*
Y80754D01*
X277650D01*
X276577Y80540D01*
X275667Y79933D01*
X275060Y79023D01*
X274846Y77950D01*
Y74450D01*
X275060Y73377D01*
X275667Y72467D01*
X276577Y71860D01*
X277650Y71646D01*
X279400D01*
Y68054D01*
X277650D01*
X276577Y67840D01*
X275667Y67233D01*
X275060Y66323D01*
X274846Y65250D01*
Y61750D01*
X275060Y60677D01*
X275667Y59767D01*
X276577Y59160D01*
X277650Y58946D01*
X279400D01*
Y55354D01*
X277650D01*
X276577Y55140D01*
X275667Y54533D01*
X275060Y53623D01*
X274846Y52550D01*
Y49050D01*
X275060Y47977D01*
X275667Y47067D01*
X276577Y46460D01*
X277650Y46246D01*
X279400D01*
Y42654D01*
X277650D01*
X276577Y42440D01*
X275667Y41833D01*
X275060Y40923D01*
X274846Y39850D01*
Y36350D01*
X275060Y35277D01*
X275667Y34367D01*
X276577Y33760D01*
X277650Y33546D01*
X279400D01*
Y29954D01*
X277650D01*
X276577Y29740D01*
X275667Y29133D01*
X275060Y28223D01*
X274846Y27150D01*
Y23650D01*
X275060Y22577D01*
X275667Y21667D01*
X276577Y21060D01*
X277650Y20846D01*
X279400D01*
Y17254D01*
X277650D01*
X276577Y17040D01*
X275667Y16433D01*
X275060Y15523D01*
X274846Y14450D01*
Y10950D01*
X275060Y9877D01*
X275667Y8967D01*
X276577Y8360D01*
X277650Y8146D01*
X279400D01*
Y0D01*
X271254D01*
Y1750D01*
X271040Y2823D01*
X270433Y3733D01*
X269523Y4340D01*
X268450Y4554D01*
X264950D01*
X263877Y4340D01*
X262967Y3733D01*
X262360Y2823D01*
X262146Y1750D01*
Y0D01*
X258554D01*
Y1750D01*
X258340Y2823D01*
X257733Y3733D01*
X256823Y4340D01*
X255750Y4554D01*
X252250D01*
X251177Y4340D01*
X250267Y3733D01*
X249660Y2823D01*
X249446Y1750D01*
Y0D01*
X245854D01*
Y1750D01*
X245640Y2823D01*
X245033Y3733D01*
X244123Y4340D01*
X243050Y4554D01*
X239550D01*
X238477Y4340D01*
X237567Y3733D01*
X236960Y2823D01*
X236746Y1750D01*
Y0D01*
X233154D01*
Y1750D01*
X232940Y2823D01*
X232333Y3733D01*
X231423Y4340D01*
X230350Y4554D01*
X226850D01*
X225777Y4340D01*
X224867Y3733D01*
X224260Y2823D01*
X224046Y1750D01*
Y0D01*
X220454D01*
Y1750D01*
X220240Y2823D01*
X219633Y3733D01*
X218723Y4340D01*
X217650Y4554D01*
X214150D01*
X213077Y4340D01*
X212167Y3733D01*
X211560Y2823D01*
X211346Y1750D01*
Y0D01*
X207754D01*
Y1750D01*
X207540Y2823D01*
X206933Y3733D01*
X206023Y4340D01*
X204950Y4554D01*
X201450D01*
X200377Y4340D01*
X199467Y3733D01*
X198860Y2823D01*
X198646Y1750D01*
Y0D01*
X195054D01*
Y1750D01*
X194840Y2823D01*
X194233Y3733D01*
X193323Y4340D01*
X192250Y4554D01*
X188750D01*
X187677Y4340D01*
X186767Y3733D01*
X186160Y2823D01*
X185946Y1750D01*
Y0D01*
X182354D01*
Y1750D01*
X182140Y2823D01*
X181533Y3733D01*
X180623Y4340D01*
X179550Y4554D01*
X176050D01*
X174977Y4340D01*
X174067Y3733D01*
X173460Y2823D01*
X173246Y1750D01*
Y0D01*
X169654D01*
Y1750D01*
X169440Y2823D01*
X168833Y3733D01*
X167923Y4340D01*
X166850Y4554D01*
X163350D01*
X162277Y4340D01*
X161367Y3733D01*
X160760Y2823D01*
X160546Y1750D01*
Y0D01*
X156954D01*
Y1750D01*
X156740Y2823D01*
X156133Y3733D01*
X155223Y4340D01*
X154150Y4554D01*
X150650D01*
X149577Y4340D01*
X148667Y3733D01*
X148060Y2823D01*
X147846Y1750D01*
Y0D01*
X144254D01*
Y1750D01*
X144040Y2823D01*
X143433Y3733D01*
X142523Y4340D01*
X141450Y4554D01*
X137950D01*
X136877Y4340D01*
X135967Y3733D01*
X135360Y2823D01*
X135146Y1750D01*
Y0D01*
X131554D01*
Y1750D01*
X131340Y2823D01*
X130733Y3733D01*
X129823Y4340D01*
X128750Y4554D01*
X125250D01*
X124177Y4340D01*
X123267Y3733D01*
X122660Y2823D01*
X122446Y1750D01*
Y0D01*
X118854D01*
Y1750D01*
X118640Y2823D01*
X118033Y3733D01*
X117123Y4340D01*
X116050Y4554D01*
X112550D01*
X111477Y4340D01*
X110567Y3733D01*
X109960Y2823D01*
X109746Y1750D01*
Y0D01*
X106154D01*
Y1750D01*
X105940Y2823D01*
X105333Y3733D01*
X104423Y4340D01*
X103350Y4554D01*
X99850D01*
X98777Y4340D01*
X97867Y3733D01*
X97260Y2823D01*
X97046Y1750D01*
Y0D01*
X93454D01*
Y1750D01*
X93240Y2823D01*
X92633Y3733D01*
X91723Y4340D01*
X90650Y4554D01*
X87150D01*
X86077Y4340D01*
X85167Y3733D01*
X84560Y2823D01*
X84346Y1750D01*
Y0D01*
X80754D01*
Y1750D01*
X80540Y2823D01*
X79933Y3733D01*
X79023Y4340D01*
X77950Y4554D01*
X74450D01*
X73377Y4340D01*
X72467Y3733D01*
X71860Y2823D01*
X71646Y1750D01*
Y0D01*
X68054D01*
Y1750D01*
X67840Y2823D01*
X67233Y3733D01*
X66323Y4340D01*
X65250Y4554D01*
X61750D01*
X60677Y4340D01*
X59767Y3733D01*
X59160Y2823D01*
X58946Y1750D01*
Y0D01*
X55354D01*
Y1750D01*
X55140Y2823D01*
X54533Y3733D01*
X53623Y4340D01*
X52550Y4554D01*
X49050D01*
X47977Y4340D01*
X47067Y3733D01*
X46460Y2823D01*
X46246Y1750D01*
Y0D01*
X42654D01*
Y1750D01*
X42440Y2823D01*
X41833Y3733D01*
X40923Y4340D01*
X39850Y4554D01*
X36350D01*
X35277Y4340D01*
X34367Y3733D01*
X33760Y2823D01*
X33546Y1750D01*
Y0D01*
X29954D01*
Y1750D01*
X29740Y2823D01*
X29133Y3733D01*
X28223Y4340D01*
X27150Y4554D01*
X23650D01*
X22577Y4340D01*
X21667Y3733D01*
X21060Y2823D01*
X20846Y1750D01*
Y0D01*
X17254D01*
Y1750D01*
X17040Y2823D01*
X16433Y3733D01*
X15523Y4340D01*
X14450Y4554D01*
X10950D01*
X9877Y4340D01*
X8967Y3733D01*
X0Y12700D01*
Y31852D01*
X1173Y32338D01*
X17256Y16256D01*
X18744Y15261D01*
X20500Y14912D01*
X165750D01*
X167506Y15261D01*
X168994Y16256D01*
X172244Y19506D01*
X173623Y19088D01*
X173674Y18829D01*
X174337Y17837D01*
X175329Y17174D01*
X176500Y16941D01*
X177670Y17174D01*
X178663Y17837D01*
X179326Y18829D01*
X179559Y20000D01*
X179326Y21170D01*
X178663Y22163D01*
X177670Y22826D01*
X177412Y22877D01*
X176994Y24255D01*
X179494Y26756D01*
X180489Y28244D01*
X180838Y30000D01*
X180489Y31756D01*
X179494Y33244D01*
X178006Y34239D01*
X177722Y34295D01*
X174884Y37134D01*
X173561Y38018D01*
X172000Y38328D01*
X172000Y38328D01*
X161089D01*
X156006Y43411D01*
X156532Y44681D01*
X167750D01*
X169116Y44953D01*
X170273Y45727D01*
X173478Y48931D01*
X179772D01*
X184477Y44227D01*
X185634Y43453D01*
X187000Y43181D01*
X195358D01*
X196059Y42116D01*
X196092Y41911D01*
X195961Y41250D01*
X196116Y40470D01*
X196558Y39808D01*
X197220Y39366D01*
X198000Y39211D01*
X198780Y39366D01*
X199442Y39808D01*
X199884Y40470D01*
X200039Y41250D01*
X199943Y41734D01*
X200699Y42839D01*
X201786Y42917D01*
X215227Y29477D01*
X216384Y28703D01*
X216667Y28647D01*
X217616Y27780D01*
X217461Y27000D01*
X217616Y26220D01*
X218058Y25558D01*
X218720Y25116D01*
X219284Y25004D01*
X219335Y24871D01*
X219527Y23929D01*
X219531Y23758D01*
X219058Y23442D01*
X218616Y22780D01*
X218461Y22000D01*
X218616Y21220D01*
X219058Y20558D01*
X219720Y20116D01*
X220500Y19961D01*
X221280Y20116D01*
X221942Y20558D01*
X222384Y21220D01*
X222539Y22000D01*
X222384Y22780D01*
X221942Y23442D01*
X221280Y23884D01*
X220716Y23996D01*
X220665Y24130D01*
X220473Y25071D01*
X220469Y25242D01*
X220942Y25558D01*
X221384Y26220D01*
X221539Y27000D01*
X221507Y27161D01*
X222360Y28431D01*
X241500D01*
X242866Y28703D01*
X244023Y29477D01*
X265523Y50977D01*
X266297Y52134D01*
X266569Y53500D01*
Y67000D01*
X266297Y68366D01*
X265523Y69523D01*
X265336Y69711D01*
X266041Y70802D01*
X266500Y70710D01*
X267280Y70866D01*
X267942Y71308D01*
X268384Y71969D01*
X268539Y72750D01*
X268384Y73530D01*
X267942Y74191D01*
X267280Y74634D01*
X266500Y74789D01*
X265720Y74634D01*
X265058Y74191D01*
X264616Y73530D01*
X264461Y72750D01*
X264552Y72291D01*
X263461Y71585D01*
X261523Y73523D01*
X260366Y74297D01*
X259000Y74569D01*
X257634Y74297D01*
X256477Y73523D01*
X255703Y72366D01*
X255431Y71000D01*
X255703Y69634D01*
X256477Y68477D01*
X259431Y65522D01*
Y59027D01*
X258250Y58039D01*
X257470Y57884D01*
X256808Y57442D01*
X256366Y56781D01*
X256211Y56000D01*
X256285Y55625D01*
X255597Y54717D01*
X255307Y54528D01*
X255250Y54539D01*
X254470Y54384D01*
X254074Y54120D01*
X253692Y54692D01*
X253030Y55134D01*
X252250Y55289D01*
X251470Y55134D01*
X250808Y54692D01*
X250366Y54030D01*
X250211Y53250D01*
X250366Y52470D01*
X250808Y51808D01*
X251470Y51366D01*
X252250Y51211D01*
X252653Y51291D01*
X253647Y50654D01*
X253864Y49411D01*
X240022Y35569D01*
X222777D01*
X221789Y36750D01*
X221634Y37530D01*
X221192Y38192D01*
X220727Y38503D01*
X220718Y38523D01*
X220630Y39381D01*
X220699Y39895D01*
X220942Y40058D01*
X221384Y40720D01*
X221388Y40742D01*
X221761Y41963D01*
X222541Y42118D01*
X223203Y42560D01*
X223584Y43130D01*
X223645Y43222D01*
X223668Y43285D01*
X223782Y43602D01*
X224981Y43604D01*
X225090Y43293D01*
X225116Y43220D01*
X225161Y43153D01*
X225558Y42558D01*
X226220Y42116D01*
X227000Y41961D01*
X227780Y42116D01*
X228442Y42558D01*
X228884Y43220D01*
X229039Y44000D01*
X228884Y44780D01*
X228442Y45442D01*
X227780Y45884D01*
X227000Y46039D01*
X226220Y45884D01*
X225558Y45442D01*
X225177Y44872D01*
X225116Y44780D01*
X225093Y44717D01*
X224979Y44400D01*
X223779Y44398D01*
X223671Y44709D01*
X223645Y44783D01*
X223600Y44850D01*
X223203Y45444D01*
X222541Y45886D01*
X221761Y46041D01*
X220980Y45886D01*
X220319Y45444D01*
X219877Y44783D01*
X219872Y44760D01*
X219500Y43539D01*
X218720Y43384D01*
X218058Y42942D01*
X217616Y42280D01*
X217461Y41500D01*
X217616Y40720D01*
X218058Y40058D01*
X218524Y39747D01*
X218531Y39727D01*
X218620Y38869D01*
X218552Y38355D01*
X218308Y38192D01*
X216769Y38028D01*
X205523Y49273D01*
X204366Y50047D01*
X203000Y50319D01*
X202860D01*
X202007Y51589D01*
X202039Y51750D01*
X201884Y52530D01*
X201442Y53191D01*
X200780Y53633D01*
X200000Y53789D01*
X199220Y53633D01*
X198558Y53191D01*
X198116Y52530D01*
X197961Y51750D01*
X197993Y51589D01*
X197140Y50319D01*
X188478D01*
X183773Y55023D01*
X182616Y55797D01*
X181250Y56069D01*
X172000D01*
X170634Y55797D01*
X169477Y55023D01*
X166272Y51819D01*
X161277D01*
X160289Y53000D01*
X160134Y53780D01*
X159692Y54442D01*
X159030Y54884D01*
X158250Y55039D01*
X157470Y54884D01*
X156808Y54442D01*
X156445Y53898D01*
X156205Y53750D01*
X155021Y53526D01*
X147302Y61244D01*
X147788Y62418D01*
X156049D01*
X156248Y62162D01*
X156611Y61148D01*
X156366Y60780D01*
X156211Y60000D01*
X156366Y59220D01*
X156808Y58558D01*
X157470Y58116D01*
X158250Y57961D01*
X159030Y58116D01*
X159692Y58558D01*
X160134Y59220D01*
X160289Y60000D01*
X160134Y60780D01*
X159888Y61148D01*
X160252Y62162D01*
X160451Y62418D01*
X171450D01*
X171450Y62418D01*
X172476Y61468D01*
X172482Y61439D01*
X173366Y60116D01*
X174689Y59232D01*
X176250Y58922D01*
X177811Y59232D01*
X179134Y60116D01*
X180018Y61439D01*
X180328Y63000D01*
X180018Y64561D01*
X179134Y65884D01*
X177951Y66674D01*
X177663Y67256D01*
X177447Y67966D01*
X191265Y81785D01*
X191582Y82550D01*
Y85405D01*
X191509Y85583D01*
X191518Y85774D01*
X191357Y85950D01*
X191265Y86171D01*
X191157Y86215D01*
X191051Y86285D01*
X190958Y86386D01*
X190738Y86489D01*
X190164Y86863D01*
X190134Y86970D01*
X190289Y87750D01*
X190134Y88530D01*
X190164Y88637D01*
X190738Y89011D01*
X190958Y89114D01*
X191051Y89215D01*
X191157Y89284D01*
X191265Y89329D01*
X191357Y89550D01*
X191518Y89726D01*
X191509Y89917D01*
X191582Y90094D01*
Y94802D01*
X195304Y98523D01*
X195346Y98626D01*
X195438Y98687D01*
X195588Y98912D01*
X195813Y99061D01*
X195874Y99154D01*
X195977Y99196D01*
X198126Y101346D01*
X198895Y101425D01*
X199477Y101324D01*
X199818Y100813D01*
X200480Y100371D01*
X201260Y100216D01*
X202040Y100371D01*
X202273Y100297D01*
X203277Y99670D01*
X203366Y99219D01*
X203808Y98558D01*
X204470Y98116D01*
X205250Y97961D01*
X206030Y98116D01*
X206692Y98558D01*
X207134Y99219D01*
X207289Y100000D01*
X207134Y100780D01*
X206692Y101442D01*
X206030Y101884D01*
X205373Y102014D01*
X205498Y103284D01*
X210083D01*
X211059Y103478D01*
X211886Y104031D01*
X224556Y116701D01*
X228855D01*
X229961Y115750D01*
X230116Y114969D01*
X230558Y114308D01*
X231220Y113866D01*
X232000Y113710D01*
X232780Y113866D01*
X233442Y114308D01*
X233836Y114897D01*
X234399Y114969D01*
X234601Y114970D01*
X235165Y114897D01*
X235558Y114308D01*
X236220Y113866D01*
X237000Y113711D01*
X237780Y113866D01*
X238442Y114308D01*
X238884Y114970D01*
X239039Y115750D01*
X238884Y116530D01*
X238589Y116971D01*
X239302Y117448D01*
X239855Y118275D01*
X240049Y119250D01*
X239855Y120225D01*
X239686Y120478D01*
X239791Y120888D01*
X240331Y121776D01*
X240780Y121866D01*
X241442Y122308D01*
X241884Y122969D01*
X242039Y123750D01*
X241884Y124530D01*
X241442Y125191D01*
X240780Y125634D01*
X240000Y125789D01*
X239220Y125634D01*
X238558Y125191D01*
X238116Y124530D01*
X237961Y123750D01*
X238116Y122969D01*
X237669Y122119D01*
X237370Y121799D01*
X234629D01*
X233917Y122917D01*
X233904Y123069D01*
X234039Y123750D01*
X233884Y124530D01*
X233442Y125191D01*
X232780Y125633D01*
X232000Y125789D01*
X231220Y125633D01*
X230558Y125191D01*
X230116Y124530D01*
X229961Y123750D01*
X230096Y123069D01*
X230083Y122917D01*
X229370Y121799D01*
X223500D01*
X222525Y121605D01*
X221698Y121052D01*
X209028Y108382D01*
X206959D01*
X206433Y109652D01*
X228726Y131945D01*
X229153Y131877D01*
X230021Y131445D01*
X230116Y130969D01*
X230558Y130308D01*
X231220Y129866D01*
X232000Y129710D01*
X232780Y129866D01*
X233442Y130308D01*
X233884Y130969D01*
X234039Y131750D01*
X233884Y132530D01*
X233442Y133191D01*
X232780Y133634D01*
X232305Y133728D01*
X231872Y134597D01*
X231805Y135024D01*
X232486Y135706D01*
X232549Y135857D01*
X232676Y135961D01*
X232702Y136225D01*
X232803Y136471D01*
X232741Y136622D01*
X232757Y136785D01*
X232547Y137477D01*
X232780Y137866D01*
X233442Y138308D01*
X233884Y138969D01*
X234273Y139202D01*
X234964Y138993D01*
X235127Y139009D01*
X235278Y138946D01*
X235524Y139048D01*
X235789Y139074D01*
X235893Y139200D01*
X236044Y139263D01*
X236726Y139945D01*
X237153Y139877D01*
X238021Y139445D01*
X238116Y138969D01*
X238558Y138308D01*
X239220Y137866D01*
X240000Y137710D01*
X240780Y137866D01*
X241442Y138308D01*
X241884Y138969D01*
X242039Y139750D01*
X241884Y140530D01*
X241442Y141192D01*
X240780Y141634D01*
X240305Y141728D01*
X239872Y142597D01*
X239805Y143024D01*
X242065Y145285D01*
X242382Y146050D01*
Y165637D01*
X242335Y165751D01*
X242356Y165874D01*
X242181Y166122D01*
X242065Y166402D01*
X241951Y166450D01*
X241879Y166551D01*
X241112Y167037D01*
X241011Y167660D01*
X241025Y168071D01*
X241111Y168427D01*
X241392Y168614D01*
X241511Y168638D01*
X241774Y168813D01*
X241974Y168896D01*
X242007Y168899D01*
X242257Y168881D01*
X243281Y168596D01*
X243395Y168025D01*
X243947Y167198D01*
X243948Y167198D01*
X244775Y166645D01*
X245750Y166451D01*
X246726Y166645D01*
X247552Y167198D01*
X248105Y168025D01*
X248299Y169000D01*
X248299Y169002D01*
Y171451D01*
X264944D01*
X266698Y169698D01*
D02*
G37*
G36*
X119568Y76200D02*
X119885Y75435D01*
X119885Y75435D01*
X128577Y66742D01*
X128091Y65569D01*
X82478D01*
X65873Y82173D01*
X64716Y82947D01*
X63686Y83152D01*
X63811Y84422D01*
X78061D01*
X85716Y76766D01*
X85716Y76766D01*
X87039Y75882D01*
X88600Y75572D01*
X90161Y75882D01*
X91484Y76766D01*
X92368Y78089D01*
X92678Y79650D01*
X92368Y81211D01*
X91484Y82534D01*
X91484Y82534D01*
X82634Y91384D01*
X82622Y91392D01*
X83007Y92662D01*
X119568D01*
Y76200D01*
D02*
G37*
G36*
X47641Y83152D02*
X47256Y82894D01*
X31950Y67588D01*
X21233D01*
X19641Y68652D01*
X17300Y69117D01*
X14959Y68652D01*
X12974Y67326D01*
X11648Y65341D01*
X11183Y63000D01*
X11371Y62055D01*
X10208Y61391D01*
X9534Y61915D01*
Y68450D01*
X9398Y69133D01*
X9012Y69712D01*
X5481Y73242D01*
X12222Y79983D01*
X13392Y79358D01*
X13222Y78500D01*
X13532Y76939D01*
X14416Y75616D01*
X15739Y74732D01*
X17300Y74422D01*
X18861Y74732D01*
X20184Y75616D01*
X28990Y84422D01*
X47256D01*
X47641Y83152D01*
D02*
G37*
G36*
X78477Y59477D02*
X79634Y58703D01*
X81000Y58431D01*
X140022D01*
X142855Y55598D01*
X142329Y54328D01*
X135650D01*
X134089Y54018D01*
X132766Y53134D01*
X132766Y53134D01*
X125261Y45628D01*
X114000D01*
X112439Y45318D01*
X111116Y44434D01*
X110232Y43111D01*
X109922Y41550D01*
X110232Y39989D01*
X111116Y38666D01*
X112439Y37782D01*
X114000Y37472D01*
X126950D01*
X126950Y37472D01*
X128511Y37782D01*
X129834Y38666D01*
X137339Y46172D01*
X141711D01*
X149216Y38666D01*
X156516Y31366D01*
X156516Y31366D01*
X157839Y30482D01*
X159400Y30172D01*
X159400Y30172D01*
X161867D01*
X162771Y28902D01*
X162761Y28850D01*
X162916Y28070D01*
X163358Y27408D01*
X164020Y26966D01*
X164800Y26811D01*
X165396Y25634D01*
X163850Y24088D01*
X100858D01*
X100332Y25358D01*
X101904Y26931D01*
X102080Y26966D01*
X102742Y27408D01*
X103184Y28070D01*
X103339Y28850D01*
X103184Y29630D01*
X102742Y30292D01*
X102080Y30734D01*
X101300Y30889D01*
X100520Y30734D01*
X99858Y30292D01*
X99416Y29630D01*
X99381Y29454D01*
X97211Y27284D01*
X91487D01*
X91260Y27462D01*
X90580Y28554D01*
X90639Y28850D01*
X90484Y29630D01*
X90042Y30292D01*
X89380Y30734D01*
X88600Y30889D01*
X87820Y30734D01*
X87158Y30292D01*
X86716Y29630D01*
X86561Y28850D01*
X86620Y28554D01*
X85940Y27462D01*
X85713Y27284D01*
X66087D01*
X65860Y27462D01*
X65180Y28554D01*
X65239Y28850D01*
X65084Y29630D01*
X64642Y30292D01*
X63980Y30734D01*
X63804Y30769D01*
X61312Y33262D01*
X60733Y33649D01*
X60050Y33784D01*
X23239D01*
X13034Y43989D01*
Y57107D01*
X13888Y57715D01*
X14267Y57810D01*
X14959Y57348D01*
X17300Y56882D01*
X19641Y57348D01*
X21233Y58412D01*
X33850D01*
X35606Y58761D01*
X37094Y59756D01*
X53420Y76081D01*
X61872D01*
X78477Y59477D01*
D02*
G37*
%LPC*%
G36*
X226500Y271289D02*
X225720Y271134D01*
X225058Y270692D01*
X224616Y270030D01*
X224461Y269250D01*
X224616Y268470D01*
X225058Y267808D01*
X225720Y267366D01*
X226500Y267211D01*
X227280Y267366D01*
X227942Y267808D01*
X228384Y268470D01*
X228539Y269250D01*
X228384Y270030D01*
X227942Y270692D01*
X227280Y271134D01*
X226500Y271289D01*
D02*
G37*
G36*
X208500D02*
X207720Y271134D01*
X207058Y270692D01*
X206616Y270030D01*
X206461Y269250D01*
X206616Y268470D01*
X207058Y267808D01*
X207720Y267366D01*
X208500Y267211D01*
X209280Y267366D01*
X209942Y267808D01*
X210384Y268470D01*
X210539Y269250D01*
X210384Y270030D01*
X209942Y270692D01*
X209280Y271134D01*
X208500Y271289D01*
D02*
G37*
G36*
X195500D02*
X194720Y271134D01*
X194058Y270692D01*
X193616Y270030D01*
X193461Y269250D01*
X193616Y268470D01*
X194058Y267808D01*
X194720Y267366D01*
X195500Y267211D01*
X196280Y267366D01*
X196942Y267808D01*
X197384Y268470D01*
X197539Y269250D01*
X197384Y270030D01*
X196942Y270692D01*
X196280Y271134D01*
X195500Y271289D01*
D02*
G37*
G36*
X187500D02*
X186720Y271134D01*
X186058Y270692D01*
X185616Y270030D01*
X185461Y269250D01*
X185616Y268470D01*
X186058Y267808D01*
X186720Y267366D01*
X187500Y267211D01*
X188280Y267366D01*
X188942Y267808D01*
X189384Y268470D01*
X189539Y269250D01*
X189384Y270030D01*
X188942Y270692D01*
X188280Y271134D01*
X187500Y271289D01*
D02*
G37*
G36*
X169500D02*
X168720Y271134D01*
X168058Y270692D01*
X167616Y270030D01*
X167461Y269250D01*
X167616Y268470D01*
X168058Y267808D01*
X168720Y267366D01*
X169500Y267211D01*
X170280Y267366D01*
X170942Y267808D01*
X171384Y268470D01*
X171539Y269250D01*
X171384Y270030D01*
X170942Y270692D01*
X170280Y271134D01*
X169500Y271289D01*
D02*
G37*
G36*
X161500D02*
X160720Y271134D01*
X160058Y270692D01*
X159616Y270030D01*
X159461Y269250D01*
X159616Y268470D01*
X160058Y267808D01*
X160720Y267366D01*
X161500Y267211D01*
X162280Y267366D01*
X162942Y267808D01*
X163384Y268470D01*
X163539Y269250D01*
X163384Y270030D01*
X162942Y270692D01*
X162280Y271134D01*
X161500Y271289D01*
D02*
G37*
G36*
X149250Y262289D02*
X148470Y262134D01*
X147808Y261692D01*
X147366Y261030D01*
X147211Y260250D01*
X147366Y259470D01*
X147808Y258808D01*
X148470Y258366D01*
X149250Y258211D01*
X150030Y258366D01*
X150692Y258808D01*
X151134Y259470D01*
X151289Y260250D01*
X151134Y261030D01*
X150692Y261692D01*
X150030Y262134D01*
X149250Y262289D01*
D02*
G37*
G36*
X270250Y259539D02*
X269470Y259384D01*
X268808Y258942D01*
X268366Y258280D01*
X268211Y257500D01*
X268366Y256720D01*
X268808Y256058D01*
X269470Y255616D01*
X270250Y255461D01*
X271030Y255616D01*
X271692Y256058D01*
X272134Y256720D01*
X272289Y257500D01*
X272134Y258280D01*
X271692Y258942D01*
X271030Y259384D01*
X270250Y259539D01*
D02*
G37*
G36*
X193750Y257789D02*
X192970Y257634D01*
X192308Y257192D01*
X191866Y256530D01*
X191711Y255750D01*
X191866Y254970D01*
X192308Y254308D01*
X192970Y253866D01*
X193750Y253711D01*
X194530Y253866D01*
X195192Y254308D01*
X195634Y254970D01*
X195789Y255750D01*
X195634Y256530D01*
X195192Y257192D01*
X194530Y257634D01*
X193750Y257789D01*
D02*
G37*
G36*
X254850Y253789D02*
X254070Y253634D01*
X253408Y253192D01*
X252966Y252530D01*
X252811Y251750D01*
X252966Y250970D01*
X253408Y250308D01*
X254070Y249866D01*
X254850Y249711D01*
X255630Y249866D01*
X256292Y250308D01*
X256734Y250970D01*
X256889Y251750D01*
X256734Y252530D01*
X256292Y253192D01*
X255630Y253634D01*
X254850Y253789D01*
D02*
G37*
G36*
X229750D02*
X228970Y253634D01*
X228308Y253192D01*
X227866Y252530D01*
X227711Y251750D01*
X227866Y250970D01*
X228308Y250308D01*
X228970Y249866D01*
X229750Y249711D01*
X230530Y249866D01*
X231192Y250308D01*
X231634Y250970D01*
X231789Y251750D01*
X231634Y252530D01*
X231192Y253192D01*
X230530Y253634D01*
X229750Y253789D01*
D02*
G37*
G36*
X183750D02*
X182970Y253634D01*
X182308Y253192D01*
X181866Y252530D01*
X181711Y251750D01*
X181866Y250970D01*
X182308Y250308D01*
X182970Y249866D01*
X183750Y249711D01*
X184530Y249866D01*
X185192Y250308D01*
X185634Y250970D01*
X185789Y251750D01*
X185634Y252530D01*
X185192Y253192D01*
X184530Y253634D01*
X183750Y253789D01*
D02*
G37*
G36*
X153750Y250539D02*
X152970Y250384D01*
X152308Y249942D01*
X151866Y249280D01*
X151711Y248500D01*
X151866Y247720D01*
X152308Y247058D01*
X152970Y246616D01*
X153750Y246461D01*
X154530Y246616D01*
X155192Y247058D01*
X155634Y247720D01*
X155789Y248500D01*
X155634Y249280D01*
X155192Y249942D01*
X154530Y250384D01*
X153750Y250539D01*
D02*
G37*
G36*
X193750Y249789D02*
X192970Y249634D01*
X192308Y249192D01*
X191866Y248530D01*
X191711Y247750D01*
X191866Y246970D01*
X192308Y246308D01*
X192970Y245866D01*
X193750Y245711D01*
X194530Y245866D01*
X195192Y246308D01*
X195634Y246970D01*
X195789Y247750D01*
X195634Y248530D01*
X195192Y249192D01*
X194530Y249634D01*
X193750Y249789D01*
D02*
G37*
G36*
X171750Y238789D02*
X170970Y238634D01*
X170308Y238192D01*
X169866Y237530D01*
X169711Y236750D01*
X169866Y235970D01*
X170308Y235308D01*
X170970Y234866D01*
X171750Y234711D01*
X172530Y234866D01*
X173192Y235308D01*
X173634Y235970D01*
X173789Y236750D01*
X173634Y237530D01*
X173192Y238192D01*
X172530Y238634D01*
X171750Y238789D01*
D02*
G37*
G36*
X270250Y238539D02*
X269470Y238384D01*
X268808Y237942D01*
X268366Y237280D01*
X268211Y236500D01*
X268366Y235720D01*
X268808Y235058D01*
X269470Y234616D01*
X270250Y234461D01*
X271030Y234616D01*
X271692Y235058D01*
X272134Y235720D01*
X272289Y236500D01*
X272134Y237280D01*
X271692Y237942D01*
X271030Y238384D01*
X270250Y238539D01*
D02*
G37*
G36*
Y220539D02*
X269470Y220384D01*
X268808Y219942D01*
X268366Y219280D01*
X268211Y218500D01*
X268366Y217719D01*
X268808Y217058D01*
X269470Y216616D01*
X270250Y216461D01*
X271030Y216616D01*
X271692Y217058D01*
X272134Y217719D01*
X272289Y218500D01*
X272134Y219280D01*
X271692Y219942D01*
X271030Y220384D01*
X270250Y220539D01*
D02*
G37*
G36*
Y212539D02*
X269470Y212384D01*
X268808Y211942D01*
X268366Y211280D01*
X268211Y210500D01*
X268366Y209720D01*
X268808Y209058D01*
X269470Y208616D01*
X270250Y208461D01*
X271030Y208616D01*
X271692Y209058D01*
X272134Y209720D01*
X272289Y210500D01*
X272134Y211280D01*
X271692Y211942D01*
X271030Y212384D01*
X270250Y212539D01*
D02*
G37*
G36*
X129750Y249789D02*
X128970Y249634D01*
X128308Y249192D01*
X127866Y248530D01*
X127711Y247750D01*
X127866Y246970D01*
X128308Y246308D01*
X128970Y245866D01*
X129750Y245711D01*
X130530Y245866D01*
X131192Y246308D01*
X131634Y246970D01*
X131789Y247750D01*
X131634Y248530D01*
X131192Y249192D01*
X130530Y249634D01*
X129750Y249789D01*
D02*
G37*
G36*
X20500Y239539D02*
X19720Y239384D01*
X19058Y238942D01*
X18616Y238280D01*
X18461Y237500D01*
X18616Y236720D01*
X19058Y236058D01*
X19720Y235616D01*
X20500Y235461D01*
X21280Y235616D01*
X21942Y236058D01*
X22384Y236720D01*
X22539Y237500D01*
X22384Y238280D01*
X21942Y238942D01*
X21280Y239384D01*
X20500Y239539D01*
D02*
G37*
G36*
X125750Y239539D02*
X124970Y239384D01*
X124308Y238942D01*
X123866Y238280D01*
X123711Y237500D01*
X123866Y236720D01*
X124308Y236058D01*
X124970Y235616D01*
X125750Y235461D01*
X126530Y235616D01*
X127192Y236058D01*
X127634Y236720D01*
X127789Y237500D01*
X127634Y238280D01*
X127192Y238942D01*
X126530Y239384D01*
X125750Y239539D01*
D02*
G37*
G36*
X119250Y241289D02*
X118470Y241134D01*
X117808Y240692D01*
X117366Y240030D01*
X117211Y239250D01*
X117366Y238470D01*
X117808Y237808D01*
X117814Y237763D01*
X117624Y236403D01*
X117308Y236192D01*
X116866Y235530D01*
X116711Y234750D01*
X116866Y233970D01*
X117308Y233308D01*
X117970Y232866D01*
X118612Y232738D01*
X118750Y232711D01*
X119711Y231750D01*
X119738Y231612D01*
X119866Y230970D01*
X120308Y230308D01*
X120970Y229866D01*
X121750Y229711D01*
X122530Y229866D01*
X123192Y230308D01*
X123634Y230970D01*
X123789Y231750D01*
X123634Y232530D01*
X123192Y233192D01*
X122530Y233634D01*
X121887Y233762D01*
X121750Y233789D01*
X120789Y234750D01*
X120762Y234888D01*
X120634Y235530D01*
X120192Y236192D01*
X120186Y236237D01*
X120375Y237597D01*
X120692Y237808D01*
X121134Y238470D01*
X121289Y239250D01*
X121134Y240030D01*
X120692Y240692D01*
X120030Y241134D01*
X119250Y241289D01*
D02*
G37*
G36*
X32170Y233689D02*
X31390Y233534D01*
X30728Y233092D01*
X30286Y232430D01*
X30131Y231650D01*
X30286Y230870D01*
X30728Y230208D01*
X31390Y229766D01*
X32170Y229611D01*
X32950Y229766D01*
X33612Y230208D01*
X34054Y230870D01*
X34209Y231650D01*
X34054Y232430D01*
X33612Y233092D01*
X32950Y233534D01*
X32170Y233689D01*
D02*
G37*
G36*
X146250Y233289D02*
X145470Y233134D01*
X144808Y232692D01*
X144366Y232030D01*
X144211Y231250D01*
X144366Y230470D01*
X144808Y229808D01*
X145470Y229366D01*
X146250Y229211D01*
X147030Y229366D01*
X147692Y229808D01*
X148134Y230470D01*
X148289Y231250D01*
X148134Y232030D01*
X147692Y232692D01*
X147030Y233134D01*
X146250Y233289D01*
D02*
G37*
G36*
X137250Y233039D02*
X136470Y232884D01*
X135808Y232442D01*
X135366Y231780D01*
X135211Y231000D01*
X135366Y230220D01*
X135808Y229558D01*
X136470Y229116D01*
X137250Y228961D01*
X138030Y229116D01*
X138692Y229558D01*
X139134Y230220D01*
X139289Y231000D01*
X139134Y231780D01*
X138692Y232442D01*
X138030Y232884D01*
X137250Y233039D01*
D02*
G37*
G36*
X114250Y231289D02*
X113470Y231134D01*
X112808Y230692D01*
X112366Y230030D01*
X112211Y229250D01*
X112366Y228470D01*
X112808Y227808D01*
X113470Y227366D01*
X114250Y227211D01*
X115030Y227366D01*
X115692Y227808D01*
X116134Y228470D01*
X116289Y229250D01*
X116134Y230030D01*
X115692Y230692D01*
X115030Y231134D01*
X114250Y231289D01*
D02*
G37*
G36*
X106000Y227039D02*
X105220Y226884D01*
X104558Y226442D01*
X104116Y225780D01*
X103961Y225000D01*
X104116Y224220D01*
X104558Y223558D01*
X105220Y223116D01*
X106000Y222961D01*
X106780Y223116D01*
X107442Y223558D01*
X107884Y224220D01*
X108039Y225000D01*
X107884Y225780D01*
X107442Y226442D01*
X106780Y226884D01*
X106000Y227039D01*
D02*
G37*
G36*
X120750Y225789D02*
X119970Y225634D01*
X119308Y225192D01*
X118866Y224530D01*
X118711Y223750D01*
X118866Y222970D01*
X119308Y222308D01*
X119970Y221866D01*
X120750Y221711D01*
X121530Y221866D01*
X122192Y222308D01*
X122634Y222970D01*
X122789Y223750D01*
X122634Y224530D01*
X122192Y225192D01*
X121530Y225634D01*
X120750Y225789D01*
D02*
G37*
G36*
X129750Y225789D02*
X128970Y225634D01*
X128308Y225192D01*
X127866Y224530D01*
X127711Y223750D01*
X127866Y222970D01*
X128308Y222308D01*
X128970Y221866D01*
X129750Y221711D01*
X130530Y221866D01*
X131192Y222308D01*
X131634Y222970D01*
X131789Y223750D01*
X131634Y224530D01*
X131192Y225192D01*
X130530Y225634D01*
X129750Y225789D01*
D02*
G37*
G36*
X106000Y220539D02*
X105220Y220384D01*
X104558Y219942D01*
X104116Y219280D01*
X103961Y218500D01*
X104116Y217720D01*
X104558Y217058D01*
X105220Y216616D01*
X106000Y216461D01*
X106780Y216616D01*
X107442Y217058D01*
X107884Y217720D01*
X108039Y218500D01*
X107884Y219280D01*
X107442Y219942D01*
X106780Y220384D01*
X106000Y220539D01*
D02*
G37*
G36*
X69670Y218939D02*
X68890Y218784D01*
X68228Y218342D01*
X67786Y217680D01*
X67631Y216900D01*
X67786Y216120D01*
X68228Y215458D01*
X68890Y215016D01*
X69670Y214861D01*
X70450Y215016D01*
X71112Y215458D01*
X71554Y216120D01*
X71709Y216900D01*
X71554Y217680D01*
X71112Y218342D01*
X70450Y218784D01*
X69670Y218939D01*
D02*
G37*
G36*
X116750Y218789D02*
X115969Y218634D01*
X115308Y218192D01*
X114866Y217530D01*
X114711Y216750D01*
X114866Y215970D01*
X115308Y215308D01*
X115969Y214866D01*
X116750Y214711D01*
X117530Y214866D01*
X118192Y215308D01*
X118634Y215970D01*
X118789Y216750D01*
X118634Y217530D01*
X118192Y218192D01*
X117530Y218634D01*
X116750Y218789D01*
D02*
G37*
G36*
X108750Y215789D02*
X107970Y215634D01*
X107308Y215192D01*
X106866Y214530D01*
X106711Y213750D01*
X106866Y212970D01*
X107308Y212308D01*
X107970Y211866D01*
X108750Y211711D01*
X109530Y211866D01*
X110192Y212308D01*
X110634Y212970D01*
X110789Y213750D01*
X110634Y214530D01*
X110192Y215192D01*
X109530Y215634D01*
X108750Y215789D01*
D02*
G37*
G36*
X20500Y214539D02*
X19720Y214384D01*
X19058Y213942D01*
X18616Y213280D01*
X18461Y212500D01*
X18616Y211719D01*
X19058Y211058D01*
X19720Y210616D01*
X20500Y210460D01*
X21280Y210616D01*
X21942Y211058D01*
X22384Y211719D01*
X22539Y212500D01*
X22384Y213280D01*
X21942Y213942D01*
X21280Y214384D01*
X20500Y214539D01*
D02*
G37*
G36*
X93000Y213789D02*
X92220Y213634D01*
X91558Y213192D01*
X91116Y212530D01*
X90961Y211750D01*
X91116Y210970D01*
X91558Y210308D01*
X92220Y209866D01*
X93000Y209711D01*
X93780Y209866D01*
X94442Y210308D01*
X94884Y210970D01*
X95039Y211750D01*
X94884Y212530D01*
X94442Y213192D01*
X93780Y213634D01*
X93000Y213789D01*
D02*
G37*
G36*
X145250Y210039D02*
X144470Y209884D01*
X143808Y209442D01*
X143366Y208780D01*
X143211Y208000D01*
X143366Y207220D01*
X143808Y206558D01*
X144470Y206116D01*
X145250Y205961D01*
X146030Y206116D01*
X146692Y206558D01*
X147134Y207220D01*
X147289Y208000D01*
X147134Y208780D01*
X146692Y209442D01*
X146030Y209884D01*
X145250Y210039D01*
D02*
G37*
G36*
X138250Y209289D02*
X137470Y209134D01*
X136808Y208692D01*
X136366Y208030D01*
X136211Y207250D01*
X136366Y206470D01*
X136808Y205808D01*
X137470Y205366D01*
X138250Y205211D01*
X139030Y205366D01*
X139692Y205808D01*
X140134Y206470D01*
X140289Y207250D01*
X140134Y208030D01*
X139692Y208692D01*
X139030Y209134D01*
X138250Y209289D01*
D02*
G37*
G36*
X163750Y207789D02*
X162970Y207634D01*
X162308Y207192D01*
X161866Y206530D01*
X161711Y205750D01*
X161866Y204970D01*
X162308Y204308D01*
X162970Y203866D01*
X163750Y203711D01*
X164530Y203866D01*
X165192Y204308D01*
X165634Y204970D01*
X165789Y205750D01*
X165634Y206530D01*
X165192Y207192D01*
X164530Y207634D01*
X163750Y207789D01*
D02*
G37*
G36*
X155500Y205789D02*
X154720Y205634D01*
X154058Y205192D01*
X153616Y204530D01*
X153461Y203750D01*
X153616Y202970D01*
X154058Y202308D01*
X154720Y201866D01*
X155500Y201711D01*
X156280Y201866D01*
X156942Y202308D01*
X157384Y202970D01*
X157539Y203750D01*
X157384Y204530D01*
X156942Y205192D01*
X156280Y205634D01*
X155500Y205789D01*
D02*
G37*
G36*
X201750Y201789D02*
X200970Y201634D01*
X200308Y201192D01*
X199866Y200530D01*
X199711Y199750D01*
X199866Y198970D01*
X200308Y198308D01*
X200970Y197866D01*
X201750Y197711D01*
X202530Y197866D01*
X203192Y198308D01*
X203634Y198970D01*
X203789Y199750D01*
X203634Y200530D01*
X203192Y201192D01*
X202530Y201634D01*
X201750Y201789D01*
D02*
G37*
G36*
X185750D02*
X184970Y201634D01*
X184308Y201192D01*
X183866Y200530D01*
X183711Y199750D01*
X183866Y198970D01*
X184308Y198308D01*
X184970Y197866D01*
X185750Y197711D01*
X186530Y197866D01*
X187192Y198308D01*
X187634Y198970D01*
X187789Y199750D01*
X187634Y200530D01*
X187192Y201192D01*
X186530Y201634D01*
X185750Y201789D01*
D02*
G37*
G36*
X151750Y198289D02*
X150970Y198134D01*
X150308Y197692D01*
X149866Y197030D01*
X149711Y196250D01*
X149831Y195644D01*
X149080Y194852D01*
X148943Y194739D01*
X147715Y195243D01*
X147686Y195270D01*
X147634Y195530D01*
X147192Y196192D01*
X146530Y196634D01*
X145750Y196789D01*
X144970Y196634D01*
X144308Y196192D01*
X143866Y195530D01*
X143711Y194750D01*
X143740Y194603D01*
X142597Y193839D01*
X142530Y193884D01*
X141750Y194039D01*
X140970Y193884D01*
X140308Y193442D01*
X139866Y192780D01*
X139711Y192000D01*
X139866Y191220D01*
X140308Y190558D01*
X140970Y190116D01*
X141750Y189961D01*
X142530Y190116D01*
X143192Y190558D01*
X143634Y191220D01*
X143789Y192000D01*
X143760Y192147D01*
X144903Y192911D01*
X144970Y192866D01*
X145750Y192711D01*
X146530Y192866D01*
X146761Y193020D01*
X146786Y193020D01*
X148036Y192507D01*
X148064Y192480D01*
X148116Y192220D01*
X148558Y191558D01*
X149220Y191116D01*
X150000Y190961D01*
X150780Y191116D01*
X151442Y191558D01*
X151884Y192220D01*
X152039Y193000D01*
X151884Y193780D01*
X152530Y194366D01*
X153192Y194808D01*
X153634Y195470D01*
X153789Y196250D01*
X153634Y197030D01*
X153192Y197692D01*
X152530Y198134D01*
X151750Y198289D01*
D02*
G37*
G36*
X130250Y197789D02*
X129470Y197634D01*
X128808Y197192D01*
X128366Y196530D01*
X128211Y195750D01*
X128366Y194970D01*
X128808Y194308D01*
X129470Y193866D01*
X130250Y193711D01*
X131030Y193866D01*
X131692Y194308D01*
X132058D01*
X132058Y194308D01*
X132720Y193866D01*
X133500Y193711D01*
X134281Y193866D01*
X134942Y194308D01*
X135384Y194970D01*
X135539Y195750D01*
X135384Y196530D01*
X134942Y197192D01*
X134281Y197634D01*
X133500Y197789D01*
X132720Y197634D01*
X131875Y197271D01*
X131030Y197634D01*
X130250Y197789D01*
D02*
G37*
G36*
X62250Y193290D02*
X61470Y193134D01*
X60808Y192692D01*
X59692D01*
X59030Y193134D01*
X58250Y193290D01*
X57470Y193134D01*
X56808Y192692D01*
X55692D01*
X55030Y193134D01*
X54250Y193290D01*
X53470Y193134D01*
X52808Y192692D01*
X51692D01*
X51031Y193134D01*
X50250Y193290D01*
X49470Y193134D01*
X48808Y192692D01*
X47692D01*
X47031Y193134D01*
X46250Y193290D01*
X45470Y193134D01*
X44808Y192692D01*
X43692D01*
X43031Y193134D01*
X42250Y193290D01*
X41470Y193134D01*
X40808Y192692D01*
X39692D01*
X39030Y193134D01*
X38250Y193290D01*
X37470Y193134D01*
X36808Y192692D01*
X35692D01*
X35031Y193134D01*
X34250Y193290D01*
X33470Y193134D01*
X32808Y192692D01*
X32366Y192031D01*
X32211Y191250D01*
X32366Y190470D01*
X32808Y189808D01*
X33470Y189366D01*
X34250Y189211D01*
X35031Y189366D01*
X35692Y189808D01*
X36808D01*
X37470Y189366D01*
X38250Y189211D01*
X39030Y189366D01*
X39692Y189808D01*
X40808D01*
X41470Y189366D01*
X42250Y189211D01*
X43031Y189366D01*
X43692Y189808D01*
X44808D01*
X45470Y189366D01*
X46250Y189211D01*
X47031Y189366D01*
X47692Y189808D01*
X48808D01*
X49470Y189366D01*
X50250Y189211D01*
X51031Y189366D01*
X51692Y189808D01*
X52808D01*
X53470Y189366D01*
X54250Y189211D01*
X55030Y189366D01*
X55692Y189808D01*
X56808D01*
X57470Y189366D01*
X58250Y189211D01*
X59030Y189366D01*
X59692Y189808D01*
X60808D01*
X61470Y189366D01*
X62250Y189211D01*
X63031Y189366D01*
X63142Y189441D01*
X63972Y189630D01*
X64763Y189126D01*
X64808Y189058D01*
X65470Y188616D01*
X66250Y188461D01*
X67031Y188616D01*
X67692Y189058D01*
X68134Y189720D01*
X68289Y190500D01*
X68134Y191281D01*
X67692Y191942D01*
X67031Y192384D01*
X66250Y192540D01*
X65470Y192384D01*
X65359Y192310D01*
X64528Y192121D01*
X63737Y192625D01*
X63692Y192692D01*
X63031Y193134D01*
X62250Y193290D01*
D02*
G37*
G36*
X70250Y196039D02*
X69470Y195884D01*
X68808Y195442D01*
X68366Y194780D01*
X68211Y194000D01*
X68366Y193220D01*
X68808Y192558D01*
X69470Y192116D01*
X70250Y191961D01*
X71030Y192116D01*
X71692Y192558D01*
X72134Y193220D01*
X72289Y194000D01*
X72134Y194780D01*
X71692Y195442D01*
X71030Y195884D01*
X70250Y196039D01*
D02*
G37*
G36*
X83250Y191289D02*
X82470Y191134D01*
X81808Y190692D01*
X81366Y190031D01*
X81211Y189250D01*
X81366Y188470D01*
X81808Y187808D01*
X82470Y187366D01*
X83250Y187211D01*
X84031Y187366D01*
X84692Y187808D01*
X85134Y188470D01*
X85289Y189250D01*
X85134Y190031D01*
X84692Y190692D01*
X84031Y191134D01*
X83250Y191289D01*
D02*
G37*
G36*
X182000Y193789D02*
X181220Y193634D01*
X180558Y193192D01*
X180116Y192530D01*
X179961Y191750D01*
X180116Y190970D01*
X180558Y190308D01*
X181147Y189914D01*
X181220Y189350D01*
Y189150D01*
X181147Y188586D01*
X180558Y188192D01*
X180116Y187530D01*
X179961Y186750D01*
X180116Y185970D01*
X180558Y185308D01*
X181220Y184866D01*
X182000Y184711D01*
X182780Y184866D01*
X183442Y185308D01*
X183884Y185970D01*
X184039Y186750D01*
X183884Y187530D01*
X183442Y188192D01*
X182853Y188586D01*
X182780Y189150D01*
Y189350D01*
X182853Y189914D01*
X183442Y190308D01*
X183884Y190970D01*
X184039Y191750D01*
X183884Y192530D01*
X183442Y193192D01*
X182780Y193634D01*
X182000Y193789D01*
D02*
G37*
G36*
X104171Y181789D02*
X103391Y181634D01*
X102730Y181192D01*
X102288Y180530D01*
X102132Y179750D01*
X102288Y178970D01*
X102730Y178308D01*
X103391Y177866D01*
X104171Y177711D01*
X104952Y177866D01*
X105613Y178308D01*
X106055Y178970D01*
X106211Y179750D01*
X106055Y180530D01*
X105613Y181192D01*
X104952Y181634D01*
X104171Y181789D01*
D02*
G37*
G36*
X153750Y177789D02*
X152970Y177634D01*
X152420Y177266D01*
X152308Y177192D01*
X150942Y177192D01*
X150830Y177266D01*
X150280Y177634D01*
X149500Y177789D01*
X148720Y177634D01*
X148058Y177192D01*
X147192D01*
X146530Y177634D01*
X145750Y177789D01*
X144970Y177634D01*
X144308Y177192D01*
X143192D01*
X142530Y177634D01*
X141750Y177789D01*
X140970Y177634D01*
X140308Y177192D01*
X139866Y176530D01*
X139711Y175750D01*
X139866Y174970D01*
X140308Y174308D01*
X140970Y173866D01*
X141750Y173711D01*
X142530Y173866D01*
X143192Y174308D01*
X144308D01*
X144970Y173866D01*
X145750Y173711D01*
X146530Y173866D01*
X147192Y174308D01*
X148058D01*
X148720Y173866D01*
X149500Y173711D01*
X150280Y173866D01*
X150830Y174234D01*
X150942Y174308D01*
X152308Y174308D01*
X152420Y174234D01*
X152970Y173866D01*
X153750Y173711D01*
X154530Y173866D01*
X155192Y174308D01*
X155634Y174970D01*
X155789Y175750D01*
X155634Y176530D01*
X155192Y177192D01*
X154530Y177634D01*
X153750Y177789D01*
D02*
G37*
G36*
X19750Y179289D02*
X18970Y179134D01*
X18308Y178692D01*
X17866Y178030D01*
X17711Y177250D01*
X17866Y176470D01*
X18257Y175884D01*
X18172Y175572D01*
X17673Y174705D01*
X17592Y174721D01*
X17250Y174789D01*
X16470Y174634D01*
X15808Y174192D01*
X15385Y173559D01*
X15366Y173530D01*
Y173530D01*
X15211Y172750D01*
X14500Y172539D01*
X13720Y172384D01*
X13058Y171942D01*
X12616Y171280D01*
X12461Y170500D01*
X12616Y169720D01*
X13058Y169058D01*
X13720Y168616D01*
X14500Y168461D01*
X15280Y168616D01*
X15942Y169058D01*
X16365Y169691D01*
X16384Y169720D01*
Y169720D01*
X16539Y170500D01*
X17250Y170711D01*
X18030Y170866D01*
X18692Y171308D01*
X19134Y171970D01*
X19289Y172750D01*
X19134Y173530D01*
X18743Y174116D01*
X18828Y174428D01*
X19327Y175295D01*
X19409Y175279D01*
X19750Y175211D01*
X20530Y175366D01*
X21192Y175808D01*
X21634Y176470D01*
X21789Y177250D01*
X21634Y178030D01*
X21192Y178692D01*
X20530Y179134D01*
X19750Y179289D01*
D02*
G37*
G36*
X111250Y177289D02*
X110470Y177134D01*
X109808Y176692D01*
X109366Y176030D01*
X109211Y175250D01*
X109259Y175008D01*
X108665Y174478D01*
X108163Y174158D01*
X107500Y174289D01*
X106720Y174134D01*
X106058Y173692D01*
X105616Y173031D01*
X105461Y172250D01*
X105616Y171470D01*
X106058Y170808D01*
X106720Y170366D01*
X107500Y170211D01*
X108280Y170366D01*
X108942Y170808D01*
X109384Y171470D01*
X109539Y172250D01*
X109491Y172492D01*
X110085Y173023D01*
X110587Y173343D01*
X111250Y173211D01*
X112030Y173366D01*
X112692Y173808D01*
X113134Y174470D01*
X113289Y175250D01*
X113134Y176030D01*
X112692Y176692D01*
X112030Y177134D01*
X111250Y177289D01*
D02*
G37*
G36*
X86250Y185289D02*
X85470Y185134D01*
X84808Y184692D01*
X84366Y184031D01*
X84211Y183250D01*
X84366Y182470D01*
X84808Y181808D01*
Y180692D01*
X84366Y180031D01*
X84211Y179250D01*
X84359Y178507D01*
X84366Y178470D01*
X83976Y177155D01*
X83837Y177046D01*
X83308Y176692D01*
X82866Y176031D01*
X82711Y175250D01*
X82866Y174470D01*
X83308Y173808D01*
X83970Y173366D01*
X84750Y173211D01*
X85530Y173366D01*
X86192Y173808D01*
X86634Y174470D01*
X86789Y175250D01*
X86641Y175994D01*
X86634Y176031D01*
X87024Y177346D01*
X87163Y177455D01*
X87692Y177808D01*
X88134Y178470D01*
X88289Y179250D01*
X88134Y180031D01*
X87692Y180692D01*
Y181808D01*
X88134Y182470D01*
X88289Y183250D01*
X88134Y184031D01*
X87692Y184692D01*
X87030Y185134D01*
X86250Y185289D01*
D02*
G37*
G36*
X26250Y181290D02*
X25470Y181134D01*
X24808Y180692D01*
X24366Y180031D01*
X24211Y179250D01*
X24366Y178470D01*
X24808Y177808D01*
Y176692D01*
X24366Y176031D01*
X24211Y175250D01*
X24366Y174470D01*
X24808Y173808D01*
Y172692D01*
X24366Y172031D01*
X24211Y171250D01*
X24366Y170470D01*
X24808Y169808D01*
X25470Y169366D01*
X26250Y169211D01*
X27030Y169366D01*
X27692Y169808D01*
X28134Y170470D01*
X28289Y171250D01*
X28134Y172031D01*
X27692Y172692D01*
Y173808D01*
X28134Y174470D01*
X28289Y175250D01*
X28134Y176031D01*
X27692Y176692D01*
Y177808D01*
X28134Y178470D01*
X28289Y179250D01*
X28134Y180031D01*
X27692Y180692D01*
X27030Y181134D01*
X26250Y181290D01*
D02*
G37*
G36*
X89000Y173289D02*
X88220Y173134D01*
X87558Y172692D01*
X87116Y172030D01*
X86961Y171250D01*
X87116Y170470D01*
X87558Y169808D01*
X88220Y169366D01*
X89000Y169211D01*
X89780Y169366D01*
X90442Y169808D01*
X90884Y170470D01*
X91039Y171250D01*
X90884Y172030D01*
X90442Y172692D01*
X89780Y173134D01*
X89000Y173289D01*
D02*
G37*
G36*
X137750Y169789D02*
X136970Y169634D01*
X136308Y169192D01*
X135192D01*
X134530Y169634D01*
X133750Y169789D01*
X132970Y169634D01*
X132308Y169192D01*
X131192D01*
X130530Y169634D01*
X129750Y169789D01*
X128970Y169634D01*
X128308Y169192D01*
X127866Y168530D01*
X127711Y167750D01*
X127866Y166970D01*
X128308Y166308D01*
X128970Y165866D01*
X129750Y165711D01*
X130530Y165866D01*
X131192Y166308D01*
X132308D01*
X132970Y165866D01*
X133750Y165711D01*
X134530Y165866D01*
X135192Y166308D01*
X136308D01*
X136970Y165866D01*
X137750Y165711D01*
X138530Y165866D01*
X139192Y166308D01*
X139634Y166970D01*
X139789Y167750D01*
X139634Y168530D01*
X139192Y169192D01*
X138530Y169634D01*
X137750Y169789D01*
D02*
G37*
G36*
X153750D02*
X152970Y169634D01*
X152308Y169192D01*
X151866Y168530D01*
X151711Y167750D01*
X151866Y166970D01*
X152308Y166308D01*
X152970Y165866D01*
X153750Y165711D01*
X154530Y165866D01*
X155192Y166308D01*
X155634Y166970D01*
X155789Y167750D01*
X155634Y168530D01*
X155192Y169192D01*
X154530Y169634D01*
X153750Y169789D01*
D02*
G37*
G36*
X145750D02*
X144970Y169634D01*
X144308Y169192D01*
X143866Y168530D01*
X143711Y167750D01*
X143866Y166970D01*
X144308Y166308D01*
X144970Y165866D01*
X145750Y165711D01*
X146530Y165866D01*
X147192Y166308D01*
X147634Y166970D01*
X147789Y167750D01*
X147634Y168530D01*
X147192Y169192D01*
X146530Y169634D01*
X145750Y169789D01*
D02*
G37*
G36*
X83000Y169289D02*
X82220Y169134D01*
X81558Y168692D01*
X81116Y168031D01*
X80961Y167250D01*
X81116Y166470D01*
X81558Y165808D01*
X82220Y165366D01*
X83000Y165211D01*
X83780Y165366D01*
X84442Y165808D01*
X84884Y166470D01*
X85039Y167250D01*
X84884Y168031D01*
X84442Y168692D01*
X83780Y169134D01*
X83000Y169289D01*
D02*
G37*
G36*
X96250Y170299D02*
X95275Y170105D01*
X94448Y169552D01*
X93895Y168725D01*
X93701Y167750D01*
X93895Y166775D01*
X94448Y165948D01*
X95275Y165395D01*
X96250Y165201D01*
X97226Y165395D01*
X98052Y165948D01*
X98605Y166775D01*
X98799Y167750D01*
X98605Y168725D01*
X98052Y169552D01*
X97226Y170105D01*
X96250Y170299D01*
D02*
G37*
G36*
X107500Y167289D02*
X106720Y167134D01*
X106058Y166692D01*
X105616Y166030D01*
X105461Y165250D01*
X105616Y164470D01*
X106058Y163808D01*
X106720Y163366D01*
X107500Y163211D01*
X108280Y163366D01*
X108942Y163808D01*
X109384Y164470D01*
X109539Y165250D01*
X109384Y166030D01*
X108942Y166692D01*
X108280Y167134D01*
X107500Y167289D01*
D02*
G37*
G36*
X20250Y164289D02*
X19470Y164134D01*
X18808Y163692D01*
X18366Y163030D01*
X18211Y162250D01*
X18366Y161470D01*
X18808Y160808D01*
X19470Y160366D01*
X20250Y160211D01*
X21030Y160366D01*
X21692Y160808D01*
X22134Y161470D01*
X22289Y162250D01*
X22134Y163030D01*
X21692Y163692D01*
X21030Y164134D01*
X20250Y164289D01*
D02*
G37*
G36*
X161750Y161789D02*
X160970Y161634D01*
X160308Y161192D01*
X159866Y160530D01*
X159711Y159750D01*
X159866Y158970D01*
X160308Y158308D01*
X160970Y157866D01*
X161750Y157711D01*
X162530Y157866D01*
X163192Y158308D01*
X163634Y158970D01*
X163789Y159750D01*
X163634Y160530D01*
X163192Y161192D01*
X162530Y161634D01*
X161750Y161789D01*
D02*
G37*
G36*
X153750D02*
X152970Y161634D01*
X152308Y161192D01*
X151866Y160530D01*
X151711Y159750D01*
X151866Y158970D01*
X152308Y158308D01*
X152970Y157866D01*
X153750Y157711D01*
X154530Y157866D01*
X155192Y158308D01*
X155634Y158970D01*
X155789Y159750D01*
X155634Y160530D01*
X155192Y161192D01*
X154530Y161634D01*
X153750Y161789D01*
D02*
G37*
G36*
X137750D02*
X136970Y161634D01*
X136308Y161192D01*
X135866Y160530D01*
X135711Y159750D01*
X135866Y158970D01*
X136308Y158308D01*
X136970Y157866D01*
X137750Y157711D01*
X138530Y157866D01*
X139192Y158308D01*
X139634Y158970D01*
X139789Y159750D01*
X139634Y160530D01*
X139192Y161192D01*
X138530Y161634D01*
X137750Y161789D01*
D02*
G37*
G36*
X129750D02*
X128970Y161634D01*
X128308Y161192D01*
X127866Y160530D01*
X127711Y159750D01*
X127866Y158970D01*
X128308Y158308D01*
X128970Y157866D01*
X129750Y157711D01*
X130530Y157866D01*
X131192Y158308D01*
X131634Y158970D01*
X131789Y159750D01*
X131634Y160530D01*
X131192Y161192D01*
X130530Y161634D01*
X129750Y161789D01*
D02*
G37*
G36*
X121750D02*
X120970Y161634D01*
X120308Y161192D01*
X119866Y160530D01*
X119711Y159750D01*
X119866Y158970D01*
X120308Y158308D01*
X120970Y157866D01*
X121750Y157711D01*
X122530Y157866D01*
X123192Y158308D01*
X123634Y158970D01*
X123789Y159750D01*
X123634Y160530D01*
X123192Y161192D01*
X122530Y161634D01*
X121750Y161789D01*
D02*
G37*
G36*
X89250Y161290D02*
X88470Y161134D01*
X87808Y160692D01*
X87366Y160031D01*
X87211Y159250D01*
X87366Y158470D01*
X87808Y157808D01*
X88470Y157366D01*
X89250Y157211D01*
X90031Y157366D01*
X90692Y157808D01*
X91134Y158470D01*
X91289Y159250D01*
X91134Y160031D01*
X90692Y160692D01*
X90031Y161134D01*
X89250Y161290D01*
D02*
G37*
G36*
X83250Y157289D02*
X82470Y157134D01*
X81808Y156692D01*
X81366Y156031D01*
X81211Y155250D01*
X81366Y154470D01*
X81808Y153808D01*
X82470Y153366D01*
X83250Y153211D01*
X84030Y153366D01*
X84692Y153808D01*
X85134Y154470D01*
X85289Y155250D01*
X85134Y156031D01*
X84692Y156692D01*
X84030Y157134D01*
X83250Y157289D01*
D02*
G37*
G36*
X15500Y155790D02*
X14720Y155634D01*
X14058Y155192D01*
X13616Y154531D01*
X13461Y153750D01*
X13616Y152970D01*
X14058Y152309D01*
X14720Y151867D01*
X15500Y151711D01*
X16280Y151867D01*
X16942Y152309D01*
X17384Y152970D01*
X17539Y153750D01*
X17384Y154531D01*
X16942Y155192D01*
X16280Y155634D01*
X15500Y155790D01*
D02*
G37*
G36*
X121750Y153789D02*
X120970Y153634D01*
X120308Y153192D01*
X119866Y152530D01*
X119711Y151750D01*
X119866Y150970D01*
X120308Y150308D01*
X120970Y149866D01*
X121750Y149711D01*
X122530Y149866D01*
X123192Y150308D01*
X123634Y150970D01*
X123789Y151750D01*
X123634Y152530D01*
X123192Y153192D01*
X122530Y153634D01*
X121750Y153789D01*
D02*
G37*
G36*
X108000Y151789D02*
X107220Y151634D01*
X106558Y151192D01*
X106116Y150530D01*
X105961Y149750D01*
X106116Y148970D01*
X106558Y148308D01*
X107220Y147866D01*
X108000Y147711D01*
X108780Y147866D01*
X109442Y148308D01*
X109884Y148970D01*
X110039Y149750D01*
X109884Y150530D01*
X109442Y151192D01*
X108780Y151634D01*
X108000Y151789D01*
D02*
G37*
G36*
X121750Y145789D02*
X120970Y145634D01*
X120308Y145192D01*
X119866Y144530D01*
X119711Y143750D01*
X119866Y142970D01*
X120308Y142308D01*
X120970Y141866D01*
X121750Y141711D01*
X122530Y141866D01*
X123192Y142308D01*
X123634Y142970D01*
X123789Y143750D01*
X123634Y144530D01*
X123192Y145192D01*
X122530Y145634D01*
X121750Y145789D01*
D02*
G37*
G36*
X89250Y153289D02*
X88470Y153134D01*
X87808Y152692D01*
X87366Y152031D01*
X87211Y151250D01*
X87366Y150470D01*
X87808Y149808D01*
Y148692D01*
X87366Y148031D01*
X87211Y147250D01*
X87366Y146470D01*
X87808Y145808D01*
X87812Y144688D01*
X87370Y144027D01*
X87215Y143246D01*
X87370Y142466D01*
X87812Y141804D01*
X88474Y141362D01*
X89254Y141207D01*
X90035Y141362D01*
X90696Y141804D01*
X91138Y142466D01*
X91293Y143246D01*
X91138Y144027D01*
X90696Y144688D01*
X90692Y145808D01*
X91134Y146470D01*
X91289Y147250D01*
X91134Y148031D01*
X90692Y148692D01*
Y149808D01*
X91134Y150470D01*
X91289Y151250D01*
X91134Y152031D01*
X90692Y152692D01*
X90031Y153134D01*
X89250Y153289D01*
D02*
G37*
G36*
X107500Y142289D02*
X106720Y142134D01*
X106058Y141692D01*
X105616Y141030D01*
X105461Y140250D01*
X105616Y139469D01*
X106058Y138808D01*
X106720Y138366D01*
X107500Y138210D01*
X108280Y138366D01*
X108942Y138808D01*
X109384Y139469D01*
X109539Y140250D01*
X109384Y141030D01*
X108942Y141692D01*
X108280Y142134D01*
X107500Y142289D01*
D02*
G37*
G36*
X26900Y137289D02*
X26120Y137134D01*
X25458Y136692D01*
X25016Y136030D01*
X24861Y135250D01*
X25016Y134470D01*
X25458Y133808D01*
X26120Y133366D01*
X26900Y133211D01*
X27680Y133366D01*
X28342Y133808D01*
X28784Y134470D01*
X28939Y135250D01*
X28784Y136030D01*
X28342Y136692D01*
X27680Y137134D01*
X26900Y137289D01*
D02*
G37*
G36*
X89250Y137039D02*
X88470Y136884D01*
X87808Y136442D01*
X87366Y135780D01*
X87211Y135000D01*
X87366Y134220D01*
X87808Y133558D01*
X88470Y133116D01*
X89250Y132961D01*
X90031Y133116D01*
X90692Y133558D01*
X91134Y134220D01*
X91289Y135000D01*
X91134Y135780D01*
X90692Y136442D01*
X90031Y136884D01*
X89250Y137039D01*
D02*
G37*
G36*
X54000Y110289D02*
X53220Y110134D01*
X52558Y109692D01*
X52165Y109103D01*
X51601Y109031D01*
X51399D01*
X50836Y109103D01*
X50442Y109692D01*
X49780Y110134D01*
X49000Y110289D01*
X48220Y110134D01*
X47558Y109692D01*
X47116Y109031D01*
X46961Y108250D01*
X47116Y107470D01*
X47558Y106808D01*
X48220Y106366D01*
X49000Y106211D01*
X49780Y106366D01*
X50442Y106808D01*
X50836Y107397D01*
X51399Y107470D01*
X51601D01*
X52165Y107397D01*
X52558Y106808D01*
X53220Y106366D01*
X54000Y106211D01*
X54780Y106366D01*
X55442Y106808D01*
X55884Y107470D01*
X56039Y108250D01*
X55884Y109031D01*
X55442Y109692D01*
X54780Y110134D01*
X54000Y110289D01*
D02*
G37*
G36*
X66000Y110289D02*
X65220Y110134D01*
X64558Y109692D01*
X64164Y109103D01*
X63601Y109030D01*
X63399D01*
X62836Y109103D01*
X62442Y109692D01*
X61780Y110134D01*
X61000Y110289D01*
X60220Y110134D01*
X59558Y109692D01*
X59116Y109030D01*
X58961Y108250D01*
X59116Y107470D01*
X59558Y106808D01*
X60220Y106366D01*
X61000Y106211D01*
X61780Y106366D01*
X62442Y106808D01*
X62836Y107397D01*
X63399Y107470D01*
X63601D01*
X64164Y107397D01*
X64558Y106808D01*
X65220Y106366D01*
X66000Y106211D01*
X66780Y106366D01*
X67442Y106808D01*
X67884Y107470D01*
X68039Y108250D01*
X67884Y109030D01*
X67442Y109692D01*
X66780Y110134D01*
X66000Y110289D01*
D02*
G37*
G36*
X73000D02*
X72220Y110134D01*
X71558Y109692D01*
X71116Y109030D01*
X70961Y108250D01*
X71116Y107470D01*
X71558Y106808D01*
X72220Y106366D01*
X73000Y106211D01*
X73780Y106366D01*
X74442Y106808D01*
X74884Y107470D01*
X75039Y108250D01*
X74884Y109030D01*
X74442Y109692D01*
X73780Y110134D01*
X73000Y110289D01*
D02*
G37*
G36*
X229750Y189039D02*
X228970Y188884D01*
X228308Y188442D01*
X227866Y187780D01*
X227711Y187000D01*
X227866Y186220D01*
X228308Y185558D01*
X228970Y185116D01*
X229750Y184961D01*
X230530Y185116D01*
X231192Y185558D01*
X231634Y186220D01*
X231789Y187000D01*
X231634Y187780D01*
X231192Y188442D01*
X230530Y188884D01*
X229750Y189039D01*
D02*
G37*
G36*
X229750Y176789D02*
X228970Y176634D01*
X228308Y176192D01*
X227866Y175530D01*
X227711Y174750D01*
X227866Y173970D01*
X228308Y173308D01*
X228970Y172866D01*
X229750Y172711D01*
X230530Y172866D01*
X231192Y173308D01*
X231634Y173970D01*
X231789Y174750D01*
X231634Y175530D01*
X231192Y176192D01*
X230530Y176634D01*
X229750Y176789D01*
D02*
G37*
G36*
Y169539D02*
X228970Y169384D01*
X228308Y168942D01*
X227866Y168280D01*
X227711Y167500D01*
X227866Y166719D01*
X228308Y166058D01*
X228970Y165616D01*
X229750Y165461D01*
X230530Y165616D01*
X231192Y166058D01*
X231634Y166719D01*
X231789Y167500D01*
X231634Y168280D01*
X231192Y168942D01*
X230530Y169384D01*
X229750Y169539D01*
D02*
G37*
G36*
X142250Y147289D02*
X141470Y147134D01*
X140808Y146692D01*
X140366Y146030D01*
X140319Y145792D01*
X139849Y145542D01*
X139001Y145320D01*
X138530Y145634D01*
X137750Y145789D01*
X136970Y145634D01*
X136308Y145192D01*
X135866Y144530D01*
X135711Y143750D01*
X135866Y142970D01*
X136308Y142308D01*
X136970Y141866D01*
X137750Y141711D01*
X138530Y141866D01*
X139192Y142308D01*
X139310Y142484D01*
X140366Y141780D01*
X140211Y141000D01*
X140366Y140220D01*
X140808Y139558D01*
X140558Y138692D01*
X140116Y138030D01*
X139961Y137250D01*
X140116Y136470D01*
X140558Y135808D01*
X141220Y135366D01*
X142000Y135211D01*
X142780Y135366D01*
X143866Y134970D01*
X144308Y134308D01*
X144970Y133866D01*
X145750Y133711D01*
X146530Y133866D01*
X147192Y134308D01*
X147634Y134970D01*
X147789Y135750D01*
X147634Y136530D01*
X147192Y137192D01*
X146530Y137634D01*
X145750Y137789D01*
X144970Y137634D01*
X143884Y138030D01*
X143442Y138692D01*
X143692Y139558D01*
X144134Y140220D01*
X144289Y141000D01*
X144134Y141780D01*
X143766Y142330D01*
X143692Y142442D01*
Y143808D01*
X143766Y143919D01*
X144134Y144470D01*
X144289Y145250D01*
X144134Y146030D01*
X143692Y146692D01*
X143030Y147134D01*
X142250Y147289D01*
D02*
G37*
G36*
X169750Y146539D02*
X168970Y146384D01*
X168308Y145942D01*
X167866Y145280D01*
X167711Y144500D01*
X167866Y143720D01*
X168308Y143058D01*
X168970Y142616D01*
X169750Y142461D01*
X170530Y142616D01*
X171192Y143058D01*
X171634Y143720D01*
X171789Y144500D01*
X171634Y145280D01*
X171192Y145942D01*
X170530Y146384D01*
X169750Y146539D01*
D02*
G37*
G36*
X185750Y145789D02*
X184970Y145634D01*
X184308Y145192D01*
X183866Y144530D01*
X183711Y143750D01*
X183866Y142970D01*
X184308Y142308D01*
X184970Y141866D01*
X185750Y141711D01*
X186530Y141866D01*
X187192Y142308D01*
X187634Y142970D01*
X187789Y143750D01*
X187634Y144530D01*
X187192Y145192D01*
X186530Y145634D01*
X185750Y145789D01*
D02*
G37*
G36*
X177750D02*
X176970Y145634D01*
X176308Y145192D01*
X175866Y144530D01*
X175711Y143750D01*
X175866Y142970D01*
X176308Y142308D01*
X176970Y141866D01*
X177750Y141711D01*
X178530Y141866D01*
X179192Y142308D01*
X179634Y142970D01*
X179789Y143750D01*
X179634Y144530D01*
X179192Y145192D01*
X178530Y145634D01*
X177750Y145789D01*
D02*
G37*
G36*
X151007Y142056D02*
X150032Y141862D01*
X149205Y141309D01*
X148652Y140482D01*
X148458Y139507D01*
X148652Y138531D01*
X149205Y137704D01*
X150032Y137152D01*
X151007Y136958D01*
X151983Y137152D01*
X152810Y137704D01*
X152955Y137922D01*
X153810Y138415D01*
X154565Y138219D01*
X154720Y138116D01*
X155500Y137961D01*
X156280Y138116D01*
X156942Y138558D01*
X157384Y139220D01*
X157539Y140000D01*
X157384Y140780D01*
X156942Y141442D01*
X156280Y141884D01*
X155500Y142039D01*
X154720Y141884D01*
X154190Y141530D01*
X154058Y141442D01*
X154058Y141442D01*
X153720Y141406D01*
X152558Y141477D01*
X151983Y141862D01*
X151007Y142056D01*
D02*
G37*
G36*
X201000Y141789D02*
X200220Y141634D01*
X199558Y141192D01*
X199116Y140530D01*
X198961Y139750D01*
X199116Y138969D01*
X199558Y138308D01*
X200220Y137866D01*
X201000Y137710D01*
X201780Y137866D01*
X202442Y138308D01*
X202884Y138969D01*
X203039Y139750D01*
X202884Y140530D01*
X202442Y141192D01*
X201780Y141634D01*
X201000Y141789D01*
D02*
G37*
G36*
X165750Y137789D02*
X164970Y137634D01*
X164308Y137192D01*
X163866Y136530D01*
X163762Y136006D01*
X163197Y135504D01*
X162528Y135184D01*
X162000Y135289D01*
X161220Y135134D01*
X160558Y134692D01*
X160116Y134030D01*
X159961Y133250D01*
X160116Y132470D01*
X160558Y131808D01*
X161220Y131366D01*
X162000Y131211D01*
X162780Y131366D01*
X163442Y131808D01*
X163884Y132470D01*
X163988Y132994D01*
X164553Y133496D01*
X165222Y133816D01*
X165750Y133711D01*
X166530Y133866D01*
X167192Y134308D01*
X167634Y134970D01*
X167789Y135750D01*
X167634Y136530D01*
X167192Y137192D01*
X166530Y137634D01*
X165750Y137789D01*
D02*
G37*
G36*
X129750Y137789D02*
X128970Y137634D01*
X128308Y137192D01*
X127866Y136530D01*
X127711Y135750D01*
X127866Y134970D01*
X128308Y134308D01*
X128970Y133866D01*
X129750Y133711D01*
X130530Y133866D01*
X131192Y134308D01*
X131634Y134970D01*
X131789Y135750D01*
X131634Y136530D01*
X131192Y137192D01*
X130530Y137634D01*
X129750Y137789D01*
D02*
G37*
G36*
X201000Y133789D02*
X200220Y133634D01*
X199558Y133191D01*
X199116Y132530D01*
X198961Y131750D01*
X199116Y130969D01*
X199558Y130308D01*
X200220Y129866D01*
X201000Y129710D01*
X201780Y129866D01*
X202442Y130308D01*
X202884Y130969D01*
X203039Y131750D01*
X202884Y132530D01*
X202442Y133191D01*
X201780Y133634D01*
X201000Y133789D01*
D02*
G37*
G36*
X188500Y137039D02*
X187720Y136884D01*
X187058Y136442D01*
X186616Y135780D01*
X186461Y135000D01*
X186616Y134220D01*
X187058Y133558D01*
X187720Y133116D01*
X188500Y132961D01*
X189026Y133066D01*
X189146Y133006D01*
X189721Y132511D01*
X190028Y132088D01*
X189961Y131750D01*
X190116Y130969D01*
X190558Y130308D01*
X191220Y129866D01*
X192000Y129710D01*
X192780Y129866D01*
X193442Y130308D01*
X193884Y130969D01*
X194039Y131750D01*
X193884Y132530D01*
X193442Y133191D01*
X192780Y133634D01*
X192000Y133789D01*
X191474Y133684D01*
X191353Y133743D01*
X190779Y134239D01*
X190472Y134661D01*
X190539Y135000D01*
X190384Y135780D01*
X189942Y136442D01*
X189280Y136884D01*
X188500Y137039D01*
D02*
G37*
G36*
X177750Y129789D02*
X176970Y129634D01*
X176308Y129192D01*
X175866Y128530D01*
X175711Y127750D01*
X175866Y126970D01*
X176308Y126308D01*
X176970Y125866D01*
X177750Y125711D01*
X178530Y125866D01*
X179192Y126308D01*
X179634Y126970D01*
X179789Y127750D01*
X179634Y128530D01*
X179192Y129192D01*
X178530Y129634D01*
X177750Y129789D01*
D02*
G37*
G36*
X170250Y134789D02*
X169470Y134634D01*
X168808Y134192D01*
X168366Y133530D01*
X168211Y132750D01*
X168366Y131970D01*
X168808Y131308D01*
X169282Y130991D01*
X169298Y130228D01*
X169148Y129670D01*
X168970Y129634D01*
X168308Y129192D01*
X167866Y128530D01*
X167711Y127750D01*
X167866Y126970D01*
X168308Y126308D01*
X168970Y125866D01*
X169750Y125711D01*
X170530Y125866D01*
X171192Y126308D01*
X171634Y126970D01*
X171789Y127750D01*
X171634Y128530D01*
X171192Y129192D01*
X170718Y129509D01*
X170702Y130272D01*
X170852Y130830D01*
X171030Y130866D01*
X171692Y131308D01*
X172134Y131970D01*
X172289Y132750D01*
X172134Y133530D01*
X171692Y134192D01*
X171030Y134634D01*
X170250Y134789D01*
D02*
G37*
G36*
X161750Y129789D02*
X160970Y129634D01*
X160308Y129192D01*
X159866Y128530D01*
X159711Y127750D01*
X159866Y126970D01*
X160308Y126308D01*
X160970Y125866D01*
X161750Y125711D01*
X162530Y125866D01*
X163192Y126308D01*
X163634Y126970D01*
X163789Y127750D01*
X163634Y128530D01*
X163192Y129192D01*
X162530Y129634D01*
X161750Y129789D01*
D02*
G37*
G36*
X137750D02*
X136970Y129634D01*
X136308Y129192D01*
X135866Y128530D01*
X135711Y127750D01*
X135866Y126970D01*
X136308Y126308D01*
X136970Y125866D01*
X137750Y125711D01*
X138530Y125866D01*
X139192Y126308D01*
X139634Y126970D01*
X139789Y127750D01*
X139634Y128530D01*
X139192Y129192D01*
X138530Y129634D01*
X137750Y129789D01*
D02*
G37*
G36*
X129750D02*
X128970Y129634D01*
X128308Y129192D01*
X127866Y128530D01*
X127711Y127750D01*
X127866Y126970D01*
X128308Y126308D01*
X128970Y125866D01*
X129750Y125711D01*
X130530Y125866D01*
X131192Y126308D01*
X131634Y126970D01*
X131789Y127750D01*
X131634Y128530D01*
X131192Y129192D01*
X130530Y129634D01*
X129750Y129789D01*
D02*
G37*
G36*
X153750Y129039D02*
X152970Y128884D01*
X152308Y128442D01*
X151866Y127780D01*
X151711Y127000D01*
X151866Y126220D01*
X152308Y125558D01*
X152970Y125116D01*
X153750Y124961D01*
X154530Y125116D01*
X155192Y125558D01*
X155634Y126220D01*
X155789Y127000D01*
X155634Y127780D01*
X155192Y128442D01*
X154530Y128884D01*
X153750Y129039D01*
D02*
G37*
G36*
X201000Y125789D02*
X200220Y125633D01*
X199558Y125191D01*
X199116Y124530D01*
X198961Y123750D01*
X199116Y122969D01*
X199558Y122308D01*
X200220Y121866D01*
X201000Y121710D01*
X201780Y121866D01*
X202442Y122308D01*
X202884Y122969D01*
X203039Y123750D01*
X202884Y124530D01*
X202442Y125191D01*
X201780Y125633D01*
X201000Y125789D01*
D02*
G37*
G36*
X173750Y121789D02*
X172970Y121634D01*
X172308Y121192D01*
X171192D01*
X170530Y121634D01*
X169750Y121789D01*
X168970Y121634D01*
X168308Y121192D01*
X167866Y120530D01*
X167711Y119750D01*
X167866Y118970D01*
X168308Y118308D01*
X168970Y117866D01*
X169750Y117711D01*
X170530Y117866D01*
X171192Y118308D01*
X172308D01*
X172970Y117866D01*
X173750Y117711D01*
X174530Y117866D01*
X175192Y118308D01*
X175817Y117814D01*
X176478Y117372D01*
X177259Y117217D01*
X178039Y117372D01*
X178701Y117814D01*
X179143Y118476D01*
X179298Y119256D01*
X179143Y120036D01*
X178701Y120698D01*
X178039Y121140D01*
X177259Y121295D01*
X176478Y121140D01*
X175817Y120698D01*
X175192Y121192D01*
X174530Y121634D01*
X173750Y121789D01*
D02*
G37*
G36*
X191000Y124789D02*
X190220Y124634D01*
X189558Y124192D01*
X189116Y123530D01*
X188961Y122750D01*
X189116Y121969D01*
X189558Y121308D01*
X190220Y120866D01*
X191000Y120710D01*
X191780Y120866D01*
X192442Y121308D01*
X192884Y121969D01*
X193039Y122750D01*
X192884Y123530D01*
X192442Y124192D01*
X191780Y124634D01*
X191000Y124789D01*
D02*
G37*
G36*
X161750Y121789D02*
X160970Y121634D01*
X160308Y121192D01*
X159866Y120530D01*
X159711Y119750D01*
X159866Y118970D01*
X160308Y118308D01*
X160970Y117866D01*
X161750Y117711D01*
X162530Y117866D01*
X163192Y118308D01*
X163634Y118970D01*
X163789Y119750D01*
X163634Y120530D01*
X163192Y121192D01*
X162530Y121634D01*
X161750Y121789D01*
D02*
G37*
G36*
X153750D02*
X152970Y121634D01*
X152308Y121192D01*
X151866Y120530D01*
X151711Y119750D01*
X151866Y118970D01*
X152308Y118308D01*
X152970Y117866D01*
X153750Y117711D01*
X154530Y117866D01*
X155192Y118308D01*
X155634Y118970D01*
X155789Y119750D01*
X155634Y120530D01*
X155192Y121192D01*
X154530Y121634D01*
X153750Y121789D01*
D02*
G37*
G36*
X137750D02*
X136970Y121634D01*
X136308Y121192D01*
X135866Y120530D01*
X135711Y119750D01*
X135866Y118970D01*
X136308Y118308D01*
X136970Y117866D01*
X137750Y117711D01*
X138530Y117866D01*
X139192Y118308D01*
X139634Y118970D01*
X139789Y119750D01*
X139634Y120530D01*
X139192Y121192D01*
X138530Y121634D01*
X137750Y121789D01*
D02*
G37*
G36*
X191759Y118045D02*
X190979Y117890D01*
X190317Y117448D01*
X189881Y116795D01*
X189077Y116627D01*
X188556Y116666D01*
X188201Y117198D01*
X187540Y117640D01*
X186759Y117795D01*
X185979Y117640D01*
X185317Y117198D01*
X184875Y116536D01*
X184720Y115756D01*
X184875Y114975D01*
X185317Y114314D01*
X185979Y113872D01*
X186350Y113798D01*
X186461Y113448D01*
X186484Y112476D01*
X186058Y112192D01*
X185616Y111530D01*
X185461Y110750D01*
X185616Y109970D01*
X186058Y109308D01*
X186720Y108866D01*
X187500Y108711D01*
X188280Y108866D01*
X188942Y109308D01*
X189384Y109970D01*
X189539Y110750D01*
X189384Y111530D01*
X188942Y112192D01*
X188280Y112634D01*
X187910Y112708D01*
X187798Y113058D01*
X187775Y114029D01*
X188201Y114314D01*
X188637Y114966D01*
X189441Y115134D01*
X189962Y115096D01*
X190317Y114564D01*
X190979Y114122D01*
X191759Y113967D01*
X192540Y114122D01*
X193201Y114564D01*
X193643Y115225D01*
X193799Y116006D01*
X193643Y116786D01*
X193201Y117448D01*
X192540Y117890D01*
X191759Y118045D01*
D02*
G37*
G36*
X200000Y117789D02*
X199220Y117633D01*
X198558Y117191D01*
X198116Y116530D01*
X197961Y115750D01*
X198116Y114969D01*
X198558Y114308D01*
X199220Y113866D01*
X200000Y113710D01*
X200780Y113866D01*
X201442Y114308D01*
X201884Y114969D01*
X202039Y115750D01*
X201884Y116530D01*
X201442Y117191D01*
X200780Y117633D01*
X200000Y117789D01*
D02*
G37*
G36*
X130250Y108539D02*
X129470Y108384D01*
X128808Y107942D01*
X128366Y107280D01*
X128211Y106500D01*
X128366Y105720D01*
X128808Y105058D01*
X129470Y104616D01*
X130250Y104461D01*
X131030Y104616D01*
X131692Y105058D01*
X132134Y105720D01*
X132289Y106500D01*
X132134Y107280D01*
X131692Y107942D01*
X131030Y108384D01*
X130250Y108539D01*
D02*
G37*
G36*
X189750Y104289D02*
X188969Y104134D01*
X188308Y103692D01*
X187866Y103030D01*
X187710Y102250D01*
X187866Y101470D01*
X188308Y100808D01*
X188969Y100366D01*
X189750Y100211D01*
X190530Y100366D01*
X191192Y100808D01*
X191634Y101470D01*
X191789Y102250D01*
X191634Y103030D01*
X191192Y103692D01*
X190530Y104134D01*
X189750Y104289D01*
D02*
G37*
G36*
X175250Y102789D02*
X174470Y102634D01*
X173808Y102192D01*
X173366Y101530D01*
X173211Y100750D01*
X173366Y99970D01*
X173808Y99308D01*
X174470Y98866D01*
X175009Y98759D01*
X175116Y98220D01*
X175558Y97558D01*
X176220Y97116D01*
X176759Y97009D01*
X176866Y96470D01*
X177308Y95808D01*
X177970Y95366D01*
X178509Y95259D01*
X178616Y94720D01*
X179058Y94058D01*
X179720Y93616D01*
X180500Y93461D01*
X181280Y93616D01*
X181942Y94058D01*
X182384Y94720D01*
X182539Y95500D01*
X182384Y96280D01*
X181942Y96942D01*
X181280Y97384D01*
X180741Y97491D01*
X180634Y98030D01*
X180192Y98692D01*
X179530Y99134D01*
X178991Y99241D01*
X178884Y99780D01*
X178442Y100442D01*
X177780Y100884D01*
X177241Y100991D01*
X177134Y101530D01*
X176692Y102192D01*
X176030Y102634D01*
X175250Y102789D01*
D02*
G37*
G36*
X152100Y83728D02*
X150539Y83418D01*
X149216Y82534D01*
X148332Y81211D01*
X148022Y79650D01*
X148332Y78089D01*
X149216Y76766D01*
X150539Y75882D01*
X152100Y75572D01*
X153661Y75882D01*
X154984Y76766D01*
X155868Y78089D01*
X156178Y79650D01*
X155868Y81211D01*
X154984Y82534D01*
X153661Y83418D01*
X152100Y83728D01*
D02*
G37*
G36*
X271500Y141789D02*
X270720Y141634D01*
X270058Y141192D01*
X269664Y140603D01*
X269101Y140530D01*
X268899D01*
X268336Y140603D01*
X267942Y141192D01*
X267280Y141634D01*
X266500Y141789D01*
X265720Y141634D01*
X265058Y141192D01*
X264616Y140530D01*
X264461Y139750D01*
X264616Y138970D01*
X265058Y138308D01*
X265720Y137866D01*
X266500Y137711D01*
X267280Y137866D01*
X267942Y138308D01*
X268336Y138897D01*
X268899Y138970D01*
X269101D01*
X269664Y138897D01*
X270058Y138308D01*
X270720Y137866D01*
X271500Y137711D01*
X272280Y137866D01*
X272942Y138308D01*
X273384Y138970D01*
X273539Y139750D01*
X273384Y140530D01*
X272942Y141192D01*
X272280Y141634D01*
X271500Y141789D01*
D02*
G37*
G36*
X240000Y133789D02*
X239220Y133634D01*
X238558Y133191D01*
X238116Y132530D01*
X237961Y131750D01*
X238116Y130969D01*
X238558Y130308D01*
X239220Y129866D01*
X240000Y129710D01*
X240780Y129866D01*
X241442Y130308D01*
X241884Y130969D01*
X242039Y131750D01*
X241884Y132530D01*
X241442Y133191D01*
X240780Y133634D01*
X240000Y133789D01*
D02*
G37*
G36*
X271500Y135799D02*
X270525Y135605D01*
X269698Y135052D01*
X264698Y130052D01*
X264145Y129226D01*
X263951Y128250D01*
Y111750D01*
X264145Y110774D01*
X264698Y109948D01*
X265525Y109395D01*
X266500Y109201D01*
X267475Y109395D01*
X268302Y109948D01*
X268549Y110317D01*
X269911Y110418D01*
X270006Y110386D01*
X270058Y110308D01*
X270720Y109866D01*
X271500Y109711D01*
X272280Y109866D01*
X272942Y110308D01*
X273384Y110969D01*
X273539Y111750D01*
X273384Y112530D01*
X272942Y113192D01*
X272280Y113634D01*
X271500Y113789D01*
X270720Y113634D01*
X270319Y113366D01*
X269392Y113678D01*
X269049Y113929D01*
Y127194D01*
X273302Y131448D01*
X273855Y132275D01*
X274049Y133250D01*
X273855Y134226D01*
X273302Y135052D01*
X272475Y135605D01*
X271500Y135799D01*
D02*
G37*
G36*
X234000Y112039D02*
X233220Y111884D01*
X232558Y111442D01*
X232116Y110780D01*
X231961Y110000D01*
X232116Y109220D01*
X232558Y108558D01*
X233220Y108116D01*
X234000Y107961D01*
X234780Y108116D01*
X235442Y108558D01*
X235884Y109220D01*
X236039Y110000D01*
X235884Y110780D01*
X235442Y111442D01*
X234780Y111884D01*
X234000Y112039D01*
D02*
G37*
G36*
X271500Y107289D02*
X270720Y107134D01*
X270058Y106692D01*
X269664Y106103D01*
X269101Y106030D01*
X268899D01*
X268336Y106103D01*
X267942Y106692D01*
X267280Y107134D01*
X266500Y107289D01*
X265720Y107134D01*
X265058Y106692D01*
X264616Y106030D01*
X264461Y105250D01*
X264616Y104470D01*
X265058Y103808D01*
X265720Y103366D01*
X266500Y103211D01*
X267280Y103366D01*
X267942Y103808D01*
X268336Y104397D01*
X268899Y104469D01*
X269101D01*
X269664Y104397D01*
X270058Y103808D01*
X270720Y103366D01*
X271500Y103211D01*
X272280Y103366D01*
X272942Y103808D01*
X273384Y104470D01*
X273539Y105250D01*
X273384Y106030D01*
X272942Y106692D01*
X272280Y107134D01*
X271500Y107289D01*
D02*
G37*
G36*
X240000Y108789D02*
X239220Y108633D01*
X238558Y108191D01*
X238116Y107530D01*
X237961Y106749D01*
X238116Y105969D01*
X238558Y105308D01*
X239220Y104866D01*
X240000Y104710D01*
X240780Y104866D01*
X241442Y105308D01*
X241884Y105969D01*
X242039Y106749D01*
X241884Y107530D01*
X241442Y108191D01*
X240780Y108633D01*
X240000Y108789D01*
D02*
G37*
G36*
X257250Y108289D02*
X256470Y108134D01*
X255808Y107692D01*
X255366Y107030D01*
X255211Y106250D01*
X255366Y105470D01*
X255808Y104808D01*
X256470Y104366D01*
X257250Y104211D01*
X258030Y104366D01*
X258692Y104808D01*
X259134Y105470D01*
X259289Y106250D01*
X259134Y107030D01*
X258692Y107692D01*
X258030Y108134D01*
X257250Y108289D01*
D02*
G37*
G36*
X231000Y105789D02*
X230220Y105634D01*
X229558Y105192D01*
X229116Y104530D01*
X228961Y103750D01*
X229116Y102970D01*
X229558Y102308D01*
X230220Y101866D01*
X231000Y101711D01*
X231780Y101866D01*
X232442Y102308D01*
X232884Y102970D01*
X233039Y103750D01*
X232884Y104530D01*
X232442Y105192D01*
X231780Y105634D01*
X231000Y105789D01*
D02*
G37*
G36*
X257250Y101789D02*
X256470Y101634D01*
X255808Y101192D01*
X255366Y100530D01*
X255211Y99750D01*
X255366Y98970D01*
X255808Y98308D01*
X256470Y97866D01*
X257250Y97711D01*
X258030Y97866D01*
X258692Y98308D01*
X259134Y98970D01*
X259289Y99750D01*
X259134Y100530D01*
X258692Y101192D01*
X258030Y101634D01*
X257250Y101789D01*
D02*
G37*
G36*
X266500Y100789D02*
X265720Y100634D01*
X265058Y100192D01*
X264616Y99530D01*
X264461Y98750D01*
X264616Y97970D01*
X265058Y97308D01*
X265720Y96866D01*
X266500Y96711D01*
X267280Y96866D01*
X267942Y97308D01*
X268384Y97970D01*
X268539Y98750D01*
X268384Y99530D01*
X267942Y100192D01*
X267280Y100634D01*
X266500Y100789D01*
D02*
G37*
G36*
X245012Y97794D02*
X244232Y97639D01*
X243570Y97197D01*
X243128Y96535D01*
X242973Y95755D01*
X243128Y94974D01*
X243570Y94313D01*
X244232Y93871D01*
X245012Y93715D01*
X245792Y93871D01*
X246454Y94313D01*
X246896Y94974D01*
X247051Y95755D01*
X246896Y96535D01*
X246454Y97197D01*
X245792Y97639D01*
X245012Y97794D01*
D02*
G37*
G36*
X257250Y95289D02*
X256470Y95134D01*
X255808Y94692D01*
X255366Y94030D01*
X255211Y93250D01*
X255366Y92470D01*
X255808Y91808D01*
X256470Y91366D01*
X257250Y91211D01*
X258030Y91366D01*
X258692Y91808D01*
X259134Y92470D01*
X259289Y93250D01*
X259134Y94030D01*
X258692Y94692D01*
X258030Y95134D01*
X257250Y95289D01*
D02*
G37*
G36*
X266500Y94289D02*
X265720Y94134D01*
X265058Y93692D01*
X264616Y93030D01*
X264461Y92250D01*
X264616Y91469D01*
X265058Y90808D01*
X265720Y90366D01*
X266500Y90211D01*
X267280Y90366D01*
X267942Y90808D01*
X268384Y91469D01*
X268539Y92250D01*
X268384Y93030D01*
X267942Y93692D01*
X267280Y94134D01*
X266500Y94289D01*
D02*
G37*
G36*
X231000Y98039D02*
X230220Y97884D01*
X229558Y97442D01*
X229116Y96780D01*
X228961Y96000D01*
X229116Y95220D01*
X229558Y94558D01*
X229938Y94304D01*
X230241Y93759D01*
X230300Y92805D01*
X230116Y92530D01*
X229961Y91750D01*
X230116Y90969D01*
X230558Y90308D01*
X231220Y89866D01*
X232000Y89710D01*
X232780Y89866D01*
X233442Y90308D01*
X233884Y90969D01*
X234039Y91750D01*
X233884Y92530D01*
X233442Y93191D01*
X233062Y93445D01*
X232759Y93990D01*
X232700Y94944D01*
X232884Y95220D01*
X233039Y96000D01*
X232884Y96780D01*
X232442Y97442D01*
X231780Y97884D01*
X231000Y98039D01*
D02*
G37*
G36*
X237250Y90039D02*
X236470Y89884D01*
X235808Y89442D01*
X235366Y88780D01*
X235211Y88000D01*
X235366Y87220D01*
X235808Y86558D01*
X236470Y86116D01*
X237250Y85961D01*
X238030Y86116D01*
X238692Y86558D01*
X239134Y87220D01*
X239289Y88000D01*
X239134Y88780D01*
X238692Y89442D01*
X238030Y89884D01*
X237250Y90039D01*
D02*
G37*
G36*
X205250Y89539D02*
X204470Y89384D01*
X203808Y88942D01*
X203366Y88280D01*
X203211Y87500D01*
X203366Y86720D01*
X203808Y86058D01*
X204470Y85616D01*
X205250Y85461D01*
X206030Y85616D01*
X206692Y86058D01*
X207134Y86720D01*
X207289Y87500D01*
X207134Y88280D01*
X206692Y88942D01*
X206030Y89384D01*
X205250Y89539D01*
D02*
G37*
G36*
X250250Y89195D02*
X249470Y89040D01*
X248808Y88598D01*
X248366Y87937D01*
X248211Y87156D01*
X248366Y86376D01*
X248808Y85714D01*
X249470Y85272D01*
X250250Y85117D01*
X251030Y85272D01*
X251692Y85714D01*
X252134Y86376D01*
X252289Y87156D01*
X252134Y87937D01*
X251692Y88598D01*
X251030Y89040D01*
X250250Y89195D01*
D02*
G37*
G36*
X266500Y87789D02*
X265720Y87634D01*
X265058Y87192D01*
X264616Y86530D01*
X264461Y85750D01*
X264616Y84970D01*
X265058Y84308D01*
X265720Y83866D01*
X266500Y83711D01*
X267280Y83866D01*
X267942Y84308D01*
X268384Y84970D01*
X268539Y85750D01*
X268384Y86530D01*
X267942Y87192D01*
X267280Y87634D01*
X266500Y87789D01*
D02*
G37*
G36*
X210250Y83289D02*
X209470Y83134D01*
X208808Y82692D01*
X208414Y82103D01*
X207851Y82030D01*
X207649D01*
X207086Y82103D01*
X206692Y82692D01*
X206030Y83134D01*
X205250Y83289D01*
X204470Y83134D01*
X203808Y82692D01*
X203366Y82030D01*
X203211Y81250D01*
X203366Y80469D01*
X203808Y79808D01*
X204470Y79366D01*
X205250Y79211D01*
X206030Y79366D01*
X206692Y79808D01*
X207086Y80397D01*
X207649Y80469D01*
X207851D01*
X208414Y80397D01*
X208808Y79808D01*
X209470Y79366D01*
X210250Y79211D01*
X211030Y79366D01*
X211692Y79808D01*
X212134Y80469D01*
X212289Y81250D01*
X212134Y82030D01*
X211692Y82692D01*
X211030Y83134D01*
X210250Y83289D01*
D02*
G37*
G36*
X232000Y85789D02*
X231220Y85633D01*
X230558Y85191D01*
X230116Y84530D01*
X229961Y83750D01*
X230116Y82969D01*
X230558Y82308D01*
X231220Y81866D01*
X232000Y81710D01*
X232780Y81866D01*
X233442Y82308D01*
X233884Y82969D01*
X234039Y83750D01*
X233884Y84530D01*
X233442Y85191D01*
X232780Y85633D01*
X232000Y85789D01*
D02*
G37*
G36*
X257250Y82289D02*
X256470Y82134D01*
X255808Y81692D01*
X255366Y81030D01*
X255211Y80250D01*
X255366Y79470D01*
X255808Y78808D01*
X256470Y78366D01*
X257250Y78211D01*
X258030Y78366D01*
X258692Y78808D01*
X259134Y79470D01*
X259289Y80250D01*
X259134Y81030D01*
X258692Y81692D01*
X258030Y82134D01*
X257250Y82289D01*
D02*
G37*
G36*
X266500Y81289D02*
X265720Y81133D01*
X265058Y80691D01*
X264616Y80030D01*
X264461Y79250D01*
X264616Y78469D01*
X265058Y77808D01*
X265720Y77366D01*
X266500Y77210D01*
X267280Y77366D01*
X267942Y77808D01*
X268384Y78469D01*
X268539Y79250D01*
X268384Y80030D01*
X267942Y80691D01*
X267280Y81133D01*
X266500Y81289D01*
D02*
G37*
G36*
X217000Y80039D02*
X216220Y79884D01*
X215558Y79442D01*
X215116Y78780D01*
X214961Y78000D01*
X215116Y77220D01*
X215558Y76558D01*
X216220Y76116D01*
X217000Y75961D01*
X217780Y76116D01*
X218442Y76558D01*
X218884Y77220D01*
X219039Y78000D01*
X218884Y78780D01*
X218442Y79442D01*
X217780Y79884D01*
X217000Y80039D01*
D02*
G37*
G36*
X240000Y77789D02*
X239220Y77634D01*
X238558Y77192D01*
X238116Y76530D01*
X237961Y75750D01*
X238116Y74969D01*
X238558Y74308D01*
X239220Y73866D01*
X240000Y73710D01*
X240780Y73866D01*
X241442Y74308D01*
X241884Y74969D01*
X242039Y75750D01*
X241884Y76530D01*
X241442Y77192D01*
X240780Y77634D01*
X240000Y77789D01*
D02*
G37*
G36*
X232000D02*
X231220Y77634D01*
X230558Y77192D01*
X230116Y76530D01*
X229961Y75750D01*
X230116Y74969D01*
X230558Y74308D01*
X231220Y73866D01*
X232000Y73710D01*
X232780Y73866D01*
X233442Y74308D01*
X233884Y74969D01*
X234039Y75750D01*
X233884Y76530D01*
X233442Y77192D01*
X232780Y77634D01*
X232000Y77789D01*
D02*
G37*
G36*
X199010Y76793D02*
X198229Y76638D01*
X197568Y76196D01*
X197126Y75534D01*
X196971Y74754D01*
X197126Y73973D01*
X197568Y73312D01*
X198229Y72870D01*
X199010Y72715D01*
X199790Y72870D01*
X200452Y73312D01*
X200894Y73973D01*
X201049Y74754D01*
X200894Y75534D01*
X200452Y76196D01*
X199790Y76638D01*
X199010Y76793D01*
D02*
G37*
G36*
X190500Y72539D02*
X189720Y72384D01*
X189058Y71942D01*
X188616Y71280D01*
X188461Y70500D01*
X188616Y69720D01*
X189058Y69058D01*
X189720Y68616D01*
X190500Y68461D01*
X191280Y68616D01*
X191942Y69058D01*
X192384Y69720D01*
X192539Y70500D01*
X192384Y71280D01*
X191942Y71942D01*
X191280Y72384D01*
X190500Y72539D01*
D02*
G37*
G36*
X219500Y72309D02*
X218330Y72076D01*
X217337Y71413D01*
X216674Y70420D01*
X216441Y69250D01*
X216674Y68080D01*
X217337Y67087D01*
X218330Y66424D01*
X219500Y66191D01*
X220671Y66424D01*
X221663Y67087D01*
X222326Y68080D01*
X222559Y69250D01*
X222326Y70420D01*
X221663Y71413D01*
X220671Y72076D01*
X219500Y72309D01*
D02*
G37*
G36*
X237750Y63789D02*
X236970Y63634D01*
X236308Y63192D01*
X235692D01*
X235030Y63634D01*
X234250Y63789D01*
X233470Y63634D01*
X232808Y63192D01*
X232366Y62530D01*
X232211Y61750D01*
X232366Y60970D01*
X232808Y60308D01*
X233470Y59866D01*
X234250Y59711D01*
X235030Y59866D01*
X235692Y60308D01*
X236308D01*
X236970Y59866D01*
X237750Y59711D01*
X238530Y59866D01*
X239192Y60308D01*
X239634Y60970D01*
X239789Y61750D01*
X239634Y62530D01*
X239192Y63192D01*
X238530Y63634D01*
X237750Y63789D01*
D02*
G37*
G36*
X243500Y59289D02*
X242720Y59134D01*
X242058Y58692D01*
X241616Y58030D01*
X241461Y57250D01*
X241616Y56470D01*
X242058Y55808D01*
X242720Y55366D01*
X243500Y55211D01*
X244280Y55366D01*
X244942Y55808D01*
X245384Y56470D01*
X245539Y57250D01*
X245384Y58030D01*
X244942Y58692D01*
X244280Y59134D01*
X243500Y59289D01*
D02*
G37*
G36*
X190750Y59039D02*
X189970Y58884D01*
X189308Y58442D01*
X188866Y57780D01*
X188711Y57000D01*
X188866Y56220D01*
X189308Y55558D01*
X189970Y55116D01*
X190750Y54961D01*
X191530Y55116D01*
X192192Y55558D01*
X192634Y56220D01*
X192789Y57000D01*
X192634Y57780D01*
X192192Y58442D01*
X191530Y58884D01*
X190750Y59039D01*
D02*
G37*
G36*
X228750Y53789D02*
X227970Y53634D01*
X227308Y53192D01*
X226866Y52530D01*
X226711Y51750D01*
X226866Y50970D01*
X227308Y50308D01*
X227970Y49866D01*
X228750Y49711D01*
X229530Y49866D01*
X230192Y50308D01*
X230634Y50970D01*
X230789Y51750D01*
X230634Y52530D01*
X230192Y53192D01*
X229530Y53634D01*
X228750Y53789D01*
D02*
G37*
G36*
X244262Y51542D02*
X243482Y51386D01*
X242820Y50944D01*
X242378Y50283D01*
X242223Y49502D01*
X242378Y48722D01*
X242820Y48060D01*
X243482Y47618D01*
X244262Y47463D01*
X245042Y47618D01*
X245704Y48060D01*
X246146Y48722D01*
X246301Y49502D01*
X246146Y50283D01*
X245704Y50944D01*
X245042Y51386D01*
X244262Y51542D01*
D02*
G37*
G36*
X200000Y37789D02*
X199220Y37634D01*
X198558Y37192D01*
X198116Y36530D01*
X197961Y35750D01*
X198116Y34969D01*
X198558Y34308D01*
X199220Y33866D01*
X200000Y33710D01*
X200780Y33866D01*
X201442Y34308D01*
X201884Y34969D01*
X202039Y35750D01*
X201884Y36530D01*
X201442Y37192D01*
X200780Y37634D01*
X200000Y37789D01*
D02*
G37*
G36*
X192000Y37789D02*
X191220Y37634D01*
X190558Y37192D01*
X190116Y36530D01*
X189961Y35750D01*
X190116Y34969D01*
X190558Y34308D01*
X191220Y33866D01*
X192000Y33710D01*
X192780Y33866D01*
X193442Y34308D01*
X193884Y34969D01*
X194039Y35750D01*
X193884Y36530D01*
X193442Y37192D01*
X192780Y37634D01*
X192000Y37789D01*
D02*
G37*
G36*
X266500Y33059D02*
X265329Y32826D01*
X264337Y32163D01*
X263674Y31170D01*
X263441Y30000D01*
X263674Y28829D01*
X264337Y27837D01*
X265329Y27174D01*
X266500Y26941D01*
X267670Y27174D01*
X268663Y27837D01*
X269326Y28829D01*
X269559Y30000D01*
X269326Y31170D01*
X268663Y32163D01*
X267670Y32826D01*
X266500Y33059D01*
D02*
G37*
G36*
X200000Y21789D02*
X199220Y21634D01*
X198558Y21191D01*
X198116Y20530D01*
X197961Y19750D01*
X198116Y18969D01*
X198558Y18308D01*
X199220Y17866D01*
X200000Y17710D01*
X200780Y17866D01*
X201442Y18308D01*
X201884Y18969D01*
X202039Y19750D01*
X201884Y20530D01*
X201442Y21191D01*
X200780Y21634D01*
X200000Y21789D01*
D02*
G37*
G36*
X192000D02*
X191220Y21634D01*
X190558Y21191D01*
X190116Y20530D01*
X189961Y19750D01*
X190116Y18969D01*
X190558Y18308D01*
X191220Y17866D01*
X192000Y17710D01*
X192780Y17866D01*
X193442Y18308D01*
X193884Y18969D01*
X194039Y19750D01*
X193884Y20530D01*
X193442Y21191D01*
X192780Y21634D01*
X192000Y21789D01*
D02*
G37*
G36*
X243250Y18289D02*
X242469Y18134D01*
X241808Y17692D01*
X241366Y17030D01*
X241211Y16250D01*
X241366Y15470D01*
X241808Y14808D01*
X242469Y14366D01*
X243250Y14211D01*
X244030Y14366D01*
X244692Y14808D01*
X245134Y15470D01*
X245289Y16250D01*
X245134Y17030D01*
X244692Y17692D01*
X244030Y18134D01*
X243250Y18289D01*
D02*
G37*
G36*
X222000Y12039D02*
X221220Y11884D01*
X220558Y11442D01*
X220116Y10780D01*
X219961Y10000D01*
X220116Y9220D01*
X220558Y8558D01*
X221220Y8116D01*
X222000Y7961D01*
X222780Y8116D01*
X223442Y8558D01*
X223884Y9220D01*
X224039Y10000D01*
X223884Y10780D01*
X223442Y11442D01*
X222780Y11884D01*
X222000Y12039D01*
D02*
G37*
G36*
X202000D02*
X201220Y11884D01*
X200558Y11442D01*
X200116Y10780D01*
X199961Y10000D01*
X200116Y9220D01*
X200558Y8558D01*
X201220Y8116D01*
X202000Y7961D01*
X202780Y8116D01*
X203442Y8558D01*
X203884Y9220D01*
X204039Y10000D01*
X203884Y10780D01*
X203442Y11442D01*
X202780Y11884D01*
X202000Y12039D01*
D02*
G37*
G36*
X89750Y11289D02*
X88970Y11134D01*
X88308Y10692D01*
X87866Y10030D01*
X87711Y9250D01*
X87866Y8470D01*
X88308Y7808D01*
X88970Y7366D01*
X89750Y7211D01*
X90530Y7366D01*
X91192Y7808D01*
X91634Y8470D01*
X91789Y9250D01*
X91634Y10030D01*
X91192Y10692D01*
X90530Y11134D01*
X89750Y11289D01*
D02*
G37*
G36*
X63000D02*
X62220Y11134D01*
X61558Y10692D01*
X61116Y10030D01*
X60961Y9250D01*
X61116Y8470D01*
X61558Y7808D01*
X62220Y7366D01*
X63000Y7211D01*
X63780Y7366D01*
X64442Y7808D01*
X64884Y8470D01*
X65039Y9250D01*
X64884Y10030D01*
X64442Y10692D01*
X63780Y11134D01*
X63000Y11289D01*
D02*
G37*
G36*
X126000Y11289D02*
X125220Y11134D01*
X124558Y10692D01*
X124116Y10030D01*
X123961Y9250D01*
X124116Y8470D01*
X124558Y7808D01*
X125220Y7366D01*
X126000Y7211D01*
X126780Y7366D01*
X127442Y7808D01*
X127884Y8470D01*
X128039Y9250D01*
X127884Y10030D01*
X127442Y10692D01*
X126780Y11134D01*
X126000Y11289D01*
D02*
G37*
G36*
X164000Y11289D02*
X163220Y11134D01*
X162558Y10692D01*
X162116Y10030D01*
X161961Y9250D01*
X162116Y8470D01*
X162558Y7808D01*
X163220Y7366D01*
X164000Y7211D01*
X164780Y7366D01*
X165442Y7808D01*
X165884Y8470D01*
X166039Y9250D01*
X165884Y10030D01*
X165442Y10692D01*
X164780Y11134D01*
X164000Y11289D01*
D02*
G37*
G36*
X95050Y71539D02*
X94270Y71384D01*
X93608Y70942D01*
X93166Y70280D01*
X93011Y69500D01*
X93166Y68720D01*
X93608Y68058D01*
X94270Y67616D01*
X95050Y67461D01*
X95830Y67616D01*
X96492Y68058D01*
X96934Y68720D01*
X97089Y69500D01*
X96934Y70280D01*
X96492Y70942D01*
X95830Y71384D01*
X95050Y71539D01*
D02*
G37*
G36*
X68750Y64059D02*
X67579Y63826D01*
X66587Y63163D01*
X65924Y62171D01*
X65691Y61000D01*
X65924Y59830D01*
X66587Y58837D01*
X67579Y58174D01*
X68750Y57941D01*
X69921Y58174D01*
X70913Y58837D01*
X71576Y59830D01*
X71809Y61000D01*
X71576Y62171D01*
X70913Y63163D01*
X69921Y63826D01*
X68750Y64059D01*
D02*
G37*
G36*
X67200Y54838D02*
X46500D01*
X44744Y54489D01*
X43256Y53494D01*
X34556Y44794D01*
X33561Y43306D01*
X33212Y41550D01*
X33561Y39794D01*
X34556Y38306D01*
X36044Y37311D01*
X37800Y36962D01*
X39556Y37311D01*
X41044Y38306D01*
X48401Y45662D01*
X65300D01*
X72656Y38306D01*
X74144Y37311D01*
X75900Y36962D01*
X77656Y37311D01*
X79144Y38306D01*
X80139Y39794D01*
X80488Y41550D01*
X80139Y43306D01*
X79144Y44794D01*
X70444Y53494D01*
X68956Y54489D01*
X67200Y54838D01*
D02*
G37*
G36*
X126700Y30889D02*
X125920Y30734D01*
X125258Y30292D01*
X124816Y29630D01*
X124661Y28850D01*
X124816Y28070D01*
X125258Y27408D01*
X125920Y26966D01*
X126700Y26811D01*
X127480Y26966D01*
X128142Y27408D01*
X128584Y28070D01*
X128739Y28850D01*
X128584Y29630D01*
X128142Y30292D01*
X127480Y30734D01*
X126700Y30889D01*
D02*
G37*
%LPD*%
D33*
X224250Y190250D02*
Y206250D01*
Y188571D02*
Y190250D01*
X228500Y207750D02*
X229750Y206500D01*
X225750Y207750D02*
X228500D01*
X224250Y206250D02*
X225750Y207750D01*
X16200Y-6500D02*
X21900D01*
X28900D02*
X34600D01*
X41600D02*
X47300D01*
X54300D02*
X60000D01*
X67000D02*
X72700D01*
X79700D02*
X85400D01*
X92400D02*
X98100D01*
X105100D02*
X110800D01*
X117800D02*
X123500D01*
X130500D02*
X136200D01*
X143200D02*
X148900D01*
X155900D02*
X161600D01*
X168600D02*
X174300D01*
X181300D02*
X187000D01*
X194000D02*
X199700D01*
X206700D02*
X212400D01*
X219400D02*
X225100D01*
X231846D02*
X237546D01*
X244546D02*
X250246D01*
X257246D02*
X262946D01*
X285900Y257246D02*
Y262946D01*
X285900Y250246D02*
X285900Y244546D01*
Y231846D02*
Y237546D01*
Y219400D02*
Y225100D01*
X285900Y212400D02*
X285900Y206700D01*
Y194000D02*
Y199700D01*
Y181300D02*
Y187000D01*
X285900Y168600D02*
X285900Y174300D01*
Y155900D02*
Y161600D01*
X285900Y148900D02*
X285900Y143200D01*
Y130500D02*
Y136200D01*
Y117800D02*
Y123500D01*
X285900Y105100D02*
X285900Y110800D01*
Y92400D02*
Y98100D01*
X285900Y85400D02*
X285900Y79700D01*
Y67000D02*
Y72700D01*
Y54300D02*
Y60000D01*
X285900Y41600D02*
Y47300D01*
X285900Y28900D02*
Y34600D01*
X285900Y21900D02*
X285900Y16200D01*
X16454Y285900D02*
X22154D01*
X29154Y285900D02*
X34854Y285900D01*
X41854D02*
X47554D01*
X54300D02*
X60000D01*
X67000Y285900D02*
X72700Y285900D01*
X79700D02*
X85400D01*
X92400D02*
X98100D01*
X105100D02*
X110800Y285900D01*
X117800Y285900D02*
X123500D01*
X130500Y285900D02*
X136200Y285900D01*
X143200D02*
X148900D01*
X155900D02*
X161600D01*
X168600D02*
X174300Y285900D01*
X181300Y285900D02*
X187000D01*
X194000Y285900D02*
X199700Y285900D01*
X206700D02*
X212400D01*
X219400D02*
X225100D01*
X232100Y285900D02*
X237800D01*
X244800Y285900D02*
X250500D01*
X257500Y285900D02*
X263200Y285900D01*
X-6500Y16454D02*
Y22154D01*
Y34854D02*
X-6500Y29154D01*
X-6500Y41854D02*
Y47554D01*
Y54300D02*
Y60000D01*
Y72700D02*
X-6500Y67000D01*
X-6500Y79700D02*
Y85400D01*
Y92400D02*
Y98100D01*
Y105100D02*
X-6500Y110800D01*
X-6500Y117800D02*
Y123500D01*
Y136200D02*
X-6500Y130500D01*
X-6500Y143200D02*
Y148900D01*
Y155900D02*
Y161600D01*
Y168600D02*
X-6500Y174300D01*
X-6500Y181300D02*
Y187000D01*
Y199700D02*
X-6500Y194000D01*
X-6500Y206700D02*
Y212400D01*
Y219400D02*
Y225100D01*
X-6500Y232100D02*
Y237800D01*
X-6500Y244800D02*
Y250500D01*
Y263200D02*
X-6500Y257500D01*
X-6500Y269946D02*
Y285900D01*
X9454D01*
X285900Y269946D02*
Y285900D01*
X269946D02*
X285900D01*
X269946Y-6500D02*
X285900D01*
Y9454D01*
X-6500D02*
X9454Y-6500D01*
X-11176Y137160D02*
Y142240D01*
X-10470Y142946D02*
X-6500D01*
X-10470Y136454D02*
X-6500D01*
X-11176Y142240D02*
X-10470Y142946D01*
X-11176Y137160D02*
X-10470Y136454D01*
X-11176Y124460D02*
Y129540D01*
X-10470Y130246D02*
X-6500D01*
X-10470Y123754D02*
X-6500D01*
X-11176Y129540D02*
X-10470Y130246D01*
X-11176Y124460D02*
X-10470Y123754D01*
X-11176Y111760D02*
Y116840D01*
X-10470Y117546D02*
X-6500D01*
X-10470Y111054D02*
X-6500D01*
X-11176Y116840D02*
X-10470Y117546D01*
X-11176Y111760D02*
X-10470Y111054D01*
X-11176Y99060D02*
Y104140D01*
X-10470Y104846D02*
X-6500D01*
X-10470Y98354D02*
X-6500D01*
X-11176Y104140D02*
X-10470Y104846D01*
X-11176Y99060D02*
X-10470Y98354D01*
X-11176Y86360D02*
Y91440D01*
X-10470Y92146D02*
X-6500D01*
X-10470Y85654D02*
X-6500D01*
X-11176Y91440D02*
X-10470Y92146D01*
X-11176Y86360D02*
X-10470Y85654D01*
X-11176Y73660D02*
Y78740D01*
X-10470Y79446D02*
X-6500D01*
X-10470Y72954D02*
X-6500D01*
X-11176Y78740D02*
X-10470Y79446D01*
X-11176Y73660D02*
X-10470Y72954D01*
X-11176Y60960D02*
Y66040D01*
X-10470Y66746D02*
X-6500D01*
X-10470Y60254D02*
X-6500D01*
X-11176Y66040D02*
X-10470Y66746D01*
X-11176Y60960D02*
X-10470Y60254D01*
X-11176Y48260D02*
Y53340D01*
X-10470Y54046D02*
X-6500D01*
X-10470Y47554D02*
X-6500D01*
X-11176Y53340D02*
X-10470Y54046D01*
X-11176Y48260D02*
X-10470Y47554D01*
X-11176Y35560D02*
Y40640D01*
X-10470Y41346D02*
X-6500D01*
X-10470Y34854D02*
X-6500D01*
X-11176Y40640D02*
X-10470Y41346D01*
X-11176Y35560D02*
X-10470Y34854D01*
X-11176Y22860D02*
Y27940D01*
X-10470Y28646D02*
X-6500D01*
X-10470Y22154D02*
X-6500D01*
X-11176Y27940D02*
X-10470Y28646D01*
X-11176Y22860D02*
X-10470Y22154D01*
X-11176Y10160D02*
Y15240D01*
X-10470Y15946D02*
X-6500D01*
X-10470Y9454D02*
X-6500D01*
X-11176Y15240D02*
X-10470Y15946D01*
X-11176Y10160D02*
X-10470Y9454D01*
X10160Y-11176D02*
X15240D01*
X9454Y-10470D02*
Y-6500D01*
X15946Y-10470D02*
Y-6500D01*
X9454Y-10470D02*
X10160Y-11176D01*
X15240D02*
X15946Y-10470D01*
X22860Y-11176D02*
X27940D01*
X22154Y-10470D02*
Y-6500D01*
X28646Y-10470D02*
Y-6500D01*
X22154Y-10470D02*
X22860Y-11176D01*
X27940D02*
X28646Y-10470D01*
X35560Y-11176D02*
X40640D01*
X34854Y-10470D02*
Y-6500D01*
X41346Y-10470D02*
Y-6500D01*
X34854Y-10470D02*
X35560Y-11176D01*
X40640D02*
X41346Y-10470D01*
X48260Y-11176D02*
X53340D01*
X47554Y-10470D02*
Y-6500D01*
X54046Y-10470D02*
Y-6500D01*
X47554Y-10470D02*
X48260Y-11176D01*
X53340D02*
X54046Y-10470D01*
X60960Y-11176D02*
X66040D01*
X60254Y-10470D02*
Y-6500D01*
X66746Y-10470D02*
Y-6500D01*
X60254Y-10470D02*
X60960Y-11176D01*
X66040D02*
X66746Y-10470D01*
X73660Y-11176D02*
X78740D01*
X72954Y-10470D02*
Y-6500D01*
X79446Y-10470D02*
Y-6500D01*
X72954Y-10470D02*
X73660Y-11176D01*
X78740D02*
X79446Y-10470D01*
X86360Y-11176D02*
X91440D01*
X85654Y-10470D02*
Y-6500D01*
X92146Y-10470D02*
Y-6500D01*
X85654Y-10470D02*
X86360Y-11176D01*
X91440D02*
X92146Y-10470D01*
X99060Y-11176D02*
X104140D01*
X98354Y-10470D02*
Y-6500D01*
X104846Y-10470D02*
Y-6500D01*
X98354Y-10470D02*
X99060Y-11176D01*
X104140D02*
X104846Y-10470D01*
X111760Y-11176D02*
X116840D01*
X111054Y-10470D02*
Y-6500D01*
X117546Y-10470D02*
Y-6500D01*
X111054Y-10470D02*
X111760Y-11176D01*
X116840D02*
X117546Y-10470D01*
X124460Y-11176D02*
X129540D01*
X123754Y-10470D02*
Y-6500D01*
X130246Y-10470D02*
Y-6500D01*
X123754Y-10470D02*
X124460Y-11176D01*
X129540D02*
X130246Y-10470D01*
X137160Y-11176D02*
X142240D01*
X136454Y-10470D02*
Y-6500D01*
X142946Y-10470D02*
Y-6500D01*
X136454Y-10470D02*
X137160Y-11176D01*
X142240D02*
X142946Y-10470D01*
X149860Y-11176D02*
X154940D01*
X149154Y-10470D02*
Y-6500D01*
X155646Y-10470D02*
Y-6500D01*
X149154Y-10470D02*
X149860Y-11176D01*
X154940D02*
X155646Y-10470D01*
X162560Y-11176D02*
X167640D01*
X161854Y-10470D02*
Y-6500D01*
X168346Y-10470D02*
Y-6500D01*
X161854Y-10470D02*
X162560Y-11176D01*
X167640D02*
X168346Y-10470D01*
X175260Y-11176D02*
X180340D01*
X174554Y-10470D02*
Y-6500D01*
X181046Y-10470D02*
Y-6500D01*
X174554Y-10470D02*
X175260Y-11176D01*
X180340D02*
X181046Y-10470D01*
X187960Y-11176D02*
X193040D01*
X187254Y-10470D02*
Y-6500D01*
X193746Y-10470D02*
Y-6500D01*
X187254Y-10470D02*
X187960Y-11176D01*
X193040D02*
X193746Y-10470D01*
X200660Y-11176D02*
X205740D01*
X199954Y-10470D02*
Y-6500D01*
X206446Y-10470D02*
Y-6500D01*
X199954Y-10470D02*
X200660Y-11176D01*
X205740D02*
X206446Y-10470D01*
X213360Y-11176D02*
X218440D01*
X212654Y-10470D02*
Y-6500D01*
X219146Y-10470D02*
Y-6500D01*
X212654Y-10470D02*
X213360Y-11176D01*
X218440D02*
X219146Y-10470D01*
X226060Y-11176D02*
X231140D01*
X225354Y-10470D02*
Y-6500D01*
X231846Y-10470D02*
Y-6500D01*
X225354Y-10470D02*
X226060Y-11176D01*
X231140D02*
X231846Y-10470D01*
X238760Y-11176D02*
X243840D01*
X238054Y-10470D02*
Y-6500D01*
X244546Y-10470D02*
Y-6500D01*
X238054Y-10470D02*
X238760Y-11176D01*
X243840D02*
X244546Y-10470D01*
X251460Y-11176D02*
X256540D01*
X250754Y-10470D02*
Y-6500D01*
X257246Y-10470D02*
Y-6500D01*
X250754Y-10470D02*
X251460Y-11176D01*
X256540D02*
X257246Y-10470D01*
X264160Y-11176D02*
X269240D01*
X263454Y-10470D02*
Y-6500D01*
X269946Y-10470D02*
Y-6500D01*
X263454Y-10470D02*
X264160Y-11176D01*
X269240D02*
X269946Y-10470D01*
X290576Y10160D02*
Y15240D01*
X285900Y9454D02*
X289870D01*
X285900Y15946D02*
X289870D01*
Y9454D02*
X290576Y10160D01*
X289870Y15946D02*
X290576Y15240D01*
Y22860D02*
Y27940D01*
X285900Y22154D02*
X289870D01*
X285900Y28646D02*
X289870D01*
Y22154D02*
X290576Y22860D01*
X289870Y28646D02*
X290576Y27940D01*
Y35560D02*
Y40640D01*
X285900Y34854D02*
X289870D01*
X285900Y41346D02*
X289870D01*
Y34854D02*
X290576Y35560D01*
X289870Y41346D02*
X290576Y40640D01*
Y48260D02*
Y53340D01*
X285900Y47554D02*
X289870D01*
X285900Y54046D02*
X289870D01*
Y47554D02*
X290576Y48260D01*
X289870Y54046D02*
X290576Y53340D01*
Y60960D02*
Y66040D01*
X285900Y60254D02*
X289870D01*
X285900Y66746D02*
X289870D01*
Y60254D02*
X290576Y60960D01*
X289870Y66746D02*
X290576Y66040D01*
Y73660D02*
Y78740D01*
X285900Y72954D02*
X289870D01*
X285900Y79446D02*
X289870D01*
Y72954D02*
X290576Y73660D01*
X289870Y79446D02*
X290576Y78740D01*
Y86360D02*
Y91440D01*
X285900Y85654D02*
X289870D01*
X285900Y92146D02*
X289870D01*
Y85654D02*
X290576Y86360D01*
X289870Y92146D02*
X290576Y91440D01*
Y99060D02*
Y104140D01*
X285900Y98354D02*
X289870D01*
X285900Y104846D02*
X289870D01*
Y98354D02*
X290576Y99060D01*
X289870Y104846D02*
X290576Y104140D01*
Y111760D02*
Y116840D01*
X285900Y111054D02*
X289870D01*
X285900Y117546D02*
X289870D01*
Y111054D02*
X290576Y111760D01*
X289870Y117546D02*
X290576Y116840D01*
Y124460D02*
Y129540D01*
X285900Y123754D02*
X289870D01*
X285900Y130246D02*
X289870D01*
Y123754D02*
X290576Y124460D01*
X289870Y130246D02*
X290576Y129540D01*
Y137160D02*
Y142240D01*
X285900Y136454D02*
X289870D01*
X285900Y142946D02*
X289870D01*
Y136454D02*
X290576Y137160D01*
X289870Y142946D02*
X290576Y142240D01*
Y149860D02*
Y154940D01*
X285900Y149154D02*
X289870D01*
X285900Y155646D02*
X289870D01*
Y149154D02*
X290576Y149860D01*
X289870Y155646D02*
X290576Y154940D01*
Y162560D02*
Y167640D01*
X285900Y161854D02*
X289870D01*
X285900Y168346D02*
X289870D01*
Y161854D02*
X290576Y162560D01*
X289870Y168346D02*
X290576Y167640D01*
Y175260D02*
Y180340D01*
X285900Y174554D02*
X289870D01*
X285900Y181046D02*
X289870D01*
Y174554D02*
X290576Y175260D01*
X289870Y181046D02*
X290576Y180340D01*
Y187960D02*
Y193040D01*
X285900Y187254D02*
X289870D01*
X285900Y193746D02*
X289870D01*
Y187254D02*
X290576Y187960D01*
X289870Y193746D02*
X290576Y193040D01*
Y200660D02*
Y205740D01*
X285900Y199954D02*
X289870D01*
X285900Y206446D02*
X289870D01*
Y199954D02*
X290576Y200660D01*
X289870Y206446D02*
X290576Y205740D01*
Y213360D02*
Y218440D01*
X285900Y212654D02*
X289870D01*
X285900Y219146D02*
X289870D01*
Y212654D02*
X290576Y213360D01*
X289870Y219146D02*
X290576Y218440D01*
Y226060D02*
Y231140D01*
X285900Y225354D02*
X289870D01*
X285900Y231846D02*
X289870D01*
Y225354D02*
X290576Y226060D01*
X289870Y231846D02*
X290576Y231140D01*
Y238760D02*
Y243840D01*
X285900Y238054D02*
X289870D01*
X285900Y244546D02*
X289870D01*
Y238054D02*
X290576Y238760D01*
X289870Y244546D02*
X290576Y243840D01*
Y251460D02*
Y256540D01*
X285900Y250754D02*
X289870D01*
X285900Y257246D02*
X289870D01*
Y250754D02*
X290576Y251460D01*
X289870Y257246D02*
X290576Y256540D01*
Y264160D02*
Y269240D01*
X285900Y263454D02*
X289870D01*
X285900Y269946D02*
X289870D01*
Y263454D02*
X290576Y264160D01*
X289870Y269946D02*
X290576Y269240D01*
X264160Y290576D02*
X269240D01*
X269946Y285900D02*
Y289870D01*
X263454Y285900D02*
Y289870D01*
X269240Y290576D02*
X269946Y289870D01*
X263454D02*
X264160Y290576D01*
X251460D02*
X256540D01*
X257246Y285900D02*
Y289870D01*
X250754Y285900D02*
Y289870D01*
X256540Y290576D02*
X257246Y289870D01*
X250754D02*
X251460Y290576D01*
X238760D02*
X243840D01*
X244546Y285900D02*
Y289870D01*
X238054Y285900D02*
Y289870D01*
X243840Y290576D02*
X244546Y289870D01*
X238054D02*
X238760Y290576D01*
X226060D02*
X231140D01*
X231846Y285900D02*
Y289870D01*
X225354Y285900D02*
Y289870D01*
X231140Y290576D02*
X231846Y289870D01*
X225354D02*
X226060Y290576D01*
X213360D02*
X218440D01*
X219146Y285900D02*
Y289870D01*
X212654Y285900D02*
Y289870D01*
X218440Y290576D02*
X219146Y289870D01*
X212654D02*
X213360Y290576D01*
X200660D02*
X205740D01*
X206446Y285900D02*
Y289870D01*
X199954Y285900D02*
Y289870D01*
X205740Y290576D02*
X206446Y289870D01*
X199954D02*
X200660Y290576D01*
X187960D02*
X193040D01*
X193746Y285900D02*
Y289870D01*
X187254Y285900D02*
Y289870D01*
X193040Y290576D02*
X193746Y289870D01*
X187254D02*
X187960Y290576D01*
X175260D02*
X180340D01*
X181046Y285900D02*
Y289870D01*
X174554Y285900D02*
Y289870D01*
X180340Y290576D02*
X181046Y289870D01*
X174554D02*
X175260Y290576D01*
X162560D02*
X167640D01*
X168346Y285900D02*
Y289870D01*
X161854Y285900D02*
Y289870D01*
X167640Y290576D02*
X168346Y289870D01*
X161854D02*
X162560Y290576D01*
X149860D02*
X154940D01*
X155646Y285900D02*
Y289870D01*
X149154Y285900D02*
Y289870D01*
X154940Y290576D02*
X155646Y289870D01*
X149154D02*
X149860Y290576D01*
X137160D02*
X142240D01*
X142946Y285900D02*
Y289870D01*
X136454Y285900D02*
Y289870D01*
X142240Y290576D02*
X142946Y289870D01*
X136454D02*
X137160Y290576D01*
X124460D02*
X129540D01*
X130246Y285900D02*
Y289870D01*
X123754Y285900D02*
Y289870D01*
X129540Y290576D02*
X130246Y289870D01*
X123754D02*
X124460Y290576D01*
X111760D02*
X116840D01*
X117546Y285900D02*
Y289870D01*
X111054Y285900D02*
Y289870D01*
X116840Y290576D02*
X117546Y289870D01*
X111054D02*
X111760Y290576D01*
X99060D02*
X104140D01*
X104846Y285900D02*
Y289870D01*
X98354Y285900D02*
Y289870D01*
X104140Y290576D02*
X104846Y289870D01*
X98354D02*
X99060Y290576D01*
X86360D02*
X91440D01*
X92146Y285900D02*
Y289870D01*
X85654Y285900D02*
Y289870D01*
X91440Y290576D02*
X92146Y289870D01*
X85654D02*
X86360Y290576D01*
X73660D02*
X78740D01*
X79446Y285900D02*
Y289870D01*
X72954Y285900D02*
Y289870D01*
X78740Y290576D02*
X79446Y289870D01*
X72954D02*
X73660Y290576D01*
X60960D02*
X66040D01*
X66746Y285900D02*
Y289870D01*
X60254Y285900D02*
Y289870D01*
X66040Y290576D02*
X66746Y289870D01*
X60254D02*
X60960Y290576D01*
X48260D02*
X53340D01*
X54046Y285900D02*
Y289870D01*
X47554Y285900D02*
Y289870D01*
X53340Y290576D02*
X54046Y289870D01*
X47554D02*
X48260Y290576D01*
X35560D02*
X40640D01*
X41346Y285900D02*
Y289870D01*
X34854Y285900D02*
Y289870D01*
X40640Y290576D02*
X41346Y289870D01*
X34854D02*
X35560Y290576D01*
X22860D02*
X27940D01*
X28646Y285900D02*
Y289870D01*
X22154Y285900D02*
Y289870D01*
X27940Y290576D02*
X28646Y289870D01*
X22154D02*
X22860Y290576D01*
X10160D02*
X15240D01*
X15946Y285900D02*
Y289870D01*
X9454Y285900D02*
Y289870D01*
X15240Y290576D02*
X15946Y289870D01*
X9454D02*
X10160Y290576D01*
X-11176Y264160D02*
Y269240D01*
X-10470Y269946D02*
X-6500D01*
X-10470Y263454D02*
X-6500D01*
X-11176Y269240D02*
X-10470Y269946D01*
X-11176Y264160D02*
X-10470Y263454D01*
X-11176Y251460D02*
Y256540D01*
X-10470Y257246D02*
X-6500D01*
X-10470Y250754D02*
X-6500D01*
X-11176Y256540D02*
X-10470Y257246D01*
X-11176Y251460D02*
X-10470Y250754D01*
X-11176Y238760D02*
Y243840D01*
X-10470Y244546D02*
X-6500D01*
X-10470Y238054D02*
X-6500D01*
X-11176Y243840D02*
X-10470Y244546D01*
X-11176Y238760D02*
X-10470Y238054D01*
X-11176Y226060D02*
Y231140D01*
X-10470Y231846D02*
X-6500D01*
X-10470Y225354D02*
X-6500D01*
X-11176Y231140D02*
X-10470Y231846D01*
X-11176Y226060D02*
X-10470Y225354D01*
X-11176Y213360D02*
Y218440D01*
X-10470Y219146D02*
X-6500D01*
X-10470Y212654D02*
X-6500D01*
X-11176Y218440D02*
X-10470Y219146D01*
X-11176Y213360D02*
X-10470Y212654D01*
X-11176Y200660D02*
Y205740D01*
X-10470Y206446D02*
X-6500D01*
X-10470Y199954D02*
X-6500D01*
X-11176Y205740D02*
X-10470Y206446D01*
X-11176Y200660D02*
X-10470Y199954D01*
X-11176Y187960D02*
Y193040D01*
X-10470Y193746D02*
X-6500D01*
X-10470Y187254D02*
X-6500D01*
X-11176Y193040D02*
X-10470Y193746D01*
X-11176Y187960D02*
X-10470Y187254D01*
X-11176Y175260D02*
Y180340D01*
X-10470Y181046D02*
X-6500D01*
X-10470Y174554D02*
X-6500D01*
X-11176Y180340D02*
X-10470Y181046D01*
X-11176Y175260D02*
X-10470Y174554D01*
X-11176Y162560D02*
Y167640D01*
X-10470Y168346D02*
X-6500D01*
X-10470Y161854D02*
X-6500D01*
X-11176Y167640D02*
X-10470Y168346D01*
X-11176Y162560D02*
X-10470Y161854D01*
X-11176Y149860D02*
Y154940D01*
X-10470Y155646D02*
X-6500D01*
X-10470Y149154D02*
X-6500D01*
X-11176Y154940D02*
X-10470Y155646D01*
X-11176Y149860D02*
X-10470Y149154D01*
D34*
X245750Y169000D02*
Y174000D01*
X196259Y105833D02*
X210083D01*
X223500Y119250D01*
X157750Y97500D02*
Y134250D01*
X224250Y171250D02*
X233750D01*
X234000Y171500D01*
X181250Y115000D02*
Y118250D01*
Y114500D02*
Y115000D01*
X181125Y114375D02*
X181250Y114500D01*
X50500Y79250D02*
Y79650D01*
X266000Y174000D02*
X268500Y171500D01*
X266500Y128250D02*
X271500Y133250D01*
X223500Y119250D02*
X237500D01*
X268250Y177750D02*
X270250Y175750D01*
X266500Y111750D02*
Y128250D01*
X271500Y147000D02*
Y157000D01*
X270750Y146250D02*
X271500Y147000D01*
Y157000D02*
X273750Y159250D01*
X272000Y161000D02*
X273750Y159250D01*
X272000Y161000D02*
Y171500D01*
X275250D01*
X268500D02*
X272000D01*
X245750Y169000D02*
X245750Y169000D01*
X245750Y174000D02*
X266000D01*
X157000Y143750D02*
X159250Y141500D01*
X157750Y134250D02*
X159250Y135750D01*
X157500Y97250D02*
X157750Y97500D01*
X149500Y217250D02*
X153000D01*
X154750Y215500D01*
X195250D01*
X200750Y221000D01*
X268250Y177750D02*
Y187250D01*
X107500Y195750D02*
X127250Y215500D01*
X147750D01*
X149500Y217250D01*
X200750Y221000D02*
X225750D01*
X227750Y219000D01*
X236500D01*
X268250Y187250D01*
X159250Y135750D02*
Y141500D01*
X149750Y143750D02*
X157000D01*
X145750Y147750D02*
X149750Y143750D01*
D35*
X0Y76200D02*
X7750Y68450D01*
Y61000D02*
Y68450D01*
Y61000D02*
X11250Y57500D01*
Y43250D02*
Y57500D01*
X0Y63500D02*
X7750Y55750D01*
Y41750D02*
Y55750D01*
Y41750D02*
X24000Y25500D01*
X11250Y43250D02*
X22500Y32000D01*
X24000Y25500D02*
X97950D01*
X22500Y32000D02*
X60050D01*
X97950Y25500D02*
X101300Y28850D01*
X60050Y32000D02*
X63200Y28850D01*
D36*
X64500Y127500D02*
X67500Y124500D01*
X58000Y127500D02*
X64500D01*
X59670Y264150D02*
X62270Y266750D01*
X14250Y271000D02*
X15750Y269500D01*
X56820Y267000D02*
X59670Y264150D01*
X29750Y267000D02*
X56820D01*
X27250Y269500D02*
X29750Y267000D01*
X15750Y269500D02*
X27250D01*
X0Y114300D02*
X12586D01*
X21286Y123000D01*
X53500D02*
X58000Y127500D01*
X21286Y123000D02*
X53500D01*
X238500Y227000D02*
X241750Y223750D01*
X119600Y272000D02*
X127000Y279400D01*
X87000Y272000D02*
X119600D01*
X164000Y227000D02*
X238500D01*
X62270Y266750D02*
X124250D01*
X164000Y227000D01*
X165000Y229500D02*
X190000D01*
X139700Y254800D02*
X165000Y229500D01*
X139700Y254800D02*
Y279400D01*
D37*
X185749Y119500D02*
X205499D01*
X181759Y115509D02*
X185749Y119500D01*
X203750Y127250D02*
X208500Y122500D01*
X196000Y127250D02*
X203750D01*
X181250Y115000D02*
X181759Y115509D01*
X190750Y138250D02*
X193500Y135500D01*
X188375Y140625D02*
X190750Y138250D01*
X192750Y140250D02*
Y145000D01*
X190750Y138250D02*
X192750Y140250D01*
X193500Y135500D02*
X196000Y132999D01*
X192750Y145000D02*
X193500Y144250D01*
Y135500D02*
Y144250D01*
X190250Y127250D02*
X196000D01*
Y127750D02*
Y132999D01*
Y127250D02*
Y127750D01*
X176756Y113756D02*
X181250Y118250D01*
X160250Y97250D02*
X176756Y113756D01*
X180625Y114375D02*
X181125Y114875D01*
X160750Y94500D02*
X180625Y114375D01*
X181750Y118750D02*
X190250Y127250D01*
X181250Y118250D02*
X181750Y118750D01*
X181125Y114875D02*
X181250Y115000D01*
X160750Y94028D02*
Y94500D01*
Y94000D02*
Y94028D01*
X205499Y119500D02*
X208500Y122500D01*
X157500Y97250D02*
X160250D01*
D38*
X160750Y100500D02*
X169250Y109000D01*
X157750Y97500D02*
X160750Y100500D01*
X167006Y113756D02*
X174006D01*
X169250Y109000D02*
X174006Y113756D01*
X167736Y100014D02*
X176250Y91500D01*
Y83500D02*
Y91500D01*
X176000Y109250D02*
X181125Y114375D01*
X173000Y106250D02*
X176000Y109250D01*
X163986Y97264D02*
X167736Y101014D01*
X160750Y94028D02*
X163986Y97264D01*
X173625Y81125D02*
X176250Y78500D01*
X160750Y94000D02*
X173625Y81125D01*
X163986Y97264D02*
X173625Y87625D01*
Y81125D02*
Y87625D01*
X167736Y101014D02*
X172972Y106250D01*
X167736Y100014D02*
Y101014D01*
X23000Y97250D02*
X157500D01*
X180625Y114375D02*
X181125D01*
X180156D02*
X180625D01*
X176756Y113756D02*
X179537D01*
X174006D02*
X176756D01*
X179537D02*
X180156Y114375D01*
X181125D02*
Y114875D01*
X172972Y106250D02*
X173000D01*
X0Y38100D02*
X1900D01*
X0Y76200D02*
X1950D01*
X23000Y97250D01*
X126700Y79650D02*
X135350Y71000D01*
X168750D01*
X1900Y38100D02*
X20500Y19500D01*
X165750D01*
X33850Y63000D02*
X50500Y79650D01*
X67200Y50250D02*
X75900Y41550D01*
X46500Y50250D02*
X67200D01*
X37800Y41550D02*
X46500Y50250D01*
X0Y101600D02*
X7350D01*
X168750Y71000D02*
X176250Y78500D01*
X17300Y63000D02*
X33850D01*
X7350Y101600D02*
X23500Y117750D01*
X165750Y19500D02*
X176250Y30000D01*
X23500Y117750D02*
X70500D01*
X157500Y97250D02*
X160750Y94000D01*
D39*
X226340Y194500D02*
Y203090D01*
X181759Y108741D02*
Y115509D01*
X180750Y88000D02*
X186000Y93250D01*
X176250Y83500D02*
X180750Y88000D01*
X176250Y91500D02*
X179750Y88000D01*
X180750D01*
X181125Y109375D02*
X181759Y108741D01*
Y115509D02*
Y116500D01*
Y108741D02*
X184000Y106500D01*
Y99750D02*
X186000Y97750D01*
X176000Y107750D02*
X184000Y99750D01*
X181125Y109375D02*
Y114375D01*
X184000Y99750D02*
Y106500D01*
X176000Y107750D02*
Y109250D01*
X186000Y93250D02*
Y97750D01*
X176250Y78500D02*
Y83500D01*
X224250Y171250D02*
Y179000D01*
Y163500D02*
Y171250D01*
Y179000D02*
Y183250D01*
X217000Y147000D02*
X221000D01*
X211000D02*
X217000D01*
X208036Y138036D02*
Y144036D01*
Y131714D02*
Y138036D01*
X217000Y147000D01*
X208036Y131714D02*
X221000Y144678D01*
X205411Y129089D02*
X208036Y131714D01*
Y144036D02*
X211000Y147000D01*
X221000Y144678D02*
X222071Y145750D01*
X224250D02*
Y163500D01*
Y142750D02*
Y145750D01*
X222071D02*
X224250D01*
Y138250D02*
Y142750D01*
X226340Y190660D02*
Y192340D01*
Y190660D02*
X229179Y193500D01*
X224250Y188571D02*
X226340Y190660D01*
Y203090D02*
X229750Y206500D01*
X224250Y183250D02*
Y188571D01*
X210750Y124750D02*
X224250Y138250D01*
X208500Y122500D02*
X210750Y124750D01*
X27300Y88500D02*
X79750D01*
X17300Y78500D02*
X27300Y88500D01*
X143400Y50250D02*
X152100Y41550D01*
X135650Y50250D02*
X143400D01*
X126950Y41550D02*
X135650Y50250D01*
X114000Y41550D02*
X126950D01*
X152100Y41550D02*
X159400Y34250D01*
X172000D01*
X176250Y30000D01*
X79750Y88500D02*
X88600Y79650D01*
X229750Y193500D02*
Y200000D01*
Y206500D01*
X229179Y193500D02*
X229750D01*
D40*
X160750Y106250D02*
Y110000D01*
Y100500D02*
Y106250D01*
X166875Y111375D02*
X169250Y109000D01*
X165750Y112500D02*
X166875Y111375D01*
X160750Y106250D02*
X165875Y111375D01*
X166875D01*
X165750Y115000D02*
Y121407D01*
Y112500D02*
Y115000D01*
X160750Y110000D02*
X165750Y115000D01*
X173750Y123750D02*
X179750D01*
X181750Y121750D01*
X173750Y123750D02*
Y129750D01*
X168093Y123750D02*
X173750D01*
X176125Y132125D02*
X178000Y134000D01*
X173750Y129750D02*
X176125Y132125D01*
X181750Y131749D02*
Y134000D01*
Y121750D02*
Y131749D01*
X183875Y129625D01*
X181375Y132125D02*
X181750Y131749D01*
X176125Y132125D02*
X181375D01*
X178000Y134000D02*
X181750D01*
X165750Y121407D02*
X168093Y123750D01*
X187750Y127750D02*
X196000D01*
X192376Y140625D02*
X192750Y140250D01*
X188375Y140625D02*
X192376D01*
X196750Y145000D02*
X205000D01*
X192750D02*
X196750D01*
Y128499D02*
Y145000D01*
X196000Y127750D02*
X196750Y128499D01*
X188375Y140625D02*
X192750Y145000D01*
X181750Y134000D02*
X188375Y140625D01*
X196000Y127750D02*
X203500D01*
X183875Y123875D02*
X187750Y127750D01*
X181750Y121750D02*
X183875Y123875D01*
X185000Y130750D02*
X187750Y128000D01*
X181750Y134000D02*
X185000Y130750D01*
X183875Y129625D02*
X185000Y130750D01*
X183875Y123875D02*
Y129625D01*
X187750Y127750D02*
Y128000D01*
X224250Y190250D02*
X226340Y192340D01*
X221750Y187750D02*
X224250Y190250D01*
X234000Y171500D02*
Y179500D01*
Y163500D02*
Y171500D01*
X224250Y179000D02*
X233500D01*
X234000Y179500D02*
Y184000D01*
X233500Y179000D02*
X234000Y179500D01*
Y184000D02*
Y190000D01*
X224250Y183250D02*
X224750Y182750D01*
X232750D01*
X234000Y184000D01*
X221000Y147000D02*
Y150000D01*
Y144678D02*
Y147000D01*
X205000Y145000D02*
X210000Y150000D01*
X205000Y129250D02*
Y145000D01*
X221000Y150000D02*
Y180000D01*
X203500Y127750D02*
X207750D01*
X210000Y150000D02*
X221000D01*
X203500Y127750D02*
X205000Y129250D01*
X221000Y140999D02*
Y144678D01*
X227750Y163500D02*
X230750D01*
X224250D02*
X227750D01*
Y146250D02*
X230750Y149250D01*
X224250Y142750D02*
X227750Y146250D01*
Y163500D01*
X230750D02*
X234000D01*
X230750Y149250D02*
Y163500D01*
X224250Y138250D02*
X234000Y148000D01*
Y163500D01*
X230500Y193500D02*
X234000Y190000D01*
X226340Y192340D02*
Y194500D01*
X221750Y180750D02*
Y187750D01*
Y180750D02*
X224250Y183250D01*
X221000Y180000D02*
X221750Y180750D01*
X207750Y127750D02*
X221000Y140999D01*
X207750Y127750D02*
X210750Y124750D01*
X181750Y118750D02*
Y121750D01*
Y116750D02*
Y118750D01*
X101250Y202000D02*
X107500Y195750D01*
X17000Y196500D02*
X22500Y202000D01*
X13000Y196500D02*
X17000D01*
X12509Y196991D02*
X13000Y196500D01*
X4009Y196991D02*
X12509D01*
X22500Y202000D02*
X101250D01*
D42*
X-4500Y114300D02*
D03*
Y101600D02*
D03*
Y76200D02*
D03*
Y63500D02*
D03*
Y38100D02*
D03*
Y25400D02*
D03*
Y12700D02*
D03*
D43*
X139700Y283900D02*
D03*
X127000D02*
D03*
D44*
X196259Y105833D02*
D03*
X217750Y183750D02*
D03*
X158750Y276500D02*
D03*
X164750Y199750D02*
D03*
X14250Y271000D02*
D03*
X155800Y9250D02*
D03*
X54800D02*
D03*
X101500Y74000D02*
D03*
X101300Y28850D02*
D03*
X63200D02*
D03*
X59670Y264150D02*
D03*
X77750Y269750D02*
D03*
X213750Y193750D02*
D03*
X209750Y175750D02*
D03*
X193750D02*
D03*
X201750Y167750D02*
D03*
X215250Y155750D02*
D03*
X165750Y152500D02*
D03*
X107500Y195750D02*
D03*
X201750Y207750D02*
D03*
X229750Y206500D02*
D03*
Y200000D02*
D03*
Y193500D02*
D03*
X270250Y175750D02*
D03*
X233750Y223750D02*
D03*
X225750Y215750D02*
D03*
X210250Y93750D02*
D03*
X242750Y53750D02*
D03*
X244500Y67750D02*
D03*
X240000Y67750D02*
D03*
X145750Y147750D02*
D03*
X270750Y146250D02*
D03*
X271500Y120250D02*
D03*
X245750Y171500D02*
D03*
X245750Y169000D02*
D03*
X229750Y213000D02*
D03*
X241750Y223750D02*
D03*
X67500Y124500D02*
D03*
X207000Y199750D02*
D03*
X185750Y207750D02*
D03*
X131500Y149000D02*
D03*
X135500Y251500D02*
D03*
X271500Y133250D02*
D03*
X250000Y110750D02*
D03*
X250250Y95656D02*
D03*
X272000Y126750D02*
D03*
X237500Y119250D02*
D03*
X196250Y95750D02*
D03*
Y98250D02*
D03*
X201750Y231750D02*
D03*
X209750D02*
D03*
X185750Y239750D02*
D03*
X217750Y255750D02*
D03*
X241750Y247750D02*
D03*
X149250Y199250D02*
D03*
X137750Y175750D02*
D03*
X193750Y199750D02*
D03*
X107500Y145250D02*
D03*
Y160250D02*
D03*
X266500Y111750D02*
D03*
X273750Y159250D02*
D03*
X275250Y171500D02*
D03*
X255000Y215500D02*
D03*
X245750Y174000D02*
D03*
X209750Y191750D02*
D03*
X161750Y247750D02*
D03*
X87000Y272000D02*
D03*
X190000Y229500D02*
D03*
X107500Y190750D02*
D03*
Y177250D02*
D03*
X158500Y209750D02*
D03*
X153750Y220750D02*
D03*
X241750Y167750D02*
D03*
X215250Y164250D02*
D03*
D45*
X245000Y24500D02*
D03*
X15000Y264000D02*
D03*
X44250Y273500D02*
D03*
X253250Y61000D02*
D03*
X259000Y71000D02*
D03*
X210500Y6750D02*
D03*
X116500Y112750D02*
D03*
X4000Y197000D02*
D03*
X95250Y207000D02*
D03*
X273500Y184000D02*
D03*
D46*
X54750Y150250D02*
D03*
X40000D02*
D03*
X101300Y41550D02*
D03*
X139400Y41550D02*
D03*
X164800Y41550D02*
D03*
X75900Y79650D02*
D03*
X37800D02*
D03*
X106500Y11000D02*
D03*
X37800Y41550D02*
D03*
X75900Y41550D02*
D03*
X114000D02*
D03*
X152100Y41550D02*
D03*
X17300Y45500D02*
D03*
X17300Y78500D02*
D03*
X50500Y79650D02*
D03*
X114000Y86100D02*
D03*
X126700Y79650D02*
D03*
X50500Y66950D02*
D03*
X126700Y54250D02*
D03*
X43250Y253070D02*
D03*
Y245500D02*
D03*
X176250Y78500D02*
D03*
X176299Y12500D02*
D03*
X176250Y45500D02*
D03*
X63200Y41550D02*
D03*
X176250Y30000D02*
D03*
X70500Y117750D02*
D03*
X88600Y79650D02*
D03*
D47*
X17300Y63000D02*
D03*
D48*
X214500Y212500D02*
D03*
D49*
X215250Y191500D02*
X218750Y195000D01*
X211750Y193750D02*
X214500Y196500D01*
X215250Y191500D02*
Y195750D01*
X208250Y193750D02*
X211750D01*
X215250Y181250D02*
Y186250D01*
X186000Y156500D02*
X199500Y170000D01*
X215250Y170250D02*
Y181250D01*
X209750Y175750D02*
X215250Y181250D01*
X213250Y156250D02*
X213750Y155750D01*
X209750Y159750D02*
X213250Y156250D01*
X214750D01*
X174250D02*
X213250D01*
X174000Y156500D02*
X174250Y156250D01*
X214750D02*
X215250Y155750D01*
X214500Y205250D02*
Y212500D01*
Y196500D02*
Y205250D01*
X205500Y193750D02*
X208250D01*
X211750Y202500D02*
X214500Y205250D01*
X211750Y197250D02*
Y202500D01*
X208250Y193750D02*
X211750Y197250D01*
X209750Y191750D02*
X211750Y193750D01*
X175000Y163250D02*
X205500Y193750D01*
X175000Y157500D02*
Y163250D01*
X174000Y156500D02*
X175000Y157500D01*
X215250Y186250D02*
Y191500D01*
X214500Y212500D02*
X218750Y208250D01*
Y195000D02*
Y208250D01*
X214500Y196500D02*
X215250Y195750D01*
X209750Y191750D02*
X215250Y186250D01*
X215250Y164250D02*
X215250Y164250D01*
X215250Y155750D02*
Y164250D01*
X209750Y159750D02*
X214250Y164250D01*
X215250D01*
X193750Y175750D02*
X201750Y183750D01*
X209750Y191750D01*
X201750Y183750D02*
X209750Y175750D01*
X202250Y156500D02*
X206500D01*
X198000D02*
X202250D01*
X207375Y162125D02*
X209750Y159750D01*
X205500Y164000D02*
X207375Y162125D01*
Y161625D02*
Y162125D01*
X202250Y156500D02*
X207375Y161625D01*
X201750Y167750D02*
X205500Y164000D01*
X198000Y156500D02*
X205500Y164000D01*
X191500Y156500D02*
X198000D01*
X186000D02*
X191500D01*
X201750Y166750D02*
Y167750D01*
X191500Y156500D02*
X201750Y166750D01*
X199500Y170000D02*
X201750Y167750D01*
X193750Y175750D02*
X199500Y170000D01*
X180500Y156500D02*
X186000D01*
X174500D02*
X180500D01*
X193750Y169750D01*
Y175750D01*
X174000Y156500D02*
X174500D01*
X193750Y175750D01*
X165750Y152500D02*
X170000D01*
X203000Y46750D02*
X217750Y32000D01*
X241500D01*
X263000Y53500D01*
Y67000D01*
X259000Y71000D02*
X263000Y67000D01*
X181250Y52500D02*
X187000Y46750D01*
X203000D01*
X155250Y48250D02*
X167750D01*
X172000Y52500D01*
X181250D01*
X141500Y62000D02*
X155250Y48250D01*
X50500Y79650D02*
X63350D01*
X81000Y62000D01*
X141500D01*
X209750Y191750D02*
Y191750D01*
X209750Y175750D02*
X209750D01*
X213750Y155750D02*
X215250D01*
X209750Y175750D02*
X215250Y170250D01*
Y164250D02*
Y170250D01*
X201750Y167750D02*
X209750Y175750D01*
X170000Y152500D02*
X174000Y156500D01*
X206500D02*
X209750Y159750D01*
M02*
