G04 Layer_Physical_Order=2*
G04 Layer_Color=7286632*
%FSLAX44Y44*%
%MOMM*%
G71*
G01*
G75*
%ADD33C,0.2000*%
%ADD34C,0.3000*%
%ADD36C,0.1000*%
%ADD41R,1.6000X0.7000*%
G04:AMPARAMS|DCode=42|XSize=0.7mm|YSize=1.6mm|CornerRadius=0.175mm|HoleSize=0mm|Usage=FLASHONLY|Rotation=90.000|XOffset=0mm|YOffset=0mm|HoleType=Round|Shape=RoundedRectangle|*
%AMROUNDEDRECTD42*
21,1,0.7000,1.2500,0,0,90.0*
21,1,0.3500,1.6000,0,0,90.0*
1,1,0.3500,0.6250,0.1750*
1,1,0.3500,0.6250,-0.1750*
1,1,0.3500,-0.6250,-0.1750*
1,1,0.3500,-0.6250,0.1750*
%
%ADD42ROUNDEDRECTD42*%
G04:AMPARAMS|DCode=43|XSize=0.7mm|YSize=1.6mm|CornerRadius=0.175mm|HoleSize=0mm|Usage=FLASHONLY|Rotation=180.000|XOffset=0mm|YOffset=0mm|HoleType=Round|Shape=RoundedRectangle|*
%AMROUNDEDRECTD43*
21,1,0.7000,1.2500,0,0,180.0*
21,1,0.3500,1.6000,0,0,180.0*
1,1,0.3500,-0.1750,0.6250*
1,1,0.3500,0.1750,0.6250*
1,1,0.3500,0.1750,-0.6250*
1,1,0.3500,-0.1750,-0.6250*
%
%ADD43ROUNDEDRECTD43*%
%ADD44C,0.2000*%
%ADD45C,0.4000*%
%ADD46C,0.6000*%
G36*
X198646Y277650D02*
X198860Y276577D01*
X199467Y275667D01*
X200377Y275060D01*
X201450Y274846D01*
X203876D01*
Y264250D01*
X204352Y263102D01*
X216876Y250578D01*
Y235850D01*
X217236Y234982D01*
X217064Y234114D01*
X216763Y233496D01*
X216308Y233192D01*
X215866Y232530D01*
X215711Y231750D01*
X215866Y230970D01*
X216308Y230308D01*
X216970Y229866D01*
X217750Y229711D01*
X218876Y228686D01*
Y226814D01*
X218772Y226672D01*
X217606Y226190D01*
X216398Y227398D01*
X215250Y227874D01*
X208250D01*
X207102Y227398D01*
X204731Y225028D01*
X203192Y225192D01*
X202530Y225634D01*
X201750Y225789D01*
X200970Y225634D01*
X200308Y225192D01*
X199866Y224530D01*
X199775Y224071D01*
X195102Y219398D01*
X194626Y218250D01*
X193750Y217789D01*
X192970Y217634D01*
X192580Y217374D01*
X190000D01*
X188852Y216898D01*
X188773Y216819D01*
X187255Y217097D01*
X187192Y217192D01*
X186530Y217634D01*
X185750Y217789D01*
X184970Y217634D01*
X184308Y217192D01*
X183866Y216530D01*
X183775Y216071D01*
X182577Y214874D01*
X164910D01*
X163789Y215750D01*
X163634Y216530D01*
X163717Y216799D01*
X164329Y217776D01*
X164780Y217866D01*
X165442Y218308D01*
X165817Y218869D01*
X165961Y218984D01*
X167340Y218556D01*
X167366Y218470D01*
X167419Y218390D01*
X167808Y217808D01*
X168470Y217366D01*
X169250Y217211D01*
X170030Y217366D01*
X170692Y217808D01*
X171134Y218470D01*
X171289Y219250D01*
X171134Y220030D01*
X170692Y220692D01*
X170103Y221086D01*
X170030Y221649D01*
Y221851D01*
X170103Y222414D01*
X170692Y222808D01*
X171134Y223470D01*
X171289Y224250D01*
X171134Y225030D01*
X170692Y225692D01*
X170030Y226134D01*
X169250Y226289D01*
X168470Y226134D01*
X167808Y225692D01*
X167366Y225030D01*
X167211Y224250D01*
X167366Y223470D01*
X167808Y222808D01*
X168397Y222414D01*
X168470Y221851D01*
Y221649D01*
X168397Y221086D01*
X167808Y220692D01*
X167433Y220131D01*
X167289Y220016D01*
X165910Y220444D01*
X165884Y220530D01*
X165831Y220610D01*
X165442Y221192D01*
X164780Y221634D01*
X164000Y221789D01*
X163220Y221634D01*
X162558Y221192D01*
X162116Y220530D01*
X161961Y219750D01*
X162116Y218970D01*
X162033Y218701D01*
X161421Y217724D01*
X160970Y217634D01*
X160954Y217624D01*
X149750D01*
X149279Y217428D01*
X148554Y217177D01*
X147692Y217692D01*
X147051Y218225D01*
X147314Y219356D01*
X147374Y219500D01*
Y222580D01*
X147634Y222970D01*
X147789Y223750D01*
X147634Y224530D01*
X147192Y225192D01*
X146530Y225634D01*
X145750Y225789D01*
X144970Y225634D01*
X144308Y225192D01*
X143866Y224530D01*
X143711Y223750D01*
X143855Y223027D01*
X143725Y222850D01*
X142957Y222199D01*
X142856Y222166D01*
X142530Y222384D01*
X141750Y222539D01*
X140970Y222384D01*
X140644Y222166D01*
X140543Y222199D01*
X139775Y222850D01*
X139645Y223027D01*
X139789Y223750D01*
X139634Y224530D01*
X139192Y225192D01*
X139028Y226731D01*
X143020Y230724D01*
X144207Y230500D01*
X144444Y230352D01*
X144808Y229808D01*
X145470Y229366D01*
X146250Y229211D01*
X147030Y229366D01*
X147692Y229808D01*
X148134Y230470D01*
X148289Y231250D01*
X148218Y231606D01*
X148850Y232660D01*
X149096Y232876D01*
X150328D01*
X151775Y231429D01*
X151866Y230970D01*
X152308Y230308D01*
X152970Y229866D01*
X153750Y229711D01*
X154201Y229801D01*
X155026Y229170D01*
X155267Y228831D01*
X155201Y228500D01*
X155395Y227525D01*
X155948Y226698D01*
X156775Y226145D01*
X157750Y225951D01*
X158725Y226145D01*
X159552Y226698D01*
X160105Y227525D01*
X160299Y228500D01*
X160105Y229475D01*
X159552Y230302D01*
X158725Y230855D01*
X157750Y231049D01*
X156911Y230882D01*
X156354Y231222D01*
X155783Y231720D01*
X155789Y231750D01*
X155634Y232530D01*
X155192Y233192D01*
X154530Y233634D01*
X154071Y233725D01*
X152148Y235648D01*
X151000Y236124D01*
X144500D01*
X143352Y235648D01*
X140190Y232486D01*
X138692Y232442D01*
X138527Y233981D01*
X142673Y238126D01*
X152580D01*
X152970Y237866D01*
X153750Y237711D01*
X154530Y237866D01*
X155192Y238308D01*
X155634Y238970D01*
X155789Y239750D01*
X155634Y240530D01*
X155192Y241192D01*
X154530Y241634D01*
X153750Y241789D01*
X152970Y241634D01*
X152580Y241374D01*
X142000D01*
X140852Y240898D01*
X140773Y240819D01*
X139255Y241097D01*
X139192Y241192D01*
X138798Y241455D01*
X138499Y242511D01*
X138495Y242637D01*
X139460Y243626D01*
X143250D01*
X144398Y244102D01*
X146071Y245775D01*
X146530Y245866D01*
X147192Y246308D01*
X147634Y246970D01*
X147789Y247750D01*
X147634Y248530D01*
X147493Y248741D01*
X148409Y249657D01*
X148470Y249616D01*
X149250Y249461D01*
X150030Y249616D01*
X150692Y250058D01*
X151134Y250720D01*
X151289Y251500D01*
X151134Y252280D01*
X150874Y252670D01*
Y256500D01*
X150398Y257648D01*
X150692Y258808D01*
X151134Y259470D01*
X151289Y260250D01*
X152410Y261126D01*
X153592D01*
X163626Y251092D01*
Y245886D01*
X164102Y244738D01*
X166738Y242102D01*
X167886Y241626D01*
X169113D01*
X170837Y239902D01*
X170868Y239605D01*
X170574Y238370D01*
X170308Y238192D01*
X169866Y237530D01*
X169711Y236750D01*
X169866Y235970D01*
X170308Y235308D01*
X170970Y234866D01*
X171750Y234711D01*
X172530Y234866D01*
X173192Y235308D01*
X173370Y235574D01*
X174605Y235868D01*
X174902Y235837D01*
X176126Y234613D01*
Y232920D01*
X175866Y232530D01*
X175711Y231750D01*
X175866Y230970D01*
X176308Y230308D01*
X176970Y229866D01*
X177750Y229711D01*
X178530Y229866D01*
X179192Y230308D01*
X179634Y230970D01*
X179789Y231750D01*
X179634Y232530D01*
X179374Y232920D01*
Y235285D01*
X178898Y236434D01*
X178722Y236609D01*
X178682Y236876D01*
X178969Y238159D01*
X179192Y238308D01*
X179634Y238970D01*
X179789Y239750D01*
X179634Y240530D01*
X179192Y241192D01*
X178530Y241634D01*
X178071Y241725D01*
X173398Y246398D01*
X172250Y246874D01*
X171789Y247750D01*
X171634Y248530D01*
X171374Y248920D01*
Y250171D01*
X172547Y250657D01*
X175775Y247429D01*
X175866Y246970D01*
X176308Y246308D01*
X176970Y245866D01*
X177750Y245711D01*
X178530Y245866D01*
X179192Y246308D01*
X179634Y246970D01*
X179789Y247750D01*
X179760Y247898D01*
X180930Y248524D01*
X182852Y246602D01*
X184000Y246126D01*
X184580D01*
X184970Y245866D01*
X185750Y245711D01*
X186530Y245866D01*
X187192Y246308D01*
X187634Y246970D01*
X187789Y247750D01*
X187634Y248530D01*
X187192Y249192D01*
X186530Y249634D01*
X186300Y249680D01*
X185636Y250946D01*
X185634Y250970D01*
X185789Y251750D01*
X185634Y252530D01*
X185192Y253192D01*
X184530Y253634D01*
X183750Y253789D01*
X182970Y253634D01*
X182308Y253192D01*
X180810Y253236D01*
X168757Y265289D01*
X168829Y266198D01*
X169500Y267211D01*
X170280Y267366D01*
X170942Y267808D01*
X171384Y268470D01*
X171539Y269250D01*
X171384Y270030D01*
X170942Y270692D01*
X170280Y271134D01*
X169500Y271289D01*
X169387Y271267D01*
X168595Y271256D01*
X167795Y272043D01*
X167648Y272398D01*
X166367Y273679D01*
X166636Y274330D01*
X166972Y274870D01*
X167923Y275060D01*
X168833Y275667D01*
X169440Y276577D01*
X169654Y277650D01*
Y279400D01*
X173246D01*
Y277650D01*
X173460Y276577D01*
X174067Y275667D01*
X174977Y275060D01*
X176050Y274846D01*
X179550D01*
X180623Y275060D01*
X181533Y275667D01*
X182140Y276577D01*
X182354Y277650D01*
Y279400D01*
X185946D01*
Y277650D01*
X186160Y276577D01*
X186767Y275667D01*
X187677Y275060D01*
X188750Y274846D01*
X192250D01*
X193323Y275060D01*
X194233Y275667D01*
X194840Y276577D01*
X195054Y277650D01*
Y279400D01*
X198646D01*
Y277650D01*
D02*
G37*
G36*
X71646D02*
X71860Y276577D01*
X72467Y275667D01*
X73377Y275060D01*
X74450Y274846D01*
X77950D01*
X78260Y274908D01*
X85566Y267602D01*
X86714Y267126D01*
X88154D01*
X88400Y266910D01*
X89032Y265856D01*
X88961Y265500D01*
X89116Y264720D01*
X89558Y264058D01*
X90220Y263616D01*
X90601Y263540D01*
X91225Y262647D01*
X90710Y261482D01*
X90220Y261384D01*
X89830Y261124D01*
X80750D01*
X79602Y260648D01*
X77852Y258898D01*
X77376Y257750D01*
Y220000D01*
X77852Y218852D01*
X78657Y218047D01*
X78171Y216874D01*
X75672D01*
X71898Y220648D01*
X70750Y221124D01*
X65020D01*
X63872Y220648D01*
X59349Y216125D01*
X58890Y216034D01*
X58228Y215592D01*
X57864Y215048D01*
X57781Y214996D01*
X57271Y214930D01*
X57069D01*
X56506Y215003D01*
X56112Y215592D01*
X55450Y216034D01*
X54670Y216189D01*
X53890Y216034D01*
X53228Y215592D01*
X52864Y215048D01*
X52781Y214996D01*
X52271Y214930D01*
X52069D01*
X51506Y215003D01*
X51112Y215592D01*
X50450Y216034D01*
X49670Y216189D01*
X48890Y216034D01*
X48228Y215592D01*
X47786Y214930D01*
X47631Y214150D01*
X47786Y213370D01*
X48228Y212708D01*
X48890Y212266D01*
X49349Y212175D01*
X52630Y208894D01*
X52104Y207624D01*
X47420D01*
X47031Y207884D01*
X46250Y208039D01*
X45470Y207884D01*
X44808Y207442D01*
X44366Y206780D01*
X44211Y206000D01*
X44366Y205219D01*
X44808Y204558D01*
X45470Y204116D01*
X46250Y203961D01*
X47031Y204116D01*
X47420Y204376D01*
X76330D01*
X76720Y204116D01*
X77500Y203961D01*
X78280Y204116D01*
X78942Y204558D01*
X80426Y204493D01*
X90567Y194352D01*
X91715Y193876D01*
X94250D01*
X95398Y194352D01*
X97922Y196876D01*
X104436D01*
X105461Y195750D01*
X105616Y194970D01*
X106058Y194308D01*
X106720Y193866D01*
X107500Y193711D01*
X108280Y193866D01*
X108942Y194308D01*
X109384Y194970D01*
X109539Y195750D01*
X110564Y196876D01*
X122801D01*
X123376Y196015D01*
Y194596D01*
X123160Y194350D01*
X122106Y193718D01*
X121750Y193789D01*
X120970Y193634D01*
X120308Y193192D01*
X119866Y192530D01*
X119775Y192071D01*
X112602Y184898D01*
X112126Y183750D01*
Y181329D01*
X110953Y180843D01*
X107398Y184398D01*
X106250Y184874D01*
X97001D01*
X82226Y199648D01*
X81078Y200124D01*
X34672D01*
X33523Y199648D01*
X28352Y194476D01*
X27876Y193328D01*
Y187673D01*
X19429Y179225D01*
X18970Y179134D01*
X18308Y178692D01*
X17866Y178030D01*
X17711Y177250D01*
X17866Y176470D01*
X18257Y175884D01*
X18172Y175572D01*
X17673Y174705D01*
X17250Y174789D01*
X16470Y174634D01*
X15808Y174192D01*
X15385Y173559D01*
X15366Y173530D01*
Y173530D01*
X15211Y172750D01*
X14500Y172539D01*
X13720Y172384D01*
X13058Y171942D01*
X12616Y171280D01*
X12461Y170500D01*
X12616Y169720D01*
X13058Y169058D01*
X13720Y168616D01*
X14500Y168461D01*
X14960Y168552D01*
X15667Y167463D01*
X14102Y165898D01*
X13626Y164750D01*
Y159500D01*
X14102Y158352D01*
X15460Y156994D01*
X14973Y155685D01*
X14720Y155634D01*
X14058Y155192D01*
X13616Y154531D01*
X13461Y153750D01*
X13616Y152970D01*
X14058Y152309D01*
X14720Y151867D01*
X15500Y151711D01*
X16280Y151867D01*
X16942Y152309D01*
X17384Y152970D01*
X17434Y153223D01*
X18743Y153710D01*
X19626Y152828D01*
Y127172D01*
X19179Y126726D01*
X18720Y126634D01*
X18433Y126442D01*
X18359Y126393D01*
X17525Y127101D01*
X17395Y127277D01*
X17539Y128000D01*
X17384Y128781D01*
X16942Y129442D01*
X16280Y129884D01*
X15500Y130040D01*
X14720Y129884D01*
X14058Y129442D01*
X13616Y128781D01*
X13461Y128000D01*
X13616Y127220D01*
X14058Y126558D01*
X14720Y126116D01*
X15500Y125961D01*
X16280Y126116D01*
X16567Y126308D01*
X16641Y126357D01*
X17475Y125650D01*
X17605Y125474D01*
X17461Y124750D01*
X17616Y123970D01*
X18058Y123308D01*
X18720Y122866D01*
X19500Y122711D01*
X20280Y122866D01*
X20942Y123308D01*
X21384Y123970D01*
X21475Y124429D01*
X22398Y125352D01*
X22874Y126500D01*
Y127321D01*
X24047Y127807D01*
X24925Y126929D01*
X25016Y126470D01*
X25458Y125808D01*
X26120Y125366D01*
X26900Y125211D01*
X27680Y125366D01*
X28342Y125808D01*
X28784Y126470D01*
X28939Y127250D01*
X28784Y128030D01*
X28342Y128692D01*
X27680Y129134D01*
X27221Y129225D01*
X25374Y131073D01*
Y132337D01*
X25530Y132553D01*
X26644Y133262D01*
X26900Y133211D01*
X27680Y133366D01*
X28342Y133808D01*
X28784Y134470D01*
X28939Y135250D01*
X28784Y136030D01*
X28524Y136420D01*
Y145977D01*
X29898Y147352D01*
X30374Y148500D01*
Y157078D01*
X62571Y189275D01*
X63031Y189366D01*
X63142Y189441D01*
X63311Y189479D01*
X64050Y189396D01*
X64398Y189214D01*
X64626Y189022D01*
Y133479D01*
X64466Y133344D01*
X63356Y132916D01*
X63031Y133134D01*
X62250Y133289D01*
X61470Y133134D01*
X60808Y132692D01*
X59692D01*
X59030Y133134D01*
X58250Y133289D01*
X57470Y133134D01*
X56808Y132692D01*
X55692D01*
X55030Y133134D01*
X54250Y133289D01*
X53470Y133134D01*
X52808Y132692D01*
X51692D01*
X51031Y133134D01*
X50250Y133289D01*
X49470Y133134D01*
X48808Y132692D01*
X47692D01*
X47031Y133134D01*
X46250Y133289D01*
X45470Y133134D01*
X44808Y132692D01*
X44366Y132031D01*
X44211Y131250D01*
X44366Y130470D01*
X44808Y129808D01*
X45470Y129366D01*
X46250Y129211D01*
X47031Y129366D01*
X47692Y129808D01*
X48808D01*
X49470Y129366D01*
X50250Y129211D01*
X51031Y129366D01*
X51692Y129808D01*
X52808D01*
X53470Y129366D01*
X54250Y129211D01*
X55030Y129366D01*
X55692Y129808D01*
X56808D01*
X57470Y129366D01*
X58250Y129211D01*
X59030Y129366D01*
X59535Y129703D01*
X60175Y129522D01*
X60781Y128897D01*
X60764Y128310D01*
X59179Y126725D01*
X58720Y126634D01*
X58058Y126192D01*
X57616Y125530D01*
X57461Y124750D01*
X57616Y123970D01*
X58058Y123308D01*
X58720Y122866D01*
X59500Y122711D01*
X60280Y122866D01*
X60942Y123308D01*
X62099Y123113D01*
X62470Y122866D01*
X63250Y122711D01*
X64030Y122866D01*
X64545Y123210D01*
X64735Y123300D01*
X66055Y123062D01*
X66058Y123058D01*
X66720Y122616D01*
X67500Y122461D01*
X68280Y122616D01*
X68942Y123058D01*
X69384Y123720D01*
X69539Y124500D01*
X69503Y124684D01*
X69797Y125002D01*
X70638Y125484D01*
X71500Y125127D01*
X108286D01*
X109434Y125602D01*
X118609Y134778D01*
X118876Y134818D01*
X120159Y134531D01*
X120308Y134308D01*
X120970Y133866D01*
X121750Y133711D01*
X122530Y133866D01*
X123192Y134308D01*
X123634Y134970D01*
X123789Y135750D01*
X123634Y136530D01*
X123192Y137192D01*
X122969Y137341D01*
X122682Y138624D01*
X122722Y138891D01*
X125648Y141817D01*
X126124Y142964D01*
Y145406D01*
X132203Y151485D01*
X133376Y150999D01*
Y124923D01*
X117602Y109148D01*
X117126Y108000D01*
Y45799D01*
X115856Y45120D01*
X115561Y45318D01*
X114000Y45628D01*
X112439Y45318D01*
X111116Y44434D01*
X110232Y43111D01*
X109922Y41550D01*
X110232Y39989D01*
X111116Y38666D01*
X112439Y37782D01*
X114000Y37472D01*
X115561Y37782D01*
X115856Y37980D01*
X117126Y37301D01*
Y5444D01*
X116096Y4545D01*
X116050Y4554D01*
X112550D01*
X111477Y4340D01*
X110567Y3733D01*
X109960Y2823D01*
X109746Y1750D01*
Y0D01*
X106154D01*
Y1750D01*
X105940Y2823D01*
X105333Y3733D01*
X104423Y4340D01*
X103350Y4554D01*
X99850D01*
X98777Y4340D01*
X97867Y3733D01*
X97260Y2823D01*
X97046Y1750D01*
Y0D01*
X93454D01*
Y1750D01*
X93240Y2823D01*
X92633Y3733D01*
X91723Y4340D01*
X90650Y4554D01*
X87150D01*
X86077Y4340D01*
X85167Y3733D01*
X84560Y2823D01*
X84346Y1750D01*
Y0D01*
X80754D01*
Y1750D01*
X80540Y2823D01*
X79933Y3733D01*
X79023Y4340D01*
X77950Y4554D01*
X74450D01*
X73377Y4340D01*
X72467Y3733D01*
X71860Y2823D01*
X71646Y1750D01*
Y0D01*
X68054D01*
Y1750D01*
X67840Y2823D01*
X67233Y3733D01*
X66323Y4340D01*
X65250Y4554D01*
X61750D01*
X60677Y4340D01*
X59767Y3733D01*
X59160Y2823D01*
X58946Y1750D01*
Y0D01*
X55354D01*
Y1750D01*
X55140Y2823D01*
X54533Y3733D01*
X53623Y4340D01*
X52550Y4554D01*
X49050D01*
X47977Y4340D01*
X47067Y3733D01*
X46460Y2823D01*
X46246Y1750D01*
Y0D01*
X42654D01*
Y1750D01*
X42440Y2823D01*
X41833Y3733D01*
X40923Y4340D01*
X39850Y4554D01*
X36350D01*
X35277Y4340D01*
X34367Y3733D01*
X33760Y2823D01*
X33546Y1750D01*
Y0D01*
X29954D01*
Y1750D01*
X29740Y2823D01*
X29133Y3733D01*
X28223Y4340D01*
X27150Y4554D01*
X23650D01*
X22577Y4340D01*
X21667Y3733D01*
X21060Y2823D01*
X20846Y1750D01*
Y0D01*
X17254D01*
Y1750D01*
X17040Y2823D01*
X16433Y3733D01*
X15523Y4340D01*
X14450Y4554D01*
X10950D01*
X9877Y4340D01*
X8967Y3733D01*
X0Y12700D01*
Y33546D01*
X1750D01*
X2823Y33760D01*
X3733Y34367D01*
X4340Y35277D01*
X4554Y36350D01*
Y39850D01*
X4340Y40923D01*
X3733Y41833D01*
X2823Y42440D01*
X1750Y42654D01*
X0D01*
Y46246D01*
X1750D01*
X2823Y46460D01*
X3733Y47067D01*
X4340Y47977D01*
X4554Y49050D01*
Y52550D01*
X4340Y53623D01*
X3733Y54533D01*
X2823Y55140D01*
X1750Y55354D01*
X0D01*
Y58946D01*
X1750D01*
X2823Y59160D01*
X3733Y59767D01*
X4340Y60677D01*
X4554Y61750D01*
Y65250D01*
X4340Y66323D01*
X3733Y67233D01*
X2823Y67840D01*
X1750Y68054D01*
X0D01*
Y71646D01*
X1750D01*
X2823Y71860D01*
X3733Y72467D01*
X4340Y73377D01*
X4554Y74450D01*
Y77950D01*
X4340Y79023D01*
X3733Y79933D01*
X2823Y80540D01*
X1750Y80754D01*
X0D01*
Y84346D01*
X1750D01*
X2823Y84560D01*
X3733Y85167D01*
X4340Y86077D01*
X4554Y87150D01*
Y90650D01*
X4340Y91723D01*
X3733Y92633D01*
X2823Y93240D01*
X1750Y93454D01*
X0D01*
Y97046D01*
X1750D01*
X2823Y97260D01*
X3733Y97867D01*
X4340Y98777D01*
X4554Y99850D01*
Y103350D01*
X4340Y104423D01*
X3733Y105333D01*
X2823Y105940D01*
X1750Y106154D01*
X0D01*
Y109746D01*
X1750D01*
X2823Y109960D01*
X3733Y110567D01*
X4340Y111477D01*
X4554Y112550D01*
Y116050D01*
X4340Y117123D01*
X3733Y118033D01*
X2823Y118640D01*
X1750Y118854D01*
X0D01*
Y122446D01*
X1750D01*
X2823Y122660D01*
X3733Y123267D01*
X4340Y124177D01*
X4554Y125250D01*
Y128750D01*
X4340Y129823D01*
X3733Y130733D01*
X2823Y131340D01*
X1750Y131554D01*
X0D01*
Y135200D01*
X4500D01*
Y141904D01*
X10648Y148052D01*
X11124Y149200D01*
Y194577D01*
X15321Y198775D01*
X15780Y198866D01*
X16442Y199308D01*
X16884Y199970D01*
X17039Y200750D01*
X16884Y201530D01*
X16442Y202192D01*
X16313Y202278D01*
X15993Y203382D01*
X16117Y203820D01*
X16384Y204220D01*
X16539Y205000D01*
X16384Y205780D01*
X15942Y206442D01*
X15280Y206884D01*
X14500Y207039D01*
X13720Y206884D01*
X13058Y206442D01*
X12894Y206196D01*
X11624Y206581D01*
Y269045D01*
X12448Y269402D01*
X12894Y269501D01*
X13470Y269116D01*
X14250Y268961D01*
X15030Y269116D01*
X15692Y269558D01*
X16134Y270220D01*
X16289Y271000D01*
X16134Y271780D01*
X15692Y272442D01*
X15030Y272884D01*
X14250Y273039D01*
X13470Y272884D01*
X12894Y272499D01*
X12448Y272598D01*
X11624Y272955D01*
Y274846D01*
X14450D01*
X15523Y275060D01*
X16433Y275667D01*
X17040Y276577D01*
X17254Y277650D01*
Y279400D01*
X20846D01*
Y277650D01*
X21060Y276577D01*
X21667Y275667D01*
X22577Y275060D01*
X23650Y274846D01*
X27150D01*
X28223Y275060D01*
X29133Y275667D01*
X29740Y276577D01*
X29954Y277650D01*
Y279400D01*
X33546D01*
Y277650D01*
X33760Y276577D01*
X34367Y275667D01*
X35277Y275060D01*
X36350Y274846D01*
X39850D01*
X40923Y275060D01*
X41833Y275667D01*
X42440Y276577D01*
X42654Y277650D01*
Y279400D01*
X46246D01*
Y277650D01*
X46460Y276577D01*
X47067Y275667D01*
X47977Y275060D01*
X49050Y274846D01*
X52550D01*
X53623Y275060D01*
X54533Y275667D01*
X55140Y276577D01*
X55354Y277650D01*
Y279400D01*
X58946D01*
Y277650D01*
X59160Y276577D01*
X59767Y275667D01*
X60677Y275060D01*
X61750Y274846D01*
X65250D01*
X66323Y275060D01*
X67233Y275667D01*
X67840Y276577D01*
X68054Y277650D01*
Y279400D01*
X71646D01*
Y277650D01*
D02*
G37*
G36*
X274846Y264950D02*
X275060Y263877D01*
X275667Y262967D01*
X276577Y262360D01*
X277650Y262146D01*
X279400D01*
Y258554D01*
X277650D01*
X276577Y258340D01*
X275667Y257733D01*
X275060Y256823D01*
X274846Y255750D01*
Y252250D01*
X274930Y251826D01*
X266297Y243193D01*
X265124Y243679D01*
Y259077D01*
X271122Y265076D01*
X274846D01*
Y264950D01*
D02*
G37*
G36*
X224046Y277650D02*
X224260Y276577D01*
X224867Y275667D01*
X225777Y275060D01*
X226850Y274846D01*
X230350D01*
X230774Y274930D01*
X242876Y262827D01*
Y226814D01*
X241750Y225789D01*
X240970Y225634D01*
X240308Y225192D01*
X239866Y224530D01*
X239711Y223750D01*
X239866Y222970D01*
X240308Y222308D01*
X240970Y221866D01*
X241750Y221711D01*
X242876Y220686D01*
Y207173D01*
X238102Y202398D01*
X237626Y201250D01*
Y196501D01*
X236102Y194977D01*
X235821Y194299D01*
X234676Y193709D01*
X234356Y193669D01*
X233750Y193789D01*
X233014Y193643D01*
X232964Y193637D01*
X231636Y194270D01*
X231634Y194280D01*
X231192Y194942D01*
X230530Y195384D01*
X229750Y195539D01*
X228970Y195384D01*
X228308Y194942D01*
X227866Y194280D01*
X227864Y194270D01*
X226537Y193637D01*
X226486Y193643D01*
X225750Y193789D01*
X224970Y193634D01*
X224308Y193192D01*
X223866Y192530D01*
X223711Y191750D01*
X223866Y190970D01*
X224308Y190308D01*
X224970Y189866D01*
X225750Y189711D01*
X226530Y189866D01*
X227192Y190308D01*
X227634Y190970D01*
X227636Y190980D01*
X228964Y191613D01*
X229014Y191607D01*
X229750Y191461D01*
X230486Y191607D01*
X230536Y191613D01*
X231864Y190980D01*
X231866Y190970D01*
X232308Y190308D01*
X232970Y189866D01*
X233750Y189711D01*
X234112Y189783D01*
X234738Y188612D01*
X233009Y186883D01*
X232772Y186906D01*
X231713Y187383D01*
X231634Y187780D01*
X231192Y188442D01*
X230530Y188884D01*
X229750Y189039D01*
X228970Y188884D01*
X228308Y188442D01*
X227866Y187780D01*
X227711Y187000D01*
X227855Y186276D01*
X227724Y186099D01*
X226891Y185393D01*
X226530Y185634D01*
X225750Y185789D01*
X224970Y185634D01*
X224308Y185192D01*
X223866Y184530D01*
X223711Y183750D01*
X223866Y182970D01*
X224308Y182308D01*
X224970Y181866D01*
X225750Y181711D01*
X226112Y181783D01*
X226738Y180612D01*
X223297Y177171D01*
X222124Y177658D01*
Y218577D01*
X223648Y220102D01*
X224124Y221250D01*
Y221654D01*
X224340Y221900D01*
X225258Y222451D01*
X225589Y222493D01*
X225750Y222461D01*
X226486Y222607D01*
X226537Y222613D01*
X227864Y221980D01*
X227866Y221970D01*
X228308Y221308D01*
X228970Y220866D01*
X229750Y220711D01*
X230530Y220866D01*
X231192Y221308D01*
X231634Y221970D01*
X231789Y222750D01*
X231634Y223530D01*
X231192Y224192D01*
X230530Y224634D01*
X229750Y224789D01*
X229014Y224643D01*
X228964Y224637D01*
X227636Y225270D01*
X227634Y225280D01*
X227192Y225942D01*
X226530Y226384D01*
X225750Y226539D01*
X225394Y226468D01*
X224340Y227100D01*
X224124Y227346D01*
Y228904D01*
X224340Y229150D01*
X225394Y229782D01*
X225750Y229711D01*
X226530Y229866D01*
X227192Y230308D01*
X227634Y230970D01*
X227789Y231750D01*
X227634Y232530D01*
X227192Y233192D01*
X226530Y233634D01*
X225750Y233789D01*
X225394Y233718D01*
X224340Y234350D01*
X224124Y234596D01*
Y234679D01*
X223648Y235827D01*
X222124Y237351D01*
Y257250D01*
X221648Y258398D01*
X217524Y262523D01*
Y267973D01*
X217624Y268214D01*
Y274846D01*
X217650D01*
X218723Y275060D01*
X219633Y275667D01*
X220240Y276577D01*
X220454Y277650D01*
Y279400D01*
X224046D01*
Y277650D01*
D02*
G37*
G36*
X215775Y223429D02*
X215866Y222970D01*
X216308Y222308D01*
X216506Y222176D01*
X216988Y221635D01*
X217072Y220551D01*
X216876Y220078D01*
Y215446D01*
X215606Y214767D01*
X215475Y214855D01*
X214500Y215049D01*
X213524Y214855D01*
X212698Y214302D01*
X212145Y213475D01*
X211951Y212500D01*
X212145Y211525D01*
X212698Y210698D01*
X213524Y210145D01*
X214500Y209951D01*
X215475Y210145D01*
X215606Y210233D01*
X216876Y209554D01*
Y204923D01*
X206102Y194148D01*
X205626Y193000D01*
Y162250D01*
X206102Y161102D01*
X207775Y159429D01*
X207866Y158970D01*
X208308Y158308D01*
X208970Y157866D01*
X209750Y157711D01*
X210530Y157866D01*
X211192Y158308D01*
X211634Y158970D01*
X211789Y159750D01*
X211634Y160530D01*
X211192Y161192D01*
X210530Y161634D01*
X210071Y161725D01*
X208874Y162922D01*
Y172590D01*
X209750Y173711D01*
X210530Y173866D01*
X211192Y174308D01*
X211634Y174970D01*
X211789Y175750D01*
X211634Y176530D01*
X211192Y177192D01*
X210530Y177634D01*
X209750Y177789D01*
X208874Y178910D01*
Y188590D01*
X209750Y189711D01*
X210530Y189866D01*
X211192Y190308D01*
X211634Y190970D01*
X211680Y191201D01*
X212946Y191864D01*
X212970Y191866D01*
X213750Y191711D01*
X214530Y191866D01*
X215192Y192308D01*
X215634Y192970D01*
X215789Y193750D01*
X215634Y194531D01*
X215192Y195192D01*
X214530Y195634D01*
X214068Y195726D01*
X213626Y196629D01*
X213568Y197022D01*
X217703Y201157D01*
X218876Y200671D01*
Y186814D01*
X217750Y185789D01*
X216970Y185634D01*
X216308Y185192D01*
X215866Y184530D01*
X215711Y183750D01*
X215866Y182970D01*
X216308Y182308D01*
X216970Y181866D01*
X217750Y181711D01*
X218876Y180686D01*
Y175637D01*
X216602Y173363D01*
X216126Y172215D01*
Y167410D01*
X215250Y166289D01*
X214470Y166134D01*
X213808Y165692D01*
X213366Y165030D01*
X213211Y164250D01*
X213366Y163470D01*
X213808Y162808D01*
X214470Y162366D01*
X215250Y162211D01*
X216126Y161090D01*
Y160920D01*
X215866Y160530D01*
X215711Y159750D01*
X215866Y158970D01*
X215872Y158960D01*
X215476Y158215D01*
X215142Y157768D01*
X214470Y157634D01*
X213808Y157192D01*
X213366Y156530D01*
X213211Y155750D01*
X213366Y154970D01*
X213808Y154308D01*
X214470Y153866D01*
X215142Y153732D01*
X215476Y153285D01*
X215872Y152540D01*
X215866Y152530D01*
X215711Y151750D01*
X215866Y150970D01*
X216308Y150308D01*
X216970Y149866D01*
X217750Y149711D01*
X218530Y149866D01*
X219192Y150308D01*
X219634Y150970D01*
X219725Y151429D01*
X221515Y153219D01*
X222102Y153102D01*
X223775Y151429D01*
X223866Y150970D01*
X224308Y150308D01*
X224970Y149866D01*
X225750Y149711D01*
X226530Y149866D01*
X227192Y150308D01*
X227634Y150970D01*
X227789Y151750D01*
X227634Y152530D01*
X227192Y153192D01*
X226530Y153634D01*
X226071Y153725D01*
X224874Y154923D01*
Y164590D01*
X225750Y165711D01*
X226530Y165866D01*
X226872Y166095D01*
X227207Y166305D01*
X228308Y166058D01*
X228970Y165616D01*
X229750Y165461D01*
X230530Y165616D01*
X231192Y166058D01*
X232293Y166305D01*
X232628Y166095D01*
X232970Y165866D01*
X233750Y165711D01*
X234530Y165866D01*
X235192Y166308D01*
X235634Y166970D01*
X235789Y167750D01*
X235634Y168530D01*
X235374Y168920D01*
Y170828D01*
X238810Y174264D01*
X240308Y174308D01*
X240970Y173866D01*
X241750Y173711D01*
X242486Y173857D01*
X242537Y173863D01*
X243235Y173530D01*
X243866Y172280D01*
X243711Y171500D01*
X243866Y170720D01*
X244180Y170250D01*
X243866Y169780D01*
X243711Y169000D01*
X243866Y168220D01*
X244308Y167558D01*
X244970Y167116D01*
X245750Y166961D01*
X246530Y167116D01*
X246541Y167123D01*
X247769Y166981D01*
X248038Y166712D01*
X248308Y166308D01*
X248970Y165866D01*
X249750Y165711D01*
X250530Y165866D01*
X251192Y166308D01*
X251634Y166970D01*
X251725Y167429D01*
X260453Y176157D01*
X261032Y175956D01*
X261626Y175534D01*
Y173923D01*
X249429Y161725D01*
X248970Y161634D01*
X248308Y161192D01*
X247866Y160530D01*
X247711Y159750D01*
X247866Y158970D01*
X248308Y158308D01*
X248970Y157866D01*
X249750Y157711D01*
X250530Y157866D01*
X251192Y158308D01*
X251634Y158970D01*
X251725Y159429D01*
X263028Y170732D01*
X264201Y170246D01*
Y166250D01*
X264395Y165275D01*
X264948Y164448D01*
X267701Y161694D01*
Y155806D01*
X261198Y149302D01*
X260645Y148475D01*
X260451Y147500D01*
Y139056D01*
X243727Y122332D01*
X242874Y122409D01*
X242018Y123642D01*
X242039Y123750D01*
X241884Y124530D01*
X241442Y125191D01*
X240780Y125634D01*
X240000Y125789D01*
X239220Y125634D01*
X238558Y125191D01*
X238116Y124530D01*
X237961Y123750D01*
X238096Y123069D01*
X238083Y122917D01*
X237370Y121799D01*
X234629D01*
X233917Y122917D01*
X233904Y123069D01*
X234039Y123750D01*
X233884Y124530D01*
X233442Y125191D01*
X232780Y125633D01*
X232000Y125789D01*
X231220Y125633D01*
X230558Y125191D01*
X230116Y124530D01*
X229961Y123750D01*
X230096Y123069D01*
X230083Y122917D01*
X229370Y121799D01*
X229250D01*
X228274Y121605D01*
X227448Y121052D01*
X221448Y115052D01*
X220895Y114226D01*
X220701Y113250D01*
Y106250D01*
X220895Y105275D01*
X221448Y104448D01*
X222275Y103895D01*
X223250Y103701D01*
X224225Y103895D01*
X225052Y104448D01*
X225605Y105275D01*
X225799Y106250D01*
Y112194D01*
X228780Y115175D01*
X229736Y115028D01*
X230218Y114817D01*
X230558Y114308D01*
X231220Y113866D01*
X232000Y113710D01*
X232780Y113866D01*
X233442Y114308D01*
X233836Y114897D01*
X234399Y114969D01*
X234601Y114970D01*
X235165Y114897D01*
X235558Y114308D01*
X236220Y113866D01*
X237000Y113711D01*
X237780Y113866D01*
X238442Y114308D01*
X238884Y114970D01*
X239039Y115750D01*
X240145Y116701D01*
X241701D01*
Y110031D01*
X240431Y109213D01*
X240000Y109298D01*
X239025Y109104D01*
X238198Y108552D01*
X237645Y107725D01*
X237451Y106749D01*
Y106556D01*
X234257Y103362D01*
X233546Y103588D01*
X233008Y103909D01*
X232884Y104530D01*
X232442Y105192D01*
X231780Y105634D01*
X231000Y105789D01*
X230220Y105634D01*
X229558Y105192D01*
X229116Y104530D01*
X228961Y103750D01*
X227986Y102549D01*
X224500D01*
X223524Y102355D01*
X222698Y101802D01*
X220198Y99302D01*
X219645Y98476D01*
X219451Y97500D01*
Y80179D01*
X219108Y79928D01*
X218181Y79616D01*
X217780Y79884D01*
X217000Y80039D01*
X216220Y79884D01*
X215558Y79442D01*
X215518Y79383D01*
X213987Y79118D01*
X212799Y80306D01*
Y81250D01*
X212605Y82225D01*
X212052Y83052D01*
X211225Y83605D01*
X210250Y83799D01*
X209275Y83605D01*
X208682Y83209D01*
X207681Y83678D01*
X207497Y83828D01*
X207485Y83903D01*
X214148Y90566D01*
X214624Y91714D01*
Y126500D01*
X214148Y127648D01*
X204898Y136898D01*
X203750Y137374D01*
X203229D01*
X203037Y137601D01*
X202855Y137951D01*
X202771Y138689D01*
X202810Y138858D01*
X202884Y138969D01*
X203039Y139750D01*
X202884Y140530D01*
X202442Y141192D01*
X201780Y141634D01*
X201000Y141789D01*
X200220Y141634D01*
X199558Y141192D01*
X199116Y140530D01*
X198961Y139750D01*
X199116Y138969D01*
X199558Y138308D01*
X199625Y138263D01*
X200130Y137472D01*
X199940Y136641D01*
X199866Y136530D01*
X199711Y135750D01*
X199866Y134970D01*
X199940Y134858D01*
X200017Y134523D01*
X199478Y133664D01*
X198128Y133668D01*
X195725Y136071D01*
X195634Y136530D01*
X195192Y137192D01*
X194530Y137634D01*
X193750Y137789D01*
X192970Y137634D01*
X192308Y137192D01*
X191866Y136530D01*
X191711Y135750D01*
X191345Y135445D01*
X190549Y135081D01*
X190520Y135097D01*
X190384Y135780D01*
X189942Y136442D01*
X189280Y136884D01*
X188500Y137039D01*
X187720Y136884D01*
X187058Y136442D01*
X186616Y135780D01*
X186461Y135000D01*
X186616Y134220D01*
X187058Y133558D01*
X187720Y133116D01*
X188500Y132961D01*
X189026Y133066D01*
X189146Y133006D01*
X189721Y132511D01*
X190028Y132088D01*
X189961Y131750D01*
X190116Y130969D01*
X190558Y130308D01*
X191220Y129866D01*
X192000Y129710D01*
X192780Y129866D01*
X193442Y130308D01*
X193884Y130969D01*
X193911Y131105D01*
X194590Y131474D01*
X195133Y131631D01*
X195876Y130927D01*
Y122262D01*
X194606Y121583D01*
X194530Y121634D01*
X194125Y121715D01*
X193748Y121792D01*
X193039Y122749D01*
X193039Y122750D01*
X193002Y122935D01*
X192884Y123530D01*
X192442Y124192D01*
X191780Y124634D01*
X191000Y124789D01*
X190220Y124634D01*
X189558Y124192D01*
X189116Y123530D01*
X188961Y122750D01*
X189116Y121969D01*
X189558Y121308D01*
X190220Y120866D01*
X190625Y120785D01*
X191002Y120708D01*
X191711Y119750D01*
X191711Y119750D01*
X191748Y119564D01*
X191810Y119251D01*
X191794Y118876D01*
X191051Y117904D01*
X190979Y117890D01*
X190317Y117448D01*
X189881Y116795D01*
X189077Y116627D01*
X188556Y116666D01*
X188201Y117198D01*
X187540Y117640D01*
X186759Y117795D01*
X185979Y117640D01*
X185317Y117198D01*
X184875Y116536D01*
X184720Y115756D01*
X184875Y114975D01*
X185317Y114314D01*
X185979Y113872D01*
X186350Y113798D01*
X186461Y113448D01*
X186484Y112476D01*
X186058Y112192D01*
X185616Y111530D01*
X185461Y110750D01*
X185616Y109970D01*
X186058Y109308D01*
X186720Y108866D01*
X187500Y108711D01*
X188280Y108866D01*
X188942Y109308D01*
X189384Y109970D01*
X189539Y110750D01*
X189384Y111530D01*
X188942Y112192D01*
X188280Y112634D01*
X187910Y112708D01*
X187798Y113058D01*
X187775Y114029D01*
X188201Y114314D01*
X188637Y114966D01*
X189441Y115134D01*
X189962Y115096D01*
X190317Y114564D01*
X190979Y114122D01*
X191759Y113967D01*
X192540Y114122D01*
X193201Y114564D01*
X193643Y115225D01*
X193799Y116006D01*
X193699Y116504D01*
X193715Y116880D01*
X194459Y117852D01*
X194530Y117866D01*
X194606Y117917D01*
X195876Y117238D01*
Y114250D01*
X196352Y113102D01*
X197626Y111827D01*
Y108736D01*
X196356Y107853D01*
X196259Y107872D01*
X195479Y107717D01*
X194818Y107275D01*
X194375Y106614D01*
X194220Y105833D01*
X194375Y105053D01*
X194818Y104391D01*
X195479Y103949D01*
X196259Y103794D01*
X197126Y102672D01*
Y88251D01*
X195352Y86476D01*
X194876Y85328D01*
Y73728D01*
X195352Y72580D01*
X213376Y54555D01*
Y4400D01*
X213077Y4340D01*
X212167Y3733D01*
X211560Y2823D01*
X211346Y1750D01*
Y0D01*
X207754D01*
Y1750D01*
X207540Y2823D01*
X206933Y3733D01*
X206023Y4340D01*
X204950Y4554D01*
X201450D01*
X200377Y4340D01*
X199467Y3733D01*
X198860Y2823D01*
X198646Y1750D01*
Y0D01*
X195054D01*
Y1750D01*
X194840Y2823D01*
X194233Y3733D01*
X193323Y4340D01*
X192250Y4554D01*
X188750D01*
X187677Y4340D01*
X186767Y3733D01*
X186160Y2823D01*
X185946Y1750D01*
Y0D01*
X182354D01*
Y1750D01*
X182140Y2823D01*
X181533Y3733D01*
X180623Y4340D01*
X179550Y4554D01*
X176050D01*
X174977Y4340D01*
X174067Y3733D01*
X173460Y2823D01*
X173246Y1750D01*
Y0D01*
X169654D01*
Y1750D01*
X169570Y2174D01*
X170898Y3502D01*
X171374Y4650D01*
Y27986D01*
X171419Y28005D01*
X172644Y28198D01*
X173366Y27116D01*
X174689Y26232D01*
X176250Y25922D01*
X177811Y26232D01*
X179134Y27116D01*
X180018Y28439D01*
X180328Y30000D01*
X180018Y31561D01*
X179134Y32884D01*
X177811Y33768D01*
X176250Y34078D01*
X174689Y33768D01*
X173366Y32884D01*
X172644Y31802D01*
X171419Y31995D01*
X171374Y32014D01*
Y60986D01*
X171419Y61005D01*
X172644Y61198D01*
X173366Y60116D01*
X174689Y59232D01*
X176250Y58922D01*
X177811Y59232D01*
X179134Y60116D01*
X180018Y61439D01*
X180328Y63000D01*
X180018Y64561D01*
X179134Y65884D01*
X177811Y66768D01*
X176250Y67078D01*
X174689Y66768D01*
X173366Y65884D01*
X172644Y64802D01*
X171419Y64995D01*
X171374Y65014D01*
Y76486D01*
X171419Y76505D01*
X172644Y76698D01*
X173366Y75616D01*
X174689Y74732D01*
X176250Y74422D01*
X177811Y74732D01*
X179134Y75616D01*
X180018Y76939D01*
X180328Y78500D01*
X180018Y80061D01*
X179134Y81384D01*
X177811Y82268D01*
X176250Y82578D01*
X174689Y82268D01*
X173366Y81384D01*
X172644Y80302D01*
X171419Y80495D01*
X171374Y80514D01*
Y102250D01*
X170898Y103398D01*
X168874Y105422D01*
Y116590D01*
X169750Y117711D01*
X170530Y117866D01*
X171192Y118308D01*
X172308D01*
X172970Y117866D01*
X173750Y117711D01*
X174530Y117866D01*
X175192Y118308D01*
X175817Y117814D01*
X176478Y117372D01*
X177259Y117217D01*
X178039Y117372D01*
X178701Y117814D01*
X179143Y118476D01*
X179298Y119256D01*
X179143Y120036D01*
X178701Y120698D01*
X178039Y121140D01*
X177259Y121295D01*
X176478Y121140D01*
X176445Y121117D01*
X175628Y121582D01*
X175511Y122965D01*
X176398Y123852D01*
X176874Y125000D01*
X177750Y125711D01*
X178530Y125866D01*
X179192Y126308D01*
X179634Y126970D01*
X179789Y127750D01*
X179634Y128530D01*
X179192Y129192D01*
X178530Y129634D01*
X177750Y129789D01*
X176874Y130910D01*
Y140590D01*
X177750Y141711D01*
X178530Y141866D01*
X179192Y142308D01*
X179634Y142970D01*
X179789Y143750D01*
X180814Y144876D01*
X182686D01*
X183711Y143750D01*
X183866Y142970D01*
X184308Y142308D01*
X184970Y141866D01*
X185750Y141711D01*
X186530Y141866D01*
X187192Y142308D01*
X187634Y142970D01*
X187789Y143750D01*
X188500Y144876D01*
X189648Y145352D01*
X194071Y149775D01*
X194530Y149866D01*
X195192Y150308D01*
X195634Y150970D01*
X195789Y151750D01*
X195634Y152530D01*
X195249Y153106D01*
X195348Y153553D01*
X195705Y154376D01*
X198000D01*
X199148Y154852D01*
X202071Y157775D01*
X202530Y157866D01*
X203192Y158308D01*
X203634Y158970D01*
X203789Y159750D01*
X203634Y160530D01*
X203192Y161192D01*
X202530Y161634D01*
X201750Y161789D01*
X200970Y161634D01*
X200308Y161192D01*
X199866Y160530D01*
X199775Y160071D01*
X197431Y157727D01*
X196147Y157839D01*
X195583Y158894D01*
X195634Y158970D01*
X195789Y159750D01*
X195634Y160530D01*
X195192Y161192D01*
X194530Y161634D01*
X194071Y161725D01*
X191648Y164148D01*
X190500Y164624D01*
X158829D01*
X158343Y165797D01*
X158398Y165852D01*
X158874Y167000D01*
Y168827D01*
X169422Y179376D01*
X189500D01*
X190648Y179852D01*
X200398Y189602D01*
X200874Y190750D01*
Y192577D01*
X205648Y197352D01*
X206124Y198500D01*
Y214603D01*
X207394Y215482D01*
X207500Y215461D01*
X208280Y215616D01*
X208942Y216058D01*
X209384Y216720D01*
X209539Y217500D01*
X209384Y218280D01*
X208942Y218942D01*
X208778Y220481D01*
X210071Y221775D01*
X210530Y221866D01*
X211192Y222308D01*
X211634Y222970D01*
X211789Y223750D01*
X212910Y224626D01*
X214578D01*
X215775Y223429D01*
D02*
G37*
G36*
X236746Y277650D02*
X236960Y276577D01*
X237567Y275667D01*
X238477Y275060D01*
X239550Y274846D01*
X243050D01*
X243473Y274930D01*
X255876Y262528D01*
Y254880D01*
X254850Y253789D01*
X254070Y253634D01*
X253408Y253192D01*
X252966Y252530D01*
X252811Y251750D01*
X252966Y250970D01*
X253408Y250308D01*
X254070Y249866D01*
X254850Y249711D01*
X255876Y248620D01*
Y214751D01*
X251852Y210727D01*
X251707Y210375D01*
X250577Y209663D01*
X250160Y209708D01*
X249750Y209789D01*
X248970Y209634D01*
X248308Y209192D01*
X247866Y208530D01*
X247711Y207750D01*
X247866Y206970D01*
X248308Y206308D01*
X248403Y206245D01*
X248681Y204727D01*
X244773Y200819D01*
X243255Y201097D01*
X243192Y201192D01*
X243027Y202731D01*
X245648Y205352D01*
X246124Y206500D01*
Y263500D01*
X245648Y264648D01*
X233070Y277227D01*
X233154Y277650D01*
Y279400D01*
X236746D01*
Y277650D01*
D02*
G37*
G36*
X190552Y212210D02*
X190461Y211750D01*
X190616Y210970D01*
X191058Y210308D01*
X191462Y210038D01*
X191731Y209769D01*
X191873Y208541D01*
X191866Y208530D01*
X191711Y207750D01*
X191866Y206970D01*
X192308Y206308D01*
X192970Y205866D01*
X193750Y205711D01*
X194626Y204590D01*
Y199172D01*
X194328Y198874D01*
X188910D01*
X187789Y199750D01*
X187634Y200530D01*
X187192Y201192D01*
X186530Y201634D01*
X185750Y201789D01*
X184970Y201634D01*
X184308Y201192D01*
X183866Y200530D01*
X183711Y199750D01*
X182590Y198874D01*
X179250D01*
X178102Y198398D01*
X156731Y177027D01*
X155192Y177192D01*
X154530Y177634D01*
X153750Y177789D01*
X152970Y177634D01*
X152308Y177192D01*
X150942D01*
X150280Y177634D01*
X149500Y177789D01*
X148720Y177634D01*
X148058Y177192D01*
X147192D01*
X146530Y177634D01*
X145750Y177789D01*
X144970Y177634D01*
X144308Y177192D01*
X143192D01*
X142530Y177634D01*
X141750Y177789D01*
X140970Y177634D01*
X140308Y177192D01*
X139866Y176530D01*
X139711Y175750D01*
X139866Y174970D01*
X140308Y174308D01*
X140403Y174245D01*
X140681Y172727D01*
X139352Y171398D01*
X139072Y170723D01*
X138827Y170230D01*
X137750Y169789D01*
X136970Y169634D01*
X136308Y169192D01*
X135192D01*
X134530Y169634D01*
X133750Y169789D01*
X132970Y169634D01*
X132308Y169192D01*
X131192D01*
X130592Y169593D01*
X130525Y169658D01*
X130198Y170995D01*
X148079Y188876D01*
X151250D01*
X152398Y189352D01*
X159148Y196102D01*
X159624Y197250D01*
Y203328D01*
X160769Y204473D01*
X162308Y204308D01*
X162970Y203866D01*
X163750Y203711D01*
X164530Y203866D01*
X165192Y204308D01*
X165634Y204970D01*
X165789Y205750D01*
X165634Y206530D01*
X165192Y207192D01*
X165028Y208731D01*
X165923Y209626D01*
X185500D01*
X186648Y210102D01*
X189463Y212917D01*
X190552Y212210D01*
D02*
G37*
G36*
X192152Y153553D02*
X192251Y153106D01*
X191866Y152530D01*
X191775Y152071D01*
X187827Y148124D01*
X176500D01*
X175352Y147648D01*
X174102Y146398D01*
X173626Y145250D01*
Y125673D01*
X171828Y123874D01*
X168250D01*
X167102Y123398D01*
X166102Y122398D01*
X165626Y121250D01*
Y104750D01*
X166102Y103602D01*
X168126Y101578D01*
Y5322D01*
X167274Y4470D01*
X166850Y4554D01*
X163350D01*
X162277Y4340D01*
X161367Y3733D01*
X160760Y2823D01*
X160546Y1750D01*
Y0D01*
X156954D01*
Y1750D01*
X156740Y2823D01*
X156133Y3733D01*
X155223Y4340D01*
X154150Y4554D01*
X150650D01*
X149577Y4340D01*
X148667Y3733D01*
X148060Y2823D01*
X147846Y1750D01*
Y0D01*
X144254D01*
Y1750D01*
X144040Y2823D01*
X143433Y3733D01*
X142523Y4340D01*
X141450Y4554D01*
X137950D01*
X136877Y4340D01*
X135967Y3733D01*
X135360Y2823D01*
X135146Y1750D01*
Y0D01*
X131554D01*
Y1750D01*
X131340Y2823D01*
X130733Y3733D01*
X129823Y4340D01*
X128750Y4554D01*
X125250D01*
X124177Y4340D01*
X123267Y3733D01*
X122660Y2823D01*
X122446Y1750D01*
Y0D01*
X118854D01*
Y1750D01*
X118770Y2174D01*
X119898Y3302D01*
X120374Y4450D01*
Y103821D01*
X121192Y104414D01*
X121644Y104581D01*
X122250Y104461D01*
X123030Y104616D01*
X123692Y105058D01*
X124134Y105720D01*
X124289Y106500D01*
X124134Y107280D01*
X123692Y107942D01*
X123148Y108306D01*
X123000Y108544D01*
X122776Y109729D01*
X136148Y123102D01*
X136624Y124250D01*
Y124686D01*
X137750Y125711D01*
X138530Y125866D01*
X139192Y126308D01*
X139634Y126970D01*
X139789Y127750D01*
X139634Y128530D01*
X139192Y129192D01*
X138530Y129634D01*
X137750Y129789D01*
X136624Y130814D01*
Y140686D01*
X137750Y141711D01*
X138530Y141866D01*
X139192Y142308D01*
X139310Y142484D01*
X140366Y141780D01*
X140211Y141000D01*
X140366Y140220D01*
X140808Y139558D01*
X140558Y138692D01*
X140116Y138030D01*
X139961Y137250D01*
X140116Y136470D01*
X140558Y135808D01*
X141220Y135366D01*
X142000Y135211D01*
X142780Y135366D01*
X143866Y134970D01*
X144308Y134308D01*
X144970Y133866D01*
X145750Y133711D01*
X146530Y133866D01*
X147192Y134308D01*
X147634Y134970D01*
X147789Y135750D01*
X147634Y136530D01*
X147192Y137192D01*
X146530Y137634D01*
X145750Y137789D01*
X145025Y137645D01*
X144945Y137702D01*
X144403Y139193D01*
X144500Y139376D01*
X145648Y139852D01*
X150898Y145102D01*
X151374Y146250D01*
Y149521D01*
X151534Y149657D01*
X152644Y150084D01*
X152970Y149866D01*
X153750Y149711D01*
X154530Y149866D01*
X155192Y150308D01*
X155634Y150970D01*
X155789Y151750D01*
X155634Y152530D01*
X155249Y153106D01*
X155348Y153553D01*
X155705Y154376D01*
X158774D01*
X158898Y154232D01*
X159337Y153106D01*
X159124Y152788D01*
X158969Y152007D01*
X159124Y151227D01*
X159323Y150929D01*
X158646Y149769D01*
X158508Y149796D01*
X157727Y149641D01*
X157066Y149199D01*
X156624Y148538D01*
X156468Y147757D01*
X156624Y146977D01*
X157066Y146315D01*
X157727Y145873D01*
X158508Y145718D01*
X159288Y145873D01*
X159950Y146315D01*
X160392Y146977D01*
X160547Y147757D01*
X160392Y148538D01*
X160193Y148835D01*
X160869Y149996D01*
X161008Y149968D01*
X161788Y150123D01*
X162450Y150566D01*
X162796Y151084D01*
X163527Y151232D01*
X164189Y151237D01*
X164308Y151058D01*
X164970Y150616D01*
X165750Y150461D01*
X166530Y150616D01*
X167192Y151058D01*
X167634Y151720D01*
X167789Y152500D01*
X167669Y153106D01*
X167836Y153558D01*
X168429Y154376D01*
X175795D01*
X176152Y153553D01*
X176251Y153106D01*
X175866Y152530D01*
X175711Y151750D01*
X175866Y150970D01*
X176308Y150308D01*
X176970Y149866D01*
X177750Y149711D01*
X178530Y149866D01*
X179192Y150308D01*
X179634Y150970D01*
X179789Y151750D01*
X179634Y152530D01*
X179249Y153106D01*
X179348Y153553D01*
X179705Y154376D01*
X183795D01*
X184152Y153553D01*
X184251Y153106D01*
X183866Y152530D01*
X183711Y151750D01*
X183866Y150970D01*
X184308Y150308D01*
X184970Y149866D01*
X185750Y149711D01*
X186530Y149866D01*
X187192Y150308D01*
X187634Y150970D01*
X187789Y151750D01*
X187634Y152530D01*
X187249Y153106D01*
X187348Y153553D01*
X187705Y154376D01*
X191795D01*
X192152Y153553D01*
D02*
G37*
G36*
X119842Y158975D02*
X119907Y158908D01*
X120308Y158308D01*
X120472Y156769D01*
X109602Y145898D01*
X109126Y144750D01*
Y143096D01*
X108910Y142850D01*
X107856Y142218D01*
X107500Y142289D01*
X106720Y142134D01*
X106058Y141692D01*
X105616Y141030D01*
X105461Y140250D01*
X105616Y139469D01*
X106058Y138808D01*
X106302Y138645D01*
X106593Y137385D01*
X106557Y137103D01*
X102328Y132874D01*
X91762D01*
X91084Y134144D01*
X91134Y134220D01*
X91289Y135000D01*
X91134Y135780D01*
X91086Y135853D01*
X91746Y137123D01*
X92894Y137598D01*
X104729Y149433D01*
X106107Y149015D01*
X106116Y148970D01*
X106558Y148308D01*
X107220Y147866D01*
X108000Y147711D01*
X108780Y147866D01*
X109442Y148308D01*
X109884Y148970D01*
X110039Y149750D01*
X109919Y150356D01*
X109987Y150722D01*
X110566Y151796D01*
X111305Y152102D01*
X118505Y159302D01*
X119842Y158975D01*
D02*
G37*
G36*
X277650Y160546D02*
X279400D01*
Y156954D01*
X277650D01*
X276577Y156740D01*
X275667Y156133D01*
X275060Y155223D01*
X274846Y154150D01*
Y150650D01*
X275060Y149577D01*
X275667Y148667D01*
X276577Y148060D01*
X277650Y147846D01*
X279400D01*
Y144254D01*
X277650D01*
X276577Y144040D01*
X275667Y143433D01*
X275060Y142523D01*
X274846Y141450D01*
Y137950D01*
X275060Y136877D01*
X275667Y135967D01*
X276577Y135360D01*
X277650Y135146D01*
X279400D01*
Y131554D01*
X277650D01*
X276577Y131340D01*
X275667Y130733D01*
X275060Y129823D01*
X274846Y128750D01*
Y125250D01*
X275060Y124177D01*
X275667Y123267D01*
X276577Y122660D01*
X277650Y122446D01*
X279400D01*
Y118854D01*
X277650D01*
X276577Y118640D01*
X275667Y118033D01*
X275060Y117123D01*
X274846Y116050D01*
Y112550D01*
X275060Y111477D01*
X275667Y110567D01*
X276577Y109960D01*
X277650Y109746D01*
X279400D01*
Y106154D01*
X277650D01*
X276577Y105940D01*
X275667Y105333D01*
X275060Y104423D01*
X274846Y103350D01*
Y99850D01*
X275060Y98777D01*
X275667Y97867D01*
X276577Y97260D01*
X277650Y97046D01*
X279400D01*
Y93454D01*
X277650D01*
X276577Y93240D01*
X275667Y92633D01*
X275060Y91723D01*
X274846Y90650D01*
Y87150D01*
X275060Y86077D01*
X275667Y85167D01*
X276577Y84560D01*
X277650Y84346D01*
X279400D01*
Y80754D01*
X277650D01*
X276577Y80540D01*
X275667Y79933D01*
X275060Y79023D01*
X274846Y77950D01*
Y74450D01*
X275060Y73377D01*
X275667Y72467D01*
X276577Y71860D01*
X277650Y71646D01*
X279400D01*
Y68054D01*
X277650D01*
X276577Y67840D01*
X275667Y67233D01*
X275060Y66323D01*
X274846Y65250D01*
Y61750D01*
X275060Y60677D01*
X275667Y59767D01*
X276577Y59160D01*
X277650Y58946D01*
X279400D01*
Y55354D01*
X277650D01*
X276577Y55140D01*
X275667Y54533D01*
X275060Y53623D01*
X274846Y52550D01*
Y49050D01*
X275060Y47977D01*
X275667Y47067D01*
X276577Y46460D01*
X277650Y46246D01*
X279400D01*
Y42654D01*
X277650D01*
X276577Y42440D01*
X275667Y41833D01*
X275060Y40923D01*
X274846Y39850D01*
Y36350D01*
X275060Y35277D01*
X275667Y34367D01*
X276577Y33760D01*
X277650Y33546D01*
X279400D01*
Y29954D01*
X277650D01*
X276577Y29740D01*
X275667Y29133D01*
X275060Y28223D01*
X274846Y27150D01*
Y23650D01*
X275060Y22577D01*
X275667Y21667D01*
X276577Y21060D01*
X277650Y20846D01*
X279400D01*
Y17254D01*
X277650D01*
X276577Y17040D01*
X275667Y16433D01*
X275060Y15523D01*
X274846Y14450D01*
Y10950D01*
X275060Y9877D01*
X275667Y8967D01*
X276577Y8360D01*
X277650Y8146D01*
X279400D01*
Y0D01*
X271254D01*
Y1750D01*
X271040Y2823D01*
X270433Y3733D01*
X269523Y4340D01*
X268450Y4554D01*
X264950D01*
X263877Y4340D01*
X262967Y3733D01*
X262360Y2823D01*
X262146Y1750D01*
Y0D01*
X258554D01*
Y1750D01*
X258470Y2174D01*
X263898Y7602D01*
X264374Y8750D01*
Y26401D01*
X265644Y27111D01*
X266500Y26941D01*
X267670Y27174D01*
X268663Y27837D01*
X269326Y28829D01*
X269559Y30000D01*
X269326Y31170D01*
X268663Y32163D01*
X267670Y32826D01*
X266500Y33059D01*
X265644Y32888D01*
X264374Y33598D01*
Y70238D01*
X265644Y70916D01*
X265720Y70866D01*
X266500Y70710D01*
X267280Y70866D01*
X267942Y71308D01*
X268384Y71969D01*
X268539Y72750D01*
X268384Y73530D01*
X267942Y74191D01*
X267280Y74634D01*
X266500Y74789D01*
X265720Y74634D01*
X265644Y74583D01*
X264374Y75262D01*
Y76737D01*
X265644Y77416D01*
X265720Y77366D01*
X266500Y77210D01*
X267280Y77366D01*
X267942Y77808D01*
X268384Y78469D01*
X268539Y79250D01*
X268384Y80030D01*
X267942Y80691D01*
X267280Y81133D01*
X266500Y81289D01*
X265720Y81133D01*
X265644Y81083D01*
X264374Y81762D01*
Y83238D01*
X265644Y83917D01*
X265720Y83866D01*
X266500Y83711D01*
X267280Y83866D01*
X267942Y84308D01*
X268384Y84970D01*
X268539Y85750D01*
X268384Y86530D01*
X267942Y87192D01*
X267280Y87634D01*
X266500Y87789D01*
X265720Y87634D01*
X265644Y87583D01*
X264374Y88262D01*
Y89738D01*
X265644Y90417D01*
X265720Y90366D01*
X266500Y90211D01*
X267280Y90366D01*
X267942Y90808D01*
X268384Y91469D01*
X268539Y92250D01*
X268384Y93030D01*
X267942Y93692D01*
X267280Y94134D01*
X266500Y94289D01*
X265720Y94134D01*
X265644Y94083D01*
X264374Y94762D01*
Y96238D01*
X265644Y96917D01*
X265720Y96866D01*
X266500Y96711D01*
X267280Y96866D01*
X267942Y97308D01*
X268384Y97970D01*
X268539Y98750D01*
X268384Y99530D01*
X267942Y100192D01*
X267280Y100634D01*
X266500Y100789D01*
X265720Y100634D01*
X265644Y100583D01*
X264374Y101262D01*
Y102738D01*
X265644Y103417D01*
X265720Y103366D01*
X266500Y103211D01*
X267280Y103366D01*
X267942Y103808D01*
X268336Y104397D01*
X268899Y104469D01*
X269101D01*
X269664Y104397D01*
X270058Y103808D01*
X270720Y103366D01*
X271500Y103211D01*
X272280Y103366D01*
X272942Y103808D01*
X273384Y104470D01*
X273539Y105250D01*
X273384Y106030D01*
X272942Y106692D01*
X272280Y107134D01*
X271500Y107289D01*
X270720Y107134D01*
X270058Y106692D01*
X269664Y106103D01*
X269101Y106030D01*
X268899D01*
X268336Y106103D01*
X267942Y106692D01*
X267280Y107134D01*
X266500Y107289D01*
X265720Y107134D01*
X265644Y107083D01*
X264374Y107762D01*
Y109238D01*
X265644Y109917D01*
X265720Y109866D01*
X266500Y109711D01*
X267280Y109866D01*
X267942Y110308D01*
X268336Y110897D01*
X268899Y110969D01*
X269101D01*
X269664Y110897D01*
X270058Y110308D01*
X270720Y109866D01*
X271500Y109711D01*
X272280Y109866D01*
X272942Y110308D01*
X273384Y110969D01*
X273539Y111750D01*
X273384Y112530D01*
X272942Y113192D01*
X272280Y113634D01*
X271500Y113789D01*
X270720Y113634D01*
X270058Y113192D01*
X269664Y112603D01*
X269101Y112530D01*
X268899D01*
X268336Y112603D01*
X267942Y113192D01*
X267280Y113634D01*
X266500Y113789D01*
X265720Y113634D01*
X265644Y113583D01*
X264374Y114262D01*
Y114750D01*
X263898Y115898D01*
X259725Y120071D01*
X259634Y120530D01*
X259192Y121192D01*
X258530Y121634D01*
X257750Y121789D01*
X256970Y121634D01*
X256308Y121192D01*
X255866Y120530D01*
X255711Y119750D01*
X255866Y118970D01*
X256308Y118308D01*
X256970Y117866D01*
X257429Y117775D01*
X261126Y114078D01*
Y74598D01*
X259856Y73888D01*
X259000Y74059D01*
X257829Y73826D01*
X256837Y73163D01*
X256174Y72171D01*
X255941Y71000D01*
X256174Y69830D01*
X256837Y68837D01*
X257829Y68174D01*
X259000Y67941D01*
X259856Y68112D01*
X261126Y67402D01*
Y57581D01*
X259856Y57196D01*
X259692Y57442D01*
X259030Y57884D01*
X258250Y58039D01*
X257470Y57884D01*
X256808Y57442D01*
X256366Y56781D01*
X256211Y56000D01*
X256285Y55625D01*
X255597Y54717D01*
X255307Y54528D01*
X255250Y54539D01*
X254470Y54384D01*
X254074Y54120D01*
X253692Y54692D01*
X253030Y55134D01*
X252250Y55289D01*
X251470Y55134D01*
X250808Y54692D01*
X250366Y54030D01*
X250211Y53250D01*
X250366Y52470D01*
X250808Y51808D01*
X251470Y51366D01*
X252250Y51211D01*
X253030Y51366D01*
X253426Y51630D01*
X253808Y51058D01*
X254470Y50616D01*
X255250Y50461D01*
X256030Y50616D01*
X256692Y51058D01*
X257134Y51720D01*
X257289Y52500D01*
X257214Y52875D01*
X257903Y53783D01*
X258193Y53972D01*
X258250Y53961D01*
X259030Y54116D01*
X259692Y54558D01*
X259856Y54804D01*
X261126Y54419D01*
Y9423D01*
X256173Y4470D01*
X255750Y4554D01*
X252250D01*
X251177Y4340D01*
X250267Y3733D01*
X249660Y2823D01*
X249446Y1750D01*
Y0D01*
X245854D01*
Y1750D01*
X245640Y2823D01*
X245033Y3733D01*
X244123Y4340D01*
X243050Y4554D01*
X239550D01*
X238477Y4340D01*
X238165Y4132D01*
X232193Y10103D01*
X232156Y10385D01*
X232447Y11645D01*
X232692Y11808D01*
X232962Y12212D01*
X233230Y12481D01*
X234459Y12623D01*
X234469Y12616D01*
X235250Y12461D01*
X236030Y12616D01*
X236692Y13058D01*
X237808D01*
X238469Y12616D01*
X239250Y12461D01*
X240030Y12616D01*
X240692Y13058D01*
X241134Y13720D01*
X241136Y13730D01*
X242463Y14363D01*
X242513Y14357D01*
X243250Y14211D01*
X244030Y14366D01*
X244692Y14808D01*
X245134Y15470D01*
X245289Y16250D01*
X245134Y17030D01*
X244692Y17692D01*
X244030Y18134D01*
X243250Y18289D01*
X242469Y18134D01*
X241808Y17692D01*
X241366Y17030D01*
X241364Y17020D01*
X240036Y16387D01*
X239986Y16393D01*
X239250Y16539D01*
X238469Y16384D01*
X237808Y15942D01*
X236692D01*
X236030Y16384D01*
X235250Y16539D01*
X234469Y16384D01*
X233808Y15942D01*
X233538Y15538D01*
X233269Y15269D01*
X232040Y15127D01*
X232030Y15134D01*
X231250Y15289D01*
X230469Y15134D01*
X229808Y14692D01*
X229645Y14448D01*
X228385Y14157D01*
X228103Y14193D01*
X227193Y15103D01*
X227156Y15385D01*
X227447Y16645D01*
X227692Y16808D01*
X228134Y17470D01*
X228289Y18250D01*
X228134Y19030D01*
X228127Y19041D01*
X228269Y20269D01*
X228538Y20538D01*
X228942Y20808D01*
X229384Y21470D01*
X229539Y22250D01*
X229384Y23030D01*
X228942Y23692D01*
Y24808D01*
X229384Y25470D01*
X229539Y26250D01*
X229384Y27030D01*
X228942Y27692D01*
Y28808D01*
X229384Y29470D01*
X229539Y30250D01*
X229384Y31030D01*
X228942Y31692D01*
Y32808D01*
X229384Y33470D01*
X229539Y34250D01*
X229384Y35030D01*
X228942Y35692D01*
X228280Y36134D01*
X227500Y36289D01*
X227394Y36268D01*
X226124Y37147D01*
Y40840D01*
X227000Y41961D01*
X227780Y42116D01*
X228442Y42558D01*
X228884Y43220D01*
X229039Y44000D01*
X228884Y44780D01*
X228442Y45442D01*
X227780Y45884D01*
X227000Y46039D01*
X226124Y47160D01*
Y49795D01*
X226947Y50152D01*
X227394Y50251D01*
X227970Y49866D01*
X228750Y49711D01*
X229530Y49866D01*
X230192Y50308D01*
X230634Y50970D01*
X230789Y51750D01*
X230634Y52530D01*
X230192Y53192D01*
X229530Y53634D01*
X228750Y53789D01*
X227970Y53634D01*
X227394Y53249D01*
X226947Y53348D01*
X226124Y53705D01*
Y55627D01*
X225648Y56775D01*
X204918Y77505D01*
X205067Y79062D01*
X205250Y79211D01*
X206030Y79366D01*
X206431Y79633D01*
X207348Y79357D01*
X207733Y79092D01*
X207895Y78274D01*
X208448Y77448D01*
X213198Y72698D01*
X214025Y72145D01*
X215000Y71951D01*
X216169D01*
X216848Y70681D01*
X216674Y70420D01*
X216441Y69250D01*
X216674Y68080D01*
X217337Y67087D01*
X218330Y66424D01*
X219500Y66191D01*
X220671Y66424D01*
X221663Y67087D01*
X222326Y68080D01*
X222559Y69250D01*
X222326Y70420D01*
X221663Y71413D01*
X221129Y71770D01*
X220874Y73077D01*
X220923Y73318D01*
X223802Y76198D01*
X224355Y77025D01*
X224549Y78000D01*
Y96444D01*
X225556Y97451D01*
X228053D01*
X228225Y97343D01*
X228997Y96181D01*
X228961Y96000D01*
X229116Y95220D01*
X229558Y94558D01*
X229938Y94304D01*
X230241Y93759D01*
X230300Y92805D01*
X230116Y92530D01*
X229961Y91750D01*
X230116Y90969D01*
X230558Y90308D01*
X231220Y89866D01*
X232000Y89710D01*
X232780Y89866D01*
X233442Y90308D01*
X233884Y90969D01*
X234039Y91750D01*
X233884Y92530D01*
X233442Y93191D01*
X233062Y93445D01*
X232759Y93990D01*
X232700Y94944D01*
X232884Y95220D01*
X233039Y96000D01*
X233003Y96181D01*
X233775Y97343D01*
X233947Y97451D01*
X234500D01*
X235476Y97645D01*
X236302Y98198D01*
X241802Y103698D01*
X243274Y103895D01*
X244250Y103701D01*
X245225Y103895D01*
X246052Y104448D01*
X246605Y105275D01*
X246799Y106250D01*
Y118194D01*
X264802Y136198D01*
X265355Y137025D01*
X266478Y137715D01*
X266500Y137711D01*
X267280Y137866D01*
X267942Y138308D01*
X268336Y138897D01*
X268899Y138970D01*
X269101D01*
X269664Y138897D01*
X270058Y138308D01*
X270720Y137866D01*
X271500Y137711D01*
X272280Y137866D01*
X272942Y138308D01*
X273384Y138970D01*
X273539Y139750D01*
X273384Y140530D01*
X272942Y141192D01*
X272280Y141634D01*
X271500Y141789D01*
X270720Y141634D01*
X270058Y141192D01*
X269664Y140603D01*
X269101Y140530D01*
X268899D01*
X268336Y140603D01*
X267942Y141192D01*
X267280Y141634D01*
X266500Y141789D01*
X265549Y142895D01*
Y146444D01*
X272052Y152948D01*
X272605Y153774D01*
X272799Y154750D01*
Y156105D01*
X273750Y157211D01*
X274531Y157366D01*
X275192Y157808D01*
X275634Y158470D01*
X275789Y159250D01*
X275673Y159836D01*
X276199Y160409D01*
X276689Y160737D01*
X277650Y160546D01*
D02*
G37*
G36*
X211376Y125828D02*
Y92387D01*
X208104Y89115D01*
X207659Y89060D01*
X207288Y89398D01*
X207263Y90967D01*
X208898Y92602D01*
X209374Y93750D01*
Y113750D01*
X208898Y114898D01*
X203725Y120071D01*
X203634Y120530D01*
X203192Y121192D01*
X203125Y121237D01*
X202620Y122028D01*
X202810Y122858D01*
X202884Y122969D01*
X203039Y123750D01*
X202884Y124530D01*
X202442Y125191D01*
X201780Y125633D01*
X201000Y125789D01*
X200394Y125668D01*
X199942Y125835D01*
X199124Y126429D01*
Y129071D01*
X199942Y129664D01*
X200394Y129831D01*
X201000Y129710D01*
X201780Y129866D01*
X202442Y130308D01*
X202884Y130969D01*
X203039Y131750D01*
X202884Y132530D01*
X203883Y133321D01*
X211376Y125828D01*
D02*
G37*
%LPC*%
G36*
X195500Y271289D02*
X194720Y271134D01*
X194058Y270692D01*
X193616Y270030D01*
X193461Y269250D01*
X193616Y268470D01*
X194058Y267808D01*
X194720Y267366D01*
X195500Y267211D01*
X196280Y267366D01*
X196942Y267808D01*
X197384Y268470D01*
X197539Y269250D01*
X197384Y270030D01*
X196942Y270692D01*
X196280Y271134D01*
X195500Y271289D01*
D02*
G37*
G36*
X187500D02*
X186720Y271134D01*
X186058Y270692D01*
X185616Y270030D01*
X185461Y269250D01*
X185616Y268470D01*
X186058Y267808D01*
X186720Y267366D01*
X187500Y267211D01*
X188280Y267366D01*
X188942Y267808D01*
X189384Y268470D01*
X189539Y269250D01*
X189384Y270030D01*
X188942Y270692D01*
X188280Y271134D01*
X187500Y271289D01*
D02*
G37*
G36*
X193750Y257789D02*
X192970Y257634D01*
X192308Y257192D01*
X191866Y256530D01*
X191711Y255750D01*
X191866Y254970D01*
X192308Y254308D01*
X192970Y253866D01*
X193750Y253711D01*
X194530Y253866D01*
X195192Y254308D01*
X195634Y254970D01*
X195789Y255750D01*
X195634Y256530D01*
X195192Y257192D01*
X194530Y257634D01*
X193750Y257789D01*
D02*
G37*
G36*
X153750Y250539D02*
X152970Y250384D01*
X152308Y249942D01*
X151866Y249280D01*
X151711Y248500D01*
X151866Y247720D01*
X152308Y247058D01*
X152970Y246616D01*
X153750Y246461D01*
X154530Y246616D01*
X155192Y247058D01*
X155634Y247720D01*
X155789Y248500D01*
X155634Y249280D01*
X155192Y249942D01*
X154530Y250384D01*
X153750Y250539D01*
D02*
G37*
G36*
X193750Y249789D02*
X192970Y249634D01*
X192308Y249192D01*
X191866Y248530D01*
X191711Y247750D01*
X191866Y246970D01*
X192308Y246308D01*
X192970Y245866D01*
X193750Y245711D01*
X194530Y245866D01*
X195192Y246308D01*
X195634Y246970D01*
X195789Y247750D01*
X195634Y248530D01*
X195192Y249192D01*
X194530Y249634D01*
X193750Y249789D01*
D02*
G37*
G36*
X161750Y238789D02*
X160970Y238634D01*
X160308Y238192D01*
X159866Y237530D01*
X159711Y236750D01*
X159866Y235970D01*
X160308Y235308D01*
X160970Y234866D01*
X161750Y234711D01*
X162530Y234866D01*
X163192Y235308D01*
X163634Y235970D01*
X163789Y236750D01*
X163634Y237530D01*
X163192Y238192D01*
X162530Y238634D01*
X161750Y238789D01*
D02*
G37*
G36*
X185750Y234539D02*
X184970Y234384D01*
X184308Y233942D01*
X183866Y233280D01*
X183711Y232500D01*
X183866Y231720D01*
X184308Y231058D01*
X184970Y230616D01*
X185750Y230461D01*
X186530Y230616D01*
X187192Y231058D01*
X188116Y230280D01*
X187961Y229500D01*
X188116Y228720D01*
X188558Y228058D01*
X189220Y227616D01*
X190000Y227461D01*
X190780Y227616D01*
X191442Y228058D01*
X191884Y228720D01*
X192039Y229500D01*
X191884Y230280D01*
X191442Y230942D01*
X190780Y231384D01*
X190000Y231539D01*
X189220Y231384D01*
X188558Y230942D01*
X187634Y231720D01*
X187789Y232500D01*
X187634Y233280D01*
X187192Y233942D01*
X186530Y234384D01*
X185750Y234539D01*
D02*
G37*
G36*
X59670Y266189D02*
X58890Y266034D01*
X58228Y265592D01*
X57834Y265003D01*
X57271Y264930D01*
X57069D01*
X56506Y265003D01*
X56112Y265592D01*
X55450Y266034D01*
X54670Y266189D01*
X53890Y266034D01*
X53228Y265592D01*
X52834Y265003D01*
X52271Y264930D01*
X52069D01*
X51505Y265003D01*
X51112Y265592D01*
X50450Y266034D01*
X49670Y266189D01*
X48890Y266034D01*
X48228Y265592D01*
X47834Y265003D01*
X47271Y264930D01*
X47069D01*
X46505Y265003D01*
X46112Y265592D01*
X45450Y266034D01*
X44670Y266189D01*
X43890Y266034D01*
X43228Y265592D01*
X42834Y265003D01*
X42271Y264930D01*
X42069D01*
X41506Y265003D01*
X41112Y265592D01*
X40450Y266034D01*
X39670Y266189D01*
X38890Y266034D01*
X38228Y265592D01*
X37786Y264930D01*
X37631Y264150D01*
X37786Y263370D01*
X38228Y262708D01*
X38890Y262266D01*
X39670Y262111D01*
X40450Y262266D01*
X41112Y262708D01*
X41506Y263297D01*
X42069Y263370D01*
X42271D01*
X42834Y263297D01*
X43228Y262708D01*
X43890Y262266D01*
X44670Y262111D01*
X45450Y262266D01*
X46112Y262708D01*
X46505Y263297D01*
X47069Y263370D01*
X47271D01*
X47834Y263297D01*
X48228Y262708D01*
X48890Y262266D01*
X49670Y262111D01*
X50450Y262266D01*
X51112Y262708D01*
X51506Y263297D01*
X52069Y263370D01*
X52271D01*
X52834Y263297D01*
X53228Y262708D01*
X53890Y262266D01*
X54670Y262111D01*
X55450Y262266D01*
X56112Y262708D01*
X56506Y263297D01*
X57069Y263370D01*
X57271D01*
X57834Y263297D01*
X58228Y262708D01*
X58890Y262266D01*
X59670Y262111D01*
X60450Y262266D01*
X61112Y262708D01*
X61554Y263370D01*
X61709Y264150D01*
X61554Y264930D01*
X61112Y265592D01*
X60450Y266034D01*
X59670Y266189D01*
D02*
G37*
G36*
X74670D02*
X73890Y266034D01*
X73228Y265592D01*
X72834Y265003D01*
X72271Y264930D01*
X72069D01*
X71505Y265003D01*
X71112Y265592D01*
X70450Y266034D01*
X69670Y266189D01*
X68890Y266034D01*
X68228Y265592D01*
X67786Y264930D01*
X67631Y264150D01*
X67786Y263370D01*
X68228Y262708D01*
X68890Y262266D01*
X69670Y262111D01*
X70450Y262266D01*
X71112Y262708D01*
X71505Y263297D01*
X72069Y263370D01*
X72271D01*
X72834Y263297D01*
X73228Y262708D01*
X73890Y262266D01*
X74670Y262111D01*
X75450Y262266D01*
X76112Y262708D01*
X76554Y263370D01*
X76709Y264150D01*
X76554Y264930D01*
X76112Y265592D01*
X75450Y266034D01*
X74670Y266189D01*
D02*
G37*
G36*
X25000Y268809D02*
X23830Y268576D01*
X22837Y267913D01*
X22174Y266921D01*
X21941Y265750D01*
X22174Y264580D01*
X22837Y263587D01*
X23830Y262924D01*
X25000Y262691D01*
X26170Y262924D01*
X27163Y263587D01*
X27826Y264580D01*
X28059Y265750D01*
X27826Y266921D01*
X27163Y267913D01*
X26170Y268576D01*
X25000Y268809D01*
D02*
G37*
G36*
X20500Y239539D02*
X19720Y239384D01*
X19058Y238942D01*
X18616Y238280D01*
X18461Y237500D01*
X18616Y236720D01*
X19058Y236058D01*
X19720Y235616D01*
X20500Y235461D01*
X21280Y235616D01*
X21942Y236058D01*
X22384Y236720D01*
X22539Y237500D01*
X22384Y238280D01*
X21942Y238942D01*
X21280Y239384D01*
X20500Y239539D01*
D02*
G37*
G36*
X32170Y233689D02*
X31390Y233534D01*
X30728Y233092D01*
X30286Y232430D01*
X30131Y231650D01*
X30286Y230870D01*
X30728Y230208D01*
X31390Y229766D01*
X32170Y229611D01*
X32950Y229766D01*
X33612Y230208D01*
X34054Y230870D01*
X34209Y231650D01*
X34054Y232430D01*
X33612Y233092D01*
X32950Y233534D01*
X32170Y233689D01*
D02*
G37*
G36*
X20500Y214539D02*
X19720Y214384D01*
X19058Y213942D01*
X18616Y213280D01*
X18461Y212500D01*
X18616Y211719D01*
X19058Y211058D01*
X19720Y210616D01*
X20500Y210460D01*
X21280Y210616D01*
X21942Y211058D01*
X22384Y211719D01*
X22539Y212500D01*
X22384Y213280D01*
X21942Y213942D01*
X21280Y214384D01*
X20500Y214539D01*
D02*
G37*
G36*
X129750Y145789D02*
X128970Y145634D01*
X128308Y145192D01*
X127866Y144530D01*
X127711Y143750D01*
X127866Y142970D01*
X128308Y142308D01*
X128970Y141866D01*
X129750Y141711D01*
X130530Y141866D01*
X131192Y142308D01*
X131634Y142970D01*
X131789Y143750D01*
X131634Y144530D01*
X131192Y145192D01*
X130530Y145634D01*
X129750Y145789D01*
D02*
G37*
G36*
Y137789D02*
X128970Y137634D01*
X128308Y137192D01*
X127866Y136530D01*
X127711Y135750D01*
X127866Y134970D01*
X128308Y134308D01*
X128970Y133866D01*
X129750Y133711D01*
X130530Y133866D01*
X131192Y134308D01*
X131634Y134970D01*
X131789Y135750D01*
X131634Y136530D01*
X131192Y137192D01*
X130530Y137634D01*
X129750Y137789D01*
D02*
G37*
G36*
Y129789D02*
X128970Y129634D01*
X128308Y129192D01*
X127866Y128530D01*
X127711Y127750D01*
X127866Y126970D01*
X128308Y126308D01*
X128970Y125866D01*
X129750Y125711D01*
X130530Y125866D01*
X131192Y126308D01*
X131634Y126970D01*
X131789Y127750D01*
X131634Y128530D01*
X131192Y129192D01*
X130530Y129634D01*
X129750Y129789D01*
D02*
G37*
G36*
X70500Y121829D02*
X68939Y121518D01*
X67616Y120634D01*
X66732Y119311D01*
X66422Y117750D01*
X66732Y116189D01*
X67616Y114866D01*
X68939Y113982D01*
X70500Y113672D01*
X72061Y113982D01*
X73384Y114866D01*
X74268Y116189D01*
X74578Y117750D01*
X74268Y119311D01*
X73384Y120634D01*
X72061Y121518D01*
X70500Y121829D01*
D02*
G37*
G36*
X54000Y110289D02*
X53220Y110134D01*
X52558Y109692D01*
X52165Y109103D01*
X51601Y109031D01*
X51399D01*
X50836Y109103D01*
X50442Y109692D01*
X49780Y110134D01*
X49000Y110289D01*
X48220Y110134D01*
X47558Y109692D01*
X47116Y109031D01*
X46961Y108250D01*
X47116Y107470D01*
X47558Y106808D01*
X48220Y106366D01*
X49000Y106211D01*
X49780Y106366D01*
X50442Y106808D01*
X50836Y107397D01*
X51399Y107470D01*
X51601D01*
X52165Y107397D01*
X52558Y106808D01*
X53220Y106366D01*
X54000Y106211D01*
X54780Y106366D01*
X55442Y106808D01*
X55884Y107470D01*
X56039Y108250D01*
X55884Y109031D01*
X55442Y109692D01*
X54780Y110134D01*
X54000Y110289D01*
D02*
G37*
G36*
X66000Y110289D02*
X65220Y110134D01*
X64558Y109692D01*
X64164Y109103D01*
X63601Y109030D01*
X63399D01*
X62836Y109103D01*
X62442Y109692D01*
X61780Y110134D01*
X61000Y110289D01*
X60220Y110134D01*
X59558Y109692D01*
X59116Y109030D01*
X58961Y108250D01*
X59116Y107470D01*
X59558Y106808D01*
X60220Y106366D01*
X61000Y106211D01*
X61780Y106366D01*
X62442Y106808D01*
X62836Y107397D01*
X63399Y107470D01*
X63601D01*
X64164Y107397D01*
X64558Y106808D01*
X65220Y106366D01*
X66000Y106211D01*
X66780Y106366D01*
X67442Y106808D01*
X67884Y107470D01*
X68039Y108250D01*
X67884Y109030D01*
X67442Y109692D01*
X66780Y110134D01*
X66000Y110289D01*
D02*
G37*
G36*
X73000D02*
X72220Y110134D01*
X71558Y109692D01*
X71116Y109030D01*
X70961Y108250D01*
X71116Y107470D01*
X71558Y106808D01*
X72220Y106366D01*
X73000Y106211D01*
X73780Y106366D01*
X74442Y106808D01*
X74884Y107470D01*
X75039Y108250D01*
X74884Y109030D01*
X74442Y109692D01*
X73780Y110134D01*
X73000Y110289D01*
D02*
G37*
G36*
X88600Y83728D02*
X87039Y83418D01*
X85716Y82534D01*
X84832Y81211D01*
X84522Y79650D01*
X84832Y78089D01*
X85716Y76766D01*
X87039Y75882D01*
X88600Y75572D01*
X90161Y75882D01*
X91484Y76766D01*
X92368Y78089D01*
X92678Y79650D01*
X92368Y81211D01*
X91484Y82534D01*
X90161Y83418D01*
X88600Y83728D01*
D02*
G37*
G36*
X50500D02*
X48939Y83418D01*
X47616Y82534D01*
X46732Y81211D01*
X46422Y79650D01*
X46732Y78089D01*
X47616Y76766D01*
X48939Y75882D01*
X50500Y75572D01*
X52061Y75882D01*
X53384Y76766D01*
X54268Y78089D01*
X54578Y79650D01*
X54268Y81211D01*
X53384Y82534D01*
X52061Y83418D01*
X50500Y83728D01*
D02*
G37*
G36*
X17300Y82578D02*
X15739Y82268D01*
X14416Y81384D01*
X13532Y80061D01*
X13222Y78500D01*
X13532Y76939D01*
X14416Y75616D01*
X15739Y74732D01*
X17300Y74422D01*
X18861Y74732D01*
X20184Y75616D01*
X21068Y76939D01*
X21379Y78500D01*
X21068Y80061D01*
X20184Y81384D01*
X18861Y82268D01*
X17300Y82578D01*
D02*
G37*
G36*
X95050Y71539D02*
X94270Y71384D01*
X93608Y70942D01*
X93166Y70280D01*
X93011Y69500D01*
X93166Y68720D01*
X93608Y68058D01*
X94270Y67616D01*
X95050Y67461D01*
X95830Y67616D01*
X96492Y68058D01*
X96934Y68720D01*
X97089Y69500D01*
X96934Y70280D01*
X96492Y70942D01*
X95830Y71384D01*
X95050Y71539D01*
D02*
G37*
G36*
X68750Y64059D02*
X67579Y63826D01*
X66587Y63163D01*
X65924Y62171D01*
X65691Y61000D01*
X65924Y59830D01*
X66587Y58837D01*
X67579Y58174D01*
X68750Y57941D01*
X69921Y58174D01*
X70913Y58837D01*
X71576Y59830D01*
X71809Y61000D01*
X71576Y62171D01*
X70913Y63163D01*
X69921Y63826D01*
X68750Y64059D01*
D02*
G37*
G36*
X17300Y69117D02*
X14959Y68652D01*
X12974Y67326D01*
X11648Y65341D01*
X11183Y63000D01*
X11648Y60659D01*
X12974Y58674D01*
X14959Y57348D01*
X17300Y56882D01*
X19641Y57348D01*
X21626Y58674D01*
X22952Y60659D01*
X23418Y63000D01*
X22952Y65341D01*
X21626Y67326D01*
X19641Y68652D01*
X17300Y69117D01*
D02*
G37*
G36*
X37800Y45628D02*
X36239Y45318D01*
X34916Y44434D01*
X34032Y43111D01*
X33722Y41550D01*
X34032Y39989D01*
X34916Y38666D01*
X36239Y37782D01*
X37800Y37472D01*
X39361Y37782D01*
X40684Y38666D01*
X41568Y39989D01*
X41878Y41550D01*
X41568Y43111D01*
X40684Y44434D01*
X39361Y45318D01*
X37800Y45628D01*
D02*
G37*
G36*
X75900Y45628D02*
X74339Y45318D01*
X73016Y44434D01*
X72132Y43111D01*
X71822Y41550D01*
X72132Y39989D01*
X73016Y38666D01*
X74339Y37782D01*
X75900Y37472D01*
X77461Y37782D01*
X78784Y38666D01*
X79668Y39989D01*
X79978Y41550D01*
X79668Y43111D01*
X78784Y44434D01*
X77461Y45318D01*
X75900Y45628D01*
D02*
G37*
G36*
X88600Y30889D02*
X87820Y30734D01*
X87158Y30292D01*
X86716Y29630D01*
X86561Y28850D01*
X86716Y28070D01*
X87158Y27408D01*
X87820Y26966D01*
X88600Y26811D01*
X89380Y26966D01*
X90042Y27408D01*
X90484Y28070D01*
X90639Y28850D01*
X90484Y29630D01*
X90042Y30292D01*
X89380Y30734D01*
X88600Y30889D01*
D02*
G37*
G36*
X101300Y30889D02*
X100520Y30734D01*
X99858Y30292D01*
X99416Y29630D01*
X99261Y28850D01*
X99416Y28070D01*
X99858Y27408D01*
X100520Y26966D01*
X101300Y26811D01*
X102080Y26966D01*
X102742Y27408D01*
X103184Y28070D01*
X103339Y28850D01*
X103184Y29630D01*
X102742Y30292D01*
X102080Y30734D01*
X101300Y30889D01*
D02*
G37*
G36*
X63200D02*
X62420Y30734D01*
X61758Y30292D01*
X61316Y29630D01*
X61161Y28850D01*
X61316Y28070D01*
X61758Y27408D01*
X62420Y26966D01*
X63200Y26811D01*
X63980Y26966D01*
X64642Y27408D01*
X65084Y28070D01*
X65239Y28850D01*
X65084Y29630D01*
X64642Y30292D01*
X63980Y30734D01*
X63200Y30889D01*
D02*
G37*
G36*
X50500Y30889D02*
X49720Y30734D01*
X49058Y30292D01*
X48616Y29630D01*
X48461Y28850D01*
X48616Y28070D01*
X49058Y27408D01*
X49720Y26966D01*
X50500Y26811D01*
X51280Y26966D01*
X51942Y27408D01*
X52384Y28070D01*
X52539Y28850D01*
X52384Y29630D01*
X51942Y30292D01*
X51280Y30734D01*
X50500Y30889D01*
D02*
G37*
G36*
X89750Y11289D02*
X88970Y11134D01*
X88308Y10692D01*
X87866Y10030D01*
X87711Y9250D01*
X87866Y8470D01*
X88308Y7808D01*
X88970Y7366D01*
X89750Y7211D01*
X90530Y7366D01*
X91192Y7808D01*
X91634Y8470D01*
X91789Y9250D01*
X91634Y10030D01*
X91192Y10692D01*
X90530Y11134D01*
X89750Y11289D01*
D02*
G37*
G36*
X63000D02*
X62220Y11134D01*
X61558Y10692D01*
X61116Y10030D01*
X60961Y9250D01*
X61116Y8470D01*
X61558Y7808D01*
X62220Y7366D01*
X63000Y7211D01*
X63780Y7366D01*
X64442Y7808D01*
X64884Y8470D01*
X65039Y9250D01*
X64884Y10030D01*
X64442Y10692D01*
X63780Y11134D01*
X63000Y11289D01*
D02*
G37*
G36*
X270250Y259539D02*
X269470Y259384D01*
X268808Y258942D01*
X268366Y258280D01*
X268211Y257500D01*
X268366Y256720D01*
X268808Y256058D01*
X269470Y255616D01*
X270250Y255461D01*
X271030Y255616D01*
X271692Y256058D01*
X272134Y256720D01*
X272289Y257500D01*
X272134Y258280D01*
X271692Y258942D01*
X271030Y259384D01*
X270250Y259539D01*
D02*
G37*
G36*
X226500Y271289D02*
X225720Y271134D01*
X225058Y270692D01*
X224616Y270030D01*
X224461Y269250D01*
X224616Y268470D01*
X225058Y267808D01*
X225720Y267366D01*
X226500Y267211D01*
X227280Y267366D01*
X227942Y267808D01*
X228384Y268470D01*
X228539Y269250D01*
X228384Y270030D01*
X227942Y270692D01*
X227280Y271134D01*
X226500Y271289D01*
D02*
G37*
G36*
X229750Y253789D02*
X228970Y253634D01*
X228308Y253192D01*
X227866Y252530D01*
X227711Y251750D01*
X227866Y250970D01*
X228308Y250308D01*
X228970Y249866D01*
X229750Y249711D01*
X230530Y249866D01*
X231192Y250308D01*
X231634Y250970D01*
X231789Y251750D01*
X231634Y252530D01*
X231192Y253192D01*
X230530Y253634D01*
X229750Y253789D01*
D02*
G37*
G36*
X226250Y213789D02*
X225469Y213634D01*
X224808Y213192D01*
X224366Y212530D01*
X224211Y211750D01*
X224366Y210970D01*
X224808Y210308D01*
X225469Y209866D01*
X226250Y209711D01*
X227030Y209866D01*
X227692Y210308D01*
X228134Y210970D01*
X228289Y211750D01*
X228134Y212530D01*
X227692Y213192D01*
X227030Y213634D01*
X226250Y213789D01*
D02*
G37*
G36*
X229750Y208539D02*
X228970Y208384D01*
X228308Y207942D01*
X227866Y207280D01*
X227711Y206500D01*
X227866Y205720D01*
X228308Y205058D01*
X228970Y204616D01*
X229750Y204461D01*
X230530Y204616D01*
X231192Y205058D01*
X231634Y205720D01*
X231789Y206500D01*
X231634Y207280D01*
X231192Y207942D01*
X230530Y208384D01*
X229750Y208539D01*
D02*
G37*
G36*
Y202039D02*
X228970Y201884D01*
X228308Y201442D01*
X227866Y200780D01*
X227711Y200000D01*
X227866Y199220D01*
X228308Y198558D01*
X228970Y198116D01*
X229750Y197961D01*
X230530Y198116D01*
X231192Y198558D01*
X231634Y199220D01*
X231789Y200000D01*
X231634Y200780D01*
X231192Y201442D01*
X230530Y201884D01*
X229750Y202039D01*
D02*
G37*
G36*
X209750Y209789D02*
X208970Y209634D01*
X208308Y209192D01*
X207866Y208530D01*
X207711Y207750D01*
X207866Y206970D01*
X208308Y206308D01*
X208970Y205866D01*
X209750Y205711D01*
X210530Y205866D01*
X211192Y206308D01*
X211634Y206970D01*
X211789Y207750D01*
X211634Y208530D01*
X211192Y209192D01*
X210530Y209634D01*
X209750Y209789D01*
D02*
G37*
G36*
X193750Y177789D02*
X192970Y177634D01*
X192308Y177192D01*
X191866Y176530D01*
X191711Y175750D01*
X191866Y174970D01*
X192308Y174308D01*
X192970Y173866D01*
X193750Y173711D01*
X194530Y173866D01*
X195192Y174308D01*
X195634Y174970D01*
X195789Y175750D01*
X195634Y176530D01*
X195192Y177192D01*
X194530Y177634D01*
X193750Y177789D01*
D02*
G37*
G36*
X201750Y169789D02*
X200970Y169634D01*
X200308Y169192D01*
X199866Y168530D01*
X199711Y167750D01*
X199866Y166970D01*
X200308Y166308D01*
X200970Y165866D01*
X201750Y165711D01*
X202530Y165866D01*
X203192Y166308D01*
X203634Y166970D01*
X203789Y167750D01*
X203634Y168530D01*
X203192Y169192D01*
X202530Y169634D01*
X201750Y169789D01*
D02*
G37*
G36*
X240000Y141789D02*
X239220Y141634D01*
X238558Y141192D01*
X238116Y140530D01*
X237961Y139750D01*
X238116Y138969D01*
X238558Y138308D01*
X239220Y137866D01*
X240000Y137710D01*
X240780Y137866D01*
X241442Y138308D01*
X241884Y138969D01*
X242039Y139750D01*
X241884Y140530D01*
X241442Y141192D01*
X240780Y141634D01*
X240000Y141789D01*
D02*
G37*
G36*
X232000D02*
X231220Y141634D01*
X230558Y141192D01*
X230116Y140530D01*
X229961Y139750D01*
X230116Y138969D01*
X230558Y138308D01*
X231220Y137866D01*
X232000Y137710D01*
X232780Y137866D01*
X233442Y138308D01*
X233884Y138969D01*
X234039Y139750D01*
X233884Y140530D01*
X233442Y141192D01*
X232780Y141634D01*
X232000Y141789D01*
D02*
G37*
G36*
X240000Y133789D02*
X239220Y133634D01*
X238558Y133191D01*
X238116Y132530D01*
X237961Y131750D01*
X238116Y130969D01*
X238558Y130308D01*
X239220Y129866D01*
X240000Y129710D01*
X240780Y129866D01*
X241442Y130308D01*
X241884Y130969D01*
X242039Y131750D01*
X241884Y132530D01*
X241442Y133191D01*
X240780Y133634D01*
X240000Y133789D01*
D02*
G37*
G36*
X232000D02*
X231220Y133634D01*
X230558Y133191D01*
X230116Y132530D01*
X229961Y131750D01*
X230116Y130969D01*
X230558Y130308D01*
X231220Y129866D01*
X232000Y129710D01*
X232780Y129866D01*
X233442Y130308D01*
X233884Y130969D01*
X234039Y131750D01*
X233884Y132530D01*
X233442Y133191D01*
X232780Y133634D01*
X232000Y133789D01*
D02*
G37*
G36*
X185750Y129789D02*
X184970Y129634D01*
X184308Y129192D01*
X183866Y128530D01*
X183711Y127750D01*
X183866Y126970D01*
X184308Y126308D01*
X184970Y125866D01*
X185750Y125711D01*
X186530Y125866D01*
X187192Y126308D01*
X187634Y126970D01*
X187789Y127750D01*
X187634Y128530D01*
X187192Y129192D01*
X186530Y129634D01*
X185750Y129789D01*
D02*
G37*
G36*
X193759Y112545D02*
X192979Y112389D01*
X192318Y111947D01*
X191875Y111286D01*
X191720Y110505D01*
X191875Y109725D01*
X192318Y109064D01*
X192979Y108621D01*
X193759Y108466D01*
X194540Y108621D01*
X195201Y109064D01*
X195643Y109725D01*
X195799Y110505D01*
X195643Y111286D01*
X195201Y111947D01*
X194540Y112389D01*
X193759Y112545D01*
D02*
G37*
G36*
X234000Y112039D02*
X233220Y111884D01*
X232558Y111442D01*
X232116Y110780D01*
X231961Y110000D01*
X232116Y109220D01*
X232558Y108558D01*
X233220Y108116D01*
X234000Y107961D01*
X234780Y108116D01*
X235442Y108558D01*
X235884Y109220D01*
X236039Y110000D01*
X235884Y110780D01*
X235442Y111442D01*
X234780Y111884D01*
X234000Y112039D01*
D02*
G37*
G36*
X184250Y108289D02*
X183470Y108134D01*
X182808Y107692D01*
X182366Y107030D01*
X182211Y106250D01*
X182366Y105470D01*
X182808Y104808D01*
X183470Y104366D01*
X184250Y104211D01*
X185030Y104366D01*
X185692Y104808D01*
X186134Y105470D01*
X186289Y106250D01*
X186134Y107030D01*
X185692Y107692D01*
X185030Y108134D01*
X184250Y108289D01*
D02*
G37*
G36*
X189750Y104289D02*
X188969Y104134D01*
X188308Y103692D01*
X187866Y103030D01*
X187710Y102250D01*
X187866Y101470D01*
X188308Y100808D01*
X188969Y100366D01*
X189750Y100211D01*
X190530Y100366D01*
X191192Y100808D01*
X191634Y101470D01*
X191789Y102250D01*
X191634Y103030D01*
X191192Y103692D01*
X190530Y104134D01*
X189750Y104289D01*
D02*
G37*
G36*
X188250Y89789D02*
X187470Y89634D01*
X186808Y89192D01*
X186366Y88530D01*
X186211Y87750D01*
X186366Y86970D01*
X186808Y86308D01*
X187470Y85866D01*
X188250Y85711D01*
X189030Y85866D01*
X189692Y86308D01*
X190134Y86970D01*
X190289Y87750D01*
X190134Y88530D01*
X189692Y89192D01*
X189030Y89634D01*
X188250Y89789D01*
D02*
G37*
G36*
X190500Y72539D02*
X189720Y72384D01*
X189058Y71942D01*
X188616Y71280D01*
X188461Y70500D01*
X188616Y69720D01*
X189058Y69058D01*
X189720Y68616D01*
X190500Y68461D01*
X191280Y68616D01*
X191942Y69058D01*
X192384Y69720D01*
X192539Y70500D01*
X192384Y71280D01*
X191942Y71942D01*
X191280Y72384D01*
X190500Y72539D01*
D02*
G37*
G36*
X190750Y59039D02*
X189970Y58884D01*
X189308Y58442D01*
X188866Y57780D01*
X188711Y57000D01*
X188866Y56220D01*
X189308Y55558D01*
X189970Y55116D01*
X190750Y54961D01*
X191530Y55116D01*
X192192Y55558D01*
X192634Y56220D01*
X192789Y57000D01*
X192634Y57780D01*
X192192Y58442D01*
X191530Y58884D01*
X190750Y59039D01*
D02*
G37*
G36*
X200000Y53789D02*
X199220Y53633D01*
X198558Y53191D01*
X198116Y52530D01*
X197961Y51750D01*
X198116Y50969D01*
X198558Y50308D01*
X199220Y49866D01*
X200000Y49710D01*
X200780Y49866D01*
X201442Y50308D01*
X201884Y50969D01*
X202039Y51750D01*
X201884Y52530D01*
X201442Y53191D01*
X200780Y53633D01*
X200000Y53789D01*
D02*
G37*
G36*
X198000Y43289D02*
X197220Y43134D01*
X196558Y42692D01*
X196116Y42030D01*
X195961Y41250D01*
X196116Y40470D01*
X196558Y39808D01*
X197220Y39366D01*
X198000Y39211D01*
X198780Y39366D01*
X199442Y39808D01*
X199884Y40470D01*
X200039Y41250D01*
X199884Y42030D01*
X199442Y42692D01*
X198780Y43134D01*
X198000Y43289D01*
D02*
G37*
G36*
X200000Y37789D02*
X199220Y37634D01*
X198558Y37192D01*
X198116Y36530D01*
X197961Y35750D01*
X198116Y34969D01*
X198558Y34308D01*
X199220Y33866D01*
X200000Y33710D01*
X200780Y33866D01*
X201442Y34308D01*
X201884Y34969D01*
X202039Y35750D01*
X201884Y36530D01*
X201442Y37192D01*
X200780Y37634D01*
X200000Y37789D01*
D02*
G37*
G36*
X192000Y37789D02*
X191220Y37634D01*
X190558Y37192D01*
X190116Y36530D01*
X189961Y35750D01*
X190116Y34969D01*
X190558Y34308D01*
X191220Y33866D01*
X192000Y33710D01*
X192780Y33866D01*
X193442Y34308D01*
X193884Y34969D01*
X194039Y35750D01*
X193884Y36530D01*
X193442Y37192D01*
X192780Y37634D01*
X192000Y37789D01*
D02*
G37*
G36*
X200000Y21789D02*
X199220Y21634D01*
X198558Y21191D01*
X198116Y20530D01*
X197961Y19750D01*
X198116Y18969D01*
X198558Y18308D01*
X199220Y17866D01*
X200000Y17710D01*
X200780Y17866D01*
X201442Y18308D01*
X201884Y18969D01*
X202039Y19750D01*
X201884Y20530D01*
X201442Y21191D01*
X200780Y21634D01*
X200000Y21789D01*
D02*
G37*
G36*
X192000D02*
X191220Y21634D01*
X190558Y21191D01*
X190116Y20530D01*
X189961Y19750D01*
X190116Y18969D01*
X190558Y18308D01*
X191220Y17866D01*
X192000Y17710D01*
X192780Y17866D01*
X193442Y18308D01*
X193884Y18969D01*
X194039Y19750D01*
X193884Y20530D01*
X193442Y21191D01*
X192780Y21634D01*
X192000Y21789D01*
D02*
G37*
G36*
X176500Y23059D02*
X175329Y22826D01*
X174337Y22163D01*
X173674Y21170D01*
X173441Y20000D01*
X173674Y18829D01*
X174337Y17837D01*
X175329Y17174D01*
X176500Y16941D01*
X177670Y17174D01*
X178663Y17837D01*
X179326Y18829D01*
X179559Y20000D01*
X179326Y21170D01*
X178663Y22163D01*
X177670Y22826D01*
X176500Y23059D01*
D02*
G37*
G36*
X202000Y12039D02*
X201220Y11884D01*
X200558Y11442D01*
X200116Y10780D01*
X199961Y10000D01*
X200116Y9220D01*
X200558Y8558D01*
X201220Y8116D01*
X202000Y7961D01*
X202780Y8116D01*
X203442Y8558D01*
X203884Y9220D01*
X204039Y10000D01*
X203884Y10780D01*
X203442Y11442D01*
X202780Y11884D01*
X202000Y12039D01*
D02*
G37*
G36*
X169750Y146539D02*
X168970Y146384D01*
X168308Y145942D01*
X167866Y145280D01*
X167711Y144500D01*
X167866Y143720D01*
X168308Y143058D01*
X168970Y142616D01*
X169750Y142461D01*
X170530Y142616D01*
X171192Y143058D01*
X171634Y143720D01*
X171789Y144500D01*
X171634Y145280D01*
X171192Y145942D01*
X170530Y146384D01*
X169750Y146539D01*
D02*
G37*
G36*
X151007Y142056D02*
X150032Y141862D01*
X149205Y141309D01*
X148652Y140482D01*
X148458Y139507D01*
X148652Y138531D01*
X149205Y137704D01*
X150032Y137152D01*
X151007Y136958D01*
X151983Y137152D01*
X152810Y137704D01*
X152955Y137922D01*
X153810Y138415D01*
X154565Y138219D01*
X154720Y138116D01*
X155500Y137961D01*
X156280Y138116D01*
X156942Y138558D01*
X157384Y139220D01*
X157539Y140000D01*
X157384Y140780D01*
X156942Y141442D01*
X156280Y141884D01*
X155500Y142039D01*
X154720Y141884D01*
X154190Y141530D01*
X154058Y141442D01*
X154058Y141442D01*
X153720Y141406D01*
X152558Y141477D01*
X151983Y141862D01*
X151007Y142056D01*
D02*
G37*
G36*
X165750Y137789D02*
X164970Y137634D01*
X164308Y137192D01*
X163866Y136530D01*
X163762Y136006D01*
X163197Y135504D01*
X162528Y135184D01*
X162000Y135289D01*
X161220Y135134D01*
X160558Y134692D01*
X160116Y134030D01*
X159961Y133250D01*
X160116Y132470D01*
X160558Y131808D01*
X161220Y131366D01*
X162000Y131211D01*
X162780Y131366D01*
X163442Y131808D01*
X163884Y132470D01*
X163988Y132994D01*
X164553Y133496D01*
X165222Y133816D01*
X165750Y133711D01*
X166530Y133866D01*
X167192Y134308D01*
X167634Y134970D01*
X167789Y135750D01*
X167634Y136530D01*
X167192Y137192D01*
X166530Y137634D01*
X165750Y137789D01*
D02*
G37*
G36*
X170250Y134789D02*
X169470Y134634D01*
X168808Y134192D01*
X168366Y133530D01*
X168211Y132750D01*
X168366Y131970D01*
X168808Y131308D01*
X169282Y130991D01*
X169298Y130228D01*
X169148Y129670D01*
X168970Y129634D01*
X168308Y129192D01*
X167866Y128530D01*
X167711Y127750D01*
X167866Y126970D01*
X168308Y126308D01*
X168970Y125866D01*
X169750Y125711D01*
X170530Y125866D01*
X171192Y126308D01*
X171634Y126970D01*
X171789Y127750D01*
X171634Y128530D01*
X171192Y129192D01*
X170718Y129509D01*
X170702Y130272D01*
X170852Y130830D01*
X171030Y130866D01*
X171692Y131308D01*
X172134Y131970D01*
X172289Y132750D01*
X172134Y133530D01*
X171692Y134192D01*
X171030Y134634D01*
X170250Y134789D01*
D02*
G37*
G36*
X161750Y129789D02*
X160970Y129634D01*
X160308Y129192D01*
X159866Y128530D01*
X159711Y127750D01*
X159866Y126970D01*
X160308Y126308D01*
X160970Y125866D01*
X161750Y125711D01*
X162530Y125866D01*
X163192Y126308D01*
X163634Y126970D01*
X163789Y127750D01*
X163634Y128530D01*
X163192Y129192D01*
X162530Y129634D01*
X161750Y129789D01*
D02*
G37*
G36*
X153750Y129039D02*
X152970Y128884D01*
X152308Y128442D01*
X151866Y127780D01*
X151711Y127000D01*
X151866Y126220D01*
X152308Y125558D01*
X152970Y125116D01*
X153750Y124961D01*
X154530Y125116D01*
X155192Y125558D01*
X155634Y126220D01*
X155789Y127000D01*
X155634Y127780D01*
X155192Y128442D01*
X154530Y128884D01*
X153750Y129039D01*
D02*
G37*
G36*
X161750Y121789D02*
X160970Y121634D01*
X160308Y121192D01*
X159866Y120530D01*
X159711Y119750D01*
X159866Y118970D01*
X160308Y118308D01*
X160970Y117866D01*
X161750Y117711D01*
X162530Y117866D01*
X163192Y118308D01*
X163634Y118970D01*
X163789Y119750D01*
X163634Y120530D01*
X163192Y121192D01*
X162530Y121634D01*
X161750Y121789D01*
D02*
G37*
G36*
X153750D02*
X152970Y121634D01*
X152308Y121192D01*
X151866Y120530D01*
X151711Y119750D01*
X151866Y118970D01*
X152308Y118308D01*
X152970Y117866D01*
X153750Y117711D01*
X154530Y117866D01*
X155192Y118308D01*
X155634Y118970D01*
X155789Y119750D01*
X155634Y120530D01*
X155192Y121192D01*
X154530Y121634D01*
X153750Y121789D01*
D02*
G37*
G36*
X137750D02*
X136970Y121634D01*
X136308Y121192D01*
X135866Y120530D01*
X135711Y119750D01*
X135866Y118970D01*
X136308Y118308D01*
X136970Y117866D01*
X137750Y117711D01*
X138530Y117866D01*
X139192Y118308D01*
X139634Y118970D01*
X139789Y119750D01*
X139634Y120530D01*
X139192Y121192D01*
X138530Y121634D01*
X137750Y121789D01*
D02*
G37*
G36*
X130250Y108539D02*
X129470Y108384D01*
X128808Y107942D01*
X128366Y107280D01*
X128211Y106500D01*
X128366Y105720D01*
X128808Y105058D01*
X129470Y104616D01*
X130250Y104461D01*
X131030Y104616D01*
X131692Y105058D01*
X132134Y105720D01*
X132289Y106500D01*
X132134Y107280D01*
X131692Y107942D01*
X131030Y108384D01*
X130250Y108539D01*
D02*
G37*
G36*
X158250Y108289D02*
X157470Y108134D01*
X156808Y107692D01*
X156366Y107030D01*
X156211Y106250D01*
X156366Y105470D01*
X156808Y104808D01*
X157470Y104366D01*
X158250Y104211D01*
X159030Y104366D01*
X159692Y104808D01*
X160134Y105470D01*
X160289Y106250D01*
X160134Y107030D01*
X159692Y107692D01*
X159030Y108134D01*
X158250Y108289D01*
D02*
G37*
G36*
X126700Y83728D02*
X125139Y83418D01*
X123816Y82534D01*
X122932Y81211D01*
X122622Y79650D01*
X122932Y78089D01*
X123816Y76766D01*
X125139Y75882D01*
X126700Y75572D01*
X128261Y75882D01*
X129584Y76766D01*
X130468Y78089D01*
X130778Y79650D01*
X130468Y81211D01*
X129584Y82534D01*
X128261Y83418D01*
X126700Y83728D01*
D02*
G37*
G36*
X158250Y62039D02*
X157470Y61884D01*
X156808Y61442D01*
X156366Y60780D01*
X156211Y60000D01*
X156366Y59220D01*
X156808Y58558D01*
X157470Y58116D01*
X158250Y57961D01*
X159030Y58116D01*
X159692Y58558D01*
X160134Y59220D01*
X160289Y60000D01*
X160134Y60780D01*
X159692Y61442D01*
X159030Y61884D01*
X158250Y62039D01*
D02*
G37*
G36*
Y55039D02*
X157470Y54884D01*
X156808Y54442D01*
X156366Y53780D01*
X156211Y53000D01*
X156366Y52220D01*
X156808Y51558D01*
X157470Y51116D01*
X158250Y50961D01*
X159030Y51116D01*
X159692Y51558D01*
X160134Y52220D01*
X160289Y53000D01*
X160134Y53780D01*
X159692Y54442D01*
X159030Y54884D01*
X158250Y55039D01*
D02*
G37*
G36*
X152100Y45628D02*
X150539Y45318D01*
X149216Y44434D01*
X148332Y43111D01*
X148022Y41550D01*
X148332Y39989D01*
X149216Y38666D01*
X150539Y37782D01*
X152100Y37472D01*
X153661Y37782D01*
X154984Y38666D01*
X155868Y39989D01*
X156178Y41550D01*
X155868Y43111D01*
X154984Y44434D01*
X153661Y45318D01*
X152100Y45628D01*
D02*
G37*
G36*
X164800Y30889D02*
X164020Y30734D01*
X163358Y30292D01*
X162916Y29630D01*
X162761Y28850D01*
X162916Y28070D01*
X163358Y27408D01*
X164020Y26966D01*
X164800Y26811D01*
X165580Y26966D01*
X166242Y27408D01*
X166684Y28070D01*
X166839Y28850D01*
X166684Y29630D01*
X166242Y30292D01*
X165580Y30734D01*
X164800Y30889D01*
D02*
G37*
G36*
X126700D02*
X125920Y30734D01*
X125258Y30292D01*
X124816Y29630D01*
X124661Y28850D01*
X124816Y28070D01*
X125258Y27408D01*
X125920Y26966D01*
X126700Y26811D01*
X127480Y26966D01*
X128142Y27408D01*
X128584Y28070D01*
X128739Y28850D01*
X128584Y29630D01*
X128142Y30292D01*
X127480Y30734D01*
X126700Y30889D01*
D02*
G37*
G36*
X126000Y11289D02*
X125220Y11134D01*
X124558Y10692D01*
X124116Y10030D01*
X123961Y9250D01*
X124116Y8470D01*
X124558Y7808D01*
X125220Y7366D01*
X126000Y7211D01*
X126780Y7366D01*
X127442Y7808D01*
X127884Y8470D01*
X128039Y9250D01*
X127884Y10030D01*
X127442Y10692D01*
X126780Y11134D01*
X126000Y11289D01*
D02*
G37*
G36*
X164000Y11289D02*
X163220Y11134D01*
X162558Y10692D01*
X162116Y10030D01*
X161961Y9250D01*
X162116Y8470D01*
X162558Y7808D01*
X163220Y7366D01*
X164000Y7211D01*
X164780Y7366D01*
X165442Y7808D01*
X165884Y8470D01*
X166039Y9250D01*
X165884Y10030D01*
X165442Y10692D01*
X164780Y11134D01*
X164000Y11289D01*
D02*
G37*
G36*
X270750Y148289D02*
X269970Y148134D01*
X269308Y147692D01*
X268866Y147030D01*
X268711Y146250D01*
X268866Y145470D01*
X269308Y144808D01*
X269970Y144366D01*
X270750Y144211D01*
X271530Y144366D01*
X272192Y144808D01*
X272634Y145470D01*
X272789Y146250D01*
X272634Y147030D01*
X272192Y147692D01*
X271530Y148134D01*
X270750Y148289D01*
D02*
G37*
G36*
X271500Y135289D02*
X270720Y135134D01*
X270058Y134692D01*
X269616Y134030D01*
X269461Y133250D01*
X269616Y132470D01*
X270058Y131808D01*
X270720Y131366D01*
X271500Y131211D01*
X272280Y131366D01*
X272942Y131808D01*
X273384Y132470D01*
X273539Y133250D01*
X273384Y134030D01*
X272942Y134692D01*
X272280Y135134D01*
X271500Y135289D01*
D02*
G37*
G36*
X257250Y108289D02*
X256470Y108134D01*
X255808Y107692D01*
X255366Y107030D01*
X255211Y106250D01*
X255366Y105470D01*
X255808Y104808D01*
X256470Y104366D01*
X257250Y104211D01*
X258030Y104366D01*
X258692Y104808D01*
X259134Y105470D01*
X259289Y106250D01*
X259134Y107030D01*
X258692Y107692D01*
X258030Y108134D01*
X257250Y108289D01*
D02*
G37*
G36*
X257250Y101789D02*
X256470Y101634D01*
X255808Y101192D01*
X255366Y100530D01*
X255211Y99750D01*
X255366Y98970D01*
X255808Y98308D01*
X256470Y97866D01*
X257250Y97711D01*
X258030Y97866D01*
X258692Y98308D01*
X259134Y98970D01*
X259289Y99750D01*
X259134Y100530D01*
X258692Y101192D01*
X258030Y101634D01*
X257250Y101789D01*
D02*
G37*
G36*
X245012Y97794D02*
X244232Y97639D01*
X243570Y97197D01*
X243128Y96535D01*
X242973Y95755D01*
X243128Y94974D01*
X243570Y94313D01*
X244232Y93871D01*
X245012Y93715D01*
X245792Y93871D01*
X246454Y94313D01*
X246896Y94974D01*
X247051Y95755D01*
X246896Y96535D01*
X246454Y97197D01*
X245792Y97639D01*
X245012Y97794D01*
D02*
G37*
G36*
X257250Y95289D02*
X256470Y95134D01*
X255808Y94692D01*
X255366Y94030D01*
X255211Y93250D01*
X255366Y92470D01*
X255808Y91808D01*
X256470Y91366D01*
X257250Y91211D01*
X258030Y91366D01*
X258692Y91808D01*
X259134Y92470D01*
X259289Y93250D01*
X259134Y94030D01*
X258692Y94692D01*
X258030Y95134D01*
X257250Y95289D01*
D02*
G37*
G36*
X237250Y90039D02*
X236470Y89884D01*
X235808Y89442D01*
X235366Y88780D01*
X235211Y88000D01*
X235366Y87220D01*
X235808Y86558D01*
X236470Y86116D01*
X237250Y85961D01*
X238030Y86116D01*
X238692Y86558D01*
X239134Y87220D01*
X239289Y88000D01*
X239134Y88780D01*
X238692Y89442D01*
X238030Y89884D01*
X237250Y90039D01*
D02*
G37*
G36*
X250250Y89195D02*
X249470Y89040D01*
X248808Y88598D01*
X248366Y87937D01*
X248211Y87156D01*
X248366Y86376D01*
X248808Y85714D01*
X249470Y85272D01*
X250250Y85117D01*
X251030Y85272D01*
X251692Y85714D01*
X252134Y86376D01*
X252289Y87156D01*
X252134Y87937D01*
X251692Y88598D01*
X251030Y89040D01*
X250250Y89195D01*
D02*
G37*
G36*
X232000Y85789D02*
X231220Y85633D01*
X230558Y85191D01*
X230116Y84530D01*
X229961Y83750D01*
X230116Y82969D01*
X230558Y82308D01*
X231220Y81866D01*
X232000Y81710D01*
X232780Y81866D01*
X233442Y82308D01*
X233884Y82969D01*
X234039Y83750D01*
X233884Y84530D01*
X233442Y85191D01*
X232780Y85633D01*
X232000Y85789D01*
D02*
G37*
G36*
X257250Y82289D02*
X256470Y82134D01*
X255808Y81692D01*
X255366Y81030D01*
X255211Y80250D01*
X255366Y79470D01*
X255808Y78808D01*
X256470Y78366D01*
X257250Y78211D01*
X258030Y78366D01*
X258692Y78808D01*
X259134Y79470D01*
X259289Y80250D01*
X259134Y81030D01*
X258692Y81692D01*
X258030Y82134D01*
X257250Y82289D01*
D02*
G37*
G36*
X240000Y77789D02*
X239220Y77634D01*
X238558Y77192D01*
X238116Y76530D01*
X237961Y75750D01*
X238116Y74969D01*
X238558Y74308D01*
X239220Y73866D01*
X240000Y73710D01*
X240780Y73866D01*
X241442Y74308D01*
X241884Y74969D01*
X242039Y75750D01*
X241884Y76530D01*
X241442Y77192D01*
X240780Y77634D01*
X240000Y77789D01*
D02*
G37*
G36*
X232000D02*
X231220Y77634D01*
X230558Y77192D01*
X230116Y76530D01*
X229961Y75750D01*
X230116Y74969D01*
X230558Y74308D01*
X231220Y73866D01*
X232000Y73710D01*
X232780Y73866D01*
X233442Y74308D01*
X233884Y74969D01*
X234039Y75750D01*
X233884Y76530D01*
X233442Y77192D01*
X232780Y77634D01*
X232000Y77789D01*
D02*
G37*
G36*
X237750Y63789D02*
X236970Y63634D01*
X236308Y63192D01*
X235692D01*
X235030Y63634D01*
X234250Y63789D01*
X233470Y63634D01*
X232808Y63192D01*
X232366Y62530D01*
X232211Y61750D01*
X232366Y60970D01*
X232808Y60308D01*
X233470Y59866D01*
X234250Y59711D01*
X235030Y59866D01*
X235692Y60308D01*
X236308D01*
X236970Y59866D01*
X237750Y59711D01*
X238530Y59866D01*
X239192Y60308D01*
X239634Y60970D01*
X239789Y61750D01*
X239634Y62530D01*
X239192Y63192D01*
X238530Y63634D01*
X237750Y63789D01*
D02*
G37*
G36*
X243500Y59289D02*
X242720Y59134D01*
X242058Y58692D01*
X241616Y58030D01*
X241461Y57250D01*
X241616Y56470D01*
X242058Y55808D01*
X242720Y55366D01*
X243500Y55211D01*
X244280Y55366D01*
X244942Y55808D01*
X245384Y56470D01*
X245539Y57250D01*
X245384Y58030D01*
X244942Y58692D01*
X244280Y59134D01*
X243500Y59289D01*
D02*
G37*
G36*
X244262Y51542D02*
X243482Y51386D01*
X242820Y50944D01*
X242378Y50283D01*
X242223Y49502D01*
X242378Y48722D01*
X242820Y48060D01*
X243482Y47618D01*
X244262Y47463D01*
X245042Y47618D01*
X245704Y48060D01*
X246146Y48722D01*
X246301Y49502D01*
X246146Y50283D01*
X245704Y50944D01*
X245042Y51386D01*
X244262Y51542D01*
D02*
G37*
%LPD*%
D33*
X16200Y-6500D02*
X21900D01*
X28900D02*
X34600D01*
X41600D02*
X47300D01*
X54300D02*
X60000D01*
X67000D02*
X72700D01*
X79700D02*
X85400D01*
X92400D02*
X98100D01*
X105100D02*
X110800D01*
X117800D02*
X123500D01*
X130500D02*
X136200D01*
X143200D02*
X148900D01*
X155900D02*
X161600D01*
X168600D02*
X174300D01*
X181300D02*
X187000D01*
X194000D02*
X199700D01*
X206700D02*
X212400D01*
X219400D02*
X225100D01*
X231846D02*
X237546D01*
X244546D02*
X250246D01*
X257246D02*
X262946D01*
X285900Y257246D02*
Y262946D01*
X285900Y250246D02*
X285900Y244546D01*
Y231846D02*
Y237546D01*
Y219400D02*
Y225100D01*
X285900Y212400D02*
X285900Y206700D01*
Y194000D02*
Y199700D01*
Y181300D02*
Y187000D01*
X285900Y168600D02*
X285900Y174300D01*
Y155900D02*
Y161600D01*
X285900Y148900D02*
X285900Y143200D01*
Y130500D02*
Y136200D01*
Y117800D02*
Y123500D01*
X285900Y105100D02*
X285900Y110800D01*
Y92400D02*
Y98100D01*
X285900Y85400D02*
X285900Y79700D01*
Y67000D02*
Y72700D01*
Y54300D02*
Y60000D01*
X285900Y41600D02*
Y47300D01*
X285900Y28900D02*
Y34600D01*
X285900Y21900D02*
X285900Y16200D01*
X16454Y285900D02*
X22154D01*
X29154Y285900D02*
X34854Y285900D01*
X41854D02*
X47554D01*
X54300D02*
X60000D01*
X67000Y285900D02*
X72700Y285900D01*
X79700D02*
X85400D01*
X92400D02*
X98100D01*
X105100D02*
X110800Y285900D01*
X117800Y285900D02*
X123500D01*
X130500Y285900D02*
X136200Y285900D01*
X143200D02*
X148900D01*
X155900D02*
X161600D01*
X168600D02*
X174300Y285900D01*
X181300Y285900D02*
X187000D01*
X194000Y285900D02*
X199700Y285900D01*
X206700D02*
X212400D01*
X219400D02*
X225100D01*
X232100Y285900D02*
X237800D01*
X244800Y285900D02*
X250500D01*
X257500Y285900D02*
X263200Y285900D01*
X-6500Y16454D02*
Y22154D01*
Y34854D02*
X-6500Y29154D01*
X-6500Y41854D02*
Y47554D01*
Y54300D02*
Y60000D01*
Y72700D02*
X-6500Y67000D01*
X-6500Y79700D02*
Y85400D01*
Y92400D02*
Y98100D01*
Y105100D02*
X-6500Y110800D01*
X-6500Y117800D02*
Y123500D01*
Y136200D02*
X-6500Y130500D01*
X-6500Y143200D02*
Y148900D01*
Y155900D02*
Y161600D01*
Y168600D02*
X-6500Y174300D01*
X-6500Y181300D02*
Y187000D01*
Y199700D02*
X-6500Y194000D01*
X-6500Y206700D02*
Y212400D01*
Y219400D02*
Y225100D01*
X-6500Y232100D02*
Y237800D01*
X-6500Y244800D02*
Y250500D01*
Y263200D02*
X-6500Y257500D01*
X-6500Y269946D02*
Y285900D01*
X9454D01*
X285900Y269946D02*
Y285900D01*
X269946D02*
X285900D01*
X269946Y-6500D02*
X285900D01*
Y9454D01*
X-6500D02*
X9454Y-6500D01*
X-11176Y137160D02*
Y142240D01*
X-10470Y142946D02*
X-6500D01*
X-10470Y136454D02*
X-6500D01*
X-11176Y142240D02*
X-10470Y142946D01*
X-11176Y137160D02*
X-10470Y136454D01*
X-11176Y124460D02*
Y129540D01*
X-10470Y130246D02*
X-6500D01*
X-10470Y123754D02*
X-6500D01*
X-11176Y129540D02*
X-10470Y130246D01*
X-11176Y124460D02*
X-10470Y123754D01*
X-11176Y111760D02*
Y116840D01*
X-10470Y117546D02*
X-6500D01*
X-10470Y111054D02*
X-6500D01*
X-11176Y116840D02*
X-10470Y117546D01*
X-11176Y111760D02*
X-10470Y111054D01*
X-11176Y99060D02*
Y104140D01*
X-10470Y104846D02*
X-6500D01*
X-10470Y98354D02*
X-6500D01*
X-11176Y104140D02*
X-10470Y104846D01*
X-11176Y99060D02*
X-10470Y98354D01*
X-11176Y86360D02*
Y91440D01*
X-10470Y92146D02*
X-6500D01*
X-10470Y85654D02*
X-6500D01*
X-11176Y91440D02*
X-10470Y92146D01*
X-11176Y86360D02*
X-10470Y85654D01*
X-11176Y73660D02*
Y78740D01*
X-10470Y79446D02*
X-6500D01*
X-10470Y72954D02*
X-6500D01*
X-11176Y78740D02*
X-10470Y79446D01*
X-11176Y73660D02*
X-10470Y72954D01*
X-11176Y60960D02*
Y66040D01*
X-10470Y66746D02*
X-6500D01*
X-10470Y60254D02*
X-6500D01*
X-11176Y66040D02*
X-10470Y66746D01*
X-11176Y60960D02*
X-10470Y60254D01*
X-11176Y48260D02*
Y53340D01*
X-10470Y54046D02*
X-6500D01*
X-10470Y47554D02*
X-6500D01*
X-11176Y53340D02*
X-10470Y54046D01*
X-11176Y48260D02*
X-10470Y47554D01*
X-11176Y35560D02*
Y40640D01*
X-10470Y41346D02*
X-6500D01*
X-10470Y34854D02*
X-6500D01*
X-11176Y40640D02*
X-10470Y41346D01*
X-11176Y35560D02*
X-10470Y34854D01*
X-11176Y22860D02*
Y27940D01*
X-10470Y28646D02*
X-6500D01*
X-10470Y22154D02*
X-6500D01*
X-11176Y27940D02*
X-10470Y28646D01*
X-11176Y22860D02*
X-10470Y22154D01*
X-11176Y10160D02*
Y15240D01*
X-10470Y15946D02*
X-6500D01*
X-10470Y9454D02*
X-6500D01*
X-11176Y15240D02*
X-10470Y15946D01*
X-11176Y10160D02*
X-10470Y9454D01*
X10160Y-11176D02*
X15240D01*
X9454Y-10470D02*
Y-6500D01*
X15946Y-10470D02*
Y-6500D01*
X9454Y-10470D02*
X10160Y-11176D01*
X15240D02*
X15946Y-10470D01*
X22860Y-11176D02*
X27940D01*
X22154Y-10470D02*
Y-6500D01*
X28646Y-10470D02*
Y-6500D01*
X22154Y-10470D02*
X22860Y-11176D01*
X27940D02*
X28646Y-10470D01*
X35560Y-11176D02*
X40640D01*
X34854Y-10470D02*
Y-6500D01*
X41346Y-10470D02*
Y-6500D01*
X34854Y-10470D02*
X35560Y-11176D01*
X40640D02*
X41346Y-10470D01*
X48260Y-11176D02*
X53340D01*
X47554Y-10470D02*
Y-6500D01*
X54046Y-10470D02*
Y-6500D01*
X47554Y-10470D02*
X48260Y-11176D01*
X53340D02*
X54046Y-10470D01*
X60960Y-11176D02*
X66040D01*
X60254Y-10470D02*
Y-6500D01*
X66746Y-10470D02*
Y-6500D01*
X60254Y-10470D02*
X60960Y-11176D01*
X66040D02*
X66746Y-10470D01*
X73660Y-11176D02*
X78740D01*
X72954Y-10470D02*
Y-6500D01*
X79446Y-10470D02*
Y-6500D01*
X72954Y-10470D02*
X73660Y-11176D01*
X78740D02*
X79446Y-10470D01*
X86360Y-11176D02*
X91440D01*
X85654Y-10470D02*
Y-6500D01*
X92146Y-10470D02*
Y-6500D01*
X85654Y-10470D02*
X86360Y-11176D01*
X91440D02*
X92146Y-10470D01*
X99060Y-11176D02*
X104140D01*
X98354Y-10470D02*
Y-6500D01*
X104846Y-10470D02*
Y-6500D01*
X98354Y-10470D02*
X99060Y-11176D01*
X104140D02*
X104846Y-10470D01*
X111760Y-11176D02*
X116840D01*
X111054Y-10470D02*
Y-6500D01*
X117546Y-10470D02*
Y-6500D01*
X111054Y-10470D02*
X111760Y-11176D01*
X116840D02*
X117546Y-10470D01*
X124460Y-11176D02*
X129540D01*
X123754Y-10470D02*
Y-6500D01*
X130246Y-10470D02*
Y-6500D01*
X123754Y-10470D02*
X124460Y-11176D01*
X129540D02*
X130246Y-10470D01*
X137160Y-11176D02*
X142240D01*
X136454Y-10470D02*
Y-6500D01*
X142946Y-10470D02*
Y-6500D01*
X136454Y-10470D02*
X137160Y-11176D01*
X142240D02*
X142946Y-10470D01*
X149860Y-11176D02*
X154940D01*
X149154Y-10470D02*
Y-6500D01*
X155646Y-10470D02*
Y-6500D01*
X149154Y-10470D02*
X149860Y-11176D01*
X154940D02*
X155646Y-10470D01*
X162560Y-11176D02*
X167640D01*
X161854Y-10470D02*
Y-6500D01*
X168346Y-10470D02*
Y-6500D01*
X161854Y-10470D02*
X162560Y-11176D01*
X167640D02*
X168346Y-10470D01*
X175260Y-11176D02*
X180340D01*
X174554Y-10470D02*
Y-6500D01*
X181046Y-10470D02*
Y-6500D01*
X174554Y-10470D02*
X175260Y-11176D01*
X180340D02*
X181046Y-10470D01*
X187960Y-11176D02*
X193040D01*
X187254Y-10470D02*
Y-6500D01*
X193746Y-10470D02*
Y-6500D01*
X187254Y-10470D02*
X187960Y-11176D01*
X193040D02*
X193746Y-10470D01*
X200660Y-11176D02*
X205740D01*
X199954Y-10470D02*
Y-6500D01*
X206446Y-10470D02*
Y-6500D01*
X199954Y-10470D02*
X200660Y-11176D01*
X205740D02*
X206446Y-10470D01*
X213360Y-11176D02*
X218440D01*
X212654Y-10470D02*
Y-6500D01*
X219146Y-10470D02*
Y-6500D01*
X212654Y-10470D02*
X213360Y-11176D01*
X218440D02*
X219146Y-10470D01*
X226060Y-11176D02*
X231140D01*
X225354Y-10470D02*
Y-6500D01*
X231846Y-10470D02*
Y-6500D01*
X225354Y-10470D02*
X226060Y-11176D01*
X231140D02*
X231846Y-10470D01*
X238760Y-11176D02*
X243840D01*
X238054Y-10470D02*
Y-6500D01*
X244546Y-10470D02*
Y-6500D01*
X238054Y-10470D02*
X238760Y-11176D01*
X243840D02*
X244546Y-10470D01*
X251460Y-11176D02*
X256540D01*
X250754Y-10470D02*
Y-6500D01*
X257246Y-10470D02*
Y-6500D01*
X250754Y-10470D02*
X251460Y-11176D01*
X256540D02*
X257246Y-10470D01*
X264160Y-11176D02*
X269240D01*
X263454Y-10470D02*
Y-6500D01*
X269946Y-10470D02*
Y-6500D01*
X263454Y-10470D02*
X264160Y-11176D01*
X269240D02*
X269946Y-10470D01*
X290576Y10160D02*
Y15240D01*
X285900Y9454D02*
X289870D01*
X285900Y15946D02*
X289870D01*
Y9454D02*
X290576Y10160D01*
X289870Y15946D02*
X290576Y15240D01*
Y22860D02*
Y27940D01*
X285900Y22154D02*
X289870D01*
X285900Y28646D02*
X289870D01*
Y22154D02*
X290576Y22860D01*
X289870Y28646D02*
X290576Y27940D01*
Y35560D02*
Y40640D01*
X285900Y34854D02*
X289870D01*
X285900Y41346D02*
X289870D01*
Y34854D02*
X290576Y35560D01*
X289870Y41346D02*
X290576Y40640D01*
Y48260D02*
Y53340D01*
X285900Y47554D02*
X289870D01*
X285900Y54046D02*
X289870D01*
Y47554D02*
X290576Y48260D01*
X289870Y54046D02*
X290576Y53340D01*
Y60960D02*
Y66040D01*
X285900Y60254D02*
X289870D01*
X285900Y66746D02*
X289870D01*
Y60254D02*
X290576Y60960D01*
X289870Y66746D02*
X290576Y66040D01*
Y73660D02*
Y78740D01*
X285900Y72954D02*
X289870D01*
X285900Y79446D02*
X289870D01*
Y72954D02*
X290576Y73660D01*
X289870Y79446D02*
X290576Y78740D01*
Y86360D02*
Y91440D01*
X285900Y85654D02*
X289870D01*
X285900Y92146D02*
X289870D01*
Y85654D02*
X290576Y86360D01*
X289870Y92146D02*
X290576Y91440D01*
Y99060D02*
Y104140D01*
X285900Y98354D02*
X289870D01*
X285900Y104846D02*
X289870D01*
Y98354D02*
X290576Y99060D01*
X289870Y104846D02*
X290576Y104140D01*
Y111760D02*
Y116840D01*
X285900Y111054D02*
X289870D01*
X285900Y117546D02*
X289870D01*
Y111054D02*
X290576Y111760D01*
X289870Y117546D02*
X290576Y116840D01*
Y124460D02*
Y129540D01*
X285900Y123754D02*
X289870D01*
X285900Y130246D02*
X289870D01*
Y123754D02*
X290576Y124460D01*
X289870Y130246D02*
X290576Y129540D01*
Y137160D02*
Y142240D01*
X285900Y136454D02*
X289870D01*
X285900Y142946D02*
X289870D01*
Y136454D02*
X290576Y137160D01*
X289870Y142946D02*
X290576Y142240D01*
Y149860D02*
Y154940D01*
X285900Y149154D02*
X289870D01*
X285900Y155646D02*
X289870D01*
Y149154D02*
X290576Y149860D01*
X289870Y155646D02*
X290576Y154940D01*
Y162560D02*
Y167640D01*
X285900Y161854D02*
X289870D01*
X285900Y168346D02*
X289870D01*
Y161854D02*
X290576Y162560D01*
X289870Y168346D02*
X290576Y167640D01*
Y175260D02*
Y180340D01*
X285900Y174554D02*
X289870D01*
X285900Y181046D02*
X289870D01*
Y174554D02*
X290576Y175260D01*
X289870Y181046D02*
X290576Y180340D01*
Y187960D02*
Y193040D01*
X285900Y187254D02*
X289870D01*
X285900Y193746D02*
X289870D01*
Y187254D02*
X290576Y187960D01*
X289870Y193746D02*
X290576Y193040D01*
Y200660D02*
Y205740D01*
X285900Y199954D02*
X289870D01*
X285900Y206446D02*
X289870D01*
Y199954D02*
X290576Y200660D01*
X289870Y206446D02*
X290576Y205740D01*
Y213360D02*
Y218440D01*
X285900Y212654D02*
X289870D01*
X285900Y219146D02*
X289870D01*
Y212654D02*
X290576Y213360D01*
X289870Y219146D02*
X290576Y218440D01*
Y226060D02*
Y231140D01*
X285900Y225354D02*
X289870D01*
X285900Y231846D02*
X289870D01*
Y225354D02*
X290576Y226060D01*
X289870Y231846D02*
X290576Y231140D01*
Y238760D02*
Y243840D01*
X285900Y238054D02*
X289870D01*
X285900Y244546D02*
X289870D01*
Y238054D02*
X290576Y238760D01*
X289870Y244546D02*
X290576Y243840D01*
Y251460D02*
Y256540D01*
X285900Y250754D02*
X289870D01*
X285900Y257246D02*
X289870D01*
Y250754D02*
X290576Y251460D01*
X289870Y257246D02*
X290576Y256540D01*
Y264160D02*
Y269240D01*
X285900Y263454D02*
X289870D01*
X285900Y269946D02*
X289870D01*
Y263454D02*
X290576Y264160D01*
X289870Y269946D02*
X290576Y269240D01*
X264160Y290576D02*
X269240D01*
X269946Y285900D02*
Y289870D01*
X263454Y285900D02*
Y289870D01*
X269240Y290576D02*
X269946Y289870D01*
X263454D02*
X264160Y290576D01*
X251460D02*
X256540D01*
X257246Y285900D02*
Y289870D01*
X250754Y285900D02*
Y289870D01*
X256540Y290576D02*
X257246Y289870D01*
X250754D02*
X251460Y290576D01*
X238760D02*
X243840D01*
X244546Y285900D02*
Y289870D01*
X238054Y285900D02*
Y289870D01*
X243840Y290576D02*
X244546Y289870D01*
X238054D02*
X238760Y290576D01*
X226060D02*
X231140D01*
X231846Y285900D02*
Y289870D01*
X225354Y285900D02*
Y289870D01*
X231140Y290576D02*
X231846Y289870D01*
X225354D02*
X226060Y290576D01*
X213360D02*
X218440D01*
X219146Y285900D02*
Y289870D01*
X212654Y285900D02*
Y289870D01*
X218440Y290576D02*
X219146Y289870D01*
X212654D02*
X213360Y290576D01*
X200660D02*
X205740D01*
X206446Y285900D02*
Y289870D01*
X199954Y285900D02*
Y289870D01*
X205740Y290576D02*
X206446Y289870D01*
X199954D02*
X200660Y290576D01*
X187960D02*
X193040D01*
X193746Y285900D02*
Y289870D01*
X187254Y285900D02*
Y289870D01*
X193040Y290576D02*
X193746Y289870D01*
X187254D02*
X187960Y290576D01*
X175260D02*
X180340D01*
X181046Y285900D02*
Y289870D01*
X174554Y285900D02*
Y289870D01*
X180340Y290576D02*
X181046Y289870D01*
X174554D02*
X175260Y290576D01*
X162560D02*
X167640D01*
X168346Y285900D02*
Y289870D01*
X161854Y285900D02*
Y289870D01*
X167640Y290576D02*
X168346Y289870D01*
X161854D02*
X162560Y290576D01*
X149860D02*
X154940D01*
X155646Y285900D02*
Y289870D01*
X149154Y285900D02*
Y289870D01*
X154940Y290576D02*
X155646Y289870D01*
X149154D02*
X149860Y290576D01*
X137160D02*
X142240D01*
X142946Y285900D02*
Y289870D01*
X136454Y285900D02*
Y289870D01*
X142240Y290576D02*
X142946Y289870D01*
X136454D02*
X137160Y290576D01*
X124460D02*
X129540D01*
X130246Y285900D02*
Y289870D01*
X123754Y285900D02*
Y289870D01*
X129540Y290576D02*
X130246Y289870D01*
X123754D02*
X124460Y290576D01*
X111760D02*
X116840D01*
X117546Y285900D02*
Y289870D01*
X111054Y285900D02*
Y289870D01*
X116840Y290576D02*
X117546Y289870D01*
X111054D02*
X111760Y290576D01*
X99060D02*
X104140D01*
X104846Y285900D02*
Y289870D01*
X98354Y285900D02*
Y289870D01*
X104140Y290576D02*
X104846Y289870D01*
X98354D02*
X99060Y290576D01*
X86360D02*
X91440D01*
X92146Y285900D02*
Y289870D01*
X85654Y285900D02*
Y289870D01*
X91440Y290576D02*
X92146Y289870D01*
X85654D02*
X86360Y290576D01*
X73660D02*
X78740D01*
X79446Y285900D02*
Y289870D01*
X72954Y285900D02*
Y289870D01*
X78740Y290576D02*
X79446Y289870D01*
X72954D02*
X73660Y290576D01*
X60960D02*
X66040D01*
X66746Y285900D02*
Y289870D01*
X60254Y285900D02*
Y289870D01*
X66040Y290576D02*
X66746Y289870D01*
X60254D02*
X60960Y290576D01*
X48260D02*
X53340D01*
X54046Y285900D02*
Y289870D01*
X47554Y285900D02*
Y289870D01*
X53340Y290576D02*
X54046Y289870D01*
X47554D02*
X48260Y290576D01*
X35560D02*
X40640D01*
X41346Y285900D02*
Y289870D01*
X34854Y285900D02*
Y289870D01*
X40640Y290576D02*
X41346Y289870D01*
X34854D02*
X35560Y290576D01*
X22860D02*
X27940D01*
X28646Y285900D02*
Y289870D01*
X22154Y285900D02*
Y289870D01*
X27940Y290576D02*
X28646Y289870D01*
X22154D02*
X22860Y290576D01*
X10160D02*
X15240D01*
X15946Y285900D02*
Y289870D01*
X9454Y285900D02*
Y289870D01*
X15240Y290576D02*
X15946Y289870D01*
X9454D02*
X10160Y290576D01*
X-11176Y264160D02*
Y269240D01*
X-10470Y269946D02*
X-6500D01*
X-10470Y263454D02*
X-6500D01*
X-11176Y269240D02*
X-10470Y269946D01*
X-11176Y264160D02*
X-10470Y263454D01*
X-11176Y251460D02*
Y256540D01*
X-10470Y257246D02*
X-6500D01*
X-10470Y250754D02*
X-6500D01*
X-11176Y256540D02*
X-10470Y257246D01*
X-11176Y251460D02*
X-10470Y250754D01*
X-11176Y238760D02*
Y243840D01*
X-10470Y244546D02*
X-6500D01*
X-10470Y238054D02*
X-6500D01*
X-11176Y243840D02*
X-10470Y244546D01*
X-11176Y238760D02*
X-10470Y238054D01*
X-11176Y226060D02*
Y231140D01*
X-10470Y231846D02*
X-6500D01*
X-10470Y225354D02*
X-6500D01*
X-11176Y231140D02*
X-10470Y231846D01*
X-11176Y226060D02*
X-10470Y225354D01*
X-11176Y213360D02*
Y218440D01*
X-10470Y219146D02*
X-6500D01*
X-10470Y212654D02*
X-6500D01*
X-11176Y218440D02*
X-10470Y219146D01*
X-11176Y213360D02*
X-10470Y212654D01*
X-11176Y200660D02*
Y205740D01*
X-10470Y206446D02*
X-6500D01*
X-10470Y199954D02*
X-6500D01*
X-11176Y205740D02*
X-10470Y206446D01*
X-11176Y200660D02*
X-10470Y199954D01*
X-11176Y187960D02*
Y193040D01*
X-10470Y193746D02*
X-6500D01*
X-10470Y187254D02*
X-6500D01*
X-11176Y193040D02*
X-10470Y193746D01*
X-11176Y187960D02*
X-10470Y187254D01*
X-11176Y175260D02*
Y180340D01*
X-10470Y181046D02*
X-6500D01*
X-10470Y174554D02*
X-6500D01*
X-11176Y180340D02*
X-10470Y181046D01*
X-11176Y175260D02*
X-10470Y174554D01*
X-11176Y162560D02*
Y167640D01*
X-10470Y168346D02*
X-6500D01*
X-10470Y161854D02*
X-6500D01*
X-11176Y167640D02*
X-10470Y168346D01*
X-11176Y162560D02*
X-10470Y161854D01*
X-11176Y149860D02*
Y154940D01*
X-10470Y155646D02*
X-6500D01*
X-10470Y149154D02*
X-6500D01*
X-11176Y154940D02*
X-10470Y155646D01*
X-11176Y149860D02*
X-10470Y149154D01*
D34*
X222000Y78000D02*
Y97500D01*
X224500Y100000D01*
X234500D01*
X240000Y105500D02*
Y106749D01*
X234500Y100000D02*
X240000Y105500D01*
X244250Y106250D02*
Y119250D01*
X266750Y166250D02*
X270250Y162750D01*
X210250Y79250D02*
Y81250D01*
Y79250D02*
X215000Y74500D01*
X218500D01*
X222000Y78000D01*
X244250Y119250D02*
X263000Y138000D01*
Y147500D01*
X223250Y113250D02*
X229250Y119250D01*
X223250Y106250D02*
Y113250D01*
X237500Y119250D02*
X244250D01*
X229250D02*
X237500D01*
X270250Y154750D02*
Y162750D01*
X263000Y147500D02*
X270250Y154750D01*
X266750Y166250D02*
Y174000D01*
X268500Y175750D01*
X270250D01*
D36*
X46250Y206000D02*
X77500D01*
X50250Y191250D02*
X53000Y194000D01*
X46250Y187250D02*
Y191250D01*
X111578Y207000D02*
X116750D01*
X111250Y204500D02*
X122172D01*
X94250Y202500D02*
X123000D01*
X93422Y200500D02*
X123828D01*
X97250Y198500D02*
X124657D01*
X108578Y210000D02*
X111578Y207000D01*
X122172Y204500D02*
X124250Y206578D01*
X123000Y202500D02*
X126250Y205750D01*
X123828Y200500D02*
X128250Y204921D01*
X124657Y198500D02*
X130250Y204093D01*
X199250Y104750D02*
Y112500D01*
X198750Y104250D02*
X199250Y104750D01*
X198750Y87578D02*
Y104250D01*
X197500Y114250D02*
Y132000D01*
X223250Y172000D02*
X239250Y188000D01*
X221250Y172828D02*
X237250Y188828D01*
X223250Y154250D02*
Y172000D01*
X221250Y155250D02*
Y172828D01*
X233750Y171500D02*
X261500Y199250D01*
X233750Y167750D02*
Y171500D01*
X197500Y114250D02*
X199250Y112500D01*
X153000Y163000D02*
X190500D01*
X145000Y155000D02*
X153000Y163000D01*
X155250Y165000D02*
X157250Y167000D01*
X152172Y165000D02*
X155250D01*
X144172Y157000D02*
X152172Y165000D01*
X190500Y163000D02*
X193750Y159750D01*
X132250Y203265D02*
Y205015D01*
X140985Y213750D01*
X144828Y215750D02*
X145750D01*
X140157D02*
X144828D01*
X145414Y216336D01*
X130250Y205843D02*
X140157Y215750D01*
X130250Y204093D02*
Y205843D01*
X128250Y204921D02*
Y206672D01*
X124250Y210250D02*
X129750Y215750D01*
X117750Y219500D02*
X121500Y215750D01*
X111000Y219500D02*
X117750D01*
X119250Y221250D02*
X122500D01*
X118000Y222500D02*
X119250Y221250D01*
X113000Y226750D02*
X129000D01*
X123000Y229000D02*
X128500Y234500D01*
X120500Y229000D02*
X123000D01*
X117750Y231750D02*
X120500Y229000D01*
X128250Y206672D02*
X139328Y217750D01*
X144000D01*
X137750Y219000D02*
Y223750D01*
X126250Y207500D02*
X137750Y219000D01*
X147500Y213750D02*
X149750Y216000D01*
X140985Y213750D02*
X147500D01*
X145750Y215750D02*
X146250Y216250D01*
X145750Y219500D02*
Y223750D01*
X144000Y217750D02*
X145750Y219500D01*
X19750Y177250D02*
X29500Y187000D01*
X26250Y171250D02*
X31500Y176500D01*
X26500Y167500D02*
X46250Y187250D01*
X18000Y167500D02*
X26500D01*
X80250Y196500D02*
X97000Y179750D01*
X149250Y251500D02*
Y256500D01*
X101125Y210000D02*
X108578D01*
X93875Y217250D02*
X101125Y210000D01*
X81750Y217250D02*
X93875D01*
X107750Y208000D02*
X111250Y204500D01*
X83750Y213000D02*
X94250Y202500D01*
X82922Y211000D02*
X93422Y200500D01*
X100286Y208000D02*
X107750D01*
X93035Y215250D02*
X100286Y208000D01*
X83020Y222500D02*
X118000D01*
X82170Y221650D02*
X83020Y222500D01*
X104750Y216000D02*
X107500D01*
X100750Y220000D02*
X104750Y216000D01*
X79000Y220000D02*
X81750Y217250D01*
X79000Y220000D02*
Y257750D01*
X80750Y259500D01*
X91000D01*
X121500Y215750D02*
X126000D01*
X107500Y216000D02*
X111000Y219500D01*
X88000Y220000D02*
X100750D01*
X123250Y222000D02*
X125250D01*
X122500Y221250D02*
X123250Y222000D01*
X125250D02*
X126250Y221000D01*
X75000Y215250D02*
X93035D01*
X63250Y124750D02*
X69000Y130500D01*
X53000Y194000D02*
X66500D01*
X28750Y148500D02*
Y157750D01*
X26900Y146650D02*
X28750Y148500D01*
X26900Y135250D02*
Y146650D01*
X28750Y157750D02*
X62250Y191250D01*
X59500Y124750D02*
X66250Y131500D01*
X19250Y165250D02*
X28250D01*
X20250Y162250D02*
X29250D01*
X28250Y165250D02*
X54250Y191250D01*
X29250Y162250D02*
X58250Y191250D01*
X15250Y159500D02*
X21250Y153500D01*
X17500Y160750D02*
X23750Y154500D01*
X21250Y126500D02*
Y153500D01*
X23750Y130400D02*
Y154500D01*
X15250Y164750D02*
X18000Y167500D01*
X15250Y159500D02*
Y164750D01*
X19500Y124750D02*
X21250Y126500D01*
X17500Y163500D02*
X19250Y165250D01*
X17500Y160750D02*
Y163500D01*
X23750Y130400D02*
X26900Y127250D01*
X66250Y131500D02*
Y190500D01*
X66500Y194000D02*
X69000Y191500D01*
Y130500D02*
Y191500D01*
X31500Y176500D02*
Y192500D01*
X35500Y196500D01*
X80250D01*
X34672Y198500D02*
X81078D01*
X96328Y183250D01*
X0Y139700D02*
X9500Y149200D01*
X3500Y209500D02*
X7500Y205500D01*
X0Y152400D02*
X7500Y159900D01*
X9500Y149200D02*
Y195250D01*
X15000Y200750D01*
X7500Y159900D02*
Y205500D01*
X82170Y256650D02*
X120850D01*
X121750Y255750D01*
X82170Y251650D02*
X125650D01*
X129750Y255750D01*
X82170Y246650D02*
X124650D01*
X134000Y244000D02*
X137750Y247750D01*
X135000Y241750D02*
X138500Y245250D01*
X143250D01*
X145750Y247750D01*
X82170Y231650D02*
X82270Y231750D01*
X117750D01*
X128500Y234500D02*
X132500D01*
X137750Y239750D01*
X82170Y226650D02*
X83270Y227750D01*
X112000D01*
X113000Y226750D01*
X129000D02*
X142000Y239750D01*
X153750D01*
X126250Y221000D02*
X131000D01*
X117750Y241750D02*
X135000D01*
X82170Y241650D02*
X113900D01*
X116250Y244000D01*
X134000D01*
X131000Y221000D02*
X144500Y234500D01*
X151000D01*
X153750Y231750D01*
X65020Y219500D02*
X70750D01*
X59670Y214150D02*
X65020Y219500D01*
X70750D02*
X75000Y215250D01*
X64670Y214150D02*
X65820Y213000D01*
X83750D01*
X54670Y214150D02*
X57820Y211000D01*
X82922D01*
X49670Y214150D02*
X54820Y209000D01*
X78215D01*
X29500Y187000D02*
Y193328D01*
X34672Y198500D01*
X202500Y82750D02*
X204000Y84250D01*
X201750Y135750D02*
X203750D01*
X213000Y126500D01*
X223750Y16250D02*
X240000Y0D01*
X241300D01*
X228600D02*
Y8572D01*
X217000Y20172D02*
X228600Y8572D01*
X217000Y20172D02*
Y60299D01*
X202500Y77627D02*
Y82750D01*
Y77627D02*
X224500Y55627D01*
X200500Y76799D02*
X217000Y60299D01*
X200500Y76799D02*
Y86500D01*
X207750Y93750D01*
Y113750D01*
X201750Y119750D02*
X207750Y113750D01*
X205536Y84250D02*
X213000Y91714D01*
X204000Y84250D02*
X205536D01*
X213000Y91714D02*
Y126500D01*
X223750Y16250D02*
Y20000D01*
X224500Y20750D01*
Y55627D01*
X215000Y900D02*
X215900Y0D01*
X215000Y900D02*
Y55228D01*
X196500Y73728D02*
X215000Y55228D01*
X196500Y73728D02*
Y85328D01*
X198750Y87578D01*
X193750Y135750D02*
X197500Y132000D01*
X165100Y0D02*
X169750Y4650D01*
Y102250D01*
X167250Y104750D02*
X169750Y102250D01*
X167250Y104750D02*
Y121250D01*
X168250Y122250D01*
X172500D01*
X175250Y125000D01*
Y145250D01*
X176500Y146500D01*
X188500D01*
X193750Y151750D01*
X114300Y0D02*
X118750Y4450D01*
Y108000D01*
X135000Y124250D01*
X84671Y189250D02*
X104172Y169750D01*
X113750Y183750D02*
X121750Y191750D01*
X83250Y189250D02*
X84671D01*
X99843Y171250D02*
X103343Y167750D01*
X82170Y236650D02*
X112650D01*
X117750Y241750D01*
X109500Y169750D02*
X113750Y174000D01*
X110328Y167750D02*
X115750Y173172D01*
Y177750D02*
X121750Y183750D01*
X149750Y216000D02*
X161500D01*
X161750Y215750D01*
X98500Y155250D02*
X106000Y162750D01*
X86750Y142000D02*
Y144750D01*
Y142000D02*
X88004Y140746D01*
X124250Y206578D02*
Y210250D01*
X126250Y205750D02*
Y207500D01*
X125000Y196015D02*
X132250Y203265D01*
X183250Y213250D02*
X185750Y215750D01*
X84750Y141172D02*
X87175Y138746D01*
X127000Y181964D02*
X158286Y213250D01*
X147407Y190500D02*
X151250D01*
X158000Y197250D01*
Y204000D01*
X165250Y211250D01*
X185500D02*
X190000Y215750D01*
X193750D01*
X140500Y170250D02*
X143500Y173250D01*
X125000Y173750D02*
Y196015D01*
X127000Y172922D02*
Y181964D01*
X158286Y213250D02*
X183250D01*
X165250Y211250D02*
X185500D01*
X196250Y218250D02*
X201750Y223750D01*
X74250Y131250D02*
X76750Y128750D01*
X79286D01*
X103000Y131250D02*
X110750Y139000D01*
Y144750D01*
X131250Y165250D01*
X103828Y129250D02*
X112750Y138172D01*
Y140750D01*
X120250Y148250D01*
X122000D01*
X79286Y128750D02*
X79785Y129250D01*
X78250Y131250D02*
X103000D01*
X79785Y129250D02*
X103828D01*
X70250Y128000D02*
X71500Y126750D01*
X108286D01*
X124500Y142964D01*
Y146078D01*
X135422Y157000D01*
X179250Y197250D02*
X195000D01*
X180078Y195250D02*
X195828D01*
X204500Y218500D02*
X209750Y223750D01*
X199250Y190750D02*
Y193250D01*
X204500Y198500D01*
Y218500D01*
X215250Y226250D02*
X217750Y223750D01*
X198250Y216250D02*
X208250Y226250D01*
X215250D01*
X122000Y148250D02*
X137000Y163250D01*
X157250Y167000D02*
Y169500D01*
X168750Y181000D01*
X144328Y171250D02*
X156078D01*
X180078Y195250D01*
X143500Y173250D02*
X155250D01*
X179250Y197250D01*
X137000Y163250D02*
X139828D01*
X131250Y165250D02*
X139000D01*
X139828Y163250D02*
X142500Y165922D01*
Y169422D01*
X144328Y171250D01*
X139000Y165250D02*
X140500Y166750D01*
Y170250D01*
X195828Y195250D02*
X198250Y197672D01*
X195000Y197250D02*
X196250Y198500D01*
X198250Y197672D02*
Y216250D01*
X196250Y198500D02*
Y218250D01*
X84750Y141172D02*
Y146750D01*
X83250Y155250D02*
X98500D01*
X189500Y181000D02*
X199250Y190750D01*
X168750Y181000D02*
X189500D01*
X106000Y162750D02*
X108750D01*
X121750Y175750D01*
X103343Y167750D02*
X110328D01*
X104172Y169750D02*
X109500D01*
X86750Y144750D02*
X89250Y147250D01*
X84750Y146750D02*
X89250Y151250D01*
X262750Y8750D02*
Y114750D01*
X254000Y0D02*
X262750Y8750D01*
X257750Y119750D02*
X262750Y114750D01*
X273000Y222200D02*
X279400Y228600D01*
X267500Y237750D02*
X271050Y241300D01*
X279400D01*
X249750Y167750D02*
X263250Y181250D01*
X249750Y159750D02*
X263250Y173250D01*
Y175750D01*
X265500Y240100D02*
X279400Y254000D01*
X263250Y181250D02*
X264750D01*
X273000Y191500D02*
Y222200D01*
X265500Y191500D02*
Y240100D01*
X241750Y175750D02*
Y176285D01*
X263500Y198035D01*
Y259750D01*
X270450Y266700D01*
X279400D01*
X261500Y199250D02*
Y274200D01*
X266700Y279400D01*
X233750Y175750D02*
Y179500D01*
X255000Y200750D01*
Y208750D01*
X259500Y213250D01*
Y273900D01*
X254000Y279400D02*
X259500Y273900D01*
X223250Y154250D02*
X225750Y151750D01*
X239250Y188000D02*
Y193000D01*
X253000Y209578D02*
X257500Y214078D01*
Y263200D01*
X241300Y279400D02*
X257500Y263200D01*
X217750Y151750D02*
X221250Y155250D01*
X253000Y206750D02*
Y209578D01*
X239250Y193000D02*
X253000Y206750D01*
X237250Y188828D02*
Y193828D01*
X239250Y195828D01*
Y201250D01*
X244500Y206500D01*
Y263500D01*
X228600Y279400D02*
X244500Y263500D01*
X217750Y172215D02*
X220500Y174965D01*
X215900Y268114D02*
X216000Y268214D01*
X215900Y261850D02*
Y268114D01*
Y279400D02*
X216000Y279300D01*
Y268214D02*
Y279300D01*
X207250Y162250D02*
X209750Y159750D01*
X207250Y162250D02*
Y193000D01*
X218500Y204250D01*
X220500Y236679D02*
X222500Y234679D01*
X220500Y174965D02*
Y219250D01*
X222500Y221250D01*
Y234679D01*
X218500Y204250D02*
Y220078D01*
X220500Y222078D01*
Y233850D01*
X218500Y235850D02*
X220500Y233850D01*
X215900Y261850D02*
X220500Y257250D01*
Y236679D02*
Y257250D01*
X218500Y235850D02*
Y251250D01*
X205500Y264250D02*
X218500Y251250D01*
X205500Y264250D02*
Y277100D01*
X203200Y279400D02*
X205500Y277100D01*
X198000Y156000D02*
X201750Y159750D01*
X135422Y157000D02*
X144172D01*
X136250Y155000D02*
X145000D01*
X153250Y156000D02*
X198000D01*
X149750Y152500D02*
X153250Y156000D01*
X149750Y146250D02*
Y152500D01*
X135000Y153750D02*
X136250Y155000D01*
X135000Y124250D02*
Y153750D01*
X144500Y141000D02*
X149750Y146250D01*
X103574Y157496D02*
X108746D01*
X125000Y173750D01*
X89254Y143246D02*
X89325D01*
X103574Y157496D01*
X88004Y140746D02*
X90746D01*
X105250Y155250D01*
X109328D01*
X127000Y172922D01*
X110157Y153250D02*
X147407Y190500D01*
X106250Y153250D02*
X110157D01*
X91746Y138746D02*
X106250Y153250D01*
X87175Y138746D02*
X91746D01*
X10000Y199500D02*
Y276700D01*
X12700Y279400D01*
X91000Y265500D02*
X97850Y258650D01*
X147500Y258250D02*
X149250Y256500D01*
X184000Y247750D02*
X185750D01*
X114300Y279400D02*
X121950Y271750D01*
X163172D01*
X127000Y279400D02*
X132650Y273750D01*
X164000D01*
X164500Y261000D02*
X177750Y247750D01*
X164500Y261000D02*
Y270422D01*
X163172Y271750D02*
X164500Y270422D01*
X166500Y265250D02*
X184000Y247750D01*
X166500Y265250D02*
Y271250D01*
X164000Y273750D02*
X166500Y271250D01*
X169750Y247750D02*
Y252922D01*
X155922Y266750D02*
X169750Y252922D01*
X114250Y266750D02*
X155922D01*
X101600Y279400D02*
X114250Y266750D01*
X172250Y245250D02*
X177750Y239750D01*
X103550Y264750D02*
X155093D01*
X88900Y279400D02*
X103550Y264750D01*
X168715Y245250D02*
X172250D01*
X167250Y246714D02*
X168715Y245250D01*
X167250Y246714D02*
Y252593D01*
X155093Y264750D02*
X167250Y252593D01*
X177750Y231750D02*
Y235285D01*
X169785Y243250D02*
X177750Y235285D01*
X167886Y243250D02*
X169785D01*
X165250Y245886D02*
X167886Y243250D01*
X165250Y245886D02*
Y251765D01*
X124650Y246650D02*
X132000Y254000D01*
X144000D01*
X145750Y255750D01*
X144500Y258250D02*
X147500D01*
X142500Y256250D02*
X144500Y258250D01*
X133250Y256250D02*
X142500D01*
X97850Y258650D02*
X130850D01*
X133250Y256250D01*
X154265Y262750D02*
X165250Y251765D01*
X76200Y279265D02*
Y279400D01*
X100000Y262750D02*
X154265D01*
X76200Y279265D02*
X86714Y268750D01*
X94000D01*
X100000Y262750D01*
X115750Y173172D02*
Y177750D01*
X113750Y174000D02*
Y183750D01*
X111250Y175250D02*
Y178250D01*
X96328Y183250D02*
X106250D01*
X111250Y178250D01*
X97000Y179750D02*
X104171D01*
X89000Y171250D02*
X99843D01*
X78215Y209000D02*
X91715Y195500D01*
X94250D01*
X97250Y198500D01*
X269500Y188000D02*
X273000Y191500D01*
X249750Y175750D02*
X265500Y191500D01*
X264750Y181250D02*
X267500Y184000D01*
Y237750D01*
X263250Y175750D02*
X269500Y182000D01*
Y188000D01*
X217750Y159750D02*
Y172215D01*
X142250Y141000D02*
X144500D01*
D41*
X-4500Y139700D02*
D03*
D42*
Y25400D02*
D03*
Y12700D02*
D03*
X283900Y228600D02*
D03*
Y241300D02*
D03*
Y254000D02*
D03*
Y266700D02*
D03*
X-4500Y152400D02*
D03*
D43*
X114300Y-4500D02*
D03*
X165100D02*
D03*
X215900D02*
D03*
X228600D02*
D03*
X241300D02*
D03*
X254000D02*
D03*
X266700Y283900D02*
D03*
X254000D02*
D03*
X241300D02*
D03*
X228600D02*
D03*
X215900D02*
D03*
X203200D02*
D03*
X127000D02*
D03*
X114300D02*
D03*
X101600D02*
D03*
X88900D02*
D03*
X76200D02*
D03*
X12700D02*
D03*
D44*
X46250Y206000D02*
D03*
X77500Y206000D02*
D03*
X63250Y124750D02*
D03*
X116750Y207000D02*
D03*
X238375Y167750D02*
D03*
X161750D02*
D03*
X19750Y177250D02*
D03*
X26250Y171250D02*
D03*
X149250Y251500D02*
D03*
X91000Y265500D02*
D03*
Y259500D02*
D03*
X126000Y215750D02*
D03*
X88000Y220000D02*
D03*
X78250Y131250D02*
D03*
X164750Y199750D02*
D03*
X201750Y191750D02*
D03*
Y183750D02*
D03*
X185750Y175750D02*
D03*
X177750Y135750D02*
D03*
X59500Y124750D02*
D03*
X20250Y162250D02*
D03*
X62250Y191250D02*
D03*
X58250D02*
D03*
X54250D02*
D03*
X50250D02*
D03*
X46250D02*
D03*
X19500Y124750D02*
D03*
X26900Y127250D02*
D03*
Y135250D02*
D03*
X155800Y9250D02*
D03*
X54800D02*
D03*
X101500Y74000D02*
D03*
X77750Y269750D02*
D03*
X174500Y269250D02*
D03*
X182500D02*
D03*
X200500D02*
D03*
X221500D02*
D03*
X270250Y262500D02*
D03*
X270250Y149750D02*
D03*
Y154750D02*
D03*
Y175750D02*
D03*
X233750Y223750D02*
D03*
X225750Y215750D02*
D03*
X152750Y147750D02*
D03*
X153250Y106250D02*
D03*
X171250Y106250D02*
D03*
X179250Y106250D02*
D03*
X192250Y106250D02*
D03*
X175250Y100750D02*
D03*
X178750Y97250D02*
D03*
X180500Y95500D02*
D03*
X177000Y99000D02*
D03*
X145750Y119750D02*
D03*
X218250Y106250D02*
D03*
X210250Y100000D02*
D03*
Y93750D02*
D03*
X242750Y53750D02*
D03*
X244500Y67750D02*
D03*
X240000Y67750D02*
D03*
X223250Y106250D02*
D03*
X244250D02*
D03*
X222000Y97500D02*
D03*
Y78000D02*
D03*
X210250Y81250D02*
D03*
X240000Y106749D02*
D03*
X210250Y106250D02*
D03*
X271500Y120250D02*
D03*
X270250Y162750D02*
D03*
X169750Y207750D02*
D03*
X177750Y215750D02*
D03*
X229750Y213000D02*
D03*
X74250Y131250D02*
D03*
X70250Y128000D02*
D03*
X217750Y191750D02*
D03*
X209750Y183750D02*
D03*
X225750Y199750D02*
D03*
X207000D02*
D03*
X185750Y207750D02*
D03*
X209750Y167750D02*
D03*
X201750Y175750D02*
D03*
X177750Y167750D02*
D03*
X169750Y175750D02*
D03*
X209750Y151750D02*
D03*
X131500Y149000D02*
D03*
X193750Y167750D02*
D03*
X3500Y209500D02*
D03*
X66250Y190500D02*
D03*
X15000Y200750D02*
D03*
X82170Y256650D02*
D03*
Y251650D02*
D03*
Y246650D02*
D03*
Y241650D02*
D03*
Y236650D02*
D03*
X82170Y231650D02*
D03*
Y226650D02*
D03*
Y221650D02*
D03*
X121750Y255750D02*
D03*
X129750D02*
D03*
X145750D02*
D03*
X137750Y247750D02*
D03*
X145750D02*
D03*
X137750Y239750D02*
D03*
X153750D02*
D03*
Y231750D02*
D03*
X137750Y223750D02*
D03*
X145750D02*
D03*
X146250Y216250D02*
D03*
X64670Y214150D02*
D03*
X59670Y214150D02*
D03*
X54670D02*
D03*
X49670Y214150D02*
D03*
X129750Y215750D02*
D03*
X233750Y143750D02*
D03*
X209750Y74500D02*
D03*
X250000Y110750D02*
D03*
X250250Y95656D02*
D03*
X272000Y126750D02*
D03*
X201750Y119750D02*
D03*
Y135750D02*
D03*
X193750D02*
D03*
Y151750D02*
D03*
Y159750D02*
D03*
X203750Y130250D02*
D03*
X237500Y119250D02*
D03*
X196250Y95750D02*
D03*
Y98250D02*
D03*
X121750Y191750D02*
D03*
Y183750D02*
D03*
X83250Y189250D02*
D03*
X161750Y215750D02*
D03*
X185750D02*
D03*
X193750D02*
D03*
X201750Y223750D02*
D03*
X209750D02*
D03*
X217750D02*
D03*
X201750Y231750D02*
D03*
X209750D02*
D03*
X185750Y239750D02*
D03*
X241750Y247750D02*
D03*
X89254Y143246D02*
D03*
X121750Y175750D02*
D03*
X137750D02*
D03*
X177750Y199750D02*
D03*
X193750D02*
D03*
X107500Y145250D02*
D03*
X83250Y155250D02*
D03*
X89250Y147250D02*
D03*
Y151250D02*
D03*
X257750Y119750D02*
D03*
X254750Y135750D02*
D03*
X255000Y215500D02*
D03*
X249750Y159750D02*
D03*
Y167750D02*
D03*
Y175750D02*
D03*
X217750D02*
D03*
X233750Y167750D02*
D03*
X241750Y175750D02*
D03*
X233750D02*
D03*
X225750Y151750D02*
D03*
X217750D02*
D03*
Y159750D02*
D03*
X209750D02*
D03*
X201750D02*
D03*
X10000Y199500D02*
D03*
X161750Y247750D02*
D03*
X185750D02*
D03*
X177750D02*
D03*
X169750D02*
D03*
X177750Y239750D02*
D03*
Y231750D02*
D03*
X111250Y175250D02*
D03*
X107500Y190750D02*
D03*
X104171Y179750D02*
D03*
X89000Y171250D02*
D03*
X153750Y220750D02*
D03*
X241750Y167750D02*
D03*
X142250Y141000D02*
D03*
D45*
X209250Y35750D02*
D03*
X245000Y24500D02*
D03*
X15000Y264000D02*
D03*
X44250Y273500D02*
D03*
X253250Y61000D02*
D03*
X210500Y6750D02*
D03*
X116500Y112750D02*
D03*
D46*
X54750Y150250D02*
D03*
X40000D02*
D03*
X101300Y41550D02*
D03*
X139400Y41550D02*
D03*
X164800Y41550D02*
D03*
X152100Y79650D02*
D03*
X75900Y79650D02*
D03*
X37800D02*
D03*
X106500Y11000D02*
D03*
X17300Y45500D02*
D03*
X114000Y86100D02*
D03*
X50500Y66950D02*
D03*
X126700Y54250D02*
D03*
X43250Y253070D02*
D03*
Y245500D02*
D03*
X176299Y12500D02*
D03*
X176250Y45500D02*
D03*
X63200Y41550D02*
D03*
M02*
