M48
;Layer_Color=0
;FILE_FORMAT=4:4
METRIC,LZ
;TYPE=PLATED
T1F00S00C0.1000
T3F00S00C0.2000
%
T01
X0023125Y0001325
X0023525Y000145
X0023925
X0022625Y0001825
X002275Y0002225
Y0002625
Y0003025
Y0003425
X0020975Y000745
X0021025Y001
Y0010625
X0021825
X0019225
X0018425Y0010625
X0017925
X0017125Y0010625
X0015825Y0010625
X0015325
X0014575Y0011975
X0017775Y0013575
X0018575Y0012775
X0019375Y0011975
X0020375Y0013025
X0020975Y0015175
X0022575Y0016775
X0019375
X0017775
X0018575Y0015975
X0023375Y0014375
X0027025Y0014975
Y0015475
Y0016775
X0002625Y0015125
X0001Y001995
X0011675Y00207
X00115Y0023475
X0012975Y0023175
X00126Y0021575
X0013775Y0019975
X0012975Y00177
X0018575Y0017575
Y0018375
X0020175
Y0019175
X0019375
X0021775
X0022575
Y0019975
Y0018375
X0024175
Y0019175
Y0019975
X0024975
Y0020775
X0025775
Y0019975
X002625Y001935
X0027025Y001975
Y002055
Y002235
Y002315
X0027025Y002625
X002215Y0026925
X002135
X002005
X001825
X001745
X001485Y0026925
X001355Y0026925
X001225
X0014925Y002515
X0017775Y0021575
X0016975Y0020775
X0017775Y0019975
X0023375Y0019175
T03
X0020925Y0003575
M30
