G04 Layer_Physical_Order=5*
G04 Layer_Color=3039647*
%FSLAX44Y44*%
%MOMM*%
G71*
G01*
G75*
%ADD33C,0.2000*%
%ADD34C,0.3000*%
%ADD35C,0.1500*%
%ADD36C,0.1000*%
%ADD37C,0.2500*%
%ADD40C,0.4000*%
G04:AMPARAMS|DCode=42|XSize=0.7mm|YSize=1.6mm|CornerRadius=0.175mm|HoleSize=0mm|Usage=FLASHONLY|Rotation=90.000|XOffset=0mm|YOffset=0mm|HoleType=Round|Shape=RoundedRectangle|*
%AMROUNDEDRECTD42*
21,1,0.7000,1.2500,0,0,90.0*
21,1,0.3500,1.6000,0,0,90.0*
1,1,0.3500,0.6250,0.1750*
1,1,0.3500,0.6250,-0.1750*
1,1,0.3500,-0.6250,-0.1750*
1,1,0.3500,-0.6250,0.1750*
%
%ADD42ROUNDEDRECTD42*%
%ADD44C,0.2000*%
%ADD45C,0.4000*%
%ADD46C,0.6000*%
%ADD47C,1.0000*%
%ADD48C,0.3000*%
%ADD49C,0.5000*%
%ADD50C,1.0000*%
G36*
X109746Y277650D02*
X109960Y276577D01*
X110567Y275667D01*
X111477Y275060D01*
X112550Y274846D01*
X112888D01*
X113257Y273631D01*
X113174Y273576D01*
X103477Y263878D01*
X103052Y264302D01*
X102225Y264855D01*
X101250Y265049D01*
X77376D01*
X76472Y265952D01*
X76472Y265952D01*
X72972Y269452D01*
X72145Y270005D01*
X71170Y270199D01*
X53170D01*
X52194Y270005D01*
X51368Y269452D01*
X48614Y266699D01*
X44670D01*
X43695Y266505D01*
X42868Y265952D01*
X42621Y265583D01*
X41259Y265482D01*
X41164Y265514D01*
X41112Y265592D01*
X40450Y266034D01*
X39670Y266189D01*
X38890Y266034D01*
X38228Y265592D01*
X37786Y264930D01*
X37631Y264150D01*
X37786Y263370D01*
X38228Y262708D01*
X38890Y262266D01*
X39670Y262111D01*
X40450Y262266D01*
X41112Y262708D01*
X41164Y262786D01*
X41259Y262818D01*
X42621Y262717D01*
X42868Y262348D01*
X43695Y261795D01*
X44670Y261601D01*
X49670D01*
X50645Y261795D01*
X51472Y262348D01*
X51754Y262629D01*
X53228Y262708D01*
X53890Y262266D01*
X54670Y262111D01*
X55450Y262266D01*
X56112Y262708D01*
X56506Y263297D01*
X57069Y263370D01*
X57271D01*
X57834Y263297D01*
X58228Y262708D01*
X58890Y262266D01*
X59670Y262111D01*
X60450Y262266D01*
X61112Y262708D01*
X61554Y263370D01*
X61709Y264150D01*
X62815Y265101D01*
X66525D01*
X67631Y264150D01*
X67786Y263370D01*
X68228Y262708D01*
X68890Y262266D01*
X69670Y262111D01*
X70450Y262266D01*
X71112Y262708D01*
X72586Y262629D01*
X72868Y262348D01*
X72868Y262348D01*
X74518Y260698D01*
X75345Y260145D01*
X76320Y259951D01*
X99025D01*
X100068Y258681D01*
X99882Y257750D01*
Y225000D01*
Y214299D01*
X71663D01*
X71314Y215034D01*
X71186Y215569D01*
X71554Y216120D01*
X71709Y216900D01*
X71554Y217680D01*
X71112Y218342D01*
X70450Y218784D01*
X69670Y218939D01*
X68890Y218784D01*
X68228Y218342D01*
X67786Y217680D01*
X67631Y216900D01*
X67786Y216120D01*
X68154Y215569D01*
X68026Y215034D01*
X67677Y214299D01*
X53126D01*
X33972Y233452D01*
X33145Y234005D01*
X32170Y234199D01*
X31195Y234005D01*
X30368Y233452D01*
X29815Y232625D01*
X29794Y232518D01*
X23394Y226118D01*
X22347Y226428D01*
X22124Y226592D01*
Y236330D01*
X22384Y236720D01*
X22539Y237500D01*
X22384Y238280D01*
X21942Y238942D01*
X21280Y239384D01*
X20500Y239539D01*
X19720Y239384D01*
X19058Y238942D01*
X18616Y238280D01*
X18461Y237500D01*
X18616Y236720D01*
X18876Y236330D01*
Y213670D01*
X18616Y213280D01*
X18461Y212500D01*
X18616Y211719D01*
X19058Y211058D01*
X19633Y210674D01*
X19734Y210551D01*
X20017Y209262D01*
X18050Y207294D01*
X14500D01*
X13622Y207119D01*
X12878Y206622D01*
X12839Y206563D01*
X11569Y206949D01*
Y247272D01*
X27523Y263227D01*
X28297Y264384D01*
X28569Y265750D01*
X28297Y267116D01*
X27523Y268273D01*
X26366Y269047D01*
X25000Y269319D01*
X23634Y269047D01*
X22477Y268273D01*
X5699Y251495D01*
X4669Y251915D01*
X4512Y252040D01*
X4554Y252250D01*
Y255750D01*
X4340Y256823D01*
X3733Y257733D01*
X2823Y258340D01*
X1750Y258554D01*
X0D01*
Y262146D01*
X1750D01*
X2823Y262360D01*
X3733Y262967D01*
X4340Y263877D01*
X4554Y264950D01*
Y268450D01*
X4340Y269523D01*
X3733Y270433D01*
X2823Y271040D01*
X1750Y271254D01*
X0D01*
Y279400D01*
X8146D01*
Y277650D01*
X8360Y276577D01*
X8967Y275667D01*
X9877Y275060D01*
X10950Y274846D01*
X14450D01*
X15523Y275060D01*
X16433Y275667D01*
X17040Y276577D01*
X17254Y277650D01*
Y279400D01*
X20846D01*
Y277650D01*
X21060Y276577D01*
X21667Y275667D01*
X22577Y275060D01*
X23650Y274846D01*
X27150D01*
X28223Y275060D01*
X29133Y275667D01*
X29740Y276577D01*
X29954Y277650D01*
Y279400D01*
X33546D01*
Y277650D01*
X33760Y276577D01*
X34367Y275667D01*
X35277Y275060D01*
X36350Y274846D01*
X39850D01*
X40923Y275060D01*
X41833Y275667D01*
X42440Y276577D01*
X42654Y277650D01*
Y279400D01*
X46246D01*
Y277650D01*
X46460Y276577D01*
X47067Y275667D01*
X47977Y275060D01*
X49050Y274846D01*
X52550D01*
X53623Y275060D01*
X54533Y275667D01*
X55140Y276577D01*
X55354Y277650D01*
Y279400D01*
X58946D01*
Y277650D01*
X59160Y276577D01*
X59767Y275667D01*
X60677Y275060D01*
X61750Y274846D01*
X65250D01*
X66323Y275060D01*
X67233Y275667D01*
X67840Y276577D01*
X68054Y277650D01*
Y279400D01*
X71646D01*
Y277650D01*
X71860Y276577D01*
X72467Y275667D01*
X73377Y275060D01*
X74450Y274846D01*
X77950D01*
X79023Y275060D01*
X79933Y275667D01*
X80540Y276577D01*
X80754Y277650D01*
Y279400D01*
X84346D01*
Y277650D01*
X84560Y276577D01*
X85167Y275667D01*
X85972Y275130D01*
X86079Y274590D01*
X86049Y273770D01*
X85558Y273442D01*
X85116Y272780D01*
X84961Y272000D01*
X85116Y271220D01*
X85558Y270558D01*
X86220Y270116D01*
X87000Y269961D01*
X87780Y270116D01*
X88442Y270558D01*
X88884Y271220D01*
X89039Y272000D01*
X88884Y272780D01*
X88442Y273442D01*
X88241Y273576D01*
X88626Y274846D01*
X90650D01*
X91723Y275060D01*
X92633Y275667D01*
X93240Y276577D01*
X93454Y277650D01*
Y279400D01*
X97046D01*
Y277650D01*
X97260Y276577D01*
X97867Y275667D01*
X98777Y275060D01*
X99850Y274846D01*
X103350D01*
X104423Y275060D01*
X105333Y275667D01*
X105940Y276577D01*
X106154Y277650D01*
Y279400D01*
X109746D01*
Y277650D01*
D02*
G37*
G36*
X262882Y250966D02*
Y218500D01*
Y193400D01*
X263348Y191059D01*
X264674Y189074D01*
X266659Y187748D01*
X269000Y187283D01*
X271341Y187748D01*
X273326Y189074D01*
X273576Y189449D01*
X274846Y189064D01*
Y188750D01*
X275060Y187677D01*
X275667Y186767D01*
X276577Y186160D01*
X277650Y185946D01*
X279400D01*
Y182354D01*
X277650D01*
X276577Y182140D01*
X275667Y181533D01*
X275060Y180623D01*
X274846Y179550D01*
Y176050D01*
X275060Y174977D01*
X275217Y174742D01*
X274582Y173406D01*
X274470Y173384D01*
X273808Y172942D01*
X273366Y172280D01*
X273211Y171500D01*
X273366Y170720D01*
X273808Y170058D01*
X274470Y169616D01*
X274669Y169576D01*
X275282Y168297D01*
X275283Y168258D01*
X275060Y167923D01*
X274846Y166850D01*
Y163350D01*
X275060Y162277D01*
X275100Y162217D01*
X274916Y161867D01*
X274260Y161188D01*
X273750Y161289D01*
X272970Y161134D01*
X272308Y160692D01*
X271866Y160030D01*
X271711Y159250D01*
X271866Y158470D01*
X272308Y157808D01*
X272970Y157366D01*
X273750Y157211D01*
X274531Y157366D01*
X275192Y157808D01*
X275634Y158470D01*
X275789Y159250D01*
X275673Y159836D01*
X276199Y160409D01*
X276689Y160737D01*
X277650Y160546D01*
X279400D01*
Y156954D01*
X277650D01*
X276577Y156740D01*
X275667Y156133D01*
X275060Y155223D01*
X274846Y154150D01*
Y150650D01*
X275060Y149577D01*
X275667Y148667D01*
X276577Y148060D01*
X277650Y147846D01*
X279400D01*
Y144254D01*
X277650D01*
X276577Y144040D01*
X275667Y143433D01*
X275060Y142523D01*
X274846Y141450D01*
Y137950D01*
X275060Y136877D01*
X275667Y135967D01*
X276577Y135360D01*
X277650Y135146D01*
X279400D01*
Y131554D01*
X277650D01*
X276577Y131340D01*
X275667Y130733D01*
X275060Y129823D01*
X274846Y128750D01*
Y125250D01*
X275060Y124177D01*
X275667Y123267D01*
X276577Y122660D01*
X277650Y122446D01*
X279400D01*
Y118854D01*
X277650D01*
X276577Y118640D01*
X275667Y118033D01*
X275060Y117123D01*
X274846Y116050D01*
Y112550D01*
X275060Y111477D01*
X275667Y110567D01*
X276577Y109960D01*
X277650Y109746D01*
X279400D01*
Y106154D01*
X277650D01*
X276577Y105940D01*
X275667Y105333D01*
X275060Y104423D01*
X274846Y103350D01*
Y99850D01*
X275060Y98777D01*
X275667Y97867D01*
X276577Y97260D01*
X277650Y97046D01*
X279400D01*
Y93454D01*
X277650D01*
X276577Y93240D01*
X275667Y92633D01*
X275060Y91723D01*
X274846Y90650D01*
Y87150D01*
X275060Y86077D01*
X275667Y85167D01*
X276577Y84560D01*
X277650Y84346D01*
X279400D01*
Y80754D01*
X277650D01*
X276577Y80540D01*
X275667Y79933D01*
X275060Y79023D01*
X274846Y77950D01*
Y74450D01*
X275060Y73377D01*
X275667Y72467D01*
X276577Y71860D01*
X277650Y71646D01*
X279400D01*
Y68054D01*
X277650D01*
X276577Y67840D01*
X275667Y67233D01*
X275060Y66323D01*
X274846Y65250D01*
Y61750D01*
X275060Y60677D01*
X275667Y59767D01*
X276577Y59160D01*
X277650Y58946D01*
X279400D01*
Y55354D01*
X277650D01*
X276577Y55140D01*
X275667Y54533D01*
X275060Y53623D01*
X274846Y52550D01*
Y49050D01*
X275060Y47977D01*
X275667Y47067D01*
X276577Y46460D01*
X277650Y46246D01*
X279400D01*
Y42654D01*
X277650D01*
X276577Y42440D01*
X275667Y41833D01*
X275060Y40923D01*
X274846Y39850D01*
Y36350D01*
X275060Y35277D01*
X275667Y34367D01*
X276577Y33760D01*
X277650Y33546D01*
X279400D01*
Y29954D01*
X277650D01*
X276577Y29740D01*
X275667Y29133D01*
X275060Y28223D01*
X274846Y27150D01*
Y23650D01*
X275060Y22577D01*
X275667Y21667D01*
X276577Y21060D01*
X277650Y20846D01*
X279400D01*
Y17254D01*
X277650D01*
X276577Y17040D01*
X275667Y16433D01*
X275060Y15523D01*
X274846Y14450D01*
Y10950D01*
X275060Y9877D01*
X275667Y8967D01*
X276577Y8360D01*
X277650Y8146D01*
X279400D01*
Y0D01*
X271254D01*
Y1750D01*
X271040Y2823D01*
X270433Y3733D01*
X269523Y4340D01*
X268450Y4554D01*
X264950D01*
X263877Y4340D01*
X262967Y3733D01*
X262360Y2823D01*
X262146Y1750D01*
Y0D01*
X258554D01*
Y1750D01*
X258340Y2823D01*
X257733Y3733D01*
X256823Y4340D01*
X255750Y4554D01*
X252250D01*
X251177Y4340D01*
X250267Y3733D01*
X249660Y2823D01*
X249446Y1750D01*
Y0D01*
X245854D01*
Y1750D01*
X245640Y2823D01*
X245033Y3733D01*
X244123Y4340D01*
X243050Y4554D01*
X239550D01*
X238477Y4340D01*
X237567Y3733D01*
X236960Y2823D01*
X236746Y1750D01*
Y0D01*
X233154D01*
Y1750D01*
X232940Y2823D01*
X232333Y3733D01*
X231423Y4340D01*
X230350Y4554D01*
X226850D01*
X225777Y4340D01*
X224867Y3733D01*
X224260Y2823D01*
X224046Y1750D01*
Y0D01*
X220454D01*
Y1750D01*
X220240Y2823D01*
X219633Y3733D01*
X218723Y4340D01*
X217650Y4554D01*
X214150D01*
X213077Y4340D01*
X212167Y3733D01*
X211560Y2823D01*
X211346Y1750D01*
Y0D01*
X207754D01*
Y1750D01*
X207540Y2823D01*
X206933Y3733D01*
X206023Y4340D01*
X204950Y4554D01*
X201450D01*
X200377Y4340D01*
X199467Y3733D01*
X198860Y2823D01*
X198646Y1750D01*
Y0D01*
X195054D01*
Y1750D01*
X194840Y2823D01*
X194233Y3733D01*
X193323Y4340D01*
X192250Y4554D01*
X188750D01*
X187677Y4340D01*
X186767Y3733D01*
X186160Y2823D01*
X185946Y1750D01*
Y0D01*
X182354D01*
Y1750D01*
X182140Y2823D01*
X181533Y3733D01*
X180623Y4340D01*
X179550Y4554D01*
X176050D01*
X174977Y4340D01*
X174067Y3733D01*
X173460Y2823D01*
X173246Y1750D01*
Y0D01*
X169654D01*
Y1750D01*
X169440Y2823D01*
X168833Y3733D01*
X167923Y4340D01*
X166850Y4554D01*
X163350D01*
X162277Y4340D01*
X161367Y3733D01*
X160760Y2823D01*
X160546Y1750D01*
Y0D01*
X156954D01*
Y1750D01*
X156740Y2823D01*
X156133Y3733D01*
X155223Y4340D01*
X154150Y4554D01*
X150650D01*
X149577Y4340D01*
X148667Y3733D01*
X148060Y2823D01*
X147846Y1750D01*
Y0D01*
X144254D01*
Y1750D01*
X144040Y2823D01*
X143433Y3733D01*
X142523Y4340D01*
X141450Y4554D01*
X137950D01*
X136877Y4340D01*
X135967Y3733D01*
X135360Y2823D01*
X135146Y1750D01*
Y0D01*
X131554D01*
Y1750D01*
X131340Y2823D01*
X130733Y3733D01*
X129823Y4340D01*
X128750Y4554D01*
X125250D01*
X124177Y4340D01*
X123267Y3733D01*
X122660Y2823D01*
X122446Y1750D01*
Y0D01*
X118854D01*
Y1750D01*
X118640Y2823D01*
X118033Y3733D01*
X117123Y4340D01*
X116050Y4554D01*
X112550D01*
X111477Y4340D01*
X110567Y3733D01*
X109960Y2823D01*
X109746Y1750D01*
Y0D01*
X106154D01*
Y1750D01*
X105940Y2823D01*
X105333Y3733D01*
X104423Y4340D01*
X103350Y4554D01*
X99850D01*
X98777Y4340D01*
X97867Y3733D01*
X97260Y2823D01*
X97046Y1750D01*
Y0D01*
X93454D01*
Y1750D01*
X93240Y2823D01*
X92633Y3733D01*
X91723Y4340D01*
X90650Y4554D01*
X87150D01*
X86077Y4340D01*
X85167Y3733D01*
X84560Y2823D01*
X84346Y1750D01*
Y0D01*
X80754D01*
Y1750D01*
X80540Y2823D01*
X79933Y3733D01*
X79023Y4340D01*
X77950Y4554D01*
X74450D01*
X73377Y4340D01*
X72467Y3733D01*
X71860Y2823D01*
X71646Y1750D01*
Y0D01*
X68054D01*
Y1750D01*
X67840Y2823D01*
X67233Y3733D01*
X66323Y4340D01*
X65250Y4554D01*
X61750D01*
X60677Y4340D01*
X59767Y3733D01*
X59160Y2823D01*
X58946Y1750D01*
Y0D01*
X55354D01*
Y1750D01*
X55140Y2823D01*
X54533Y3733D01*
X53623Y4340D01*
X52550Y4554D01*
X49050D01*
X47977Y4340D01*
X47067Y3733D01*
X46460Y2823D01*
X46246Y1750D01*
Y0D01*
X42654D01*
Y1750D01*
X42440Y2823D01*
X41833Y3733D01*
X40923Y4340D01*
X39850Y4554D01*
X36350D01*
X35277Y4340D01*
X34367Y3733D01*
X33760Y2823D01*
X33546Y1750D01*
Y0D01*
X29954D01*
Y1750D01*
X29740Y2823D01*
X29133Y3733D01*
X28223Y4340D01*
X27150Y4554D01*
X23650D01*
X22577Y4340D01*
X21667Y3733D01*
X21060Y2823D01*
X20846Y1750D01*
Y0D01*
X17254D01*
Y1750D01*
X17040Y2823D01*
X16433Y3733D01*
X15523Y4340D01*
X14450Y4554D01*
X10950D01*
X9877Y4340D01*
X8967Y3733D01*
X0Y12700D01*
Y33546D01*
X1750D01*
X2823Y33760D01*
X3733Y34367D01*
X4340Y35277D01*
X4554Y36350D01*
Y39850D01*
X4340Y40923D01*
X3733Y41833D01*
X2823Y42440D01*
X1750Y42654D01*
X0D01*
Y46246D01*
X1750D01*
X2823Y46460D01*
X3733Y47067D01*
X4340Y47977D01*
X4554Y49050D01*
Y50307D01*
X10523Y56277D01*
X11297Y57434D01*
X11521Y58563D01*
X12167Y58836D01*
X12839Y58877D01*
X12974Y58674D01*
X14959Y57348D01*
X17300Y56882D01*
X19641Y57348D01*
X21626Y58674D01*
X32076Y69124D01*
X33402Y71109D01*
X33867Y73450D01*
Y82716D01*
X34534Y83383D01*
X46774D01*
X47335Y82113D01*
X46732Y81211D01*
X46422Y79650D01*
X46732Y78089D01*
X47616Y76766D01*
X48939Y75882D01*
X50500Y75572D01*
X52061Y75882D01*
X53384Y76766D01*
X54268Y78089D01*
X54578Y79650D01*
X54268Y81211D01*
X53665Y82113D01*
X54226Y83383D01*
X66201D01*
Y62585D01*
X65924Y62171D01*
X65691Y61000D01*
X65924Y59830D01*
X66587Y58837D01*
X67579Y58174D01*
X68750Y57941D01*
X69921Y58174D01*
X70913Y58837D01*
X71576Y59830D01*
X71809Y61000D01*
X71576Y62171D01*
X71299Y62585D01*
Y85398D01*
X100611Y114710D01*
X101938Y116695D01*
X102403Y119036D01*
Y167714D01*
X102368Y167894D01*
Y177022D01*
X102768Y177353D01*
X103638Y177817D01*
X104171Y177711D01*
X104952Y177866D01*
X105613Y178308D01*
X106055Y178970D01*
X106211Y179750D01*
X106055Y180530D01*
X105613Y181192D01*
X104952Y181634D01*
X104171Y181789D01*
X103638Y181683D01*
X102768Y182147D01*
X102368Y182477D01*
Y193216D01*
X104288Y195137D01*
X104875Y195063D01*
X105737Y194789D01*
X106058Y194308D01*
X106720Y193866D01*
X107500Y193711D01*
X108280Y193866D01*
X108942Y194308D01*
X109384Y194970D01*
X109539Y195750D01*
X109384Y196530D01*
X108942Y197192D01*
X108461Y197513D01*
X108187Y198375D01*
X108113Y198962D01*
X110326Y201174D01*
X111652Y203159D01*
X112118Y205500D01*
X112118Y212000D01*
X112118Y212000D01*
X112118Y212000D01*
Y218500D01*
Y226742D01*
X113387Y227421D01*
X113470Y227366D01*
X114250Y227211D01*
X115030Y227366D01*
X115692Y227808D01*
X116134Y228470D01*
X116289Y229250D01*
X116134Y230030D01*
X115692Y230692D01*
X115030Y231134D01*
X114250Y231289D01*
X113470Y231134D01*
X113387Y231079D01*
X112118Y231758D01*
Y255216D01*
X120034Y263132D01*
X133678D01*
X134063Y261863D01*
X133808Y261692D01*
X133366Y261030D01*
X133211Y260250D01*
X133366Y259470D01*
X133808Y258808D01*
X134470Y258366D01*
X135250Y258211D01*
X136030Y258366D01*
X136692Y258808D01*
X137134Y259470D01*
X137289Y260250D01*
X137134Y261030D01*
X136692Y261692D01*
X136437Y261863D01*
X136822Y263132D01*
X147678D01*
X148063Y261863D01*
X147808Y261692D01*
X147366Y261030D01*
X147211Y260250D01*
X147366Y259470D01*
X147808Y258808D01*
X148470Y258366D01*
X149250Y258211D01*
X150030Y258366D01*
X150692Y258808D01*
X151134Y259470D01*
X151289Y260250D01*
X151134Y261030D01*
X150692Y261692D01*
X150437Y261863D01*
X150822Y263132D01*
X250716D01*
X262882Y250966D01*
D02*
G37*
G36*
X50268Y209948D02*
X51094Y209395D01*
X52070Y209201D01*
X75721D01*
X76862Y208889D01*
X76862Y208888D01*
X76862D01*
X76956Y207931D01*
X76720Y207884D01*
X76058Y207442D01*
X75616Y206780D01*
X75461Y206000D01*
X75616Y205220D01*
X76058Y204558D01*
X76720Y204116D01*
X77500Y203961D01*
X78280Y204116D01*
X78942Y204558D01*
X79384Y205220D01*
X79539Y206000D01*
X79384Y206780D01*
X78942Y207442D01*
X78280Y207884D01*
X78044Y207931D01*
X78138Y208888D01*
X78138D01*
X78138Y208889D01*
X79279Y209201D01*
X99634D01*
X99780Y207931D01*
X92907Y201059D01*
X92750D01*
X91580Y200826D01*
X90587Y200163D01*
X89924Y199170D01*
X89691Y198000D01*
X89924Y196829D01*
X90250Y196342D01*
X90133Y195750D01*
Y174310D01*
X89000Y173289D01*
X88220Y173134D01*
X87558Y172692D01*
X87116Y172030D01*
X86961Y171250D01*
X87116Y170470D01*
X87558Y169808D01*
X88220Y169366D01*
X89000Y169211D01*
X90133Y168190D01*
Y167750D01*
X90168Y167571D01*
Y162402D01*
X89250Y161290D01*
X88470Y161134D01*
X87808Y160692D01*
X87366Y160031D01*
X87211Y159250D01*
X87366Y158470D01*
X87808Y157808D01*
X88470Y157366D01*
X89250Y157211D01*
X90168Y156099D01*
Y154402D01*
X89250Y153289D01*
X88470Y153134D01*
X87808Y152692D01*
X87366Y152031D01*
X87211Y151250D01*
X87366Y150470D01*
X87808Y149808D01*
Y148692D01*
X87366Y148031D01*
X87211Y147250D01*
X87366Y146470D01*
X87808Y145808D01*
X87812Y144688D01*
X87370Y144027D01*
X87215Y143246D01*
X87370Y142466D01*
X87812Y141804D01*
X88474Y141362D01*
X89254Y141207D01*
X90168Y140094D01*
Y138152D01*
X89250Y137039D01*
X88470Y136884D01*
X87808Y136442D01*
X87366Y135780D01*
X87211Y135000D01*
X87366Y134220D01*
X87808Y133558D01*
X88470Y133116D01*
X89250Y132961D01*
X90168Y131849D01*
Y121570D01*
X76206Y107608D01*
X75036Y108233D01*
X75039Y108250D01*
X74884Y109030D01*
X74442Y109692D01*
X73780Y110134D01*
X73000Y110289D01*
X72220Y110134D01*
X71558Y109692D01*
X71116Y109030D01*
X70961Y108250D01*
X71116Y107470D01*
X71558Y106808D01*
X72220Y106366D01*
X73000Y106211D01*
X73017Y106214D01*
X73642Y105044D01*
X64216Y95618D01*
X32000D01*
X29659Y95152D01*
X27674Y93826D01*
X23424Y89576D01*
X22098Y87591D01*
X21632Y85250D01*
Y81502D01*
X20363Y81117D01*
X20184Y81384D01*
X18861Y82268D01*
X17300Y82578D01*
X15739Y82268D01*
X14416Y81384D01*
X13532Y80061D01*
X13222Y78500D01*
X13532Y76939D01*
X14416Y75616D01*
X15739Y74732D01*
X17300Y74422D01*
X18516Y74664D01*
X19188Y73540D01*
X12974Y67326D01*
X12839Y67123D01*
X11569Y67508D01*
Y169001D01*
X12839Y169387D01*
X13058Y169058D01*
X13720Y168616D01*
X14500Y168461D01*
X15280Y168616D01*
X15942Y169058D01*
X16365Y169691D01*
X16384Y169720D01*
Y169720D01*
X16539Y170500D01*
X17250Y170711D01*
X18030Y170866D01*
X18692Y171308D01*
X19134Y171970D01*
X19289Y172750D01*
X19134Y173530D01*
X18743Y174116D01*
X18828Y174428D01*
X19327Y175295D01*
X19409Y175279D01*
X19750Y175211D01*
X20530Y175366D01*
X21192Y175808D01*
X21634Y176470D01*
X21789Y177250D01*
X21634Y178030D01*
X21192Y178692D01*
X20530Y179134D01*
X19750Y179289D01*
X18970Y179134D01*
X18308Y178692D01*
X17866Y178030D01*
X17711Y177250D01*
X17866Y176470D01*
X18257Y175884D01*
X18172Y175572D01*
X17673Y174705D01*
X17592Y174721D01*
X17250Y174789D01*
X16470Y174634D01*
X15808Y174192D01*
X15385Y173559D01*
X15366Y173530D01*
Y173530D01*
X15211Y172750D01*
X14500Y172539D01*
X13720Y172384D01*
X13058Y171942D01*
X12839Y171613D01*
X11569Y171999D01*
Y189772D01*
X12523Y190727D01*
X13297Y191884D01*
X13569Y193250D01*
Y197890D01*
X14839Y198743D01*
X15000Y198711D01*
X15780Y198866D01*
X16442Y199308D01*
X16884Y199970D01*
X17039Y200750D01*
X16903Y201436D01*
X16912Y201575D01*
X17626Y202706D01*
X19000D01*
X19878Y202881D01*
X20622Y203378D01*
X26372Y209128D01*
X26869Y209872D01*
X27044Y210750D01*
Y223280D01*
X31990Y228225D01*
X50268Y209948D01*
D02*
G37*
%LPC*%
G36*
X14250Y273039D02*
X13470Y272884D01*
X12808Y272442D01*
X12366Y271780D01*
X12211Y271000D01*
X12366Y270220D01*
X12808Y269558D01*
X13470Y269116D01*
X14250Y268961D01*
X15030Y269116D01*
X15692Y269558D01*
X16134Y270220D01*
X16289Y271000D01*
X16134Y271780D01*
X15692Y272442D01*
X15030Y272884D01*
X14250Y273039D01*
D02*
G37*
G36*
X193750Y257789D02*
X192970Y257634D01*
X192308Y257192D01*
X191866Y256530D01*
X191711Y255750D01*
X191866Y254970D01*
X192308Y254308D01*
X192970Y253866D01*
X193750Y253711D01*
X194530Y253866D01*
X195192Y254308D01*
X195634Y254970D01*
X195789Y255750D01*
X195634Y256530D01*
X195192Y257192D01*
X194530Y257634D01*
X193750Y257789D01*
D02*
G37*
G36*
X254850Y253789D02*
X254070Y253634D01*
X253408Y253192D01*
X252966Y252530D01*
X252811Y251750D01*
X252966Y250970D01*
X253408Y250308D01*
X254070Y249866D01*
X254850Y249711D01*
X255630Y249866D01*
X256292Y250308D01*
X256734Y250970D01*
X256889Y251750D01*
X256734Y252530D01*
X256292Y253192D01*
X255630Y253634D01*
X254850Y253789D01*
D02*
G37*
G36*
X229750D02*
X228970Y253634D01*
X228308Y253192D01*
X227866Y252530D01*
X227711Y251750D01*
X227866Y250970D01*
X228308Y250308D01*
X228970Y249866D01*
X229750Y249711D01*
X230530Y249866D01*
X231192Y250308D01*
X231634Y250970D01*
X231789Y251750D01*
X231634Y252530D01*
X231192Y253192D01*
X230530Y253634D01*
X229750Y253789D01*
D02*
G37*
G36*
X183750D02*
X182970Y253634D01*
X182308Y253192D01*
X181866Y252530D01*
X181711Y251750D01*
X181866Y250970D01*
X182308Y250308D01*
X182970Y249866D01*
X183750Y249711D01*
X184530Y249866D01*
X185192Y250308D01*
X185634Y250970D01*
X185789Y251750D01*
X185634Y252530D01*
X185192Y253192D01*
X184530Y253634D01*
X183750Y253789D01*
D02*
G37*
G36*
X153750Y250539D02*
X152970Y250384D01*
X152308Y249942D01*
X151866Y249280D01*
X151711Y248500D01*
X151866Y247720D01*
X152308Y247058D01*
X152970Y246616D01*
X153750Y246461D01*
X154530Y246616D01*
X155192Y247058D01*
X155634Y247720D01*
X155789Y248500D01*
X155634Y249280D01*
X155192Y249942D01*
X154530Y250384D01*
X153750Y250539D01*
D02*
G37*
G36*
X193750Y249789D02*
X192970Y249634D01*
X192308Y249192D01*
X191866Y248530D01*
X191711Y247750D01*
X191866Y246970D01*
X192308Y246308D01*
X192970Y245866D01*
X193750Y245711D01*
X194530Y245866D01*
X195192Y246308D01*
X195634Y246970D01*
X195789Y247750D01*
X195634Y248530D01*
X195192Y249192D01*
X194530Y249634D01*
X193750Y249789D01*
D02*
G37*
G36*
X129750D02*
X128970Y249634D01*
X128308Y249192D01*
X127866Y248530D01*
X127711Y247750D01*
X127866Y246970D01*
X128308Y246308D01*
X128970Y245866D01*
X129750Y245711D01*
X130530Y245866D01*
X131192Y246308D01*
X131634Y246970D01*
X131789Y247750D01*
X131634Y248530D01*
X131192Y249192D01*
X130530Y249634D01*
X129750Y249789D01*
D02*
G37*
G36*
X125750Y239539D02*
X124970Y239384D01*
X124308Y238942D01*
X123866Y238280D01*
X123711Y237500D01*
X123866Y236720D01*
X124308Y236058D01*
X124970Y235616D01*
X125750Y235461D01*
X126530Y235616D01*
X127192Y236058D01*
X127634Y236720D01*
X127789Y237500D01*
X127634Y238280D01*
X127192Y238942D01*
X126530Y239384D01*
X125750Y239539D01*
D02*
G37*
G36*
X171750Y238789D02*
X170970Y238634D01*
X170308Y238192D01*
X169866Y237530D01*
X169711Y236750D01*
X169866Y235970D01*
X170308Y235308D01*
X170970Y234866D01*
X171750Y234711D01*
X172530Y234866D01*
X173192Y235308D01*
X173634Y235970D01*
X173789Y236750D01*
X173634Y237530D01*
X173192Y238192D01*
X172530Y238634D01*
X171750Y238789D01*
D02*
G37*
G36*
X161750Y238789D02*
X160970Y238634D01*
X160308Y238192D01*
X159866Y237530D01*
X159711Y236750D01*
X159866Y235970D01*
X160308Y235308D01*
X160970Y234866D01*
X161750Y234711D01*
X162530Y234866D01*
X163192Y235308D01*
X163634Y235970D01*
X163789Y236750D01*
X163634Y237530D01*
X163192Y238192D01*
X162530Y238634D01*
X161750Y238789D01*
D02*
G37*
G36*
X225750Y233789D02*
X224970Y233634D01*
X224308Y233192D01*
X223866Y232530D01*
X223711Y231750D01*
X223866Y230970D01*
X224308Y230308D01*
X224970Y229866D01*
X225750Y229711D01*
X226530Y229866D01*
X227192Y230308D01*
X227634Y230970D01*
X227789Y231750D01*
X227634Y232530D01*
X227192Y233192D01*
X226530Y233634D01*
X225750Y233789D01*
D02*
G37*
G36*
X217750D02*
X216970Y233634D01*
X216308Y233192D01*
X215866Y232530D01*
X215711Y231750D01*
X215866Y230970D01*
X216308Y230308D01*
X216970Y229866D01*
X217750Y229711D01*
X218530Y229866D01*
X219192Y230308D01*
X219634Y230970D01*
X219789Y231750D01*
X219634Y232530D01*
X219192Y233192D01*
X218530Y233634D01*
X217750Y233789D01*
D02*
G37*
G36*
X119250Y241289D02*
X118470Y241134D01*
X117808Y240692D01*
X117366Y240030D01*
X117211Y239250D01*
X117366Y238470D01*
X117808Y237808D01*
X117814Y237763D01*
X117624Y236403D01*
X117308Y236192D01*
X116866Y235530D01*
X116711Y234750D01*
X116866Y233970D01*
X117308Y233308D01*
X117970Y232866D01*
X118612Y232738D01*
X118750Y232711D01*
X119711Y231750D01*
X119738Y231612D01*
X119866Y230970D01*
X120308Y230308D01*
X120970Y229866D01*
X121750Y229711D01*
X122530Y229866D01*
X123192Y230308D01*
X123634Y230970D01*
X123789Y231750D01*
X123634Y232530D01*
X123192Y233192D01*
X122530Y233634D01*
X121887Y233762D01*
X121750Y233789D01*
X120789Y234750D01*
X120762Y234888D01*
X120634Y235530D01*
X120192Y236192D01*
X120186Y236237D01*
X120375Y237597D01*
X120692Y237808D01*
X121134Y238470D01*
X121289Y239250D01*
X121134Y240030D01*
X120692Y240692D01*
X120030Y241134D01*
X119250Y241289D01*
D02*
G37*
G36*
X146250Y233289D02*
X145470Y233134D01*
X144808Y232692D01*
X144366Y232030D01*
X144211Y231250D01*
X144366Y230470D01*
X144808Y229808D01*
X145470Y229366D01*
X146250Y229211D01*
X147030Y229366D01*
X147692Y229808D01*
X148134Y230470D01*
X148289Y231250D01*
X148134Y232030D01*
X147692Y232692D01*
X147030Y233134D01*
X146250Y233289D01*
D02*
G37*
G36*
X137250Y233039D02*
X136470Y232884D01*
X135808Y232442D01*
X135366Y231780D01*
X135211Y231000D01*
X135366Y230220D01*
X135808Y229558D01*
X136470Y229116D01*
X137250Y228961D01*
X138030Y229116D01*
X138692Y229558D01*
X139134Y230220D01*
X139289Y231000D01*
X139134Y231780D01*
X138692Y232442D01*
X138030Y232884D01*
X137250Y233039D01*
D02*
G37*
G36*
X185750Y234539D02*
X184970Y234384D01*
X184308Y233942D01*
X183866Y233280D01*
X183711Y232500D01*
X183866Y231720D01*
X184308Y231058D01*
X184970Y230616D01*
X185750Y230461D01*
X186530Y230616D01*
X187192Y231058D01*
X188116Y230280D01*
X187961Y229500D01*
X188116Y228720D01*
X188558Y228058D01*
X189220Y227616D01*
X190000Y227461D01*
X190780Y227616D01*
X191442Y228058D01*
X191884Y228720D01*
X192039Y229500D01*
X191884Y230280D01*
X191442Y230942D01*
X190780Y231384D01*
X190000Y231539D01*
X189220Y231384D01*
X188558Y230942D01*
X187634Y231720D01*
X187789Y232500D01*
X187634Y233280D01*
X187192Y233942D01*
X186530Y234384D01*
X185750Y234539D01*
D02*
G37*
G36*
X157750Y231049D02*
X156775Y230855D01*
X155948Y230302D01*
X155395Y229475D01*
X155201Y228500D01*
X155395Y227525D01*
X155948Y226698D01*
X156775Y226145D01*
X157750Y225951D01*
X158725Y226145D01*
X159552Y226698D01*
X160105Y227525D01*
X160299Y228500D01*
X160105Y229475D01*
X159552Y230302D01*
X158725Y230855D01*
X157750Y231049D01*
D02*
G37*
G36*
X120750Y225789D02*
X119970Y225634D01*
X119308Y225192D01*
X118866Y224530D01*
X118711Y223750D01*
X118866Y222970D01*
X119308Y222308D01*
X119970Y221866D01*
X120750Y221711D01*
X121530Y221866D01*
X122192Y222308D01*
X122634Y222970D01*
X122789Y223750D01*
X122634Y224530D01*
X122192Y225192D01*
X121530Y225634D01*
X120750Y225789D01*
D02*
G37*
G36*
X241750Y225789D02*
X240970Y225634D01*
X240308Y225192D01*
X239866Y224530D01*
X239711Y223750D01*
X239866Y222970D01*
X240308Y222308D01*
X240970Y221866D01*
X241750Y221711D01*
X242530Y221866D01*
X243192Y222308D01*
X243634Y222970D01*
X243789Y223750D01*
X243634Y224530D01*
X243192Y225192D01*
X242530Y225634D01*
X241750Y225789D01*
D02*
G37*
G36*
X129750D02*
X128970Y225634D01*
X128308Y225192D01*
X127866Y224530D01*
X127711Y223750D01*
X127866Y222970D01*
X128308Y222308D01*
X128970Y221866D01*
X129750Y221711D01*
X130530Y221866D01*
X131192Y222308D01*
X131634Y222970D01*
X131789Y223750D01*
X131634Y224530D01*
X131192Y225192D01*
X130530Y225634D01*
X129750Y225789D01*
D02*
G37*
G36*
X225750Y226539D02*
X224970Y226384D01*
X224308Y225942D01*
X223866Y225280D01*
X223711Y224500D01*
X223866Y223720D01*
X224308Y223058D01*
X224970Y222616D01*
X225750Y222461D01*
X226486Y222607D01*
X226537Y222613D01*
X227864Y221980D01*
X227866Y221970D01*
X228308Y221308D01*
X228970Y220866D01*
X229750Y220711D01*
X230530Y220866D01*
X231192Y221308D01*
X231634Y221970D01*
X231789Y222750D01*
X231634Y223530D01*
X231192Y224192D01*
X230530Y224634D01*
X229750Y224789D01*
X229014Y224643D01*
X228964Y224637D01*
X227636Y225270D01*
X227634Y225280D01*
X227192Y225942D01*
X226530Y226384D01*
X225750Y226539D01*
D02*
G37*
G36*
X169250Y226289D02*
X168470Y226134D01*
X167808Y225692D01*
X167366Y225030D01*
X167211Y224250D01*
X167366Y223470D01*
X167808Y222808D01*
X168397Y222414D01*
X168470Y221851D01*
Y221649D01*
X168397Y221086D01*
X167808Y220692D01*
X167433Y220131D01*
X167289Y220016D01*
X165910Y220444D01*
X165884Y220530D01*
X165831Y220610D01*
X165442Y221192D01*
X164780Y221634D01*
X164000Y221789D01*
X163220Y221634D01*
X162558Y221192D01*
X162116Y220530D01*
X161961Y219750D01*
X162116Y218970D01*
X162558Y218308D01*
X163220Y217866D01*
X164000Y217711D01*
X164780Y217866D01*
X165442Y218308D01*
X165817Y218869D01*
X165961Y218984D01*
X167340Y218556D01*
X167366Y218470D01*
X167419Y218390D01*
X167808Y217808D01*
X168470Y217366D01*
X169250Y217211D01*
X170030Y217366D01*
X170692Y217808D01*
X171134Y218470D01*
X171289Y219250D01*
X171134Y220030D01*
X170692Y220692D01*
X170103Y221086D01*
X170030Y221649D01*
Y221851D01*
X170103Y222414D01*
X170692Y222808D01*
X171134Y223470D01*
X171289Y224250D01*
X171134Y225030D01*
X170692Y225692D01*
X170030Y226134D01*
X169250Y226289D01*
D02*
G37*
G36*
X141750Y222539D02*
X140970Y222384D01*
X140308Y221942D01*
X139866Y221280D01*
X139711Y220500D01*
X139866Y219720D01*
X140308Y219058D01*
X140970Y218616D01*
X141750Y218461D01*
X142530Y218616D01*
X143192Y219058D01*
X143634Y219720D01*
X143789Y220500D01*
X143634Y221280D01*
X143192Y221942D01*
X142530Y222384D01*
X141750Y222539D01*
D02*
G37*
G36*
X134250Y221289D02*
X133470Y221134D01*
X132808Y220692D01*
X132366Y220030D01*
X132211Y219250D01*
X132366Y218470D01*
X132808Y217808D01*
X133470Y217366D01*
X134250Y217211D01*
X135030Y217366D01*
X135692Y217808D01*
X136134Y218470D01*
X136289Y219250D01*
X136134Y220030D01*
X135692Y220692D01*
X135030Y221134D01*
X134250Y221289D01*
D02*
G37*
G36*
X124250D02*
X123470Y221134D01*
X122808Y220692D01*
X122366Y220030D01*
X122211Y219250D01*
X122366Y218470D01*
X122808Y217808D01*
X123470Y217366D01*
X124250Y217211D01*
X125030Y217366D01*
X125692Y217808D01*
X126134Y218470D01*
X126289Y219250D01*
X126134Y220030D01*
X125692Y220692D01*
X125030Y221134D01*
X124250Y221289D01*
D02*
G37*
G36*
X207500Y219539D02*
X206720Y219384D01*
X206058Y218942D01*
X205616Y218280D01*
X205461Y217500D01*
X205616Y216720D01*
X206058Y216058D01*
X206720Y215616D01*
X207500Y215461D01*
X208280Y215616D01*
X208942Y216058D01*
X209384Y216720D01*
X209539Y217500D01*
X209384Y218280D01*
X208942Y218942D01*
X208280Y219384D01*
X207500Y219539D01*
D02*
G37*
G36*
X116750Y218789D02*
X115969Y218634D01*
X115308Y218192D01*
X114866Y217530D01*
X114711Y216750D01*
X114866Y215970D01*
X115308Y215308D01*
X115969Y214866D01*
X116750Y214711D01*
X117530Y214866D01*
X118192Y215308D01*
X118634Y215970D01*
X118789Y216750D01*
X118634Y217530D01*
X118192Y218192D01*
X117530Y218634D01*
X116750Y218789D01*
D02*
G37*
G36*
X151250Y215539D02*
X150470Y215384D01*
X149808Y214942D01*
X149366Y214280D01*
X149211Y213500D01*
X149366Y212720D01*
X149502Y212515D01*
X149708Y211625D01*
X149503Y210735D01*
X149366Y210530D01*
X149211Y209750D01*
X149366Y208970D01*
X149808Y208308D01*
X150470Y207866D01*
X151250Y207711D01*
X152030Y207866D01*
X152692Y208308D01*
X153134Y208970D01*
X153289Y209750D01*
X153134Y210530D01*
X152997Y210735D01*
X152792Y211625D01*
X152997Y212515D01*
X153134Y212720D01*
X153289Y213500D01*
X153134Y214280D01*
X152692Y214942D01*
X152030Y215384D01*
X151250Y215539D01*
D02*
G37*
G36*
X145250Y210039D02*
X144470Y209884D01*
X143808Y209442D01*
X143366Y208780D01*
X143211Y208000D01*
X143366Y207220D01*
X143808Y206558D01*
X144470Y206116D01*
X145250Y205961D01*
X146030Y206116D01*
X146692Y206558D01*
X147134Y207220D01*
X147289Y208000D01*
X147134Y208780D01*
X146692Y209442D01*
X146030Y209884D01*
X145250Y210039D01*
D02*
G37*
G36*
X201750Y217789D02*
X200970Y217634D01*
X200308Y217192D01*
X199866Y216530D01*
X199711Y215750D01*
X199848Y215059D01*
X199842Y214931D01*
X199127Y213789D01*
X192500D01*
X191720Y213634D01*
X191058Y213192D01*
X190616Y212530D01*
X190461Y211750D01*
X190616Y210970D01*
X191058Y210308D01*
X191462Y210038D01*
X191731Y209769D01*
X191873Y208541D01*
X191866Y208530D01*
X191711Y207750D01*
X191848Y207059D01*
X191842Y206931D01*
X191127Y205789D01*
X166595D01*
X165192Y207192D01*
X164530Y207634D01*
X163750Y207789D01*
X162970Y207634D01*
X162308Y207192D01*
X161866Y206530D01*
X161711Y205750D01*
X161866Y204970D01*
X162308Y204308D01*
X164308Y202308D01*
X164308Y202308D01*
X164970Y201866D01*
X165750Y201711D01*
X165750Y201711D01*
X183127D01*
X183842Y200569D01*
X183848Y200441D01*
X183711Y199750D01*
X183866Y198970D01*
X184308Y198308D01*
X184970Y197866D01*
X185750Y197711D01*
X186530Y197866D01*
X187192Y198308D01*
X187634Y198970D01*
X187789Y199750D01*
X187652Y200441D01*
X187658Y200569D01*
X188373Y201711D01*
X199127D01*
X199842Y200569D01*
X199848Y200441D01*
X199711Y199750D01*
X199866Y198970D01*
X200308Y198308D01*
X200970Y197866D01*
X201750Y197711D01*
X202530Y197866D01*
X203192Y198308D01*
X203634Y198970D01*
X203789Y199750D01*
X203652Y200441D01*
X203658Y200569D01*
X204373Y201711D01*
X208155D01*
X212942Y196924D01*
X212950Y196559D01*
X212650Y195420D01*
X212308Y195192D01*
X211743Y194627D01*
X211116Y195047D01*
X209750Y195319D01*
X208384Y195047D01*
X207227Y194273D01*
X206453Y193116D01*
X206181Y191750D01*
X206453Y190384D01*
X207227Y189227D01*
X214144Y182309D01*
X213618Y181039D01*
X191595D01*
X188039Y184595D01*
Y184607D01*
X189000Y185711D01*
X189780Y185866D01*
X190442Y186308D01*
X191058D01*
X191720Y185866D01*
X192500Y185711D01*
X193280Y185866D01*
X193942Y186308D01*
X194384Y186970D01*
X194539Y187750D01*
X194384Y188530D01*
X193942Y189192D01*
X193280Y189634D01*
X192500Y189789D01*
X191720Y189634D01*
X191058Y189192D01*
X190442D01*
X189780Y189634D01*
X189000Y189789D01*
X188220Y189634D01*
X187558Y189192D01*
X186642Y189991D01*
X183442Y193192D01*
X182780Y193634D01*
X182000Y193789D01*
X181220Y193634D01*
X180558Y193192D01*
X180116Y192530D01*
X179961Y191750D01*
X180116Y190970D01*
X180558Y190308D01*
X180984Y189882D01*
X181031Y189634D01*
X180750Y188320D01*
X180558Y188192D01*
X180295Y187798D01*
X179239Y187499D01*
X178812Y187484D01*
X173398Y192898D01*
X172250Y193374D01*
X166000D01*
X164852Y192898D01*
X155102Y183148D01*
X154626Y182000D01*
Y178910D01*
X153750Y177789D01*
X152970Y177634D01*
X152308Y177192D01*
X150942D01*
X150280Y177634D01*
X149500Y177789D01*
X148720Y177634D01*
X148058Y177192D01*
X147192D01*
X146530Y177634D01*
X145750Y177789D01*
X144970Y177634D01*
X144308Y177192D01*
X143192D01*
X142530Y177634D01*
X141750Y177789D01*
X140970Y177634D01*
X140308Y177192D01*
X139866Y176530D01*
X139711Y175750D01*
X139866Y174970D01*
X140308Y174308D01*
X140970Y173866D01*
X141750Y173711D01*
X142530Y173866D01*
X142856Y174084D01*
X143966Y173657D01*
X144126Y173521D01*
Y171750D01*
X144538Y170757D01*
X144600Y170594D01*
X144308Y169192D01*
X143866Y168530D01*
X143711Y167750D01*
X143866Y166970D01*
X144308Y166308D01*
X144970Y165866D01*
X145750Y165711D01*
X146530Y165866D01*
X147192Y166308D01*
X148731Y166472D01*
X151477Y163727D01*
X152351Y163365D01*
X152860Y162078D01*
X152602Y161820D01*
X152355Y161223D01*
X152308Y161192D01*
X151866Y160530D01*
X151711Y159750D01*
X151866Y158970D01*
X152308Y158308D01*
X152970Y157866D01*
X153750Y157711D01*
X153856Y157732D01*
X155126Y156853D01*
Y155422D01*
X153429Y153725D01*
X152970Y153634D01*
X152308Y153192D01*
X151866Y152530D01*
X151711Y151750D01*
X151866Y150970D01*
X152308Y150308D01*
X152970Y149866D01*
X153750Y149711D01*
X154530Y149866D01*
X155192Y150308D01*
X155634Y150970D01*
X155725Y151429D01*
X157898Y153602D01*
X158374Y154750D01*
Y158991D01*
X158544Y159108D01*
X158893Y159071D01*
X160091Y158632D01*
X160308Y158308D01*
X160970Y157866D01*
X161750Y157711D01*
X162530Y157866D01*
X163192Y158308D01*
X163634Y158970D01*
X163789Y159750D01*
X163634Y160530D01*
X163192Y161192D01*
X162530Y161634D01*
X161782Y161783D01*
X161682Y161927D01*
X161172Y162969D01*
X163398Y165195D01*
X163874Y166343D01*
Y171077D01*
X165923Y173126D01*
X180092D01*
X220626Y132592D01*
Y78000D01*
X221102Y76852D01*
X232626Y65328D01*
Y62920D01*
X232366Y62530D01*
X232211Y61750D01*
X232366Y60970D01*
X232808Y60308D01*
X233470Y59866D01*
X234250Y59711D01*
X235030Y59866D01*
X235692Y60308D01*
X236308D01*
X236970Y59866D01*
X237750Y59711D01*
X238530Y59866D01*
X239192Y60308D01*
X239634Y60970D01*
X239789Y61750D01*
X239634Y62530D01*
X239374Y62920D01*
Y65328D01*
X238898Y66476D01*
X232800Y72575D01*
X232794Y72945D01*
X233095Y74076D01*
X233442Y74308D01*
X233505Y74402D01*
X235023Y74681D01*
X235102Y74601D01*
X236250Y74126D01*
X238830D01*
X239220Y73866D01*
X240000Y73710D01*
X240780Y73866D01*
X241442Y74308D01*
X241505Y74402D01*
X243023Y74681D01*
X256626Y61077D01*
Y57170D01*
X256366Y56781D01*
X256211Y56000D01*
X256285Y55625D01*
X255597Y54717D01*
X255307Y54528D01*
X255250Y54539D01*
X254470Y54384D01*
X254074Y54120D01*
X253692Y54692D01*
X253030Y55134D01*
X252250Y55289D01*
X251470Y55134D01*
X250808Y54692D01*
X250366Y54030D01*
X250211Y53250D01*
X250366Y52470D01*
X250808Y51808D01*
X251470Y51366D01*
X252250Y51211D01*
X253030Y51366D01*
X253426Y51630D01*
X253808Y51058D01*
X254470Y50616D01*
X255250Y50461D01*
X256030Y50616D01*
X256692Y51058D01*
X257134Y51720D01*
X257289Y52500D01*
X257214Y52875D01*
X257903Y53783D01*
X258193Y53972D01*
X258250Y53961D01*
X259030Y54116D01*
X259692Y54558D01*
X260134Y55220D01*
X260289Y56000D01*
X260134Y56781D01*
X259874Y57170D01*
Y61750D01*
X259398Y62898D01*
X241874Y80422D01*
Y89250D01*
X241398Y90398D01*
X236124Y95673D01*
Y104615D01*
X236271Y104890D01*
X237377Y105618D01*
X237834Y105492D01*
X238198Y104947D01*
X239025Y104395D01*
X240000Y104201D01*
X251999D01*
X252975Y104395D01*
X253802Y104947D01*
X254113Y105258D01*
X254372Y105302D01*
X255668Y105017D01*
X255808Y104808D01*
X256470Y104366D01*
X257250Y104211D01*
X258030Y104366D01*
X258692Y104808D01*
X259134Y105470D01*
X259289Y106250D01*
X259134Y107030D01*
X258692Y107692D01*
X258483Y107832D01*
X258418Y108040D01*
X259025Y109201D01*
X266500D01*
X267475Y109395D01*
X268302Y109948D01*
X268549Y110317D01*
X269911Y110418D01*
X270006Y110386D01*
X270058Y110308D01*
X270720Y109866D01*
X271500Y109711D01*
X272280Y109866D01*
X272942Y110308D01*
X273384Y110969D01*
X273539Y111750D01*
X273384Y112530D01*
X272942Y113192D01*
X272280Y113634D01*
X271500Y113789D01*
X270720Y113634D01*
X270058Y113192D01*
X270006Y113114D01*
X269911Y113082D01*
X268549Y113182D01*
X268302Y113552D01*
X267475Y114105D01*
X266500Y114299D01*
X257000D01*
X256024Y114105D01*
X255198Y113552D01*
X250944Y109298D01*
X241641D01*
X241115Y110569D01*
X244398Y113852D01*
X244874Y115000D01*
Y160828D01*
X250398Y166352D01*
X250874Y167500D01*
Y169328D01*
X264321Y182775D01*
X264780Y182866D01*
X265442Y183308D01*
X265884Y183970D01*
X266039Y184750D01*
X265884Y185530D01*
X265442Y186192D01*
X264780Y186634D01*
X264000Y186789D01*
X263220Y186634D01*
X262558Y186192D01*
X262116Y185530D01*
X262024Y185071D01*
X249531Y172577D01*
X248332Y172629D01*
X248007Y172744D01*
X247674Y173424D01*
X247789Y174000D01*
X247634Y174781D01*
X247192Y175442D01*
X246530Y175884D01*
X245750Y176039D01*
X244969Y175884D01*
X244308Y175442D01*
X243866Y174781D01*
X243710Y174000D01*
X243866Y173220D01*
X244180Y172750D01*
X243866Y172280D01*
X243711Y171500D01*
X243866Y170720D01*
X244180Y170250D01*
X243866Y169780D01*
X243711Y169000D01*
X243866Y168220D01*
X244308Y167558D01*
X244852Y167194D01*
X245000Y166956D01*
X245224Y165770D01*
X242102Y162648D01*
X241626Y161500D01*
Y142596D01*
X241410Y142350D01*
X240356Y141718D01*
X240000Y141789D01*
X239220Y141634D01*
X238558Y141192D01*
X238116Y140530D01*
X237961Y139750D01*
X238116Y138969D01*
X238558Y138308D01*
X239220Y137866D01*
X240000Y137710D01*
X240356Y137781D01*
X241410Y137149D01*
X241626Y136903D01*
Y134596D01*
X241410Y134350D01*
X240356Y133718D01*
X240000Y133789D01*
X239220Y133634D01*
X238558Y133191D01*
X238116Y132530D01*
X237961Y131750D01*
X238116Y130969D01*
X238558Y130308D01*
X239220Y129866D01*
X240000Y129710D01*
X240356Y129781D01*
X241410Y129150D01*
X241626Y128904D01*
Y126596D01*
X241410Y126350D01*
X240356Y125718D01*
X240000Y125789D01*
X239220Y125634D01*
X238558Y125191D01*
X238116Y124530D01*
X237961Y123750D01*
X238116Y122969D01*
X238507Y122384D01*
X238421Y122070D01*
X237922Y121205D01*
X237842Y121221D01*
X237500Y121289D01*
X236720Y121134D01*
X236058Y120692D01*
X235616Y120030D01*
X235461Y119250D01*
X235616Y118470D01*
X236058Y117808D01*
X235558Y117192D01*
X235164Y116603D01*
X234601Y116530D01*
X234398Y116530D01*
X233835Y116602D01*
X233442Y117191D01*
X232780Y117633D01*
X232000Y117789D01*
X231394Y117668D01*
X230941Y117835D01*
X230124Y118429D01*
Y121070D01*
X230941Y121664D01*
X231394Y121831D01*
X232000Y121710D01*
X232780Y121866D01*
X233442Y122308D01*
X233884Y122969D01*
X234039Y123750D01*
X233884Y124530D01*
X233442Y125191D01*
X232780Y125633D01*
X232000Y125789D01*
X231394Y125668D01*
X230941Y125836D01*
X230124Y126429D01*
Y129071D01*
X230941Y129664D01*
X231394Y129831D01*
X232000Y129710D01*
X232780Y129866D01*
X233442Y130308D01*
X233884Y130969D01*
X234039Y131750D01*
X233884Y132530D01*
X233442Y133191D01*
X232780Y133634D01*
X232000Y133789D01*
X231394Y133668D01*
X230941Y133835D01*
X230124Y134429D01*
Y135500D01*
X229648Y136648D01*
X201789Y164507D01*
X202277Y165816D01*
X202530Y165866D01*
X203192Y166308D01*
X203634Y166970D01*
X203789Y167750D01*
X203634Y168530D01*
X203192Y169192D01*
X202530Y169634D01*
X201750Y169789D01*
X200970Y169634D01*
X200308Y169192D01*
X199866Y168530D01*
X199816Y168277D01*
X198507Y167789D01*
X193790Y172507D01*
X194277Y173816D01*
X194530Y173866D01*
X195192Y174308D01*
X195634Y174970D01*
X195789Y175750D01*
X196758Y176961D01*
X206742D01*
X207711Y175750D01*
X207866Y174970D01*
X208308Y174308D01*
X208970Y173866D01*
X209750Y173711D01*
X210530Y173866D01*
X211192Y174308D01*
X211634Y174970D01*
X211789Y175750D01*
X212757Y176961D01*
X224655D01*
X228308Y173308D01*
X228308Y173308D01*
X228552Y173145D01*
X228843Y171885D01*
X228807Y171604D01*
X227227Y170023D01*
X226453Y168866D01*
X226181Y167500D01*
X226453Y166134D01*
X227227Y164977D01*
X228384Y164203D01*
X229750Y163931D01*
X231116Y164203D01*
X232273Y164977D01*
X237273Y169977D01*
X238047Y171134D01*
X238319Y172500D01*
Y182000D01*
X238047Y183365D01*
X237273Y184523D01*
X232273Y189523D01*
X231116Y190297D01*
X230762Y190367D01*
X230596Y191263D01*
X230637Y191687D01*
X231192Y192058D01*
X231634Y192720D01*
X231789Y193500D01*
X231634Y194280D01*
X231192Y194942D01*
X230530Y195384D01*
X229750Y195539D01*
X220095D01*
X218846Y196787D01*
X219332Y197961D01*
X229750D01*
X230530Y198116D01*
X231192Y198558D01*
X231634Y199220D01*
X231789Y200000D01*
X231634Y200780D01*
X231192Y201442D01*
X230530Y201884D01*
X229750Y202039D01*
X218345D01*
X217096Y203288D01*
X217582Y204461D01*
X229750D01*
X230530Y204616D01*
X231192Y205058D01*
X231634Y205720D01*
X231789Y206500D01*
X231634Y207280D01*
X231192Y207942D01*
X230530Y208384D01*
X229750Y208539D01*
X226869D01*
X226744Y209809D01*
X227030Y209866D01*
X227692Y210308D01*
X228134Y210970D01*
X228289Y211750D01*
X228134Y212530D01*
X227692Y213192D01*
X227030Y213634D01*
X226250Y213789D01*
X225469Y213634D01*
X224808Y213192D01*
X224366Y212530D01*
X224211Y211750D01*
X224366Y210970D01*
X224808Y210308D01*
X225469Y209866D01*
X225756Y209809D01*
X225631Y208539D01*
X216973D01*
X216205Y209406D01*
X216302Y210698D01*
X216855Y211525D01*
X217049Y212500D01*
X216855Y213475D01*
X216302Y214302D01*
X215475Y214855D01*
X214500Y215049D01*
X213524Y214855D01*
X212698Y214302D01*
X212574Y214117D01*
X212015Y213495D01*
X211081Y213634D01*
X210300Y213789D01*
X204373D01*
X203658Y214931D01*
X203652Y215059D01*
X203789Y215750D01*
X203634Y216530D01*
X203192Y217192D01*
X202530Y217634D01*
X201750Y217789D01*
D02*
G37*
G36*
X138250Y209289D02*
X137470Y209134D01*
X136808Y208692D01*
X136366Y208030D01*
X136211Y207250D01*
X136366Y206470D01*
X136808Y205808D01*
X137470Y205366D01*
X138250Y205211D01*
X139030Y205366D01*
X139692Y205808D01*
X140134Y206470D01*
X140289Y207250D01*
X140134Y208030D01*
X139692Y208692D01*
X139030Y209134D01*
X138250Y209289D01*
D02*
G37*
G36*
X155500Y205789D02*
X154720Y205634D01*
X154058Y205192D01*
X153616Y204530D01*
X153461Y203750D01*
X153616Y202970D01*
X154058Y202308D01*
X154720Y201866D01*
X155500Y201711D01*
X156280Y201866D01*
X156942Y202308D01*
X157384Y202970D01*
X157539Y203750D01*
X157384Y204530D01*
X156942Y205192D01*
X156280Y205634D01*
X155500Y205789D01*
D02*
G37*
G36*
X151750Y198289D02*
X150970Y198134D01*
X150308Y197692D01*
X149866Y197030D01*
X149711Y196250D01*
X149831Y195644D01*
X149080Y194852D01*
X148943Y194739D01*
X147715Y195243D01*
X147686Y195270D01*
X147634Y195530D01*
X147192Y196192D01*
X146530Y196634D01*
X145750Y196789D01*
X144970Y196634D01*
X144308Y196192D01*
X143866Y195530D01*
X143711Y194750D01*
X143740Y194603D01*
X142597Y193839D01*
X142530Y193884D01*
X141750Y194039D01*
X140970Y193884D01*
X140308Y193442D01*
X139866Y192780D01*
X139711Y192000D01*
X139866Y191220D01*
X140308Y190558D01*
X140970Y190116D01*
X141750Y189961D01*
X142530Y190116D01*
X143192Y190558D01*
X143634Y191220D01*
X143789Y192000D01*
X143760Y192147D01*
X144903Y192911D01*
X144970Y192866D01*
X145750Y192711D01*
X146530Y192866D01*
X146761Y193020D01*
X146786Y193020D01*
X148036Y192507D01*
X148064Y192480D01*
X148116Y192220D01*
X148558Y191558D01*
X149220Y191116D01*
X150000Y190961D01*
X150780Y191116D01*
X151442Y191558D01*
X151884Y192220D01*
X152039Y193000D01*
X151884Y193780D01*
X152530Y194366D01*
X153192Y194808D01*
X153634Y195470D01*
X153789Y196250D01*
X153634Y197030D01*
X153192Y197692D01*
X152530Y198134D01*
X151750Y198289D01*
D02*
G37*
G36*
X130250Y197789D02*
X129470Y197634D01*
X128808Y197192D01*
X128366Y196530D01*
X128211Y195750D01*
X128366Y194970D01*
X128808Y194308D01*
X129470Y193866D01*
X130250Y193711D01*
X131030Y193866D01*
X131875Y194229D01*
X132720Y193866D01*
X133500Y193711D01*
X134281Y193866D01*
X134942Y194308D01*
X135384Y194970D01*
X135539Y195750D01*
X135384Y196530D01*
X134942Y197192D01*
X134281Y197634D01*
X133500Y197789D01*
X132720Y197634D01*
X131875Y197271D01*
X131030Y197634D01*
X130250Y197789D01*
D02*
G37*
G36*
X111250Y177289D02*
X110470Y177134D01*
X109808Y176692D01*
X109366Y176030D01*
X109211Y175250D01*
X109259Y175008D01*
X108665Y174478D01*
X108163Y174158D01*
X107500Y174289D01*
X106720Y174134D01*
X106058Y173692D01*
X105616Y173031D01*
X105461Y172250D01*
X105616Y171470D01*
X106058Y170808D01*
X106720Y170366D01*
X107500Y170211D01*
X108280Y170366D01*
X108942Y170808D01*
X109384Y171470D01*
X109539Y172250D01*
X109491Y172492D01*
X110085Y173023D01*
X110587Y173343D01*
X111250Y173211D01*
X112030Y173366D01*
X112692Y173808D01*
X113134Y174470D01*
X113289Y175250D01*
X113134Y176030D01*
X112692Y176692D01*
X112030Y177134D01*
X111250Y177289D01*
D02*
G37*
G36*
X270250Y177789D02*
X269470Y177634D01*
X268808Y177192D01*
X268366Y176530D01*
X268211Y175750D01*
X268366Y174970D01*
X268808Y174308D01*
X269470Y173866D01*
X270250Y173711D01*
X271030Y173866D01*
X271692Y174308D01*
X272134Y174970D01*
X272289Y175750D01*
X272134Y176530D01*
X271692Y177192D01*
X271030Y177634D01*
X270250Y177789D01*
D02*
G37*
G36*
X137750Y169789D02*
X136970Y169634D01*
X136308Y169192D01*
X135192D01*
X134530Y169634D01*
X133750Y169789D01*
X132970Y169634D01*
X132308Y169192D01*
X131192D01*
X130530Y169634D01*
X129750Y169789D01*
X128970Y169634D01*
X128308Y169192D01*
X127866Y168530D01*
X127711Y167750D01*
X127866Y166970D01*
X128308Y166308D01*
X128970Y165866D01*
X129750Y165711D01*
X130530Y165866D01*
X131192Y166308D01*
X132308D01*
X132970Y165866D01*
X133750Y165711D01*
X134530Y165866D01*
X135192Y166308D01*
X136308D01*
X136970Y165866D01*
X137750Y165711D01*
X138530Y165866D01*
X139192Y166308D01*
X139634Y166970D01*
X139789Y167750D01*
X139634Y168530D01*
X139192Y169192D01*
X138530Y169634D01*
X137750Y169789D01*
D02*
G37*
G36*
X215250Y166289D02*
X214470Y166134D01*
X213808Y165692D01*
X213366Y165030D01*
X213211Y164250D01*
X213366Y163470D01*
X213808Y162808D01*
X214470Y162366D01*
X215250Y162211D01*
X216030Y162366D01*
X216692Y162808D01*
X217134Y163470D01*
X217289Y164250D01*
X217134Y165030D01*
X216692Y165692D01*
X216030Y166134D01*
X215250Y166289D01*
D02*
G37*
G36*
X169750Y161789D02*
X168970Y161634D01*
X168308Y161192D01*
X167866Y160530D01*
X167711Y159750D01*
X167866Y158970D01*
X168308Y158308D01*
X168970Y157866D01*
X169750Y157711D01*
X170530Y157866D01*
X171192Y158308D01*
X171634Y158970D01*
X171789Y159750D01*
X171634Y160530D01*
X171192Y161192D01*
X170530Y161634D01*
X169750Y161789D01*
D02*
G37*
G36*
X137750D02*
X136970Y161634D01*
X136308Y161192D01*
X135866Y160530D01*
X135711Y159750D01*
X135866Y158970D01*
X136308Y158308D01*
X136970Y157866D01*
X137750Y157711D01*
X138530Y157866D01*
X139192Y158308D01*
X139634Y158970D01*
X139789Y159750D01*
X139634Y160530D01*
X139192Y161192D01*
X138530Y161634D01*
X137750Y161789D01*
D02*
G37*
G36*
X129750D02*
X128970Y161634D01*
X128308Y161192D01*
X127866Y160530D01*
X127711Y159750D01*
X127866Y158970D01*
X128308Y158308D01*
X128970Y157866D01*
X129750Y157711D01*
X130530Y157866D01*
X131192Y158308D01*
X131634Y158970D01*
X131789Y159750D01*
X131634Y160530D01*
X131192Y161192D01*
X130530Y161634D01*
X129750Y161789D01*
D02*
G37*
G36*
X121750D02*
X120970Y161634D01*
X120308Y161192D01*
X119866Y160530D01*
X119711Y159750D01*
X119866Y158970D01*
X120308Y158308D01*
X120970Y157866D01*
X121750Y157711D01*
X122530Y157866D01*
X123192Y158308D01*
X123634Y158970D01*
X123789Y159750D01*
X123634Y160530D01*
X123192Y161192D01*
X122530Y161634D01*
X121750Y161789D01*
D02*
G37*
G36*
X215250Y157789D02*
X214470Y157634D01*
X213808Y157192D01*
X213366Y156530D01*
X213211Y155750D01*
X213366Y154970D01*
X213808Y154308D01*
X214470Y153866D01*
X215250Y153711D01*
X216030Y153866D01*
X216692Y154308D01*
X217134Y154970D01*
X217289Y155750D01*
X217134Y156530D01*
X216692Y157192D01*
X216030Y157634D01*
X215250Y157789D01*
D02*
G37*
G36*
X185750Y153789D02*
X184970Y153634D01*
X184308Y153192D01*
X183866Y152530D01*
X183711Y151750D01*
X183866Y150970D01*
X184308Y150308D01*
X184970Y149866D01*
X185750Y149711D01*
X186530Y149866D01*
X187192Y150308D01*
X187634Y150970D01*
X187789Y151750D01*
X187634Y152530D01*
X187192Y153192D01*
X186530Y153634D01*
X185750Y153789D01*
D02*
G37*
G36*
X177750D02*
X176970Y153634D01*
X176308Y153192D01*
X175866Y152530D01*
X175711Y151750D01*
X175866Y150970D01*
X176308Y150308D01*
X176970Y149866D01*
X177750Y149711D01*
X178530Y149866D01*
X179192Y150308D01*
X179634Y150970D01*
X179789Y151750D01*
X179634Y152530D01*
X179192Y153192D01*
X178530Y153634D01*
X177750Y153789D01*
D02*
G37*
G36*
X121750D02*
X120970Y153634D01*
X120308Y153192D01*
X119866Y152530D01*
X119711Y151750D01*
X119866Y150970D01*
X120308Y150308D01*
X120970Y149866D01*
X121750Y149711D01*
X122530Y149866D01*
X123192Y150308D01*
X123634Y150970D01*
X123789Y151750D01*
X123634Y152530D01*
X123192Y153192D01*
X122530Y153634D01*
X121750Y153789D01*
D02*
G37*
G36*
X270750Y148289D02*
X269970Y148134D01*
X269308Y147692D01*
X268866Y147030D01*
X268711Y146250D01*
X268866Y145470D01*
X269308Y144808D01*
X269970Y144366D01*
X270750Y144211D01*
X271530Y144366D01*
X272192Y144808D01*
X272634Y145470D01*
X272789Y146250D01*
X272634Y147030D01*
X272192Y147692D01*
X271530Y148134D01*
X270750Y148289D01*
D02*
G37*
G36*
X185750Y145789D02*
X184970Y145634D01*
X184308Y145192D01*
X183866Y144530D01*
X183711Y143750D01*
X183866Y142970D01*
X184308Y142308D01*
X184970Y141866D01*
X185750Y141711D01*
X186530Y141866D01*
X187192Y142308D01*
X187634Y142970D01*
X187789Y143750D01*
X187634Y144530D01*
X187192Y145192D01*
X186530Y145634D01*
X185750Y145789D01*
D02*
G37*
G36*
X177750D02*
X176970Y145634D01*
X176308Y145192D01*
X175866Y144530D01*
X175711Y143750D01*
X175866Y142970D01*
X176308Y142308D01*
X176970Y141866D01*
X177750Y141711D01*
X178530Y141866D01*
X179192Y142308D01*
X179634Y142970D01*
X179789Y143750D01*
X179634Y144530D01*
X179192Y145192D01*
X178530Y145634D01*
X177750Y145789D01*
D02*
G37*
G36*
X271500Y141789D02*
X270720Y141634D01*
X270058Y141192D01*
X269664Y140603D01*
X269101Y140530D01*
X268899D01*
X268336Y140603D01*
X267942Y141192D01*
X267280Y141634D01*
X266500Y141789D01*
X265720Y141634D01*
X265058Y141192D01*
X264616Y140530D01*
X264461Y139750D01*
X264616Y138970D01*
X265058Y138308D01*
X265720Y137866D01*
X266500Y137711D01*
X267280Y137866D01*
X267942Y138308D01*
X268336Y138897D01*
X268899Y138970D01*
X269101D01*
X269664Y138897D01*
X270058Y138308D01*
X270720Y137866D01*
X271500Y137711D01*
X272280Y137866D01*
X272942Y138308D01*
X273384Y138970D01*
X273539Y139750D01*
X273384Y140530D01*
X272942Y141192D01*
X272280Y141634D01*
X271500Y141789D01*
D02*
G37*
G36*
X232000Y141789D02*
X231220Y141634D01*
X230558Y141192D01*
X230116Y140530D01*
X229961Y139750D01*
X230116Y138969D01*
X230558Y138308D01*
X231220Y137866D01*
X232000Y137710D01*
X232780Y137866D01*
X233442Y138308D01*
X233884Y138969D01*
X234039Y139750D01*
X233884Y140530D01*
X233442Y141192D01*
X232780Y141634D01*
X232000Y141789D01*
D02*
G37*
G36*
X271500Y135289D02*
X270720Y135134D01*
X270058Y134692D01*
X269616Y134030D01*
X269461Y133250D01*
X269616Y132470D01*
X270058Y131808D01*
X270720Y131366D01*
X271500Y131211D01*
X272280Y131366D01*
X272942Y131808D01*
X273384Y132470D01*
X273539Y133250D01*
X273384Y134030D01*
X272942Y134692D01*
X272280Y135134D01*
X271500Y135289D01*
D02*
G37*
G36*
X201000Y125789D02*
X200220Y125633D01*
X199558Y125191D01*
X199116Y124530D01*
X198961Y123750D01*
X199116Y122969D01*
X199558Y122308D01*
X200220Y121866D01*
X201000Y121710D01*
X201780Y121866D01*
X202442Y122308D01*
X202884Y122969D01*
X203039Y123750D01*
X202884Y124530D01*
X202442Y125191D01*
X201780Y125633D01*
X201000Y125789D01*
D02*
G37*
G36*
X191000Y124789D02*
X190220Y124634D01*
X189558Y124192D01*
X189116Y123530D01*
X188961Y122750D01*
X189116Y121969D01*
X189558Y121308D01*
X190220Y120866D01*
X191000Y120710D01*
X191780Y120866D01*
X192442Y121308D01*
X192884Y121969D01*
X193039Y122750D01*
X192884Y123530D01*
X192442Y124192D01*
X191780Y124634D01*
X191000Y124789D01*
D02*
G37*
G36*
X200000Y117789D02*
X199220Y117633D01*
X198558Y117191D01*
X198116Y116530D01*
X197961Y115750D01*
X198116Y114969D01*
X198558Y114308D01*
X199220Y113866D01*
X200000Y113710D01*
X200780Y113866D01*
X201442Y114308D01*
X201884Y114969D01*
X202039Y115750D01*
X201884Y116530D01*
X201442Y117191D01*
X200780Y117633D01*
X200000Y117789D01*
D02*
G37*
G36*
X109750Y168819D02*
X107500D01*
X106134Y168547D01*
X104977Y167773D01*
X104203Y166616D01*
X103931Y165250D01*
X104203Y163884D01*
X104977Y162727D01*
X106134Y161953D01*
X107500Y161681D01*
X108272D01*
X108931Y161022D01*
Y152899D01*
X108000Y151789D01*
X107220Y151634D01*
X106558Y151192D01*
X106116Y150530D01*
X105961Y149750D01*
X106116Y148970D01*
X106558Y148308D01*
X107220Y147866D01*
X108000Y147711D01*
X108931Y146601D01*
Y144478D01*
X108272Y143818D01*
X107500D01*
X106134Y143547D01*
X104977Y142773D01*
X104203Y141615D01*
X103931Y140250D01*
X104203Y138884D01*
X104977Y137726D01*
X106134Y136953D01*
X107500Y136681D01*
X109750D01*
X111115Y136953D01*
X112273Y137726D01*
X113823Y139277D01*
X114900Y138557D01*
X114876Y138500D01*
Y128922D01*
X115352Y127774D01*
X173524Y69602D01*
X174672Y69126D01*
X176249D01*
X177189Y68186D01*
X176563Y67016D01*
X176250Y67078D01*
X174689Y66768D01*
X173366Y65884D01*
X172482Y64561D01*
X172172Y63000D01*
X172482Y61439D01*
X173366Y60116D01*
X174689Y59232D01*
X176250Y58922D01*
X177811Y59232D01*
X179134Y60116D01*
X180018Y61439D01*
X180328Y63000D01*
X180266Y63313D01*
X181436Y63939D01*
X182376Y62999D01*
Y23750D01*
X182628Y23144D01*
X181948Y21922D01*
X181884Y21874D01*
X181250D01*
X180480Y21555D01*
X180060Y21415D01*
X178826Y21918D01*
X178663Y22163D01*
X177670Y22826D01*
X176500Y23059D01*
X175329Y22826D01*
X174337Y22163D01*
X173674Y21170D01*
X173441Y20000D01*
X173674Y18829D01*
X174337Y17837D01*
X175329Y17174D01*
X176500Y16941D01*
X177670Y17174D01*
X178002Y17396D01*
X179518Y17027D01*
X179537Y17010D01*
X179602Y16852D01*
X180102Y16352D01*
X181250Y15876D01*
X189750D01*
X190898Y16352D01*
X192321Y17774D01*
X192780Y17866D01*
X193442Y18308D01*
X194940Y18264D01*
X199852Y13352D01*
X200739Y12985D01*
X200908Y11951D01*
X200879Y11657D01*
X200558Y11442D01*
X200116Y10780D01*
X199961Y10000D01*
X200116Y9220D01*
X200558Y8558D01*
X201220Y8116D01*
X202000Y7961D01*
X202780Y8116D01*
X203442Y8558D01*
X203884Y9220D01*
X204039Y10000D01*
X203884Y10780D01*
X203442Y11442D01*
X203026Y11720D01*
X202955Y12647D01*
X203060Y13108D01*
X203648Y13352D01*
X205148Y14852D01*
X205624Y16000D01*
Y17750D01*
X205148Y18898D01*
X204593Y19453D01*
X205079Y20626D01*
X205250D01*
X206398Y21102D01*
X207398Y22102D01*
X207874Y23250D01*
Y25750D01*
X207398Y26898D01*
X206148Y28148D01*
X205000Y28624D01*
X201422D01*
X199665Y30381D01*
X199898Y31852D01*
X201148Y33102D01*
X201624Y34250D01*
Y34580D01*
X201884Y34969D01*
X202039Y35750D01*
X201884Y36530D01*
X201442Y37192D01*
X200780Y37634D01*
X200000Y37789D01*
X199220Y37634D01*
X198558Y37192D01*
X198116Y36530D01*
X197894Y36465D01*
X196624Y37000D01*
X196148Y38148D01*
X194648Y39648D01*
X193500Y40124D01*
X191624D01*
Y43126D01*
X195321D01*
X195914Y42308D01*
X196081Y41856D01*
X195961Y41250D01*
X196116Y40470D01*
X196558Y39808D01*
X197220Y39366D01*
X198000Y39211D01*
X198780Y39366D01*
X199442Y39808D01*
X199884Y40470D01*
X200039Y41250D01*
X199918Y41856D01*
X200086Y42308D01*
X200679Y43126D01*
X213500D01*
X213570Y43156D01*
X214626Y42450D01*
Y30250D01*
X215102Y29102D01*
X215602Y28602D01*
X216750Y28126D01*
X217461Y27000D01*
X217616Y26220D01*
X218058Y25558D01*
X218720Y25116D01*
X219284Y25004D01*
X219336Y24871D01*
X219527Y23929D01*
X219531Y23758D01*
X219058Y23442D01*
X218616Y22780D01*
X218461Y22000D01*
X218616Y21220D01*
X219058Y20558D01*
X219720Y20116D01*
X220500Y19961D01*
X221280Y20116D01*
X221942Y20558D01*
X222384Y21220D01*
X222475Y21679D01*
X225648Y24852D01*
X226124Y26000D01*
Y40784D01*
X227394Y41310D01*
X230852Y37852D01*
X232000Y37376D01*
X242500D01*
X243648Y37852D01*
X245398Y39602D01*
X245874Y40750D01*
Y45250D01*
X245398Y46398D01*
X245319Y46477D01*
X245601Y47991D01*
X245704Y48060D01*
X246146Y48722D01*
X246301Y49502D01*
X246146Y50283D01*
X245704Y50944D01*
X245042Y51386D01*
X244262Y51542D01*
X243482Y51386D01*
X242820Y50944D01*
X242751Y50841D01*
X241237Y50559D01*
X235148Y56648D01*
X234000Y57124D01*
X228172D01*
X220250Y65046D01*
X220669Y66424D01*
X220671Y66424D01*
X221663Y67087D01*
X222326Y68080D01*
X222559Y69250D01*
X222326Y70420D01*
X221663Y71413D01*
X220671Y72076D01*
X219500Y72309D01*
X218330Y72076D01*
X217337Y71413D01*
X216674Y70420D01*
X216674Y70419D01*
X215296Y70001D01*
X206886Y78410D01*
X206767Y79268D01*
X207299Y79992D01*
X208710Y79949D01*
X208715Y79947D01*
X208808Y79808D01*
X209470Y79366D01*
X210250Y79211D01*
X211030Y79366D01*
X211692Y79808D01*
X212134Y80469D01*
X212289Y81250D01*
X212134Y82030D01*
X211692Y82692D01*
X211030Y83134D01*
X210250Y83289D01*
X209470Y83134D01*
X208808Y82692D01*
X208414Y82103D01*
X207851Y82030D01*
X207649D01*
X207086Y82103D01*
X206692Y82692D01*
X206030Y83134D01*
X205250Y83289D01*
X204470Y83134D01*
X204215Y83211D01*
X203898Y83976D01*
X197672Y90203D01*
X198208Y91463D01*
X199148Y91852D01*
X199898Y92602D01*
X200374Y93750D01*
Y99097D01*
X201098Y100012D01*
X201437Y100251D01*
X202040Y100371D01*
X202273Y100297D01*
X203277Y99670D01*
X203366Y99219D01*
X203808Y98558D01*
X204470Y98116D01*
X205250Y97961D01*
X206030Y98116D01*
X206692Y98558D01*
X207134Y99219D01*
X207289Y100000D01*
X207134Y100780D01*
X206692Y101442D01*
X206030Y101884D01*
X205250Y102039D01*
X204470Y101884D01*
X204237Y101958D01*
X203233Y102585D01*
X203144Y103035D01*
X202702Y103697D01*
X202040Y104139D01*
X201260Y104294D01*
X200480Y104139D01*
X199818Y103697D01*
X199808Y103683D01*
X198279Y103379D01*
X198209Y103401D01*
X197688Y103797D01*
X197701Y104391D01*
X198143Y105053D01*
X198299Y105833D01*
X198143Y106614D01*
X197701Y107275D01*
X197040Y107717D01*
X196259Y107872D01*
X195383Y108993D01*
Y109335D01*
X195643Y109725D01*
X195799Y110505D01*
X195643Y111286D01*
X195201Y111947D01*
X194540Y112389D01*
X193759Y112545D01*
X192979Y112389D01*
X192318Y111947D01*
X191875Y111286D01*
X191720Y110505D01*
X191875Y109725D01*
X192136Y109335D01*
Y104523D01*
X192126Y104500D01*
X191129Y103821D01*
X191046Y103789D01*
X190530Y104134D01*
X189750Y104289D01*
X188969Y104134D01*
X188308Y103692D01*
X186873Y103830D01*
X185624Y105079D01*
Y108071D01*
X186442Y108664D01*
X186894Y108831D01*
X187500Y108711D01*
X188280Y108866D01*
X188942Y109308D01*
X189384Y109970D01*
X189539Y110750D01*
X189384Y111530D01*
X188942Y112192D01*
X188280Y112634D01*
X187910Y112708D01*
X187798Y113058D01*
X187775Y114029D01*
X188201Y114314D01*
X188637Y114966D01*
X189441Y115134D01*
X189962Y115096D01*
X190317Y114564D01*
X190979Y114122D01*
X191759Y113967D01*
X192540Y114122D01*
X193201Y114564D01*
X193643Y115225D01*
X193799Y116006D01*
X193643Y116786D01*
X193201Y117448D01*
X192540Y117890D01*
X191759Y118045D01*
X190979Y117890D01*
X190317Y117448D01*
X189881Y116795D01*
X189077Y116627D01*
X188556Y116666D01*
X188201Y117198D01*
X187540Y117640D01*
X186759Y117795D01*
X185624Y118813D01*
Y126000D01*
X185148Y127148D01*
X180190Y132106D01*
X180716Y133376D01*
X187330D01*
X187720Y133116D01*
X188500Y132961D01*
X189026Y133066D01*
X189146Y133006D01*
X189721Y132511D01*
X190028Y132088D01*
X189961Y131750D01*
X190116Y130969D01*
X190558Y130308D01*
X191220Y129866D01*
X192000Y129710D01*
X192780Y129866D01*
X193442Y130308D01*
X193884Y130969D01*
X194039Y131750D01*
X193884Y132530D01*
X193442Y133191D01*
X193195Y133356D01*
X193580Y134626D01*
X199420D01*
X199805Y133356D01*
X199558Y133191D01*
X199116Y132530D01*
X198961Y131750D01*
X199116Y130969D01*
X199558Y130308D01*
X200220Y129866D01*
X201000Y129710D01*
X201780Y129866D01*
X202442Y130308D01*
X202884Y130969D01*
X203039Y131750D01*
X203010Y131898D01*
X204180Y132524D01*
X207613Y129091D01*
X208761Y128616D01*
X212773D01*
X213300Y127346D01*
X212072Y126118D01*
X210245D01*
X209097Y125643D01*
X207602Y124148D01*
X207126Y123000D01*
Y121250D01*
X207602Y120102D01*
X210102Y117602D01*
X211250Y117126D01*
X214077D01*
X214126Y117078D01*
Y113673D01*
X214077Y113624D01*
X203505D01*
X202356Y113148D01*
X201689Y112481D01*
X201229Y112389D01*
X200568Y111947D01*
X200126Y111286D01*
X199971Y110505D01*
X200126Y109725D01*
X200568Y109064D01*
X201229Y108621D01*
X202010Y108466D01*
X202790Y108621D01*
X203452Y109064D01*
X203646Y109354D01*
X203653Y109357D01*
X203662Y109378D01*
X203894Y109725D01*
X203975Y110134D01*
X204004Y110203D01*
X204177Y110376D01*
X214750D01*
X215898Y110852D01*
X216898Y111852D01*
X217374Y113000D01*
Y117750D01*
X216898Y118898D01*
X215898Y119898D01*
X214750Y120374D01*
X211922D01*
X210538Y121758D01*
X211150Y122871D01*
X212745D01*
X213893Y123347D01*
X216898Y126352D01*
X217374Y127500D01*
Y129000D01*
X216898Y130148D01*
X215659Y131387D01*
X214511Y131863D01*
X209433D01*
X203898Y137398D01*
X203463Y137578D01*
X202890Y138955D01*
X202906Y139079D01*
X203039Y139750D01*
X202884Y140530D01*
X202442Y141192D01*
X201780Y141634D01*
X201000Y141789D01*
X200220Y141634D01*
X199558Y141192D01*
X199116Y140530D01*
X198961Y139750D01*
X199081Y139144D01*
X198913Y138689D01*
X198321Y137874D01*
X193423D01*
X191898Y139398D01*
X190750Y139874D01*
X176673D01*
X171725Y144821D01*
X171634Y145280D01*
X171192Y145942D01*
X170530Y146384D01*
X169750Y146539D01*
X168809Y147647D01*
Y152500D01*
X168576Y153671D01*
X167913Y154663D01*
X166921Y155326D01*
X165750Y155559D01*
X164580Y155326D01*
X163587Y154663D01*
X163327Y154274D01*
X163312Y154259D01*
X161788Y153891D01*
X161008Y154047D01*
X160228Y153891D01*
X159566Y153449D01*
X159124Y152788D01*
X158969Y152007D01*
X159124Y151227D01*
X159323Y150929D01*
X158646Y149769D01*
X158508Y149796D01*
X157727Y149641D01*
X157066Y149199D01*
X156624Y148538D01*
X156468Y147757D01*
X156506Y147569D01*
X155741Y146413D01*
X155562Y146299D01*
X153250D01*
X152275Y146105D01*
X151448Y145552D01*
X150451Y146199D01*
X150374Y146274D01*
Y148750D01*
X149898Y149898D01*
X147725Y152071D01*
X147634Y152530D01*
X147192Y153192D01*
X146530Y153634D01*
X145750Y153789D01*
X144970Y153634D01*
X144308Y153192D01*
X143148Y153398D01*
X142000Y153874D01*
X141000D01*
X139852Y153398D01*
X139605Y153151D01*
X139192Y153192D01*
X138530Y153634D01*
X137750Y153789D01*
X136970Y153634D01*
X136308Y153192D01*
X135866Y152530D01*
X135775Y152071D01*
X133602Y149898D01*
X133126Y148750D01*
Y134500D01*
X133602Y133352D01*
X136264Y130690D01*
X136281Y130117D01*
X135881Y129717D01*
X134322Y129724D01*
X131374Y132673D01*
Y134580D01*
X131634Y134970D01*
X131789Y135750D01*
X131634Y136530D01*
X131192Y137192D01*
X130530Y137634D01*
X129750Y137789D01*
X128970Y137634D01*
X128308Y137192D01*
X127866Y136530D01*
X127711Y135750D01*
X127866Y134970D01*
X128126Y134580D01*
Y132000D01*
X128602Y130852D01*
X128681Y130773D01*
X128403Y129255D01*
X128308Y129192D01*
X126810Y129236D01*
X123374Y132673D01*
Y134580D01*
X123634Y134970D01*
X123789Y135750D01*
X123634Y136530D01*
X123416Y136856D01*
X123843Y137966D01*
X123979Y138126D01*
X125750D01*
X126898Y138602D01*
X130071Y141775D01*
X130530Y141866D01*
X131192Y142308D01*
X131634Y142970D01*
X131789Y143750D01*
X131634Y144530D01*
X131192Y145192D01*
X130530Y145634D01*
X129750Y145789D01*
X128970Y145634D01*
X128308Y145192D01*
X127866Y144530D01*
X127775Y144071D01*
X125178Y141474D01*
X123864Y141510D01*
X123843Y141534D01*
X123416Y142644D01*
X123634Y142970D01*
X123789Y143750D01*
X123634Y144530D01*
X123192Y145192D01*
X122530Y145634D01*
X121750Y145789D01*
X120970Y145634D01*
X120308Y145192D01*
X119866Y144530D01*
X119775Y144071D01*
X116946Y141242D01*
X115860Y141952D01*
X116069Y143000D01*
Y162500D01*
X115797Y163866D01*
X115023Y165023D01*
X112273Y167773D01*
X111116Y168547D01*
X109750Y168819D01*
D02*
G37*
G36*
X271500Y107289D02*
X270720Y107134D01*
X270058Y106692D01*
X269664Y106103D01*
X269101Y106030D01*
X268899D01*
X268336Y106103D01*
X267942Y106692D01*
X267280Y107134D01*
X266500Y107289D01*
X265720Y107134D01*
X265058Y106692D01*
X264616Y106030D01*
X264461Y105250D01*
X264616Y104470D01*
X265058Y103808D01*
X265720Y103366D01*
X266500Y103211D01*
X267280Y103366D01*
X267942Y103808D01*
X268336Y104397D01*
X268899Y104469D01*
X269101D01*
X269664Y104397D01*
X270058Y103808D01*
X270720Y103366D01*
X271500Y103211D01*
X272280Y103366D01*
X272942Y103808D01*
X273384Y104470D01*
X273539Y105250D01*
X273384Y106030D01*
X272942Y106692D01*
X272280Y107134D01*
X271500Y107289D01*
D02*
G37*
G36*
X130250Y108539D02*
X129470Y108384D01*
X128808Y107942D01*
X128366Y107280D01*
X128211Y106500D01*
X128366Y105720D01*
X128808Y105058D01*
X129470Y104616D01*
X130250Y104461D01*
X131030Y104616D01*
X131692Y105058D01*
X132134Y105720D01*
X132289Y106500D01*
X132134Y107280D01*
X131692Y107942D01*
X131030Y108384D01*
X130250Y108539D01*
D02*
G37*
G36*
X122250D02*
X121470Y108384D01*
X120808Y107942D01*
X120366Y107280D01*
X120211Y106500D01*
X120366Y105720D01*
X120808Y105058D01*
X121470Y104616D01*
X122250Y104461D01*
X123030Y104616D01*
X123692Y105058D01*
X124134Y105720D01*
X124289Y106500D01*
X124134Y107280D01*
X123692Y107942D01*
X123030Y108384D01*
X122250Y108539D01*
D02*
G37*
G36*
X257250Y101789D02*
X256470Y101634D01*
X255808Y101192D01*
X255366Y100530D01*
X255211Y99750D01*
X255366Y98970D01*
X255808Y98308D01*
X256470Y97866D01*
X257250Y97711D01*
X258030Y97866D01*
X258692Y98308D01*
X259134Y98970D01*
X259289Y99750D01*
X259134Y100530D01*
X258692Y101192D01*
X258030Y101634D01*
X257250Y101789D01*
D02*
G37*
G36*
X266500Y100789D02*
X265720Y100634D01*
X265058Y100192D01*
X264616Y99530D01*
X264461Y98750D01*
X264616Y97970D01*
X265058Y97308D01*
X265720Y96866D01*
X266500Y96711D01*
X267280Y96866D01*
X267942Y97308D01*
X268384Y97970D01*
X268539Y98750D01*
X268384Y99530D01*
X267942Y100192D01*
X267280Y100634D01*
X266500Y100789D01*
D02*
G37*
G36*
X245012Y97794D02*
X244232Y97639D01*
X243570Y97197D01*
X243128Y96535D01*
X242973Y95755D01*
X243128Y94974D01*
X243570Y94313D01*
X244232Y93871D01*
X245012Y93715D01*
X245792Y93871D01*
X246454Y94313D01*
X246896Y94974D01*
X247051Y95755D01*
X246896Y96535D01*
X246454Y97197D01*
X245792Y97639D01*
X245012Y97794D01*
D02*
G37*
G36*
X257250Y95289D02*
X256470Y95134D01*
X255808Y94692D01*
X255366Y94030D01*
X255211Y93250D01*
X255366Y92470D01*
X255808Y91808D01*
X256470Y91366D01*
X257250Y91211D01*
X258030Y91366D01*
X258692Y91808D01*
X259134Y92470D01*
X259289Y93250D01*
X259134Y94030D01*
X258692Y94692D01*
X258030Y95134D01*
X257250Y95289D01*
D02*
G37*
G36*
X266500Y94289D02*
X265720Y94134D01*
X265058Y93692D01*
X264616Y93030D01*
X264461Y92250D01*
X264616Y91469D01*
X265058Y90808D01*
X265720Y90366D01*
X266500Y90211D01*
X267280Y90366D01*
X267942Y90808D01*
X268384Y91469D01*
X268539Y92250D01*
X268384Y93030D01*
X267942Y93692D01*
X267280Y94134D01*
X266500Y94289D01*
D02*
G37*
G36*
X205250Y89539D02*
X204470Y89384D01*
X203808Y88942D01*
X203366Y88280D01*
X203211Y87500D01*
X203366Y86720D01*
X203808Y86058D01*
X204470Y85616D01*
X205250Y85461D01*
X206030Y85616D01*
X206692Y86058D01*
X207134Y86720D01*
X207289Y87500D01*
X207134Y88280D01*
X206692Y88942D01*
X206030Y89384D01*
X205250Y89539D01*
D02*
G37*
G36*
X250250Y89195D02*
X249470Y89040D01*
X248808Y88598D01*
X248366Y87937D01*
X248211Y87156D01*
X248366Y86376D01*
X248808Y85714D01*
X249470Y85272D01*
X250250Y85117D01*
X251030Y85272D01*
X251692Y85714D01*
X252134Y86376D01*
X252289Y87156D01*
X252134Y87937D01*
X251692Y88598D01*
X251030Y89040D01*
X250250Y89195D01*
D02*
G37*
G36*
X266500Y87789D02*
X265720Y87634D01*
X265058Y87192D01*
X264616Y86530D01*
X264461Y85750D01*
X264616Y84970D01*
X265058Y84308D01*
X265720Y83866D01*
X266500Y83711D01*
X267280Y83866D01*
X267942Y84308D01*
X268384Y84970D01*
X268539Y85750D01*
X268384Y86530D01*
X267942Y87192D01*
X267280Y87634D01*
X266500Y87789D01*
D02*
G37*
G36*
X257250Y82289D02*
X256470Y82134D01*
X255808Y81692D01*
X255366Y81030D01*
X255211Y80250D01*
X255366Y79470D01*
X255808Y78808D01*
X256470Y78366D01*
X257250Y78211D01*
X258030Y78366D01*
X258692Y78808D01*
X259134Y79470D01*
X259289Y80250D01*
X259134Y81030D01*
X258692Y81692D01*
X258030Y82134D01*
X257250Y82289D01*
D02*
G37*
G36*
X266500Y81289D02*
X265720Y81133D01*
X265058Y80691D01*
X264616Y80030D01*
X264461Y79250D01*
X264616Y78469D01*
X265058Y77808D01*
X265720Y77366D01*
X266500Y77210D01*
X267280Y77366D01*
X267942Y77808D01*
X268384Y78469D01*
X268539Y79250D01*
X268384Y80030D01*
X267942Y80691D01*
X267280Y81133D01*
X266500Y81289D01*
D02*
G37*
G36*
X217000Y80039D02*
X216220Y79884D01*
X215558Y79442D01*
X215116Y78780D01*
X214961Y78000D01*
X215116Y77220D01*
X215558Y76558D01*
X216220Y76116D01*
X217000Y75961D01*
X217780Y76116D01*
X218442Y76558D01*
X218884Y77220D01*
X219039Y78000D01*
X218884Y78780D01*
X218442Y79442D01*
X217780Y79884D01*
X217000Y80039D01*
D02*
G37*
G36*
X126700Y83728D02*
X125139Y83418D01*
X123816Y82534D01*
X122932Y81211D01*
X122622Y79650D01*
X122932Y78089D01*
X123816Y76766D01*
X125139Y75882D01*
X126700Y75572D01*
X128261Y75882D01*
X129584Y76766D01*
X130468Y78089D01*
X130778Y79650D01*
X130468Y81211D01*
X129584Y82534D01*
X128261Y83418D01*
X126700Y83728D01*
D02*
G37*
G36*
X88600Y83728D02*
X87039Y83418D01*
X85716Y82534D01*
X84832Y81211D01*
X84522Y79650D01*
X84832Y78089D01*
X85716Y76766D01*
X87039Y75882D01*
X88600Y75572D01*
X90161Y75882D01*
X91484Y76766D01*
X92368Y78089D01*
X92678Y79650D01*
X92368Y81211D01*
X91484Y82534D01*
X90161Y83418D01*
X88600Y83728D01*
D02*
G37*
G36*
X266500Y74789D02*
X265720Y74634D01*
X265058Y74191D01*
X264616Y73530D01*
X264461Y72750D01*
X264616Y71969D01*
X265058Y71308D01*
X265720Y70866D01*
X266500Y70710D01*
X267280Y70866D01*
X267942Y71308D01*
X268384Y71969D01*
X268539Y72750D01*
X268384Y73530D01*
X267942Y74191D01*
X267280Y74634D01*
X266500Y74789D01*
D02*
G37*
G36*
X259000Y74059D02*
X257829Y73826D01*
X256837Y73163D01*
X256174Y72171D01*
X255941Y71000D01*
X256174Y69830D01*
X256837Y68837D01*
X257829Y68174D01*
X259000Y67941D01*
X260170Y68174D01*
X261163Y68837D01*
X261826Y69830D01*
X262059Y71000D01*
X261826Y72171D01*
X261163Y73163D01*
X260170Y73826D01*
X259000Y74059D01*
D02*
G37*
G36*
X95050Y71539D02*
X94270Y71384D01*
X93608Y70942D01*
X93166Y70280D01*
X93011Y69500D01*
X93166Y68720D01*
X93608Y68058D01*
X94270Y67616D01*
X95050Y67461D01*
X95830Y67616D01*
X96492Y68058D01*
X96934Y68720D01*
X97089Y69500D01*
X96934Y70280D01*
X96492Y70942D01*
X95830Y71384D01*
X95050Y71539D01*
D02*
G37*
G36*
X158250Y62039D02*
X157470Y61884D01*
X156808Y61442D01*
X156366Y60780D01*
X156211Y60000D01*
X156366Y59220D01*
X156808Y58558D01*
X157470Y58116D01*
X158250Y57961D01*
X159030Y58116D01*
X159692Y58558D01*
X160134Y59220D01*
X160289Y60000D01*
X160134Y60780D01*
X159692Y61442D01*
X159030Y61884D01*
X158250Y62039D01*
D02*
G37*
G36*
X243500Y59289D02*
X242720Y59134D01*
X242058Y58692D01*
X241616Y58030D01*
X241461Y57250D01*
X241616Y56470D01*
X242058Y55808D01*
X242720Y55366D01*
X243500Y55211D01*
X244280Y55366D01*
X244942Y55808D01*
X245384Y56470D01*
X245539Y57250D01*
X245384Y58030D01*
X244942Y58692D01*
X244280Y59134D01*
X243500Y59289D01*
D02*
G37*
G36*
X158250Y55039D02*
X157470Y54884D01*
X156808Y54442D01*
X156366Y53780D01*
X156211Y53000D01*
X156366Y52220D01*
X156808Y51558D01*
X157470Y51116D01*
X158250Y50961D01*
X159030Y51116D01*
X159692Y51558D01*
X160134Y52220D01*
X160289Y53000D01*
X160134Y53780D01*
X159692Y54442D01*
X159030Y54884D01*
X158250Y55039D01*
D02*
G37*
G36*
X152100Y45628D02*
X150539Y45318D01*
X149216Y44434D01*
X148332Y43111D01*
X148022Y41550D01*
X148332Y39989D01*
X149216Y38666D01*
X150539Y37782D01*
X152100Y37472D01*
X153661Y37782D01*
X154984Y38666D01*
X155868Y39989D01*
X156178Y41550D01*
X155868Y43111D01*
X154984Y44434D01*
X153661Y45318D01*
X152100Y45628D01*
D02*
G37*
G36*
X37800Y45628D02*
X36239Y45318D01*
X34916Y44434D01*
X34032Y43111D01*
X33722Y41550D01*
X34032Y39989D01*
X34916Y38666D01*
X36239Y37782D01*
X37800Y37472D01*
X39361Y37782D01*
X40684Y38666D01*
X41568Y39989D01*
X41878Y41550D01*
X41568Y43111D01*
X40684Y44434D01*
X39361Y45318D01*
X37800Y45628D01*
D02*
G37*
G36*
X114000Y45628D02*
X112439Y45318D01*
X111116Y44434D01*
X110232Y43111D01*
X109922Y41550D01*
X110232Y39989D01*
X111116Y38666D01*
X112439Y37782D01*
X114000Y37472D01*
X115561Y37782D01*
X116884Y38666D01*
X117768Y39989D01*
X118078Y41550D01*
X117768Y43111D01*
X116884Y44434D01*
X115561Y45318D01*
X114000Y45628D01*
D02*
G37*
G36*
X75900D02*
X74339Y45318D01*
X73016Y44434D01*
X72132Y43111D01*
X71822Y41550D01*
X72132Y39989D01*
X73016Y38666D01*
X74339Y37782D01*
X75900Y37472D01*
X77461Y37782D01*
X78784Y38666D01*
X79668Y39989D01*
X79978Y41550D01*
X79668Y43111D01*
X78784Y44434D01*
X77461Y45318D01*
X75900Y45628D01*
D02*
G37*
G36*
X266500Y33059D02*
X265329Y32826D01*
X264337Y32163D01*
X263674Y31170D01*
X263441Y30000D01*
X263674Y28829D01*
X264337Y27837D01*
X265329Y27174D01*
X266500Y26941D01*
X267670Y27174D01*
X268663Y27837D01*
X269326Y28829D01*
X269559Y30000D01*
X269326Y31170D01*
X268663Y32163D01*
X267670Y32826D01*
X266500Y33059D01*
D02*
G37*
G36*
X88600Y30889D02*
X87820Y30734D01*
X87158Y30292D01*
X86716Y29630D01*
X86561Y28850D01*
X86716Y28070D01*
X87158Y27408D01*
X87820Y26966D01*
X88600Y26811D01*
X89380Y26966D01*
X90042Y27408D01*
X90484Y28070D01*
X90639Y28850D01*
X90484Y29630D01*
X90042Y30292D01*
X89380Y30734D01*
X88600Y30889D01*
D02*
G37*
G36*
X164800Y30889D02*
X164020Y30734D01*
X163358Y30292D01*
X162916Y29630D01*
X162761Y28850D01*
X162916Y28070D01*
X163358Y27408D01*
X164020Y26966D01*
X164800Y26811D01*
X165580Y26966D01*
X166242Y27408D01*
X166684Y28070D01*
X166839Y28850D01*
X166684Y29630D01*
X166242Y30292D01*
X165580Y30734D01*
X164800Y30889D01*
D02*
G37*
G36*
X126700D02*
X125920Y30734D01*
X125258Y30292D01*
X124816Y29630D01*
X124661Y28850D01*
X124816Y28070D01*
X125258Y27408D01*
X125920Y26966D01*
X126700Y26811D01*
X127480Y26966D01*
X128142Y27408D01*
X128584Y28070D01*
X128739Y28850D01*
X128584Y29630D01*
X128142Y30292D01*
X127480Y30734D01*
X126700Y30889D01*
D02*
G37*
G36*
X101300D02*
X100520Y30734D01*
X99858Y30292D01*
X99416Y29630D01*
X99261Y28850D01*
X99416Y28070D01*
X99858Y27408D01*
X100520Y26966D01*
X101300Y26811D01*
X102080Y26966D01*
X102742Y27408D01*
X103184Y28070D01*
X103339Y28850D01*
X103184Y29630D01*
X102742Y30292D01*
X102080Y30734D01*
X101300Y30889D01*
D02*
G37*
G36*
X63200D02*
X62420Y30734D01*
X61758Y30292D01*
X61316Y29630D01*
X61161Y28850D01*
X61316Y28070D01*
X61758Y27408D01*
X62420Y26966D01*
X63200Y26811D01*
X63980Y26966D01*
X64642Y27408D01*
X65084Y28070D01*
X65239Y28850D01*
X65084Y29630D01*
X64642Y30292D01*
X63980Y30734D01*
X63200Y30889D01*
D02*
G37*
G36*
X50500Y30889D02*
X49720Y30734D01*
X49058Y30292D01*
X48616Y29630D01*
X48461Y28850D01*
X48616Y28070D01*
X49058Y27408D01*
X49720Y26966D01*
X50500Y26811D01*
X51280Y26966D01*
X51942Y27408D01*
X52384Y28070D01*
X52539Y28850D01*
X52384Y29630D01*
X51942Y30292D01*
X51280Y30734D01*
X50500Y30889D01*
D02*
G37*
G36*
X176250Y34078D02*
X174689Y33768D01*
X173366Y32884D01*
X172482Y31561D01*
X172172Y30000D01*
X172482Y28439D01*
X173366Y27116D01*
X174689Y26232D01*
X176250Y25922D01*
X177811Y26232D01*
X179134Y27116D01*
X180018Y28439D01*
X180328Y30000D01*
X180018Y31561D01*
X179134Y32884D01*
X177811Y33768D01*
X176250Y34078D01*
D02*
G37*
G36*
X243250Y18289D02*
X242469Y18134D01*
X241808Y17692D01*
X241366Y17030D01*
X241211Y16250D01*
X241366Y15470D01*
X241808Y14808D01*
X242469Y14366D01*
X243250Y14211D01*
X244030Y14366D01*
X244692Y14808D01*
X245134Y15470D01*
X245289Y16250D01*
X245134Y17030D01*
X244692Y17692D01*
X244030Y18134D01*
X243250Y18289D01*
D02*
G37*
G36*
X222000Y12039D02*
X221220Y11884D01*
X220558Y11442D01*
X220116Y10780D01*
X219961Y10000D01*
X220116Y9220D01*
X220558Y8558D01*
X221220Y8116D01*
X222000Y7961D01*
X222780Y8116D01*
X223442Y8558D01*
X223884Y9220D01*
X224039Y10000D01*
X223884Y10780D01*
X223442Y11442D01*
X222780Y11884D01*
X222000Y12039D01*
D02*
G37*
G36*
X89750Y11289D02*
X88970Y11134D01*
X88308Y10692D01*
X87866Y10030D01*
X87711Y9250D01*
X87866Y8470D01*
X88308Y7808D01*
X88970Y7366D01*
X89750Y7211D01*
X90530Y7366D01*
X91192Y7808D01*
X91634Y8470D01*
X91789Y9250D01*
X91634Y10030D01*
X91192Y10692D01*
X90530Y11134D01*
X89750Y11289D01*
D02*
G37*
G36*
X63000D02*
X62220Y11134D01*
X61558Y10692D01*
X61116Y10030D01*
X60961Y9250D01*
X61116Y8470D01*
X61558Y7808D01*
X62220Y7366D01*
X63000Y7211D01*
X63780Y7366D01*
X64442Y7808D01*
X64884Y8470D01*
X65039Y9250D01*
X64884Y10030D01*
X64442Y10692D01*
X63780Y11134D01*
X63000Y11289D01*
D02*
G37*
G36*
X126000Y11289D02*
X125220Y11134D01*
X124558Y10692D01*
X124116Y10030D01*
X123961Y9250D01*
X124116Y8470D01*
X124558Y7808D01*
X125220Y7366D01*
X126000Y7211D01*
X126780Y7366D01*
X127442Y7808D01*
X127884Y8470D01*
X128039Y9250D01*
X127884Y10030D01*
X127442Y10692D01*
X126780Y11134D01*
X126000Y11289D01*
D02*
G37*
G36*
X164000Y11289D02*
X163220Y11134D01*
X162558Y10692D01*
X162116Y10030D01*
X161961Y9250D01*
X162116Y8470D01*
X162558Y7808D01*
X163220Y7366D01*
X164000Y7211D01*
X164780Y7366D01*
X165442Y7808D01*
X165884Y8470D01*
X166039Y9250D01*
X165884Y10030D01*
X165442Y10692D01*
X164780Y11134D01*
X164000Y11289D01*
D02*
G37*
G36*
X46250Y208039D02*
X45470Y207884D01*
X44808Y207442D01*
X44366Y206780D01*
X44211Y206000D01*
X44366Y205219D01*
X44808Y204558D01*
X45470Y204116D01*
X46250Y203961D01*
X47031Y204116D01*
X47692Y204558D01*
X48134Y205219D01*
X48289Y206000D01*
X48134Y206780D01*
X47692Y207442D01*
X47031Y207884D01*
X46250Y208039D01*
D02*
G37*
G36*
X62250Y193290D02*
X61470Y193134D01*
X60808Y192692D01*
X59692D01*
X59030Y193134D01*
X58250Y193290D01*
X57470Y193134D01*
X56808Y192692D01*
X55692D01*
X55030Y193134D01*
X54250Y193290D01*
X53470Y193134D01*
X52808Y192692D01*
X51692D01*
X51031Y193134D01*
X50250Y193290D01*
X49470Y193134D01*
X48808Y192692D01*
X47692D01*
X47031Y193134D01*
X46250Y193290D01*
X45470Y193134D01*
X44808Y192692D01*
X43692D01*
X43031Y193134D01*
X42250Y193290D01*
X41470Y193134D01*
X40808Y192692D01*
X39692D01*
X39030Y193134D01*
X38250Y193290D01*
X37470Y193134D01*
X36808Y192692D01*
X35692D01*
X35031Y193134D01*
X34250Y193290D01*
X33470Y193134D01*
X32808Y192692D01*
X32366Y192031D01*
X32211Y191250D01*
X32366Y190470D01*
X32808Y189808D01*
X33470Y189366D01*
X34250Y189211D01*
X35031Y189366D01*
X35692Y189808D01*
X36808D01*
X37470Y189366D01*
X38250Y189211D01*
X39030Y189366D01*
X39692Y189808D01*
X40808D01*
X41470Y189366D01*
X42250Y189211D01*
X43031Y189366D01*
X43692Y189808D01*
X44808D01*
X45470Y189366D01*
X46250Y189211D01*
X47031Y189366D01*
X47692Y189808D01*
X48808D01*
X49470Y189366D01*
X50250Y189211D01*
X51031Y189366D01*
X51692Y189808D01*
X52808D01*
X53470Y189366D01*
X54250Y189211D01*
X55030Y189366D01*
X55692Y189808D01*
X56808D01*
X57470Y189366D01*
X58250Y189211D01*
X59030Y189366D01*
X59692Y189808D01*
X60808D01*
X61470Y189366D01*
X62250Y189211D01*
X63031Y189366D01*
X63142Y189441D01*
X63972Y189630D01*
X64763Y189126D01*
X64808Y189058D01*
X65470Y188616D01*
X66250Y188461D01*
X67031Y188616D01*
X67692Y189058D01*
X68134Y189720D01*
X68289Y190500D01*
X68134Y191281D01*
X67692Y191942D01*
X67031Y192384D01*
X66250Y192540D01*
X65470Y192384D01*
X65359Y192310D01*
X64528Y192121D01*
X63737Y192625D01*
X63692Y192692D01*
X63031Y193134D01*
X62250Y193290D01*
D02*
G37*
G36*
X70250Y196039D02*
X69470Y195884D01*
X68808Y195442D01*
X68366Y194780D01*
X68211Y194000D01*
X68366Y193220D01*
X68808Y192558D01*
X69470Y192116D01*
X70250Y191961D01*
X71030Y192116D01*
X71692Y192558D01*
X72134Y193220D01*
X72289Y194000D01*
X72134Y194780D01*
X71692Y195442D01*
X71030Y195884D01*
X70250Y196039D01*
D02*
G37*
G36*
X83250Y191289D02*
X82470Y191134D01*
X81808Y190692D01*
X81366Y190031D01*
X81211Y189250D01*
X81366Y188470D01*
X81808Y187808D01*
X82470Y187366D01*
X83250Y187211D01*
X84031Y187366D01*
X84692Y187808D01*
X85134Y188470D01*
X85289Y189250D01*
X85134Y190031D01*
X84692Y190692D01*
X84031Y191134D01*
X83250Y191289D01*
D02*
G37*
G36*
X86250Y185289D02*
X85470Y185134D01*
X84808Y184692D01*
X84366Y184031D01*
X84211Y183250D01*
X84366Y182470D01*
X84808Y181808D01*
Y180692D01*
X84366Y180031D01*
X84211Y179250D01*
X84359Y178507D01*
X84366Y178470D01*
X83976Y177155D01*
X83837Y177046D01*
X83308Y176692D01*
X82866Y176031D01*
X82711Y175250D01*
X82866Y174470D01*
X83308Y173808D01*
X83970Y173366D01*
X84750Y173211D01*
X85530Y173366D01*
X86192Y173808D01*
X86634Y174470D01*
X86789Y175250D01*
X86641Y175994D01*
X86634Y176031D01*
X87024Y177346D01*
X87163Y177455D01*
X87692Y177808D01*
X88134Y178470D01*
X88289Y179250D01*
X88134Y180031D01*
X87692Y180692D01*
Y181808D01*
X88134Y182470D01*
X88289Y183250D01*
X88134Y184031D01*
X87692Y184692D01*
X87030Y185134D01*
X86250Y185289D01*
D02*
G37*
G36*
X26250Y181290D02*
X25470Y181134D01*
X24808Y180692D01*
X24366Y180031D01*
X24211Y179250D01*
X24366Y178470D01*
X24808Y177808D01*
Y176692D01*
X24366Y176031D01*
X24211Y175250D01*
X24366Y174470D01*
X24808Y173808D01*
Y172692D01*
X24366Y172031D01*
X24211Y171250D01*
X24366Y170470D01*
X24808Y169808D01*
X25470Y169366D01*
X26250Y169211D01*
X27030Y169366D01*
X27692Y169808D01*
X28134Y170470D01*
X28289Y171250D01*
X28134Y172031D01*
X27692Y172692D01*
Y173808D01*
X28134Y174470D01*
X28289Y175250D01*
X28134Y176031D01*
X27692Y176692D01*
Y177808D01*
X28134Y178470D01*
X28289Y179250D01*
X28134Y180031D01*
X27692Y180692D01*
X27030Y181134D01*
X26250Y181290D01*
D02*
G37*
G36*
X83000Y169289D02*
X82220Y169134D01*
X81558Y168692D01*
X81116Y168031D01*
X80961Y167250D01*
X81116Y166470D01*
X81558Y165808D01*
X82220Y165366D01*
X83000Y165211D01*
X83780Y165366D01*
X84442Y165808D01*
X84884Y166470D01*
X85039Y167250D01*
X84884Y168031D01*
X84442Y168692D01*
X83780Y169134D01*
X83000Y169289D01*
D02*
G37*
G36*
X20250Y164289D02*
X19470Y164134D01*
X18808Y163692D01*
X18366Y163030D01*
X18211Y162250D01*
X18366Y161470D01*
X18808Y160808D01*
X19470Y160366D01*
X20250Y160211D01*
X21030Y160366D01*
X21692Y160808D01*
X22134Y161470D01*
X22289Y162250D01*
X22134Y163030D01*
X21692Y163692D01*
X21030Y164134D01*
X20250Y164289D01*
D02*
G37*
G36*
X83250Y157289D02*
X82470Y157134D01*
X81808Y156692D01*
X81366Y156031D01*
X81211Y155250D01*
X81366Y154470D01*
X81808Y153808D01*
X82470Y153366D01*
X83250Y153211D01*
X84030Y153366D01*
X84692Y153808D01*
X85134Y154470D01*
X85289Y155250D01*
X85134Y156031D01*
X84692Y156692D01*
X84030Y157134D01*
X83250Y157289D01*
D02*
G37*
G36*
X15500Y155790D02*
X14720Y155634D01*
X14058Y155192D01*
X13616Y154531D01*
X13461Y153750D01*
X13616Y152970D01*
X14058Y152309D01*
X14720Y151867D01*
X15500Y151711D01*
X16280Y151867D01*
X16942Y152309D01*
X17384Y152970D01*
X17539Y153750D01*
X17384Y154531D01*
X16942Y155192D01*
X16280Y155634D01*
X15500Y155790D01*
D02*
G37*
G36*
X26900Y137289D02*
X26120Y137134D01*
X25458Y136692D01*
X25016Y136030D01*
X24861Y135250D01*
X25016Y134470D01*
X25458Y133808D01*
X26120Y133366D01*
X26900Y133211D01*
X27680Y133366D01*
X28342Y133808D01*
X28784Y134470D01*
X28939Y135250D01*
X28784Y136030D01*
X28342Y136692D01*
X27680Y137134D01*
X26900Y137289D01*
D02*
G37*
G36*
X78250Y133289D02*
X77470Y133134D01*
X76808Y132692D01*
X75692D01*
X75030Y133134D01*
X74250Y133289D01*
X73470Y133134D01*
X72808Y132692D01*
X72366Y132031D01*
X72211Y131250D01*
X72355Y130526D01*
X72226Y130351D01*
X71392Y129643D01*
X71318Y129692D01*
X71030Y129884D01*
X70250Y130039D01*
X69470Y129884D01*
X68808Y129442D01*
X68366Y128780D01*
X68211Y128000D01*
X68274Y127680D01*
X67612Y126704D01*
X67318Y126503D01*
X66720Y126384D01*
X66226Y126054D01*
X66010Y125951D01*
X64695Y126188D01*
X64692Y126192D01*
X64030Y126634D01*
X63758Y126688D01*
X63261Y127988D01*
X63512Y128238D01*
X63899Y128817D01*
X64034Y129500D01*
Y130321D01*
X64134Y130470D01*
X64289Y131250D01*
X64134Y132031D01*
X63692Y132692D01*
X63031Y133134D01*
X62250Y133289D01*
X61470Y133134D01*
X60808Y132692D01*
X59692D01*
X59030Y133134D01*
X58250Y133289D01*
X57470Y133134D01*
X56808Y132692D01*
X55692D01*
X55030Y133134D01*
X54250Y133289D01*
X53470Y133134D01*
X52808Y132692D01*
X51692D01*
X51031Y133134D01*
X50250Y133289D01*
X49470Y133134D01*
X48808Y132692D01*
X47692D01*
X47031Y133134D01*
X46250Y133289D01*
X45470Y133134D01*
X44808Y132692D01*
X44366Y132031D01*
X44211Y131250D01*
X44366Y130470D01*
X44808Y129808D01*
X45470Y129366D01*
X46250Y129211D01*
X47216Y128108D01*
Y109180D01*
X47116Y109031D01*
X46961Y108250D01*
X47116Y107470D01*
X47558Y106808D01*
X48220Y106366D01*
X49000Y106211D01*
X49780Y106366D01*
X50442Y106808D01*
X50715Y107216D01*
X51521Y107470D01*
X51601D01*
X52165Y107397D01*
X52558Y106808D01*
X53220Y106366D01*
X54000Y106211D01*
X54780Y106366D01*
X55442Y106808D01*
X55884Y107470D01*
X56039Y108250D01*
X55884Y109031D01*
X55851Y109079D01*
X56838Y109889D01*
X59081Y107646D01*
X59116Y107470D01*
X59558Y106808D01*
X60220Y106366D01*
X61000Y106211D01*
X61780Y106366D01*
X62442Y106808D01*
X62715Y107216D01*
X63521Y107470D01*
X63601D01*
X64164Y107397D01*
X64558Y106808D01*
X65220Y106366D01*
X66000Y106211D01*
X66780Y106366D01*
X67442Y106808D01*
X67884Y107470D01*
X68039Y108250D01*
X67884Y109030D01*
X67442Y109692D01*
X66780Y110134D01*
X66604Y110169D01*
X58534Y118239D01*
Y121608D01*
X59500Y122711D01*
X60280Y122866D01*
X60942Y123308D01*
X62099Y123113D01*
X62470Y122866D01*
X63250Y122711D01*
X64030Y122866D01*
X64524Y123196D01*
X64740Y123299D01*
X66055Y123062D01*
X66058Y123058D01*
X66720Y122616D01*
X67500Y122461D01*
X68280Y122616D01*
X68942Y123058D01*
X69384Y123720D01*
X69539Y124500D01*
X69475Y124820D01*
X70138Y125796D01*
X70433Y125997D01*
X71030Y126116D01*
X71692Y126558D01*
X72134Y127220D01*
X72289Y128000D01*
X72145Y128724D01*
X72274Y128899D01*
X73109Y129608D01*
X73183Y129558D01*
X73470Y129366D01*
X74250Y129211D01*
X75030Y129366D01*
X75692Y129808D01*
X76808D01*
X77470Y129366D01*
X78250Y129211D01*
X79030Y129366D01*
X79692Y129808D01*
X80134Y130470D01*
X80289Y131250D01*
X80134Y132031D01*
X79692Y132692D01*
X79030Y133134D01*
X78250Y133289D01*
D02*
G37*
G36*
X26900Y129289D02*
X26120Y129134D01*
X25458Y128692D01*
X25016Y128030D01*
X24861Y127250D01*
X25016Y126470D01*
X25458Y125808D01*
X26120Y125366D01*
X26900Y125211D01*
X27680Y125366D01*
X28342Y125808D01*
X28784Y126470D01*
X28939Y127250D01*
X28784Y128030D01*
X28342Y128692D01*
X27680Y129134D01*
X26900Y129289D01*
D02*
G37*
G36*
X15500Y130040D02*
X14720Y129884D01*
X14058Y129442D01*
X13616Y128781D01*
X13461Y128000D01*
X13616Y127220D01*
X14058Y126558D01*
X14720Y126116D01*
X15500Y125961D01*
X16280Y126116D01*
X16567Y126308D01*
X16641Y126357D01*
X17475Y125650D01*
X17605Y125474D01*
X17461Y124750D01*
X17616Y123970D01*
X18058Y123308D01*
X18720Y122866D01*
X19500Y122711D01*
X20280Y122866D01*
X20942Y123308D01*
X21384Y123970D01*
X21539Y124750D01*
X21384Y125530D01*
X20942Y126192D01*
X20280Y126634D01*
X19500Y126789D01*
X18720Y126634D01*
X18433Y126442D01*
X18359Y126393D01*
X17525Y127101D01*
X17395Y127277D01*
X17539Y128000D01*
X17384Y128781D01*
X16942Y129442D01*
X16280Y129884D01*
X15500Y130040D01*
D02*
G37*
G36*
X70500Y121829D02*
X68939Y121518D01*
X67616Y120634D01*
X66732Y119311D01*
X66422Y117750D01*
X66732Y116189D01*
X67616Y114866D01*
X68939Y113982D01*
X70500Y113672D01*
X72061Y113982D01*
X73384Y114866D01*
X74268Y116189D01*
X74578Y117750D01*
X74268Y119311D01*
X73384Y120634D01*
X72061Y121518D01*
X70500Y121829D01*
D02*
G37*
%LPD*%
D33*
X225500Y179000D02*
X229750Y174750D01*
X192500Y211750D02*
X210300D01*
X215550Y206500D01*
X229750D01*
X217500Y200000D02*
X229750D01*
X209750Y207750D02*
X217500Y200000D01*
X163750Y205750D02*
X165750Y203750D01*
X219250Y193500D02*
X229750D01*
X190750Y179000D02*
X225500D01*
X209000Y203750D02*
X219250Y193500D01*
X165750Y203750D02*
X209000D01*
X186000Y183750D02*
X190750Y179000D01*
X186000Y183750D02*
Y187750D01*
X182000Y191750D02*
X186000Y187750D01*
X211750Y191750D02*
X213750Y193750D01*
X209750Y191750D02*
X211750D01*
X16200Y-6500D02*
X21900D01*
X28900D02*
X34600D01*
X41600D02*
X47300D01*
X54300D02*
X60000D01*
X67000D02*
X72700D01*
X79700D02*
X85400D01*
X92400D02*
X98100D01*
X105100D02*
X110800D01*
X117800D02*
X123500D01*
X130500D02*
X136200D01*
X143200D02*
X148900D01*
X155900D02*
X161600D01*
X168600D02*
X174300D01*
X181300D02*
X187000D01*
X194000D02*
X199700D01*
X206700D02*
X212400D01*
X219400D02*
X225100D01*
X231846D02*
X237546D01*
X244546D02*
X250246D01*
X257246D02*
X262946D01*
X285900Y257246D02*
Y262946D01*
X285900Y250246D02*
X285900Y244546D01*
Y231846D02*
Y237546D01*
Y219400D02*
Y225100D01*
X285900Y212400D02*
X285900Y206700D01*
Y194000D02*
Y199700D01*
Y181300D02*
Y187000D01*
X285900Y168600D02*
X285900Y174300D01*
Y155900D02*
Y161600D01*
X285900Y148900D02*
X285900Y143200D01*
Y130500D02*
Y136200D01*
Y117800D02*
Y123500D01*
X285900Y105100D02*
X285900Y110800D01*
Y92400D02*
Y98100D01*
X285900Y85400D02*
X285900Y79700D01*
Y67000D02*
Y72700D01*
Y54300D02*
Y60000D01*
X285900Y41600D02*
Y47300D01*
X285900Y28900D02*
Y34600D01*
X285900Y21900D02*
X285900Y16200D01*
X16454Y285900D02*
X22154D01*
X29154Y285900D02*
X34854Y285900D01*
X41854D02*
X47554D01*
X54300D02*
X60000D01*
X67000Y285900D02*
X72700Y285900D01*
X79700D02*
X85400D01*
X92400D02*
X98100D01*
X105100D02*
X110800Y285900D01*
X117800Y285900D02*
X123500D01*
X130500Y285900D02*
X136200Y285900D01*
X143200D02*
X148900D01*
X155900D02*
X161600D01*
X168600D02*
X174300Y285900D01*
X181300Y285900D02*
X187000D01*
X194000Y285900D02*
X199700Y285900D01*
X206700D02*
X212400D01*
X219400D02*
X225100D01*
X232100Y285900D02*
X237800D01*
X244800Y285900D02*
X250500D01*
X257500Y285900D02*
X263200Y285900D01*
X-6500Y16454D02*
Y22154D01*
Y34854D02*
X-6500Y29154D01*
X-6500Y41854D02*
Y47554D01*
Y54300D02*
Y60000D01*
Y72700D02*
X-6500Y67000D01*
X-6500Y79700D02*
Y85400D01*
Y92400D02*
Y98100D01*
Y105100D02*
X-6500Y110800D01*
X-6500Y117800D02*
Y123500D01*
Y136200D02*
X-6500Y130500D01*
X-6500Y143200D02*
Y148900D01*
Y155900D02*
Y161600D01*
Y168600D02*
X-6500Y174300D01*
X-6500Y181300D02*
Y187000D01*
Y199700D02*
X-6500Y194000D01*
X-6500Y206700D02*
Y212400D01*
Y219400D02*
Y225100D01*
X-6500Y232100D02*
Y237800D01*
X-6500Y244800D02*
Y250500D01*
Y263200D02*
X-6500Y257500D01*
X-6500Y269946D02*
Y285900D01*
X9454D01*
X285900Y269946D02*
Y285900D01*
X269946D02*
X285900D01*
X269946Y-6500D02*
X285900D01*
Y9454D01*
X-6500D02*
X9454Y-6500D01*
X-11176Y137160D02*
Y142240D01*
X-10470Y142946D02*
X-6500D01*
X-10470Y136454D02*
X-6500D01*
X-11176Y142240D02*
X-10470Y142946D01*
X-11176Y137160D02*
X-10470Y136454D01*
X-11176Y124460D02*
Y129540D01*
X-10470Y130246D02*
X-6500D01*
X-10470Y123754D02*
X-6500D01*
X-11176Y129540D02*
X-10470Y130246D01*
X-11176Y124460D02*
X-10470Y123754D01*
X-11176Y111760D02*
Y116840D01*
X-10470Y117546D02*
X-6500D01*
X-10470Y111054D02*
X-6500D01*
X-11176Y116840D02*
X-10470Y117546D01*
X-11176Y111760D02*
X-10470Y111054D01*
X-11176Y99060D02*
Y104140D01*
X-10470Y104846D02*
X-6500D01*
X-10470Y98354D02*
X-6500D01*
X-11176Y104140D02*
X-10470Y104846D01*
X-11176Y99060D02*
X-10470Y98354D01*
X-11176Y86360D02*
Y91440D01*
X-10470Y92146D02*
X-6500D01*
X-10470Y85654D02*
X-6500D01*
X-11176Y91440D02*
X-10470Y92146D01*
X-11176Y86360D02*
X-10470Y85654D01*
X-11176Y73660D02*
Y78740D01*
X-10470Y79446D02*
X-6500D01*
X-10470Y72954D02*
X-6500D01*
X-11176Y78740D02*
X-10470Y79446D01*
X-11176Y73660D02*
X-10470Y72954D01*
X-11176Y60960D02*
Y66040D01*
X-10470Y66746D02*
X-6500D01*
X-10470Y60254D02*
X-6500D01*
X-11176Y66040D02*
X-10470Y66746D01*
X-11176Y60960D02*
X-10470Y60254D01*
X-11176Y48260D02*
Y53340D01*
X-10470Y54046D02*
X-6500D01*
X-10470Y47554D02*
X-6500D01*
X-11176Y53340D02*
X-10470Y54046D01*
X-11176Y48260D02*
X-10470Y47554D01*
X-11176Y35560D02*
Y40640D01*
X-10470Y41346D02*
X-6500D01*
X-10470Y34854D02*
X-6500D01*
X-11176Y40640D02*
X-10470Y41346D01*
X-11176Y35560D02*
X-10470Y34854D01*
X-11176Y22860D02*
Y27940D01*
X-10470Y28646D02*
X-6500D01*
X-10470Y22154D02*
X-6500D01*
X-11176Y27940D02*
X-10470Y28646D01*
X-11176Y22860D02*
X-10470Y22154D01*
X-11176Y10160D02*
Y15240D01*
X-10470Y15946D02*
X-6500D01*
X-10470Y9454D02*
X-6500D01*
X-11176Y15240D02*
X-10470Y15946D01*
X-11176Y10160D02*
X-10470Y9454D01*
X10160Y-11176D02*
X15240D01*
X9454Y-10470D02*
Y-6500D01*
X15946Y-10470D02*
Y-6500D01*
X9454Y-10470D02*
X10160Y-11176D01*
X15240D02*
X15946Y-10470D01*
X22860Y-11176D02*
X27940D01*
X22154Y-10470D02*
Y-6500D01*
X28646Y-10470D02*
Y-6500D01*
X22154Y-10470D02*
X22860Y-11176D01*
X27940D02*
X28646Y-10470D01*
X35560Y-11176D02*
X40640D01*
X34854Y-10470D02*
Y-6500D01*
X41346Y-10470D02*
Y-6500D01*
X34854Y-10470D02*
X35560Y-11176D01*
X40640D02*
X41346Y-10470D01*
X48260Y-11176D02*
X53340D01*
X47554Y-10470D02*
Y-6500D01*
X54046Y-10470D02*
Y-6500D01*
X47554Y-10470D02*
X48260Y-11176D01*
X53340D02*
X54046Y-10470D01*
X60960Y-11176D02*
X66040D01*
X60254Y-10470D02*
Y-6500D01*
X66746Y-10470D02*
Y-6500D01*
X60254Y-10470D02*
X60960Y-11176D01*
X66040D02*
X66746Y-10470D01*
X73660Y-11176D02*
X78740D01*
X72954Y-10470D02*
Y-6500D01*
X79446Y-10470D02*
Y-6500D01*
X72954Y-10470D02*
X73660Y-11176D01*
X78740D02*
X79446Y-10470D01*
X86360Y-11176D02*
X91440D01*
X85654Y-10470D02*
Y-6500D01*
X92146Y-10470D02*
Y-6500D01*
X85654Y-10470D02*
X86360Y-11176D01*
X91440D02*
X92146Y-10470D01*
X99060Y-11176D02*
X104140D01*
X98354Y-10470D02*
Y-6500D01*
X104846Y-10470D02*
Y-6500D01*
X98354Y-10470D02*
X99060Y-11176D01*
X104140D02*
X104846Y-10470D01*
X111760Y-11176D02*
X116840D01*
X111054Y-10470D02*
Y-6500D01*
X117546Y-10470D02*
Y-6500D01*
X111054Y-10470D02*
X111760Y-11176D01*
X116840D02*
X117546Y-10470D01*
X124460Y-11176D02*
X129540D01*
X123754Y-10470D02*
Y-6500D01*
X130246Y-10470D02*
Y-6500D01*
X123754Y-10470D02*
X124460Y-11176D01*
X129540D02*
X130246Y-10470D01*
X137160Y-11176D02*
X142240D01*
X136454Y-10470D02*
Y-6500D01*
X142946Y-10470D02*
Y-6500D01*
X136454Y-10470D02*
X137160Y-11176D01*
X142240D02*
X142946Y-10470D01*
X149860Y-11176D02*
X154940D01*
X149154Y-10470D02*
Y-6500D01*
X155646Y-10470D02*
Y-6500D01*
X149154Y-10470D02*
X149860Y-11176D01*
X154940D02*
X155646Y-10470D01*
X162560Y-11176D02*
X167640D01*
X161854Y-10470D02*
Y-6500D01*
X168346Y-10470D02*
Y-6500D01*
X161854Y-10470D02*
X162560Y-11176D01*
X167640D02*
X168346Y-10470D01*
X175260Y-11176D02*
X180340D01*
X174554Y-10470D02*
Y-6500D01*
X181046Y-10470D02*
Y-6500D01*
X174554Y-10470D02*
X175260Y-11176D01*
X180340D02*
X181046Y-10470D01*
X187960Y-11176D02*
X193040D01*
X187254Y-10470D02*
Y-6500D01*
X193746Y-10470D02*
Y-6500D01*
X187254Y-10470D02*
X187960Y-11176D01*
X193040D02*
X193746Y-10470D01*
X200660Y-11176D02*
X205740D01*
X199954Y-10470D02*
Y-6500D01*
X206446Y-10470D02*
Y-6500D01*
X199954Y-10470D02*
X200660Y-11176D01*
X205740D02*
X206446Y-10470D01*
X213360Y-11176D02*
X218440D01*
X212654Y-10470D02*
Y-6500D01*
X219146Y-10470D02*
Y-6500D01*
X212654Y-10470D02*
X213360Y-11176D01*
X218440D02*
X219146Y-10470D01*
X226060Y-11176D02*
X231140D01*
X225354Y-10470D02*
Y-6500D01*
X231846Y-10470D02*
Y-6500D01*
X225354Y-10470D02*
X226060Y-11176D01*
X231140D02*
X231846Y-10470D01*
X238760Y-11176D02*
X243840D01*
X238054Y-10470D02*
Y-6500D01*
X244546Y-10470D02*
Y-6500D01*
X238054Y-10470D02*
X238760Y-11176D01*
X243840D02*
X244546Y-10470D01*
X251460Y-11176D02*
X256540D01*
X250754Y-10470D02*
Y-6500D01*
X257246Y-10470D02*
Y-6500D01*
X250754Y-10470D02*
X251460Y-11176D01*
X256540D02*
X257246Y-10470D01*
X264160Y-11176D02*
X269240D01*
X263454Y-10470D02*
Y-6500D01*
X269946Y-10470D02*
Y-6500D01*
X263454Y-10470D02*
X264160Y-11176D01*
X269240D02*
X269946Y-10470D01*
X290576Y10160D02*
Y15240D01*
X285900Y9454D02*
X289870D01*
X285900Y15946D02*
X289870D01*
Y9454D02*
X290576Y10160D01*
X289870Y15946D02*
X290576Y15240D01*
Y22860D02*
Y27940D01*
X285900Y22154D02*
X289870D01*
X285900Y28646D02*
X289870D01*
Y22154D02*
X290576Y22860D01*
X289870Y28646D02*
X290576Y27940D01*
Y35560D02*
Y40640D01*
X285900Y34854D02*
X289870D01*
X285900Y41346D02*
X289870D01*
Y34854D02*
X290576Y35560D01*
X289870Y41346D02*
X290576Y40640D01*
Y48260D02*
Y53340D01*
X285900Y47554D02*
X289870D01*
X285900Y54046D02*
X289870D01*
Y47554D02*
X290576Y48260D01*
X289870Y54046D02*
X290576Y53340D01*
Y60960D02*
Y66040D01*
X285900Y60254D02*
X289870D01*
X285900Y66746D02*
X289870D01*
Y60254D02*
X290576Y60960D01*
X289870Y66746D02*
X290576Y66040D01*
Y73660D02*
Y78740D01*
X285900Y72954D02*
X289870D01*
X285900Y79446D02*
X289870D01*
Y72954D02*
X290576Y73660D01*
X289870Y79446D02*
X290576Y78740D01*
Y86360D02*
Y91440D01*
X285900Y85654D02*
X289870D01*
X285900Y92146D02*
X289870D01*
Y85654D02*
X290576Y86360D01*
X289870Y92146D02*
X290576Y91440D01*
Y99060D02*
Y104140D01*
X285900Y98354D02*
X289870D01*
X285900Y104846D02*
X289870D01*
Y98354D02*
X290576Y99060D01*
X289870Y104846D02*
X290576Y104140D01*
Y111760D02*
Y116840D01*
X285900Y111054D02*
X289870D01*
X285900Y117546D02*
X289870D01*
Y111054D02*
X290576Y111760D01*
X289870Y117546D02*
X290576Y116840D01*
Y124460D02*
Y129540D01*
X285900Y123754D02*
X289870D01*
X285900Y130246D02*
X289870D01*
Y123754D02*
X290576Y124460D01*
X289870Y130246D02*
X290576Y129540D01*
Y137160D02*
Y142240D01*
X285900Y136454D02*
X289870D01*
X285900Y142946D02*
X289870D01*
Y136454D02*
X290576Y137160D01*
X289870Y142946D02*
X290576Y142240D01*
Y149860D02*
Y154940D01*
X285900Y149154D02*
X289870D01*
X285900Y155646D02*
X289870D01*
Y149154D02*
X290576Y149860D01*
X289870Y155646D02*
X290576Y154940D01*
Y162560D02*
Y167640D01*
X285900Y161854D02*
X289870D01*
X285900Y168346D02*
X289870D01*
Y161854D02*
X290576Y162560D01*
X289870Y168346D02*
X290576Y167640D01*
Y175260D02*
Y180340D01*
X285900Y174554D02*
X289870D01*
X285900Y181046D02*
X289870D01*
Y174554D02*
X290576Y175260D01*
X289870Y181046D02*
X290576Y180340D01*
Y187960D02*
Y193040D01*
X285900Y187254D02*
X289870D01*
X285900Y193746D02*
X289870D01*
Y187254D02*
X290576Y187960D01*
X289870Y193746D02*
X290576Y193040D01*
Y200660D02*
Y205740D01*
X285900Y199954D02*
X289870D01*
X285900Y206446D02*
X289870D01*
Y199954D02*
X290576Y200660D01*
X289870Y206446D02*
X290576Y205740D01*
Y213360D02*
Y218440D01*
X285900Y212654D02*
X289870D01*
X285900Y219146D02*
X289870D01*
Y212654D02*
X290576Y213360D01*
X289870Y219146D02*
X290576Y218440D01*
Y226060D02*
Y231140D01*
X285900Y225354D02*
X289870D01*
X285900Y231846D02*
X289870D01*
Y225354D02*
X290576Y226060D01*
X289870Y231846D02*
X290576Y231140D01*
Y238760D02*
Y243840D01*
X285900Y238054D02*
X289870D01*
X285900Y244546D02*
X289870D01*
Y238054D02*
X290576Y238760D01*
X289870Y244546D02*
X290576Y243840D01*
Y251460D02*
Y256540D01*
X285900Y250754D02*
X289870D01*
X285900Y257246D02*
X289870D01*
Y250754D02*
X290576Y251460D01*
X289870Y257246D02*
X290576Y256540D01*
Y264160D02*
Y269240D01*
X285900Y263454D02*
X289870D01*
X285900Y269946D02*
X289870D01*
Y263454D02*
X290576Y264160D01*
X289870Y269946D02*
X290576Y269240D01*
X264160Y290576D02*
X269240D01*
X269946Y285900D02*
Y289870D01*
X263454Y285900D02*
Y289870D01*
X269240Y290576D02*
X269946Y289870D01*
X263454D02*
X264160Y290576D01*
X251460D02*
X256540D01*
X257246Y285900D02*
Y289870D01*
X250754Y285900D02*
Y289870D01*
X256540Y290576D02*
X257246Y289870D01*
X250754D02*
X251460Y290576D01*
X238760D02*
X243840D01*
X244546Y285900D02*
Y289870D01*
X238054Y285900D02*
Y289870D01*
X243840Y290576D02*
X244546Y289870D01*
X238054D02*
X238760Y290576D01*
X226060D02*
X231140D01*
X231846Y285900D02*
Y289870D01*
X225354Y285900D02*
Y289870D01*
X231140Y290576D02*
X231846Y289870D01*
X225354D02*
X226060Y290576D01*
X213360D02*
X218440D01*
X219146Y285900D02*
Y289870D01*
X212654Y285900D02*
Y289870D01*
X218440Y290576D02*
X219146Y289870D01*
X212654D02*
X213360Y290576D01*
X200660D02*
X205740D01*
X206446Y285900D02*
Y289870D01*
X199954Y285900D02*
Y289870D01*
X205740Y290576D02*
X206446Y289870D01*
X199954D02*
X200660Y290576D01*
X187960D02*
X193040D01*
X193746Y285900D02*
Y289870D01*
X187254Y285900D02*
Y289870D01*
X193040Y290576D02*
X193746Y289870D01*
X187254D02*
X187960Y290576D01*
X175260D02*
X180340D01*
X181046Y285900D02*
Y289870D01*
X174554Y285900D02*
Y289870D01*
X180340Y290576D02*
X181046Y289870D01*
X174554D02*
X175260Y290576D01*
X162560D02*
X167640D01*
X168346Y285900D02*
Y289870D01*
X161854Y285900D02*
Y289870D01*
X167640Y290576D02*
X168346Y289870D01*
X161854D02*
X162560Y290576D01*
X149860D02*
X154940D01*
X155646Y285900D02*
Y289870D01*
X149154Y285900D02*
Y289870D01*
X154940Y290576D02*
X155646Y289870D01*
X149154D02*
X149860Y290576D01*
X137160D02*
X142240D01*
X142946Y285900D02*
Y289870D01*
X136454Y285900D02*
Y289870D01*
X142240Y290576D02*
X142946Y289870D01*
X136454D02*
X137160Y290576D01*
X124460D02*
X129540D01*
X130246Y285900D02*
Y289870D01*
X123754Y285900D02*
Y289870D01*
X129540Y290576D02*
X130246Y289870D01*
X123754D02*
X124460Y290576D01*
X111760D02*
X116840D01*
X117546Y285900D02*
Y289870D01*
X111054Y285900D02*
Y289870D01*
X116840Y290576D02*
X117546Y289870D01*
X111054D02*
X111760Y290576D01*
X99060D02*
X104140D01*
X104846Y285900D02*
Y289870D01*
X98354Y285900D02*
Y289870D01*
X104140Y290576D02*
X104846Y289870D01*
X98354D02*
X99060Y290576D01*
X86360D02*
X91440D01*
X92146Y285900D02*
Y289870D01*
X85654Y285900D02*
Y289870D01*
X91440Y290576D02*
X92146Y289870D01*
X85654D02*
X86360Y290576D01*
X73660D02*
X78740D01*
X79446Y285900D02*
Y289870D01*
X72954Y285900D02*
Y289870D01*
X78740Y290576D02*
X79446Y289870D01*
X72954D02*
X73660Y290576D01*
X60960D02*
X66040D01*
X66746Y285900D02*
Y289870D01*
X60254Y285900D02*
Y289870D01*
X66040Y290576D02*
X66746Y289870D01*
X60254D02*
X60960Y290576D01*
X48260D02*
X53340D01*
X54046Y285900D02*
Y289870D01*
X47554Y285900D02*
Y289870D01*
X53340Y290576D02*
X54046Y289870D01*
X47554D02*
X48260Y290576D01*
X35560D02*
X40640D01*
X41346Y285900D02*
Y289870D01*
X34854Y285900D02*
Y289870D01*
X40640Y290576D02*
X41346Y289870D01*
X34854D02*
X35560Y290576D01*
X22860D02*
X27940D01*
X28646Y285900D02*
Y289870D01*
X22154Y285900D02*
Y289870D01*
X27940Y290576D02*
X28646Y289870D01*
X22154D02*
X22860Y290576D01*
X10160D02*
X15240D01*
X15946Y285900D02*
Y289870D01*
X9454Y285900D02*
Y289870D01*
X15240Y290576D02*
X15946Y289870D01*
X9454D02*
X10160Y290576D01*
X-11176Y264160D02*
Y269240D01*
X-10470Y269946D02*
X-6500D01*
X-10470Y263454D02*
X-6500D01*
X-11176Y269240D02*
X-10470Y269946D01*
X-11176Y264160D02*
X-10470Y263454D01*
X-11176Y251460D02*
Y256540D01*
X-10470Y257246D02*
X-6500D01*
X-10470Y250754D02*
X-6500D01*
X-11176Y256540D02*
X-10470Y257246D01*
X-11176Y251460D02*
X-10470Y250754D01*
X-11176Y238760D02*
Y243840D01*
X-10470Y244546D02*
X-6500D01*
X-10470Y238054D02*
X-6500D01*
X-11176Y243840D02*
X-10470Y244546D01*
X-11176Y238760D02*
X-10470Y238054D01*
X-11176Y226060D02*
Y231140D01*
X-10470Y231846D02*
X-6500D01*
X-10470Y225354D02*
X-6500D01*
X-11176Y231140D02*
X-10470Y231846D01*
X-11176Y226060D02*
X-10470Y225354D01*
X-11176Y213360D02*
Y218440D01*
X-10470Y219146D02*
X-6500D01*
X-10470Y212654D02*
X-6500D01*
X-11176Y218440D02*
X-10470Y219146D01*
X-11176Y213360D02*
X-10470Y212654D01*
X-11176Y200660D02*
Y205740D01*
X-10470Y206446D02*
X-6500D01*
X-10470Y199954D02*
X-6500D01*
X-11176Y205740D02*
X-10470Y206446D01*
X-11176Y200660D02*
X-10470Y199954D01*
X-11176Y187960D02*
Y193040D01*
X-10470Y193746D02*
X-6500D01*
X-10470Y187254D02*
X-6500D01*
X-11176Y193040D02*
X-10470Y193746D01*
X-11176Y187960D02*
X-10470Y187254D01*
X-11176Y175260D02*
Y180340D01*
X-10470Y181046D02*
X-6500D01*
X-10470Y174554D02*
X-6500D01*
X-11176Y180340D02*
X-10470Y181046D01*
X-11176Y175260D02*
X-10470Y174554D01*
X-11176Y162560D02*
Y167640D01*
X-10470Y168346D02*
X-6500D01*
X-10470Y161854D02*
X-6500D01*
X-11176Y167640D02*
X-10470Y168346D01*
X-11176Y162560D02*
X-10470Y161854D01*
X-11176Y149860D02*
Y154940D01*
X-10470Y155646D02*
X-6500D01*
X-10470Y149154D02*
X-6500D01*
X-11176Y154940D02*
X-10470Y155646D01*
X-11176Y149860D02*
X-10470Y149154D01*
D34*
X106000Y212000D02*
X106000Y212000D01*
X105750Y211750D02*
X106000Y212000D01*
X66750Y89500D02*
X68750Y87500D01*
Y61000D02*
Y87500D01*
X44670Y264150D02*
X49670D01*
X53170Y267650D01*
X71170D01*
X74670Y264150D01*
X52070Y211750D02*
X93000D01*
X32170Y231650D02*
X52070Y211750D01*
X93000D02*
X105750D01*
X74670Y264150D02*
X76320Y262500D01*
X101250D01*
X106000Y257750D01*
X240000Y106749D02*
X251999D01*
X257000Y111750D01*
X266500D01*
X151007Y141507D02*
X153250Y143750D01*
X165750D01*
Y135750D02*
X165750Y135750D01*
X151007Y139507D02*
Y141507D01*
D35*
X58215Y131250D02*
X58250D01*
X56750Y117500D02*
X66000Y108250D01*
X56750Y117500D02*
Y126250D01*
X58750Y128250D01*
X54250Y115000D02*
X61000Y108250D01*
X54250Y115000D02*
Y127285D01*
X58215Y131250D01*
X51750Y110500D02*
X54000Y108250D01*
X51750Y110500D02*
Y128750D01*
X54250Y131250D01*
X49000Y108250D02*
Y130000D01*
X58750Y128250D02*
X61000D01*
X62250Y129500D01*
Y131250D01*
X49000Y130000D02*
X50250Y131250D01*
D36*
X193759Y110505D02*
Y110776D01*
Y104509D02*
Y110505D01*
X193750Y104500D02*
X193759Y104509D01*
X193750Y110786D02*
X193759Y110776D01*
X178750Y135000D02*
X188500D01*
X147750Y137828D02*
X202750Y82828D01*
X149250Y125136D02*
X152136Y122250D01*
X154785D01*
X156250Y120786D01*
X155364Y124500D02*
X158250Y121614D01*
X152715Y124500D02*
X155364D01*
X151250Y125964D02*
X152715Y124500D01*
X151250Y125964D02*
Y126714D01*
X156250Y118886D02*
Y120786D01*
X158250Y119714D02*
Y121614D01*
X147000Y122964D02*
X157465Y112500D01*
X145000Y122136D02*
X156636Y110500D01*
X139000Y125250D02*
X155750Y108500D01*
X153750Y159750D02*
Y160672D01*
Y167750D02*
X156250Y170250D01*
X153750Y160672D02*
X160250Y167172D01*
X249250Y170000D02*
X264000Y184750D01*
X153750Y151750D02*
X156750Y154750D01*
X125750Y139750D02*
X129750Y143750D01*
Y132000D02*
Y135750D01*
X121750Y132000D02*
Y135750D01*
X116500Y138500D02*
X121750Y143750D01*
X116500Y128922D02*
Y138500D01*
X174672Y70750D02*
X176922D01*
X184000Y63672D01*
X121750Y139750D02*
X125750D01*
X119000Y137000D02*
X121750Y139750D01*
X119000Y129250D02*
Y137000D01*
X175500Y72750D02*
X177750D01*
X186000Y64500D01*
Y29500D02*
Y64500D01*
X134750Y148750D02*
X137750Y151750D01*
X20500Y212500D02*
Y237500D01*
X20500Y237500D02*
X20500Y237500D01*
X237750Y61750D02*
Y65328D01*
X236250Y75750D02*
X240000D01*
X220500Y22000D02*
X224500Y26000D01*
X221761Y44002D02*
Y55547D01*
X224500Y26000D02*
Y55636D01*
X166250Y116500D02*
X200750Y82000D01*
X147250Y106500D02*
X157093D01*
X188000Y75593D01*
X157922Y108500D02*
X190500Y75922D01*
X158750Y110500D02*
X192500Y76750D01*
X159578Y112500D02*
X194500Y77578D01*
X165422Y114500D02*
X198750Y81172D01*
X161465Y116500D02*
X166250D01*
X160636Y114500D02*
X165422D01*
X156250Y118886D02*
X160636Y114500D01*
X158250Y119714D02*
X161465Y116500D01*
X157465Y112500D02*
X159578D01*
X156636Y110500D02*
X158750D01*
X155750Y108500D02*
X157922D01*
X156250Y182000D02*
X166000Y191750D01*
X172250D01*
X158250Y179000D02*
X160750Y181500D01*
X232000Y39000D02*
X242500D01*
X244250Y40750D01*
Y45250D01*
X140250Y151500D02*
X141000Y152250D01*
X142000D01*
X142750Y151500D01*
Y145750D02*
Y151500D01*
X219750Y30500D02*
Y36750D01*
X216250Y30250D02*
X216750Y29750D01*
X219000D01*
X219750Y30500D01*
X202000Y19750D02*
X204000Y17750D01*
X186000Y29500D02*
X201000Y14500D01*
X202500D01*
X204000Y16000D01*
Y17750D01*
X188000Y30328D02*
X196078Y22250D01*
X205250D01*
X206250Y23250D01*
Y25750D01*
X200749Y27000D02*
X205000D01*
X206250Y25750D01*
X197250Y50750D02*
Y67321D01*
Y50750D02*
X199000Y49000D01*
X190000Y44000D02*
X190750Y44750D01*
X190000Y39250D02*
Y44000D01*
Y39250D02*
X190750Y38500D01*
X199000Y49000D02*
X213500D01*
X214250Y48250D01*
Y45500D02*
Y48250D01*
X200000Y34250D02*
Y35750D01*
X195000Y35578D02*
X197578Y33000D01*
X198750D01*
X200000Y34250D01*
X190750Y38500D02*
X193500D01*
X195000Y37000D01*
Y35578D02*
Y37000D01*
X188250Y20250D02*
X189000Y21000D01*
Y22500D01*
X188250Y23250D02*
X189000Y22500D01*
X184000Y23750D02*
Y63672D01*
Y23750D02*
X184500Y23250D01*
X188250D01*
X180750Y18000D02*
X181250Y17500D01*
X180750Y18000D02*
Y19750D01*
X181250Y20250D01*
X188250D01*
X181250Y17500D02*
X189750D01*
X216250Y30250D02*
Y53978D01*
X214000Y52000D02*
Y53399D01*
X213250Y51250D02*
X214000Y52000D01*
X212000Y51250D02*
X213250D01*
X199250Y60000D02*
X206250Y53000D01*
Y51750D02*
Y53000D01*
X205500Y51000D02*
X206250Y51750D01*
X204500Y51000D02*
X205500D01*
X201000Y54500D02*
X204500Y51000D01*
X200000Y54500D02*
X201000D01*
X199250Y53750D02*
X200000Y54500D01*
X199250Y52500D02*
Y53750D01*
Y52500D02*
X200000Y51750D01*
X199250Y60000D02*
Y63000D01*
X199750Y63500D01*
X200500D01*
X201750Y62250D01*
Y61500D02*
Y62250D01*
Y61500D02*
X212000Y51250D01*
X190750Y138250D02*
X192750Y136250D01*
X202750D01*
X202010Y110505D02*
X202505D01*
X176000Y138250D02*
X190750D01*
X213500Y44750D02*
X214250Y45500D01*
X190750Y44750D02*
X213500D01*
X234000Y55500D02*
X244250Y45250D01*
X227500Y55500D02*
X234000D01*
X227000Y44000D02*
X232000Y39000D01*
X134750Y134500D02*
Y148750D01*
X147750Y145250D02*
X148750Y146250D01*
X145750Y151750D02*
X148750Y148750D01*
Y146250D02*
Y148750D01*
X189750Y17500D02*
X192000Y19750D01*
X200000D02*
X202000D01*
X190500Y74071D02*
Y75922D01*
X192500Y74899D02*
Y76750D01*
X194500Y75728D02*
Y77578D01*
X198750Y78557D02*
Y81172D01*
X200750Y79386D02*
Y82000D01*
X202750Y80214D02*
Y82828D01*
X188000Y30328D02*
Y75593D01*
X190500Y74071D02*
X197250Y67321D01*
X192500Y74899D02*
X214000Y53399D01*
X194500Y75728D02*
X216250Y53978D01*
X198750Y78557D02*
X221761Y55547D01*
X200750Y79386D02*
X224500Y55636D01*
X202750Y80214D02*
X204214Y78750D01*
X204250D01*
X227500Y55500D01*
X192000Y35750D02*
X200749Y27000D01*
X202750Y136250D02*
X208761Y130239D01*
X214750Y118750D02*
X215750Y117750D01*
X169750Y144500D02*
X176000Y138250D01*
X212745Y124495D02*
X215750Y127500D01*
X208750Y121250D02*
X211250Y118750D01*
X214750D01*
X208750Y121250D02*
Y123000D01*
X210245Y124495D01*
X212745D01*
X208761Y130239D02*
X214511D01*
X215750Y129000D01*
Y127500D02*
Y129000D01*
X202010Y110505D02*
X203505Y112000D01*
X214750D01*
X215750Y113000D01*
Y117750D01*
X222250Y78000D02*
X234250Y66000D01*
X224250Y78828D02*
X237750Y65328D01*
X226250Y81500D02*
X232000Y75750D01*
X222250Y78000D02*
Y133265D01*
X224250Y78828D02*
Y134093D01*
X226250Y81500D02*
Y134922D01*
X234250Y61750D02*
Y66000D01*
X258250Y56000D02*
Y61750D01*
X240250Y79750D02*
X258250Y61750D01*
X240250Y79750D02*
Y89250D01*
X234500Y95000D02*
X240250Y89250D01*
X234500Y95000D02*
Y106250D01*
X243250Y115000D01*
Y161500D01*
X249250Y167500D01*
Y170000D01*
X184000Y104407D02*
Y126000D01*
X177750Y132250D02*
X184000Y126000D01*
X177750Y132250D02*
Y134000D01*
X178750Y135000D01*
X184000Y104407D02*
X195407Y93000D01*
X198000D01*
X198750Y93750D01*
Y99500D01*
X193750Y104500D02*
X198750Y99500D01*
X145750Y171750D02*
X152625Y164875D01*
X156750Y154750D02*
Y160843D01*
X152625Y164875D02*
X155125D01*
X145750Y171750D02*
Y175750D01*
X156750Y160843D02*
X162250Y166343D01*
X155125Y164875D02*
X158250Y168000D01*
X162250Y166343D02*
Y171750D01*
X165250Y174750D01*
X160250Y167172D02*
Y174500D01*
X163000Y177250D01*
X158250Y168000D02*
Y179000D01*
X156250Y170250D02*
Y182000D01*
X165250Y174750D02*
X180765D01*
X222250Y133265D01*
X163000Y177250D02*
X181093D01*
X224250Y134093D01*
X179672Y181500D02*
X226250Y134922D01*
X160750Y181500D02*
X179672D01*
X172250Y191750D02*
X228500Y135500D01*
X142250Y145250D02*
X142750Y145750D01*
X228500Y83500D02*
X236250Y75750D01*
X228500Y83500D02*
Y135500D01*
X147750Y137828D02*
Y145250D01*
X137500Y134578D02*
Y143500D01*
X139500Y135636D02*
Y141965D01*
X142000Y135964D02*
Y137250D01*
X137500Y143500D02*
X137750Y143750D01*
X139500Y141965D02*
X140250Y142715D01*
Y151500D01*
X116500Y128922D02*
X174672Y70750D01*
X119000Y129250D02*
X175500Y72750D01*
X121750Y132000D02*
X147250Y106500D01*
X147000Y122964D02*
Y125078D01*
X149250Y125136D02*
Y125886D01*
X129750Y132000D02*
X136500Y125250D01*
X139000D01*
X134750Y134500D02*
X145000Y124250D01*
Y122136D02*
Y124250D01*
X137500Y134578D02*
X147000Y125078D01*
X139500Y135636D02*
X149250Y125886D01*
X142000Y135964D02*
X151250Y126714D01*
D37*
X14500Y205000D02*
X19000D01*
X24750Y210750D01*
Y224230D01*
X32170Y231650D01*
D40*
X94000Y198000D02*
X96250Y195750D01*
X92750Y198000D02*
X94000D01*
X165750Y143750D02*
Y152500D01*
Y135750D02*
Y143750D01*
D42*
X-4500Y50800D02*
D03*
Y25400D02*
D03*
Y12700D02*
D03*
D44*
X193759Y110505D02*
D03*
X188500Y135000D02*
D03*
X229750Y174750D02*
D03*
X238375Y167750D02*
D03*
X229750Y167500D02*
D03*
X217750Y183750D02*
D03*
X153750Y159750D02*
D03*
Y167750D02*
D03*
X264000Y184750D02*
D03*
X153750Y151750D02*
D03*
X108750Y213750D02*
D03*
X106000Y218500D02*
D03*
X58250Y131250D02*
D03*
X164750Y199750D02*
D03*
X129750Y143750D02*
D03*
Y135750D02*
D03*
X220500Y22000D02*
D03*
X219750Y36750D02*
D03*
X237750Y61750D02*
D03*
X200000Y35750D02*
D03*
X200000Y51750D02*
D03*
X232000Y75750D02*
D03*
X240000D02*
D03*
X121750Y135750D02*
D03*
Y143750D02*
D03*
X137750Y151750D02*
D03*
X145750D02*
D03*
X169750Y144500D02*
D03*
X155800Y9250D02*
D03*
X54800D02*
D03*
X101500Y74000D02*
D03*
X54250Y131250D02*
D03*
X62250D02*
D03*
X49000Y108250D02*
D03*
X54000D02*
D03*
X61000Y108250D02*
D03*
X66000D02*
D03*
X20500Y237500D02*
D03*
X20500Y212500D02*
D03*
X32170Y231650D02*
D03*
X44670Y264150D02*
D03*
X74670Y264150D02*
D03*
X49670Y264150D02*
D03*
X77750Y269750D02*
D03*
X93000Y211750D02*
D03*
X14500Y205000D02*
D03*
X106000Y225000D02*
D03*
Y205500D02*
D03*
X213750Y193750D02*
D03*
X229750Y187000D02*
D03*
X117500Y269250D02*
D03*
X143500Y269250D02*
D03*
X161500Y269250D02*
D03*
X169500D02*
D03*
X187500D02*
D03*
X195500D02*
D03*
X208500D02*
D03*
X226500D02*
D03*
X270250Y236500D02*
D03*
Y218500D02*
D03*
Y210500D02*
D03*
X270250Y257500D02*
D03*
X165750Y152500D02*
D03*
X107500Y140250D02*
D03*
X209750Y207750D02*
D03*
X229750Y206500D02*
D03*
Y200000D02*
D03*
Y193500D02*
D03*
X192500Y211750D02*
D03*
X163750Y205750D02*
D03*
X182000Y191750D02*
D03*
X233750Y223750D02*
D03*
X225750Y215750D02*
D03*
X152750Y147750D02*
D03*
X221761Y44002D02*
D03*
X202010Y110505D02*
D03*
X210250Y93750D02*
D03*
X242750Y53750D02*
D03*
X258250Y56000D02*
D03*
X244500Y67750D02*
D03*
X240000Y67750D02*
D03*
X227000Y44000D02*
D03*
X192000Y19750D02*
D03*
X200000D02*
D03*
X240000Y106749D02*
D03*
X271500Y120250D02*
D03*
X229750Y213000D02*
D03*
X192000Y35750D02*
D03*
X209750Y183750D02*
D03*
X207000Y199750D02*
D03*
X185750Y207750D02*
D03*
X209750Y167750D02*
D03*
X201750Y175750D02*
D03*
X131500Y149000D02*
D03*
X135500Y251500D02*
D03*
X250000Y110750D02*
D03*
X234250Y61750D02*
D03*
X250250Y95656D02*
D03*
X272000Y126750D02*
D03*
X201750Y231750D02*
D03*
X209750D02*
D03*
X185750Y239750D02*
D03*
X217750Y255750D02*
D03*
X241750Y247750D02*
D03*
X149250Y199250D02*
D03*
X137750Y175750D02*
D03*
X193750Y199750D02*
D03*
X145750Y175750D02*
D03*
X107500Y145250D02*
D03*
X50250Y131250D02*
D03*
X107500Y160250D02*
D03*
Y165250D02*
D03*
X266500Y111750D02*
D03*
X255000Y215500D02*
D03*
X270250Y192500D02*
D03*
X209750Y191750D02*
D03*
X142250Y145250D02*
D03*
X161750Y247750D02*
D03*
X107500Y190750D02*
D03*
Y177250D02*
D03*
X92750Y198000D02*
D03*
X158500Y209750D02*
D03*
X165750Y135750D02*
D03*
X153750Y220750D02*
D03*
X241750Y167750D02*
D03*
X142000Y137250D02*
D03*
X137750Y143750D02*
D03*
D45*
X245000Y24500D02*
D03*
X15000Y264000D02*
D03*
X25000Y265750D02*
D03*
X68750Y61000D02*
D03*
X44250Y273500D02*
D03*
X253250Y61000D02*
D03*
X210500Y6750D02*
D03*
X116500Y112750D02*
D03*
X95250Y207000D02*
D03*
X273500Y184000D02*
D03*
D46*
X54750Y150250D02*
D03*
X40000D02*
D03*
X101300Y41550D02*
D03*
X139400Y41550D02*
D03*
X164800Y41550D02*
D03*
X152100Y79650D02*
D03*
X75900Y79650D02*
D03*
X37800D02*
D03*
X106500Y11000D02*
D03*
X17300Y45500D02*
D03*
X114000Y86100D02*
D03*
X50500Y66950D02*
D03*
X126700Y54250D02*
D03*
X43250Y253070D02*
D03*
Y245500D02*
D03*
X176299Y12500D02*
D03*
X176250Y45500D02*
D03*
X63200Y41550D02*
D03*
D47*
X17300Y63000D02*
D03*
D48*
X96250Y167750D02*
D03*
X151007Y139507D02*
D03*
D49*
X229750Y167500D02*
X234750Y172500D01*
Y182000D01*
X229750Y187000D02*
X234750Y182000D01*
X217750Y183750D02*
X226500D01*
X209750Y191750D02*
X217750Y183750D01*
X0Y50800D02*
X8000Y58800D01*
Y248750D02*
X25000Y265750D01*
X8000Y58800D02*
Y191250D01*
X10000Y193250D01*
Y200000D01*
X8000Y202000D02*
X10000Y200000D01*
X8000Y202000D02*
Y248750D01*
X107500Y140250D02*
X109750D01*
X112500Y143000D01*
X109750Y165250D02*
X112500Y162500D01*
X107500Y165250D02*
X109750D01*
X112500Y143000D02*
Y162500D01*
X226500Y183750D02*
X229750Y187000D01*
D50*
X253250Y269250D02*
X269000Y253500D01*
Y218500D02*
Y253500D01*
Y193400D02*
Y218500D01*
X117500Y269250D02*
X161500D01*
X106000Y212000D02*
Y218500D01*
Y212000D02*
X106000Y212000D01*
X106000Y212000D02*
X106000Y205500D01*
Y218500D02*
Y225000D01*
X226500Y269250D02*
X253250D01*
X17300Y63000D02*
X27750Y73450D01*
Y85250D01*
X32000Y89500D01*
X66750D01*
X106000Y225000D02*
Y257750D01*
X117500Y269250D01*
X161500D02*
X169500D01*
X187500D01*
X195500D01*
X208500D01*
X226500D01*
X96250Y167750D02*
X96286Y167714D01*
X66750Y89500D02*
X96286Y119036D01*
Y167714D01*
X96250Y167750D02*
Y195750D01*
X106000Y205500D01*
M02*
