G04 Layer_Physical_Order=6*
G04 Layer_Color=10649065*
%FSLAX44Y44*%
%MOMM*%
G71*
G01*
G75*
%ADD33C,0.2000*%
%ADD36C,0.1000*%
G04:AMPARAMS|DCode=42|XSize=0.7mm|YSize=1.6mm|CornerRadius=0.175mm|HoleSize=0mm|Usage=FLASHONLY|Rotation=90.000|XOffset=0mm|YOffset=0mm|HoleType=Round|Shape=RoundedRectangle|*
%AMROUNDEDRECTD42*
21,1,0.7000,1.2500,0,0,90.0*
21,1,0.3500,1.6000,0,0,90.0*
1,1,0.3500,0.6250,0.1750*
1,1,0.3500,0.6250,-0.1750*
1,1,0.3500,-0.6250,-0.1750*
1,1,0.3500,-0.6250,0.1750*
%
%ADD42ROUNDEDRECTD42*%
G04:AMPARAMS|DCode=43|XSize=0.7mm|YSize=1.6mm|CornerRadius=0.175mm|HoleSize=0mm|Usage=FLASHONLY|Rotation=180.000|XOffset=0mm|YOffset=0mm|HoleType=Round|Shape=RoundedRectangle|*
%AMROUNDEDRECTD43*
21,1,0.7000,1.2500,0,0,180.0*
21,1,0.3500,1.6000,0,0,180.0*
1,1,0.3500,-0.1750,0.6250*
1,1,0.3500,0.1750,0.6250*
1,1,0.3500,0.1750,-0.6250*
1,1,0.3500,-0.1750,-0.6250*
%
%ADD43ROUNDEDRECTD43*%
%ADD44C,0.2000*%
%ADD45C,0.4000*%
%ADD46C,0.6000*%
G36*
X279400Y271254D02*
X277650D01*
X276577Y271040D01*
X275667Y270433D01*
X275060Y269523D01*
X274846Y268450D01*
Y264950D01*
X275060Y263877D01*
X275667Y262967D01*
X276577Y262360D01*
X277650Y262146D01*
X279400D01*
Y258554D01*
X277650D01*
X276577Y258340D01*
X275667Y257733D01*
X275060Y256823D01*
X274846Y255750D01*
Y252250D01*
X275060Y251177D01*
X275667Y250267D01*
X276577Y249660D01*
X277650Y249446D01*
X279400D01*
Y245854D01*
X277650D01*
X276577Y245640D01*
X275667Y245033D01*
X275060Y244123D01*
X274846Y243050D01*
Y239550D01*
X275060Y238477D01*
X275667Y237567D01*
X276577Y236960D01*
X277650Y236746D01*
X279400D01*
Y233154D01*
X277650D01*
X276577Y232940D01*
X275667Y232333D01*
X275060Y231423D01*
X274846Y230350D01*
Y226850D01*
X275060Y225777D01*
X275667Y224867D01*
X276577Y224260D01*
X277650Y224046D01*
X279400D01*
Y220454D01*
X277650D01*
X276577Y220240D01*
X275667Y219633D01*
X275060Y218723D01*
X274846Y217650D01*
Y214150D01*
X275060Y213077D01*
X275667Y212167D01*
X276577Y211560D01*
X277650Y211346D01*
X279400D01*
Y207754D01*
X277650D01*
X276577Y207540D01*
X275667Y206933D01*
X275060Y206023D01*
X274846Y204950D01*
Y201450D01*
X275060Y200377D01*
X275667Y199467D01*
X276577Y198860D01*
X277650Y198646D01*
X279400D01*
Y195054D01*
X277650D01*
X276577Y194840D01*
X275667Y194233D01*
X275060Y193323D01*
X274846Y192250D01*
Y188750D01*
X275060Y187677D01*
X275667Y186767D01*
X276577Y186160D01*
X277650Y185946D01*
X279400D01*
Y182354D01*
X277650D01*
X276577Y182140D01*
X275667Y181533D01*
X275060Y180623D01*
X274846Y179550D01*
Y176050D01*
X275060Y174977D01*
X275217Y174742D01*
X274582Y173406D01*
X274470Y173384D01*
X273808Y172942D01*
X273366Y172280D01*
X273211Y171500D01*
X273366Y170720D01*
X273808Y170058D01*
X274470Y169616D01*
X274669Y169576D01*
X275282Y168297D01*
X275283Y168258D01*
X275060Y167923D01*
X274846Y166850D01*
Y163350D01*
X275060Y162277D01*
X275100Y162217D01*
X274916Y161867D01*
X274260Y161188D01*
X273750Y161289D01*
X272970Y161134D01*
X272308Y160692D01*
X271866Y160030D01*
X271711Y159250D01*
X271866Y158470D01*
X272308Y157808D01*
X272970Y157366D01*
X273750Y157211D01*
X274531Y157366D01*
X275192Y157808D01*
X275634Y158470D01*
X275789Y159250D01*
X275673Y159836D01*
X276199Y160409D01*
X276689Y160737D01*
X277650Y160546D01*
X279400D01*
Y156954D01*
X277650D01*
X276577Y156740D01*
X275667Y156133D01*
X275060Y155223D01*
X274846Y154150D01*
Y150650D01*
X275060Y149577D01*
X275667Y148667D01*
X276577Y148060D01*
X277650Y147846D01*
X279400D01*
Y144254D01*
X277650D01*
X276577Y144040D01*
X275667Y143433D01*
X275060Y142523D01*
X274846Y141450D01*
Y137950D01*
X275060Y136877D01*
X275667Y135967D01*
X276577Y135360D01*
X277650Y135146D01*
X279400D01*
Y131554D01*
X277650D01*
X276577Y131340D01*
X275667Y130733D01*
X275060Y129823D01*
X274846Y128750D01*
Y125250D01*
X275060Y124177D01*
X275667Y123267D01*
X276577Y122660D01*
X277650Y122446D01*
X279400D01*
Y118854D01*
X277650D01*
X276577Y118640D01*
X275667Y118033D01*
X275060Y117123D01*
X274846Y116050D01*
Y112550D01*
X275060Y111477D01*
X275667Y110567D01*
X276577Y109960D01*
X277650Y109746D01*
X279400D01*
Y106154D01*
X277650D01*
X276577Y105940D01*
X275667Y105333D01*
X275060Y104423D01*
X274846Y103350D01*
Y99850D01*
X275060Y98777D01*
X275667Y97867D01*
X276577Y97260D01*
X277650Y97046D01*
X279400D01*
Y93454D01*
X277650D01*
X276577Y93240D01*
X275667Y92633D01*
X275060Y91723D01*
X274846Y90650D01*
Y87150D01*
X274930Y86727D01*
X269239Y81036D01*
X268014Y80711D01*
X267519Y80974D01*
X267280Y81133D01*
X266500Y81289D01*
X265720Y81133D01*
X265058Y80691D01*
X264616Y80030D01*
X264461Y79250D01*
X264616Y78469D01*
X265058Y77808D01*
X265720Y77366D01*
X266500Y77210D01*
X266688Y77248D01*
X267814Y76510D01*
X267903Y76000D01*
X267814Y75490D01*
X266688Y74751D01*
X266500Y74789D01*
X265720Y74634D01*
X265058Y74191D01*
X264616Y73530D01*
X264461Y72750D01*
X264616Y71969D01*
X265058Y71308D01*
X265720Y70866D01*
X266500Y70710D01*
X266856Y70781D01*
X267910Y70149D01*
X268126Y69903D01*
Y63672D01*
X261397Y56943D01*
X261115Y56906D01*
X259855Y57197D01*
X259692Y57442D01*
X259030Y57884D01*
X258250Y58039D01*
X257470Y57884D01*
X256808Y57442D01*
X256366Y56781D01*
X256211Y56000D01*
X256285Y55625D01*
X255597Y54717D01*
X255307Y54528D01*
X255250Y54539D01*
X254470Y54384D01*
X254074Y54120D01*
X253692Y54692D01*
X253030Y55134D01*
X252250Y55289D01*
X251470Y55134D01*
X250808Y54692D01*
X250366Y54030D01*
X250275Y53571D01*
X247283Y50579D01*
X245763Y50855D01*
X245704Y50944D01*
X245042Y51386D01*
X244262Y51542D01*
X243482Y51386D01*
X242820Y50944D01*
X242378Y50283D01*
X242223Y49502D01*
X241668Y49001D01*
X241066Y48809D01*
X231977Y57898D01*
X230828Y58374D01*
X198422D01*
X197274Y57898D01*
X194999Y55624D01*
X193647D01*
X193091Y56261D01*
X192940Y56894D01*
X205398Y69352D01*
X205874Y70500D01*
Y76500D01*
X205398Y77648D01*
X205068Y77978D01*
X205126Y78371D01*
X205568Y79274D01*
X206030Y79366D01*
X206692Y79808D01*
X207086Y80397D01*
X207649Y80469D01*
X207851D01*
X208414Y80397D01*
X208808Y79808D01*
X209470Y79366D01*
X210250Y79211D01*
X211030Y79366D01*
X211692Y79808D01*
X212134Y80469D01*
X212289Y81250D01*
X212134Y82030D01*
X211692Y82692D01*
X211030Y83134D01*
X210250Y83289D01*
X209470Y83134D01*
X208808Y82692D01*
X208414Y82103D01*
X207851Y82030D01*
X207649D01*
X207086Y82103D01*
X206692Y82692D01*
X206030Y83134D01*
X205250Y83289D01*
X204470Y83134D01*
X203808Y82692D01*
X203366Y82030D01*
X203274Y81568D01*
X202372Y81126D01*
X201978Y81068D01*
X180343Y102703D01*
X180829Y103876D01*
X185827D01*
X187774Y101929D01*
X187866Y101470D01*
X188308Y100808D01*
X188969Y100366D01*
X189750Y100211D01*
X190530Y100366D01*
X190920Y100626D01*
X196577D01*
X206820Y90384D01*
X206030Y89384D01*
X205250Y89539D01*
X204470Y89384D01*
X203808Y88942D01*
X203366Y88280D01*
X203211Y87500D01*
X203366Y86720D01*
X203808Y86058D01*
X204470Y85616D01*
X205250Y85461D01*
X206030Y85616D01*
X206692Y86058D01*
X207134Y86720D01*
X207289Y87500D01*
X207134Y88280D01*
X208134Y89070D01*
X211852Y85352D01*
X213000Y84876D01*
X228936D01*
X229961Y83750D01*
X230116Y82969D01*
X230558Y82308D01*
X231220Y81866D01*
X232000Y81710D01*
X232780Y81866D01*
X233442Y82308D01*
X233706Y82702D01*
X234761Y83000D01*
X235188Y83016D01*
X239102Y79102D01*
X239423Y78969D01*
X239293Y77648D01*
X239220Y77634D01*
X238558Y77192D01*
X238116Y76530D01*
X237961Y75750D01*
X238116Y74969D01*
X238558Y74308D01*
X239220Y73866D01*
X240000Y73710D01*
X240780Y73866D01*
X241442Y74308D01*
X241884Y74969D01*
X242039Y75750D01*
X241884Y76530D01*
X241442Y77192D01*
X241195Y77356D01*
X241580Y78626D01*
X256080D01*
X256470Y78366D01*
X257250Y78211D01*
X258030Y78366D01*
X258692Y78808D01*
X259134Y79470D01*
X259289Y80250D01*
X259134Y81030D01*
X258692Y81692D01*
X258030Y82134D01*
X257250Y82289D01*
X256470Y82134D01*
X256080Y81874D01*
X240923D01*
X237984Y84812D01*
X237999Y85239D01*
X238298Y86295D01*
X238692Y86558D01*
X239134Y87220D01*
X239289Y88000D01*
X239134Y88780D01*
X238692Y89442D01*
X238030Y89884D01*
X237250Y90039D01*
X236470Y89884D01*
X235808Y89442D01*
X235366Y88780D01*
X234000Y88124D01*
X213673D01*
X205068Y96728D01*
X205126Y97121D01*
X205568Y98024D01*
X206030Y98116D01*
X206692Y98558D01*
X207134Y99219D01*
X207289Y100000D01*
X207134Y100780D01*
X206692Y101442D01*
X206030Y101884D01*
X205250Y102039D01*
X204470Y101884D01*
X204237Y101958D01*
X203233Y102585D01*
X203144Y103035D01*
X202702Y103697D01*
X202040Y104139D01*
X201260Y104294D01*
X200480Y104139D01*
X199818Y103697D01*
X199569Y103645D01*
X198112Y104620D01*
X198052Y104916D01*
X198143Y105053D01*
X198299Y105833D01*
X198143Y106614D01*
X197701Y107275D01*
X197040Y107717D01*
X196259Y107872D01*
X195479Y107717D01*
X194818Y107275D01*
X194375Y106614D01*
X194220Y105833D01*
X194357Y105144D01*
X194350Y105013D01*
X193636Y103874D01*
X190920D01*
X190530Y104134D01*
X190070Y104226D01*
X189195Y105101D01*
X189277Y106481D01*
X191901Y109104D01*
X192318Y109063D01*
X192979Y108621D01*
X193759Y108466D01*
X194540Y108621D01*
X195201Y109064D01*
X195643Y109725D01*
X195799Y110505D01*
X195643Y111286D01*
X195201Y111947D01*
X195212Y113452D01*
X195887Y114126D01*
X198830D01*
X199220Y113866D01*
X200000Y113710D01*
X200780Y113866D01*
X201442Y114308D01*
X201884Y114969D01*
X202039Y115750D01*
X203060Y116882D01*
X208400D01*
X227473Y97809D01*
X228102Y97549D01*
X228684Y97108D01*
X228974Y96064D01*
X228961Y96000D01*
X229116Y95220D01*
X229558Y94558D01*
X229938Y94304D01*
X230241Y93759D01*
X230300Y92805D01*
X230116Y92530D01*
X229961Y91750D01*
X230116Y90969D01*
X230558Y90308D01*
X231220Y89866D01*
X232000Y89710D01*
X232780Y89866D01*
X233442Y90308D01*
X233884Y90969D01*
X234039Y91750D01*
X233884Y92530D01*
X233442Y93191D01*
X233062Y93445D01*
X232759Y93990D01*
X232700Y94944D01*
X232884Y95220D01*
X233039Y96000D01*
X232999Y96200D01*
X233124Y96500D01*
Y98207D01*
X232648Y99355D01*
X231898Y100105D01*
X230939Y100502D01*
Y100502D01*
X231092Y100439D01*
X230944Y100598D01*
X230963Y100967D01*
X231205Y101715D01*
X231401Y101791D01*
X231780Y101866D01*
X232442Y102308D01*
X232884Y102970D01*
X233039Y103750D01*
X232884Y104530D01*
X232442Y105192D01*
X231780Y105634D01*
X231000Y105789D01*
X230220Y105634D01*
X229558Y105192D01*
X229116Y104530D01*
X228961Y103750D01*
X229116Y102970D01*
X229471Y102438D01*
X229402Y101760D01*
X229193Y101024D01*
X228931Y100944D01*
X210221Y119654D01*
X209073Y120129D01*
X192964D01*
X192609Y120930D01*
X192503Y121399D01*
X192884Y121969D01*
X193039Y122750D01*
X192884Y123530D01*
X192442Y124192D01*
X191780Y124634D01*
X191000Y124789D01*
X190220Y124634D01*
X188757Y125006D01*
X188018Y125995D01*
X188439Y127126D01*
X193000D01*
X194148Y127602D01*
X195648Y129102D01*
X195761Y129374D01*
X197136D01*
X197352Y128852D01*
X198602Y127602D01*
X199750Y127126D01*
X203500D01*
X204648Y127602D01*
X205808Y128762D01*
X206424Y128790D01*
X207209Y128698D01*
X207352Y128352D01*
X208602Y127102D01*
X209750Y126626D01*
X218827D01*
X230025Y115429D01*
X230116Y114969D01*
X230558Y114308D01*
X231220Y113866D01*
X232000Y113710D01*
X232780Y113866D01*
X233442Y114308D01*
X234602Y114602D01*
X235750Y114127D01*
X235830D01*
X236220Y113866D01*
X237000Y113711D01*
X237780Y113866D01*
X238442Y114308D01*
X238884Y114970D01*
X239039Y115750D01*
X238884Y116530D01*
X238442Y117192D01*
X238942Y117808D01*
X239384Y118470D01*
X239539Y119250D01*
X239384Y120030D01*
X238993Y120616D01*
X239079Y120929D01*
X239578Y121794D01*
X239658Y121778D01*
X240000Y121710D01*
X240780Y121866D01*
X241442Y122308D01*
X241884Y122969D01*
X242039Y123750D01*
X241884Y124530D01*
X241442Y125191D01*
X240780Y125634D01*
X240000Y125789D01*
X239220Y125634D01*
X238558Y125191D01*
X238116Y124530D01*
X237961Y123750D01*
X238116Y122969D01*
X238507Y122384D01*
X238421Y122070D01*
X237922Y121205D01*
X237842Y121221D01*
X237500Y121289D01*
X236720Y121134D01*
X236058Y120692D01*
X235616Y120030D01*
X235607Y119985D01*
X234229Y119567D01*
X233069Y120727D01*
X233348Y122245D01*
X233442Y122308D01*
X233884Y122969D01*
X234039Y123750D01*
X233884Y124530D01*
X233442Y125191D01*
X232780Y125633D01*
X232000Y125789D01*
X231220Y125633D01*
X230558Y125191D01*
X230495Y125097D01*
X228977Y124819D01*
X206148Y147648D01*
X205000Y148124D01*
X201672D01*
X201374Y148422D01*
Y152000D01*
X200898Y153148D01*
X200398Y153648D01*
X199250Y154124D01*
X196500D01*
X195352Y153648D01*
X194852Y153148D01*
X194812Y153052D01*
X193438D01*
X193398Y153148D01*
X192898Y153648D01*
X191750Y154124D01*
X189250D01*
X188102Y153648D01*
X187341Y153266D01*
X186530Y153634D01*
X185750Y153789D01*
X184970Y153634D01*
X184308Y153192D01*
X183866Y152530D01*
X183711Y151750D01*
X183866Y150970D01*
X184308Y150308D01*
X184531Y150159D01*
X184818Y148876D01*
X184778Y148609D01*
X180891Y144722D01*
X180623Y144682D01*
X179341Y144969D01*
X179192Y145192D01*
X178530Y145634D01*
X177750Y145789D01*
X176970Y145634D01*
X176308Y145192D01*
X175866Y144530D01*
X175711Y143750D01*
X175866Y142970D01*
X176308Y142308D01*
X176531Y142159D01*
X176819Y140877D01*
X176778Y140609D01*
X170840Y134672D01*
X170250Y134789D01*
X169470Y134634D01*
X168913Y134262D01*
X168317Y134399D01*
X168194Y134494D01*
X167683Y135217D01*
X167789Y135750D01*
X167634Y136530D01*
X167192Y137192D01*
X166530Y137634D01*
X165750Y137789D01*
X164970Y137634D01*
X164308Y137192D01*
X163866Y136530D01*
X163762Y136006D01*
X163197Y135504D01*
X162528Y135184D01*
X162000Y135289D01*
X161220Y135134D01*
X160558Y134692D01*
X160116Y134030D01*
X159961Y133250D01*
X160116Y132470D01*
X159148Y131648D01*
X158000Y132124D01*
X153000D01*
X151852Y131648D01*
X151047Y130843D01*
X149874Y131329D01*
Y135889D01*
X151007Y136958D01*
X151983Y137152D01*
X152810Y137704D01*
X152955Y137922D01*
X153810Y138415D01*
X154565Y138219D01*
X154720Y138116D01*
X155500Y137961D01*
X156280Y138116D01*
X156942Y138558D01*
X157384Y139220D01*
X157539Y140000D01*
X157384Y140780D01*
X156942Y141442D01*
X156280Y141884D01*
X155500Y142039D01*
X154720Y141884D01*
X154190Y141530D01*
X154058Y141442D01*
X154058Y141442D01*
X153720Y141406D01*
X152558Y141477D01*
X151983Y141862D01*
X151007Y142056D01*
X150124Y142781D01*
Y165000D01*
X149648Y166148D01*
X147725Y168071D01*
X147634Y168530D01*
X147192Y169192D01*
X146530Y169634D01*
X145750Y169789D01*
X144970Y169634D01*
X144308Y169192D01*
X143866Y168530D01*
X143711Y167750D01*
X143866Y166970D01*
X144308Y166308D01*
X144970Y165866D01*
X145429Y165775D01*
X146876Y164328D01*
Y154814D01*
X145750Y153789D01*
X144970Y153634D01*
X144308Y153192D01*
X143866Y152530D01*
X143711Y151750D01*
X143866Y150970D01*
X144308Y150308D01*
X144308Y149192D01*
X143866Y148530D01*
X143791Y148153D01*
X143385Y147610D01*
X142518Y147236D01*
X142250Y147289D01*
X141470Y147134D01*
X140808Y146692D01*
X140366Y146030D01*
X140319Y145792D01*
X139849Y145542D01*
X139001Y145320D01*
X138530Y145634D01*
X137750Y145789D01*
X136970Y145634D01*
X136308Y145192D01*
X135866Y144530D01*
X135711Y143750D01*
X135866Y142970D01*
X136308Y142308D01*
X136970Y141866D01*
X137750Y141711D01*
X138530Y141866D01*
X139192Y142308D01*
X139310Y142484D01*
X140366Y141780D01*
X140211Y141000D01*
X140366Y140220D01*
X140808Y139558D01*
X140558Y138692D01*
X140116Y138030D01*
X139961Y137250D01*
X140116Y136470D01*
X140558Y135808D01*
X141220Y135366D01*
X142000Y135211D01*
X142780Y135366D01*
X143866Y134970D01*
X144308Y134308D01*
X144970Y133866D01*
X145750Y133711D01*
X146626Y132590D01*
Y117172D01*
X147102Y116024D01*
X156829Y106297D01*
X156342Y105124D01*
X133147D01*
X132268Y106394D01*
X132289Y106500D01*
X132134Y107280D01*
X131692Y107942D01*
X131030Y108384D01*
X130250Y108539D01*
X129470Y108384D01*
X128808Y107942D01*
X128366Y107280D01*
X126971Y106719D01*
X126624Y106928D01*
Y126717D01*
X127782Y126952D01*
X127894Y126928D01*
X128308Y126308D01*
X128970Y125866D01*
X129750Y125711D01*
X130530Y125866D01*
X131192Y126308D01*
X131634Y126970D01*
X131789Y127750D01*
X131634Y128530D01*
X131192Y129192D01*
X130530Y129634D01*
X129750Y129789D01*
X128970Y129634D01*
X128308Y129192D01*
X127894Y128572D01*
X127782Y128547D01*
X126624Y128783D01*
Y134717D01*
X127782Y134952D01*
X127894Y134928D01*
X128308Y134308D01*
X128970Y133866D01*
X129750Y133711D01*
X130530Y133866D01*
X131192Y134308D01*
X131634Y134970D01*
X131789Y135750D01*
X131634Y136530D01*
X131192Y137192D01*
X130530Y137634D01*
X129750Y137789D01*
X128970Y137634D01*
X128308Y137192D01*
X127894Y136572D01*
X127782Y136547D01*
X126624Y136783D01*
Y142717D01*
X127782Y142952D01*
X127894Y142928D01*
X128308Y142308D01*
X128970Y141866D01*
X129750Y141711D01*
X130530Y141866D01*
X131192Y142308D01*
X131634Y142970D01*
X131789Y143750D01*
X131634Y144530D01*
X131192Y145192D01*
X130530Y145634D01*
X129750Y145789D01*
X128970Y145634D01*
X128308Y145192D01*
X127894Y144572D01*
X127782Y144548D01*
X126624Y144783D01*
Y150577D01*
X127172Y151126D01*
X130750D01*
X131898Y151602D01*
X138071Y157775D01*
X138530Y157866D01*
X139192Y158308D01*
X139634Y158970D01*
X139789Y159750D01*
X139634Y160530D01*
X139192Y161192D01*
X138530Y161634D01*
X137750Y161789D01*
X136970Y161634D01*
X136308Y161192D01*
X135866Y160530D01*
X135775Y160071D01*
X130077Y154374D01*
X126500D01*
X125352Y153898D01*
X124690Y153236D01*
X123192Y153192D01*
X122530Y153634D01*
X121750Y153789D01*
X120970Y153634D01*
X120308Y153192D01*
X119866Y152530D01*
X119711Y151750D01*
X119866Y150970D01*
X120308Y150308D01*
X120970Y149866D01*
X121750Y149711D01*
X122106Y149782D01*
X123160Y149150D01*
X123376Y148904D01*
Y146596D01*
X123160Y146350D01*
X122106Y145718D01*
X121750Y145789D01*
X120970Y145634D01*
X120308Y145192D01*
X119866Y144530D01*
X119711Y143750D01*
X119866Y142970D01*
X120308Y142308D01*
X120970Y141866D01*
X121750Y141711D01*
X122106Y141782D01*
X123160Y141150D01*
X123376Y140904D01*
Y138596D01*
X123160Y138350D01*
X122106Y137718D01*
X121750Y137789D01*
X120970Y137634D01*
X120308Y137192D01*
X119866Y136530D01*
X119711Y135750D01*
X119866Y134970D01*
X120308Y134308D01*
X120970Y133866D01*
X121750Y133711D01*
X122106Y133782D01*
X123160Y133150D01*
X123376Y132904D01*
Y109564D01*
X122250Y108539D01*
X121470Y108384D01*
X120808Y107942D01*
X120366Y107280D01*
X120211Y106500D01*
X120366Y105720D01*
X120808Y105058D01*
X121470Y104616D01*
X122250Y104461D01*
X123030Y104616D01*
X123845Y104369D01*
X123852Y104352D01*
X125852Y102352D01*
X127000Y101876D01*
X176577D01*
X187516Y90938D01*
X187501Y90511D01*
X187202Y89455D01*
X186808Y89192D01*
X186366Y88530D01*
X186211Y87750D01*
X186366Y86970D01*
X186808Y86308D01*
X187470Y85866D01*
X188250Y85711D01*
X189030Y85866D01*
X189692Y86308D01*
X189955Y86702D01*
X191011Y87001D01*
X191438Y87016D01*
X202626Y75827D01*
Y71172D01*
X190429Y58975D01*
X189970Y58884D01*
X189308Y58442D01*
X189076Y58095D01*
X187946Y57794D01*
X187575Y57800D01*
X186374Y59001D01*
Y65328D01*
X185898Y66476D01*
X180476Y71898D01*
X179328Y72374D01*
X114751D01*
X87874Y99251D01*
Y131327D01*
X89571Y133025D01*
X90031Y133116D01*
X90692Y133558D01*
X91134Y134220D01*
X91289Y135000D01*
X91134Y135780D01*
X90692Y136442D01*
X90031Y136884D01*
X89250Y137039D01*
X88470Y136884D01*
X87808Y136442D01*
X87366Y135780D01*
X87275Y135321D01*
X86266Y134312D01*
X84768Y134610D01*
X84648Y134898D01*
X81898Y137648D01*
X80750Y138124D01*
X76579D01*
X76053Y139394D01*
X86356Y149696D01*
X86876Y149736D01*
X87500Y149159D01*
X87697Y148526D01*
X87366Y148031D01*
X87211Y147250D01*
X87366Y146470D01*
X87808Y145808D01*
X87812Y144688D01*
X87370Y144027D01*
X87215Y143246D01*
X87370Y142466D01*
X87812Y141804D01*
X88474Y141362D01*
X89254Y141207D01*
X90035Y141362D01*
X90696Y141804D01*
X91138Y142466D01*
X91293Y143246D01*
X91138Y144027D01*
X90696Y144688D01*
X90692Y145808D01*
X91134Y146470D01*
X91289Y147250D01*
X91134Y148031D01*
X90692Y148692D01*
Y149808D01*
X91134Y150470D01*
X91289Y151250D01*
X91134Y152031D01*
X90692Y152692D01*
X90031Y153134D01*
X89767Y153628D01*
X89874Y153887D01*
Y156614D01*
X89767Y156873D01*
X90031Y157366D01*
X90692Y157808D01*
X91134Y158470D01*
X91289Y159250D01*
X91134Y160031D01*
X90692Y160692D01*
X90736Y162190D01*
X92648Y164102D01*
X93124Y165250D01*
Y165643D01*
X94394Y166028D01*
X94448Y165948D01*
X95275Y165395D01*
X96250Y165201D01*
X97226Y165395D01*
X98052Y165948D01*
X98605Y166775D01*
X98799Y167750D01*
X98605Y168725D01*
X98052Y169552D01*
X97226Y170105D01*
X96250Y170299D01*
X95275Y170105D01*
X94448Y169552D01*
X94394Y169471D01*
X93124Y169857D01*
Y181651D01*
X94297Y182136D01*
X95331Y181102D01*
X96480Y180626D01*
X101012D01*
X102132Y179750D01*
X102288Y178970D01*
X102730Y178308D01*
X103391Y177866D01*
X104171Y177711D01*
X104952Y177866D01*
X105613Y178308D01*
X106055Y178970D01*
X106211Y179750D01*
X107331Y180626D01*
X143250D01*
X144398Y181102D01*
X154148Y190852D01*
X154624Y192000D01*
Y195000D01*
X154148Y196148D01*
X153725Y196571D01*
X153634Y197030D01*
X153192Y197692D01*
X152530Y198134D01*
X151750Y198289D01*
X150970Y198134D01*
X150308Y197692D01*
X149866Y197030D01*
X149711Y196250D01*
X149833Y195635D01*
X149086Y194857D01*
X148943Y194739D01*
X147715Y195243D01*
X147686Y195270D01*
X147634Y195530D01*
X147192Y196192D01*
X146648Y196556D01*
X146500Y196794D01*
X146276Y197980D01*
X152228Y203932D01*
X152622Y203874D01*
X153524Y203432D01*
X153616Y202970D01*
X154058Y202308D01*
X154720Y201866D01*
X155500Y201711D01*
X156280Y201866D01*
X156942Y202308D01*
X157384Y202970D01*
X157539Y203750D01*
X157384Y204530D01*
X156942Y205192D01*
X156280Y205634D01*
X155818Y205726D01*
X155393Y206440D01*
X155314Y206616D01*
X155221Y207029D01*
X155624Y208000D01*
Y210750D01*
X155148Y211898D01*
X153225Y213821D01*
X153134Y214280D01*
X152692Y214942D01*
X152030Y215384D01*
X151250Y215539D01*
X150470Y215384D01*
X149808Y214942D01*
X149366Y214280D01*
X149211Y213500D01*
X149366Y212720D01*
X149502Y212515D01*
X149708Y211625D01*
X149503Y210735D01*
X149366Y210530D01*
X149275Y210071D01*
X148273Y209069D01*
X146755Y209347D01*
X146692Y209442D01*
X146030Y209884D01*
X145250Y210039D01*
X144470Y209884D01*
X143808Y209442D01*
X143366Y208780D01*
X143211Y208000D01*
X143366Y207220D01*
X143808Y206558D01*
X143903Y206495D01*
X144181Y204977D01*
X136440Y197236D01*
X134942Y197192D01*
X134281Y197634D01*
X133500Y197789D01*
X132720Y197634D01*
X131875Y197271D01*
X131030Y197634D01*
X130250Y197789D01*
X129470Y197634D01*
X128808Y197192D01*
X128366Y196530D01*
X128211Y195750D01*
X128366Y194970D01*
X128808Y194308D01*
X129470Y193866D01*
X130250Y193711D01*
X130773Y193815D01*
X131062Y193654D01*
X131341Y192376D01*
X131232Y192028D01*
X129078Y189874D01*
X99637D01*
X94563Y194948D01*
X94575Y196329D01*
X95338Y196915D01*
X96036Y196626D01*
X104340D01*
X105461Y195750D01*
X105616Y194970D01*
X106058Y194308D01*
X106720Y193866D01*
X107500Y193711D01*
X108280Y193866D01*
X108942Y194308D01*
X109384Y194970D01*
X109539Y195750D01*
X110660Y196626D01*
X125715D01*
X126863Y197102D01*
X135396Y205635D01*
X136808Y205808D01*
X137470Y205366D01*
X138250Y205211D01*
X139030Y205366D01*
X139692Y205808D01*
X140134Y206470D01*
X140289Y207250D01*
X140134Y208030D01*
X139692Y208692D01*
X139865Y210104D01*
X147398Y217637D01*
X147874Y218785D01*
Y230080D01*
X148134Y230470D01*
X148289Y231250D01*
X148134Y232030D01*
X147692Y232692D01*
X147030Y233134D01*
X146250Y233289D01*
X145470Y233134D01*
X144808Y232692D01*
X144366Y232030D01*
X144211Y231250D01*
X144366Y230470D01*
X144626Y230080D01*
Y222081D01*
X143356Y221696D01*
X143192Y221942D01*
X142530Y222384D01*
X141750Y222539D01*
X140970Y222384D01*
X140308Y221942D01*
X139866Y221280D01*
X139711Y220500D01*
X139866Y219720D01*
X140308Y219058D01*
X140970Y218616D01*
X141750Y218461D01*
X141854Y218482D01*
X142479Y217311D01*
X125042Y199874D01*
X96708D01*
X92934Y203648D01*
X91786Y204124D01*
X80172D01*
X79340Y205154D01*
X79384Y205220D01*
X79539Y206000D01*
X79384Y206780D01*
X78942Y207442D01*
X78280Y207884D01*
X77500Y208039D01*
X76720Y207884D01*
X76058Y207442D01*
X75616Y206780D01*
X75461Y206000D01*
X75616Y205220D01*
X76058Y204558D01*
X76720Y204116D01*
X77500Y203961D01*
X77550Y203971D01*
X78176Y202800D01*
X71168Y195792D01*
X71030Y195884D01*
X70250Y196039D01*
X69470Y195884D01*
X68808Y195442D01*
X68366Y194780D01*
X68211Y194000D01*
X68366Y193220D01*
X67881Y192201D01*
X67514Y192061D01*
X67031Y192384D01*
X66250Y192540D01*
X65470Y192384D01*
X65359Y192310D01*
X64528Y192121D01*
X63737Y192625D01*
X63692Y192692D01*
X63031Y193134D01*
X62250Y193290D01*
X61470Y193134D01*
X60808Y192692D01*
X59692D01*
X59030Y193134D01*
X58250Y193290D01*
X57470Y193134D01*
X57144Y192917D01*
X56034Y193344D01*
X55874Y193479D01*
Y228078D01*
X98173Y270376D01*
X106900D01*
X108048Y270852D01*
X112127Y274930D01*
X112550Y274846D01*
X116050D01*
X117123Y275060D01*
X118033Y275667D01*
X118640Y276577D01*
X118854Y277650D01*
Y279400D01*
X122446D01*
Y277650D01*
X122660Y276577D01*
X123267Y275667D01*
X124177Y275060D01*
X125250Y274846D01*
X128750D01*
X129823Y275060D01*
X130733Y275667D01*
X131340Y276577D01*
X131554Y277650D01*
Y279400D01*
X135146D01*
Y277650D01*
X135360Y276577D01*
X135967Y275667D01*
X136877Y275060D01*
X137950Y274846D01*
X141450D01*
X142523Y275060D01*
X143433Y275667D01*
X144040Y276577D01*
X144254Y277650D01*
Y279400D01*
X147846D01*
Y277650D01*
X148060Y276577D01*
X148667Y275667D01*
X149577Y275060D01*
X150650Y274846D01*
X154150D01*
X155223Y275060D01*
X156133Y275667D01*
X156740Y276577D01*
X156954Y277650D01*
Y279400D01*
X160546D01*
Y277650D01*
X160760Y276577D01*
X161367Y275667D01*
X162277Y275060D01*
X163350Y274846D01*
X163476D01*
Y271862D01*
X162303Y271148D01*
X162206Y271149D01*
X161500Y271289D01*
X160720Y271134D01*
X160058Y270692D01*
X159616Y270030D01*
X159461Y269250D01*
X159532Y268894D01*
X158900Y267840D01*
X158654Y267624D01*
X146346D01*
X146100Y267840D01*
X145468Y268894D01*
X145539Y269250D01*
X145384Y270030D01*
X144942Y270692D01*
X144280Y271134D01*
X143500Y271289D01*
X142720Y271134D01*
X142058Y270692D01*
X141616Y270030D01*
X141461Y269250D01*
X141532Y268894D01*
X141138Y267953D01*
X140729Y267511D01*
X139852Y267148D01*
X134929Y262225D01*
X134470Y262134D01*
X133808Y261692D01*
X133366Y261030D01*
X133211Y260250D01*
X133366Y259470D01*
X133808Y258808D01*
X134470Y258366D01*
X135250Y258211D01*
X136030Y258366D01*
X136692Y258808D01*
X137134Y259470D01*
X137225Y259929D01*
X141672Y264376D01*
X162500D01*
X163648Y264852D01*
X166248Y267452D01*
X166492Y268040D01*
X166550Y268062D01*
X167880Y268074D01*
X168058Y267808D01*
X168720Y267366D01*
X169500Y267211D01*
X170280Y267366D01*
X170942Y267808D01*
X171384Y268470D01*
X171539Y269250D01*
X171384Y270030D01*
X170942Y270692D01*
X170280Y271134D01*
X169500Y271289D01*
X168720Y271134D01*
X168058Y270692D01*
X167994Y270595D01*
X166724Y270981D01*
Y274846D01*
X166850D01*
X167923Y275060D01*
X168833Y275667D01*
X169440Y276577D01*
X169654Y277650D01*
Y279400D01*
X173246D01*
Y277650D01*
X173460Y276577D01*
X174067Y275667D01*
X174977Y275060D01*
X176050Y274846D01*
X179550D01*
X180623Y275060D01*
X181533Y275667D01*
X182140Y276577D01*
X182354Y277650D01*
Y279400D01*
X185946D01*
Y277650D01*
X186160Y276577D01*
X186767Y275667D01*
X187677Y275060D01*
X188750Y274846D01*
X188876D01*
Y272147D01*
X187606Y271268D01*
X187500Y271289D01*
X186720Y271134D01*
X186058Y270692D01*
X185616Y270030D01*
X185461Y269250D01*
X185616Y268470D01*
X186058Y267808D01*
X186153Y267745D01*
X186431Y266227D01*
X182078Y261874D01*
X150420D01*
X150030Y262134D01*
X149250Y262289D01*
X148470Y262134D01*
X147808Y261692D01*
X147366Y261030D01*
X147211Y260250D01*
X147366Y259470D01*
X147808Y258808D01*
X148470Y258366D01*
X149250Y258211D01*
X150030Y258366D01*
X150420Y258626D01*
X182750D01*
X183898Y259102D01*
X191648Y266852D01*
X192124Y268000D01*
Y274846D01*
X192250D01*
X193323Y275060D01*
X194233Y275667D01*
X194840Y276577D01*
X195054Y277650D01*
Y279400D01*
X198646D01*
Y277650D01*
X198860Y276577D01*
X199467Y275667D01*
X200377Y275060D01*
X201450Y274846D01*
X204950D01*
X206023Y275060D01*
X206933Y275667D01*
X207540Y276577D01*
X207754Y277650D01*
Y279400D01*
X211346D01*
Y277650D01*
X211560Y276577D01*
X212167Y275667D01*
X213077Y275060D01*
X214150Y274846D01*
X217650D01*
X218723Y275060D01*
X219633Y275667D01*
X220240Y276577D01*
X220454Y277650D01*
Y279400D01*
X224046D01*
Y277650D01*
X224260Y276577D01*
X224867Y275667D01*
X225777Y275060D01*
X226850Y274846D01*
X230350D01*
X231423Y275060D01*
X232333Y275667D01*
X232940Y276577D01*
X233154Y277650D01*
Y279400D01*
X236746D01*
Y277650D01*
X236960Y276577D01*
X237567Y275667D01*
X238477Y275060D01*
X239550Y274846D01*
X243050D01*
X244123Y275060D01*
X245033Y275667D01*
X245640Y276577D01*
X245854Y277650D01*
Y279400D01*
X249446D01*
Y277650D01*
X249660Y276577D01*
X250267Y275667D01*
X251177Y275060D01*
X252250Y274846D01*
X255750D01*
X256823Y275060D01*
X257733Y275667D01*
X258340Y276577D01*
X258554Y277650D01*
Y279400D01*
X262146D01*
Y277650D01*
X262360Y276577D01*
X262967Y275667D01*
X263877Y275060D01*
X264950Y274846D01*
X268450D01*
X269523Y275060D01*
X270433Y275667D01*
X271040Y276577D01*
X271254Y277650D01*
Y279400D01*
X279400D01*
Y271254D01*
D02*
G37*
G36*
X84346Y277650D02*
X84560Y276577D01*
X85167Y275667D01*
X85972Y275130D01*
X86079Y274590D01*
X86049Y273770D01*
X85558Y273442D01*
X85116Y272780D01*
X84961Y272000D01*
X85116Y271220D01*
X85376Y270830D01*
Y268923D01*
X41102Y224648D01*
X40627Y223500D01*
Y193479D01*
X40466Y193344D01*
X39357Y192917D01*
X39030Y193134D01*
X38250Y193290D01*
X37470Y193134D01*
X36808Y192692D01*
X35692D01*
X35031Y193134D01*
X34250Y193290D01*
X33470Y193134D01*
X32808Y192692D01*
X32366Y192031D01*
X32211Y191250D01*
X32282Y190894D01*
X31650Y189840D01*
X31404Y189624D01*
X20673D01*
X5948Y204348D01*
X4800Y204824D01*
X4554D01*
Y204950D01*
X4340Y206023D01*
X4157Y206297D01*
X4193Y206676D01*
X4549Y207791D01*
X4562Y207804D01*
X4942Y208058D01*
X5384Y208720D01*
X5539Y209500D01*
X5384Y210280D01*
X4942Y210942D01*
X4515Y211227D01*
X4466Y211287D01*
X4164Y212240D01*
X4099Y212715D01*
X4340Y213077D01*
X4554Y214150D01*
Y217650D01*
X4340Y218723D01*
X3733Y219633D01*
X2823Y220240D01*
X1750Y220454D01*
X0D01*
Y224046D01*
X1750D01*
X2823Y224260D01*
X3733Y224867D01*
X4340Y225777D01*
X4554Y226850D01*
Y230350D01*
X4340Y231423D01*
X3733Y232333D01*
X2823Y232940D01*
X1750Y233154D01*
X0D01*
Y236746D01*
X1750D01*
X2823Y236960D01*
X3733Y237567D01*
X4340Y238477D01*
X4554Y239550D01*
Y243050D01*
X4340Y244123D01*
X3733Y245033D01*
X2823Y245640D01*
X1750Y245854D01*
X0D01*
Y249446D01*
X1750D01*
X2823Y249660D01*
X3733Y250267D01*
X4340Y251177D01*
X4554Y252250D01*
Y255750D01*
X4340Y256823D01*
X3733Y257733D01*
X2823Y258340D01*
X1750Y258554D01*
X0D01*
Y262146D01*
X1750D01*
X2823Y262360D01*
X3733Y262967D01*
X4340Y263877D01*
X4554Y264950D01*
Y268450D01*
X4340Y269523D01*
X3733Y270433D01*
X2823Y271040D01*
X1750Y271254D01*
X0D01*
Y279400D01*
X8146D01*
Y277650D01*
X8360Y276577D01*
X8967Y275667D01*
X9877Y275060D01*
X10950Y274846D01*
X14450D01*
X15523Y275060D01*
X16433Y275667D01*
X17040Y276577D01*
X17254Y277650D01*
Y279400D01*
X20846D01*
Y277650D01*
X21060Y276577D01*
X21667Y275667D01*
X22577Y275060D01*
X23650Y274846D01*
X27150D01*
X28223Y275060D01*
X29133Y275667D01*
X29740Y276577D01*
X29954Y277650D01*
Y279400D01*
X33546D01*
Y277650D01*
X33760Y276577D01*
X34367Y275667D01*
X35277Y275060D01*
X36350Y274846D01*
X39850D01*
X40923Y275060D01*
X41833Y275667D01*
X42440Y276577D01*
X42654Y277650D01*
Y279400D01*
X46246D01*
Y277650D01*
X46460Y276577D01*
X47067Y275667D01*
X47977Y275060D01*
X49050Y274846D01*
X52550D01*
X53623Y275060D01*
X54533Y275667D01*
X55140Y276577D01*
X55354Y277650D01*
Y279400D01*
X58946D01*
Y277650D01*
X59160Y276577D01*
X59767Y275667D01*
X60677Y275060D01*
X61750Y274846D01*
X65250D01*
X66323Y275060D01*
X67233Y275667D01*
X67840Y276577D01*
X68054Y277650D01*
Y279400D01*
X71646D01*
Y277650D01*
X71860Y276577D01*
X72467Y275667D01*
X73377Y275060D01*
X74450Y274846D01*
X77950D01*
X79023Y275060D01*
X79933Y275667D01*
X80540Y276577D01*
X80754Y277650D01*
Y279400D01*
X84346D01*
Y277650D01*
D02*
G37*
G36*
X81241Y188495D02*
X81439Y188361D01*
X81808Y187808D01*
X82470Y187366D01*
X83250Y187211D01*
X84031Y187366D01*
X84420Y187627D01*
X85577D01*
X86711Y186493D01*
X86399Y185679D01*
X86140Y185268D01*
X85470Y185134D01*
X84808Y184692D01*
X84366Y184031D01*
X84211Y183250D01*
X84366Y182470D01*
X84808Y181808D01*
Y180692D01*
X84366Y180031D01*
X84211Y179250D01*
X84359Y178507D01*
X84366Y178470D01*
X83976Y177155D01*
X83837Y177046D01*
X83308Y176692D01*
X82866Y176031D01*
X82711Y175250D01*
X82866Y174470D01*
X83308Y173808D01*
X83970Y173366D01*
X84750Y173211D01*
X85530Y173366D01*
X86192Y173808D01*
X86634Y174470D01*
X86789Y175250D01*
X86641Y175994D01*
X86634Y176031D01*
X87024Y177346D01*
X87163Y177455D01*
X87692Y177808D01*
X88134Y178470D01*
X88289Y179250D01*
X88134Y180031D01*
X87692Y180692D01*
Y181808D01*
X88023Y182304D01*
X88376Y182526D01*
X89492Y182788D01*
X89876Y182498D01*
Y174410D01*
X89000Y173289D01*
X88220Y173134D01*
X87558Y172692D01*
X87116Y172030D01*
X86961Y171250D01*
X87116Y170470D01*
X87376Y170080D01*
Y166251D01*
X83352Y162227D01*
X82876Y161078D01*
Y157536D01*
X82685Y157177D01*
X82470Y157134D01*
X81808Y156692D01*
X81366Y156031D01*
X81274Y155571D01*
X66327Y140624D01*
X43843D01*
X42695Y140148D01*
X30162Y127614D01*
X28784Y128030D01*
X28342Y128692D01*
X27680Y129134D01*
X26900Y129289D01*
X26120Y129134D01*
X25458Y128692D01*
X25016Y128030D01*
X24861Y127250D01*
X25016Y126470D01*
X25458Y125808D01*
X26120Y125366D01*
X26474Y125296D01*
X27260Y124303D01*
X27376Y124011D01*
Y63000D01*
X27852Y61852D01*
X43626Y46077D01*
Y7822D01*
X40273Y4470D01*
X39850Y4554D01*
X36350D01*
X35277Y4340D01*
X34367Y3733D01*
X33760Y2823D01*
X33546Y1750D01*
Y0D01*
X29954D01*
Y1750D01*
X29740Y2823D01*
X29133Y3733D01*
X28223Y4340D01*
X27150Y4554D01*
X23650D01*
X22577Y4340D01*
X21667Y3733D01*
X21060Y2823D01*
X20846Y1750D01*
Y0D01*
X17254D01*
Y1750D01*
X17040Y2823D01*
X16433Y3733D01*
X15523Y4340D01*
X14450Y4554D01*
X10950D01*
X9877Y4340D01*
X8967Y3733D01*
X0Y12700D01*
Y33546D01*
X1750D01*
X2823Y33760D01*
X3733Y34367D01*
X4340Y35277D01*
X4554Y36350D01*
Y39850D01*
X4340Y40923D01*
X3733Y41833D01*
X2823Y42440D01*
X1750Y42654D01*
X0D01*
Y46246D01*
X1750D01*
X2823Y46460D01*
X3733Y47067D01*
X4340Y47977D01*
X4554Y49050D01*
Y52550D01*
X4340Y53623D01*
X3733Y54533D01*
X2823Y55140D01*
X1750Y55354D01*
X0D01*
Y58946D01*
X1750D01*
X2823Y59160D01*
X3733Y59767D01*
X4340Y60677D01*
X4554Y61750D01*
Y65250D01*
X4340Y66323D01*
X3733Y67233D01*
X2823Y67840D01*
X1750Y68054D01*
X0D01*
Y71646D01*
X1750D01*
X2823Y71860D01*
X3733Y72467D01*
X4340Y73377D01*
X4554Y74450D01*
Y77950D01*
X4340Y79023D01*
X3733Y79933D01*
X2823Y80540D01*
X1750Y80754D01*
X0D01*
Y84346D01*
X1750D01*
X2823Y84560D01*
X3733Y85167D01*
X4340Y86077D01*
X4554Y87150D01*
Y90650D01*
X4340Y91723D01*
X3733Y92633D01*
X2823Y93240D01*
X1750Y93454D01*
X0D01*
Y97046D01*
X1750D01*
X2823Y97260D01*
X3733Y97867D01*
X4340Y98777D01*
X4554Y99850D01*
Y103350D01*
X4340Y104423D01*
X3733Y105333D01*
X2823Y105940D01*
X1750Y106154D01*
X0D01*
Y109746D01*
X1750D01*
X2823Y109960D01*
X3733Y110567D01*
X4340Y111477D01*
X4554Y112550D01*
Y116050D01*
X4340Y117123D01*
X3733Y118033D01*
X2823Y118640D01*
X1750Y118854D01*
X0D01*
Y122446D01*
X1750D01*
X2823Y122660D01*
X3733Y123267D01*
X4340Y124177D01*
X4554Y125250D01*
Y128750D01*
X4340Y129823D01*
X3733Y130733D01*
X2823Y131340D01*
X1750Y131554D01*
X0D01*
Y135200D01*
X4500D01*
Y144200D01*
X0D01*
Y147846D01*
X1750D01*
X2823Y148060D01*
X3733Y148667D01*
X4340Y149577D01*
X4554Y150650D01*
Y154150D01*
X4340Y155223D01*
X3733Y156133D01*
X2823Y156740D01*
X1750Y156954D01*
X0D01*
Y160546D01*
X1750D01*
X2823Y160760D01*
X3733Y161367D01*
X4340Y162277D01*
X4554Y163350D01*
Y166850D01*
X4470Y167274D01*
X16874Y179678D01*
X18133Y179606D01*
X18308Y178692D01*
X17866Y178030D01*
X17711Y177250D01*
X17866Y176470D01*
X18257Y175884D01*
X18172Y175572D01*
X17673Y174705D01*
X17592Y174721D01*
X17250Y174789D01*
X16470Y174634D01*
X15808Y174192D01*
X15385Y173559D01*
X15366Y173530D01*
Y173530D01*
X15211Y172750D01*
X14500Y172539D01*
X13720Y172384D01*
X13058Y171942D01*
X12616Y171280D01*
X12461Y170500D01*
X12616Y169720D01*
X13058Y169058D01*
X13720Y168616D01*
X14500Y168461D01*
X15280Y168616D01*
X15942Y169058D01*
X16365Y169691D01*
X16384Y169720D01*
Y169720D01*
X16539Y170500D01*
X17250Y170711D01*
X18030Y170866D01*
X18692Y171308D01*
X19134Y171970D01*
X19289Y172750D01*
X19134Y173530D01*
X18743Y174116D01*
X18828Y174428D01*
X19327Y175295D01*
X19409Y175279D01*
X19750Y175211D01*
X20530Y175366D01*
X21192Y175808D01*
X21634Y176470D01*
X21789Y177250D01*
X21634Y178030D01*
X21192Y178692D01*
X21451Y180046D01*
X21663Y180301D01*
X23136D01*
X24211Y179250D01*
X24366Y178470D01*
X24808Y177808D01*
Y176692D01*
X24366Y176031D01*
X24211Y175250D01*
X24366Y174470D01*
X24808Y173808D01*
Y172692D01*
X24366Y172031D01*
X24211Y171250D01*
X24366Y170470D01*
X24808Y169808D01*
X25470Y169366D01*
X26250Y169211D01*
X27030Y169366D01*
X27692Y169808D01*
X28134Y170470D01*
X28289Y171250D01*
X28134Y172031D01*
X27692Y172692D01*
Y173808D01*
X28134Y174470D01*
X28289Y175250D01*
X28134Y176031D01*
X27692Y176692D01*
Y177808D01*
X28134Y178470D01*
X28289Y179250D01*
X29364Y180301D01*
X70910D01*
X72058Y180777D01*
X80018Y188737D01*
X81241Y188495D01*
D02*
G37*
G36*
X68574Y133030D02*
X68981Y132106D01*
X68626Y131250D01*
Y129170D01*
X68366Y128780D01*
X68211Y128000D01*
X68274Y127680D01*
X67612Y126704D01*
X67318Y126503D01*
X66720Y126384D01*
X66226Y126054D01*
X66010Y125951D01*
X64695Y126188D01*
X64692Y126192D01*
X64030Y126634D01*
X63250Y126789D01*
X62470Y126634D01*
X61808Y126192D01*
X60651Y126387D01*
X60280Y126634D01*
X59500Y126789D01*
X58720Y126634D01*
X58058Y126192D01*
X57616Y125530D01*
X57461Y124750D01*
X57616Y123970D01*
X58058Y123308D01*
X58720Y122866D01*
X59500Y122711D01*
X60280Y122866D01*
X60942Y123308D01*
X62099Y123113D01*
X62470Y122866D01*
X63250Y122711D01*
X64030Y122866D01*
X64524Y123196D01*
X64740Y123299D01*
X66055Y123062D01*
X66058Y123058D01*
X66720Y122616D01*
X67500Y122461D01*
X68280Y122616D01*
X68942Y123058D01*
X69384Y123720D01*
X69539Y124500D01*
X69475Y124820D01*
X70138Y125796D01*
X70433Y125997D01*
X71030Y126116D01*
X71692Y126558D01*
X72134Y127220D01*
X72289Y128000D01*
X72145Y128724D01*
X72274Y128899D01*
X73042Y129551D01*
X73144Y129584D01*
X73470Y129366D01*
X74250Y129211D01*
X75030Y129366D01*
X75356Y129584D01*
X76466Y129157D01*
X76627Y129022D01*
Y117673D01*
X75667Y116713D01*
X74497Y117339D01*
X74578Y117750D01*
X74268Y119311D01*
X73384Y120634D01*
X72061Y121518D01*
X70500Y121829D01*
X68939Y121518D01*
X67616Y120634D01*
X66732Y119311D01*
X66422Y117750D01*
X66732Y116189D01*
X67097Y115644D01*
X66418Y114374D01*
X46672D01*
X45524Y113898D01*
X42352Y110726D01*
X41876Y109578D01*
Y62922D01*
X42352Y61774D01*
X58274Y45852D01*
X59422Y45376D01*
X65078D01*
X67126Y43327D01*
Y35765D01*
X67602Y34617D01*
X83867Y18352D01*
X85015Y17876D01*
X158749D01*
X164117Y12509D01*
X164094Y12272D01*
X163617Y11213D01*
X163220Y11134D01*
X162558Y10692D01*
X162116Y10030D01*
X161961Y9250D01*
X162116Y8470D01*
X162558Y7808D01*
X163220Y7366D01*
X164000Y7211D01*
X164780Y7366D01*
X165442Y7808D01*
X165884Y8470D01*
X165963Y8867D01*
X167022Y9344D01*
X167259Y9367D01*
X172024Y4602D01*
X172883Y4246D01*
X173378Y3281D01*
X173482Y2856D01*
X173460Y2823D01*
X173246Y1750D01*
Y0D01*
X169654D01*
Y1750D01*
X169440Y2823D01*
X168833Y3733D01*
X167923Y4340D01*
X166850Y4554D01*
X163350D01*
X162277Y4340D01*
X161367Y3733D01*
X160760Y2823D01*
X160546Y1750D01*
Y0D01*
X156954D01*
Y1750D01*
X156740Y2823D01*
X156133Y3733D01*
X155223Y4340D01*
X154150Y4554D01*
X150650D01*
X149577Y4340D01*
X148667Y3733D01*
X148060Y2823D01*
X147846Y1750D01*
Y0D01*
X144254D01*
Y1750D01*
X144040Y2823D01*
X143433Y3733D01*
X142523Y4340D01*
X141450Y4554D01*
X137950D01*
X136877Y4340D01*
X135967Y3733D01*
X135360Y2823D01*
X135146Y1750D01*
Y0D01*
X131554D01*
Y1750D01*
X131340Y2823D01*
X130733Y3733D01*
X129823Y4340D01*
X128750Y4554D01*
X125250D01*
X124177Y4340D01*
X123267Y3733D01*
X122660Y2823D01*
X122446Y1750D01*
Y0D01*
X118854D01*
Y1750D01*
X118640Y2823D01*
X118033Y3733D01*
X117123Y4340D01*
X116050Y4554D01*
X112550D01*
X111477Y4340D01*
X110567Y3733D01*
X109960Y2823D01*
X109746Y1750D01*
Y0D01*
X106154D01*
Y1750D01*
X105940Y2823D01*
X105333Y3733D01*
X104423Y4340D01*
X103350Y4554D01*
X99850D01*
X98777Y4340D01*
X97867Y3733D01*
X97260Y2823D01*
X97046Y1750D01*
Y0D01*
X93454D01*
Y1750D01*
X93240Y2823D01*
X92633Y3733D01*
X91723Y4340D01*
X90650Y4554D01*
X87150D01*
X86077Y4340D01*
X85167Y3733D01*
X84560Y2823D01*
X84346Y1750D01*
Y0D01*
X80754D01*
Y1750D01*
X80540Y2823D01*
X79933Y3733D01*
X79023Y4340D01*
X77950Y4554D01*
X74450D01*
X73377Y4340D01*
X72467Y3733D01*
X71860Y2823D01*
X71646Y1750D01*
Y0D01*
X68054D01*
Y1750D01*
X67970Y2174D01*
X68148Y2352D01*
X68624Y3500D01*
Y31000D01*
X68148Y32148D01*
X34624Y65672D01*
Y121827D01*
X43104Y130308D01*
X43385Y130344D01*
X44645Y130053D01*
X44808Y129808D01*
X45470Y129366D01*
X46250Y129211D01*
X47031Y129366D01*
X47692Y129808D01*
X48808D01*
X49470Y129366D01*
X50250Y129211D01*
X51031Y129366D01*
X51692Y129808D01*
X52808D01*
X53470Y129366D01*
X54250Y129211D01*
X55030Y129366D01*
X55692Y129808D01*
X56808D01*
X57470Y129366D01*
X58250Y129211D01*
X59030Y129366D01*
X59692Y129808D01*
X60808D01*
X61470Y129366D01*
X62250Y129211D01*
X63031Y129366D01*
X63692Y129808D01*
X64134Y130470D01*
X64289Y131250D01*
X64134Y132031D01*
X64083Y132106D01*
X64762Y133376D01*
X68284D01*
X68574Y133030D01*
D02*
G37*
G36*
X81876Y113842D02*
Y98500D01*
X82352Y97352D01*
X112102Y67602D01*
X113250Y67126D01*
X172940D01*
X173316Y66031D01*
X173348Y65856D01*
X172482Y64561D01*
X172172Y63000D01*
X172482Y61439D01*
X173366Y60116D01*
X174448Y59394D01*
X174255Y58169D01*
X174236Y58124D01*
X162422D01*
X160225Y60321D01*
X160134Y60780D01*
X159692Y61442D01*
X159030Y61884D01*
X158250Y62039D01*
X157470Y61884D01*
X156808Y61442D01*
X156366Y60780D01*
X156211Y60000D01*
X156366Y59220D01*
X156808Y58558D01*
X157470Y58116D01*
X157929Y58025D01*
X159225Y56729D01*
X159158Y54999D01*
X159030Y54884D01*
X158250Y55039D01*
X157470Y54884D01*
X156808Y54442D01*
X156366Y53780D01*
X156211Y53000D01*
X156366Y52220D01*
X156808Y51558D01*
X157470Y51116D01*
X158250Y50961D01*
X159030Y51116D01*
X159420Y51376D01*
X177078D01*
X190621Y37833D01*
X190558Y37192D01*
X190116Y36530D01*
X189961Y35750D01*
X189982Y35644D01*
X189103Y34374D01*
X183751D01*
X180226Y37898D01*
X179078Y38374D01*
X156316D01*
X155637Y39644D01*
X155868Y39989D01*
X156178Y41550D01*
X155868Y43111D01*
X154984Y44434D01*
X153661Y45318D01*
X152100Y45628D01*
X150539Y45318D01*
X149216Y44434D01*
X148332Y43111D01*
X148022Y41550D01*
X148332Y39989D01*
X148563Y39644D01*
X147884Y38374D01*
X118216D01*
X117537Y39644D01*
X117768Y39989D01*
X118078Y41550D01*
X117768Y43111D01*
X116884Y44434D01*
X115561Y45318D01*
X114000Y45628D01*
X112439Y45318D01*
X111116Y44434D01*
X110232Y43111D01*
X109922Y41550D01*
X110232Y39989D01*
X110463Y39644D01*
X109784Y38374D01*
X94501D01*
X88374Y44501D01*
Y58735D01*
X87898Y59883D01*
X67624Y80158D01*
Y107080D01*
X67884Y107470D01*
X68039Y108250D01*
X69160Y109126D01*
X69840D01*
X70961Y108250D01*
X71116Y107470D01*
X71558Y106808D01*
X72220Y106366D01*
X73000Y106211D01*
X73780Y106366D01*
X74442Y106808D01*
X74884Y107470D01*
X75039Y108250D01*
X74884Y109030D01*
X75967Y109598D01*
X75977Y109602D01*
X80703Y114328D01*
X81876Y113842D01*
D02*
G37*
G36*
X69499Y65205D02*
X68874Y64034D01*
X68750Y64059D01*
X67579Y63826D01*
X66587Y63163D01*
X65924Y62171D01*
X65691Y61000D01*
X65924Y59830D01*
X66587Y58837D01*
X67579Y58174D01*
X68750Y57941D01*
X69921Y58174D01*
X70913Y58837D01*
X71576Y59830D01*
X71809Y61000D01*
X71784Y61124D01*
X72955Y61749D01*
X79126Y55578D01*
Y45732D01*
X77856Y45054D01*
X77461Y45318D01*
X75900Y45628D01*
X74339Y45318D01*
X73636Y44848D01*
X73397Y44844D01*
X72180Y45295D01*
X71898Y45977D01*
X67726Y50148D01*
X66578Y50624D01*
X60922D01*
X47124Y64422D01*
Y75568D01*
X48394Y76247D01*
X48939Y75882D01*
X50500Y75572D01*
X52061Y75882D01*
X53384Y76766D01*
X54268Y78089D01*
X54359Y78549D01*
X55737Y78967D01*
X69499Y65205D01*
D02*
G37*
G36*
X87777Y32020D02*
X87788Y31667D01*
X87488Y30513D01*
X87158Y30292D01*
X86716Y29630D01*
X86561Y28850D01*
X86716Y28070D01*
X87158Y27408D01*
X87820Y26966D01*
X88600Y26811D01*
X89380Y26966D01*
X90042Y27408D01*
X90263Y27738D01*
X91417Y28038D01*
X91770Y28027D01*
X94595Y25202D01*
X95743Y24726D01*
X169649D01*
X172024Y22352D01*
X172738Y22056D01*
X173271Y21551D01*
X173562Y20606D01*
X173441Y20000D01*
X173674Y18829D01*
X174337Y17837D01*
X175329Y17174D01*
X176500Y16941D01*
X177670Y17174D01*
X178663Y17837D01*
X179326Y18829D01*
X179559Y20000D01*
X179438Y20606D01*
X180265Y21876D01*
X189488D01*
X190167Y20606D01*
X190116Y20530D01*
X189961Y19750D01*
X190116Y18969D01*
X190334Y18644D01*
X189905Y17533D01*
X189771Y17374D01*
X186750D01*
X185602Y16898D01*
X178078Y9374D01*
X174673D01*
X161398Y22648D01*
X160250Y23124D01*
X86516D01*
X73115Y36524D01*
X73189Y37023D01*
X74001Y37559D01*
X74578Y37734D01*
X75900Y37472D01*
X77461Y37782D01*
X78784Y38666D01*
X79005Y38996D01*
X80640Y39158D01*
X87777Y32020D01*
D02*
G37*
G36*
X63599Y32105D02*
X63361Y31379D01*
X63049Y30859D01*
X62420Y30734D01*
X61758Y30292D01*
X61316Y29630D01*
X61161Y28850D01*
X61316Y28070D01*
X61758Y27408D01*
X62420Y26966D01*
X63200Y26811D01*
X63980Y26966D01*
X64106Y27050D01*
X65376Y26395D01*
Y11479D01*
X65216Y11344D01*
X64106Y10916D01*
X63780Y11134D01*
X63000Y11289D01*
X62220Y11134D01*
X61558Y10692D01*
X61116Y10030D01*
X60961Y9250D01*
X61116Y8470D01*
X61558Y7808D01*
X62220Y7366D01*
X63000Y7211D01*
X63780Y7366D01*
X64106Y7584D01*
X65216Y7156D01*
X65376Y7021D01*
Y4658D01*
X65250Y4554D01*
X61750D01*
X60677Y4340D01*
X59767Y3733D01*
X59160Y2823D01*
X58946Y1750D01*
Y0D01*
X55354D01*
Y1750D01*
X55140Y2823D01*
X54533Y3733D01*
X53623Y4340D01*
X52550Y4554D01*
X49050D01*
X48874Y4699D01*
Y26004D01*
X49090Y26250D01*
X50144Y26882D01*
X50500Y26811D01*
X51280Y26966D01*
X51942Y27408D01*
X52384Y28070D01*
X52539Y28850D01*
X52384Y29630D01*
X51942Y30292D01*
X51280Y30734D01*
X50500Y30889D01*
X50144Y30818D01*
X49090Y31450D01*
X48874Y31696D01*
Y45171D01*
X50047Y45657D01*
X63599Y32105D01*
D02*
G37*
G36*
X276577Y59160D02*
X277650Y58946D01*
X279400D01*
Y55354D01*
X277650D01*
X276577Y55140D01*
X275667Y54533D01*
X275060Y53623D01*
X274846Y52550D01*
Y49892D01*
X247327Y22374D01*
X240852D01*
X240440Y23644D01*
X276205Y59408D01*
X276577Y59160D01*
D02*
G37*
G36*
X262230Y2174D02*
X262146Y1750D01*
Y0D01*
X258554D01*
Y1750D01*
X258340Y2823D01*
X257733Y3733D01*
X256823Y4340D01*
X255750Y4554D01*
X252250D01*
X251177Y4340D01*
X250267Y3733D01*
X249660Y2823D01*
X249446Y1750D01*
Y0D01*
X245854D01*
Y1750D01*
X245640Y2823D01*
X245033Y3733D01*
X244123Y4340D01*
X243050Y4554D01*
X239550D01*
X238477Y4340D01*
X237567Y3733D01*
X236960Y2823D01*
X236746Y1750D01*
Y0D01*
X233154D01*
Y1750D01*
X232940Y2823D01*
X232333Y3733D01*
X231423Y4340D01*
X230350Y4554D01*
X226850D01*
X225777Y4340D01*
X224867Y3733D01*
X224260Y2823D01*
X224046Y1750D01*
Y0D01*
X220454D01*
Y1750D01*
X220240Y2823D01*
X219633Y3733D01*
X218723Y4340D01*
X217650Y4554D01*
X214150D01*
X213077Y4340D01*
X212167Y3733D01*
X211560Y2823D01*
X211346Y1750D01*
Y0D01*
X207754D01*
Y1750D01*
X207540Y2823D01*
X206933Y3733D01*
X206023Y4340D01*
X204950Y4554D01*
X201450D01*
X200377Y4340D01*
X199467Y3733D01*
X198860Y2823D01*
X198646Y1750D01*
Y0D01*
X195054D01*
Y1750D01*
X194840Y2823D01*
X194233Y3733D01*
X193323Y4340D01*
X192250Y4554D01*
X188750D01*
X187677Y4340D01*
X186767Y3733D01*
X186160Y2823D01*
X185946Y1750D01*
Y0D01*
X182354D01*
Y1750D01*
X182140Y2823D01*
X181533Y3733D01*
X181444Y5319D01*
X188251Y12126D01*
X199488D01*
X200167Y10856D01*
X200116Y10780D01*
X199961Y10000D01*
X200116Y9220D01*
X200558Y8558D01*
X201220Y8116D01*
X202000Y7961D01*
X202780Y8116D01*
X203442Y8558D01*
X203884Y9220D01*
X204039Y10000D01*
X203884Y10780D01*
X203833Y10856D01*
X204512Y12126D01*
X219488D01*
X220167Y10856D01*
X220116Y10780D01*
X219961Y10000D01*
X220116Y9220D01*
X220558Y8558D01*
X221220Y8116D01*
X222000Y7961D01*
X222780Y8116D01*
X223442Y8558D01*
X223884Y9220D01*
X224039Y10000D01*
X223884Y10780D01*
X223833Y10856D01*
X224512Y12126D01*
X252278D01*
X262230Y2174D01*
D02*
G37*
%LPC*%
G36*
X226500Y271289D02*
X225720Y271134D01*
X225058Y270692D01*
X224616Y270030D01*
X224461Y269250D01*
X224616Y268470D01*
X225058Y267808D01*
X225720Y267366D01*
X226500Y267211D01*
X227280Y267366D01*
X227942Y267808D01*
X228384Y268470D01*
X228539Y269250D01*
X228384Y270030D01*
X227942Y270692D01*
X227280Y271134D01*
X226500Y271289D01*
D02*
G37*
G36*
X208500D02*
X207720Y271134D01*
X207058Y270692D01*
X206616Y270030D01*
X206461Y269250D01*
X206616Y268470D01*
X207058Y267808D01*
X207720Y267366D01*
X208500Y267211D01*
X209280Y267366D01*
X209942Y267808D01*
X210384Y268470D01*
X210539Y269250D01*
X210384Y270030D01*
X209942Y270692D01*
X209280Y271134D01*
X208500Y271289D01*
D02*
G37*
G36*
X195500D02*
X194720Y271134D01*
X194058Y270692D01*
X193616Y270030D01*
X193461Y269250D01*
X193616Y268470D01*
X194058Y267808D01*
X194720Y267366D01*
X195500Y267211D01*
X196280Y267366D01*
X196942Y267808D01*
X197384Y268470D01*
X197539Y269250D01*
X197384Y270030D01*
X196942Y270692D01*
X196280Y271134D01*
X195500Y271289D01*
D02*
G37*
G36*
X117500D02*
X116720Y271134D01*
X116058Y270692D01*
X115616Y270030D01*
X115461Y269250D01*
X115616Y268470D01*
X116058Y267808D01*
X116720Y267366D01*
X117500Y267211D01*
X118280Y267366D01*
X118942Y267808D01*
X119384Y268470D01*
X119539Y269250D01*
X119384Y270030D01*
X118942Y270692D01*
X118280Y271134D01*
X117500Y271289D01*
D02*
G37*
G36*
X270250Y259539D02*
X269470Y259384D01*
X268808Y258942D01*
X268366Y258280D01*
X268211Y257500D01*
X268366Y256720D01*
X268808Y256058D01*
X269470Y255616D01*
X270250Y255461D01*
X271030Y255616D01*
X271692Y256058D01*
X272134Y256720D01*
X272289Y257500D01*
X272134Y258280D01*
X271692Y258942D01*
X271030Y259384D01*
X270250Y259539D01*
D02*
G37*
G36*
X193750Y257789D02*
X192970Y257634D01*
X192308Y257192D01*
X191866Y256530D01*
X191711Y255750D01*
X191866Y254970D01*
X192084Y254644D01*
X191657Y253534D01*
X191521Y253374D01*
X184920D01*
X184530Y253634D01*
X183750Y253789D01*
X182970Y253634D01*
X182308Y253192D01*
X181866Y252530D01*
X181711Y251750D01*
X181866Y250970D01*
X182308Y250308D01*
X182970Y249866D01*
X183750Y249711D01*
X184530Y249866D01*
X184920Y250126D01*
X191521D01*
X191656Y249966D01*
X192084Y248856D01*
X191866Y248530D01*
X191711Y247750D01*
X191866Y246970D01*
X192308Y246308D01*
X192970Y245866D01*
X193750Y245711D01*
X194530Y245866D01*
X195192Y246308D01*
X195634Y246970D01*
X195789Y247750D01*
X195634Y248530D01*
X195416Y248856D01*
X195844Y249966D01*
X195979Y250126D01*
X226000D01*
X227148Y250602D01*
X228308Y250308D01*
X228970Y249866D01*
X229750Y249711D01*
X230530Y249866D01*
X231192Y250308D01*
X232594Y250600D01*
X232757Y250538D01*
X233750Y250126D01*
X253680D01*
X254070Y249866D01*
X254850Y249711D01*
X255630Y249866D01*
X256292Y250308D01*
X256734Y250970D01*
X256889Y251750D01*
X256734Y252530D01*
X256292Y253192D01*
X255630Y253634D01*
X254850Y253789D01*
X254070Y253634D01*
X253680Y253374D01*
X234422D01*
X232148Y255648D01*
X231000Y256124D01*
X228750D01*
X227602Y255648D01*
X225327Y253374D01*
X195979D01*
X195843Y253534D01*
X195416Y254644D01*
X195634Y254970D01*
X195789Y255750D01*
X195634Y256530D01*
X195192Y257192D01*
X194530Y257634D01*
X193750Y257789D01*
D02*
G37*
G36*
X153750Y250539D02*
X152970Y250384D01*
X152308Y249942D01*
X151866Y249280D01*
X151711Y248500D01*
X151866Y247720D01*
X152308Y247058D01*
X152970Y246616D01*
X153750Y246461D01*
X154530Y246616D01*
X155192Y247058D01*
X155634Y247720D01*
X155789Y248500D01*
X155634Y249280D01*
X155192Y249942D01*
X154530Y250384D01*
X153750Y250539D01*
D02*
G37*
G36*
X129750Y249789D02*
X128970Y249634D01*
X128308Y249192D01*
X127866Y248530D01*
X127711Y247750D01*
X127866Y246970D01*
X128308Y246308D01*
X128970Y245866D01*
X129750Y245711D01*
X130530Y245866D01*
X131192Y246308D01*
X131634Y246970D01*
X131789Y247750D01*
X131634Y248530D01*
X131192Y249192D01*
X130530Y249634D01*
X129750Y249789D01*
D02*
G37*
G36*
X125750Y239539D02*
X124970Y239384D01*
X124308Y238942D01*
X123866Y238280D01*
X123711Y237500D01*
X123866Y236720D01*
X124308Y236058D01*
X124970Y235616D01*
X125750Y235461D01*
X126530Y235616D01*
X127192Y236058D01*
X127634Y236720D01*
X127789Y237500D01*
X127634Y238280D01*
X127192Y238942D01*
X126530Y239384D01*
X125750Y239539D01*
D02*
G37*
G36*
X171750Y238789D02*
X170970Y238634D01*
X170308Y238192D01*
X169866Y237530D01*
X169711Y236750D01*
X169866Y235970D01*
X170308Y235308D01*
X170970Y234866D01*
X171750Y234711D01*
X172530Y234866D01*
X173192Y235308D01*
X173634Y235970D01*
X173789Y236750D01*
X173634Y237530D01*
X173192Y238192D01*
X172530Y238634D01*
X171750Y238789D01*
D02*
G37*
G36*
X161750Y238789D02*
X160970Y238634D01*
X160308Y238192D01*
X159866Y237530D01*
X159711Y236750D01*
X159866Y235970D01*
X160308Y235308D01*
X160970Y234866D01*
X161750Y234711D01*
X162530Y234866D01*
X163192Y235308D01*
X163634Y235970D01*
X163789Y236750D01*
X163634Y237530D01*
X163192Y238192D01*
X162530Y238634D01*
X161750Y238789D01*
D02*
G37*
G36*
X270250Y238539D02*
X269470Y238384D01*
X268808Y237942D01*
X268366Y237280D01*
X268211Y236500D01*
X268366Y235720D01*
X268808Y235058D01*
X269470Y234616D01*
X270250Y234461D01*
X271030Y234616D01*
X271692Y235058D01*
X272134Y235720D01*
X272289Y236500D01*
X272134Y237280D01*
X271692Y237942D01*
X271030Y238384D01*
X270250Y238539D01*
D02*
G37*
G36*
X225750Y233789D02*
X224970Y233634D01*
X224308Y233192D01*
X223866Y232530D01*
X223711Y231750D01*
X223866Y230970D01*
X224308Y230308D01*
X224970Y229866D01*
X225750Y229711D01*
X226530Y229866D01*
X227192Y230308D01*
X227634Y230970D01*
X227789Y231750D01*
X227634Y232530D01*
X227192Y233192D01*
X226530Y233634D01*
X225750Y233789D01*
D02*
G37*
G36*
X217750D02*
X216970Y233634D01*
X216308Y233192D01*
X215866Y232530D01*
X215711Y231750D01*
X215866Y230970D01*
X216308Y230308D01*
X216970Y229866D01*
X217750Y229711D01*
X218530Y229866D01*
X219192Y230308D01*
X219634Y230970D01*
X219789Y231750D01*
X219634Y232530D01*
X219192Y233192D01*
X218530Y233634D01*
X217750Y233789D01*
D02*
G37*
G36*
X119250Y241289D02*
X118470Y241134D01*
X117808Y240692D01*
X117366Y240030D01*
X117211Y239250D01*
X117366Y238470D01*
X117808Y237808D01*
X117814Y237763D01*
X117624Y236403D01*
X117308Y236192D01*
X116866Y235530D01*
X116711Y234750D01*
X116866Y233970D01*
X117308Y233308D01*
X117970Y232866D01*
X118612Y232738D01*
X118750Y232711D01*
X119711Y231750D01*
X119738Y231612D01*
X119866Y230970D01*
X120308Y230308D01*
X120970Y229866D01*
X121750Y229711D01*
X122530Y229866D01*
X123192Y230308D01*
X123634Y230970D01*
X123789Y231750D01*
X123634Y232530D01*
X123192Y233192D01*
X122530Y233634D01*
X121887Y233762D01*
X121750Y233789D01*
X120789Y234750D01*
X120762Y234888D01*
X120634Y235530D01*
X120192Y236192D01*
X120186Y236237D01*
X120375Y237597D01*
X120692Y237808D01*
X121134Y238470D01*
X121289Y239250D01*
X121134Y240030D01*
X120692Y240692D01*
X120030Y241134D01*
X119250Y241289D01*
D02*
G37*
G36*
X137250Y233039D02*
X136470Y232884D01*
X135808Y232442D01*
X135366Y231780D01*
X135211Y231000D01*
X135366Y230220D01*
X135808Y229558D01*
X136470Y229116D01*
X137250Y228961D01*
X138030Y229116D01*
X138692Y229558D01*
X139134Y230220D01*
X139289Y231000D01*
X139134Y231780D01*
X138692Y232442D01*
X138030Y232884D01*
X137250Y233039D01*
D02*
G37*
G36*
X185750Y234539D02*
X184970Y234384D01*
X184308Y233942D01*
X183866Y233280D01*
X183711Y232500D01*
X183866Y231720D01*
X184308Y231058D01*
X184970Y230616D01*
X185750Y230461D01*
X186530Y230616D01*
X187192Y231058D01*
X188116Y230280D01*
X187961Y229500D01*
X188116Y228720D01*
X188558Y228058D01*
X189220Y227616D01*
X190000Y227461D01*
X190780Y227616D01*
X191442Y228058D01*
X191884Y228720D01*
X192039Y229500D01*
X191884Y230280D01*
X191442Y230942D01*
X190780Y231384D01*
X190000Y231539D01*
X189220Y231384D01*
X188558Y230942D01*
X187634Y231720D01*
X187789Y232500D01*
X187634Y233280D01*
X187192Y233942D01*
X186530Y234384D01*
X185750Y234539D01*
D02*
G37*
G36*
X114250Y231289D02*
X113470Y231134D01*
X112808Y230692D01*
X112366Y230030D01*
X112211Y229250D01*
X112366Y228470D01*
X112808Y227808D01*
X113470Y227366D01*
X114250Y227211D01*
X115030Y227366D01*
X115692Y227808D01*
X116134Y228470D01*
X116289Y229250D01*
X116134Y230030D01*
X115692Y230692D01*
X115030Y231134D01*
X114250Y231289D01*
D02*
G37*
G36*
X157750Y231049D02*
X156775Y230855D01*
X155948Y230302D01*
X155395Y229475D01*
X155201Y228500D01*
X155395Y227525D01*
X155948Y226698D01*
X156775Y226145D01*
X157750Y225951D01*
X158725Y226145D01*
X159552Y226698D01*
X160105Y227525D01*
X160299Y228500D01*
X160105Y229475D01*
X159552Y230302D01*
X158725Y230855D01*
X157750Y231049D01*
D02*
G37*
G36*
X225750Y226539D02*
X224970Y226384D01*
X224308Y225942D01*
X223866Y225280D01*
X223711Y224500D01*
X222686Y223374D01*
X172410D01*
X171289Y224250D01*
X171134Y225030D01*
X170692Y225692D01*
X170030Y226134D01*
X169250Y226289D01*
X168470Y226134D01*
X167808Y225692D01*
X167366Y225030D01*
X167211Y224250D01*
X166090Y223374D01*
X166000D01*
X164852Y222898D01*
X163679Y221725D01*
X163220Y221634D01*
X162558Y221192D01*
X162116Y220530D01*
X161961Y219750D01*
X162116Y218970D01*
X162558Y218308D01*
X163220Y217866D01*
X164000Y217711D01*
X164780Y217866D01*
X165442Y218308D01*
X165884Y218970D01*
X167181Y218978D01*
X167274Y218932D01*
X167366Y218470D01*
X167808Y217808D01*
X168470Y217366D01*
X169250Y217211D01*
X170030Y217366D01*
X170692Y217808D01*
X171134Y218470D01*
X171289Y219250D01*
X172410Y220126D01*
X205545D01*
X205902Y219303D01*
X206001Y218856D01*
X205616Y218280D01*
X205461Y217500D01*
X205616Y216720D01*
X206058Y216058D01*
X206720Y215616D01*
X207500Y215461D01*
X208280Y215616D01*
X208942Y216058D01*
X209384Y216720D01*
X209539Y217500D01*
X209384Y218280D01*
X208999Y218856D01*
X209098Y219303D01*
X209455Y220126D01*
X228750D01*
X229898Y220602D01*
X230071Y220775D01*
X230530Y220866D01*
X231192Y221308D01*
X231634Y221970D01*
X231789Y222750D01*
X231634Y223530D01*
X231192Y224192D01*
X230530Y224634D01*
X229750Y224789D01*
X228970Y224634D01*
X227636Y225270D01*
X227634Y225280D01*
X227192Y225942D01*
X226530Y226384D01*
X225750Y226539D01*
D02*
G37*
G36*
X106000Y227039D02*
X105220Y226884D01*
X104558Y226442D01*
X104116Y225780D01*
X103961Y225000D01*
X104116Y224220D01*
X104558Y223558D01*
X105220Y223116D01*
X106000Y222961D01*
X106780Y223116D01*
X107442Y223558D01*
X107884Y224220D01*
X108039Y225000D01*
X107884Y225780D01*
X107442Y226442D01*
X106780Y226884D01*
X106000Y227039D01*
D02*
G37*
G36*
X120750Y225789D02*
X119970Y225634D01*
X119308Y225192D01*
X118866Y224530D01*
X118711Y223750D01*
X118866Y222970D01*
X119308Y222308D01*
X119970Y221866D01*
X120750Y221711D01*
X121530Y221866D01*
X122192Y222308D01*
X122634Y222970D01*
X122789Y223750D01*
X122634Y224530D01*
X122192Y225192D01*
X121530Y225634D01*
X120750Y225789D01*
D02*
G37*
G36*
X241750Y225789D02*
X240970Y225634D01*
X240308Y225192D01*
X239866Y224530D01*
X239711Y223750D01*
X239866Y222970D01*
X240308Y222308D01*
X240970Y221866D01*
X241750Y221711D01*
X242530Y221866D01*
X243192Y222308D01*
X243634Y222970D01*
X243789Y223750D01*
X243634Y224530D01*
X243192Y225192D01*
X242530Y225634D01*
X241750Y225789D01*
D02*
G37*
G36*
X129750D02*
X128970Y225634D01*
X128308Y225192D01*
X127866Y224530D01*
X127711Y223750D01*
X127866Y222970D01*
X128308Y222308D01*
X128970Y221866D01*
X129750Y221711D01*
X130530Y221866D01*
X131192Y222308D01*
X131634Y222970D01*
X131789Y223750D01*
X131634Y224530D01*
X131192Y225192D01*
X130530Y225634D01*
X129750Y225789D01*
D02*
G37*
G36*
X134250Y221289D02*
X133470Y221134D01*
X132808Y220692D01*
X132366Y220030D01*
X132211Y219250D01*
X132366Y218470D01*
X132808Y217808D01*
X133470Y217366D01*
X134250Y217211D01*
X135030Y217366D01*
X135692Y217808D01*
X136134Y218470D01*
X136289Y219250D01*
X136134Y220030D01*
X135692Y220692D01*
X135030Y221134D01*
X134250Y221289D01*
D02*
G37*
G36*
X124250D02*
X123470Y221134D01*
X122808Y220692D01*
X122366Y220030D01*
X122211Y219250D01*
X122366Y218470D01*
X122808Y217808D01*
X123470Y217366D01*
X124250Y217211D01*
X125030Y217366D01*
X125692Y217808D01*
X126134Y218470D01*
X126289Y219250D01*
X126134Y220030D01*
X125692Y220692D01*
X125030Y221134D01*
X124250Y221289D01*
D02*
G37*
G36*
X106000Y220539D02*
X105220Y220384D01*
X104558Y219942D01*
X104116Y219280D01*
X103961Y218500D01*
X104116Y217720D01*
X104558Y217058D01*
X105220Y216616D01*
X106000Y216461D01*
X106780Y216616D01*
X107442Y217058D01*
X107884Y217720D01*
X108039Y218500D01*
X107884Y219280D01*
X107442Y219942D01*
X106780Y220384D01*
X106000Y220539D01*
D02*
G37*
G36*
X270250Y220539D02*
X269470Y220384D01*
X268808Y219942D01*
X268366Y219280D01*
X268211Y218500D01*
X268366Y217719D01*
X268808Y217058D01*
X269470Y216616D01*
X270250Y216461D01*
X271030Y216616D01*
X271692Y217058D01*
X272134Y217719D01*
X272289Y218500D01*
X272134Y219280D01*
X271692Y219942D01*
X271030Y220384D01*
X270250Y220539D01*
D02*
G37*
G36*
X69670Y218939D02*
X68890Y218784D01*
X68228Y218342D01*
X67786Y217680D01*
X67631Y216900D01*
X67786Y216120D01*
X68228Y215458D01*
X68890Y215016D01*
X69670Y214861D01*
X70450Y215016D01*
X71112Y215458D01*
X71554Y216120D01*
X71709Y216900D01*
X71554Y217680D01*
X71112Y218342D01*
X70450Y218784D01*
X69670Y218939D01*
D02*
G37*
G36*
X116750Y218789D02*
X115969Y218634D01*
X115308Y218192D01*
X114866Y217530D01*
X114711Y216750D01*
X114866Y215970D01*
X115308Y215308D01*
X115969Y214866D01*
X116750Y214711D01*
X117530Y214866D01*
X118192Y215308D01*
X118634Y215970D01*
X118789Y216750D01*
X118634Y217530D01*
X118192Y218192D01*
X117530Y218634D01*
X116750Y218789D01*
D02*
G37*
G36*
X201750Y217789D02*
X200970Y217634D01*
X200308Y217192D01*
X199866Y216530D01*
X199711Y215750D01*
X199866Y214970D01*
X200308Y214308D01*
X200970Y213866D01*
X201750Y213711D01*
X202530Y213866D01*
X203192Y214308D01*
X203634Y214970D01*
X203789Y215750D01*
X203634Y216530D01*
X203192Y217192D01*
X202530Y217634D01*
X201750Y217789D01*
D02*
G37*
G36*
X108750Y215789D02*
X107970Y215634D01*
X107308Y215192D01*
X106866Y214530D01*
X106711Y213750D01*
X106866Y212970D01*
X107308Y212308D01*
X107970Y211866D01*
X108750Y211711D01*
X109530Y211866D01*
X110192Y212308D01*
X110634Y212970D01*
X110789Y213750D01*
X110634Y214530D01*
X110192Y215192D01*
X109530Y215634D01*
X108750Y215789D01*
D02*
G37*
G36*
X214500Y215049D02*
X213524Y214855D01*
X212698Y214302D01*
X212145Y213475D01*
X211951Y212500D01*
X212145Y211525D01*
X212698Y210698D01*
X213524Y210145D01*
X214500Y209951D01*
X215475Y210145D01*
X216302Y210698D01*
X216855Y211525D01*
X217049Y212500D01*
X216855Y213475D01*
X216302Y214302D01*
X215475Y214855D01*
X214500Y215049D01*
D02*
G37*
G36*
X226250Y213789D02*
X225469Y213634D01*
X224808Y213192D01*
X224366Y212530D01*
X224211Y211750D01*
X224366Y210970D01*
X224808Y210308D01*
X225469Y209866D01*
X226250Y209711D01*
X227030Y209866D01*
X227692Y210308D01*
X228134Y210970D01*
X228289Y211750D01*
X228134Y212530D01*
X227692Y213192D01*
X227030Y213634D01*
X226250Y213789D01*
D02*
G37*
G36*
X93000Y213789D02*
X92220Y213634D01*
X91558Y213192D01*
X91116Y212530D01*
X90961Y211750D01*
X91116Y210970D01*
X91558Y210308D01*
X92220Y209866D01*
X93000Y209711D01*
X93780Y209866D01*
X94442Y210308D01*
X94884Y210970D01*
X95039Y211750D01*
X94884Y212530D01*
X94442Y213192D01*
X93780Y213634D01*
X93000Y213789D01*
D02*
G37*
G36*
X270250Y212539D02*
X269470Y212384D01*
X268808Y211942D01*
X268366Y211280D01*
X268211Y210500D01*
X268366Y209720D01*
X268808Y209058D01*
X269470Y208616D01*
X270250Y208461D01*
X271030Y208616D01*
X271692Y209058D01*
X272134Y209720D01*
X272289Y210500D01*
X272134Y211280D01*
X271692Y211942D01*
X271030Y212384D01*
X270250Y212539D01*
D02*
G37*
G36*
X209750Y209789D02*
X208970Y209634D01*
X208308Y209192D01*
X207866Y208530D01*
X207711Y207750D01*
X207866Y206970D01*
X208308Y206308D01*
X208970Y205866D01*
X209750Y205711D01*
X210530Y205866D01*
X211192Y206308D01*
X211634Y206970D01*
X211789Y207750D01*
X211634Y208530D01*
X211192Y209192D01*
X210530Y209634D01*
X209750Y209789D01*
D02*
G37*
G36*
X192500Y213789D02*
X191720Y213634D01*
X191058Y213192D01*
X190616Y212530D01*
X190461Y211750D01*
X190616Y210970D01*
X191058Y210308D01*
X191462Y210038D01*
X191731Y209769D01*
X191873Y208541D01*
X191866Y208530D01*
X191711Y207750D01*
X191866Y206970D01*
X192308Y206308D01*
X192970Y205866D01*
X193750Y205711D01*
X194530Y205866D01*
X195192Y206308D01*
X195634Y206970D01*
X195789Y207750D01*
X195634Y208530D01*
X195192Y209192D01*
X194788Y209462D01*
X194519Y209731D01*
X194377Y210959D01*
X194384Y210970D01*
X194539Y211750D01*
X194384Y212530D01*
X193942Y213192D01*
X193280Y213634D01*
X192500Y213789D01*
D02*
G37*
G36*
X229750Y208539D02*
X228970Y208384D01*
X228308Y207942D01*
X227866Y207280D01*
X227711Y206500D01*
X227866Y205720D01*
X228308Y205058D01*
X228970Y204616D01*
X229750Y204461D01*
X230530Y204616D01*
X231192Y205058D01*
X231634Y205720D01*
X231789Y206500D01*
X231634Y207280D01*
X231192Y207942D01*
X230530Y208384D01*
X229750Y208539D01*
D02*
G37*
G36*
X163750Y207789D02*
X162970Y207634D01*
X162308Y207192D01*
X161866Y206530D01*
X161711Y205750D01*
X161866Y204970D01*
X162308Y204308D01*
X162970Y203866D01*
X163750Y203711D01*
X164530Y203866D01*
X165192Y204308D01*
X165634Y204970D01*
X165789Y205750D01*
X165634Y206530D01*
X165192Y207192D01*
X164530Y207634D01*
X163750Y207789D01*
D02*
G37*
G36*
X106000Y207539D02*
X105220Y207384D01*
X104558Y206942D01*
X104116Y206280D01*
X103961Y205500D01*
X104116Y204720D01*
X104558Y204058D01*
X105220Y203616D01*
X106000Y203461D01*
X106780Y203616D01*
X107442Y204058D01*
X107884Y204720D01*
X108039Y205500D01*
X107884Y206280D01*
X107442Y206942D01*
X106780Y207384D01*
X106000Y207539D01*
D02*
G37*
G36*
X229750Y202039D02*
X228970Y201884D01*
X228308Y201442D01*
X227866Y200780D01*
X227711Y200000D01*
X227866Y199220D01*
X228308Y198558D01*
X228970Y198116D01*
X229750Y197961D01*
X230530Y198116D01*
X231192Y198558D01*
X231634Y199220D01*
X231789Y200000D01*
X231634Y200780D01*
X231192Y201442D01*
X230530Y201884D01*
X229750Y202039D01*
D02*
G37*
G36*
X201750Y201789D02*
X200970Y201634D01*
X200308Y201192D01*
X199866Y200530D01*
X199711Y199750D01*
X199866Y198970D01*
X200308Y198308D01*
X200970Y197866D01*
X201750Y197711D01*
X202530Y197866D01*
X203192Y198308D01*
X203634Y198970D01*
X203789Y199750D01*
X203634Y200530D01*
X203192Y201192D01*
X202530Y201634D01*
X201750Y201789D01*
D02*
G37*
G36*
X185750D02*
X184970Y201634D01*
X184308Y201192D01*
X183866Y200530D01*
X183711Y199750D01*
X183866Y198970D01*
X184308Y198308D01*
X184970Y197866D01*
X185750Y197711D01*
X186530Y197866D01*
X187192Y198308D01*
X187634Y198970D01*
X187789Y199750D01*
X187634Y200530D01*
X187192Y201192D01*
X186530Y201634D01*
X185750Y201789D01*
D02*
G37*
G36*
X213750Y195789D02*
X212970Y195634D01*
X212308Y195192D01*
X211866Y194531D01*
X211820Y194300D01*
X210554Y193636D01*
X210530Y193634D01*
X209750Y193789D01*
X208970Y193634D01*
X208308Y193192D01*
X207866Y192530D01*
X207711Y191750D01*
X207866Y190970D01*
X208308Y190308D01*
X208970Y189866D01*
X209750Y189711D01*
X210530Y189866D01*
X211192Y190308D01*
X211634Y190970D01*
X211680Y191201D01*
X212946Y191864D01*
X212970Y191866D01*
X213750Y191711D01*
X214530Y191866D01*
X215192Y192308D01*
X215634Y192970D01*
X215789Y193750D01*
X215634Y194531D01*
X215192Y195192D01*
X214530Y195634D01*
X213750Y195789D01*
D02*
G37*
G36*
X229750Y195539D02*
X228970Y195384D01*
X228308Y194942D01*
X227866Y194280D01*
X227711Y193500D01*
X227866Y192720D01*
X228308Y192058D01*
X228970Y191616D01*
X229750Y191461D01*
X230530Y191616D01*
X231192Y192058D01*
X231634Y192720D01*
X231789Y193500D01*
X231634Y194280D01*
X231192Y194942D01*
X230530Y195384D01*
X229750Y195539D01*
D02*
G37*
G36*
X270250Y194539D02*
X269470Y194384D01*
X268808Y193942D01*
X268366Y193280D01*
X268211Y192500D01*
X268366Y191720D01*
X268808Y191058D01*
X269470Y190616D01*
X270250Y190461D01*
X271030Y190616D01*
X271692Y191058D01*
X272134Y191720D01*
X272289Y192500D01*
X272134Y193280D01*
X271692Y193942D01*
X271030Y194384D01*
X270250Y194539D01*
D02*
G37*
G36*
X192500Y189789D02*
X191720Y189634D01*
X191058Y189192D01*
X190442D01*
X189780Y189634D01*
X189000Y189789D01*
X188220Y189634D01*
X187558Y189192D01*
X187116Y188530D01*
X186961Y187750D01*
X187116Y186970D01*
X187558Y186308D01*
X188220Y185866D01*
X189000Y185711D01*
X189780Y185866D01*
X190442Y186308D01*
X191058D01*
X191720Y185866D01*
X192500Y185711D01*
X193280Y185866D01*
X193942Y186308D01*
X194384Y186970D01*
X194539Y187750D01*
X194384Y188530D01*
X193942Y189192D01*
X193280Y189634D01*
X192500Y189789D01*
D02*
G37*
G36*
X229750Y189039D02*
X228970Y188884D01*
X228308Y188442D01*
X227866Y187780D01*
X227711Y187000D01*
X227866Y186220D01*
X228308Y185558D01*
X228970Y185116D01*
X229750Y184961D01*
X230530Y185116D01*
X231192Y185558D01*
X231634Y186220D01*
X231789Y187000D01*
X231634Y187780D01*
X231192Y188442D01*
X230530Y188884D01*
X229750Y189039D01*
D02*
G37*
G36*
X182000Y193789D02*
X181220Y193634D01*
X180558Y193192D01*
X180116Y192530D01*
X179961Y191750D01*
X180116Y190970D01*
X180558Y190308D01*
X181147Y189914D01*
X181220Y189350D01*
Y189150D01*
X181147Y188586D01*
X180558Y188192D01*
X180116Y187530D01*
X179961Y186750D01*
X180116Y185970D01*
X180558Y185308D01*
X181220Y184866D01*
X182000Y184711D01*
X182780Y184866D01*
X183442Y185308D01*
X183884Y185970D01*
X184039Y186750D01*
X183884Y187530D01*
X183442Y188192D01*
X182853Y188586D01*
X182780Y189150D01*
Y189350D01*
X182853Y189914D01*
X183442Y190308D01*
X183884Y190970D01*
X184039Y191750D01*
X183884Y192530D01*
X183442Y193192D01*
X182780Y193634D01*
X182000Y193789D01*
D02*
G37*
G36*
X264000Y186789D02*
X263220Y186634D01*
X262558Y186192D01*
X262116Y185530D01*
X261961Y184750D01*
X262116Y183970D01*
X262558Y183308D01*
X263220Y182866D01*
X264000Y182711D01*
X264780Y182866D01*
X265442Y183308D01*
X265884Y183970D01*
X266039Y184750D01*
X265884Y185530D01*
X265442Y186192D01*
X264780Y186634D01*
X264000Y186789D01*
D02*
G37*
G36*
X217750Y185789D02*
X216970Y185634D01*
X216308Y185192D01*
X215866Y184530D01*
X215711Y183750D01*
X215866Y182970D01*
X216308Y182308D01*
X216970Y181866D01*
X217750Y181711D01*
X218530Y181866D01*
X219192Y182308D01*
X219634Y182970D01*
X219789Y183750D01*
X219634Y184530D01*
X219192Y185192D01*
X218530Y185634D01*
X217750Y185789D01*
D02*
G37*
G36*
X153750Y177789D02*
X152970Y177634D01*
X152420Y177266D01*
X152308Y177192D01*
X150942Y177192D01*
X150830Y177266D01*
X150280Y177634D01*
X149500Y177789D01*
X148720Y177634D01*
X148058Y177192D01*
X147192D01*
X146530Y177634D01*
X145750Y177789D01*
X144970Y177634D01*
X144308Y177192D01*
X143192D01*
X142530Y177634D01*
X141750Y177789D01*
X140970Y177634D01*
X140308Y177192D01*
X139866Y176530D01*
X139711Y175750D01*
X139866Y174970D01*
X140308Y174308D01*
X140970Y173866D01*
X141750Y173711D01*
X142530Y173866D01*
X143192Y174308D01*
X144308D01*
X144970Y173866D01*
X145750Y173711D01*
X146530Y173866D01*
X147192Y174308D01*
X148058D01*
X148720Y173866D01*
X149500Y173711D01*
X150280Y173866D01*
X150830Y174234D01*
X150942Y174308D01*
X152308Y174308D01*
X152420Y174234D01*
X152970Y173866D01*
X153750Y173711D01*
X154530Y173866D01*
X155192Y174308D01*
X155634Y174970D01*
X155789Y175750D01*
X155634Y176530D01*
X155192Y177192D01*
X154530Y177634D01*
X153750Y177789D01*
D02*
G37*
G36*
X111250Y177289D02*
X110470Y177134D01*
X109808Y176692D01*
X109366Y176030D01*
X109211Y175250D01*
X109259Y175008D01*
X108665Y174478D01*
X108163Y174158D01*
X107500Y174289D01*
X106720Y174134D01*
X106058Y173692D01*
X105616Y173031D01*
X105461Y172250D01*
X105616Y171470D01*
X106058Y170808D01*
X106720Y170366D01*
X107500Y170211D01*
X108280Y170366D01*
X108942Y170808D01*
X109384Y171470D01*
X109539Y172250D01*
X109491Y172492D01*
X110085Y173023D01*
X110587Y173343D01*
X111250Y173211D01*
X112030Y173366D01*
X112692Y173808D01*
X113134Y174470D01*
X113289Y175250D01*
X113134Y176030D01*
X112692Y176692D01*
X112030Y177134D01*
X111250Y177289D01*
D02*
G37*
G36*
X270250Y177789D02*
X269470Y177634D01*
X268808Y177192D01*
X268366Y176530D01*
X268211Y175750D01*
X268366Y174970D01*
X268808Y174308D01*
X269470Y173866D01*
X270250Y173711D01*
X271030Y173866D01*
X271692Y174308D01*
X272134Y174970D01*
X272289Y175750D01*
X272134Y176530D01*
X271692Y177192D01*
X271030Y177634D01*
X270250Y177789D01*
D02*
G37*
G36*
X209750Y177789D02*
X208970Y177634D01*
X208308Y177192D01*
X207866Y176530D01*
X207711Y175750D01*
X207866Y174970D01*
X208308Y174308D01*
X208970Y173866D01*
X209750Y173711D01*
X210530Y173866D01*
X211192Y174308D01*
X211634Y174970D01*
X211789Y175750D01*
X211634Y176530D01*
X211192Y177192D01*
X210530Y177634D01*
X209750Y177789D01*
D02*
G37*
G36*
X193750D02*
X192970Y177634D01*
X192308Y177192D01*
X191866Y176530D01*
X191711Y175750D01*
X191866Y174970D01*
X192308Y174308D01*
X192970Y173866D01*
X193750Y173711D01*
X194530Y173866D01*
X195192Y174308D01*
X195634Y174970D01*
X195789Y175750D01*
X195634Y176530D01*
X195192Y177192D01*
X194530Y177634D01*
X193750Y177789D01*
D02*
G37*
G36*
X229750Y176789D02*
X228970Y176634D01*
X228308Y176192D01*
X227866Y175530D01*
X227711Y174750D01*
X227866Y173970D01*
X228308Y173308D01*
X228970Y172866D01*
X229750Y172711D01*
X230530Y172866D01*
X231192Y173308D01*
X231634Y173970D01*
X231789Y174750D01*
X231634Y175530D01*
X231192Y176192D01*
X230530Y176634D01*
X229750Y176789D01*
D02*
G37*
G36*
X137750Y169789D02*
X136970Y169634D01*
X136308Y169192D01*
X135192D01*
X134530Y169634D01*
X133750Y169789D01*
X132970Y169634D01*
X132308Y169192D01*
X131192D01*
X130530Y169634D01*
X129750Y169789D01*
X128970Y169634D01*
X128308Y169192D01*
X127866Y168530D01*
X127711Y167750D01*
X127866Y166970D01*
X128308Y166308D01*
X128970Y165866D01*
X129750Y165711D01*
X130530Y165866D01*
X131192Y166308D01*
X132308D01*
X132970Y165866D01*
X133750Y165711D01*
X134530Y165866D01*
X135192Y166308D01*
X136308D01*
X136970Y165866D01*
X137750Y165711D01*
X138530Y165866D01*
X139192Y166308D01*
X139634Y166970D01*
X139789Y167750D01*
X139634Y168530D01*
X139192Y169192D01*
X138530Y169634D01*
X137750Y169789D01*
D02*
G37*
G36*
X245750Y176039D02*
X244969Y175884D01*
X244308Y175442D01*
X243866Y174781D01*
X243710Y174000D01*
X243866Y173220D01*
X244180Y172750D01*
X243866Y172280D01*
X243711Y171500D01*
X243866Y170720D01*
X244180Y170250D01*
X243866Y169780D01*
X243711Y169000D01*
X243866Y168220D01*
X244308Y167558D01*
X244970Y167116D01*
X245750Y166961D01*
X246530Y167116D01*
X247192Y167558D01*
X247634Y168220D01*
X247789Y169000D01*
X247634Y169780D01*
X247320Y170250D01*
X247634Y170720D01*
X247789Y171500D01*
X247634Y172280D01*
X247320Y172750D01*
X247634Y173220D01*
X247789Y174000D01*
X247634Y174781D01*
X247192Y175442D01*
X246530Y175884D01*
X245750Y176039D01*
D02*
G37*
G36*
X201750Y169789D02*
X200970Y169634D01*
X200308Y169192D01*
X199866Y168530D01*
X199711Y167750D01*
X199866Y166970D01*
X200308Y166308D01*
X200970Y165866D01*
X201750Y165711D01*
X202530Y165866D01*
X203192Y166308D01*
X203634Y166970D01*
X203789Y167750D01*
X203634Y168530D01*
X203192Y169192D01*
X202530Y169634D01*
X201750Y169789D01*
D02*
G37*
G36*
X153750D02*
X152970Y169634D01*
X152308Y169192D01*
X151866Y168530D01*
X151711Y167750D01*
X151866Y166970D01*
X152308Y166308D01*
X152970Y165866D01*
X153750Y165711D01*
X154530Y165866D01*
X155192Y166308D01*
X155634Y166970D01*
X155789Y167750D01*
X155634Y168530D01*
X155192Y169192D01*
X154530Y169634D01*
X153750Y169789D01*
D02*
G37*
G36*
X229750Y169539D02*
X228970Y169384D01*
X228308Y168942D01*
X227866Y168280D01*
X227711Y167500D01*
X227866Y166719D01*
X228308Y166058D01*
X228970Y165616D01*
X229750Y165461D01*
X230530Y165616D01*
X231192Y166058D01*
X231634Y166719D01*
X231789Y167500D01*
X231634Y168280D01*
X231192Y168942D01*
X230530Y169384D01*
X229750Y169539D01*
D02*
G37*
G36*
X107500Y167289D02*
X106720Y167134D01*
X106058Y166692D01*
X105616Y166030D01*
X105461Y165250D01*
X105616Y164470D01*
X106058Y163808D01*
X106720Y163366D01*
X107500Y163211D01*
X108280Y163366D01*
X108942Y163808D01*
X109384Y164470D01*
X109539Y165250D01*
X109384Y166030D01*
X108942Y166692D01*
X108280Y167134D01*
X107500Y167289D01*
D02*
G37*
G36*
X215250Y166289D02*
X214470Y166134D01*
X213808Y165692D01*
X213366Y165030D01*
X213211Y164250D01*
X213366Y163470D01*
X213808Y162808D01*
X214470Y162366D01*
X215250Y162211D01*
X216030Y162366D01*
X216692Y162808D01*
X217134Y163470D01*
X217289Y164250D01*
X217134Y165030D01*
X216692Y165692D01*
X216030Y166134D01*
X215250Y166289D01*
D02*
G37*
G36*
X169750Y161789D02*
X168970Y161634D01*
X168308Y161192D01*
X167866Y160530D01*
X167711Y159750D01*
X167866Y158970D01*
X168308Y158308D01*
X168970Y157866D01*
X169750Y157711D01*
X170530Y157866D01*
X171192Y158308D01*
X171634Y158970D01*
X171789Y159750D01*
X171634Y160530D01*
X171192Y161192D01*
X170530Y161634D01*
X169750Y161789D01*
D02*
G37*
G36*
X161750D02*
X160970Y161634D01*
X160308Y161192D01*
X159866Y160530D01*
X159711Y159750D01*
X159866Y158970D01*
X160308Y158308D01*
X160970Y157866D01*
X161750Y157711D01*
X162530Y157866D01*
X163192Y158308D01*
X163634Y158970D01*
X163789Y159750D01*
X163634Y160530D01*
X163192Y161192D01*
X162530Y161634D01*
X161750Y161789D01*
D02*
G37*
G36*
X153750D02*
X152970Y161634D01*
X152308Y161192D01*
X151866Y160530D01*
X151711Y159750D01*
X151866Y158970D01*
X152308Y158308D01*
X152970Y157866D01*
X153750Y157711D01*
X154530Y157866D01*
X155192Y158308D01*
X155634Y158970D01*
X155789Y159750D01*
X155634Y160530D01*
X155192Y161192D01*
X154530Y161634D01*
X153750Y161789D01*
D02*
G37*
G36*
X129750D02*
X128970Y161634D01*
X128308Y161192D01*
X127866Y160530D01*
X127711Y159750D01*
X127866Y158970D01*
X128308Y158308D01*
X128970Y157866D01*
X129750Y157711D01*
X130530Y157866D01*
X131192Y158308D01*
X131634Y158970D01*
X131789Y159750D01*
X131634Y160530D01*
X131192Y161192D01*
X130530Y161634D01*
X129750Y161789D01*
D02*
G37*
G36*
X121750D02*
X120970Y161634D01*
X120308Y161192D01*
X119866Y160530D01*
X119711Y159750D01*
X119866Y158970D01*
X120308Y158308D01*
X120970Y157866D01*
X121750Y157711D01*
X122530Y157866D01*
X123192Y158308D01*
X123634Y158970D01*
X123789Y159750D01*
X123634Y160530D01*
X123192Y161192D01*
X122530Y161634D01*
X121750Y161789D01*
D02*
G37*
G36*
X215250Y157789D02*
X214470Y157634D01*
X213808Y157192D01*
X213366Y156530D01*
X213211Y155750D01*
X213366Y154970D01*
X213808Y154308D01*
X214470Y153866D01*
X215250Y153711D01*
X216030Y153866D01*
X216692Y154308D01*
X217134Y154970D01*
X217289Y155750D01*
X217134Y156530D01*
X216692Y157192D01*
X216030Y157634D01*
X215250Y157789D01*
D02*
G37*
G36*
X165750Y154539D02*
X164970Y154384D01*
X164308Y153942D01*
X163962Y153424D01*
X163231Y153276D01*
X162569Y153271D01*
X162450Y153449D01*
X161788Y153891D01*
X161008Y154047D01*
X160228Y153891D01*
X159566Y153449D01*
X159124Y152788D01*
X158969Y152007D01*
X159124Y151227D01*
X159323Y150929D01*
X158646Y149769D01*
X158508Y149796D01*
X157727Y149641D01*
X157066Y149199D01*
X156624Y148538D01*
X156468Y147757D01*
X156624Y146977D01*
X157066Y146315D01*
X157727Y145873D01*
X158508Y145718D01*
X159288Y145873D01*
X159950Y146315D01*
X160392Y146977D01*
X160547Y147757D01*
X160392Y148538D01*
X160193Y148835D01*
X160869Y149996D01*
X161008Y149968D01*
X161788Y150123D01*
X162450Y150566D01*
X162796Y151084D01*
X163527Y151232D01*
X164189Y151237D01*
X164308Y151058D01*
X164970Y150616D01*
X165750Y150461D01*
X166530Y150616D01*
X167192Y151058D01*
X167634Y151720D01*
X167789Y152500D01*
X167634Y153280D01*
X167192Y153942D01*
X166530Y154384D01*
X165750Y154539D01*
D02*
G37*
G36*
X177750Y153789D02*
X176970Y153634D01*
X176308Y153192D01*
X175866Y152530D01*
X175711Y151750D01*
X175866Y150970D01*
X176308Y150308D01*
X176970Y149866D01*
X177750Y149711D01*
X178530Y149866D01*
X179192Y150308D01*
X179634Y150970D01*
X179789Y151750D01*
X179634Y152530D01*
X179192Y153192D01*
X178530Y153634D01*
X177750Y153789D01*
D02*
G37*
G36*
X153750D02*
X152970Y153634D01*
X152308Y153192D01*
X151866Y152530D01*
X151711Y151750D01*
X151866Y150970D01*
X152308Y150308D01*
X152970Y149866D01*
X153750Y149711D01*
X154530Y149866D01*
X155192Y150308D01*
X155634Y150970D01*
X155789Y151750D01*
X155634Y152530D01*
X155192Y153192D01*
X154530Y153634D01*
X153750Y153789D01*
D02*
G37*
G36*
X137750D02*
X136970Y153634D01*
X136308Y153192D01*
X135866Y152530D01*
X135711Y151750D01*
X135866Y150970D01*
X136308Y150308D01*
X136970Y149866D01*
X137750Y149711D01*
X138530Y149866D01*
X139192Y150308D01*
X139634Y150970D01*
X139789Y151750D01*
X139634Y152530D01*
X139192Y153192D01*
X138530Y153634D01*
X137750Y153789D01*
D02*
G37*
G36*
X108000Y151789D02*
X107220Y151634D01*
X106558Y151192D01*
X106116Y150530D01*
X105961Y149750D01*
X106116Y148970D01*
X106558Y148308D01*
X107220Y147866D01*
X108000Y147711D01*
X108780Y147866D01*
X109442Y148308D01*
X109884Y148970D01*
X110039Y149750D01*
X109884Y150530D01*
X109442Y151192D01*
X108780Y151634D01*
X108000Y151789D01*
D02*
G37*
G36*
X270750Y148289D02*
X269970Y148134D01*
X269308Y147692D01*
X268866Y147030D01*
X268711Y146250D01*
X268866Y145470D01*
X269308Y144808D01*
X269970Y144366D01*
X270750Y144211D01*
X271530Y144366D01*
X272192Y144808D01*
X272634Y145470D01*
X272789Y146250D01*
X272634Y147030D01*
X272192Y147692D01*
X271530Y148134D01*
X270750Y148289D01*
D02*
G37*
G36*
X169750Y146539D02*
X168970Y146384D01*
X168308Y145942D01*
X167866Y145280D01*
X167711Y144500D01*
X167866Y143720D01*
X168308Y143058D01*
X168970Y142616D01*
X169750Y142461D01*
X170530Y142616D01*
X171192Y143058D01*
X171634Y143720D01*
X171789Y144500D01*
X171634Y145280D01*
X171192Y145942D01*
X170530Y146384D01*
X169750Y146539D01*
D02*
G37*
G36*
X271500Y141789D02*
X270720Y141634D01*
X270058Y141192D01*
X269664Y140603D01*
X269101Y140530D01*
X268899D01*
X268336Y140603D01*
X267942Y141192D01*
X267280Y141634D01*
X266500Y141789D01*
X265720Y141634D01*
X265058Y141192D01*
X264616Y140530D01*
X264461Y139750D01*
X264616Y138970D01*
X265058Y138308D01*
X265720Y137866D01*
X266500Y137711D01*
X267280Y137866D01*
X267942Y138308D01*
X268336Y138897D01*
X268899Y138970D01*
X269101D01*
X269664Y138897D01*
X270058Y138308D01*
X270720Y137866D01*
X271500Y137711D01*
X272280Y137866D01*
X272942Y138308D01*
X273384Y138970D01*
X273539Y139750D01*
X273384Y140530D01*
X272942Y141192D01*
X272280Y141634D01*
X271500Y141789D01*
D02*
G37*
G36*
X107500Y142289D02*
X106720Y142134D01*
X106058Y141692D01*
X105616Y141030D01*
X105461Y140250D01*
X105616Y139469D01*
X106058Y138808D01*
X106720Y138366D01*
X107500Y138210D01*
X108280Y138366D01*
X108942Y138808D01*
X109384Y139469D01*
X109539Y140250D01*
X109384Y141030D01*
X108942Y141692D01*
X108280Y142134D01*
X107500Y142289D01*
D02*
G37*
G36*
X240000Y141789D02*
X239220Y141634D01*
X238558Y141192D01*
X238116Y140530D01*
X237961Y139750D01*
X238116Y138969D01*
X238558Y138308D01*
X239220Y137866D01*
X240000Y137710D01*
X240780Y137866D01*
X241442Y138308D01*
X241884Y138969D01*
X242039Y139750D01*
X241884Y140530D01*
X241442Y141192D01*
X240780Y141634D01*
X240000Y141789D01*
D02*
G37*
G36*
X232000D02*
X231220Y141634D01*
X230558Y141192D01*
X230116Y140530D01*
X229961Y139750D01*
X230116Y138969D01*
X230558Y138308D01*
X231220Y137866D01*
X232000Y137710D01*
X232780Y137866D01*
X233442Y138308D01*
X233884Y138969D01*
X234039Y139750D01*
X233884Y140530D01*
X233442Y141192D01*
X232780Y141634D01*
X232000Y141789D01*
D02*
G37*
G36*
X271500Y135289D02*
X270720Y135134D01*
X270058Y134692D01*
X269616Y134030D01*
X269461Y133250D01*
X269616Y132470D01*
X270058Y131808D01*
X270720Y131366D01*
X271500Y131211D01*
X272280Y131366D01*
X272942Y131808D01*
X273384Y132470D01*
X273539Y133250D01*
X273384Y134030D01*
X272942Y134692D01*
X272280Y135134D01*
X271500Y135289D01*
D02*
G37*
G36*
X240000Y133789D02*
X239220Y133634D01*
X238558Y133191D01*
X238116Y132530D01*
X237961Y131750D01*
X238116Y130969D01*
X238558Y130308D01*
X239220Y129866D01*
X240000Y129710D01*
X240780Y129866D01*
X241442Y130308D01*
X241884Y130969D01*
X242039Y131750D01*
X241884Y132530D01*
X241442Y133191D01*
X240780Y133634D01*
X240000Y133789D01*
D02*
G37*
G36*
X232000D02*
X231220Y133634D01*
X230558Y133191D01*
X230116Y132530D01*
X229961Y131750D01*
X230116Y130969D01*
X230558Y130308D01*
X231220Y129866D01*
X232000Y129710D01*
X232780Y129866D01*
X233442Y130308D01*
X233884Y130969D01*
X234039Y131750D01*
X233884Y132530D01*
X233442Y133191D01*
X232780Y133634D01*
X232000Y133789D01*
D02*
G37*
G36*
X137750Y129789D02*
X136970Y129634D01*
X136308Y129192D01*
X135866Y128530D01*
X135711Y127750D01*
X135866Y126970D01*
X136308Y126308D01*
X136970Y125866D01*
X137750Y125711D01*
X138530Y125866D01*
X139192Y126308D01*
X139634Y126970D01*
X139789Y127750D01*
X139634Y128530D01*
X139192Y129192D01*
X138530Y129634D01*
X137750Y129789D01*
D02*
G37*
G36*
X201000Y125789D02*
X200220Y125633D01*
X199558Y125191D01*
X199116Y124530D01*
X198961Y123750D01*
X199116Y122969D01*
X199558Y122308D01*
X200220Y121866D01*
X201000Y121710D01*
X201780Y121866D01*
X202442Y122308D01*
X202884Y122969D01*
X203039Y123750D01*
X202884Y124530D01*
X202442Y125191D01*
X201780Y125633D01*
X201000Y125789D01*
D02*
G37*
G36*
X137750Y121789D02*
X136970Y121634D01*
X136308Y121192D01*
X135866Y120530D01*
X135711Y119750D01*
X135866Y118970D01*
X136308Y118308D01*
X136970Y117866D01*
X137750Y117711D01*
X138530Y117866D01*
X139192Y118308D01*
X139634Y118970D01*
X139789Y119750D01*
X139634Y120530D01*
X139192Y121192D01*
X138530Y121634D01*
X137750Y121789D01*
D02*
G37*
G36*
X271500Y113789D02*
X270720Y113634D01*
X270058Y113192D01*
X269664Y112603D01*
X269101Y112530D01*
X268899D01*
X268336Y112603D01*
X267942Y113192D01*
X267280Y113634D01*
X266500Y113789D01*
X265720Y113634D01*
X265058Y113192D01*
X264616Y112530D01*
X264461Y111750D01*
X264616Y110969D01*
X265058Y110308D01*
X265720Y109866D01*
X266500Y109711D01*
X267280Y109866D01*
X267942Y110308D01*
X268336Y110897D01*
X268899Y110969D01*
X269101D01*
X269664Y110897D01*
X270058Y110308D01*
X270720Y109866D01*
X271500Y109711D01*
X272280Y109866D01*
X272942Y110308D01*
X273384Y110969D01*
X273539Y111750D01*
X273384Y112530D01*
X272942Y113192D01*
X272280Y113634D01*
X271500Y113789D01*
D02*
G37*
G36*
X202010Y112545D02*
X201229Y112389D01*
X200568Y111947D01*
X200126Y111286D01*
X199971Y110505D01*
X200126Y109725D01*
X200568Y109064D01*
X201229Y108621D01*
X202010Y108466D01*
X202790Y108621D01*
X203452Y109064D01*
X203894Y109725D01*
X204049Y110505D01*
X203894Y111286D01*
X203452Y111947D01*
X202790Y112389D01*
X202010Y112545D01*
D02*
G37*
G36*
X234000Y112039D02*
X233220Y111884D01*
X232558Y111442D01*
X232116Y110780D01*
X231961Y110000D01*
X232116Y109220D01*
X232558Y108558D01*
X233220Y108116D01*
X234000Y107961D01*
X234780Y108116D01*
X235442Y108558D01*
X235884Y109220D01*
X236039Y110000D01*
X235884Y110780D01*
X235442Y111442D01*
X234780Y111884D01*
X234000Y112039D01*
D02*
G37*
G36*
X271500Y107289D02*
X270720Y107134D01*
X270058Y106692D01*
X269664Y106103D01*
X269101Y106030D01*
X268899D01*
X268336Y106103D01*
X267942Y106692D01*
X267280Y107134D01*
X266500Y107289D01*
X265720Y107134D01*
X265058Y106692D01*
X264616Y106030D01*
X264461Y105250D01*
X264616Y104470D01*
X265058Y103808D01*
X265720Y103366D01*
X266500Y103211D01*
X267280Y103366D01*
X267942Y103808D01*
X268336Y104397D01*
X268899Y104469D01*
X269101D01*
X269664Y104397D01*
X270058Y103808D01*
X270720Y103366D01*
X271500Y103211D01*
X272280Y103366D01*
X272942Y103808D01*
X273384Y104470D01*
X273539Y105250D01*
X273384Y106030D01*
X272942Y106692D01*
X272280Y107134D01*
X271500Y107289D01*
D02*
G37*
G36*
X240000Y108789D02*
X239220Y108633D01*
X238558Y108191D01*
X238116Y107530D01*
X237961Y106749D01*
X238116Y105969D01*
X238558Y105308D01*
X239220Y104866D01*
X240000Y104710D01*
X240780Y104866D01*
X241442Y105308D01*
X241884Y105969D01*
X242039Y106749D01*
X241884Y107530D01*
X241442Y108191D01*
X240780Y108633D01*
X240000Y108789D01*
D02*
G37*
G36*
X257250Y108289D02*
X256470Y108134D01*
X255808Y107692D01*
X255366Y107030D01*
X255211Y106250D01*
X255366Y105470D01*
X255808Y104808D01*
X256470Y104366D01*
X257250Y104211D01*
X258030Y104366D01*
X258692Y104808D01*
X259134Y105470D01*
X259289Y106250D01*
X259134Y107030D01*
X258692Y107692D01*
X258030Y108134D01*
X257250Y108289D01*
D02*
G37*
G36*
X257250Y101789D02*
X256470Y101634D01*
X255808Y101192D01*
X255366Y100530D01*
X255211Y99750D01*
X255366Y98970D01*
X255808Y98308D01*
X256470Y97866D01*
X257250Y97711D01*
X258030Y97866D01*
X258692Y98308D01*
X259134Y98970D01*
X259289Y99750D01*
X259134Y100530D01*
X258692Y101192D01*
X258030Y101634D01*
X257250Y101789D01*
D02*
G37*
G36*
X266500Y100789D02*
X265720Y100634D01*
X265058Y100192D01*
X264616Y99530D01*
X264461Y98750D01*
X264616Y97970D01*
X265058Y97308D01*
X265720Y96866D01*
X266500Y96711D01*
X267280Y96866D01*
X267942Y97308D01*
X268384Y97970D01*
X268539Y98750D01*
X268384Y99530D01*
X267942Y100192D01*
X267280Y100634D01*
X266500Y100789D01*
D02*
G37*
G36*
X245012Y97794D02*
X244232Y97639D01*
X243570Y97197D01*
X243128Y96535D01*
X242973Y95755D01*
X243128Y94974D01*
X243570Y94313D01*
X244232Y93871D01*
X245012Y93715D01*
X245792Y93871D01*
X246454Y94313D01*
X246896Y94974D01*
X247051Y95755D01*
X246896Y96535D01*
X246454Y97197D01*
X245792Y97639D01*
X245012Y97794D01*
D02*
G37*
G36*
X257250Y95289D02*
X256470Y95134D01*
X255808Y94692D01*
X255366Y94030D01*
X255211Y93250D01*
X255366Y92470D01*
X255808Y91808D01*
X256470Y91366D01*
X257250Y91211D01*
X258030Y91366D01*
X258692Y91808D01*
X259134Y92470D01*
X259289Y93250D01*
X259134Y94030D01*
X258692Y94692D01*
X258030Y95134D01*
X257250Y95289D01*
D02*
G37*
G36*
X266500Y94289D02*
X265720Y94134D01*
X265058Y93692D01*
X264616Y93030D01*
X264461Y92250D01*
X264616Y91469D01*
X265058Y90808D01*
X265720Y90366D01*
X266500Y90211D01*
X267280Y90366D01*
X267942Y90808D01*
X268384Y91469D01*
X268539Y92250D01*
X268384Y93030D01*
X267942Y93692D01*
X267280Y94134D01*
X266500Y94289D01*
D02*
G37*
G36*
X250250Y89195D02*
X249470Y89040D01*
X248808Y88598D01*
X248366Y87937D01*
X248211Y87156D01*
X248366Y86376D01*
X248808Y85714D01*
X249470Y85272D01*
X250250Y85117D01*
X251030Y85272D01*
X251692Y85714D01*
X252134Y86376D01*
X252289Y87156D01*
X252134Y87937D01*
X251692Y88598D01*
X251030Y89040D01*
X250250Y89195D01*
D02*
G37*
G36*
X266500Y87789D02*
X265720Y87634D01*
X265058Y87192D01*
X264616Y86530D01*
X264461Y85750D01*
X264616Y84970D01*
X265058Y84308D01*
X265720Y83866D01*
X266500Y83711D01*
X267280Y83866D01*
X267942Y84308D01*
X268384Y84970D01*
X268539Y85750D01*
X268384Y86530D01*
X267942Y87192D01*
X267280Y87634D01*
X266500Y87789D01*
D02*
G37*
G36*
X217000Y80039D02*
X216220Y79884D01*
X215558Y79442D01*
X215116Y78780D01*
X214961Y78000D01*
X215116Y77220D01*
X215558Y76558D01*
X216220Y76116D01*
X217000Y75961D01*
X217780Y76116D01*
X218442Y76558D01*
X218884Y77220D01*
X219039Y78000D01*
X218884Y78780D01*
X218442Y79442D01*
X217780Y79884D01*
X217000Y80039D01*
D02*
G37*
G36*
X126700Y83728D02*
X125139Y83418D01*
X123816Y82534D01*
X122932Y81211D01*
X122622Y79650D01*
X122932Y78089D01*
X123816Y76766D01*
X125139Y75882D01*
X126700Y75572D01*
X128261Y75882D01*
X129584Y76766D01*
X130468Y78089D01*
X130778Y79650D01*
X130468Y81211D01*
X129584Y82534D01*
X128261Y83418D01*
X126700Y83728D01*
D02*
G37*
G36*
X176250Y82578D02*
X174689Y82268D01*
X173366Y81384D01*
X172482Y80061D01*
X172172Y78500D01*
X172482Y76939D01*
X173366Y75616D01*
X174689Y74732D01*
X176250Y74422D01*
X177811Y74732D01*
X179134Y75616D01*
X180018Y76939D01*
X180328Y78500D01*
X180018Y80061D01*
X179134Y81384D01*
X177811Y82268D01*
X176250Y82578D01*
D02*
G37*
G36*
X232000Y77789D02*
X231220Y77634D01*
X230558Y77192D01*
X230116Y76530D01*
X229961Y75750D01*
X230116Y74969D01*
X230558Y74308D01*
X231220Y73866D01*
X232000Y73710D01*
X232780Y73866D01*
X233442Y74308D01*
X233884Y74969D01*
X234039Y75750D01*
X233884Y76530D01*
X233442Y77192D01*
X232780Y77634D01*
X232000Y77789D01*
D02*
G37*
G36*
X199010Y76793D02*
X198229Y76638D01*
X197568Y76196D01*
X197126Y75534D01*
X196971Y74754D01*
X197126Y73973D01*
X197568Y73312D01*
X198229Y72870D01*
X199010Y72715D01*
X199790Y72870D01*
X200452Y73312D01*
X200894Y73973D01*
X201049Y74754D01*
X200894Y75534D01*
X200452Y76196D01*
X199790Y76638D01*
X199010Y76793D01*
D02*
G37*
G36*
X190500Y72539D02*
X189720Y72384D01*
X189058Y71942D01*
X188616Y71280D01*
X188461Y70500D01*
X188616Y69720D01*
X189058Y69058D01*
X189720Y68616D01*
X190500Y68461D01*
X191280Y68616D01*
X191942Y69058D01*
X192384Y69720D01*
X192539Y70500D01*
X192384Y71280D01*
X191942Y71942D01*
X191280Y72384D01*
X190500Y72539D01*
D02*
G37*
G36*
X259000Y74059D02*
X257829Y73826D01*
X256837Y73163D01*
X256174Y72171D01*
X255941Y71000D01*
X256174Y69830D01*
X256837Y68837D01*
X257829Y68174D01*
X259000Y67941D01*
X260170Y68174D01*
X261163Y68837D01*
X261826Y69830D01*
X262059Y71000D01*
X261826Y72171D01*
X261163Y73163D01*
X260170Y73826D01*
X259000Y74059D01*
D02*
G37*
G36*
X219500Y72309D02*
X218330Y72076D01*
X217337Y71413D01*
X216674Y70420D01*
X216441Y69250D01*
X216674Y68080D01*
X217337Y67087D01*
X218330Y66424D01*
X219500Y66191D01*
X220671Y66424D01*
X221663Y67087D01*
X222326Y68080D01*
X222559Y69250D01*
X222326Y70420D01*
X221663Y71413D01*
X220671Y72076D01*
X219500Y72309D01*
D02*
G37*
G36*
X237750Y63789D02*
X236970Y63634D01*
X236308Y63192D01*
X235692D01*
X235030Y63634D01*
X234250Y63789D01*
X233470Y63634D01*
X232808Y63192D01*
X232366Y62530D01*
X232211Y61750D01*
X232366Y60970D01*
X232808Y60308D01*
X233470Y59866D01*
X234250Y59711D01*
X235030Y59866D01*
X235692Y60308D01*
X236308D01*
X236970Y59866D01*
X237750Y59711D01*
X238530Y59866D01*
X239192Y60308D01*
X239634Y60970D01*
X239789Y61750D01*
X239634Y62530D01*
X239192Y63192D01*
X238530Y63634D01*
X237750Y63789D01*
D02*
G37*
G36*
X243500Y59289D02*
X242720Y59134D01*
X242058Y58692D01*
X241616Y58030D01*
X241461Y57250D01*
X241616Y56470D01*
X242058Y55808D01*
X242720Y55366D01*
X243500Y55211D01*
X244280Y55366D01*
X244942Y55808D01*
X245384Y56470D01*
X245539Y57250D01*
X245384Y58030D01*
X244942Y58692D01*
X244280Y59134D01*
X243500Y59289D01*
D02*
G37*
G36*
X14250Y273039D02*
X13470Y272884D01*
X12808Y272442D01*
X12366Y271780D01*
X12211Y271000D01*
X12366Y270220D01*
X12808Y269558D01*
X13470Y269116D01*
X14250Y268961D01*
X15030Y269116D01*
X15692Y269558D01*
X16134Y270220D01*
X16289Y271000D01*
X16134Y271780D01*
X15692Y272442D01*
X15030Y272884D01*
X14250Y273039D01*
D02*
G37*
G36*
X74670Y266189D02*
X73890Y266034D01*
X73228Y265592D01*
X72834Y265003D01*
X72271Y264930D01*
X72069D01*
X71505Y265003D01*
X71112Y265592D01*
X70450Y266034D01*
X69670Y266189D01*
X68890Y266034D01*
X68228Y265592D01*
X67786Y264930D01*
X67631Y264150D01*
X67786Y263370D01*
X68228Y262708D01*
X68890Y262266D01*
X69670Y262111D01*
X70450Y262266D01*
X71112Y262708D01*
X71505Y263297D01*
X72069Y263370D01*
X72271D01*
X72834Y263297D01*
X73228Y262708D01*
X73890Y262266D01*
X74670Y262111D01*
X75450Y262266D01*
X76112Y262708D01*
X76554Y263370D01*
X76709Y264150D01*
X76554Y264930D01*
X76112Y265592D01*
X75450Y266034D01*
X74670Y266189D01*
D02*
G37*
G36*
X59670D02*
X58890Y266034D01*
X58228Y265592D01*
X57834Y265003D01*
X57271Y264930D01*
X57069D01*
X56506Y265003D01*
X56112Y265592D01*
X55450Y266034D01*
X54670Y266189D01*
X53890Y266034D01*
X53228Y265592D01*
X52834Y265003D01*
X52271Y264930D01*
X52069D01*
X51505Y265003D01*
X51112Y265592D01*
X50450Y266034D01*
X49670Y266189D01*
X48890Y266034D01*
X48228Y265592D01*
X47834Y265003D01*
X47271Y264930D01*
X47069D01*
X46505Y265003D01*
X46112Y265592D01*
X45450Y266034D01*
X44670Y266189D01*
X43890Y266034D01*
X43228Y265592D01*
X42834Y265003D01*
X42271Y264930D01*
X42069D01*
X41506Y265003D01*
X41112Y265592D01*
X40450Y266034D01*
X39670Y266189D01*
X38890Y266034D01*
X38228Y265592D01*
X37786Y264930D01*
X37631Y264150D01*
X37786Y263370D01*
X38228Y262708D01*
X38890Y262266D01*
X39670Y262111D01*
X40450Y262266D01*
X41112Y262708D01*
X41506Y263297D01*
X42069Y263370D01*
X42271D01*
X42834Y263297D01*
X43228Y262708D01*
X43890Y262266D01*
X44670Y262111D01*
X45450Y262266D01*
X46112Y262708D01*
X46505Y263297D01*
X47069Y263370D01*
X47271D01*
X47834Y263297D01*
X48228Y262708D01*
X48890Y262266D01*
X49670Y262111D01*
X50450Y262266D01*
X51112Y262708D01*
X51506Y263297D01*
X52069Y263370D01*
X52271D01*
X52834Y263297D01*
X53228Y262708D01*
X53890Y262266D01*
X54670Y262111D01*
X55450Y262266D01*
X56112Y262708D01*
X56506Y263297D01*
X57069Y263370D01*
X57271D01*
X57834Y263297D01*
X58228Y262708D01*
X58890Y262266D01*
X59670Y262111D01*
X60450Y262266D01*
X61112Y262708D01*
X61554Y263370D01*
X61709Y264150D01*
X61554Y264930D01*
X61112Y265592D01*
X60450Y266034D01*
X59670Y266189D01*
D02*
G37*
G36*
X25000Y268809D02*
X23830Y268576D01*
X22837Y267913D01*
X22174Y266921D01*
X21941Y265750D01*
X22174Y264580D01*
X22837Y263587D01*
X23830Y262924D01*
X25000Y262691D01*
X26170Y262924D01*
X27163Y263587D01*
X27826Y264580D01*
X28059Y265750D01*
X27826Y266921D01*
X27163Y267913D01*
X26170Y268576D01*
X25000Y268809D01*
D02*
G37*
G36*
X20500Y239539D02*
X19720Y239384D01*
X19058Y238942D01*
X18616Y238280D01*
X18461Y237500D01*
X18616Y236720D01*
X19058Y236058D01*
X19720Y235616D01*
X20500Y235461D01*
X21280Y235616D01*
X21942Y236058D01*
X22384Y236720D01*
X22539Y237500D01*
X22384Y238280D01*
X21942Y238942D01*
X21280Y239384D01*
X20500Y239539D01*
D02*
G37*
G36*
X32170Y233689D02*
X31390Y233534D01*
X30728Y233092D01*
X30286Y232430D01*
X30131Y231650D01*
X30286Y230870D01*
X30728Y230208D01*
X31390Y229766D01*
X32170Y229611D01*
X32950Y229766D01*
X33612Y230208D01*
X34054Y230870D01*
X34209Y231650D01*
X34054Y232430D01*
X33612Y233092D01*
X32950Y233534D01*
X32170Y233689D01*
D02*
G37*
G36*
X20500Y214539D02*
X19720Y214384D01*
X19058Y213942D01*
X18616Y213280D01*
X18461Y212500D01*
X18616Y211719D01*
X19058Y211058D01*
X19720Y210616D01*
X20500Y210460D01*
X21280Y210616D01*
X21942Y211058D01*
X22384Y211719D01*
X22539Y212500D01*
X22384Y213280D01*
X21942Y213942D01*
X21280Y214384D01*
X20500Y214539D01*
D02*
G37*
G36*
X14500Y207039D02*
X13720Y206884D01*
X13058Y206442D01*
X12616Y205780D01*
X12461Y205000D01*
X12616Y204220D01*
X13058Y203558D01*
X13187Y203472D01*
X13507Y202368D01*
X13383Y201930D01*
X13116Y201530D01*
X12961Y200750D01*
X13116Y199970D01*
X13558Y199308D01*
X14220Y198866D01*
X15000Y198711D01*
X15780Y198866D01*
X16442Y199308D01*
X16884Y199970D01*
X17039Y200750D01*
X16884Y201530D01*
X16442Y202192D01*
X16313Y202278D01*
X15993Y203382D01*
X16117Y203820D01*
X16384Y204220D01*
X16539Y205000D01*
X16384Y205780D01*
X15942Y206442D01*
X15280Y206884D01*
X14500Y207039D01*
D02*
G37*
G36*
X83000Y169289D02*
X82220Y169134D01*
X81558Y168692D01*
X81116Y168031D01*
X80961Y167250D01*
X81116Y166470D01*
X81558Y165808D01*
X82220Y165366D01*
X83000Y165211D01*
X83780Y165366D01*
X84442Y165808D01*
X84884Y166470D01*
X85039Y167250D01*
X84884Y168031D01*
X84442Y168692D01*
X83780Y169134D01*
X83000Y169289D01*
D02*
G37*
G36*
X20250Y164289D02*
X19470Y164134D01*
X18808Y163692D01*
X18366Y163030D01*
X18211Y162250D01*
X18366Y161470D01*
X18808Y160808D01*
X19470Y160366D01*
X20250Y160211D01*
X21030Y160366D01*
X21692Y160808D01*
X22134Y161470D01*
X22289Y162250D01*
X22134Y163030D01*
X21692Y163692D01*
X21030Y164134D01*
X20250Y164289D01*
D02*
G37*
G36*
X15500Y155790D02*
X14720Y155634D01*
X14058Y155192D01*
X13616Y154531D01*
X13461Y153750D01*
X13616Y152970D01*
X14058Y152309D01*
X14720Y151867D01*
X15500Y151711D01*
X16280Y151867D01*
X16942Y152309D01*
X17384Y152970D01*
X17539Y153750D01*
X17384Y154531D01*
X16942Y155192D01*
X16280Y155634D01*
X15500Y155790D01*
D02*
G37*
G36*
X26900Y137289D02*
X26120Y137134D01*
X25458Y136692D01*
X25016Y136030D01*
X24861Y135250D01*
X25016Y134470D01*
X25458Y133808D01*
X26120Y133366D01*
X26900Y133211D01*
X27680Y133366D01*
X28342Y133808D01*
X28784Y134470D01*
X28939Y135250D01*
X28784Y136030D01*
X28342Y136692D01*
X27680Y137134D01*
X26900Y137289D01*
D02*
G37*
G36*
X15500Y130040D02*
X14720Y129884D01*
X14058Y129442D01*
X13616Y128781D01*
X13461Y128000D01*
X13616Y127220D01*
X14058Y126558D01*
X14720Y126116D01*
X15500Y125961D01*
X16280Y126116D01*
X16567Y126308D01*
X16641Y126357D01*
X17475Y125650D01*
X17605Y125474D01*
X17461Y124750D01*
X17616Y123970D01*
X18058Y123308D01*
X18720Y122866D01*
X19500Y122711D01*
X20280Y122866D01*
X20942Y123308D01*
X21384Y123970D01*
X21539Y124750D01*
X21384Y125530D01*
X20942Y126192D01*
X20280Y126634D01*
X19500Y126789D01*
X18720Y126634D01*
X18433Y126442D01*
X18359Y126393D01*
X17525Y127101D01*
X17395Y127277D01*
X17539Y128000D01*
X17384Y128781D01*
X16942Y129442D01*
X16280Y129884D01*
X15500Y130040D01*
D02*
G37*
G36*
X17300Y82578D02*
X15739Y82268D01*
X14416Y81384D01*
X13532Y80061D01*
X13222Y78500D01*
X13532Y76939D01*
X14416Y75616D01*
X15739Y74732D01*
X17300Y74422D01*
X18861Y74732D01*
X20184Y75616D01*
X21068Y76939D01*
X21379Y78500D01*
X21068Y80061D01*
X20184Y81384D01*
X18861Y82268D01*
X17300Y82578D01*
D02*
G37*
G36*
X17300Y69117D02*
X14959Y68652D01*
X12974Y67326D01*
X11648Y65341D01*
X11183Y63000D01*
X11648Y60659D01*
X12974Y58674D01*
X14959Y57348D01*
X17300Y56882D01*
X19641Y57348D01*
X21626Y58674D01*
X22952Y60659D01*
X23418Y63000D01*
X22952Y65341D01*
X21626Y67326D01*
X19641Y68652D01*
X17300Y69117D01*
D02*
G37*
G36*
X37800Y45628D02*
X36239Y45318D01*
X34916Y44434D01*
X34032Y43111D01*
X33722Y41550D01*
X34032Y39989D01*
X34916Y38666D01*
X36239Y37782D01*
X37800Y37472D01*
X39361Y37782D01*
X40684Y38666D01*
X41568Y39989D01*
X41878Y41550D01*
X41568Y43111D01*
X40684Y44434D01*
X39361Y45318D01*
X37800Y45628D01*
D02*
G37*
G36*
X89750Y11289D02*
X88970Y11134D01*
X88308Y10692D01*
X87866Y10030D01*
X87711Y9250D01*
X87866Y8470D01*
X88308Y7808D01*
X88970Y7366D01*
X89750Y7211D01*
X90530Y7366D01*
X91192Y7808D01*
X91634Y8470D01*
X91789Y9250D01*
X91634Y10030D01*
X91192Y10692D01*
X90530Y11134D01*
X89750Y11289D01*
D02*
G37*
G36*
X126000Y11289D02*
X125220Y11134D01*
X124558Y10692D01*
X124116Y10030D01*
X123961Y9250D01*
X124116Y8470D01*
X124558Y7808D01*
X125220Y7366D01*
X126000Y7211D01*
X126780Y7366D01*
X127442Y7808D01*
X127884Y8470D01*
X128039Y9250D01*
X127884Y10030D01*
X127442Y10692D01*
X126780Y11134D01*
X126000Y11289D01*
D02*
G37*
G36*
X88600Y83728D02*
X87039Y83418D01*
X85716Y82534D01*
X84832Y81211D01*
X84522Y79650D01*
X84832Y78089D01*
X85716Y76766D01*
X87039Y75882D01*
X88600Y75572D01*
X90161Y75882D01*
X91484Y76766D01*
X92368Y78089D01*
X92678Y79650D01*
X92368Y81211D01*
X91484Y82534D01*
X90161Y83418D01*
X88600Y83728D01*
D02*
G37*
G36*
X95050Y71539D02*
X94270Y71384D01*
X93608Y70942D01*
X93166Y70280D01*
X93011Y69500D01*
X93166Y68720D01*
X93608Y68058D01*
X94270Y67616D01*
X95050Y67461D01*
X95830Y67616D01*
X96492Y68058D01*
X96934Y68720D01*
X97089Y69500D01*
X96934Y70280D01*
X96492Y70942D01*
X95830Y71384D01*
X95050Y71539D01*
D02*
G37*
%LPD*%
D33*
X16200Y-6500D02*
X21900D01*
X28900D02*
X34600D01*
X41600D02*
X47300D01*
X54300D02*
X60000D01*
X67000D02*
X72700D01*
X79700D02*
X85400D01*
X92400D02*
X98100D01*
X105100D02*
X110800D01*
X117800D02*
X123500D01*
X130500D02*
X136200D01*
X143200D02*
X148900D01*
X155900D02*
X161600D01*
X168600D02*
X174300D01*
X181300D02*
X187000D01*
X194000D02*
X199700D01*
X206700D02*
X212400D01*
X219400D02*
X225100D01*
X231846D02*
X237546D01*
X244546D02*
X250246D01*
X257246D02*
X262946D01*
X285900Y257246D02*
Y262946D01*
X285900Y250246D02*
X285900Y244546D01*
Y231846D02*
Y237546D01*
Y219400D02*
Y225100D01*
X285900Y212400D02*
X285900Y206700D01*
Y194000D02*
Y199700D01*
Y181300D02*
Y187000D01*
X285900Y168600D02*
X285900Y174300D01*
Y155900D02*
Y161600D01*
X285900Y148900D02*
X285900Y143200D01*
Y130500D02*
Y136200D01*
Y117800D02*
Y123500D01*
X285900Y105100D02*
X285900Y110800D01*
Y92400D02*
Y98100D01*
X285900Y85400D02*
X285900Y79700D01*
Y67000D02*
Y72700D01*
Y54300D02*
Y60000D01*
X285900Y41600D02*
Y47300D01*
X285900Y28900D02*
Y34600D01*
X285900Y21900D02*
X285900Y16200D01*
X16454Y285900D02*
X22154D01*
X29154Y285900D02*
X34854Y285900D01*
X41854D02*
X47554D01*
X54300D02*
X60000D01*
X67000Y285900D02*
X72700Y285900D01*
X79700D02*
X85400D01*
X92400D02*
X98100D01*
X105100D02*
X110800Y285900D01*
X117800Y285900D02*
X123500D01*
X130500Y285900D02*
X136200Y285900D01*
X143200D02*
X148900D01*
X155900D02*
X161600D01*
X168600D02*
X174300Y285900D01*
X181300Y285900D02*
X187000D01*
X194000Y285900D02*
X199700Y285900D01*
X206700D02*
X212400D01*
X219400D02*
X225100D01*
X232100Y285900D02*
X237800D01*
X244800Y285900D02*
X250500D01*
X257500Y285900D02*
X263200Y285900D01*
X-6500Y16454D02*
Y22154D01*
Y34854D02*
X-6500Y29154D01*
X-6500Y41854D02*
Y47554D01*
Y54300D02*
Y60000D01*
Y72700D02*
X-6500Y67000D01*
X-6500Y79700D02*
Y85400D01*
Y92400D02*
Y98100D01*
Y105100D02*
X-6500Y110800D01*
X-6500Y117800D02*
Y123500D01*
Y136200D02*
X-6500Y130500D01*
X-6500Y143200D02*
Y148900D01*
Y155900D02*
Y161600D01*
Y168600D02*
X-6500Y174300D01*
X-6500Y181300D02*
Y187000D01*
Y199700D02*
X-6500Y194000D01*
X-6500Y206700D02*
Y212400D01*
Y219400D02*
Y225100D01*
X-6500Y232100D02*
Y237800D01*
X-6500Y244800D02*
Y250500D01*
Y263200D02*
X-6500Y257500D01*
X-6500Y269946D02*
Y285900D01*
X9454D01*
X285900Y269946D02*
Y285900D01*
X269946D02*
X285900D01*
X269946Y-6500D02*
X285900D01*
Y9454D01*
X-6500D02*
X9454Y-6500D01*
X-11176Y137160D02*
Y142240D01*
X-10470Y142946D02*
X-6500D01*
X-10470Y136454D02*
X-6500D01*
X-11176Y142240D02*
X-10470Y142946D01*
X-11176Y137160D02*
X-10470Y136454D01*
X-11176Y124460D02*
Y129540D01*
X-10470Y130246D02*
X-6500D01*
X-10470Y123754D02*
X-6500D01*
X-11176Y129540D02*
X-10470Y130246D01*
X-11176Y124460D02*
X-10470Y123754D01*
X-11176Y111760D02*
Y116840D01*
X-10470Y117546D02*
X-6500D01*
X-10470Y111054D02*
X-6500D01*
X-11176Y116840D02*
X-10470Y117546D01*
X-11176Y111760D02*
X-10470Y111054D01*
X-11176Y99060D02*
Y104140D01*
X-10470Y104846D02*
X-6500D01*
X-10470Y98354D02*
X-6500D01*
X-11176Y104140D02*
X-10470Y104846D01*
X-11176Y99060D02*
X-10470Y98354D01*
X-11176Y86360D02*
Y91440D01*
X-10470Y92146D02*
X-6500D01*
X-10470Y85654D02*
X-6500D01*
X-11176Y91440D02*
X-10470Y92146D01*
X-11176Y86360D02*
X-10470Y85654D01*
X-11176Y73660D02*
Y78740D01*
X-10470Y79446D02*
X-6500D01*
X-10470Y72954D02*
X-6500D01*
X-11176Y78740D02*
X-10470Y79446D01*
X-11176Y73660D02*
X-10470Y72954D01*
X-11176Y60960D02*
Y66040D01*
X-10470Y66746D02*
X-6500D01*
X-10470Y60254D02*
X-6500D01*
X-11176Y66040D02*
X-10470Y66746D01*
X-11176Y60960D02*
X-10470Y60254D01*
X-11176Y48260D02*
Y53340D01*
X-10470Y54046D02*
X-6500D01*
X-10470Y47554D02*
X-6500D01*
X-11176Y53340D02*
X-10470Y54046D01*
X-11176Y48260D02*
X-10470Y47554D01*
X-11176Y35560D02*
Y40640D01*
X-10470Y41346D02*
X-6500D01*
X-10470Y34854D02*
X-6500D01*
X-11176Y40640D02*
X-10470Y41346D01*
X-11176Y35560D02*
X-10470Y34854D01*
X-11176Y22860D02*
Y27940D01*
X-10470Y28646D02*
X-6500D01*
X-10470Y22154D02*
X-6500D01*
X-11176Y27940D02*
X-10470Y28646D01*
X-11176Y22860D02*
X-10470Y22154D01*
X-11176Y10160D02*
Y15240D01*
X-10470Y15946D02*
X-6500D01*
X-10470Y9454D02*
X-6500D01*
X-11176Y15240D02*
X-10470Y15946D01*
X-11176Y10160D02*
X-10470Y9454D01*
X10160Y-11176D02*
X15240D01*
X9454Y-10470D02*
Y-6500D01*
X15946Y-10470D02*
Y-6500D01*
X9454Y-10470D02*
X10160Y-11176D01*
X15240D02*
X15946Y-10470D01*
X22860Y-11176D02*
X27940D01*
X22154Y-10470D02*
Y-6500D01*
X28646Y-10470D02*
Y-6500D01*
X22154Y-10470D02*
X22860Y-11176D01*
X27940D02*
X28646Y-10470D01*
X35560Y-11176D02*
X40640D01*
X34854Y-10470D02*
Y-6500D01*
X41346Y-10470D02*
Y-6500D01*
X34854Y-10470D02*
X35560Y-11176D01*
X40640D02*
X41346Y-10470D01*
X48260Y-11176D02*
X53340D01*
X47554Y-10470D02*
Y-6500D01*
X54046Y-10470D02*
Y-6500D01*
X47554Y-10470D02*
X48260Y-11176D01*
X53340D02*
X54046Y-10470D01*
X60960Y-11176D02*
X66040D01*
X60254Y-10470D02*
Y-6500D01*
X66746Y-10470D02*
Y-6500D01*
X60254Y-10470D02*
X60960Y-11176D01*
X66040D02*
X66746Y-10470D01*
X73660Y-11176D02*
X78740D01*
X72954Y-10470D02*
Y-6500D01*
X79446Y-10470D02*
Y-6500D01*
X72954Y-10470D02*
X73660Y-11176D01*
X78740D02*
X79446Y-10470D01*
X86360Y-11176D02*
X91440D01*
X85654Y-10470D02*
Y-6500D01*
X92146Y-10470D02*
Y-6500D01*
X85654Y-10470D02*
X86360Y-11176D01*
X91440D02*
X92146Y-10470D01*
X99060Y-11176D02*
X104140D01*
X98354Y-10470D02*
Y-6500D01*
X104846Y-10470D02*
Y-6500D01*
X98354Y-10470D02*
X99060Y-11176D01*
X104140D02*
X104846Y-10470D01*
X111760Y-11176D02*
X116840D01*
X111054Y-10470D02*
Y-6500D01*
X117546Y-10470D02*
Y-6500D01*
X111054Y-10470D02*
X111760Y-11176D01*
X116840D02*
X117546Y-10470D01*
X124460Y-11176D02*
X129540D01*
X123754Y-10470D02*
Y-6500D01*
X130246Y-10470D02*
Y-6500D01*
X123754Y-10470D02*
X124460Y-11176D01*
X129540D02*
X130246Y-10470D01*
X137160Y-11176D02*
X142240D01*
X136454Y-10470D02*
Y-6500D01*
X142946Y-10470D02*
Y-6500D01*
X136454Y-10470D02*
X137160Y-11176D01*
X142240D02*
X142946Y-10470D01*
X149860Y-11176D02*
X154940D01*
X149154Y-10470D02*
Y-6500D01*
X155646Y-10470D02*
Y-6500D01*
X149154Y-10470D02*
X149860Y-11176D01*
X154940D02*
X155646Y-10470D01*
X162560Y-11176D02*
X167640D01*
X161854Y-10470D02*
Y-6500D01*
X168346Y-10470D02*
Y-6500D01*
X161854Y-10470D02*
X162560Y-11176D01*
X167640D02*
X168346Y-10470D01*
X175260Y-11176D02*
X180340D01*
X174554Y-10470D02*
Y-6500D01*
X181046Y-10470D02*
Y-6500D01*
X174554Y-10470D02*
X175260Y-11176D01*
X180340D02*
X181046Y-10470D01*
X187960Y-11176D02*
X193040D01*
X187254Y-10470D02*
Y-6500D01*
X193746Y-10470D02*
Y-6500D01*
X187254Y-10470D02*
X187960Y-11176D01*
X193040D02*
X193746Y-10470D01*
X200660Y-11176D02*
X205740D01*
X199954Y-10470D02*
Y-6500D01*
X206446Y-10470D02*
Y-6500D01*
X199954Y-10470D02*
X200660Y-11176D01*
X205740D02*
X206446Y-10470D01*
X213360Y-11176D02*
X218440D01*
X212654Y-10470D02*
Y-6500D01*
X219146Y-10470D02*
Y-6500D01*
X212654Y-10470D02*
X213360Y-11176D01*
X218440D02*
X219146Y-10470D01*
X226060Y-11176D02*
X231140D01*
X225354Y-10470D02*
Y-6500D01*
X231846Y-10470D02*
Y-6500D01*
X225354Y-10470D02*
X226060Y-11176D01*
X231140D02*
X231846Y-10470D01*
X238760Y-11176D02*
X243840D01*
X238054Y-10470D02*
Y-6500D01*
X244546Y-10470D02*
Y-6500D01*
X238054Y-10470D02*
X238760Y-11176D01*
X243840D02*
X244546Y-10470D01*
X251460Y-11176D02*
X256540D01*
X250754Y-10470D02*
Y-6500D01*
X257246Y-10470D02*
Y-6500D01*
X250754Y-10470D02*
X251460Y-11176D01*
X256540D02*
X257246Y-10470D01*
X264160Y-11176D02*
X269240D01*
X263454Y-10470D02*
Y-6500D01*
X269946Y-10470D02*
Y-6500D01*
X263454Y-10470D02*
X264160Y-11176D01*
X269240D02*
X269946Y-10470D01*
X290576Y10160D02*
Y15240D01*
X285900Y9454D02*
X289870D01*
X285900Y15946D02*
X289870D01*
Y9454D02*
X290576Y10160D01*
X289870Y15946D02*
X290576Y15240D01*
Y22860D02*
Y27940D01*
X285900Y22154D02*
X289870D01*
X285900Y28646D02*
X289870D01*
Y22154D02*
X290576Y22860D01*
X289870Y28646D02*
X290576Y27940D01*
Y35560D02*
Y40640D01*
X285900Y34854D02*
X289870D01*
X285900Y41346D02*
X289870D01*
Y34854D02*
X290576Y35560D01*
X289870Y41346D02*
X290576Y40640D01*
Y48260D02*
Y53340D01*
X285900Y47554D02*
X289870D01*
X285900Y54046D02*
X289870D01*
Y47554D02*
X290576Y48260D01*
X289870Y54046D02*
X290576Y53340D01*
Y60960D02*
Y66040D01*
X285900Y60254D02*
X289870D01*
X285900Y66746D02*
X289870D01*
Y60254D02*
X290576Y60960D01*
X289870Y66746D02*
X290576Y66040D01*
Y73660D02*
Y78740D01*
X285900Y72954D02*
X289870D01*
X285900Y79446D02*
X289870D01*
Y72954D02*
X290576Y73660D01*
X289870Y79446D02*
X290576Y78740D01*
Y86360D02*
Y91440D01*
X285900Y85654D02*
X289870D01*
X285900Y92146D02*
X289870D01*
Y85654D02*
X290576Y86360D01*
X289870Y92146D02*
X290576Y91440D01*
Y99060D02*
Y104140D01*
X285900Y98354D02*
X289870D01*
X285900Y104846D02*
X289870D01*
Y98354D02*
X290576Y99060D01*
X289870Y104846D02*
X290576Y104140D01*
Y111760D02*
Y116840D01*
X285900Y111054D02*
X289870D01*
X285900Y117546D02*
X289870D01*
Y111054D02*
X290576Y111760D01*
X289870Y117546D02*
X290576Y116840D01*
Y124460D02*
Y129540D01*
X285900Y123754D02*
X289870D01*
X285900Y130246D02*
X289870D01*
Y123754D02*
X290576Y124460D01*
X289870Y130246D02*
X290576Y129540D01*
Y137160D02*
Y142240D01*
X285900Y136454D02*
X289870D01*
X285900Y142946D02*
X289870D01*
Y136454D02*
X290576Y137160D01*
X289870Y142946D02*
X290576Y142240D01*
Y149860D02*
Y154940D01*
X285900Y149154D02*
X289870D01*
X285900Y155646D02*
X289870D01*
Y149154D02*
X290576Y149860D01*
X289870Y155646D02*
X290576Y154940D01*
Y162560D02*
Y167640D01*
X285900Y161854D02*
X289870D01*
X285900Y168346D02*
X289870D01*
Y161854D02*
X290576Y162560D01*
X289870Y168346D02*
X290576Y167640D01*
Y175260D02*
Y180340D01*
X285900Y174554D02*
X289870D01*
X285900Y181046D02*
X289870D01*
Y174554D02*
X290576Y175260D01*
X289870Y181046D02*
X290576Y180340D01*
Y187960D02*
Y193040D01*
X285900Y187254D02*
X289870D01*
X285900Y193746D02*
X289870D01*
Y187254D02*
X290576Y187960D01*
X289870Y193746D02*
X290576Y193040D01*
Y200660D02*
Y205740D01*
X285900Y199954D02*
X289870D01*
X285900Y206446D02*
X289870D01*
Y199954D02*
X290576Y200660D01*
X289870Y206446D02*
X290576Y205740D01*
Y213360D02*
Y218440D01*
X285900Y212654D02*
X289870D01*
X285900Y219146D02*
X289870D01*
Y212654D02*
X290576Y213360D01*
X289870Y219146D02*
X290576Y218440D01*
Y226060D02*
Y231140D01*
X285900Y225354D02*
X289870D01*
X285900Y231846D02*
X289870D01*
Y225354D02*
X290576Y226060D01*
X289870Y231846D02*
X290576Y231140D01*
Y238760D02*
Y243840D01*
X285900Y238054D02*
X289870D01*
X285900Y244546D02*
X289870D01*
Y238054D02*
X290576Y238760D01*
X289870Y244546D02*
X290576Y243840D01*
Y251460D02*
Y256540D01*
X285900Y250754D02*
X289870D01*
X285900Y257246D02*
X289870D01*
Y250754D02*
X290576Y251460D01*
X289870Y257246D02*
X290576Y256540D01*
Y264160D02*
Y269240D01*
X285900Y263454D02*
X289870D01*
X285900Y269946D02*
X289870D01*
Y263454D02*
X290576Y264160D01*
X289870Y269946D02*
X290576Y269240D01*
X264160Y290576D02*
X269240D01*
X269946Y285900D02*
Y289870D01*
X263454Y285900D02*
Y289870D01*
X269240Y290576D02*
X269946Y289870D01*
X263454D02*
X264160Y290576D01*
X251460D02*
X256540D01*
X257246Y285900D02*
Y289870D01*
X250754Y285900D02*
Y289870D01*
X256540Y290576D02*
X257246Y289870D01*
X250754D02*
X251460Y290576D01*
X238760D02*
X243840D01*
X244546Y285900D02*
Y289870D01*
X238054Y285900D02*
Y289870D01*
X243840Y290576D02*
X244546Y289870D01*
X238054D02*
X238760Y290576D01*
X226060D02*
X231140D01*
X231846Y285900D02*
Y289870D01*
X225354Y285900D02*
Y289870D01*
X231140Y290576D02*
X231846Y289870D01*
X225354D02*
X226060Y290576D01*
X213360D02*
X218440D01*
X219146Y285900D02*
Y289870D01*
X212654Y285900D02*
Y289870D01*
X218440Y290576D02*
X219146Y289870D01*
X212654D02*
X213360Y290576D01*
X200660D02*
X205740D01*
X206446Y285900D02*
Y289870D01*
X199954Y285900D02*
Y289870D01*
X205740Y290576D02*
X206446Y289870D01*
X199954D02*
X200660Y290576D01*
X187960D02*
X193040D01*
X193746Y285900D02*
Y289870D01*
X187254Y285900D02*
Y289870D01*
X193040Y290576D02*
X193746Y289870D01*
X187254D02*
X187960Y290576D01*
X175260D02*
X180340D01*
X181046Y285900D02*
Y289870D01*
X174554Y285900D02*
Y289870D01*
X180340Y290576D02*
X181046Y289870D01*
X174554D02*
X175260Y290576D01*
X162560D02*
X167640D01*
X168346Y285900D02*
Y289870D01*
X161854Y285900D02*
Y289870D01*
X167640Y290576D02*
X168346Y289870D01*
X161854D02*
X162560Y290576D01*
X149860D02*
X154940D01*
X155646Y285900D02*
Y289870D01*
X149154Y285900D02*
Y289870D01*
X154940Y290576D02*
X155646Y289870D01*
X149154D02*
X149860Y290576D01*
X137160D02*
X142240D01*
X142946Y285900D02*
Y289870D01*
X136454Y285900D02*
Y289870D01*
X142240Y290576D02*
X142946Y289870D01*
X136454D02*
X137160Y290576D01*
X124460D02*
X129540D01*
X130246Y285900D02*
Y289870D01*
X123754Y285900D02*
Y289870D01*
X129540Y290576D02*
X130246Y289870D01*
X123754D02*
X124460Y290576D01*
X111760D02*
X116840D01*
X117546Y285900D02*
Y289870D01*
X111054Y285900D02*
Y289870D01*
X116840Y290576D02*
X117546Y289870D01*
X111054D02*
X111760Y290576D01*
X99060D02*
X104140D01*
X104846Y285900D02*
Y289870D01*
X98354Y285900D02*
Y289870D01*
X104140Y290576D02*
X104846Y289870D01*
X98354D02*
X99060Y290576D01*
X86360D02*
X91440D01*
X92146Y285900D02*
Y289870D01*
X85654Y285900D02*
Y289870D01*
X91440Y290576D02*
X92146Y289870D01*
X85654D02*
X86360Y290576D01*
X73660D02*
X78740D01*
X79446Y285900D02*
Y289870D01*
X72954Y285900D02*
Y289870D01*
X78740Y290576D02*
X79446Y289870D01*
X72954D02*
X73660Y290576D01*
X60960D02*
X66040D01*
X66746Y285900D02*
Y289870D01*
X60254Y285900D02*
Y289870D01*
X66040Y290576D02*
X66746Y289870D01*
X60254D02*
X60960Y290576D01*
X48260D02*
X53340D01*
X54046Y285900D02*
Y289870D01*
X47554Y285900D02*
Y289870D01*
X53340Y290576D02*
X54046Y289870D01*
X47554D02*
X48260Y290576D01*
X35560D02*
X40640D01*
X41346Y285900D02*
Y289870D01*
X34854Y285900D02*
Y289870D01*
X40640Y290576D02*
X41346Y289870D01*
X34854D02*
X35560Y290576D01*
X22860D02*
X27940D01*
X28646Y285900D02*
Y289870D01*
X22154Y285900D02*
Y289870D01*
X27940Y290576D02*
X28646Y289870D01*
X22154D02*
X22860Y290576D01*
X10160D02*
X15240D01*
X15946Y285900D02*
Y289870D01*
X9454Y285900D02*
Y289870D01*
X15240Y290576D02*
X15946Y289870D01*
X9454D02*
X10160Y290576D01*
X-11176Y264160D02*
Y269240D01*
X-10470Y269946D02*
X-6500D01*
X-10470Y263454D02*
X-6500D01*
X-11176Y269240D02*
X-10470Y269946D01*
X-11176Y264160D02*
X-10470Y263454D01*
X-11176Y251460D02*
Y256540D01*
X-10470Y257246D02*
X-6500D01*
X-10470Y250754D02*
X-6500D01*
X-11176Y256540D02*
X-10470Y257246D01*
X-11176Y251460D02*
X-10470Y250754D01*
X-11176Y238760D02*
Y243840D01*
X-10470Y244546D02*
X-6500D01*
X-10470Y238054D02*
X-6500D01*
X-11176Y243840D02*
X-10470Y244546D01*
X-11176Y238760D02*
X-10470Y238054D01*
X-11176Y226060D02*
Y231140D01*
X-10470Y231846D02*
X-6500D01*
X-10470Y225354D02*
X-6500D01*
X-11176Y231140D02*
X-10470Y231846D01*
X-11176Y226060D02*
X-10470Y225354D01*
X-11176Y213360D02*
Y218440D01*
X-10470Y219146D02*
X-6500D01*
X-10470Y212654D02*
X-6500D01*
X-11176Y218440D02*
X-10470Y219146D01*
X-11176Y213360D02*
X-10470Y212654D01*
X-11176Y200660D02*
Y205740D01*
X-10470Y206446D02*
X-6500D01*
X-10470Y199954D02*
X-6500D01*
X-11176Y205740D02*
X-10470Y206446D01*
X-11176Y200660D02*
X-10470Y199954D01*
X-11176Y187960D02*
Y193040D01*
X-10470Y193746D02*
X-6500D01*
X-10470Y187254D02*
X-6500D01*
X-11176Y193040D02*
X-10470Y193746D01*
X-11176Y187960D02*
X-10470Y187254D01*
X-11176Y175260D02*
Y180340D01*
X-10470Y181046D02*
X-6500D01*
X-10470Y174554D02*
X-6500D01*
X-11176Y180340D02*
X-10470Y181046D01*
X-11176Y175260D02*
X-10470Y174554D01*
X-11176Y162560D02*
Y167640D01*
X-10470Y168346D02*
X-6500D01*
X-10470Y161854D02*
X-6500D01*
X-11176Y167640D02*
X-10470Y168346D01*
X-11176Y162560D02*
X-10470Y161854D01*
X-11176Y149860D02*
Y154940D01*
X-10470Y155646D02*
X-6500D01*
X-10470Y149154D02*
X-6500D01*
X-11176Y154940D02*
X-10470Y155646D01*
X-11176Y149860D02*
X-10470Y149154D01*
D36*
X46250Y191250D02*
Y206000D01*
X184500Y118506D02*
X209073D01*
X186250Y121000D02*
X187500Y122250D01*
X179000Y121000D02*
X186250D01*
X189750Y102250D02*
X197250D01*
X186500Y105500D02*
X189750Y102250D01*
X183500Y117506D02*
X184500Y118506D01*
X209073D02*
X228621Y98957D01*
X177259Y119259D02*
X179000Y121000D01*
X197250Y102250D02*
X213000Y86500D01*
X192000Y131750D02*
Y144250D01*
X194500Y130250D02*
Y142250D01*
X183500Y111256D02*
Y117506D01*
X191250Y111785D02*
X195214Y115750D01*
X188000Y107500D02*
X191250Y110750D01*
X163000Y107500D02*
X188000D01*
X191250Y110750D02*
Y111785D01*
X186000Y132000D02*
Y136036D01*
X189000Y139036D01*
X195214Y115750D02*
X200000D01*
X151000Y122500D02*
X153750Y119750D01*
X160000Y123250D02*
X164500D01*
X159000Y124250D02*
X160000Y123250D01*
X164500D02*
X165750Y122000D01*
X177259Y119256D02*
Y119259D01*
X179500Y116006D02*
X179750Y115756D01*
X176000Y116006D02*
X179500D01*
X16825Y181925D02*
X70910D01*
X0Y165100D02*
X16825Y181925D01*
X70910D02*
X80985Y192000D01*
X15750Y184000D02*
X70157D01*
X9550Y177800D02*
X15750Y184000D01*
X70157D02*
X80157Y194000D01*
X0Y177800D02*
X9550D01*
X9872Y190500D02*
X14372Y186000D01*
X0Y190500D02*
X9872D01*
X14372Y186000D02*
X69328D01*
X4800Y203200D02*
X20000Y188000D01*
X68500D01*
X0Y203200D02*
X4800D01*
X81000Y200500D02*
X86715D01*
X106900Y272000D02*
X114300Y279400D01*
X97500Y272000D02*
X106900D01*
X54250Y228750D02*
X97500Y272000D01*
X54250Y191250D02*
Y228750D01*
X78250Y117000D02*
Y131250D01*
X79500Y134000D02*
X81000Y132500D01*
Y116922D02*
Y132500D01*
X83500Y98500D02*
Y133750D01*
X74000Y112750D02*
X78250Y117000D01*
X74828Y110750D02*
X81000Y116922D01*
X77000Y134000D02*
X79500D01*
X80750Y136500D02*
X83500Y133750D01*
X42250Y191250D02*
Y223500D01*
X50250Y228050D02*
X101600Y279400D01*
X50250Y191250D02*
Y228050D01*
X69328Y186000D02*
X79328Y196000D01*
X68500Y188000D02*
X81000Y200500D01*
X125000Y105500D02*
X127000Y103500D01*
X177250D01*
X125000Y151250D02*
X126500Y152750D01*
X125000Y105500D02*
Y151250D01*
X235750Y115750D02*
X237000D01*
X183750Y251750D02*
X226000D01*
X228750Y254500D01*
X231000D01*
X233750Y251750D01*
X254850D01*
X126500Y152750D02*
X130750D01*
X190750Y57000D02*
X204250Y70500D01*
Y76500D01*
X228621Y98957D02*
X230750D01*
X231500Y98207D01*
Y96500D02*
Y98207D01*
X177250Y103500D02*
X204250Y76500D01*
X159922Y105500D02*
X186500D01*
X158250Y60000D02*
X161750Y56500D01*
X205000Y146500D02*
X235750Y115750D01*
X164000Y219750D02*
X166000Y221750D01*
X228750D01*
X229750Y222750D01*
X49000Y88000D02*
Y108250D01*
X54000Y85828D02*
Y108250D01*
X61000Y81657D02*
Y108250D01*
X66000Y79485D02*
Y108250D01*
X269750Y79250D02*
X279400Y88900D01*
X241328Y30750D02*
X271750Y61172D01*
Y68550D01*
X279400Y76200D01*
X182250Y30750D02*
X241328D01*
X278050Y50800D02*
X279400D01*
X217500Y24500D02*
X239000D01*
X278000Y63500D01*
X279400D01*
X183078Y32750D02*
X239500D01*
X269750Y63000D01*
Y79250D01*
X269350Y38100D02*
X279400D01*
X66000Y79485D02*
X86750Y58735D01*
X61000Y81657D02*
X84750Y57907D01*
X54000Y85828D02*
X82750Y57078D01*
X49000Y88000D02*
X80750Y56250D01*
X85843Y21500D02*
X160250D01*
X85015Y19500D02*
X159422D01*
X43500Y62922D02*
Y109578D01*
X45500Y63750D02*
Y108750D01*
X47500Y110750D01*
X74250Y131250D02*
X77000Y134000D01*
X43500Y62922D02*
X59422Y47000D01*
X65750D01*
X45500Y63750D02*
X60250Y49000D01*
X66578D01*
X70750Y44828D01*
X159422Y19500D02*
X173172Y5750D01*
X65750Y47000D02*
X68750Y44000D01*
Y35765D02*
X85015Y19500D01*
X70750Y36593D02*
X85843Y21500D01*
X68750Y35765D02*
Y44000D01*
X70750Y36593D02*
Y44828D01*
X80750Y41343D02*
Y56250D01*
X82750Y42172D02*
X92172Y32750D01*
X166750D01*
X86750Y43828D02*
X93828Y36750D01*
X86750Y43828D02*
Y58735D01*
X84750Y43000D02*
Y57907D01*
Y43000D02*
X93000Y34750D01*
X82750Y42172D02*
Y57078D01*
X80750Y41343D02*
X95743Y26350D01*
X170322D01*
X173172Y23500D01*
X248000Y20750D02*
X278050Y50800D01*
X244285Y18750D02*
X244285Y18750D01*
X250000D01*
X269350Y38100D01*
X224750Y18750D02*
X244285D01*
X219464Y19500D02*
X222500D01*
X223750Y20750D01*
X248000D01*
X216500Y25500D02*
X217500Y24500D01*
X215464Y23500D02*
X219464Y19500D01*
X93828Y36750D02*
X179078D01*
X183078Y32750D01*
X93000Y34750D02*
X178250D01*
X182250Y30750D01*
X166750Y32750D02*
X174000Y25500D01*
X216500D01*
X173172Y23500D02*
X215464D01*
X160250Y21500D02*
X174000Y7750D01*
X178750D01*
X252950Y13750D02*
X266700Y0D01*
X173172Y5750D02*
X179578D01*
X187578Y13750D01*
X252950D01*
X178750Y7750D02*
X186750Y15750D01*
X221750D01*
X224750Y18750D01*
X247750Y45000D02*
X255250Y52500D01*
X239750Y45000D02*
X247750D01*
X230000Y54750D02*
X239750Y45000D01*
X199250Y54750D02*
X230000D01*
X196500Y52000D02*
X199250Y54750D01*
X113250Y68750D02*
X178500D01*
X246000Y47000D02*
X252250Y53250D01*
X240578Y47000D02*
X246000D01*
X230828Y56750D02*
X240578Y47000D01*
X198422Y56750D02*
X230828D01*
X158250Y53000D02*
X177750D01*
X192500Y38250D01*
X211500D01*
X194500Y41250D02*
X198000D01*
X182750Y57500D02*
Y64500D01*
Y57500D02*
X188250Y52000D01*
X196500D01*
X195672Y54000D02*
X198422Y56750D01*
X189078Y54000D02*
X195672D01*
X184750Y58328D02*
X189078Y54000D01*
X178500Y68750D02*
X182750Y64500D01*
X161750Y56500D02*
X179250D01*
X194500Y41250D01*
X184750Y58328D02*
Y65328D01*
X179328Y70750D02*
X184750Y65328D01*
X114078Y70750D02*
X179328D01*
X43500Y109578D02*
X46672Y112750D01*
X74000D01*
X47500Y110750D02*
X74828D01*
X70250Y131250D02*
X75500Y136500D01*
X80750D01*
X83500Y98500D02*
X113250Y68750D01*
X86250Y98578D02*
X114078Y70750D01*
X70250Y128000D02*
Y131250D01*
X63500Y0D02*
X67000Y3500D01*
Y31000D01*
X47250Y3550D02*
X50800Y0D01*
X47250Y3550D02*
Y47922D01*
X31000Y64172D02*
X47250Y47922D01*
X86500Y160250D02*
X91500Y165250D01*
X86500Y158364D02*
Y160250D01*
X84500Y157536D02*
Y161078D01*
Y157536D02*
X86250Y155786D01*
X86500Y158364D02*
X88250Y156614D01*
X33000Y65000D02*
X67000Y31000D01*
X29000Y63000D02*
X45250Y46750D01*
Y7150D02*
Y46750D01*
X38100Y0D02*
X45250Y7150D01*
X199750Y147750D02*
X201000Y146500D01*
X205000D01*
X197750Y143000D02*
X198500Y142250D01*
Y130000D02*
Y142250D01*
X194500Y142250D02*
X195250Y143000D01*
X197750D01*
X207500Y136750D02*
X208500Y135750D01*
Y129500D02*
Y135750D01*
Y129500D02*
X209750Y128250D01*
X219500D01*
X193000Y128750D02*
X194500Y130250D01*
X198500Y130000D02*
X199750Y128750D01*
X203500D01*
X204750Y130000D01*
X169750Y127750D02*
X172000D01*
X176250Y132000D01*
X204750Y130000D02*
Y135750D01*
X205750Y136750D01*
X207500D01*
X182250Y110006D02*
X183500Y111256D01*
X179750Y111006D02*
Y115756D01*
Y111006D02*
X180750Y110006D01*
X182250D01*
X176000Y111256D02*
Y116006D01*
X174750Y110006D02*
X176000Y111256D01*
X165750Y115750D02*
X169750Y119750D01*
X165750Y111000D02*
Y115750D01*
Y111000D02*
X166744Y110006D01*
X174750D01*
X162000Y108500D02*
X163000Y107500D01*
X162000Y108500D02*
Y115500D01*
X165750Y119250D01*
X151000Y128500D02*
X153000Y130500D01*
X84500Y161078D02*
X89000Y165578D01*
X190500Y268000D02*
Y279400D01*
X141000Y266000D02*
X162500D01*
X165100Y268600D01*
Y279400D01*
X151750Y196250D02*
X153000Y195000D01*
X171215Y132750D02*
X188750Y150286D01*
Y152000D01*
X189250Y152500D01*
X196000Y152000D02*
X196500Y152500D01*
X199250D01*
X199750Y152000D01*
Y147750D02*
Y152000D01*
X189250Y152500D02*
X191750D01*
X192250Y152000D01*
Y147250D02*
Y152000D01*
Y147250D02*
X193000Y146500D01*
X195250D01*
X196000Y147250D01*
Y152000D01*
X176250Y132000D02*
X178000D01*
X181250Y128750D01*
X193000D01*
X231000Y96000D02*
X231500Y96500D01*
X240250Y80250D02*
X257250D01*
X234000Y86500D02*
X240250Y80250D01*
X213000Y86500D02*
X234000D01*
X211500Y38250D02*
X225000Y51750D01*
X228750D01*
X70250Y194000D02*
X71672D01*
X80172Y202500D01*
X91786D01*
X96036Y198250D01*
X125715D01*
X146250Y218785D01*
Y231250D01*
X86250Y98578D02*
Y132000D01*
X154000Y208000D02*
Y210750D01*
X129750Y188250D02*
X151250Y209750D01*
X132250Y186250D02*
X154000Y208000D01*
X153000Y192000D02*
Y195000D01*
X130750Y152750D02*
X137750Y159750D01*
X141250Y184250D02*
X150000Y193000D01*
X143250Y182250D02*
X153000Y192000D01*
X145750Y167750D02*
X148500Y165000D01*
X67000Y139000D02*
X83250Y155250D01*
X68535Y137000D02*
X86250Y154715D01*
Y155786D01*
X69363Y135000D02*
X88250Y153887D01*
Y156614D01*
X43843Y139000D02*
X67000D01*
X29000Y63000D02*
Y124157D01*
X44672Y137000D02*
X68535D01*
X31000Y64172D02*
Y123328D01*
X45500Y135000D02*
X69363D01*
X33000Y65000D02*
Y122500D01*
X29000Y124157D02*
X43843Y139000D01*
X31000Y123328D02*
X44672Y137000D01*
X33000Y122500D02*
X45500Y135000D01*
X86250Y132000D02*
X89250Y135000D01*
X191250Y145000D02*
X192000Y144250D01*
X189750Y145000D02*
X191250D01*
X189000Y144250D02*
X189750Y145000D01*
X189000Y139036D02*
Y144250D01*
X165750Y119250D02*
Y122000D01*
X153000Y130500D02*
X158000D01*
X159000Y129500D01*
Y124250D02*
Y129500D01*
X169000Y130250D02*
X171543D01*
X164250Y127000D02*
Y131750D01*
Y127000D02*
X166250Y125000D01*
X185250Y131250D02*
X186000Y132000D01*
X184250Y131250D02*
X185250D01*
X183500Y132000D02*
X184250Y131250D01*
X183500Y132000D02*
Y137000D01*
X185000Y138500D01*
Y140000D01*
X184000Y141000D02*
X185000Y140000D01*
X182293Y141000D02*
X184000D01*
X171543Y130250D02*
X182293Y141000D01*
X164250Y131750D02*
X165250Y132750D01*
X166500D01*
X169000Y130250D01*
X166250Y125000D02*
X186500D01*
X187500Y124000D01*
Y122250D02*
Y124000D01*
X219500Y128250D02*
X232000Y115750D01*
X149250Y260250D02*
X182750D01*
X190500Y268000D01*
X135250Y260250D02*
X141000Y266000D01*
X42250Y223500D02*
X87000Y268250D01*
Y272000D01*
X98965Y188250D02*
X129750D01*
X98136Y186250D02*
X132250D01*
X97308Y184250D02*
X141250D01*
X96480Y182250D02*
X143250D01*
X91500Y165250D02*
Y184000D01*
X89000Y165578D02*
Y171250D01*
X83250Y189250D02*
X86250D01*
X91500Y184000D01*
X80985Y192000D02*
X86729D01*
X96480Y182250D01*
X80157Y194000D02*
X87558D01*
X97308Y184250D01*
X79328Y196000D02*
X88386D01*
X98136Y186250D01*
X86715Y200500D02*
X98965Y188250D01*
X148000Y137750D02*
X148250Y137500D01*
X148000Y141250D02*
X148500Y141750D01*
Y165000D01*
X151250Y213500D02*
X154000Y210750D01*
X170250Y132750D02*
X171215D01*
X148000Y137750D02*
Y141250D01*
X148250Y117172D02*
X159922Y105500D01*
X151000Y122500D02*
Y128500D01*
X148250Y117172D02*
Y137500D01*
D42*
X-4500Y25400D02*
D03*
Y12700D02*
D03*
X283900Y38100D02*
D03*
Y50800D02*
D03*
Y63500D02*
D03*
Y76200D02*
D03*
Y88900D02*
D03*
X-4500Y203200D02*
D03*
Y190500D02*
D03*
Y177800D02*
D03*
Y165100D02*
D03*
D43*
X38100Y-4500D02*
D03*
X50800D02*
D03*
X63500D02*
D03*
X266700D02*
D03*
X190500Y283900D02*
D03*
X165100D02*
D03*
X114300D02*
D03*
X101600D02*
D03*
D44*
X46250Y206000D02*
D03*
X189750Y102250D02*
D03*
X192000Y131750D02*
D03*
X153750Y119750D02*
D03*
X238375Y167750D02*
D03*
X177259Y119256D02*
D03*
X158750Y276500D02*
D03*
X78250Y131250D02*
D03*
X164750Y199750D02*
D03*
X190750Y57000D02*
D03*
X54250Y191250D02*
D03*
X50250D02*
D03*
X46250D02*
D03*
X155800Y9250D02*
D03*
X54800D02*
D03*
X101500Y74000D02*
D03*
X49000Y108250D02*
D03*
X54000D02*
D03*
X61000Y108250D02*
D03*
X66000D02*
D03*
X77750Y269750D02*
D03*
X254850Y251750D02*
D03*
X164000Y219750D02*
D03*
X201750Y207750D02*
D03*
X183750Y251750D02*
D03*
X229750Y222750D02*
D03*
X233750Y223750D02*
D03*
X225750Y215750D02*
D03*
X257250Y80250D02*
D03*
X237000Y115750D02*
D03*
X169750Y119750D02*
D03*
Y127750D02*
D03*
X152750Y147750D02*
D03*
X175250Y100750D02*
D03*
X178750Y97250D02*
D03*
X180500Y95500D02*
D03*
X177000Y99000D02*
D03*
X200000Y115750D02*
D03*
X210250Y93750D02*
D03*
X158250Y53000D02*
D03*
Y60000D02*
D03*
X242750Y53750D02*
D03*
X244500Y67750D02*
D03*
X240000Y67750D02*
D03*
X198000Y41250D02*
D03*
X271500Y120250D02*
D03*
X229750Y213000D02*
D03*
X74250Y131250D02*
D03*
X252250Y53250D02*
D03*
X255250Y52500D02*
D03*
X70250Y128000D02*
D03*
X42250Y191250D02*
D03*
X209750Y183750D02*
D03*
X207000Y199750D02*
D03*
X185750Y207750D02*
D03*
X209750Y167750D02*
D03*
X201750Y175750D02*
D03*
X131500Y149000D02*
D03*
X70250Y194000D02*
D03*
X149250Y260250D02*
D03*
X135250Y260250D02*
D03*
X135500Y251500D02*
D03*
X151750Y196250D02*
D03*
X250000Y110750D02*
D03*
X231000Y96000D02*
D03*
X250250Y95656D02*
D03*
X228750Y51750D02*
D03*
X272000Y126750D02*
D03*
X196250Y95750D02*
D03*
Y98250D02*
D03*
X83250Y189250D02*
D03*
X146250Y231250D02*
D03*
X201750Y231750D02*
D03*
X209750D02*
D03*
X185750Y239750D02*
D03*
X217750Y255750D02*
D03*
X241750Y247750D02*
D03*
X151250Y209750D02*
D03*
X89250Y135000D02*
D03*
X149250Y199250D02*
D03*
X150000Y193000D02*
D03*
X137750Y159750D02*
D03*
Y175750D02*
D03*
X193750Y199750D02*
D03*
X145750Y167750D02*
D03*
X107500Y145250D02*
D03*
X83250Y155250D02*
D03*
X107500Y160250D02*
D03*
X255000Y215500D02*
D03*
X232000Y115750D02*
D03*
X161750Y247750D02*
D03*
X87000Y272000D02*
D03*
X107500Y190750D02*
D03*
Y177250D02*
D03*
X89000Y171250D02*
D03*
X158500Y209750D02*
D03*
X151250Y213500D02*
D03*
X153750Y220750D02*
D03*
X241750Y167750D02*
D03*
X170250Y132750D02*
D03*
D45*
X245000Y24500D02*
D03*
X15000Y264000D02*
D03*
X44250Y273500D02*
D03*
X253250Y61000D02*
D03*
X210500Y6750D02*
D03*
X116500Y112750D02*
D03*
X95250Y207000D02*
D03*
X273500Y184000D02*
D03*
D46*
X54750Y150250D02*
D03*
X40000D02*
D03*
X101300Y41550D02*
D03*
X139400Y41550D02*
D03*
X164800Y41550D02*
D03*
X152100Y79650D02*
D03*
X75900Y79650D02*
D03*
X37800D02*
D03*
X106500Y11000D02*
D03*
X17300Y45500D02*
D03*
X114000Y86100D02*
D03*
X50500Y66950D02*
D03*
X126700Y54250D02*
D03*
X43250Y253070D02*
D03*
Y245500D02*
D03*
X176299Y12500D02*
D03*
X176250Y45500D02*
D03*
X63200Y41550D02*
D03*
M02*
